<?xml version="1.0" standalone="no"?>
<!DOCTYPE svg PUBLIC "-//W3C//DTD SVG 20010904//EN"
 "http://www.w3.org/TR/2001/REC-SVG-20010904/DTD/svg10.dtd">
<svg version="1.0" xmlns="http://www.w3.org/2000/svg"
 width="1309.000000pt" height="285.000000pt" viewBox="0 0 1309.000000 285.000000"
 preserveAspectRatio="xMidYMid meet">

<g transform="translate(0.000000,285.000000) scale(0.100000,-0.100000)"
fill="#000000" stroke="none">
<path d="M5358 2797 c-191 -102 -257 -162 -327 -297 -55 -105 -101 -259 -101
-336 l0 -61 57 -6 c88 -9 141 -42 188 -117 35 -56 40 -72 39 -120 0 -39 -8
-70 -26 -105 -34 -65 -58 -87 -141 -126 -60 -27 -76 -31 -124 -26 -100 10
-166 73 -210 199 -28 79 -27 141 3 186 9 13 13 27 9 30 -4 4 -79 7 -168 7
-178 0 -229 -10 -340 -66 -65 -33 -141 -99 -161 -138 -33 -66 -20 -166 40
-318 35 -90 37 -71 -52 -438 -42 -172 -30 -222 70 -304 91 -74 170 -106 312
-131 200 -33 282 -24 397 44 l49 28 -20 21 c-61 68 -103 205 -82 275 15 54 47
97 90 121 35 19 53 23 109 19 123 -7 187 -74 197 -206 5 -57 2 -74 -18 -112
-13 -25 -41 -58 -63 -75 l-41 -31 18 -59 c38 -127 69 -289 75 -394 l6 -110 46
-5 c25 -3 133 -8 239 -12 145 -4 196 -3 207 6 10 8 15 31 15 70 0 71 30 133
88 177 75 57 331 125 537 143 128 11 411 11 540 0 204 -17 487 -93 547 -147
12 -10 34 -36 49 -57 25 -33 29 -49 29 -101 0 -98 1 -98 222 -91 101 4 206 9
234 12 l51 5 12 135 c10 116 57 341 86 415 4 10 -3 20 -21 29 -14 8 -40 32
-57 54 -29 37 -32 48 -36 123 -4 110 19 161 93 204 46 27 58 30 122 27 85 -4
129 -32 164 -103 19 -39 21 -56 15 -109 -6 -64 -39 -147 -75 -193 -11 -14 -20
-29 -20 -34 0 -4 34 -25 75 -45 62 -31 89 -38 153 -42 89 -5 288 26 373 57 64
24 185 114 217 161 30 44 29 122 -2 248 -52 210 -69 289 -69 327 0 22 19 96
42 165 50 148 51 205 5 271 -57 82 -201 157 -344 180 -76 12 -293 9 -306 -3
-4 -4 1 -26 11 -47 52 -117 -50 -327 -176 -361 -57 -16 -116 -7 -179 26 -98
51 -150 130 -150 226 0 58 41 140 91 182 32 27 115 56 161 56 28 0 28 0 28 68
0 48 -9 97 -31 167 -77 245 -164 346 -409 471 l-75 39 -1098 1 -1097 1 -92
-50z m1317 -75 c812 5 912 4 984 -16 93 -25 134 -49 195 -114 141 -149 244
-341 207 -386 -6 -8 -32 -19 -58 -25 -63 -16 -153 -103 -196 -190 -28 -58 -32
-76 -32 -146 1 -63 6 -90 24 -127 33 -70 101 -140 167 -173 53 -27 68 -30 154
-29 76 0 112 6 177 27 72 24 87 34 136 86 61 66 87 127 87 203 0 37 4 50 18
56 64 26 254 -31 317 -95 19 -19 42 -55 51 -80 16 -41 16 -50 1 -131 -21 -109
-22 -229 -1 -374 29 -204 6 -360 -59 -402 -39 -26 -134 -56 -240 -77 -121 -24
-180 -24 -202 -3 -14 15 -15 18 0 38 54 73 77 192 55 285 -25 107 -163 210
-292 219 -125 9 -236 -45 -292 -141 -35 -60 -77 -211 -78 -282 -1 -63 22 -131
62 -182 18 -23 20 -40 20 -189 l0 -164 -82 0 c-46 0 -117 -5 -158 -10 -89 -12
-113 0 -135 64 -24 70 -65 107 -191 174 -147 78 -274 118 -397 127 -356 26
-397 26 -749 0 -104 -8 -219 -44 -353 -111 -71 -36 -139 -72 -150 -82 -33 -28
-72 -84 -84 -123 -16 -49 -42 -59 -127 -49 -38 5 -109 9 -157 10 l-88 0 3 170
c3 143 6 171 20 182 23 18 60 105 65 153 6 49 -28 198 -63 275 -30 67 -92 132
-149 156 -22 9 -73 18 -115 21 -93 6 -166 -18 -243 -81 -75 -61 -100 -116
-100 -220 0 -69 4 -92 26 -137 15 -30 32 -62 39 -72 38 -54 -92 -59 -279 -12
-182 46 -216 78 -236 221 -8 62 -7 102 8 217 22 167 22 304 2 405 -15 76 -13
103 16 158 26 50 71 84 150 113 94 35 137 44 181 36 33 -7 33 -7 38 -73 6 -79
29 -128 93 -200 40 -45 57 -55 128 -79 65 -21 101 -27 177 -27 85 -1 102 2
154 28 69 34 121 84 161 158 27 48 30 62 30 143 0 79 -4 97 -29 149 -33 68
-118 157 -167 175 -114 42 -113 40 -70 148 46 118 204 313 287 356 93 48 185
57 554 51 179 -3 532 -4 785 -2z"/>
<path d="M5510 2670 c-171 -27 -285 -123 -363 -305 -52 -122 -53 -132 -16
-140 44 -10 167 -136 204 -210 28 -55 30 -68 30 -165 0 -97 -2 -110 -30 -164
-41 -81 -106 -146 -190 -187 -65 -32 -75 -34 -170 -34 -137 1 -251 36 -321 99
-68 61 -113 139 -126 220 -13 80 -17 81 -140 36 -93 -34 -123 -57 -149 -117
-18 -39 -18 -46 -4 -113 20 -93 19 -260 -1 -402 -17 -118 -14 -237 6 -295 7
-18 26 -41 44 -52 41 -26 201 -69 284 -77 l64 -7 -20 40 c-43 84 -51 228 -16
311 22 54 109 137 182 173 63 32 73 34 172 34 99 0 109 -2 173 -33 52 -26 77
-46 109 -88 72 -95 131 -314 110 -405 -24 -100 -36 -135 -52 -154 -32 -38 -43
-83 -38 -156 5 -60 10 -75 31 -95 24 -22 34 -24 136 -24 l109 0 7 31 c17 75
148 179 302 239 141 56 263 86 403 100 146 14 462 15 605 1 173 -18 372 -73
507 -142 102 -52 208 -157 208 -207 0 -21 3 -22 113 -22 140 0 154 9 166 94 4
32 4 77 0 100 -5 22 -8 44 -9 48 0 4 -11 19 -25 34 -14 15 -25 34 -25 43 0 9
-7 34 -15 56 -30 85 -9 253 50 382 28 62 96 138 145 163 55 28 140 43 217 38
122 -6 257 -92 315 -199 20 -38 23 -58 23 -149 0 -94 -3 -111 -27 -159 l-26
-54 61 6 c75 7 201 39 262 66 29 13 49 31 61 53 25 48 29 189 10 336 -21 159
-20 255 1 366 l17 88 -24 46 c-29 53 -59 73 -160 107 -111 37 -116 36 -123
-28 -8 -76 -43 -143 -112 -214 -53 -54 -69 -64 -145 -89 -71 -23 -102 -28
-191 -28 -99 0 -111 2 -170 31 -201 99 -284 330 -187 523 38 75 142 183 194
202 32 11 34 15 28 43 -4 16 -18 57 -32 90 -64 151 -166 257 -283 296 -74 24
-74 24 -439 19 -540 -6 -965 -6 -1335 2 -184 4 -355 3 -385 -2z"/>
<path d="M4487 2558 c17 -69 7 -128 -34 -187 -83 -121 -166 -155 -373 -154
-157 1 -228 15 -363 72 -51 21 -110 44 -132 51 -51 17 -173 17 -203 1 -30 -16
-55 -76 -47 -110 11 -43 69 -122 143 -195 56 -54 76 -82 94 -130 56 -150 6
-305 -109 -341 -35 -10 -27 -25 15 -27 94 -4 178 8 216 32 81 49 121 132 114
235 -4 62 -3 65 19 65 27 0 63 33 63 58 0 9 -9 34 -20 55 -11 20 -18 37 -16
37 2 0 33 -16 70 -35 74 -38 128 -45 175 -21 27 14 51 53 51 82 0 10 7 13 25
9 14 -3 36 -7 50 -10 38 -8 160 21 216 51 58 32 118 94 150 156 27 52 30 153
7 209 -17 40 -71 104 -100 120 -19 10 -19 9 -11 -23z"/>
<path d="M8562 2555 c-50 -42 -82 -118 -82 -194 0 -84 23 -135 90 -202 83 -83
217 -128 322 -109 28 6 51 10 52 10 0 0 2 -12 3 -27 1 -17 14 -39 33 -56 29
-26 38 -29 85 -25 32 3 75 17 113 36 63 33 73 32 47 -2 -33 -44 -8 -116 41
-116 18 0 20 -7 19 -77 0 -66 5 -86 28 -130 38 -73 98 -113 179 -119 34 -3 64
-5 67 -6 28 -3 91 4 91 10 0 4 -20 18 -44 31 -25 13 -57 41 -73 64 -26 37 -28
47 -28 136 0 124 26 184 108 255 49 42 86 89 134 170 29 48 3 130 -45 143 -15
4 -56 7 -92 6 -66 -1 -109 -13 -296 -87 -114 -44 -270 -62 -406 -47 -138 16
-204 54 -270 155 -32 50 -38 67 -38 113 0 30 5 63 10 74 16 28 -11 25 -48 -6z"/>
<path d="M3840 2455 c-36 -8 -85 -22 -109 -31 -44 -17 -44 -17 -23 -34 20 -17
25 -17 89 1 164 46 338 31 477 -41 61 -31 82 -38 92 -29 8 6 14 17 14 23 0 16
-121 80 -190 101 -78 23 -267 29 -350 10z"/>
<path d="M8947 2455 c-65 -13 -207 -76 -227 -100 -6 -8 -5 -18 4 -30 13 -18
17 -17 92 22 103 53 166 67 294 67 92 0 170 -12 240 -38 8 -3 24 1 35 10 25
19 16 26 -75 55 -85 27 -266 34 -363 14z"/>
<path d="M4826 2438 c-8 -13 -18 -41 -21 -63 -13 -74 -40 -100 -129 -120 -31
-7 -55 -19 -64 -33 -14 -22 -14 -22 37 -22 115 0 190 41 231 125 24 49 21 86
-7 118 -21 22 -30 22 -47 -5z"/>
<path d="M8216 2438 c-40 -57 5 -168 86 -209 44 -23 188 -40 188 -23 -1 22
-29 41 -70 48 -78 12 -130 59 -130 117 0 32 -28 89 -44 89 -8 0 -22 -10 -30
-22z"/>
<path d="M3119 2411 c38 -41 185 -95 202 -75 9 11 8 18 0 28 -15 17 -131 61
-188 71 l-43 7 29 -31z"/>
<path d="M9895 2416 c-107 -35 -126 -47 -123 -70 4 -25 12 -24 102 8 72 25
151 86 111 86 -11 -1 -51 -11 -90 -24z"/>
<path d="M1144 2410 c15 -53 69 -151 89 -165 41 -27 191 -55 338 -64 155 -10
269 -28 269 -42 0 -5 -8 -9 -17 -9 -34 0 -126 -51 -183 -100 -50 -43 -60 -58
-74 -111 -10 -33 -15 -63 -13 -66 3 -2 28 13 56 35 74 59 147 90 252 107 132
21 176 19 235 -10 62 -31 138 -105 109 -105 -35 0 -119 -46 -172 -94 -58 -52
-88 -117 -99 -211 -8 -66 0 -69 55 -20 38 35 121 77 175 89 l29 7 -26 -31
c-37 -44 -52 -102 -50 -194 2 -86 -5 -109 -45 -143 -35 -29 -25 -37 27 -19 62
23 125 70 166 126 73 100 123 114 209 59 47 -29 48 -31 42 -70 -10 -60 5 -79
63 -79 33 0 58 7 82 23 96 64 97 249 2 295 -41 19 -82 8 -99 -27 l-12 -24 -17
32 c-9 18 -25 41 -36 52 -19 19 -19 19 14 19 18 0 42 -7 53 -15 29 -22 53 -18
60 10 11 46 -22 218 -59 302 -105 245 -222 361 -405 403 -59 14 -91 11 -232
-20 -52 -11 -129 -25 -170 -30 -41 -5 -113 -19 -160 -30 -168 -43 -314 -8
-418 99 -38 38 -44 42 -38 21z"/>
<path d="M2684 2400 c-94 -33 -113 -52 -80 -79 20 -16 52 2 100 55 21 24 37
44 35 43 -2 0 -27 -9 -55 -19z"/>
<path d="M2840 2404 c-63 -17 -122 -53 -146 -89 -9 -13 -21 -46 -28 -72 l-12
-48 -30 42 c-30 44 -67 57 -78 27 -12 -31 -6 -134 12 -191 25 -80 86 -173 114
-173 9 0 33 -7 54 -16 46 -19 145 -46 150 -41 2 2 -3 18 -12 36 -23 47 -15
214 12 262 25 43 78 69 153 76 72 7 122 -9 156 -48 26 -31 45 -31 45 0 0 46
-36 118 -84 167 -78 80 -179 102 -306 68z"/>
<path d="M10046 2404 c-66 -21 -137 -93 -165 -167 -24 -65 -24 -67 -12 -86 7
-11 16 -6 44 22 41 40 90 53 171 43 58 -8 107 -33 130 -68 20 -30 40 -170 31
-217 -4 -19 -13 -48 -22 -64 l-15 -30 39 8 c21 3 65 18 99 31 33 13 68 24 76
24 19 0 60 52 95 122 24 47 27 65 27 153 1 96 0 100 -21 103 -16 2 -29 -7 -49
-37 -30 -47 -44 -52 -44 -17 0 68 -56 136 -139 167 -74 28 -182 34 -245 13z"/>
<path d="M11919 2394 c-38 -42 -121 -91 -184 -110 -69 -19 -173 -15 -270 11
-33 9 -94 21 -135 26 -41 5 -118 18 -170 29 -146 32 -170 34 -241 16 -100 -26
-148 -54 -224 -130 -74 -75 -139 -184 -190 -321 -34 -90 -47 -261 -21 -271 9
-3 27 1 41 10 13 9 38 16 55 16 l31 0 -33 -42 c-18 -24 -33 -44 -34 -46 -1 -2
-13 8 -27 22 -66 66 -157 -10 -157 -132 0 -101 64 -172 157 -172 51 0 68 23
60 82 -5 38 -4 40 41 68 32 20 60 30 87 30 44 0 71 -22 143 -116 30 -40 105
-88 162 -104 36 -10 48 3 16 18 -38 17 -56 70 -50 143 7 72 -12 153 -46 196
-11 14 -19 28 -17 29 12 12 132 -43 176 -81 29 -25 57 -45 62 -45 25 0 -3 151
-39 213 -26 44 -128 118 -189 137 l-55 17 49 43 c77 69 121 84 221 76 164 -12
283 -56 363 -132 30 -29 39 -30 39 -5 0 92 -114 214 -235 251 -22 7 -44 16
-48 20 -14 12 108 31 264 40 151 9 293 37 337 66 23 15 100 160 90 169 -3 3
-15 -7 -29 -21z"/>
<path d="M10409 2360 c55 -55 70 -60 90 -29 11 18 11 23 -1 30 -18 12 -116 49
-129 49 -5 0 13 -22 40 -50z"/>
<path d="M2495 2276 c-17 -25 -15 -56 4 -56 9 0 25 69 17 77 -2 3 -12 -7 -21
-21z"/>
<path d="M10579 2263 c7 -42 31 -58 31 -20 0 13 -8 31 -18 41 -18 16 -19 15
-13 -21z"/>
<path d="M640 2250 c0 -33 44 -197 56 -211 8 -9 36 -22 61 -30 l46 -12 -69
-35 c-125 -62 -132 -81 -40 -106 57 -16 67 -16 92 -3 50 26 94 92 94 141 0 18
9 30 28 40 75 40 87 78 49 160 l-23 49 -28 -67 -29 -67 -18 40 c-25 57 -75 85
-186 105 -19 3 -33 1 -33 -4z"/>
<path d="M12380 2246 c-73 -15 -124 -48 -146 -94 l-18 -37 -25 58 c-14 31 -28
57 -32 57 -10 0 -49 -95 -49 -118 0 -22 47 -66 80 -77 13 -4 20 -15 20 -33 0
-42 39 -111 78 -137 43 -29 48 -30 119 -9 46 13 54 19 51 37 -2 16 -25 33 -88
64 -47 23 -77 42 -67 43 9 0 37 9 61 21 l45 21 21 96 c12 53 23 103 25 110 5
14 -2 14 -75 -2z"/>
<path d="M1175 2116 c-80 -37 -205 -134 -263 -204 -21 -26 -76 -102 -121 -170
-75 -113 -84 -132 -112 -235 -36 -139 -44 -225 -31 -344 12 -106 38 -174 76
-198 33 -22 73 -13 88 20 9 21 4 41 -33 132 -44 108 -44 108 -44 233 0 103 4
138 23 200 41 130 123 261 238 375 71 72 116 104 198 145 51 25 71 41 71 54 0
29 -13 28 -90 -8z"/>
<path d="M11824 2135 c-9 -22 1 -30 79 -67 191 -91 395 -347 440 -553 37 -167
30 -260 -32 -405 -36 -84 -40 -134 -12 -150 30 -15 47 -12 79 15 45 38 63 102
69 245 4 110 2 138 -20 237 -33 142 -39 154 -132 296 -124 188 -230 291 -374
361 -84 41 -89 42 -97 21z"/>
<path d="M3116 2064 c-17 -16 -20 -42 -8 -59 4 -6 28 -23 53 -38 25 -14 60
-42 78 -62 28 -32 31 -42 31 -103 0 -86 -11 -125 -51 -169 -65 -75 -87 -165
-49 -203 11 -11 20 -32 20 -46 0 -62 91 -155 180 -182 54 -16 133 -23 149 -13
29 19 3 38 -61 45 -68 8 -135 36 -169 72 -20 22 -20 23 -4 81 25 87 25 117 -1
121 -12 2 -35 -9 -53 -23 -30 -26 -31 -26 -31 -6 0 63 54 125 185 213 84 57
121 103 110 138 -9 28 -51 37 -74 16 -10 -9 -26 -37 -35 -61 -10 -24 -28 -50
-40 -59 l-24 -15 6 84 c8 129 -27 215 -106 267 -33 22 -85 23 -106 2z"/>
<path d="M9885 2070 c-11 -4 -37 -26 -57 -48 -58 -65 -82 -175 -59 -274 8 -34
7 -37 -8 -28 -24 12 -39 31 -64 81 -12 24 -30 47 -39 53 -39 24 -73 -36 -48
-83 6 -12 48 -45 93 -75 45 -30 106 -79 135 -110 43 -45 52 -61 52 -91 l0 -37
-31 26 c-33 28 -67 34 -75 12 -3 -7 4 -41 15 -74 31 -91 29 -102 -28 -140 -35
-24 -67 -36 -117 -44 -87 -13 -94 -15 -94 -27 0 -25 41 -33 111 -21 121 21
229 110 229 191 0 23 6 38 20 47 15 9 20 23 20 52 0 52 -18 94 -63 148 -42 50
-57 95 -57 173 0 82 30 121 139 181 23 13 31 24 31 46 0 15 -5 33 -12 40 -14
14 -63 15 -93 2z"/>
<path d="M1399 1957 c-22 -51 -25 -54 -41 -40 -17 15 -184 64 -192 56 -2 -2 1
-27 6 -56 12 -63 54 -144 79 -152 28 -9 24 -17 -26 -47 -30 -18 -45 -34 -45
-48 0 -18 6 -20 58 -20 76 1 158 40 187 91 11 20 30 51 42 70 25 38 24 53 -17
142 l-27 59 -24 -55z"/>
<path d="M11636 1939 c-32 -74 -32 -94 -3 -138 12 -19 27 -42 32 -52 36 -59
113 -99 192 -99 80 0 83 31 7 71 -24 13 -44 27 -44 30 0 3 11 11 24 17 45 20
108 202 71 202 -30 0 -151 -32 -172 -46 -12 -8 -24 -14 -27 -14 -2 0 -12 20
-22 45 -9 25 -20 45 -24 45 -4 0 -19 -27 -34 -61z"/>
<path d="M3075 1840 c-8 -25 -58 -56 -116 -71 -40 -11 -57 -9 -138 11 -91 22
-93 22 -111 4 -11 -11 -20 -37 -21 -60 -3 -35 2 -48 34 -85 33 -38 58 -98 69
-164 4 -25 40 -31 58 -10 7 8 20 15 29 15 21 0 73 -53 95 -96 17 -36 40 -48
54 -31 29 36 42 167 21 225 -9 27 -7 39 16 87 30 60 48 195 27 195 -6 0 -13
-9 -17 -20z"/>
<path d="M9993 1844 c-14 -37 28 -201 56 -218 5 -3 2 -25 -6 -48 -25 -71 4
-247 38 -236 6 2 27 28 47 57 21 29 49 60 64 69 25 15 28 15 47 -2 33 -30 52
-17 71 50 18 69 53 129 81 144 35 19 20 122 -19 134 -11 4 -57 -3 -103 -15
-109 -28 -174 -16 -232 42 -29 29 -39 34 -44 23z"/>
<path d="M3860 1741 c-68 -230 -201 -357 -386 -369 -62 -4 -73 -7 -62 -18 19
-19 114 -54 147 -54 42 0 124 27 165 55 47 32 51 31 66 -4 17 -43 58 -77 132
-111 110 -49 124 -40 79 53 -39 79 -81 267 -87 379 -4 79 -16 138 -28 138 -3
0 -14 -31 -26 -69z"/>
<path d="M9195 1800 c-4 -7 -11 -65 -16 -129 -12 -165 -63 -366 -106 -413 -19
-21 -11 -48 14 -48 10 0 50 15 88 33 68 33 127 86 139 125 6 19 10 18 56 -13
45 -30 122 -55 170 -55 28 0 126 38 139 54 9 11 -2 14 -61 18 -179 12 -309
133 -378 353 -25 77 -34 93 -45 75z"/>
<path d="M394 1743 c-72 -171 -102 -342 -85 -482 24 -190 175 -492 268 -536
33 -16 40 -16 63 -4 15 9 26 25 28 42 3 23 -12 43 -95 125 -105 104 -155 177
-190 281 -18 54 -23 88 -23 186 0 133 13 202 60 320 17 43 29 84 26 92 -10 25
-36 13 -52 -24z"/>
<path d="M12647 1767 c-2 -6 9 -46 24 -87 53 -137 63 -186 63 -325 0 -117 -3
-137 -27 -199 -38 -97 -106 -194 -191 -273 -81 -75 -100 -104 -91 -134 20 -61
104 -38 167 46 48 63 117 203 159 325 32 91 34 101 33 235 -1 121 -4 152 -27
226 -49 160 -92 233 -110 186z"/>
<path d="M1664 1712 c-90 -32 -162 -84 -270 -194 -72 -75 -119 -114 -154 -130
-39 -18 -50 -28 -48 -43 3 -17 10 -20 52 -17 27 1 63 9 79 17 40 20 44 19 50
-13 8 -38 51 -82 81 -82 37 0 40 15 15 67 -13 26 -24 70 -27 97 -3 43 1 58 27
98 32 51 86 94 166 136 53 27 133 35 208 19 33 -7 37 -6 37 12 0 28 -29 41
-103 47 -45 3 -76 0 -113 -14z"/>
<path d="M11267 1721 c-45 -10 -62 -24 -53 -46 5 -13 12 -15 38 -8 111 28 221
-6 322 -98 71 -64 94 -121 77 -182 -7 -23 -22 -57 -32 -76 -24 -41 -19 -61 17
-61 32 0 80 48 89 90 6 28 8 29 28 15 12 -8 46 -19 76 -26 45 -9 55 -9 69 4
13 13 13 19 2 31 -7 9 -19 16 -27 16 -26 0 -68 34 -193 155 -94 91 -141 129
-190 153 -70 35 -155 47 -223 33z"/>
<path d="M216 1567 c-7 -19 -17 -45 -21 -58 -4 -13 -17 -35 -27 -49 -43 -54
-119 -198 -138 -259 -34 -107 -35 -136 -10 -161 19 -19 24 -20 43 -7 19 12 23
26 27 98 4 64 11 94 30 128 l25 44 5 -149 c4 -125 8 -155 26 -189 24 -47 59
-68 86 -54 27 14 23 67 -11 168 -48 138 -53 171 -41 269 6 48 22 120 36 159
14 40 22 77 19 83 -12 20 -35 9 -49 -23z"/>
<path d="M12833 1585 c-3 -9 4 -45 16 -80 29 -89 44 -199 37 -265 -3 -30 -21
-100 -41 -155 -37 -106 -42 -144 -23 -163 18 -18 52 -15 71 6 40 43 50 92 50
240 l-1 144 26 -44 c21 -35 27 -60 32 -131 4 -72 9 -91 24 -103 29 -21 60 3
64 49 5 54 -43 182 -106 285 -71 114 -77 126 -101 185 -20 48 -37 59 -48 32z"/>
<path d="M980 1560 c-8 -5 -39 -19 -68 -31 -33 -14 -66 -38 -88 -63 -33 -38
-35 -45 -29 -86 10 -69 27 -121 39 -117 6 2 25 29 41 60 l31 56 19 -42 c17
-35 32 -48 86 -77 88 -45 99 -38 99 69 0 58 -5 84 -20 109 -11 18 -20 35 -20
37 0 3 21 5 48 5 50 0 137 33 128 49 -20 32 -225 56 -266 31z"/>
<path d="M11892 1553 c-24 -8 -41 -20 -39 -26 6 -23 72 -47 124 -47 l52 0 -25
-43 c-22 -40 -23 -51 -17 -121 4 -47 11 -80 19 -83 16 -6 124 49 147 75 10 11
22 33 26 48 8 28 8 28 40 -33 17 -35 35 -63 40 -63 13 0 30 54 37 115 6 50 5
54 -30 93 -21 22 -58 50 -84 62 -26 12 -55 26 -64 31 -27 14 -178 9 -226 -8z"/>
<path d="M2030 1487 c-35 -12 -35 -13 -38 -77 -2 -36 0 -85 3 -109 l7 -43 25
23 c14 13 28 31 33 39 11 22 24 180 14 179 -5 0 -25 -5 -44 -12z"/>
<path d="M11017 1418 c5 -67 11 -89 31 -116 14 -18 30 -31 36 -29 7 2 12 42
14 104 l3 100 -39 11 c-22 7 -42 12 -45 12 -4 0 -4 -37 0 -82z"/>
<path d="M2806 1353 c-27 -24 -71 -56 -98 -69 -32 -16 -46 -29 -41 -37 39 -66
143 -192 187 -227 137 -109 256 -160 377 -160 66 0 69 -1 59 -19 -25 -47 -1
-221 35 -251 13 -10 15 -9 15 8 0 30 32 107 74 179 44 74 125 159 224 233 41
30 83 62 93 70 20 15 20 16 -6 85 -14 39 -28 75 -30 82 -3 9 -16 8 -53 -1 -37
-10 -60 -25 -95 -63 -80 -85 -180 -122 -327 -123 -88 0 -142 16 -196 59 -48
38 -134 152 -145 194 -26 94 -18 90 -73 40z"/>
<path d="M10230 1383 c0 -41 -31 -120 -62 -158 -108 -133 -166 -165 -304 -165
-136 0 -267 53 -328 133 -20 26 -42 40 -79 51 -28 8 -52 14 -53 13 -1 -1 -16
-39 -32 -84 l-30 -81 62 -45 c133 -99 153 -116 199 -167 57 -64 121 -174 143
-248 14 -48 17 -52 29 -35 33 48 50 175 32 234 l-9 26 84 5 c128 8 218 47 356
157 48 38 193 218 192 238 -1 4 -22 18 -48 30 -26 12 -71 43 -99 68 -42 37
-53 43 -53 28z"/>
<path d="M1660 1331 c-14 -28 -4 -47 36 -66 42 -20 44 -42 9 -102 -31 -52 -69
-73 -132 -73 -76 0 -138 53 -198 171 -19 36 -42 37 -56 2 -24 -59 -33 -72 -77
-117 -38 -39 -51 -46 -84 -46 -35 0 -40 3 -54 36 -14 32 -18 35 -52 32 -33 -3
-37 -6 -40 -35 -5 -46 40 -92 96 -100 65 -9 123 18 182 85 27 31 50 60 50 64
0 4 4 8 10 8 27 0 115 -247 126 -352 8 -83 -5 -109 -66 -127 -45 -13 -60 -35
-39 -57 27 -26 72 -28 103 -3 73 57 75 158 8 393 -4 16 -2 17 18 6 12 -7 48
-12 80 -12 92 0 139 34 186 135 31 69 28 107 -13 149 -32 33 -77 38 -93 9z"/>
<path d="M11351 1334 c-39 -28 -53 -74 -37 -127 19 -63 69 -131 112 -152 41
-19 140 -23 171 -7 19 11 19 8 -4 -70 -55 -190 -35 -315 55 -343 31 -9 82 13
82 35 0 23 -17 36 -60 47 -47 12 -61 42 -53 118 7 74 55 229 95 309 27 53 31
57 41 40 25 -47 91 -114 130 -133 100 -48 205 -2 195 85 -3 26 -7 29 -37 29
-28 0 -38 -6 -51 -30 -13 -24 -24 -31 -55 -33 -34 -3 -42 2 -91 51 -34 36 -57
69 -64 96 -8 30 -16 41 -30 41 -19 0 -29 -14 -81 -112 -43 -82 -174 -116 -239
-62 -31 26 -70 91 -70 116 0 7 17 22 37 33 40 21 52 47 33 70 -16 20 -50 19
-79 -1z"/>
<path d="M2053 1214 l-41 -15 19 -72 c44 -157 67 -211 109 -250 50 -48 80 -47
93 2 7 27 5 37 -12 55 -28 30 -75 138 -97 224 -10 39 -21 72 -24 71 -3 0 -24
-7 -47 -15z"/>
<path d="M10975 1172 c-33 -120 -86 -242 -105 -242 -6 0 -10 -18 -10 -39 0
-50 25 -61 73 -34 40 22 85 111 116 226 12 45 24 89 27 98 3 13 -7 21 -41 32
l-45 16 -15 -57z"/>
<path d="M2445 889 c-21 -47 -26 -72 -22 -105 2 -24 3 -44 2 -44 -2 0 -34 15
-71 33 -62 29 -78 32 -154 31 -85 -1 -210 -28 -295 -64 l-40 -17 45 -7 c56 -9
280 -65 296 -74 8 -5 0 -16 -21 -32 -19 -14 -38 -34 -43 -45 -6 -13 -31 -26
-71 -38 -112 -32 -173 -112 -189 -249 -14 -116 -5 -123 63 -43 58 68 109 98
202 119 86 19 224 20 275 2 20 -7 58 -29 86 -49 121 -89 261 -131 421 -125 93
3 101 5 137 34 55 44 77 78 69 103 -9 29 -51 38 -85 17 -21 -12 -53 -16 -129
-16 -114 0 -148 10 -206 61 -44 39 -65 83 -65 136 0 33 -8 45 -54 91 -78 76
-101 127 -102 232 -1 47 -2 91 -3 98 -2 27 -20 9 -46 -49z"/>
<path d="M10607 944 c-4 -4 -7 -46 -7 -94 0 -77 -4 -94 -31 -148 -18 -36 -50
-79 -80 -106 -46 -41 -49 -47 -49 -93 0 -68 -42 -123 -127 -167 -43 -22 -225
-23 -267 -1 -34 18 -58 19 -74 3 -32 -32 0 -91 74 -134 44 -26 49 -26 167 -21
151 6 237 33 352 110 44 30 95 59 114 66 47 15 182 14 262 -3 94 -20 139 -46
203 -118 44 -50 58 -60 68 -50 20 20 -5 164 -40 226 -34 60 -73 89 -151 113
-31 10 -58 22 -60 27 -6 15 -54 62 -75 73 -15 8 3 16 96 42 62 17 142 36 178
42 62 11 63 12 37 26 -36 18 -200 60 -269 69 -69 8 -144 -8 -213 -45 l-50 -26
4 38 c2 20 0 52 -3 70 -7 39 -49 110 -59 101z"/>
<path d="M833 895 c-24 -17 -39 -71 -29 -107 3 -13 30 -55 60 -94 94 -124 143
-246 133 -334 -14 -114 -72 -236 -130 -270 -18 -11 -41 -33 -51 -51 l-19 -32
29 7 c73 17 150 53 185 86 46 44 113 180 127 260 6 30 8 77 5 104 -4 34 -3 47
5 42 6 -4 19 -2 29 3 10 6 35 13 55 16 62 10 60 37 -7 105 l-57 58 24 34 c14
18 34 46 44 62 l18 29 -21 -12 c-12 -6 -46 -11 -75 -11 -48 0 -63 6 -129 48
-109 71 -156 85 -196 57z"/>
<path d="M12139 882 c-30 -16 -76 -43 -103 -60 -40 -26 -60 -32 -104 -32 -29
0 -62 5 -74 11 -14 8 -8 -6 22 -51 l42 -62 -44 -47 c-61 -64 -69 -76 -62 -94
3 -9 22 -19 42 -22 87 -15 89 -17 94 -113 4 -70 11 -102 39 -167 57 -132 138
-200 278 -230 l33 -7 -23 31 c-12 17 -40 42 -61 56 -22 15 -48 45 -63 74 -26
53 -65 182 -65 218 0 49 51 181 95 243 101 145 105 153 105 195 0 51 -28 85
-69 85 -16 0 -53 -13 -82 -28z"/>
<path d="M1737 873 c-2 -5 -10 -32 -17 -61 -22 -93 -135 -224 -242 -278 -47
-24 -71 -29 -170 -34 -19 -1 -5 -20 28 -39 89 -53 294 8 398 119 71 76 94 188
55 274 -11 24 -42 35 -52 19z"/>
<path d="M11311 866 c-19 -22 -29 -103 -20 -153 26 -137 182 -255 359 -270 55
-5 71 -2 103 17 34 20 48 39 30 40 -128 7 -189 31 -270 104 -64 58 -130 155
-139 204 -12 68 -36 90 -63 58z"/>
<path d="M1200 850 c-9 -6 -10 -10 -3 -10 6 0 15 5 18 10 8 12 4 12 -15 0z"/>
<path d="M2894 782 c-93 -68 -141 -139 -165 -248 -17 -76 -6 -118 36 -138 57
-27 155 -31 267 -11 83 16 103 23 115 42 33 50 -14 88 -180 148 -57 20 -77 52
-77 124 0 39 6 56 26 80 32 38 28 39 -22 3z"/>
<path d="M10160 804 c0 -4 10 -19 23 -32 18 -19 22 -34 21 -79 -2 -67 -23 -99
-79 -120 -122 -45 -147 -58 -170 -85 -23 -27 -24 -31 -10 -57 13 -25 23 -29
116 -46 117 -20 209 -17 266 11 l38 19 -1 70 c-1 84 -30 165 -78 221 -34 40
-126 111 -126 98z"/>
<path d="M3540 726 c-16 -20 -4 -38 46 -75 59 -42 130 -76 199 -96 33 -10 61
-19 63 -20 2 -1 -9 -29 -23 -60 -14 -32 -23 -60 -20 -63 2 -3 51 11 109 29
l104 34 6 -37 c4 -22 12 -38 20 -38 26 0 103 95 125 154 33 89 32 94 -19 123
-25 14 -52 31 -61 39 -13 12 -27 11 -94 -6 -120 -31 -333 -22 -407 16 -33 17
-33 17 -48 0z"/>
<path d="M9480 717 c-88 -30 -274 -35 -375 -9 -77 20 -81 20 -105 3 -14 -10
-44 -28 -67 -40 l-42 -21 27 -77 c20 -59 38 -90 74 -127 25 -26 52 -46 60 -44
7 3 14 21 16 41 3 32 6 36 21 27 29 -15 193 -61 199 -55 3 3 -1 17 -8 32 -8
16 -19 42 -25 60 l-12 32 38 6 c47 8 179 71 237 114 41 30 55 65 30 73 -7 2
-38 -5 -68 -15z"/>
<path d="M4232 587 c-16 -72 -15 -84 12 -142 64 -135 231 -205 360 -151 60 25
91 21 135 -19 21 -19 41 -35 45 -35 16 0 3 82 -19 126 -14 27 -25 57 -25 66 0
9 23 41 51 72 l50 55 -35 6 c-19 4 -71 5 -115 2 -110 -6 -173 -37 -221 -109
-38 -57 -79 -80 -108 -62 -9 6 -34 35 -54 65 -31 45 -37 64 -40 113 -2 33 -8
61 -13 63 -6 2 -16 -21 -23 -50z"/>
<path d="M8829 638 c-1 -2 -2 -30 -3 -63 -2 -53 -7 -68 -41 -118 -61 -88 -103
-87 -164 3 -53 79 -102 101 -233 107 -57 2 -109 0 -116 -5 -10 -6 -3 -19 27
-52 64 -70 67 -81 38 -126 -27 -42 -45 -128 -29 -138 5 -3 25 10 45 29 41 40
81 45 143 18 49 -20 147 -20 196 0 84 35 148 106 173 191 12 40 12 52 -1 88
-8 23 -12 48 -10 55 4 10 -20 20 -25 11z"/>
<path d="M3790 526 c0 -2 7 -7 16 -10 8 -3 12 -2 9 4 -6 10 -25 14 -25 6z"/>
<path d="M9286 522 c-3 -5 1 -9 9 -9 8 0 12 4 9 9 -3 4 -7 8 -9 8 -2 0 -6 -4
-9 -8z"/>
<path d="M3215 465 c-29 -28 -32 -63 -10 -105 32 -63 126 -31 141 47 4 23 1
41 -10 58 -23 35 -87 35 -121 0z"/>
<path d="M9772 483 c-38 -15 -31 -111 11 -137 45 -28 65 -29 92 -2 36 36 35
97 -1 125 -25 20 -72 26 -102 14z"/>
<path d="M3645 460 c-28 -10 -89 -24 -135 -30 -85 -12 -100 -19 -100 -52 0
-12 8 -18 24 -18 47 0 196 30 248 51 51 19 87 44 77 53 -14 13 -71 11 -114 -4z"/>
<path d="M9363 473 c-63 -12 9 -60 132 -88 70 -16 195 -30 195 -22 0 3 -4 17
-9 30 -8 22 -19 26 -92 37 -45 6 -110 20 -143 31 -34 10 -61 18 -61 18 0 -1
-10 -4 -22 -6z"/>
<path d="M1210 451 c0 -6 22 -31 49 -56 42 -39 52 -55 61 -102 7 -31 10 -90 9
-132 -4 -65 -2 -76 13 -79 18 -3 58 62 58 94 0 12 15 2 50 -30 28 -26 76 -59
106 -73 47 -21 66 -25 127 -21 83 4 132 24 132 53 0 18 -9 21 -72 26 -90 8
-135 33 -247 136 -125 116 -180 161 -206 171 -47 17 -80 22 -80 13z"/>
<path d="M11814 439 c-37 -14 -84 -50 -175 -134 -147 -137 -222 -181 -294
-173 -87 10 -102 -44 -19 -69 21 -6 68 -12 104 -12 82 -1 133 21 205 90 30 29
55 46 55 39 0 -26 44 -100 60 -100 14 0 16 15 16 103 0 124 12 164 68 215 74
68 70 76 -20 41z"/>
</g>
</svg>
