<?xml version="1.0" encoding="UTF-8"?>
<!DOCTYPE svg PUBLIC "-//W3C//DTD SVG 1.1//EN" "http://www.w3.org/Graphics/SVG/1.1/DTD/svg11.dtd">
<svg xmlns="http://www.w3.org/2000/svg" version="1.1" width="2296px" height="1221px" style="shape-rendering:geometricPrecision; text-rendering:geometricPrecision; image-rendering:optimizeQuality; fill-rule:evenodd; clip-rule:evenodd" xmlns:xlink="http://www.w3.org/1999/xlink">
<g><path style="opacity:0.984" fill="#48332c" d="M 1296.5,14.5 C 1303.91,13.6209 1310.91,14.7875 1317.5,18C 1325.6,22.4696 1332.1,28.6362 1337,36.5C 1345.19,55.5545 1352.85,74.8878 1360,94.5C 1364.51,114.869 1369.18,135.202 1374,155.5C 1377.61,175.253 1377.28,194.92 1373,214.5C 1369.05,226.317 1365.71,238.317 1363,250.5C 1361.75,274.763 1357.41,298.43 1350,321.5C 1345.84,329.587 1339.17,333.921 1330,334.5C 1308.67,332.692 1287.84,335.192 1267.5,342C 1237.65,358.536 1208.31,375.87 1179.5,394C 1195.76,396.577 1212.09,399.244 1228.5,402C 1258.28,411.724 1287.28,423.39 1315.5,437C 1330.94,441.59 1345.61,447.923 1359.5,456C 1379.6,463.924 1399.94,471.257 1420.5,478C 1439.9,486.533 1458.9,495.867 1477.5,506C 1491.25,511.137 1504.91,516.471 1518.5,522C 1530.04,528.602 1541.71,534.935 1553.5,541C 1559.38,544.936 1562.55,550.436 1563,557.5C 1565.24,575.512 1567.57,593.512 1570,611.5C 1573.83,626.839 1577.67,642.173 1581.5,657.5C 1581.02,674.348 1581.69,691.181 1583.5,708C 1582.8,720.011 1580.97,731.844 1578,743.5C 1574.54,752.683 1568.04,758.85 1558.5,762C 1534.6,765.674 1510.6,768.508 1486.5,770.5C 1486.26,773.212 1486.26,775.712 1486.5,778C 1498.16,786.496 1510.16,794.496 1522.5,802C 1542.96,819.117 1550.96,840.95 1546.5,867.5C 1547.76,890.786 1544.59,913.453 1537,935.5C 1536.83,940.584 1536.16,945.584 1535,950.5C 1521.33,968.833 1507.67,987.167 1494,1005.5C 1489.22,1012.73 1485.22,1020.39 1482,1028.5C 1481.43,1037.66 1482.93,1046.49 1486.5,1055C 1488.33,1059.83 1490.17,1064.67 1492,1069.5C 1498.31,1074.78 1500.64,1081.45 1499,1089.5C 1493.91,1098.09 1489.58,1107.09 1486,1116.5C 1476.33,1126.83 1464.5,1130.33 1450.5,1127C 1446.71,1125.62 1442.87,1124.46 1439,1123.5C 1426.57,1125.36 1414.07,1126.52 1401.5,1127C 1393.14,1131.69 1385.64,1137.52 1379,1144.5C 1378.29,1146.08 1377.46,1147.58 1376.5,1149C 1380.4,1152.47 1382.73,1156.8 1383.5,1162C 1381.42,1168.99 1378.92,1175.82 1376,1182.5C 1375.09,1188.41 1373.42,1194.07 1371,1199.5C 1366.08,1204.2 1360.24,1205.7 1353.5,1204C 1344.8,1201.68 1336.14,1201.51 1327.5,1203.5C 1320.58,1201.85 1313.58,1200.69 1306.5,1200C 1299.48,1195.82 1292.14,1192.15 1284.5,1189C 1275.26,1183.35 1269.93,1175.19 1268.5,1164.5C 1253.62,1144.13 1252.12,1122.79 1264,1100.5C 1271.52,1087.45 1278.52,1074.12 1285,1060.5C 1292.33,1051.17 1299.67,1041.83 1307,1032.5C 1309.44,1029.62 1310.77,1026.29 1311,1022.5C 1314.67,1019.5 1318.33,1016.5 1322,1013.5C 1325.96,1004.79 1323.13,1001.29 1313.5,1003C 1306.52,989.691 1296.52,979.358 1283.5,972C 1284.69,970.981 1285.69,969.814 1286.5,968.5C 1286.11,967.28 1285.28,966.613 1284,966.5C 1273.99,969.106 1263.82,970.94 1253.5,972C 1239.96,976.053 1226.62,980.719 1213.5,986C 1207.1,990.727 1200.44,995.06 1193.5,999C 1182.82,1000.91 1174.32,997.413 1168,988.5C 1162.29,979.216 1158.46,969.216 1156.5,958.5C 1158.6,952.041 1160.6,945.541 1162.5,939C 1160.44,931.614 1161.61,924.78 1166,918.5C 1169.53,915.055 1172.86,911.389 1176,907.5C 1178.04,903.666 1177.7,899.999 1175,896.5C 1172.43,893.681 1170.09,890.681 1168,887.5C 1164.09,878.682 1159.43,870.348 1154,862.5C 1149.38,855.091 1149.55,847.924 1154.5,841C 1160.44,837.783 1165.94,833.949 1171,829.5C 1172.41,824.272 1174.41,819.272 1177,814.5C 1181.75,811.209 1186.58,808.042 1191.5,805C 1199.83,795.665 1207,785.498 1213,774.5C 1213.32,773.092 1212.98,771.759 1212,770.5C 1209.81,768.612 1207.98,766.445 1206.5,764C 1205.67,763.833 1204.83,763.667 1204,763.5C 1195.04,766.243 1185.88,767.743 1176.5,768C 1170.5,775.333 1163.83,782 1156.5,788C 1146.16,794.837 1135.5,801.17 1124.5,807C 1119.04,809.986 1113.37,812.486 1107.5,814.5C 1103,819.497 1101.83,825.164 1104,831.5C 1105.28,844.497 1103.94,857.164 1100,869.5C 1095.79,874.361 1090.62,877.861 1084.5,880C 1083.74,881.512 1082.74,882.846 1081.5,884C 1077.74,885.81 1074.08,887.81 1070.5,890C 1062.12,899.228 1051.78,904.728 1039.5,906.5C 1028.93,905.758 1021.1,900.758 1016,891.5C 1008.7,885.198 1001.7,878.532 995,871.5C 994.333,870.167 993.667,868.833 993,867.5C 992.774,856.423 991.774,845.423 990,834.5C 985.799,823.095 979.799,812.762 972,803.5C 964.504,797.004 957.337,790.171 950.5,783C 937.179,773.246 922.179,768.246 905.5,768C 902.5,766.833 899.5,765.667 896.5,764.5C 888.6,766.787 880.933,769.62 873.5,773C 865.757,774.418 859.59,771.918 855,765.5C 849.393,753.953 844.059,742.286 839,730.5C 821.927,718.065 821.094,704.565 836.5,690C 844.864,683.82 854.197,679.82 864.5,678C 866.833,673 870.5,669.333 875.5,667C 886.669,663.388 898.002,660.388 909.5,658C 918.769,647.877 924.769,636.044 927.5,622.5C 925.035,615.055 923.868,607.388 924,599.5C 920.138,590.779 917.138,581.779 915,572.5C 914.086,566.97 914.753,561.637 917,556.5C 921.556,549.85 925.556,542.85 929,535.5C 931.383,532.727 934.217,530.561 937.5,529C 938.833,528.333 938.833,527.667 937.5,527C 943.536,527.998 949.536,527.665 955.5,526C 959.447,524.411 961.28,521.578 961,517.5C 959.687,516.427 958.187,515.76 956.5,515.5C 952.535,516.53 948.535,516.697 944.5,516C 938.489,513.996 932.489,511.996 926.5,510C 924.392,506.105 923.059,501.939 922.5,497.5C 910.985,490.654 900.318,482.654 890.5,473.5C 887.897,474.562 885.23,474.728 882.5,474C 872.232,469.432 861.565,466.099 850.5,464C 835.882,455.723 823.382,444.89 813,431.5C 805.607,421.104 798.607,410.437 792,399.5C 783.748,390.541 774.082,383.541 763,378.5C 759.347,384.965 754.847,390.798 749.5,396C 745.469,398.455 741.136,400.121 736.5,401C 721.062,403.719 706.729,401.052 693.5,393C 684.286,383.953 675.453,374.786 667,365.5C 665.756,362.436 664.923,359.269 664.5,356C 666.238,348.565 667.072,341.065 667,333.5C 663.054,327.221 658.721,321.221 654,315.5C 645.167,308 637,299.833 629.5,291C 620.335,285.919 611.335,280.585 602.5,275C 597.054,269.554 591.554,264.054 586,258.5C 584.502,252.166 582.168,246.166 579,240.5C 577.774,234.145 576.441,227.812 575,221.5C 569.297,213.76 566.13,205.094 565.5,195.5C 565.74,185.595 570.74,180.262 580.5,179.5C 584.231,180.021 587.898,180.854 591.5,182C 598.596,186.215 605.929,189.881 613.5,193C 639.876,195.281 666.209,197.948 692.5,201C 701.842,203.004 711.175,205.004 720.5,207C 730.194,207.301 739.861,207.968 749.5,209C 759.219,209.859 768.885,209.526 778.5,208C 802.375,204.886 823.709,196.053 842.5,181.5C 852.169,170.163 860.335,157.83 867,144.5C 868.298,131.18 868.964,117.847 869,104.5C 864.044,93.623 858.711,82.9563 853,72.5C 849.5,67.4081 844.833,65.4081 839,66.5C 826.83,63.3537 823.497,56.0204 829,44.5C 836.53,36.6355 844.364,29.1355 852.5,22C 858.73,16.6915 865.73,15.0249 873.5,17C 877.344,19.422 881.01,22.0887 884.5,25C 895.259,29.0845 905.592,34.0845 915.5,40C 925.065,43.4491 934.399,47.4491 943.5,52C 944.667,53.1667 945.833,54.3333 947,55.5C 948.752,64.6762 950.585,73.8428 952.5,83C 950.783,88.8552 950.616,94.6885 952,100.5C 958.667,111.833 965.333,123.167 972,134.5C 974.68,146.874 979.346,158.541 986,169.5C 993.375,181.75 1000.87,193.917 1008.5,206C 1014.09,209.586 1019.09,213.92 1023.5,219C 1030.18,223.121 1037.51,225.121 1045.5,225C 1065.5,225.692 1085.5,226.026 1105.5,226C 1122.5,219.416 1137.67,209.916 1151,197.5C 1153.62,193.217 1156.62,189.217 1160,185.5C 1161.02,181.036 1161.85,176.536 1162.5,172C 1159.69,136.227 1158.52,100.393 1159,64.5C 1159.38,54.9032 1163.88,48.0699 1172.5,44C 1190.84,42.9995 1208.5,38.9995 1225.5,32C 1231.93,28.4514 1238.6,25.4514 1245.5,23C 1262.8,21.1272 1279.8,18.2939 1296.5,14.5 Z"/></g>
<g><path style="opacity:1" fill="#aa865b" d="M 1070.5,852.5 C 1062.17,853.167 1053.83,853.833 1045.5,854.5C 1041.45,854.395 1037.45,854.728 1033.5,855.5C 1028.9,827.637 1018.74,801.97 1003,778.5C 992.066,766.561 980.233,755.727 967.5,746C 940.197,730.194 911.031,725.361 880,731.5C 878.833,731.167 877.667,730.833 876.5,730.5C 872.903,721.473 868.903,712.64 864.5,704C 874.833,704.336 882.166,699.836 886.5,690.5C 897.864,686.26 909.531,683.093 921.5,681C 938.249,666.697 948.749,648.53 953,626.5C 951.57,615.896 951.237,605.229 952,594.5C 948.549,585.033 946.216,575.366 945,565.5C 949.087,562.084 952.42,558.084 955,553.5C 961.596,548.906 966.762,543.073 970.5,536C 983.133,533.758 995.467,530.425 1007.5,526C 1010.27,524.533 1012.77,522.7 1015,520.5C 1015.67,519.5 1015.67,518.5 1015,517.5C 1009.33,515.906 1003.49,515.073 997.5,515C 994.516,512.174 991.183,509.841 987.5,508C 979.786,506.544 972.786,503.544 966.5,499C 960.602,493.191 954.935,487.191 949.5,481C 924.512,464.172 897.846,450.506 869.5,440C 849.074,422.944 832.574,402.777 820,379.5C 808.177,364.666 793.343,354.166 775.5,348C 763.458,344.354 752.791,346.687 743.5,355C 739.008,360.316 735.008,365.983 731.5,372C 724.086,372.89 716.753,372.557 709.5,371C 703.318,364.986 697.318,358.819 691.5,352.5C 697.064,337.588 694.897,323.921 685,311.5C 672.202,296.701 658.702,282.535 644.5,269C 636.5,264.333 628.5,259.667 620.5,255C 615,250.833 610.167,246 606,240.5C 605.913,233.82 604.413,227.487 601.5,221.5C 601.667,221.167 601.833,220.833 602,220.5C 607.092,223.483 612.592,225.316 618.5,226C 637.147,226.689 655.481,229.356 673.5,234C 694.111,236.695 714.778,238.528 735.5,239.5C 742.167,239.333 748.833,239.167 755.5,239C 769.729,236.476 784.062,234.81 798.5,234C 844.137,223.943 874.304,196.777 889,152.5C 889.925,148.555 890.425,144.555 890.5,140.5C 889.764,122.175 889.264,103.842 889,85.5C 888.261,81.6148 886.927,77.9481 885,74.5C 879.86,69.3604 874.694,64.1937 869.5,59C 872.928,58.2989 876.262,58.6323 879.5,60C 890.5,69 901.5,78 912.5,87C 919.032,93.1975 925.199,99.6975 931,106.5C 934.306,115.057 937.306,123.724 940,132.5C 955.764,164.693 970.431,197.36 984,230.5C 987.455,239.254 992.288,247.088 998.5,254C 1002.58,255.058 1006.75,255.558 1011,255.5C 1026.86,253.955 1042.69,252.122 1058.5,250C 1075.17,249.816 1091.84,249.816 1108.5,250C 1127.29,243.273 1144.62,233.94 1160.5,222C 1169.33,213.156 1176.83,203.322 1183,192.5C 1185.15,183.963 1186.31,175.296 1186.5,166.5C 1184.86,133.519 1183.86,100.519 1183.5,67.5C 1207.68,64.7471 1230.68,57.9138 1252.5,47C 1267.68,46.5394 1282.34,43.5394 1296.5,38C 1305.99,36.446 1313.16,39.946 1318,48.5C 1320.97,54.0876 1322.31,60.0876 1322,66.5C 1327.23,78.9589 1331.9,91.6256 1336,104.5C 1339.35,122.245 1343.01,139.912 1347,157.5C 1350.21,171.185 1350.21,184.852 1347,198.5C 1342.33,213.178 1337.66,227.845 1333,242.5C 1331.14,262.64 1328.31,282.64 1324.5,302.5C 1303.12,303.063 1282.12,306.23 1261.5,312C 1253.71,315.394 1246.05,319.061 1238.5,323C 1208.33,340.916 1178.66,359.583 1149.5,379C 1144.74,385.437 1139.57,391.603 1134,397.5C 1129.49,407.967 1132.65,414.8 1143.5,418C 1168.43,418.866 1193.1,421.866 1217.5,427C 1245.77,439.644 1274.43,451.311 1303.5,462C 1337.95,478.484 1373.28,492.818 1409.5,505C 1420.84,510.666 1431.51,517.332 1441.5,525C 1469.73,540.938 1496.73,558.604 1522.5,578C 1526.45,582.742 1530.29,587.576 1534,592.5C 1536.66,607.082 1538.99,621.749 1541,636.5C 1543.68,647.553 1546.51,658.553 1549.5,669.5C 1548.73,685.819 1548.23,702.152 1548,718.5C 1547.33,722.5 1546.67,726.5 1546,730.5C 1519.86,731.589 1493.69,733.089 1467.5,735C 1456.06,739.118 1449.89,747.284 1449,759.5C 1447.98,771.277 1448.64,782.943 1451,794.5C 1452.56,797.783 1454.73,800.617 1457.5,803C 1465.67,805.505 1472.5,810.005 1478,816.5C 1488.05,828.882 1497.72,841.549 1507,854.5C 1508.07,879.161 1508.4,903.827 1508,928.5C 1498.11,945.943 1488.44,963.61 1479,981.5C 1467.37,994.094 1459.37,1008.76 1455,1025.5C 1454.33,1030.5 1454.33,1035.5 1455,1040.5C 1457.29,1049.05 1458.96,1057.71 1460,1066.5C 1462.32,1072.47 1465.65,1077.81 1470,1082.5C 1470.98,1083.76 1471.32,1085.09 1471,1086.5C 1466.49,1090.08 1461.83,1093.42 1457,1096.5C 1446.42,1088.96 1434.92,1083.13 1422.5,1079C 1416.83,1078.33 1411.17,1078.33 1405.5,1079C 1381.38,1086.14 1360.55,1098.64 1343,1116.5C 1333.77,1130.04 1329.94,1145.04 1331.5,1161.5C 1323.32,1163.79 1314.99,1165.29 1306.5,1166C 1304.46,1166.45 1302.63,1167.29 1301,1168.5C 1288.79,1155.83 1284.79,1140.83 1289,1123.5C 1295.84,1112.65 1301.84,1101.31 1307,1089.5C 1311.63,1083.87 1316.63,1078.53 1322,1073.5C 1324.19,1069.25 1326.19,1064.92 1328,1060.5C 1334.08,1052.68 1339.42,1044.34 1344,1035.5C 1345.99,1026.28 1345.16,1017.28 1341.5,1008.5C 1341.83,1007.83 1342.17,1007.17 1342.5,1006.5C 1350.46,1003.24 1358.46,1000.07 1366.5,997C 1370.5,994.834 1372.16,991.668 1371.5,987.5C 1368.34,985.837 1365.01,984.67 1361.5,984C 1350.4,983.016 1339.4,983.516 1328.5,985.5C 1324.34,979.189 1320.67,972.523 1317.5,965.5C 1319.57,955.062 1322.07,944.729 1325,934.5C 1329.86,926.788 1334.19,918.788 1338,910.5C 1338.66,908.2 1339.16,905.867 1339.5,903.5C 1339.62,900.465 1338.29,898.965 1335.5,899C 1329.98,907.362 1323.32,914.695 1315.5,921C 1308.17,926.333 1300.83,931.667 1293.5,937C 1286.78,934.433 1279.78,932.433 1272.5,931C 1264.83,930.333 1257.17,930.333 1249.5,931C 1236.84,935.994 1224.18,940.994 1211.5,946C 1207.84,947.497 1204.5,949.497 1201.5,952C 1197.49,953.113 1193.66,954.613 1190,956.5C 1188.35,951.901 1187.35,947.235 1187,942.5C 1193.14,937.272 1198.81,931.605 1204,925.5C 1207.69,919.247 1208.53,912.58 1206.5,905.5C 1205.17,905.5 1203.83,905.5 1202.5,905.5C 1203.47,893.892 1199.63,884.225 1191,876.5C 1187.55,869.095 1183.72,861.928 1179.5,855C 1184.3,851.201 1188.8,847.034 1193,842.5C 1195.47,837.768 1197.13,832.768 1198,827.5C 1204.66,822.509 1210.66,816.843 1216,810.5C 1222.08,801.335 1227.92,792.002 1233.5,782.5C 1243.85,782.658 1248.35,777.658 1247,767.5C 1242.17,761.174 1237.84,754.508 1234,747.5C 1227.65,741.492 1220.49,736.659 1212.5,733C 1207.25,731.494 1201.92,731.161 1196.5,732C 1189.05,736.052 1181.22,737.552 1173,736.5C 1168.13,736.235 1163.63,737.402 1159.5,740C 1154.47,744.699 1149.8,749.699 1145.5,755C 1132.17,758.664 1119.5,763.998 1107.5,771C 1088.08,775.62 1071.91,785.453 1059,800.5C 1057.03,803.737 1055.87,807.237 1055.5,811C 1059.3,819.798 1062.14,828.964 1064,838.5C 1065.91,843.313 1068.07,847.98 1070.5,852.5 Z"/></g>
<g><path style="opacity:1" fill="#b99f7f" d="M 1281.5,82.5 C 1284.43,83.2894 1286.27,85.2894 1287,88.5C 1287.21,94.634 1288.21,100.634 1290,106.5C 1294.39,116.341 1298.39,126.341 1302,136.5C 1304.12,149.41 1306.62,162.243 1309.5,175C 1306.61,186.684 1303.11,198.184 1299,209.5C 1297.64,228.362 1294.98,247.028 1291,265.5C 1290.17,266.333 1289.33,267.167 1288.5,268C 1268.95,269.577 1249.62,272.577 1230.5,277C 1214.28,283.44 1198.95,291.44 1184.5,301C 1160.66,315.084 1137.33,329.917 1114.5,345.5C 1109.55,352.288 1104.39,358.954 1099,365.5C 1098.33,391.833 1098.33,418.167 1099,444.5C 1101.31,448.58 1104.81,451.08 1109.5,452C 1119.17,452.333 1128.83,452.667 1138.5,453C 1152.81,455.52 1167.14,457.854 1181.5,460C 1209.93,472.253 1238.59,483.92 1267.5,495C 1301.95,511.484 1337.28,525.818 1373.5,538C 1385.63,543.811 1396.96,550.811 1407.5,559C 1424.5,569.333 1441.5,579.667 1458.5,590C 1466.79,595.953 1474.79,602.286 1482.5,609C 1484.27,610.439 1486.27,611.439 1488.5,612C 1492.79,617.41 1496.95,622.91 1501,628.5C 1503.19,641.8 1505.19,655.134 1507,668.5C 1508.42,676.716 1510.59,684.716 1513.5,692.5C 1512.75,694.753 1511.41,696.587 1509.5,698C 1484.12,698.035 1458.79,699.035 1433.5,701C 1422.99,703.846 1417.15,710.679 1416,721.5C 1414.52,752.153 1414.19,782.819 1415,813.5C 1415.67,819.568 1416.67,825.568 1418,831.5C 1419.05,833.09 1420.21,834.59 1421.5,836C 1429.38,838.522 1436.22,842.689 1442,848.5C 1451.67,860.833 1461.33,873.167 1471,885.5C 1473.41,889.142 1474.07,893.142 1473,897.5C 1470.67,900.833 1468.33,904.167 1466,907.5C 1457.26,927.325 1446.26,945.659 1433,962.5C 1426.71,973.065 1422.71,984.398 1421,996.5C 1420.5,1012.5 1420.33,1028.5 1420.5,1044.5C 1406.5,1044.5 1392.5,1044.5 1378.5,1044.5C 1378.26,1042.53 1378.59,1040.7 1379.5,1039C 1387.96,1036.07 1396.13,1032.57 1404,1028.5C 1404.33,1027.5 1404.67,1026.5 1405,1025.5C 1405.67,1001.5 1405.67,977.5 1405,953.5C 1401.49,951.334 1397.66,950.167 1393.5,950C 1385.5,949.667 1377.5,949.333 1369.5,949C 1370.72,947.352 1371.55,945.519 1372,943.5C 1372.5,917.502 1372.67,891.502 1372.5,865.5C 1348.5,865.333 1324.5,865.5 1300.5,866C 1292.13,877.375 1282.13,887.041 1270.5,895C 1260.61,896.449 1250.61,896.949 1240.5,896.5C 1240.83,888.14 1240.5,879.807 1239.5,871.5C 1235.83,867.897 1234.67,863.564 1236,858.5C 1241.67,854.167 1246.67,849.167 1251,843.5C 1256.46,834.079 1262.29,824.913 1268.5,816C 1274.21,816.562 1278.38,814.396 1281,809.5C 1281.67,784.167 1281.67,758.833 1281,733.5C 1275.75,726.004 1270.75,718.337 1266,710.5C 1258.2,704.85 1249.7,700.684 1240.5,698C 1214.5,697.333 1188.5,697.333 1162.5,698C 1159.33,699.725 1155.99,701.058 1152.5,702C 1145.83,702.333 1139.17,702.667 1132.5,703C 1129.38,704.059 1126.38,705.392 1123.5,707C 1118.83,712 1114.17,717 1109.5,722C 1105.02,722.871 1100.68,724.204 1096.5,726C 1078.51,734.578 1060.34,742.745 1042,750.5C 1039.43,747.712 1037.1,744.712 1035,741.5C 1026.15,731.988 1016.65,723.155 1006.5,715C 995.002,708.585 983.002,703.252 970.5,699C 978.3,687.899 983.8,675.732 987,662.5C 987.333,638.167 987.667,613.833 988,589.5C 991.367,585.797 995.034,582.464 999,579.5C 1000.89,575.56 1003.39,572.06 1006.5,569C 1016.26,567.081 1025.93,564.748 1035.5,562C 1040.11,560.361 1044.45,558.194 1048.5,555.5C 1049.67,531.507 1049.83,507.507 1049,483.5C 1043.3,482.07 1037.46,481.237 1031.5,481C 1029.46,478.626 1027.13,476.626 1024.5,475C 1015.06,473.778 1006.73,470.112 999.5,464C 994.598,458.854 989.931,453.521 985.5,448C 959.352,430.759 931.685,416.426 902.5,405C 892.213,395.924 882.713,386.09 874,375.5C 866.333,364.167 858.667,352.833 851,341.5C 839.191,328.68 825.025,319.513 808.5,314C 781.502,313.5 754.502,313.333 727.5,313.5C 727.666,306.825 727.5,300.158 727,293.5C 724.405,286.474 720.905,279.974 716.5,274C 742.522,273.89 768.522,273.224 794.5,272C 806.741,269.963 819.074,268.63 831.5,268C 873.292,259.193 902.792,235.359 920,196.5C 933.249,224.583 945.916,252.916 958,281.5C 959.5,284.333 961.667,286.5 964.5,288C 996.5,288.667 1028.5,288.667 1060.5,288C 1068.46,286.737 1076.46,285.737 1084.5,285C 1103.17,284.667 1121.83,284.333 1140.5,284C 1161.34,277.412 1180.34,267.412 1197.5,254C 1202.67,247.5 1207.83,241 1213,234.5C 1216.08,228.517 1218.08,222.184 1219,215.5C 1219.77,177.49 1219.6,139.49 1218.5,101.5C 1240.73,98.9759 1261.73,92.6426 1281.5,82.5 Z"/></g>
<g><path style="opacity:1" fill="#6d533e" d="M 1070.5,852.5 C 1071.04,852.56 1071.38,852.893 1071.5,853.5C 1062.86,854.498 1054.19,854.831 1045.5,854.5C 1053.83,853.833 1062.17,853.167 1070.5,852.5 Z"/></g>
</svg>
