<?xml version="1.0" encoding="UTF-8"?>
<!DOCTYPE svg PUBLIC "-//W3C//DTD SVG 1.1//EN" "http://www.w3.org/Graphics/SVG/1.1/DTD/svg11.dtd">
<svg xmlns="http://www.w3.org/2000/svg" version="1.1" width="2296px" height="1221px" style="shape-rendering:geometricPrecision; text-rendering:geometricPrecision; image-rendering:optimizeQuality; fill-rule:evenodd; clip-rule:evenodd" xmlns:xlink="http://www.w3.org/1999/xlink">
<g><path style="opacity:0.981" fill="#48332c" d="M 510.5,48.5 C 523.349,47.5145 529.516,53.5145 529,66.5C 535.894,71.7016 539.728,78.5349 540.5,87C 540.464,89.0937 540.131,91.0937 539.5,93C 542.787,104.068 547.287,114.568 553,124.5C 559.833,132 566.667,139.5 573.5,147C 587.82,157.494 602.487,167.494 617.5,177C 628.7,182.05 640.367,185.05 652.5,186C 659.1,182.395 665.434,178.395 671.5,174C 686.249,167.861 700.916,161.528 715.5,155C 729.661,145.086 743.994,135.419 758.5,126C 761.916,121.913 765.916,118.58 770.5,116C 779.127,113.791 787.46,110.791 795.5,107C 803.411,104.807 810.744,106.141 817.5,111C 821.833,114.667 826.167,118.333 830.5,122C 856.047,133.93 882.88,141.43 911,144.5C 930.892,139.611 950.392,140.778 969.5,148C 982.843,154.007 992.009,163.84 997,177.5C 999.085,197.84 1001.08,218.174 1003,238.5C 1008.08,248.99 1013.41,259.323 1019,269.5C 1038.08,288.779 1061.24,297.612 1088.5,296C 1107.24,292.718 1125.91,289.052 1144.5,285C 1149.83,281.333 1155.17,277.667 1160.5,274C 1163.83,273.333 1167.17,273.333 1170.5,274C 1195.28,287.225 1220.28,300.225 1245.5,313C 1253.84,317.837 1261.84,323.17 1269.5,329C 1282.21,340.045 1295.21,350.711 1308.5,361C 1316.02,369.523 1323.86,377.69 1332,385.5C 1335.24,392.117 1337.07,399.117 1337.5,406.5C 1334.58,423.021 1330.91,439.354 1326.5,455.5C 1327.86,471.709 1334.19,485.542 1345.5,497C 1360.09,505.253 1373.26,515.42 1385,527.5C 1392.21,537.844 1396.04,549.344 1396.5,562C 1395.68,571.756 1395.18,581.59 1395,591.5C 1394.61,595.219 1393.94,598.886 1393,602.5C 1387.61,609.559 1382.61,616.893 1378,624.5C 1371.33,639.833 1364.67,655.167 1358,670.5C 1350.06,707.072 1355.73,741.406 1375,773.5C 1380.41,778.12 1385.91,782.62 1391.5,787C 1401.58,790.47 1411.58,794.137 1421.5,798C 1431.73,802.12 1441.39,801.12 1450.5,795C 1459.47,786.845 1469.47,780.178 1480.5,775C 1486.4,768.032 1490.9,760.199 1494,751.5C 1496.59,748.457 1499.76,746.29 1503.5,745C 1510.65,744.014 1517.82,743.181 1525,742.5C 1547.13,745.605 1569.3,748.438 1591.5,751C 1595.58,751.687 1599.58,752.687 1603.5,754C 1608.27,757.103 1613.27,759.769 1618.5,762C 1621.67,765.155 1623.5,768.988 1624,773.5C 1625.84,787.856 1627.84,802.19 1630,816.5C 1632.64,823.777 1636.3,830.444 1641,836.5C 1647.79,844.963 1654.96,853.13 1662.5,861C 1668.11,864.276 1673.44,867.943 1678.5,872C 1692.22,875.86 1704.88,881.86 1716.5,890C 1726.99,900.657 1727.15,911.491 1717,922.5C 1710.3,934.687 1707.96,947.687 1710,961.5C 1710.47,967.19 1711.14,972.857 1712,978.5C 1722.16,998.176 1733.83,1016.84 1747,1034.5C 1755.2,1042.37 1763.7,1049.87 1772.5,1057C 1790.73,1064.23 1809.4,1070.23 1828.5,1075C 1835.5,1077.5 1839.83,1082.33 1841.5,1089.5C 1840.93,1093.6 1840.93,1097.76 1841.5,1102C 1841.34,1111.11 1839.84,1119.95 1837,1128.5C 1830.84,1133.78 1823.67,1136.95 1815.5,1138C 1812.46,1138.64 1809.46,1138.47 1806.5,1137.5C 1804.5,1138 1802.5,1138.5 1800.5,1139C 1792.28,1142.94 1783.95,1146.61 1775.5,1150C 1768.05,1152.05 1761.88,1150.22 1757,1144.5C 1755.49,1141.48 1753.49,1138.81 1751,1136.5C 1743.81,1136.96 1736.64,1136.12 1729.5,1134C 1717.93,1129.55 1706.6,1124.55 1695.5,1119C 1687.08,1116.55 1679.08,1117.55 1671.5,1122C 1664.42,1126.41 1657.92,1131.57 1652,1137.5C 1651.67,1142.83 1651.33,1148.17 1651,1153.5C 1648.18,1161.81 1642.35,1166.14 1633.5,1166.5C 1622.55,1164.61 1611.55,1163.11 1600.5,1162C 1593.69,1160.84 1587.36,1158.51 1581.5,1155C 1576.72,1146.27 1572.89,1137.1 1570,1127.5C 1566.26,1123.69 1563.26,1119.36 1561,1114.5C 1559.3,1095.48 1549.46,1082.98 1531.5,1077C 1525.5,1076.67 1519.5,1076.33 1513.5,1076C 1510.83,1074.67 1508.17,1073.33 1505.5,1072C 1503.67,1067.85 1501.84,1063.68 1500,1059.5C 1497.84,1058.17 1496.01,1056.51 1494.5,1054.5C 1495.57,1051.56 1495.74,1048.56 1495,1045.5C 1493.33,1042.83 1491.67,1042.83 1490,1045.5C 1488.29,1049.08 1486.46,1052.58 1484.5,1056C 1469.81,1056.28 1455.15,1056.95 1440.5,1058C 1436.94,1059.36 1433.44,1060.86 1430,1062.5C 1428.74,1062.24 1427.74,1061.57 1427,1060.5C 1425.35,1061.72 1423.52,1062.55 1421.5,1063C 1417.75,1067.42 1413.42,1071.08 1408.5,1074C 1401.58,1075.52 1394.91,1077.85 1388.5,1081C 1383.63,1081.75 1378.79,1081.59 1374,1080.5C 1363.88,1083.6 1354.38,1082.1 1345.5,1076C 1337.35,1066.22 1328.85,1056.72 1320,1047.5C 1312.61,1032.33 1316.45,1020.83 1331.5,1013C 1334.42,1011.47 1337.42,1010.14 1340.5,1009C 1348.08,999.546 1351.41,988.712 1350.5,976.5C 1350.43,970.794 1349.93,965.127 1349,959.5C 1344.47,949.6 1339.3,940.1 1333.5,931C 1327.72,931.481 1322.72,929.814 1318.5,926C 1309.4,923.302 1300.74,919.636 1292.5,915C 1285.27,913.11 1277.94,911.777 1270.5,911C 1249.11,910.642 1227.77,911.642 1206.5,914C 1203.14,915.118 1199.98,916.618 1197,918.5C 1194.29,931.425 1187.45,941.592 1176.5,949C 1163.57,958.957 1148.91,964.124 1132.5,964.5C 1127.24,964.119 1123.07,961.786 1120,957.5C 1117.45,953.065 1115.45,948.399 1114,943.5C 1108.91,941.409 1105.57,937.742 1104,932.5C 1103.93,928.104 1103.77,923.77 1103.5,919.5C 1104.19,915.786 1105.69,912.452 1108,909.5C 1110.3,900.728 1108.64,892.728 1103,885.5C 1094.32,876.916 1084.82,869.416 1074.5,863C 1069.05,857.931 1067.22,851.764 1069,844.5C 1070.45,835.789 1072.12,827.122 1074,818.5C 1077.6,810.614 1083.76,806.614 1092.5,806.5C 1107.58,807.575 1122.58,809.241 1137.5,811.5C 1157.42,814.076 1168.25,805.409 1170,785.5C 1174.54,778.96 1180.71,774.46 1188.5,772C 1185.7,770.207 1183.2,768.04 1181,765.5C 1175.83,756.333 1168.67,749.167 1159.5,744C 1158,743.5 1156.5,743 1155,742.5C 1144.4,747.428 1133.9,746.928 1123.5,741C 1122.33,739.833 1121.17,738.667 1120,737.5C 1112.81,739.075 1107.14,736.742 1103,730.5C 1099.67,721.178 1096.34,711.844 1093,702.5C 1091.06,694.167 1093.22,687.167 1099.5,681.5C 1103.81,678.357 1107.98,675.023 1112,671.5C 1114.79,666.083 1117.96,660.916 1121.5,656C 1117.93,651.698 1115.26,646.864 1113.5,641.5C 1107.69,639.87 1101.85,639.536 1096,640.5C 1081.09,637.419 1066.59,632.919 1052.5,627C 1039.86,621.175 1029.86,612.342 1022.5,600.5C 1017.22,601.618 1011.89,601.784 1006.5,601C 988.109,596.364 969.442,594.364 950.5,595C 937.137,597.119 924.803,601.785 913.5,609C 910.424,609.346 907.424,610.012 904.5,611C 894.143,617.182 883.143,621.682 871.5,624.5C 866.589,622.75 861.589,621.417 856.5,620.5C 856.343,621.873 856.51,623.207 857,624.5C 859.011,627.01 861.178,629.343 863.5,631.5C 854.648,638.185 847.814,646.518 843,656.5C 841.876,659.442 841.542,662.442 842,665.5C 844.262,675.525 848.762,684.358 855.5,692C 857.957,693.562 860.624,694.562 863.5,695C 865.5,698.333 867.5,701.667 869.5,705C 876.534,704.716 883.201,706.049 889.5,709C 891.049,710.214 892.215,711.714 893,713.5C 897.181,725.388 900.347,737.555 902.5,750C 902.053,752.956 901.22,755.789 900,758.5C 896,764.5 892,770.5 888,776.5C 885.865,783.426 886.532,790.092 890,796.5C 896.74,802.57 902.74,809.237 908,816.5C 908.667,819.833 908.667,823.167 908,826.5C 904.167,831.667 900.333,836.833 896.5,842C 880.959,851.872 867.626,864.205 856.5,879C 851.894,882.033 846.894,883.033 841.5,882C 828.552,873.794 814.552,868.127 799.5,865C 784.956,864.804 770.456,865.637 756,867.5C 744.748,867.756 735.415,863.756 728,855.5C 722.941,843.714 717.607,832.047 712,820.5C 707.979,810.754 710.146,802.587 718.5,796C 725.354,792.408 731.687,788.075 737.5,783C 733.294,775.788 727.961,769.455 721.5,764C 715.046,761.273 708.712,758.273 702.5,755C 689.87,752.759 677.537,749.426 665.5,745C 652.302,738.568 639.302,731.902 626.5,725C 622.488,720.143 619.654,714.643 618,708.5C 612.896,689.426 609.396,670.093 607.5,650.5C 607.095,644.27 607.595,637.937 609,631.5C 622.027,609.963 637.861,590.629 656.5,573.5C 663.269,560.894 671.769,549.561 682,539.5C 682.667,537.5 682.667,535.5 682,533.5C 680.601,534.227 679.101,534.727 677.5,535C 670.167,535.333 662.833,535.667 655.5,536C 634.545,541.071 613.878,547.071 593.5,554C 583.151,558.839 573.151,564.172 563.5,570C 559.668,570.762 556.002,570.262 552.5,568.5C 546.083,571.273 539.417,572.44 532.5,572C 519.306,562.796 509.806,550.629 504,535.5C 496.333,524.833 488.667,514.167 481,503.5C 473.888,492.511 475.722,483.344 486.5,476C 493.845,473.665 501.178,471.331 508.5,469C 519,460.5 529.5,452 540,443.5C 544.788,430.926 549.288,418.259 553.5,405.5C 552.203,397.907 550.036,390.574 547,383.5C 541.144,371.094 535.977,358.427 531.5,345.5C 513.962,339.891 495.962,337.391 477.5,338C 471.471,336.483 465.804,334.15 460.5,331C 455.555,328.054 452.055,323.888 450,318.5C 446.459,307.544 443.125,296.544 440,285.5C 438.975,277.266 440.641,269.6 445,262.5C 455.041,251.461 464.708,240.127 474,228.5C 478.333,221.5 482.667,214.5 487,207.5C 487.645,171.802 475.311,141.469 450,116.5C 448.056,112.682 447.389,108.682 448,104.5C 454.002,86.8372 464.835,73.0038 480.5,63C 490.469,57.8471 500.469,53.0137 510.5,48.5 Z"/></g>
<g><path style="opacity:1" fill="#aa865b" d="M 514.5,78.5 C 521.361,80.8986 524.028,85.5653 522.5,92.5C 524.945,103.339 528.112,114.005 532,124.5C 533.914,129.335 536.581,133.669 540,137.5C 546.833,145 553.667,152.5 560.5,160C 563.736,162.868 567.236,165.368 571,167.5C 572.561,170.783 574.727,173.617 577.5,176C 589.338,184.089 601.671,191.422 614.5,198C 624.321,201.607 634.321,204.607 644.5,207C 650.585,207.861 656.585,207.527 662.5,206C 671.405,201.432 680.072,196.432 688.5,191C 699.247,186.862 709.914,182.529 720.5,178C 737.103,167.727 753.437,157.06 769.5,146C 773.132,143.37 776.465,140.37 779.5,137C 787.22,134.697 794.72,131.864 802,128.5C 807.134,132.633 811.968,137.133 816.5,142C 845.84,158.668 877.34,168.502 911,171.5C 921.773,169.626 932.607,168.793 943.5,169C 949.715,170.869 956.048,172.203 962.5,173C 969.435,174.621 974.602,178.454 978,184.5C 978.167,185.833 978.333,187.167 978.5,188.5C 975.367,199.727 974.867,211.06 977,222.5C 983.636,244.435 992.97,265.102 1005,284.5C 1028.97,308.048 1057.8,318.548 1091.5,316C 1110.96,312.969 1130.29,309.302 1149.5,305C 1155.7,302.984 1161.2,299.817 1166,295.5C 1172.08,299.459 1178.25,303.292 1184.5,307C 1203.48,316.156 1222.15,325.823 1240.5,336C 1257.32,349.242 1274.32,362.242 1291.5,375C 1298.67,382.833 1305.83,390.667 1313,398.5C 1313.86,401.269 1314.36,404.102 1314.5,407C 1312.66,423.539 1309.16,439.706 1304,455.5C 1303.32,461.226 1302.32,466.893 1301,472.5C 1300.38,477.223 1300.71,481.89 1302,486.5C 1305.21,493.026 1308.38,499.526 1311.5,506C 1315.97,509.741 1320.97,512.741 1326.5,515C 1331.72,515.233 1335.89,517.4 1339,521.5C 1345,528.833 1351,536.167 1357,543.5C 1362.79,558.976 1364.79,574.976 1363,591.5C 1362,596.5 1361,601.5 1360,606.5C 1336.9,648.169 1329.56,692.503 1338,739.5C 1342.46,767.9 1355.96,790.734 1378.5,808C 1394.32,815.41 1410.65,821.41 1427.5,826C 1449.74,827.046 1468.08,819.046 1482.5,802C 1496.36,795.301 1506.36,784.801 1512.5,770.5C 1538.01,770.571 1563.34,773.071 1588.5,778C 1591.58,779.139 1594.58,780.472 1597.5,782C 1595.55,804.243 1599.38,825.41 1609,845.5C 1618.72,857.55 1628.05,869.883 1637,882.5C 1646.06,889.77 1654.56,897.603 1662.5,906C 1669.59,909.294 1676.09,913.46 1682,918.5C 1678.14,945.718 1680.47,972.385 1689,998.5C 1696.07,1014.9 1706.23,1029.06 1719.5,1041C 1732.54,1051.19 1745.2,1061.86 1757.5,1073C 1770.91,1081.4 1784.57,1089.4 1798.5,1097C 1804.45,1098.03 1810.45,1098.86 1816.5,1099.5C 1817.42,1102.76 1817.75,1106.09 1817.5,1109.5C 1811.76,1109.21 1806.09,1109.71 1800.5,1111C 1792.71,1113.88 1785.04,1117.04 1777.5,1120.5C 1759.53,1111.42 1740.53,1105.25 1720.5,1102C 1713.83,1098 1707.17,1094 1700.5,1090C 1683.34,1085.21 1667.01,1087.21 1651.5,1096C 1643.5,1102 1635.5,1108 1627.5,1114C 1623.96,1117.2 1620.8,1120.7 1618,1124.5C 1610.55,1119.4 1602.38,1115.73 1593.5,1113.5C 1592.17,1107.84 1590.01,1102.51 1587,1097.5C 1581.17,1090.33 1575.33,1083.17 1569.5,1076C 1556.26,1066.44 1542.26,1058.11 1527.5,1051C 1520.34,1037.85 1513.84,1024.35 1508,1010.5C 1502.87,1005.01 1497.04,1004.17 1490.5,1008C 1480.29,1014.6 1470.63,1021.94 1461.5,1030C 1450.5,1030.33 1439.5,1030.67 1428.5,1031C 1416.48,1034.22 1406.14,1040.22 1397.5,1049C 1391.94,1049.35 1386.94,1051.19 1382.5,1054.5C 1377.58,1053.37 1373.25,1051.2 1369.5,1048C 1368.03,1042.58 1366.36,1037.25 1364.5,1032C 1373.52,1026.65 1380.02,1019.15 1384,1009.5C 1384.61,990.081 1383.61,970.748 1381,951.5C 1375.86,932.381 1366.03,916.215 1351.5,903C 1335.32,893.717 1317.99,887.384 1299.5,884C 1284.19,882.295 1268.86,880.961 1253.5,880C 1246.17,879.333 1238.83,879.333 1231.5,880C 1216.03,883.618 1201.03,888.618 1186.5,895C 1179.81,899.349 1174.98,905.182 1172,912.5C 1172.59,918.044 1170.76,922.544 1166.5,926C 1161.17,930.671 1155.17,934.337 1148.5,937C 1141.3,940.629 1136.97,938.629 1135.5,931C 1148.91,905.235 1145.74,881.735 1126,860.5C 1122.61,855.048 1119.77,849.381 1117.5,843.5C 1136.35,843.604 1154.02,839.104 1170.5,830C 1182.91,821.159 1189.08,808.992 1189,793.5C 1194.91,787.192 1202.24,784.192 1211,784.5C 1216.1,786.327 1221.44,787.327 1227,787.5C 1234.15,786.504 1241.31,785.67 1248.5,785C 1252.39,781.254 1252.39,777.588 1248.5,774C 1241.12,771.872 1233.78,769.539 1226.5,767C 1221.37,760.554 1214.7,756.554 1206.5,755C 1199.7,745.871 1191.87,737.704 1183,730.5C 1175.17,716.831 1163.34,709.664 1147.5,709C 1139.82,708.459 1132.15,708.626 1124.5,709.5C 1124,706.171 1123,703.005 1121.5,700C 1129.93,692.572 1136.43,683.739 1141,673.5C 1146.99,669.004 1150.82,663.171 1152.5,656C 1152.05,652.591 1150.88,649.424 1149,646.5C 1146.29,644.129 1143.96,641.463 1142,638.5C 1139.33,633.131 1136.66,627.798 1134,622.5C 1130.32,618.577 1125.82,616.077 1120.5,615C 1101.12,613.823 1082.46,609.49 1064.5,602C 1060.67,600.254 1057.01,598.254 1053.5,596C 1045.78,589.607 1038.12,583.274 1030.5,577C 1025.98,576.401 1021.48,576.568 1017,577.5C 997.878,573.425 978.545,570.758 959,569.5C 946.574,571.397 934.074,572.564 921.5,573C 897.214,575.814 875.881,585.148 857.5,601C 856.333,601.167 855.167,601.333 854,601.5C 846.46,600.209 838.96,598.709 831.5,597C 825.375,594.125 819.042,591.959 812.5,590.5C 815.57,600.51 819.736,610.177 825,619.5C 827.647,623.314 830.813,626.647 834.5,629.5C 823.496,651.095 822.663,673.095 832,695.5C 835.614,702.781 840.948,708.448 848,712.5C 850.087,718.519 853.92,723.019 859.5,726C 865.182,726.023 870.682,726.856 876,728.5C 877.738,734.951 879.238,741.451 880.5,748C 879.804,749.893 878.97,751.726 878,753.5C 860.725,769.732 857.725,788.399 869,809.5C 872.131,813.633 875.631,817.466 879.5,821C 874.035,823.232 869.035,826.232 864.5,830C 857.636,837.198 850.47,844.032 843,850.5C 827.538,844.346 811.705,839.18 795.5,835C 784.801,834.459 774.135,834.459 763.5,835C 757.154,829.988 751.488,824.321 746.5,818C 751.239,809.458 755.405,800.625 759,791.5C 760.509,784.206 759.176,777.54 755,771.5C 748.722,763.054 741.556,755.387 733.5,748.5C 732.592,738.088 726.926,731.921 716.5,730C 710.816,729.081 705.149,728.081 699.5,727C 689.088,723.196 678.755,719.196 668.5,715C 658.118,700.739 649.951,685.239 644,668.5C 642.111,656.487 643.444,644.82 648,633.5C 664.774,612.06 680.774,590.06 696,567.5C 696.333,565.167 696.667,562.833 697,560.5C 715.374,545.589 716.208,529.756 699.5,513C 697.913,512.138 696.246,511.471 694.5,511C 686.167,510.333 677.833,510.333 669.5,511C 644.449,515.349 619.782,521.349 595.5,529C 582.926,534.455 570.26,539.622 557.5,544.5C 548.418,540.792 539.751,536.292 531.5,531C 528.976,524.783 525.809,518.95 522,513.5C 520.559,508.511 518.726,503.678 516.5,499C 524.569,493.118 532.902,487.451 541.5,482C 546.083,478.088 549.917,473.588 553,468.5C 560.729,452.708 568.729,437.042 577,421.5C 581.59,398.046 579.923,375.046 572,352.5C 567.691,342.039 561.525,332.872 553.5,325C 549.779,322.473 545.779,320.473 541.5,319C 525.724,314.295 509.724,310.629 493.5,308C 490.246,305.658 488.412,302.491 488,298.5C 485.772,285.914 485.105,273.247 486,260.5C 497.906,241.113 506.073,220.279 510.5,198C 508.365,183.624 505.198,169.458 501,155.5C 495.957,139.656 490.457,123.99 484.5,108.5C 492.882,96.785 502.882,86.785 514.5,78.5 Z"/></g>
<g><path style="opacity:1" fill="#b99f7f" d="M 797.5,183.5 C 819.971,194.204 843.638,201.037 868.5,204C 887.863,204.107 907.197,204.774 926.5,206C 932.196,207.93 937.363,210.764 942,214.5C 942.333,227.833 942.667,241.167 943,254.5C 948.952,276.745 957.952,297.745 970,317.5C 982.768,331.149 998.268,340.649 1016.5,346C 1022.75,347.717 1029.09,349.05 1035.5,350C 1064.5,350.667 1093.5,350.667 1122.5,350C 1131.9,348.659 1141.23,346.992 1150.5,345C 1153.17,344.333 1155.83,344.333 1158.5,345C 1189.86,358.001 1217.86,376.001 1242.5,399C 1247.83,402.667 1253.17,406.333 1258.5,410C 1262.02,414.519 1265.85,418.685 1270,422.5C 1269.99,426.883 1269.33,431.216 1268,435.5C 1267.33,463.5 1267.33,491.5 1268,519.5C 1270.4,525.969 1273.07,532.302 1276,538.5C 1282.59,544.877 1290.42,548.711 1299.5,550C 1307.94,559.102 1315.61,568.769 1322.5,579C 1317.86,589.776 1313.36,600.609 1309,611.5C 1307.89,616.769 1307.23,622.103 1307,627.5C 1304.53,632.232 1302.87,637.232 1302,642.5C 1300.9,661.14 1300.4,679.807 1300.5,698.5C 1298.33,729.996 1301.16,760.996 1309,791.5C 1311.9,800.2 1315.56,808.533 1320,816.5C 1358.03,828.968 1396.53,840.135 1435.5,850C 1443.58,852.803 1451.58,855.803 1459.5,859C 1482.62,861.607 1501.62,853.941 1516.5,836C 1521.17,833.333 1525.83,830.667 1530.5,828C 1535.95,822.255 1540.78,816.089 1545,809.5C 1551.91,810.309 1558.24,812.643 1564,816.5C 1561.64,840.706 1566.31,863.373 1578,884.5C 1587.95,896.909 1597.79,909.409 1607.5,922C 1610.33,924.248 1613.33,926.248 1616.5,928C 1619.13,931.632 1622.13,934.965 1625.5,938C 1632.92,942.125 1640.09,946.625 1647,951.5C 1647.33,967.833 1647.67,984.167 1648,1000.5C 1649.84,1019.21 1655.67,1036.54 1665.5,1052.5C 1655.5,1053.33 1645.5,1054.17 1635.5,1055C 1629.86,1057.1 1624.2,1058.77 1618.5,1060C 1613.21,1053.04 1607.54,1046.37 1601.5,1040C 1587.58,1031.07 1573.41,1022.57 1559,1014.5C 1553,1001.17 1547,987.833 1541,974.5C 1538.93,973.475 1536.76,972.642 1534.5,972C 1510.17,971.333 1485.83,971.333 1461.5,972C 1449.06,978.445 1437.72,986.445 1427.5,996C 1424.52,996.498 1421.52,996.665 1418.5,996.5C 1418.61,975.819 1418.11,955.152 1417,934.5C 1414.96,909.919 1405.46,888.753 1388.5,871C 1381.56,865.695 1373.89,861.695 1365.5,859C 1342.89,850.788 1319.56,847.121 1295.5,848C 1292.09,847.703 1288.75,847.036 1285.5,846C 1263.49,845.833 1241.49,845.333 1219.5,844.5C 1220.88,839.605 1221.71,834.605 1222,829.5C 1224.87,826.296 1228.04,823.463 1231.5,821C 1247.18,820.696 1262.85,820.196 1278.5,819.5C 1279.1,802.114 1276.94,785.114 1272,768.5C 1269.95,757.532 1268.12,746.532 1266.5,735.5C 1264.46,734.764 1262.46,733.931 1260.5,733C 1255.47,726.476 1248.8,722.476 1240.5,721C 1237.88,717.588 1235.38,714.088 1233,710.5C 1223.52,702.684 1215.02,693.85 1207.5,684C 1200.91,679.351 1193.57,676.851 1185.5,676.5C 1185.67,656.497 1185.5,636.497 1185,616.5C 1182.11,610.938 1178.44,605.938 1174,601.5C 1171.91,590.413 1165.41,583.579 1154.5,581C 1134,579.959 1114.33,575.292 1095.5,567C 1084.85,559.669 1074.85,551.669 1065.5,543C 1056.17,542.667 1046.83,542.333 1037.5,542C 1026.98,539.456 1016.32,537.789 1005.5,537C 974.833,536.333 944.167,536.333 913.5,537C 902.71,538.522 891.876,539.689 881,540.5C 865.809,542.897 851.642,548.063 838.5,556C 818.503,556.5 798.503,556.667 778.5,556.5C 778.333,580.169 778.5,603.836 779,627.5C 782.603,636.29 786.603,644.957 791,653.5C 791.072,674.204 791.738,694.87 793,715.5C 795.218,722.817 798.218,729.817 802,736.5C 805.446,740.548 809.446,743.882 814,746.5C 816.092,754.093 820.925,758.76 828.5,760.5C 828.832,773.184 828.499,785.851 827.5,798.5C 826.692,798.808 826.025,799.308 825.5,800C 815.5,800.667 805.5,800.667 795.5,800C 795,799.5 794.5,799 794,798.5C 793.948,779.782 793.282,761.115 792,742.5C 785.302,731.447 776.969,721.78 767,713.5C 767.337,705.659 763.837,700.492 756.5,698C 748.19,696.252 739.857,694.586 731.5,693C 721.914,688.805 712.248,684.805 702.5,681C 697.044,674.202 692.377,666.869 688.5,659C 699.788,644.256 710.955,629.423 722,614.5C 726.626,608.581 729.626,601.914 731,594.5C 736.47,590.036 740.803,584.703 744,578.5C 745.631,551.882 745.964,525.216 745,498.5C 742.606,492.713 739.94,487.046 737,481.5C 735.421,479.959 733.587,478.792 731.5,478C 698.167,477.333 664.833,477.333 631.5,478C 619.597,479.445 607.93,481.945 596.5,485.5C 596.167,485.167 595.833,484.833 595.5,484.5C 600.333,475.5 605.167,466.5 610,457.5C 611.737,453.339 612.737,449.005 613,444.5C 613.667,413.167 613.667,381.833 613,350.5C 611.821,332.772 606.487,316.439 597,301.5C 591.8,292.981 584.3,287.481 574.5,285C 560.043,280.604 545.377,277.104 530.5,274.5C 534.236,265.459 538.069,256.459 542,247.5C 543.037,235.192 543.871,222.859 544.5,210.5C 564.537,226.348 587.203,236.515 612.5,241C 639.833,241.667 667.167,241.667 694.5,241C 702.967,237.602 710.634,232.935 717.5,227C 733.164,221.111 748.497,214.445 763.5,207C 775.074,199.391 786.407,191.558 797.5,183.5 Z"/></g>
<g><path style="opacity:0.057" fill="#47332b" d="M 864.5,665.5 C 865.376,665.369 866.043,665.702 866.5,666.5C 865.011,671.646 864.344,671.313 864.5,665.5 Z"/></g>
</svg>
