<?xml version="1.0" encoding="UTF-8"?>
<!DOCTYPE svg PUBLIC "-//W3C//DTD SVG 1.1//EN" "http://www.w3.org/Graphics/SVG/1.1/DTD/svg11.dtd">
<svg xmlns="http://www.w3.org/2000/svg" version="1.1" width="2296px" height="1221px" style="shape-rendering:geometricPrecision; text-rendering:geometricPrecision; image-rendering:optimizeQuality; fill-rule:evenodd; clip-rule:evenodd" xmlns:xlink="http://www.w3.org/1999/xlink">
<g><path style="opacity:0.985" fill="#48332c" d="M 865.5,90.5 C 872.914,90.5686 880.247,91.402 887.5,93C 901.216,96.1277 914.883,99.461 928.5,103C 940.157,102.682 951.823,102.682 963.5,103C 999.2,107.421 1034.87,112.087 1070.5,117C 1078.79,120.983 1081.96,127.483 1080,136.5C 1084.17,141.201 1084.5,146.201 1081,151.5C 1079.17,153.333 1077.33,155.167 1075.5,157C 1067.66,161.751 1060,166.751 1052.5,172C 1039.75,184.083 1026.42,195.417 1012.5,206C 998.622,220.878 983.789,234.712 968,247.5C 963.825,252.244 963.658,257.244 967.5,262.5C 968.333,262.833 969.167,263.167 970,263.5C 978.99,261.947 987.823,259.781 996.5,257C 1006.96,254.647 1014.79,258.147 1020,267.5C 1023.3,276.107 1027.64,284.107 1033,291.5C 1039.05,298.548 1044.72,305.881 1050,313.5C 1052.17,319.314 1051.84,324.981 1049,330.5C 1041.7,338.803 1034.03,346.803 1026,354.5C 1022.35,358.824 1019.52,363.657 1017.5,369C 1024.48,375.321 1032.48,379.821 1041.5,382.5C 1091.66,372.835 1141.66,362.335 1191.5,351C 1216.17,348.666 1240.67,345.499 1265,341.5C 1266.06,342.097 1267.23,342.43 1268.5,342.5C 1294.26,335.891 1320.26,330.558 1346.5,326.5C 1360.84,328.05 1375.18,329.55 1389.5,331C 1391.52,331.45 1393.35,332.283 1395,333.5C 1402.19,343.201 1409.86,352.535 1418,361.5C 1422.11,367.391 1425.45,373.724 1428,380.5C 1444.51,403.524 1459.51,427.524 1473,452.5C 1473.67,455.5 1473.67,458.5 1473,461.5C 1470.09,470.327 1467.25,479.16 1464.5,488C 1464.83,488.333 1465.17,488.667 1465.5,489C 1503.55,489.573 1541.89,491.24 1580.5,494C 1608.29,496.056 1634.96,491.389 1660.5,480C 1665.94,478.826 1670.94,479.826 1675.5,483C 1683.99,491.17 1691.16,500.337 1697,510.5C 1703.59,522.007 1709.92,533.674 1716,545.5C 1724.88,552.718 1734.05,559.552 1743.5,566C 1750.54,572.707 1757.87,579.04 1765.5,585C 1770.26,589.367 1774.42,594.2 1778,599.5C 1780.7,604.824 1782.04,610.49 1782,616.5C 1784.82,620.97 1786.65,625.803 1787.5,631C 1783.86,644.592 1779.02,657.759 1773,670.5C 1765.82,700.89 1760.16,731.556 1756,762.5C 1755.71,781.691 1754.87,800.858 1753.5,820C 1753.68,824.346 1754.01,828.679 1754.5,833C 1749.15,868.349 1747.99,903.849 1751,939.5C 1759.25,945.835 1761.25,953.835 1757,963.5C 1739.87,982.302 1722.37,1000.8 1704.5,1019C 1698.53,1023.97 1692.86,1029.3 1687.5,1035C 1683.78,1037.53 1679.78,1039.53 1675.5,1041C 1666.5,1041.67 1657.5,1041.67 1648.5,1041C 1640.99,1038.7 1633.32,1037.2 1625.5,1036.5C 1600.62,1039.81 1575.62,1041.31 1550.5,1041C 1528.81,1042.24 1507.14,1043.74 1485.5,1045.5C 1485.17,1048.31 1484.34,1050.98 1483,1053.5C 1470.93,1070.9 1456.77,1086.4 1440.5,1100C 1424.62,1108.96 1408.29,1116.96 1391.5,1124C 1377.96,1127.15 1364.3,1129.65 1350.5,1131.5C 1332.64,1127.58 1314.64,1124.41 1296.5,1122C 1282.66,1117.72 1268.66,1114.05 1254.5,1111C 1246.1,1108.93 1240.6,1103.77 1238,1095.5C 1236.3,1084.55 1234.97,1073.55 1234,1062.5C 1228.87,1047.6 1224.03,1032.6 1219.5,1017.5C 1207.51,1016.67 1195.51,1016.17 1183.5,1016C 1172.84,1014 1162.17,1012 1151.5,1010C 1123.66,1007.73 1095.99,1004.23 1068.5,999.5C 1060.4,999.536 1052.74,1001.37 1045.5,1005C 1034.17,1014.33 1022.83,1023.67 1011.5,1033C 996.549,1054.03 980.049,1073.87 962,1092.5C 955.897,1103.27 946.897,1110.27 935,1113.5C 929.805,1112.65 924.972,1110.82 920.5,1108C 914.5,1104 908.5,1100 902.5,1096C 893.833,1088.67 885.167,1081.33 876.5,1074C 861.491,1064.83 846.824,1055.16 832.5,1045C 821.372,1039.97 809.705,1036.97 797.5,1036C 777.121,1032.47 756.621,1029.97 736,1028.5C 730.133,1028.62 724.3,1029.12 718.5,1030C 706.5,1032.67 694.5,1035.33 682.5,1038C 676.833,1038.67 671.167,1038.67 665.5,1038C 650.741,1029.36 640.574,1016.86 635,1000.5C 628.667,989.833 622.333,979.167 616,968.5C 610.374,961.206 604.374,954.206 598,947.5C 593.013,939.063 593.68,931.063 600,923.5C 608.222,915.977 616.722,908.81 625.5,902C 644.833,883.333 664.167,864.667 683.5,846C 714.109,823.4 742.276,797.9 768,769.5C 771.492,761.847 775.492,754.513 780,747.5C 780.667,736.5 780.667,725.5 780,714.5C 775.545,705.136 770.712,695.97 765.5,687C 748.833,686.333 732.167,686.333 715.5,687C 679.198,692.927 642.865,698.594 606.5,704C 591.609,706.598 576.776,709.432 562,712.5C 556,712.334 551,710 547,705.5C 525.446,678.722 505.112,651.055 486,622.5C 482.5,616.502 479.833,610.169 478,603.5C 477.48,597.916 478.98,592.916 482.5,588.5C 492.421,581.623 502.255,574.623 512,567.5C 515.115,558.602 518.782,549.936 523,541.5C 534.877,530.198 538.877,516.531 535,500.5C 533.789,497.241 531.956,494.408 529.5,492C 511.734,483.746 493.734,476.079 475.5,469C 470.092,464.019 466.926,457.852 466,450.5C 465.777,418.611 468.444,386.945 474,355.5C 475.987,349.522 479.487,344.688 484.5,341C 507.818,328.564 531.485,316.898 555.5,306C 568.111,305.938 580.611,305.105 593,303.5C 594.299,304.98 595.966,305.646 598,305.5C 624.031,301.602 648.198,292.769 670.5,279C 683.221,269.279 696.221,259.946 709.5,251C 717.698,243.137 725.531,234.97 733,226.5C 738.042,217.709 741.708,208.376 744,198.5C 744.163,189.457 743.497,180.457 742,171.5C 739.984,170.161 738.817,168.328 738.5,166C 739.679,160.463 742.013,155.463 745.5,151C 748.898,149.084 752.565,148.084 756.5,148C 762.156,143.504 768.156,139.504 774.5,136C 795.484,125.509 816.151,114.509 836.5,103C 845.815,97.7381 855.482,93.5714 865.5,90.5 Z"/></g>
<g><path style="opacity:1" fill="#aa865b" d="M 866.5,119.5 C 884.124,122.406 901.458,126.573 918.5,132C 955.436,138.054 992.102,145.387 1028.5,154C 1019.83,160.667 1011.17,167.333 1002.5,174C 983.944,192.222 965.777,210.722 948,229.5C 940.842,237.479 937.342,246.812 937.5,257.5C 937.486,264.599 938.32,271.599 940,278.5C 942.5,285 947,289.5 953.5,292C 962.167,292 970.833,292 979.5,292C 988.333,301.5 997.167,311 1006,320.5C 1006.98,321.759 1007.32,323.092 1007,324.5C 997.868,333.292 989.868,342.959 983,353.5C 977.008,361.872 977.008,370.205 983,378.5C 996.712,390.88 1011.54,401.713 1027.5,411C 1031.77,412.96 1036.27,413.793 1041,413.5C 1054.62,412.577 1068.12,410.743 1081.5,408C 1117.3,400.201 1152.96,391.868 1188.5,383C 1215.33,378.435 1241.99,373.101 1268.5,367C 1278.81,366.034 1289.15,365.368 1299.5,365C 1304.65,364.639 1308.98,362.639 1312.5,359C 1316.48,358.36 1320.48,357.86 1324.5,357.5C 1336.82,358.229 1349.15,358.729 1361.5,359C 1365.83,360 1370.17,361 1374.5,362C 1391.26,381.039 1407.43,400.539 1423,420.5C 1430.75,433.671 1438.25,447.005 1445.5,460.5C 1441.21,471.469 1439.04,482.802 1439,494.5C 1442,504.832 1448.5,511.998 1458.5,516C 1502.8,518.472 1547.13,520.139 1591.5,521C 1612.62,523.381 1633.29,521.048 1653.5,514C 1656.8,513.003 1660.13,512.67 1663.5,513C 1665.71,514.873 1667.54,517.04 1669,519.5C 1673.58,528.995 1678.91,537.995 1685,546.5C 1694.14,556.637 1703.64,566.47 1713.5,576C 1723.83,585 1734.17,594 1744.5,603C 1747.73,606.145 1750.73,609.478 1753.5,613C 1747.83,633.846 1741.99,654.679 1736,675.5C 1729.7,704.62 1724.7,733.954 1721,763.5C 1720.72,785.673 1720.22,807.84 1719.5,830C 1721.92,854.767 1723.09,879.6 1723,904.5C 1724.68,913.552 1726.51,922.552 1728.5,931.5C 1726.69,931.491 1725.02,931.991 1723.5,933C 1694.83,953.828 1669.17,977.995 1646.5,1005.5C 1606.17,1006.18 1565.84,1008.01 1525.5,1011C 1506.08,1013.08 1486.75,1015.75 1467.5,1019C 1455.95,1022.58 1450.79,1030.42 1452,1042.5C 1444.17,1051.67 1436.33,1060.83 1428.5,1070C 1421.33,1075.17 1413.66,1079.5 1405.5,1083C 1364.56,1086.07 1323.9,1083.74 1283.5,1076C 1279.02,1075.13 1274.68,1073.8 1270.5,1072C 1268.32,1045.89 1266.49,1019.73 1265,993.5C 1259.68,983.411 1251.18,978.244 1239.5,978C 1223.5,977.667 1207.5,977.333 1191.5,977C 1177.56,974.348 1163.56,972.015 1149.5,970C 1126.74,968.154 1104.07,965.488 1081.5,962C 1073.46,960.875 1065.79,958.542 1058.5,955C 1048.66,953.377 1039.66,955.377 1031.5,961C 999.188,991.622 971.022,1025.45 947,1062.5C 938.329,1053.59 928.829,1045.76 918.5,1039C 900.418,1031.53 882.418,1023.86 864.5,1016C 857.909,1013.47 851.242,1011.14 844.5,1009C 815,1003.31 785.333,998.643 755.5,995C 727.502,993.906 699.502,992.739 671.5,991.5C 663.501,980.173 656.001,968.506 649,956.5C 645.709,949.611 643.042,942.611 641,935.5C 653.109,927.724 664.942,919.557 676.5,911C 690.064,898.105 702.897,884.605 715,870.5C 731.333,854.833 747.667,839.167 764,823.5C 769.333,816.833 774.667,810.167 780,803.5C 784.826,802.086 788.826,799.419 792,795.5C 802.317,778.176 811.317,760.176 819,741.5C 819.906,737.721 820.406,733.888 820.5,730C 819.159,722.579 818.326,715.079 818,707.5C 810.404,690.309 801.737,673.642 792,657.5C 788.021,652.426 782.854,649.259 776.5,648C 766.167,647.333 755.833,647.333 745.5,648C 733.88,649.992 722.213,651.659 710.5,653C 670.209,660.825 629.875,668.325 589.5,675.5C 568.182,656.015 547.682,635.682 528,614.5C 528.685,604.727 530.351,595.06 533,585.5C 543.131,577.707 551.464,568.373 558,557.5C 563.479,542.274 569.479,527.274 576,512.5C 576.667,509.167 576.667,505.833 576,502.5C 572.627,492.751 567.46,484.085 560.5,476.5C 548.167,467 535.833,457.5 523.5,448C 519.046,445.689 514.546,443.522 510,441.5C 508.335,430.012 506.835,418.512 505.5,407C 505.802,396.067 506.969,385.234 509,374.5C 509.883,371.898 511.383,369.731 513.5,368C 529.221,359.473 545.221,351.473 561.5,344C 571.838,338.166 581.838,331.833 591.5,325C 626.779,324.571 659.446,315.237 689.5,297C 713.646,282.866 734.813,265.033 753,243.5C 770.254,219.155 775.42,192.489 768.5,163.5C 783.887,159.093 798.887,153.593 813.5,147C 831.259,137.789 848.926,128.622 866.5,119.5 Z"/></g>
<g><path style="opacity:1" fill="#b99f7f" d="M 878.5,164.5 C 894.79,167.548 911.123,170.382 927.5,173C 929.619,173.098 931.286,173.931 932.5,175.5C 926.551,182.951 920.051,189.951 913,196.5C 909.814,200.873 907.147,205.54 905,210.5C 903.433,238.811 903.099,267.145 904,295.5C 903.849,303.606 905.516,311.273 909,318.5C 911.264,321.433 914.098,323.6 917.5,325C 926.759,326.251 936.092,326.918 945.5,327C 944.339,353.094 944.172,379.261 945,405.5C 946.713,409.873 949.213,413.707 952.5,417C 964.556,426.056 976.89,434.722 989.5,443C 992.833,444.333 996.167,445.667 999.5,447C 1029.53,447.935 1059.53,447.601 1089.5,446C 1133.46,437.729 1177.12,428.062 1220.5,417C 1249,412.099 1277.34,406.433 1305.5,400C 1316.15,399.068 1326.82,398.401 1337.5,398C 1338.5,397.5 1339.5,397 1340.5,396.5C 1354.12,412.622 1367.95,428.622 1382,444.5C 1390.42,457.006 1398.09,470.006 1405,483.5C 1405.33,499.833 1405.67,516.167 1406,532.5C 1408.77,540.27 1413.94,545.77 1421.5,549C 1438.87,549.336 1456.21,550.336 1473.5,552C 1528.07,553.955 1582.57,555.788 1637,557.5C 1641.83,566.501 1647.17,575.168 1653,583.5C 1660.81,590.977 1668.31,598.811 1675.5,607C 1685.83,615.335 1695.5,624.335 1704.5,634C 1697.33,664.189 1691.83,694.689 1688,725.5C 1687.25,760.997 1686.75,796.497 1686.5,832C 1686.45,854.571 1686.95,877.071 1688,899.5C 1659.65,919.844 1634.49,943.678 1612.5,971C 1583.14,972.215 1553.81,973.548 1524.5,975C 1494.35,977.015 1464.35,980.349 1434.5,985C 1422.58,987.631 1417.08,995.131 1418,1007.5C 1409.91,1018.26 1401.08,1028.42 1391.5,1038C 1385.33,1041.92 1379,1045.59 1372.5,1049C 1350.05,1048.66 1328.05,1045.32 1306.5,1039C 1305.67,1038.17 1304.83,1037.33 1304,1036.5C 1301.42,1011.27 1299.76,985.939 1299,960.5C 1296.08,950.923 1289.58,945.756 1279.5,945C 1260.2,943.774 1240.86,943.107 1221.5,943C 1213.48,941.463 1205.48,939.797 1197.5,938C 1169.43,935.251 1141.43,931.918 1113.5,928C 1106.22,926.528 1099.22,924.195 1092.5,921C 1065.17,920.333 1037.83,920.333 1010.5,921C 1005.12,922.568 1000.12,924.901 995.5,928C 973.528,949.876 952.862,972.709 933.5,996.5C 921.61,992.222 909.943,987.389 898.5,982C 886.721,977.851 874.721,974.518 862.5,972C 837.852,968.204 813.185,964.537 788.5,961C 761.495,960.518 734.495,959.851 707.5,959C 705.126,956.961 703.126,954.628 701.5,952C 715.628,941.539 728.128,929.372 739,915.5C 760.305,895.195 781.305,874.529 802,853.5C 806.287,848.425 810.453,843.258 814.5,838C 818.164,836.998 821.331,835.164 824,832.5C 835.385,814.427 845.052,795.427 853,775.5C 854.593,748.528 854.927,721.528 854,694.5C 853.299,686.452 852.299,678.452 851,670.5C 843.127,653.754 834.46,637.421 825,621.5C 822.441,618.469 819.274,616.302 815.5,615C 779.5,614.333 743.5,614.333 707.5,615C 675.52,618.941 643.854,624.274 612.5,631C 602.682,622.349 593.349,613.183 584.5,603.5C 592.713,592.404 598.213,580.071 601,566.5C 604.194,561.446 606.861,556.112 609,550.5C 609.667,522.167 609.667,493.833 609,465.5C 604.883,456.097 599.383,447.597 592.5,440C 581.476,432.487 570.809,424.487 560.5,416C 554.966,413.07 549.633,409.904 544.5,406.5C 545.128,404.742 546.128,403.242 547.5,402C 564.555,392.806 581.888,384.139 599.5,376C 608.669,370.583 617.669,364.917 626.5,359C 664.688,357.711 699.688,346.711 731.5,326C 751.55,313.541 769.384,298.374 785,280.5C 803.123,255.334 809.623,227.334 804.5,196.5C 830.653,189.086 855.319,178.419 878.5,164.5 Z"/></g>
</svg>
