<?xml version="1.0" encoding="UTF-8"?>
<!DOCTYPE svg PUBLIC "-//W3C//DTD SVG 1.1//EN" "http://www.w3.org/Graphics/SVG/1.1/DTD/svg11.dtd">
<svg xmlns="http://www.w3.org/2000/svg" version="1.1" width="2296px" height="1221px" style="shape-rendering:geometricPrecision; text-rendering:geometricPrecision; image-rendering:optimizeQuality; fill-rule:evenodd; clip-rule:evenodd" xmlns:xlink="http://www.w3.org/1999/xlink">
<g><path style="opacity:0.984" fill="#48332c" d="M 1120.5,197.5 C 1139.41,198.16 1158.07,200.66 1176.5,205C 1199.53,207.738 1222.53,210.738 1245.5,214C 1257.66,216.372 1269.66,219.372 1281.5,223C 1305.74,226.03 1329.74,230.363 1353.5,236C 1378.58,237.917 1403.58,240.417 1428.5,243.5C 1433.5,243.333 1438.5,243.167 1443.5,243C 1453.24,240.651 1463.08,238.818 1473,237.5C 1490.49,238.825 1507.99,239.992 1525.5,241C 1555.37,246.383 1585.37,251.05 1615.5,255C 1627.06,257.933 1638.56,261.099 1650,264.5C 1656.46,261.049 1662.79,261.049 1669,264.5C 1673.12,288.401 1677.62,312.234 1682.5,336C 1680.08,340.586 1676.75,344.419 1672.5,347.5C 1670.2,351.356 1669.2,355.356 1669.5,359.5C 1672.09,360.194 1674.42,361.36 1676.5,363C 1680.6,368.556 1684.94,373.89 1689.5,379C 1699.78,382.802 1709.11,388.136 1717.5,395C 1726.74,398.867 1736.41,400.867 1746.5,401C 1761.5,401.083 1776.5,401.083 1791.5,401C 1794.56,402.061 1797.06,403.894 1799,406.5C 1801.74,411.885 1803.57,417.551 1804.5,423.5C 1809.18,424.497 1811.18,427.497 1810.5,432.5C 1807.29,445.484 1804.95,458.651 1803.5,472C 1805.96,492.148 1808.29,512.315 1810.5,532.5C 1808.73,557.482 1804.89,582.149 1799,606.5C 1796.57,616.603 1790.24,621.936 1780,622.5C 1765.92,621.918 1752.25,619.251 1739,614.5C 1723.72,622.641 1708.72,631.307 1694,640.5C 1692,639.833 1690,639.167 1688,638.5C 1681.47,640.846 1674.97,643.346 1668.5,646C 1661.92,646.645 1655.42,646.145 1649,644.5C 1647.1,644.615 1645.44,645.282 1644,646.5C 1640.83,643.333 1637.67,640.167 1634.5,637C 1632.98,635.991 1631.31,635.491 1629.5,635.5C 1631.74,641.151 1634.41,646.651 1637.5,652C 1628.58,668.581 1619.25,684.914 1609.5,701C 1602.43,703.05 1595.43,704.384 1588.5,705C 1584.11,708.066 1581.28,712.233 1580,717.5C 1580.06,734.912 1579.06,752.245 1577,769.5C 1569.13,786.103 1563.47,803.437 1560,821.5C 1559.41,829.858 1558.58,838.192 1557.5,846.5C 1561.25,863.488 1556.58,877.654 1543.5,889C 1541.11,888.649 1538.78,888.815 1536.5,889.5C 1543.63,900.482 1553.79,906.149 1567,906.5C 1579.83,934.616 1595.83,960.616 1615,984.5C 1623.4,1007.97 1635.4,1029.31 1651,1048.5C 1661.08,1058.92 1671.42,1068.92 1682,1078.5C 1687.16,1092.69 1682.66,1102.52 1668.5,1108C 1662.18,1116.83 1653.51,1121.5 1642.5,1122C 1640.62,1124.11 1638.29,1125.44 1635.5,1126C 1628.15,1126.33 1620.82,1126 1613.5,1125C 1601.67,1120.39 1590,1115.39 1578.5,1110C 1568.04,1108.94 1557.71,1109.61 1547.5,1112C 1543.16,1114.17 1539.16,1116.84 1535.5,1120C 1528.83,1127.33 1522.17,1134.67 1515.5,1142C 1509.04,1145.93 1502.04,1148.27 1494.5,1149C 1480.87,1151.35 1469.21,1147.68 1459.5,1138C 1446.08,1132.9 1434.58,1125.07 1425,1114.5C 1411.53,1093.75 1415.53,1077.42 1437,1065.5C 1437.72,1059.62 1439.22,1053.95 1441.5,1048.5C 1437.29,1038.41 1431.79,1029.08 1425,1020.5C 1407.51,1005 1387.01,997.166 1363.5,997C 1360.05,998.782 1358.22,1001.62 1358,1005.5C 1355.64,1019.4 1354.31,1033.4 1354,1047.5C 1351.9,1054.6 1347.4,1059.43 1340.5,1062C 1322.56,1062.91 1305.56,1059.25 1289.5,1051C 1287.67,1049.17 1285.83,1047.33 1284,1045.5C 1281.02,1035.65 1278.69,1025.65 1277,1015.5C 1271,1008.17 1265,1000.83 1259,993.5C 1251.83,987.667 1245.33,981.167 1239.5,974C 1232.99,969.241 1225.99,965.241 1218.5,962C 1206.02,957.713 1193.35,954.046 1180.5,951C 1167.94,947.112 1161.44,938.612 1161,925.5C 1158.85,922.874 1157.52,919.874 1157,916.5C 1156.26,911.134 1156.43,905.8 1157.5,900.5C 1153.19,886.801 1151.35,872.801 1152,858.5C 1153.78,855.059 1155.94,851.892 1158.5,849C 1165.38,846.044 1172.04,842.711 1178.5,839C 1182.75,830.426 1188.75,823.426 1196.5,818C 1199.71,816.652 1203.04,815.818 1206.5,815.5C 1221.35,817.282 1236.02,816.449 1250.5,813C 1248.26,809.42 1245.26,808.587 1241.5,810.5C 1238.68,810.17 1236.01,809.336 1233.5,808C 1230.17,804.333 1226.83,800.667 1223.5,797C 1219.33,794.412 1214.99,792.079 1210.5,790C 1196.67,787.963 1183.67,783.63 1171.5,777C 1165.91,773.414 1160.91,769.08 1156.5,764C 1143.09,758.799 1130.76,751.799 1119.5,743C 1098.44,733.638 1078.11,722.971 1058.5,711C 1051.2,703.925 1047.7,695.425 1048,685.5C 1043.52,693.167 1037.02,697.834 1028.5,699.5C 1011.43,693.579 995.925,684.912 982,673.5C 979.262,668.18 977.762,662.514 977.5,656.5C 978.663,651.533 979.163,646.533 979,641.5C 973.833,651.498 969.5,661.832 966,672.5C 961.476,677.688 956.309,682.188 950.5,686C 936.906,689.081 923.239,689.248 909.5,686.5C 899.667,687.9 889.834,689.234 880,690.5C 873.196,690.932 867.53,688.598 863,683.5C 863.431,689.336 864.264,695.169 865.5,701C 865.686,708.957 862.686,715.29 856.5,720C 850.712,722.977 844.879,725.811 839,728.5C 833.499,738.173 827.499,747.506 821,756.5C 820.333,760.833 820.333,765.167 821,769.5C 826.285,783.362 831.952,797.029 838,810.5C 838.833,811.333 839.667,812.167 840.5,813C 857.997,818.991 873.497,828.157 887,840.5C 889.697,845.705 890.031,851.039 888,856.5C 881.087,867.328 876.087,878.995 873,891.5C 872.636,902.852 871.969,914.185 871,925.5C 870.687,930.489 868.521,934.323 864.5,937C 855.522,936.005 847.188,933.005 839.5,928C 817.886,910.525 795.219,894.525 771.5,880C 747.304,859.133 721.971,839.799 695.5,822C 672.192,805.036 650.358,786.203 630,765.5C 627.111,761.944 625.111,757.944 624,753.5C 624.002,744.475 624.668,735.475 626,726.5C 628.976,714.263 631.476,701.93 633.5,689.5C 630.314,657.368 626.148,625.368 621,593.5C 618,589.833 615,586.167 612,582.5C 594.333,555.833 576.667,529.167 559,502.5C 548.799,492.63 538.299,483.13 527.5,474C 513.5,464 499.5,454 485.5,444C 479.84,439.345 477.173,433.345 477.5,426C 478.701,418.994 478.701,411.994 477.5,405C 479.888,381.984 480.555,358.65 479.5,335C 479.485,329.072 480.985,323.572 484,318.5C 490.136,314.252 496.97,311.752 504.5,311C 523.352,298.485 541.352,284.818 558.5,270C 571.87,257.628 585.537,245.628 599.5,234C 606.011,229.241 613.011,225.241 620.5,222C 624.936,217.447 630.27,214.447 636.5,213C 651.438,210.094 666.438,209.761 681.5,212C 732.232,219.566 782.898,227.566 833.5,236C 851.779,241.538 870.112,246.871 888.5,252C 894.399,255.231 899.732,259.231 904.5,264C 926.27,275.148 948.937,284.148 972.5,291C 980.82,293.502 989.153,293.835 997.5,292C 1006.49,284.168 1016.49,277.834 1027.5,273C 1039.5,265 1051.5,257 1063.5,249C 1075.38,238.118 1086.22,226.284 1096,213.5C 1099.5,210 1103,206.5 1106.5,203C 1110.98,200.455 1115.65,198.622 1120.5,197.5 Z"/></g>
<g><path style="opacity:1" fill="#aa865b" d="M 1121.5,225.5 C 1129.51,225.334 1137.51,225.5 1145.5,226C 1179.35,231.53 1213.35,236.197 1247.5,240C 1259.59,243.022 1271.59,246.355 1283.5,250C 1292.41,251.794 1301.41,252.794 1310.5,253C 1327.75,256.764 1345.08,260.097 1362.5,263C 1380.06,263.029 1397.39,265.029 1414.5,269C 1440.4,268.852 1466.06,271.186 1491.5,276C 1523.04,278.479 1554.37,282.479 1585.5,288C 1604.84,288.533 1624.17,288.367 1643.5,287.5C 1645.06,300.152 1646.56,312.818 1648,325.5C 1649.56,329.619 1651.39,333.619 1653.5,337.5C 1646.91,348.519 1646.07,359.853 1651,371.5C 1653.04,373.874 1655.37,375.874 1658,377.5C 1664.28,393.581 1675.78,404.081 1692.5,409C 1700.08,416.627 1709.08,421.96 1719.5,425C 1737.72,428.461 1756.05,429.294 1774.5,427.5C 1773.26,458.26 1770.76,488.927 1767,519.5C 1763.26,535.449 1758.76,551.116 1753.5,566.5C 1746.25,564.007 1738.91,563.84 1731.5,566C 1705.33,577.085 1680,589.752 1655.5,604C 1645.51,603.953 1635.51,603.62 1625.5,603C 1611.17,590 1597.5,576.333 1584.5,562C 1581.28,560.045 1577.95,558.712 1574.5,558C 1581.03,573.902 1588.53,589.402 1597,604.5C 1600.13,612.727 1602.96,621.061 1605.5,629.5C 1604.51,633.131 1603.68,636.798 1603,640.5C 1593.03,650.43 1585.03,661.763 1579,674.5C 1574.8,669.966 1570.3,665.799 1565.5,662C 1557.14,658.106 1553.64,660.606 1555,669.5C 1560.18,677.861 1563.68,686.861 1565.5,696.5C 1559.24,706.691 1553.74,717.358 1549,728.5C 1544,746.5 1539,764.5 1534,782.5C 1530.88,806.133 1530.71,829.8 1533.5,853.5C 1529.25,854.044 1525.75,856.044 1523,859.5C 1519.91,874.351 1514.07,888.018 1505.5,900.5C 1512.54,908.008 1519.54,915.508 1526.5,923C 1536.76,926.976 1546.93,931.142 1557,935.5C 1568.64,953.793 1577.31,973.46 1583,994.5C 1593.2,1018.57 1606.2,1040.91 1622,1061.5C 1625.09,1066.67 1627.92,1072.01 1630.5,1077.5C 1630,1077.83 1629.5,1078.17 1629,1078.5C 1617.2,1077.7 1605.37,1077.2 1593.5,1077C 1572.36,1072.92 1551.03,1071.25 1529.5,1072C 1525.22,1073.47 1521.22,1075.47 1517.5,1078C 1508.25,1088.09 1498.25,1097.25 1487.5,1105.5C 1481.58,1099.2 1474.58,1094.37 1466.5,1091C 1465.64,1090.31 1464.98,1089.48 1464.5,1088.5C 1467.86,1081.73 1469.2,1074.57 1468.5,1067C 1468.33,1056.76 1467.5,1046.6 1466,1036.5C 1458.32,1018.16 1446.82,1002.66 1431.5,990C 1419.66,982.917 1408,975.583 1396.5,968C 1372.9,956.21 1352.06,959.71 1334,978.5C 1329.02,985.761 1325.85,993.761 1324.5,1002.5C 1316.2,989.033 1307.7,975.699 1299,962.5C 1287.89,953.353 1277.05,943.853 1266.5,934C 1262.33,931.412 1257.99,929.079 1253.5,927C 1232.65,920.784 1212.65,912.951 1193.5,903.5C 1196.94,893.022 1199.44,882.355 1201,871.5C 1202.56,866.05 1204.89,861.05 1208,856.5C 1217.87,853.483 1227.7,850.316 1237.5,847C 1255.44,847.898 1272.78,844.898 1289.5,838C 1300.23,836.49 1310.89,834.657 1321.5,832.5C 1329.03,834.545 1335.86,833.212 1342,828.5C 1344.96,820.926 1342.46,816.092 1334.5,814C 1315.76,808.308 1296.76,803.641 1277.5,800C 1274.2,795.7 1270.54,791.7 1266.5,788C 1257.93,782.769 1249.93,776.769 1242.5,770C 1236.6,766.7 1230.27,765.033 1223.5,765C 1219.55,761.344 1214.89,759.01 1209.5,758C 1202.54,756.458 1195.54,755.124 1188.5,754C 1182.03,748.264 1175.03,743.264 1167.5,739C 1156.97,728.469 1145.31,719.469 1132.5,712C 1117.77,705.8 1103.43,698.8 1089.5,691C 1086.83,690.166 1084.16,689.332 1081.5,688.5C 1079.51,685.044 1078.01,681.378 1077,677.5C 1076.73,671.699 1075.73,666.032 1074,660.5C 1073.05,658.545 1071.71,656.878 1070,655.5C 1070.16,651.494 1070.66,647.494 1071.5,643.5C 1068.31,642.96 1065.81,643.96 1064,646.5C 1055.74,645.536 1048.91,648.369 1043.5,655C 1041.67,655.167 1039.83,655.333 1038,655.5C 1030.07,652.863 1021.9,651.029 1013.5,650C 1010.5,648.833 1007.5,647.667 1004.5,646.5C 1003.57,637.27 1002.23,628.103 1000.5,619C 1002.05,612.983 1001.55,607.15 999,601.5C 993.1,597.066 987.934,597.899 983.5,604C 977.843,606.493 972.51,609.493 967.5,613C 961.333,620.5 954.5,627.333 947,633.5C 946.023,637.268 944.523,640.768 942.5,644C 921.369,648.031 900.036,650.031 878.5,650C 874.361,652.067 870.027,652.734 865.5,652C 861.047,647.279 856.047,643.279 850.5,640C 845.356,634.702 840.689,629.035 836.5,623C 830.906,618.827 824.74,617.327 818,618.5C 816.964,620.87 816.464,623.37 816.5,626C 816.98,635.593 818.146,645.093 820,654.5C 823.437,664.811 827.271,674.978 831.5,685C 823.582,689.587 817.749,696.087 814,704.5C 813.667,706.833 813.333,709.167 813,711.5C 805.371,724.092 799.371,737.425 795,751.5C 791.808,768.829 794.475,785.162 803,800.5C 805.016,802.684 807.183,804.684 809.5,806.5C 812.558,817.7 818.558,826.866 827.5,834C 838.296,839.967 848.963,846.134 859.5,852.5C 849.528,868.718 844.695,886.385 845,905.5C 840.312,901.311 835.479,897.311 830.5,893.5C 826.858,888.39 822.858,883.557 818.5,879C 805.833,870 793.167,861 780.5,852C 743.393,819.236 710.226,783.069 681,743.5C 679.107,740.382 677.774,737.049 677,733.5C 673.614,710.57 668.947,687.903 663,665.5C 660.79,632.694 655.79,600.361 648,568.5C 638.062,547.608 625.395,528.608 610,511.5C 597.367,497.199 584.367,483.199 571,469.5C 560.15,452.979 548.15,437.312 535,422.5C 526.751,410.337 518.751,398.004 511,385.5C 509.964,383.13 509.464,380.63 509.5,378C 510.222,365.178 510.722,352.344 511,339.5C 514.709,337.879 518.542,336.379 522.5,335C 530.498,328.664 539.164,323.33 548.5,319C 558.451,312.051 568.117,304.717 577.5,297C 605.98,281.858 629.48,261.024 648,234.5C 710.13,247.726 772.63,258.893 835.5,268C 849.66,272.123 863.993,275.457 878.5,278C 879.833,279.333 881.167,280.667 882.5,282C 896.076,287.788 909.409,294.121 922.5,301C 938.971,307.57 955.638,313.57 972.5,319C 983.958,321.311 995.291,320.978 1006.5,318C 1030.11,302.725 1053.44,287.059 1076.5,271C 1083.6,265.908 1090.1,260.074 1096,253.5C 1104.03,243.646 1112.53,234.313 1121.5,225.5 Z"/></g>
<g><path style="opacity:1" fill="#b99f7f" d="M 1149.5,265.5 C 1168.06,268.355 1186.73,270.522 1205.5,272C 1220.93,275.691 1236.26,279.691 1251.5,284C 1258.8,285.02 1266.13,285.687 1273.5,286C 1293.33,290.567 1313.33,294.233 1333.5,297C 1347.76,296.561 1361.76,298.228 1375.5,302C 1404.05,302.478 1432.38,305.145 1460.5,310C 1492.41,312.323 1524.08,316.323 1555.5,322C 1573.83,322.5 1592.16,322.667 1610.5,322.5C 1611.67,334.483 1612.83,346.483 1614,358.5C 1614.33,372.833 1614.67,387.167 1615,401.5C 1617.23,406.401 1620.57,410.401 1625,413.5C 1630,427.163 1639.5,435.996 1653.5,440C 1658.45,443.285 1663.12,446.952 1667.5,451C 1678.57,457.615 1690.57,460.948 1703.5,461C 1714.16,461.5 1724.83,461.667 1735.5,461.5C 1735.28,470.219 1734.45,478.886 1733,487.5C 1728.7,501.711 1724.86,516.044 1721.5,530.5C 1712.67,529.92 1704,530.753 1695.5,533C 1678.89,540.304 1662.56,548.137 1646.5,556.5C 1638.01,547.844 1629.68,539.011 1621.5,530C 1619.33,528.414 1617,527.08 1614.5,526C 1590.84,525.5 1567.17,525.333 1543.5,525.5C 1543.33,549.836 1543.5,574.169 1544,598.5C 1546.81,606.947 1550.31,615.113 1554.5,623C 1554.26,623.873 1553.93,624.707 1553.5,625.5C 1543.52,626.332 1533.52,626.832 1523.5,627C 1522.58,627.374 1521.75,627.874 1521,628.5C 1520.67,646.833 1520.33,665.167 1520,683.5C 1517.28,689.005 1514.94,694.672 1513,700.5C 1508.01,719.115 1503.35,737.781 1499,756.5C 1497.76,777.471 1497.1,798.471 1497,819.5C 1494.67,820.833 1492.33,822.167 1490,823.5C 1486.44,838.283 1480.44,851.95 1472,864.5C 1471.33,888.167 1471.33,911.833 1472,935.5C 1473.33,937.5 1474.67,939.5 1476,941.5C 1481.17,945.333 1485.67,949.833 1489.5,955C 1497.4,959.303 1505.73,962.636 1514.5,965C 1518.79,966.396 1522.29,968.896 1525,972.5C 1528.81,980.788 1533.14,988.788 1538,996.5C 1542.83,1009.84 1547.67,1023.17 1552.5,1036.5C 1535.51,1037.5 1518.51,1037.83 1501.5,1037.5C 1501.88,1026.11 1501.38,1014.78 1500,1003.5C 1493.96,987.811 1485.13,973.978 1473.5,962C 1462.01,953.753 1450.34,945.753 1438.5,938C 1431.01,934.545 1423.35,931.545 1415.5,929C 1387.52,927.757 1359.52,927.09 1331.5,927C 1321.54,918.704 1311.87,910.037 1302.5,901C 1289.24,893.579 1275.24,887.912 1260.5,884C 1271.57,880.951 1282.91,879.618 1294.5,880C 1319.1,871.438 1344.43,866.771 1370.5,866C 1373.58,865.214 1375.75,863.381 1377,860.5C 1377.98,835.079 1377.65,809.746 1376,784.5C 1374.05,782.106 1371.55,780.606 1368.5,780C 1357.1,778.464 1346.1,775.464 1335.5,771C 1327.72,770.237 1320.06,768.903 1312.5,767C 1308.53,762.033 1304.2,757.366 1299.5,753C 1291.96,748.394 1284.96,743.061 1278.5,737C 1272.6,733.7 1266.27,732.033 1259.5,732C 1255.9,728.366 1251.57,726.033 1246.5,725C 1238.45,723.536 1230.45,721.869 1222.5,720C 1205.5,707 1188.5,694 1171.5,681C 1155.92,673.876 1140.59,666.209 1125.5,658C 1119,657.522 1114.5,654.356 1112,648.5C 1110.23,641.254 1108.9,633.921 1108,626.5C 1105.72,621.1 1104.89,615.434 1105.5,609.5C 1082.5,609.5 1059.5,609.5 1036.5,609.5C 1035.35,596.213 1034.52,582.88 1034,569.5C 1033.17,567.333 1031.67,565.833 1029.5,565C 1004.83,564.333 980.167,564.333 955.5,565C 949.039,570.071 942.039,574.404 934.5,578C 927.969,584.865 921.136,591.365 914,597.5C 912.388,601.815 910.554,605.982 908.5,610C 904.285,610.595 900.119,611.429 896,612.5C 894.373,612.375 892.873,611.875 891.5,611C 888.167,608.333 884.833,605.667 881.5,603C 877.88,597.711 873.88,592.711 869.5,588C 867.283,586.725 864.949,585.725 862.5,585C 836.536,583.389 810.536,583.056 784.5,584C 783.773,585.399 783.273,586.899 783,588.5C 782.181,613.364 782.348,638.197 783.5,663C 781.235,666.848 780.068,671.015 780,675.5C 772.648,687.87 766.648,700.87 762,714.5C 760.743,730.789 760.076,747.122 760,763.5C 752.038,753.869 743.704,744.536 735,735.5C 727.333,725.167 719.667,714.833 712,704.5C 707.691,678.953 702.357,653.62 696,628.5C 694.107,600.25 690.44,572.25 685,544.5C 682.777,536.051 679.443,528.051 675,520.5C 667.828,508.821 660.162,497.488 652,486.5C 636.036,468.201 619.703,450.201 603,432.5C 592.484,416.314 580.818,400.981 568,386.5C 564.042,380.752 560.209,374.919 556.5,369C 567.498,361.499 578.832,354.499 590.5,348C 598.788,342.047 606.788,335.714 614.5,329C 637.43,317.408 656.764,301.408 672.5,281C 673.5,280.833 674.5,280.667 675.5,280.5C 714.63,288.188 753.964,294.688 793.5,300C 809.075,304.081 824.742,307.748 840.5,311C 855.771,318.636 871.104,326.302 886.5,334C 901.245,339.47 915.912,345.137 930.5,351C 936.752,352.517 943.086,353.517 949.5,354C 978.167,354.667 1006.83,354.667 1035.5,354C 1066.68,335.821 1096.51,315.654 1125,293.5C 1133,283.999 1141.17,274.666 1149.5,265.5 Z"/></g>
<g><path style="opacity:0.123" fill="#47332b" d="M 1563.5,890.5 C 1565.75,890.541 1566.41,891.375 1565.5,893C 1560.18,894.056 1559.51,893.223 1563.5,890.5 Z"/></g>
</svg>
