<?xml version="1.0" encoding="UTF-8"?>
<!DOCTYPE svg PUBLIC "-//W3C//DTD SVG 1.1//EN" "http://www.w3.org/Graphics/SVG/1.1/DTD/svg11.dtd">
<svg xmlns="http://www.w3.org/2000/svg" version="1.1" width="2296px" height="1221px" style="shape-rendering:geometricPrecision; text-rendering:geometricPrecision; image-rendering:optimizeQuality; fill-rule:evenodd; clip-rule:evenodd" xmlns:xlink="http://www.w3.org/1999/xlink">
<g><path style="opacity:0.984" fill="#48332c" d="M 1290.5,210.5 C 1297.6,209.107 1303.43,211.107 1308,216.5C 1309.98,227.666 1309.98,239 1308,250.5C 1306.3,260.649 1303.96,270.649 1301,280.5C 1288.09,316.55 1275.59,352.717 1263.5,389C 1266.96,391.902 1270.63,394.568 1274.5,397C 1277.04,399.205 1279.21,401.705 1281,404.5C 1313.39,396.013 1345.89,393.179 1378.5,396C 1386.11,397.068 1393.44,399.068 1400.5,402C 1404.07,405.689 1404.9,409.856 1403,414.5C 1397.17,426.839 1390.67,438.839 1383.5,450.5C 1391.83,458.899 1401.99,463.566 1414,464.5C 1437.18,461.357 1460.35,458.19 1483.5,455C 1497.34,452.039 1510.67,447.705 1523.5,442C 1528.27,438.301 1529.77,433.467 1528,427.5C 1518.16,422.327 1512.66,414.16 1511.5,403C 1514.6,385.697 1520.1,369.197 1528,353.5C 1531.05,350.113 1533.72,346.447 1536,342.5C 1541.51,335.994 1548.35,333.994 1556.5,336.5C 1569.4,333.192 1582.4,330.359 1595.5,328C 1605.35,325.002 1614.68,326.002 1623.5,331C 1626.71,335.247 1629.54,339.747 1632,344.5C 1640.81,355.915 1652.31,360.082 1666.5,357C 1677.52,355.595 1688.36,353.429 1699,350.5C 1701.28,344.668 1702.94,338.668 1704,332.5C 1704.13,324.106 1704.8,315.772 1706,307.5C 1708.33,301.836 1712.5,298.336 1718.5,297C 1739.04,292.447 1759.38,287.114 1779.5,281C 1787.6,279.099 1795.77,277.599 1804,276.5C 1808.3,276.493 1812.3,277.493 1816,279.5C 1819.31,278.946 1822.64,278.613 1826,278.5C 1836.11,279.901 1846.28,280.567 1856.5,280.5C 1871.19,279.709 1885.86,278.876 1900.5,278C 1907.82,283.28 1908.15,288.947 1901.5,295C 1898.62,296.608 1895.62,297.941 1892.5,299C 1886.85,303.651 1881.85,308.985 1877.5,315C 1861.83,324.838 1845.83,334.171 1829.5,343C 1809.56,356.555 1790.06,370.722 1771,385.5C 1769.28,393.102 1767.95,400.768 1767,408.5C 1763.4,445.033 1759.56,481.533 1755.5,518C 1758.17,546.414 1761.51,574.748 1765.5,603C 1765.14,605.261 1764.47,607.427 1763.5,609.5C 1765.79,622.153 1768.79,634.653 1772.5,647C 1771.19,656.642 1765.69,661.808 1756,662.5C 1707.82,652.997 1661.65,658.83 1617.5,680C 1605.85,689.979 1596.02,701.479 1588,714.5C 1587.12,719.16 1586.29,723.827 1585.5,728.5C 1588.77,740.81 1592.94,752.81 1598,764.5C 1605.14,775.275 1613.98,784.442 1624.5,792C 1636.9,794.747 1649.24,797.747 1661.5,801C 1664.33,802.5 1666.5,804.667 1668,807.5C 1668.53,812.846 1668.36,818.179 1667.5,823.5C 1669.6,831.017 1670.94,838.684 1671.5,846.5C 1670.02,864.801 1669.19,883.135 1669,901.5C 1666.62,925.116 1664.95,948.783 1664,972.5C 1663.19,982.094 1662.02,991.594 1660.5,1001C 1665.3,1008.63 1664.3,1015.63 1657.5,1022C 1645.45,1029.68 1632.45,1032.34 1618.5,1030C 1616.04,1028.54 1613.87,1026.71 1612,1024.5C 1610.21,1019.63 1608.87,1014.63 1608,1009.5C 1603.37,1001.28 1599.7,992.609 1597,983.5C 1587.26,942.246 1570.92,903.913 1548,868.5C 1544.05,864.555 1539.55,861.389 1534.5,859C 1515.39,854.717 1496.06,853.384 1476.5,855C 1465.65,857.703 1454.65,859.37 1443.5,860C 1432.99,865.518 1422.32,865.851 1411.5,861C 1401.85,856.509 1392.52,851.509 1383.5,846C 1377.66,839.457 1371.49,833.291 1365,827.5C 1364.33,826.167 1363.67,824.833 1363,823.5C 1363.14,810.586 1361.47,797.92 1358,785.5C 1356.63,783.63 1355.47,781.63 1354.5,779.5C 1329.09,762.645 1301.09,754.812 1270.5,756C 1257.84,769.625 1245.18,783.292 1232.5,797C 1220.16,806.509 1206.83,814.509 1192.5,821C 1157.56,832.812 1122.56,844.312 1087.5,855.5C 1085.82,866.385 1083.82,877.218 1081.5,888C 1082,889.5 1082.5,891 1083,892.5C 1098.23,904.795 1112.9,917.795 1127,931.5C 1132.53,939.763 1135.36,948.93 1135.5,959C 1134.29,967.636 1132.45,976.136 1130,984.5C 1128.93,998.599 1127.09,1012.6 1124.5,1026.5C 1125.78,1033.46 1126.78,1040.46 1127.5,1047.5C 1127.84,1056.54 1123.67,1061.87 1115,1063.5C 1102.26,1060.27 1089.43,1057.61 1076.5,1055.5C 1070.21,1077.86 1062.05,1099.52 1052,1120.5C 1046.43,1127.07 1040.1,1128.07 1033,1123.5C 1031.25,1120.75 1030.25,1117.75 1030,1114.5C 1021.67,1107.5 1014,1099.83 1007,1091.5C 998.667,1079.17 990.333,1066.83 982,1054.5C 973.833,1045 965,1036.17 955.5,1028C 927.189,1026.15 898.856,1025.49 870.5,1026C 840.678,1027.9 811.012,1031.07 781.5,1035.5C 776.661,1035.62 771.995,1034.79 767.5,1033C 755.591,1023.09 745.091,1011.93 736,999.5C 731.463,991.921 730.463,983.921 733,975.5C 740.348,968.817 747.015,961.483 753,953.5C 755.911,948.178 758.411,942.678 760.5,937C 757.057,929.281 753.224,921.781 749,914.5C 742.532,907.03 735.698,899.864 728.5,893C 709.416,884.527 690.416,875.86 671.5,867C 663.848,863.418 655.848,861.752 647.5,862C 621.876,865.689 596.209,869.022 570.5,872C 547.294,879.385 523.627,884.718 499.5,888C 488.833,892 478.167,896 467.5,900C 447.344,904.385 427.344,909.385 407.5,915C 400.916,916.141 394.583,915.474 388.5,913C 379.154,904.816 372.987,894.65 370,882.5C 367.867,880.909 366.201,878.909 365,876.5C 363.917,860.412 367.751,845.578 376.5,832C 375.192,823.624 375.192,815.291 376.5,807C 367.833,801 359.167,795 350.5,789C 343.043,790.625 336.876,788.458 332,782.5C 327.98,769.782 326.647,756.782 328,743.5C 329.039,741.254 330.206,739.087 331.5,737C 353.968,723.597 376.301,709.931 398.5,696C 406.159,692.085 414.159,689.085 422.5,687C 421.696,682.557 421.863,678.057 423,673.5C 426.432,652.002 431.765,631.002 439,610.5C 447.731,591.77 459.565,575.27 474.5,561C 476.167,560 477.833,559 479.5,558C 470.665,547.468 461.499,537.301 452,527.5C 447.766,519.127 449.933,512.96 458.5,509C 500.84,493.331 541.84,474.664 581.5,453C 586.091,451.136 590.757,449.47 595.5,448C 597.568,447.313 599.568,447.48 601.5,448.5C 611.939,438.783 623.272,430.283 635.5,423C 627.844,421.594 620.177,420.261 612.5,419C 605.795,415.099 601.962,409.266 601,401.5C 599.608,389.484 598.108,377.484 596.5,365.5C 596.181,359.971 598.181,355.471 602.5,352C 615.659,345.926 627.993,338.592 639.5,330C 647.398,324.586 656.065,322.253 665.5,323C 667,323.5 668.5,324 670,324.5C 677.125,320.02 684.625,316.187 692.5,313C 707.659,308.058 722.992,303.725 738.5,300C 755.063,296.472 771.73,295.805 788.5,298C 791.952,298.892 794.952,300.558 797.5,303C 807.37,313.201 816.87,323.701 826,334.5C 827.277,338.097 827.61,341.764 827,345.5C 823.426,352.08 819.426,358.413 815,364.5C 814.186,366.902 814.353,369.235 815.5,371.5C 825.781,377.261 836.781,380.594 848.5,381.5C 882.566,380.433 915.899,374.933 948.5,365C 953.634,358.865 959.134,353.031 965,347.5C 968.197,342.728 967.697,338.228 963.5,334C 960.052,332.073 956.385,330.739 952.5,330C 943.16,328.666 933.827,327.333 924.5,326C 919.667,323.833 916.167,320.333 914,315.5C 913.943,300.14 912.776,284.806 910.5,269.5C 910.449,263.867 911.116,258.367 912.5,253C 910.391,243.546 913.724,236.546 922.5,232C 928.921,229.303 935.588,227.636 942.5,227C 963.482,225.857 984.482,225.191 1005.5,225C 1022.42,222.342 1039.42,220.342 1056.5,219C 1097.51,217.544 1138.51,215.877 1179.5,214C 1203.17,213.667 1226.83,213.333 1250.5,213C 1264.02,212.669 1277.35,211.835 1290.5,210.5 Z"/></g>
<g><path style="opacity:1" fill="#aa865b" d="M 1288.5,233.5 C 1280.93,256.014 1272.76,278.681 1264,301.5C 1256.08,318.351 1248.41,335.351 1241,352.5C 1237.13,364.451 1233.46,376.451 1230,388.5C 1228.12,397.288 1230.96,404.121 1238.5,409C 1250.67,413.085 1262,418.752 1272.5,426C 1276.17,426.667 1279.83,426.667 1283.5,426C 1314.68,417.661 1346.34,414.994 1378.5,418C 1378.83,418.333 1379.17,418.667 1379.5,419C 1370.44,426.385 1363.27,435.218 1358,445.5C 1355.6,453.811 1356.93,461.477 1362,468.5C 1379.45,485.206 1400.28,492.372 1424.5,490C 1441.71,486.921 1459.04,484.921 1476.5,484C 1490.85,480.328 1505.18,476.662 1519.5,473C 1527.16,469.171 1534.5,464.837 1541.5,460C 1554.21,446.223 1556.71,430.723 1549,413.5C 1545.25,409.082 1540.92,405.416 1536,402.5C 1535.03,400.726 1534.2,398.893 1533.5,397C 1540.79,388.939 1546.46,379.773 1550.5,369.5C 1569.2,365.232 1588.03,361.566 1607,358.5C 1612.1,363.6 1617.27,368.767 1622.5,374C 1632.54,381.514 1643.88,385.014 1656.5,384.5C 1672.16,384.336 1687.16,381.169 1701.5,375C 1705.92,372.588 1709.75,369.422 1713,365.5C 1717.33,359.167 1721.67,352.833 1726,346.5C 1729.17,338.813 1731,330.813 1731.5,322.5C 1741.37,320.378 1751.03,317.545 1760.5,314C 1778.64,311.755 1796.31,307.589 1813.5,301.5C 1821.7,303.907 1830.04,305.741 1838.5,307C 1822.98,315.205 1807.98,324.205 1793.5,334C 1780.52,344.156 1767.19,353.823 1753.5,363C 1750.73,365.383 1748.56,368.217 1747,371.5C 1744.58,379.678 1742.91,388.011 1742,396.5C 1739.43,428.149 1737.1,459.816 1735,491.5C 1732.49,501.856 1729.83,512.189 1727,522.5C 1726.72,545.626 1728.39,568.626 1732,591.5C 1732.59,601.514 1732.42,611.514 1731.5,621.5C 1718.05,620.432 1704.72,618.599 1691.5,616C 1684.83,615.333 1678.17,615.333 1671.5,616C 1656.11,619.347 1640.78,623.014 1625.5,627C 1617.68,630.49 1610.68,635.157 1604.5,641C 1587.56,657.604 1571.72,675.104 1557,693.5C 1555.96,712.079 1557.63,730.412 1562,748.5C 1567.23,760.959 1571.9,773.626 1576,786.5C 1589.86,799.689 1604.36,812.189 1619.5,824C 1624.7,827.6 1630.37,830.1 1636.5,831.5C 1639.71,868.75 1641.21,906.083 1641,943.5C 1642.68,962.233 1644.84,980.9 1647.5,999.5C 1644.17,999.5 1640.83,999.5 1637.5,999.5C 1637.66,997.473 1637.5,995.473 1637,993.5C 1630.51,971.862 1624.17,950.196 1618,928.5C 1607.2,909.239 1597.2,889.572 1588,869.5C 1580.14,860.644 1571.98,852.144 1563.5,844C 1550.89,836.126 1537.22,830.793 1522.5,828C 1516.57,826.623 1510.57,825.79 1504.5,825.5C 1484.16,826.88 1463.83,828.38 1443.5,830C 1437.83,830.998 1432.33,832.498 1427,834.5C 1421.65,829.232 1415.48,825.066 1408.5,822C 1406.62,819.749 1405.12,817.249 1404,814.5C 1401.14,803.586 1400.47,792.586 1402,781.5C 1405.94,775.353 1407.61,768.687 1407,761.5C 1402.91,754.864 1397.41,749.698 1390.5,746C 1367.49,738.416 1344.16,732.082 1320.5,727C 1301.9,724.434 1283.24,723.1 1264.5,723C 1258.53,725.319 1253.19,728.653 1248.5,733C 1235.46,747.036 1222.79,761.37 1210.5,776C 1203.77,781.059 1196.77,785.726 1189.5,790C 1152.73,803.255 1115.73,815.922 1078.5,828C 1069.23,831.62 1061.4,837.12 1055,844.5C 1052.29,850.706 1051.13,857.206 1051.5,864C 1052.26,874.739 1053.59,885.406 1055.5,896C 1054.42,900.458 1054.25,904.958 1055,909.5C 1057.75,914.252 1061.25,918.419 1065.5,922C 1076.63,931.464 1087.47,941.297 1098,951.5C 1098.86,953.087 1099.53,954.754 1100,956.5C 1099.47,965.48 1096.8,973.813 1092,981.5C 1090.37,985.681 1089.54,990.015 1089.5,994.5C 1091.69,1008.93 1094.36,1023.26 1097.5,1037.5C 1088.11,1034.16 1078.44,1032.99 1068.5,1034C 1062.5,1035.34 1058.33,1038.84 1056,1044.5C 1051.99,1058.87 1046.99,1072.87 1041,1086.5C 1031.3,1067.07 1022.97,1047.07 1016,1026.5C 1013.75,1021 1010.75,1016 1007,1011.5C 1005.96,1004.25 1002.12,999.079 995.5,996C 987.305,993.829 978.972,992.496 970.5,992C 963.397,989.188 956.064,987.188 948.5,986C 893.116,985.168 837.783,986.001 782.5,988.5C 781.737,985.859 781.57,983.192 782,980.5C 788.133,973.905 792.467,966.238 795,957.5C 796.706,949.293 799.039,941.293 802,933.5C 802.667,929.833 802.667,926.167 802,922.5C 798,917.167 793.333,912.5 788,908.5C 781.114,898.608 773.114,889.608 764,881.5C 750.777,865.944 735.944,852.111 719.5,840C 711.009,835.922 702.676,831.588 694.5,827C 680.639,826.79 666.806,826.623 653,826.5C 631.909,829.417 610.742,831.584 589.5,833C 557.143,840.506 524.809,848.173 492.5,856C 462.868,864.767 433.368,873.933 404,883.5C 400.034,879.864 396.368,875.864 393,871.5C 392.262,867.739 392.595,864.072 394,860.5C 398.27,852.959 402.27,845.293 406,837.5C 405.94,827.178 405.607,816.844 405,806.5C 403.24,798.397 398.74,792.23 391.5,788C 380.558,782.612 369.724,777.112 359,771.5C 356.797,766.069 356.297,760.569 357.5,755C 370.006,746.577 383.006,738.911 396.5,732C 401.991,727.754 407.658,723.754 413.5,720C 420.914,717.195 428.247,714.195 435.5,711C 441.392,705.556 448.058,701.39 455.5,698.5C 460.181,694.142 461.681,688.809 460,682.5C 457.471,675.883 455.971,669.05 455.5,662C 458.413,645.514 461.246,629.014 464,612.5C 470.984,600.842 479.484,590.342 489.5,581C 498.217,578.566 504.717,573.399 509,565.5C 510.062,559.607 508.729,554.274 505,549.5C 497.645,540.979 490.478,532.312 483.5,523.5C 523.362,507.069 562.029,488.235 599.5,467C 617.006,459.914 633.672,451.247 649.5,441C 662.763,436.955 674.597,430.455 685,421.5C 688.6,413.422 686.433,407.588 678.5,404C 661.507,398.968 644.173,395.801 626.5,394.5C 626.075,386.379 625.242,378.379 624,370.5C 634.039,365.121 643.539,358.954 652.5,352C 664.848,345.55 677.848,340.884 691.5,338C 707.597,334.714 723.597,331.048 739.5,327C 753.767,323.467 768.1,322.8 782.5,325C 787.968,331.469 793.801,337.636 800,343.5C 800.667,344.5 800.667,345.5 800,346.5C 792.508,356.425 790.508,367.425 794,379.5C 795.738,383.241 798.238,386.408 801.5,389C 811.723,394.445 822.39,398.779 833.5,402C 877.562,404.826 920.229,398.493 961.5,383C 964.128,380.246 966.128,377.079 967.5,373.5C 981.247,366.095 989.58,354.761 992.5,339.5C 989.329,321.825 978.995,310.658 961.5,306C 954.289,303.991 946.956,302.824 939.5,302.5C 940.538,287.644 943.872,273.311 949.5,259.5C 964.517,257.474 979.517,255.307 994.5,253C 1022.49,252 1050.49,251.333 1078.5,251C 1093.43,248.456 1108.43,246.456 1123.5,245C 1168.51,243.484 1213.51,241.818 1258.5,240C 1266.53,238.83 1274.53,237.496 1282.5,236C 1284.72,235.434 1286.72,234.6 1288.5,233.5 Z"/></g>
<g><path style="opacity:1" fill="#b99f7f" d="M 1196.5,276.5 C 1206.52,276.168 1216.52,276.501 1226.5,277.5C 1213,301.84 1202.83,327.506 1196,354.5C 1195.33,380.833 1195.33,407.167 1196,433.5C 1197,435.5 1198,437.5 1199,439.5C 1213.23,445.698 1227.06,452.532 1240.5,460C 1264.83,460.667 1289.17,460.667 1313.5,460C 1316.83,459.39 1320.16,458.89 1323.5,458.5C 1323.33,470.171 1323.5,481.838 1324,493.5C 1327.27,502.446 1333.11,509.279 1341.5,514C 1350.68,518.713 1360.35,522.046 1370.5,524C 1398.5,524.667 1426.5,524.667 1454.5,524C 1472.66,520.462 1490.99,518.462 1509.5,518C 1524.1,514.017 1538.77,510.35 1553.5,507C 1564.93,502.715 1574.43,495.882 1582,486.5C 1583.64,483.283 1584.97,479.95 1586,476.5C 1586.33,453.167 1586.67,429.833 1587,406.5C 1593.47,412.106 1600.97,415.606 1609.5,417C 1640.83,417.5 1672.16,417.667 1703.5,417.5C 1703.09,432.853 1702.26,448.186 1701,463.5C 1698.2,470.349 1695.87,477.349 1694,484.5C 1693.5,516.832 1693.33,549.165 1693.5,581.5C 1674.83,581.333 1656.16,581.5 1637.5,582C 1621.47,585.838 1605.47,589.838 1589.5,594C 1583.83,596.833 1578.5,600.166 1573.5,604C 1556.94,619.893 1541.1,636.393 1526,653.5C 1524.72,655.717 1523.72,658.051 1523,660.5C 1522.33,689.5 1522.33,718.5 1523,747.5C 1524.22,762.487 1527.05,777.154 1531.5,791.5C 1504.49,792.417 1477.49,792.917 1450.5,793C 1447.22,791.439 1444.38,789.273 1442,786.5C 1441.95,766.116 1441.29,745.782 1440,725.5C 1436.12,719.625 1430.95,715.125 1424.5,712C 1410.76,708.303 1397.1,704.303 1383.5,700C 1371.37,697.937 1359.37,695.271 1347.5,692C 1309.25,688.591 1270.92,687.591 1232.5,689C 1226.93,690.186 1221.93,692.519 1217.5,696C 1202.5,712.333 1187.5,728.667 1172.5,745C 1163.79,751.359 1154.45,756.692 1144.5,761C 1114.98,771.062 1085.31,780.729 1055.5,790C 1045.66,793.256 1036.32,797.589 1027.5,803C 1022.64,806.533 1019.8,811.366 1019,817.5C 1017.88,859.553 1018.54,901.553 1021,943.5C 1021.67,944.833 1022.33,946.167 1023,947.5C 1034,957.833 1045,968.167 1056,978.5C 1056.5,985.492 1056.67,992.492 1056.5,999.5C 1054.86,999.714 1053.36,999.38 1052,998.5C 1049.55,990.269 1045.55,982.936 1040,976.5C 1039.52,968.375 1035.35,963.209 1027.5,961C 1020.87,960.028 1014.2,959.361 1007.5,959C 998.428,955.643 989.094,953.31 979.5,952C 931.826,951.239 884.159,951.406 836.5,952.5C 836.667,931.497 836.5,910.497 836,889.5C 833.727,883.56 829.727,879.227 824,876.5C 804.484,850.651 781.984,827.817 756.5,808C 748.295,803.149 739.961,798.483 731.5,794C 702.548,792.366 673.548,792.033 644.5,793C 632.833,793.333 621.167,793.667 609.5,794C 594.585,796.06 579.585,797.394 564.5,798C 522.577,806.696 480.91,816.529 439.5,827.5C 439.7,808.148 439.2,788.815 438,769.5C 437.697,767.112 436.863,764.945 435.5,763C 444.079,755.107 454.079,749.773 465.5,747C 471.108,743.724 476.442,740.057 481.5,736C 486.476,735.655 490.309,733.489 493,729.5C 494.3,708.231 494.967,686.897 495,665.5C 495.966,659.87 496.633,654.204 497,648.5C 503.853,637.31 511.853,626.976 521,617.5C 524.968,614.098 529.468,611.598 534.5,610C 539.714,607.453 542.547,603.286 543,597.5C 543.167,580.157 543.667,562.824 544.5,545.5C 575.67,531.915 606.003,516.748 635.5,500C 652.35,493.242 668.35,484.909 683.5,475C 689.752,472.138 696.085,469.472 702.5,467C 707.003,463.245 712.003,460.245 717.5,458C 718.701,457.097 719.535,455.931 720,454.5C 720.667,428.5 720.667,402.5 720,376.5C 719.626,375.584 719.126,374.75 718.5,374C 730.275,370.055 742.275,367.388 754.5,366C 755.667,367.167 756.833,368.333 758,369.5C 758.333,383.167 758.667,396.833 759,410.5C 760.306,415.789 763.139,419.956 767.5,423C 776.834,427.834 786.5,431.834 796.5,435C 842.197,437.345 887.864,436.678 933.5,433C 955.434,429.517 976.767,423.85 997.5,416C 999.068,413.696 1000.24,411.196 1001,408.5C 1011.05,402.781 1018.72,394.781 1024,384.5C 1024.92,381.899 1025.59,379.232 1026,376.5C 1026.67,351.833 1026.67,327.167 1026,302.5C 1025.06,297.113 1022.89,292.28 1019.5,288C 1026.12,286.892 1032.78,286.225 1039.5,286C 1061.17,285.667 1082.83,285.333 1104.5,285C 1119.49,283.113 1134.49,281.113 1149.5,279C 1165.32,278.061 1180.99,277.228 1196.5,276.5 Z"/></g>
</svg>
