<?xml version="1.0" encoding="UTF-8"?>
<!DOCTYPE svg PUBLIC "-//W3C//DTD SVG 1.1//EN" "http://www.w3.org/Graphics/SVG/1.1/DTD/svg11.dtd">
<svg xmlns="http://www.w3.org/2000/svg" version="1.1" width="2296px" height="1221px" style="shape-rendering:geometricPrecision; text-rendering:geometricPrecision; image-rendering:optimizeQuality; fill-rule:evenodd; clip-rule:evenodd" xmlns:xlink="http://www.w3.org/1999/xlink">
<g><path style="opacity:0.967" fill="#48332c" d="M 797.5,137.5 C 813.17,137.333 828.837,137.5 844.5,138C 874.821,140.916 905.154,143.582 935.5,146C 944.955,149.409 948.121,155.909 945,165.5C 931.919,179.244 919.585,193.577 908,208.5C 907.667,215.167 907.333,221.833 907,228.5C 904.215,233.619 900.382,237.786 895.5,241C 885.223,244.153 874.89,247.153 864.5,250C 860.673,251.746 857.007,253.746 853.5,256C 858.553,262.052 863.219,268.385 867.5,275C 878.958,276.692 890.291,279.025 901.5,282C 912.858,282.279 924.192,282.945 935.5,284C 943.001,286.417 950.667,288.084 958.5,289C 962.5,291 966.5,293 970.5,295C 977.381,303.943 976.214,311.777 967,318.5C 968.439,337.695 972.439,356.362 979,374.5C 986.221,381.721 993.387,388.887 1000.5,396C 1004.85,399.673 1009.85,402.006 1015.5,403C 1024.81,403.962 1034.14,404.628 1043.5,405C 1048.39,405.931 1053.22,407.098 1058,408.5C 1070.3,407.067 1081.8,403.234 1092.5,397C 1095.02,395.31 1097.02,393.143 1098.5,390.5C 1095.02,382.145 1094.86,373.811 1098,365.5C 1102.02,361.613 1106.85,359.447 1112.5,359C 1125.68,355.944 1139.02,354.944 1152.5,356C 1193.54,360.637 1234.21,367.304 1274.5,376C 1281.31,382.295 1282.31,389.462 1277.5,397.5C 1278.38,403.018 1279.88,408.351 1282,413.5C 1285.57,416.977 1288.9,420.644 1292,424.5C 1295.99,434.341 1301.83,442.841 1309.5,450C 1310.67,450.167 1311.83,450.333 1313,450.5C 1319.93,449.112 1326.93,448.445 1334,448.5C 1352.26,451.652 1369.76,449.486 1386.5,442C 1388.05,437.631 1389.22,433.131 1390,428.5C 1390.18,422.103 1390.85,415.77 1392,409.5C 1394.45,403.384 1398.95,399.884 1405.5,399C 1429.01,397.236 1452.51,397.403 1476,399.5C 1488.5,398.916 1501,398.75 1513.5,399C 1517.24,400.29 1520.41,402.457 1523,405.5C 1524.72,414.037 1527.22,422.37 1530.5,430.5C 1532.5,430.833 1534.5,431.167 1536.5,431.5C 1547.82,429.892 1559.15,428.392 1570.5,427C 1593.83,426.017 1617.17,425.017 1640.5,424C 1652.13,422.074 1663.8,420.408 1675.5,419C 1692.55,418.784 1709.55,417.784 1726.5,416C 1761.25,406.874 1796.59,401.874 1832.5,401C 1852.08,396.885 1871.41,391.885 1890.5,386C 1906.97,384.477 1913.8,391.977 1911,408.5C 1903.67,420.5 1896.33,432.5 1889,444.5C 1884.16,454.191 1878.83,463.524 1873,472.5C 1871,479.167 1869,485.833 1867,492.5C 1861.87,502.986 1853.37,507.653 1841.5,506.5C 1836.18,505.557 1830.85,505.39 1825.5,506C 1806.65,510.378 1787.99,515.378 1769.5,521C 1766.89,522.938 1765.06,525.438 1764,528.5C 1759.57,541.964 1755.91,555.631 1753,569.5C 1748.9,576.739 1742.74,579.572 1734.5,578C 1722.16,572.997 1709.82,567.997 1697.5,563C 1686.26,561.118 1675.26,558.285 1664.5,554.5C 1659.38,557.973 1654.05,558.306 1648.5,555.5C 1641.73,557.702 1635.06,560.202 1628.5,563C 1619.54,570.295 1610.87,577.962 1602.5,586C 1599.62,587.608 1596.62,588.941 1593.5,590C 1605.6,592.133 1616.1,597.299 1625,605.5C 1631.77,615.697 1630.6,624.697 1621.5,632.5C 1624.65,636.25 1628.65,638.75 1633.5,640C 1642.17,641.9 1650.83,643.733 1659.5,645.5C 1660.86,639.802 1662.36,634.135 1664,628.5C 1666.78,624.388 1670.61,621.888 1675.5,621C 1681.83,620.333 1688.17,620.333 1694.5,621C 1706.77,623.106 1719.11,624.606 1731.5,625.5C 1739.34,623.36 1747.34,622.193 1755.5,622C 1762.41,615.017 1769.74,614.684 1777.5,621C 1786.48,630.311 1794.32,640.478 1801,651.5C 1808.11,662.699 1806.61,672.533 1796.5,681C 1778.01,688.814 1762.34,700.481 1749.5,716C 1744.67,719.252 1739.67,722.252 1734.5,725C 1732.61,727.806 1730.27,730.14 1727.5,732C 1708.83,732.333 1690.17,732.667 1671.5,733C 1665.87,733.741 1660.53,735.407 1655.5,738C 1646.97,745.856 1639.97,754.856 1634.5,765C 1626.79,766.123 1619.63,768.623 1613,772.5C 1611.46,778.52 1609.79,784.52 1608,790.5C 1604.92,797.125 1599.75,800.958 1592.5,802C 1568.15,804.187 1543.82,806.52 1519.5,809C 1514.17,810.333 1508.83,811.667 1503.5,813C 1500.03,813.65 1497.03,815.15 1494.5,817.5C 1487.87,825.925 1483.54,835.425 1481.5,846C 1483.06,853.018 1485.23,859.851 1488,866.5C 1497.32,882.491 1509.49,895.991 1524.5,907C 1530.52,908.006 1536.18,910.006 1541.5,913C 1545,917.005 1549.17,920.171 1554,922.5C 1552.82,902.012 1562.32,892.845 1582.5,895C 1588.29,897.394 1593.95,900.06 1599.5,903C 1615.26,908.42 1631.26,913.087 1647.5,917C 1651.9,918.777 1655.4,921.61 1658,925.5C 1662.14,937.592 1666.47,949.592 1671,961.5C 1684.17,977.668 1696.17,994.668 1707,1012.5C 1709.45,1018.86 1708.79,1024.86 1705,1030.5C 1687.66,1060.33 1667.49,1088.17 1644.5,1114C 1641.21,1116.48 1637.54,1118.14 1633.5,1119C 1611.78,1119.66 1590.78,1115.99 1570.5,1108C 1563.61,1104.11 1558.45,1098.61 1555,1091.5C 1551.46,1088.3 1548.3,1084.8 1545.5,1081C 1535.48,1076.68 1530.98,1069.18 1532,1058.5C 1526.53,1054.03 1521.37,1049.2 1516.5,1044C 1515.17,1043.33 1513.83,1042.67 1512.5,1042C 1504.47,1041.48 1496.47,1041.81 1488.5,1043C 1481.14,1045.22 1473.64,1046.72 1466,1047.5C 1460.42,1047.42 1455.42,1045.75 1451,1042.5C 1442.78,1044.15 1434.61,1045.98 1426.5,1048C 1413.2,1054.96 1402.03,1064.46 1393,1076.5C 1389.78,1082.44 1385.95,1087.94 1381.5,1093C 1376.14,1095.27 1370.64,1097.1 1365,1098.5C 1358.77,1097.43 1354.93,1093.77 1353.5,1087.5C 1343.16,1082.32 1333.5,1076.15 1324.5,1069C 1308,1059.59 1291.67,1049.92 1275.5,1040C 1267.91,1036.98 1260.08,1034.81 1252,1033.5C 1243.69,1036.27 1235.52,1039.44 1227.5,1043C 1213.73,1054.11 1199.39,1064.44 1184.5,1074C 1178.18,1076.37 1172.18,1075.7 1166.5,1072C 1143.53,1049.03 1116.86,1031.7 1086.5,1020C 1074.2,1016.07 1061.86,1012.23 1049.5,1008.5C 1026.44,1018.39 1006.94,1033.06 991,1052.5C 988.139,1056.89 985.806,1061.55 984,1066.5C 976.903,1075.4 968.403,1077.24 958.5,1072C 955.931,1069.52 953.598,1066.85 951.5,1064C 945.138,1059.82 939.138,1055.15 933.5,1050C 895.677,1025.84 858.677,1000.51 822.5,974C 812.833,968.167 803.167,962.333 793.5,956.5C 786.577,966.673 780.41,977.34 775,988.5C 771.667,993.167 768.333,997.833 765,1002.5C 763.686,1011.68 762.686,1020.68 762,1029.5C 760.232,1037.54 755.399,1042.7 747.5,1045C 733.858,1049.46 719.858,1051.79 705.5,1052C 700.479,1053.1 695.479,1054.27 690.5,1055.5C 686.38,1055.07 682.713,1053.57 679.5,1051C 671.284,1041.41 662.951,1031.91 654.5,1022.5C 652.246,1020.08 649.579,1018.25 646.5,1017C 640.212,1015.01 633.878,1013.18 627.5,1011.5C 623.145,1013.02 619.145,1015.19 615.5,1018C 609.704,1018.27 604.037,1019.27 598.5,1021C 594.5,1021.67 590.5,1021.67 586.5,1021C 580.943,1019.22 575.609,1016.89 570.5,1014C 558.616,1012.78 546.949,1010.45 535.5,1007C 522.282,1002.59 508.948,998.594 495.5,995C 486.088,991.755 480.421,985.255 478.5,975.5C 479.641,968.955 481.475,962.622 484,956.5C 485.903,943.749 488.236,931.082 491,918.5C 497.582,898.936 503.915,879.269 510,859.5C 516.529,844.247 522.862,828.914 529,813.5C 530.215,788.491 531.715,763.491 533.5,738.5C 533.642,725.807 528.642,715.641 518.5,708C 513.833,704 509.167,700 504.5,696C 485.195,686.364 467.195,674.697 450.5,661C 444.841,660.004 441.007,656.838 439,651.5C 438.333,646.167 438.333,640.833 439,635.5C 441.878,620.97 443.878,606.303 445,591.5C 448.473,574.613 451.139,557.613 453,540.5C 454.777,531.946 458.444,524.279 464,517.5C 472.799,508.566 480.132,498.566 486,487.5C 495.09,476.754 506.59,471.754 520.5,472.5C 532.198,471.263 543.865,469.763 555.5,468C 567.227,463.202 579.227,459.202 591.5,456C 595.873,454.287 599.707,451.787 603,448.5C 609.83,427.69 612.83,406.357 612,384.5C 609.544,357.675 602.878,332.009 592,307.5C 586.528,302.083 585.195,295.75 588,288.5C 591.143,282.077 594.476,275.744 598,269.5C 606.723,257.776 615.056,245.776 623,233.5C 626.042,230.067 629.542,227.234 633.5,225C 640.227,222.803 646.561,219.803 652.5,216C 682.852,191.813 714.186,168.98 746.5,147.5C 747.648,145.851 748.981,144.351 750.5,143C 766.258,140.647 781.925,138.814 797.5,137.5 Z"/></g>
<g><path style="opacity:1" fill="#aa865b" d="M 885.5,197.5 C 884.207,198.842 883.374,200.509 883,202.5C 882.501,208.157 882.334,213.824 882.5,219.5C 868.337,221.541 855.003,226.041 842.5,233C 828.951,241.565 825.451,253.065 832,267.5C 838.448,276.949 845.282,286.116 852.5,295C 856.048,296.941 859.714,298.607 863.5,300C 871.318,300.838 878.985,302.004 886.5,303.5C 888.515,304.924 890.848,305.59 893.5,305.5C 905.454,306.855 917.454,307.689 929.5,308C 934.521,309.516 939.521,311.016 944.5,312.5C 943.342,321.656 943.342,330.656 944.5,339.5C 944.5,339.833 944.5,340.167 944.5,340.5C 944.398,348.772 945.398,356.772 947.5,364.5C 948.534,374.768 952.034,384.102 958,392.5C 965.833,399 973,406.167 979.5,414C 984.865,418.873 990.865,422.706 997.5,425.5C 1001.08,427.806 1005.08,429.139 1009.5,429.5C 1011.63,430.314 1013.96,430.814 1016.5,431C 1025.49,431.5 1034.49,431.666 1043.5,431.5C 1044.96,431.433 1046.29,431.766 1047.5,432.5C 1051.05,433.984 1054.89,434.651 1059,434.5C 1061.69,434.497 1064.19,434.164 1066.5,433.5C 1072.6,433.594 1078.27,432.261 1083.5,429.5C 1091.77,426.755 1099.77,423.255 1107.5,419C 1121.02,411.469 1127.35,399.969 1126.5,384.5C 1138.15,383.609 1149.81,383.609 1161.5,384.5C 1172.92,386.988 1184.58,388.655 1196.5,389.5C 1197.17,389.5 1197.83,389.5 1198.5,389.5C 1206.33,391.097 1214.33,392.43 1222.5,393.5C 1228.73,394.899 1235.06,396.232 1241.5,397.5C 1245.89,399.246 1250.56,400.246 1255.5,400.5C 1255.59,402.786 1256.26,404.786 1257.5,406.5C 1258.99,418.141 1264.15,427.808 1273,435.5C 1280.35,448.198 1288.68,460.198 1298,471.5C 1300.1,474.467 1302.93,476.3 1306.5,477C 1313.67,476.919 1320.84,476.419 1328,475.5C 1340.82,476.478 1353.66,476.644 1366.5,476C 1379.51,473.891 1391.34,469.057 1402,461.5C 1404.64,456.405 1405.3,451.072 1404,445.5C 1408.52,439.468 1411.68,432.802 1413.5,425.5C 1431.57,423.85 1449.57,424.183 1467.5,426.5C 1469.29,427.309 1471.29,427.809 1473.5,428C 1482.49,428.5 1491.49,428.666 1500.5,428.5C 1502.61,436.386 1506.11,443.719 1511,450.5C 1512.43,452.439 1514.27,453.772 1516.5,454.5C 1516.97,455.906 1517.97,456.573 1519.5,456.5C 1519.83,456.5 1520.17,456.5 1520.5,456.5C 1524.03,458.048 1527.87,458.714 1532,458.5C 1535.02,458.498 1537.85,458.164 1540.5,457.5C 1550.37,455.956 1560.37,454.623 1570.5,453.5C 1586.66,452.986 1602.66,452.319 1618.5,451.5C 1627.85,451.332 1637.18,450.832 1646.5,450C 1669.93,445.321 1693.59,443.321 1717.5,444C 1731.96,441.678 1746.29,438.845 1760.5,435.5C 1765.89,435.876 1770.89,434.876 1775.5,432.5C 1777.38,431.659 1779.38,431.325 1781.5,431.5C 1789.7,431.04 1797.7,430.04 1805.5,428.5C 1815.53,428.699 1825.53,428.366 1835.5,427.5C 1841.22,427.356 1846.89,426.689 1852.5,425.5C 1854.05,425.511 1855.38,425.844 1856.5,426.5C 1843.7,440.105 1835.7,456.105 1832.5,474.5C 1805.1,476.35 1779.1,483.183 1754.5,495C 1748.15,501.536 1742.65,508.703 1738,516.5C 1736.26,520.311 1735.43,524.311 1735.5,528.5C 1726.05,531.094 1716.72,534.094 1707.5,537.5C 1693.27,532.277 1678.61,528.944 1663.5,527.5C 1663.5,525.833 1663.5,524.167 1663.5,522.5C 1654.15,521.932 1644.82,521.099 1635.5,520C 1626.51,512.168 1616.51,505.834 1605.5,501C 1603.74,500.202 1602.07,500.369 1600.5,501.5C 1604.44,506.948 1608.94,511.948 1614,516.5C 1617.09,525.405 1617.25,534.405 1614.5,543.5C 1608.8,544.589 1603.46,546.589 1598.5,549.5C 1594.84,549.723 1591.5,550.723 1588.5,552.5C 1586.5,553.167 1584.5,553.833 1582.5,554.5C 1579.85,554.41 1577.51,555.076 1575.5,556.5C 1572.85,556.41 1570.51,557.076 1568.5,558.5C 1560.67,558.734 1555.34,562.401 1552.5,569.5C 1551.23,578.033 1551.4,586.7 1553,595.5C 1553.52,598.281 1554.69,600.615 1556.5,602.5C 1556.83,603.5 1557.5,604.167 1558.5,604.5C 1558.95,605.458 1559.62,606.292 1560.5,607C 1564.49,607.499 1568.49,607.666 1572.5,607.5C 1573.29,608.794 1574.29,609.961 1575.5,611C 1583.11,613.707 1590.78,616.54 1598.5,619.5C 1595.47,623.361 1592.64,627.361 1590,631.5C 1575.86,632.764 1564.19,638.764 1555,649.5C 1554.16,651.351 1553.33,653.184 1552.5,655C 1538.63,658.841 1524.63,662.175 1510.5,665C 1507.76,667.611 1508.09,669.778 1511.5,671.5C 1512.26,672.268 1513.26,672.768 1514.5,673C 1523.01,673.823 1531.34,673.657 1539.5,672.5C 1547.17,672.179 1554.84,671.679 1562.5,671C 1566.64,669.399 1570.31,667.066 1573.5,664C 1576.3,662.266 1579.3,661.099 1582.5,660.5C 1593.32,664.852 1604.65,666.686 1616.5,666C 1627.81,668.362 1639.14,670.529 1650.5,672.5C 1652.64,673.163 1654.97,673.497 1657.5,673.5C 1661.14,673.685 1664.47,673.019 1667.5,671.5C 1674.59,669.566 1678.76,664.9 1680,657.5C 1681.02,653.56 1681.52,649.56 1681.5,645.5C 1685.86,645.586 1690.19,645.92 1694.5,646.5C 1704.98,648.065 1715.48,649.398 1726,650.5C 1731.93,650.548 1737.77,649.882 1743.5,648.5C 1746.24,655.809 1749.91,662.643 1754.5,669C 1741.72,679.616 1729.72,691.116 1718.5,703.5C 1711.83,703.334 1705.16,703.5 1698.5,704C 1694.26,704.335 1690.26,705.168 1686.5,706.5C 1680.11,707.311 1673.78,708.645 1667.5,710.5C 1660.16,710.334 1652.83,710.5 1645.5,711C 1642.52,711.705 1639.86,712.871 1637.5,714.5C 1626.7,719.168 1621.2,727.501 1621,739.5C 1620.01,740.066 1619.17,740.733 1618.5,741.5C 1614.08,741.861 1610.08,743.194 1606.5,745.5C 1592.29,751.034 1584.63,761.367 1583.5,776.5C 1560.46,777.822 1537.46,779.655 1514.5,782C 1502.13,784.007 1490.47,788.007 1479.5,794C 1472.93,801.818 1466.59,809.818 1460.5,818C 1457.41,819.363 1454.24,820.53 1451,821.5C 1434.44,812.234 1416.6,807.734 1397.5,808C 1390.64,804.043 1383.31,802.376 1375.5,803C 1373.7,803.637 1372.36,804.803 1371.5,806.5C 1373.03,808.193 1374.36,810.027 1375.5,812C 1386.04,818.772 1397.37,823.606 1409.5,826.5C 1412.55,828.101 1415.88,829.101 1419.5,829.5C 1427.03,831.422 1433.86,834.756 1440,839.5C 1441.4,844.039 1443.74,848.039 1447,851.5C 1447.33,854.167 1447.67,856.833 1448,859.5C 1451.31,867.289 1454.48,875.122 1457.5,883C 1457.25,884.326 1456.58,885.326 1455.5,886C 1439.7,889.733 1425.7,896.899 1413.5,907.5C 1416.45,908.655 1419.45,908.821 1422.5,908C 1426.84,906.497 1431.17,904.997 1435.5,903.5C 1438.66,905.194 1442,905.694 1445.5,905C 1450.28,903.444 1454.95,901.61 1459.5,899.5C 1461.54,900.236 1463.54,901.069 1465.5,902C 1468.54,906.588 1471.71,911.088 1475,915.5C 1486.06,925.612 1498.23,934.112 1511.5,941C 1516.53,944.015 1521.86,946.182 1527.5,947.5C 1530.08,949.472 1533.08,950.472 1536.5,950.5C 1545.32,951.657 1554.32,951.824 1563.5,951C 1567.72,949.891 1571.72,948.225 1575.5,946C 1581.37,941.131 1586.87,935.964 1592,930.5C 1605.86,935.174 1620.03,938.674 1634.5,941C 1638.04,948.959 1641.21,957.126 1644,965.5C 1653.46,982.485 1661.96,999.985 1669.5,1018C 1658.85,1037.94 1645.52,1055.94 1629.5,1072C 1628.91,1072.46 1628.24,1072.63 1627.5,1072.5C 1627.08,1071.78 1626.42,1071.28 1625.5,1071C 1620.19,1070.17 1614.86,1069.67 1609.5,1069.5C 1609.17,1069.5 1608.83,1069.5 1608.5,1069.5C 1603.4,1068.04 1598.07,1067.38 1592.5,1067.5C 1582.42,1064.46 1572.75,1060.3 1563.5,1055C 1560.95,1051.96 1558.62,1048.79 1556.5,1045.5C 1556.87,1041.77 1557.54,1038.1 1558.5,1034.5C 1559.83,1032.17 1561.17,1029.83 1562.5,1027.5C 1565.31,1023.24 1564.98,1019.24 1561.5,1015.5C 1558.61,1011.89 1554.95,1009.56 1550.5,1008.5C 1548.49,1007.08 1546.15,1006.41 1543.5,1006.5C 1536.09,1005.85 1528.76,1004.68 1521.5,1003C 1510.6,1001.8 1499.94,1002.8 1489.5,1006C 1488.83,1006.67 1488.17,1007.33 1487.5,1008C 1473.76,1008.95 1460.1,1010.45 1446.5,1012.5C 1443.57,1012.57 1440.91,1013.23 1438.5,1014.5C 1433.25,1014.3 1428.25,1014.97 1423.5,1016.5C 1422.83,1016.5 1422.17,1016.5 1421.5,1016.5C 1415.82,1016.33 1410.16,1016.5 1404.5,1017C 1401.15,1017.06 1398.15,1017.89 1395.5,1019.5C 1388.97,1021.87 1385.13,1026.54 1384,1033.5C 1378.63,1043.01 1373.13,1052.34 1367.5,1061.5C 1339.36,1045.44 1311.36,1029.44 1283.5,1013.5C 1281.49,1012.08 1279.15,1011.41 1276.5,1011.5C 1273.45,1009.9 1270.12,1008.9 1266.5,1008.5C 1266.17,1008.5 1265.83,1008.5 1265.5,1008.5C 1259.37,1005.57 1253.04,1004.91 1246.5,1006.5C 1243.41,1007.21 1240.41,1008.21 1237.5,1009.5C 1232.86,1010.6 1228.52,1012.27 1224.5,1014.5C 1212.61,1019.78 1200.94,1025.61 1189.5,1032C 1186.92,1033.25 1184.26,1033.58 1181.5,1033C 1152.17,1011.17 1120.17,994.335 1085.5,982.5C 1083.49,981.076 1081.15,980.41 1078.5,980.5C 1071.31,978.239 1064.31,975.406 1057.5,972C 1047.56,967.583 1038.56,968.916 1030.5,976C 1026.83,979.667 1023.17,983.333 1019.5,987C 1012.51,990.159 1005.85,993.826 999.5,998C 991.167,1005 982.833,1012 974.5,1019C 970.453,1020.44 966.62,1022.27 963,1024.5C 943.438,1014.26 924.938,1002.43 907.5,989C 895.668,982.252 884.001,975.252 872.5,968C 853.006,958.761 834.673,947.761 817.5,935C 813.312,932.938 808.979,931.271 804.5,930C 796.655,922.661 787.489,918.161 777,916.5C 770.034,916.117 765.034,919.117 762,925.5C 757.266,941.37 751.932,957.036 746,972.5C 740.69,977.969 736.857,984.302 734.5,991.5C 732.928,994.215 731.928,997.215 731.5,1000.5C 731.822,1002.72 731.155,1004.56 729.5,1006C 718.384,1006.3 707.384,1007.3 696.5,1009C 689.668,998.99 680.668,991.823 669.5,987.5C 667.68,985.552 665.346,984.552 662.5,984.5C 651.396,982.784 640.396,982.45 629.5,983.5C 623.824,983.334 618.157,983.501 612.5,984C 611.944,984.383 611.611,984.883 611.5,985.5C 608.054,986.612 606.054,988.945 605.5,992.5C 598.119,989.956 590.452,988.289 582.5,987.5C 582.082,986.778 581.416,986.278 580.5,986C 577.854,985.503 575.187,985.336 572.5,985.5C 554.782,978.975 537.782,970.809 521.5,961C 530.123,936.305 536.79,911.139 541.5,885.5C 543.416,881.837 544.416,877.837 544.5,873.5C 544.325,871.379 544.659,869.379 545.5,867.5C 546.768,865.095 547.435,862.428 547.5,859.5C 548.943,855.385 549.943,851.052 550.5,846.5C 550.575,843.794 550.908,841.127 551.5,838.5C 553.933,829.807 555.267,820.807 555.5,811.5C 557.789,785.487 560.289,759.487 563,733.5C 563.765,724.459 563.431,715.459 562,706.5C 543.482,673.315 518.649,645.815 487.5,624C 483.833,622.333 480.167,620.667 476.5,619C 475.107,617.829 474.273,616.329 474,614.5C 473.333,606.167 473.333,597.833 474,589.5C 477.098,572.555 479.432,555.555 481,538.5C 490.869,528.635 499.203,517.635 506,505.5C 507.833,503.667 509.667,501.833 511.5,500C 521.698,497.934 532.031,496.767 542.5,496.5C 549.185,496.872 555.519,495.872 561.5,493.5C 565.341,491.997 569.341,490.664 573.5,489.5C 577.673,489.333 581.34,488 584.5,485.5C 601.849,481.992 617.182,474.492 630.5,463C 637.676,462.774 642.009,459.274 643.5,452.5C 644.884,447.056 645.55,441.389 645.5,435.5C 645.794,430.739 646.627,426.072 648,421.5C 648.667,414.167 648.667,406.833 648,399.5C 645.304,385.857 642.804,372.19 640.5,358.5C 640.102,354.239 639.102,350.239 637.5,346.5C 637.072,343.215 636.072,340.215 634.5,337.5C 631.176,326.518 626.009,316.518 619,307.5C 617.304,303.275 615.471,299.108 613.5,295C 621.619,281.264 630.119,267.764 639,254.5C 640.833,251.333 643.333,248.833 646.5,247C 659.479,242.003 671.479,235.337 682.5,227C 705.988,207.843 730.322,189.843 755.5,173C 760.072,169.179 763.405,164.512 765.5,159C 780.478,159.62 795.478,160.287 810.5,161C 842.738,164.839 875.072,167.506 907.5,169C 899.162,177.824 891.829,187.324 885.5,197.5 Z"/></g>
<g><path style="opacity:1" fill="#b99f7f" d="M 797.5,198.5 C 800.85,198.335 804.183,198.502 807.5,199C 799.646,203.533 795.48,210.366 795,219.5C 794.333,243.833 794.333,268.167 795,292.5C 795.879,297.136 797.545,301.469 800,305.5C 804.915,312.328 809.581,319.328 814,326.5C 818.088,328.794 822.255,330.961 826.5,333C 838.318,334.564 849.985,336.897 861.5,340C 872.134,341.11 882.801,341.777 893.5,342C 899.315,343.495 904.815,345.662 910,348.5C 908.64,371.67 911.307,394.337 918,416.5C 919.934,420.759 922.268,424.759 925,428.5C 935.335,440.509 947.168,450.675 960.5,459C 964.363,460.732 968.363,462.066 972.5,463C 984.13,464.166 995.797,464.832 1007.5,465C 1009.79,465.822 1012.12,466.489 1014.5,467C 1044.83,467.667 1075.17,467.667 1105.5,467C 1119.3,463.959 1132.3,458.959 1144.5,452C 1149.33,448.5 1153.5,444.333 1157,439.5C 1159.04,434.371 1160.21,429.037 1160.5,423.5C 1167.83,424.285 1175.16,425.118 1182.5,426C 1195.07,429.18 1207.73,431.847 1220.5,434C 1223.46,443.305 1226.96,452.472 1231,461.5C 1239.41,471.976 1247.07,482.976 1254,494.5C 1259.26,499.418 1264.09,504.584 1268.5,510C 1314.17,510.605 1359.84,510.271 1405.5,509C 1416.97,507.18 1427.47,503.013 1437,496.5C 1438.9,490.66 1439.9,484.66 1440,478.5C 1443.32,473.526 1445.82,468.193 1447.5,462.5C 1453.84,462.334 1460.18,462.5 1466.5,463C 1469.2,473.066 1474.2,481.733 1481.5,489C 1483.09,489.862 1484.75,490.529 1486.5,491C 1513.16,491.5 1539.83,491.667 1566.5,491.5C 1566.81,499.087 1566.48,506.587 1565.5,514C 1551.26,518.953 1536.93,523.62 1522.5,528C 1520.38,529.731 1518.88,531.898 1518,534.5C 1517.36,562.887 1517.36,591.221 1518,619.5C 1515.71,621.938 1512.87,623.438 1509.5,624C 1498.42,625.768 1487.42,627.935 1476.5,630.5C 1475.17,655.5 1475.17,680.5 1476.5,705.5C 1479.11,706.23 1481.78,706.73 1484.5,707C 1498.83,707.167 1513.17,707.333 1527.5,707.5C 1546.89,707.55 1566.22,707.05 1585.5,706C 1575.19,708.987 1565.86,713.82 1557.5,720.5C 1552.75,726.331 1549.92,732.997 1549,740.5C 1548.1,741.701 1546.93,742.535 1545.5,743C 1524.81,744.576 1504.14,746.242 1483.5,748C 1469.48,748.753 1456.48,752.753 1444.5,760C 1440.6,765.005 1436.6,769.838 1432.5,774.5C 1427,772.083 1421.34,770.249 1415.5,769C 1391.17,768.333 1366.83,768.333 1342.5,769C 1341.13,769.402 1339.79,769.902 1338.5,770.5C 1338.17,782.5 1337.83,794.5 1337.5,806.5C 1337.35,819.258 1337.85,831.925 1339,844.5C 1354.63,854.228 1371.46,861.061 1389.5,865C 1386.67,867.167 1383.83,869.333 1381,871.5C 1380.5,895.164 1380.33,918.831 1380.5,942.5C 1398.85,942.167 1417.18,942.5 1435.5,943.5C 1441.76,951.466 1449.09,958.3 1457.5,964C 1482.94,965.229 1508.27,967.563 1533.5,971C 1544.42,972.897 1555.09,975.731 1565.5,979.5C 1566.98,978.52 1568.31,977.353 1569.5,976C 1583.49,976.801 1597.49,978.135 1611.5,980C 1615.22,981.1 1618.06,983.266 1620,986.5C 1622.23,991.731 1624.9,996.731 1628,1001.5C 1631.06,1013.98 1627.56,1024.14 1617.5,1032C 1612.64,1034.21 1607.98,1033.88 1603.5,1031C 1598.77,1025.04 1594.94,1018.54 1592,1011.5C 1574.27,996.222 1553.77,986.722 1530.5,983C 1500.31,978.345 1469.98,975.678 1439.5,975C 1424.29,976.042 1409.29,978.375 1394.5,982C 1383.15,982.905 1371.82,983.905 1360.5,985C 1357.9,985.883 1355.73,987.383 1354,989.5C 1353.15,992.601 1351.65,995.268 1349.5,997.5C 1339.87,991.68 1330.2,985.847 1320.5,980C 1311,977.755 1301.67,975.089 1292.5,972C 1265.17,971.333 1237.83,971.333 1210.5,972C 1203.81,975.262 1196.98,978.096 1190,980.5C 1177.35,972.759 1164.19,965.925 1150.5,960C 1129.04,952.303 1107.71,944.303 1086.5,936C 1059.17,935.333 1031.83,935.333 1004.5,936C 996.307,939.595 989.974,945.262 985.5,953C 976.879,956.977 968.546,961.477 960.5,966.5C 946.331,957.917 932.331,949.083 918.5,940C 903.198,931.681 887.865,923.348 872.5,915C 862.906,906.365 851.906,900.032 839.5,896C 833.217,889.723 825.883,885.057 817.5,882C 791.5,881.333 765.5,881.333 739.5,882C 732.369,883.798 727.869,888.298 726,895.5C 723.185,906.131 719.519,916.464 715,926.5C 714.118,929.789 713.452,933.123 713,936.5C 709.133,941.068 705.633,945.901 702.5,951C 693.905,950.087 685.238,949.42 676.5,949C 650.833,948.667 625.167,948.333 599.5,948C 590.833,944 582.167,940 573.5,936C 572.919,935.107 572.585,934.107 572.5,933C 582.473,896.8 588.973,859.966 592,822.5C 592.67,807.434 594.004,792.434 596,777.5C 596.667,742.5 596.667,707.5 596,672.5C 592.837,664.68 588.837,657.347 584,650.5C 576.288,641.79 568.955,632.79 562,623.5C 549.626,610.115 535.793,598.615 520.5,589C 517.978,587.659 515.311,586.826 512.5,586.5C 511.889,581.382 513.056,576.715 516,572.5C 525.861,563.771 533.528,553.438 539,541.5C 541.537,538.628 544.37,536.128 547.5,534C 559.745,532.306 572.079,530.973 584.5,530C 604.859,524.822 624.859,518.488 644.5,511C 654.381,503.978 664.881,498.145 676,493.5C 676.667,492.167 677.333,490.833 678,489.5C 678.333,483.833 678.667,478.167 679,472.5C 680.85,464.583 682.183,456.583 683,448.5C 683.667,423.5 683.667,398.5 683,373.5C 679.907,347.702 674.907,322.368 668,297.5C 671.713,292.576 675.546,287.742 679.5,283C 694.284,276.779 707.951,268.779 720.5,259C 732.121,250.381 743.455,241.381 754.5,232C 766.776,224.056 778.776,215.723 790.5,207C 793.447,204.564 795.78,201.731 797.5,198.5 Z"/></g>
<g><path style="opacity:1" fill="#7b5e44" d="M 885.5,197.5 C 884.088,204.877 883.088,212.211 882.5,219.5C 882.334,213.824 882.501,208.157 883,202.5C 883.374,200.509 884.207,198.842 885.5,197.5 Z"/></g>
<g><path style="opacity:1" fill="#795d44" d="M 886.5,303.5 C 889.152,303.41 891.485,304.076 893.5,305.5C 890.848,305.59 888.515,304.924 886.5,303.5 Z"/></g>
<g><path style="opacity:1" fill="#886a4b" d="M 944.5,312.5 C 944.752,321.309 944.752,330.309 944.5,339.5C 943.342,330.656 943.342,321.656 944.5,312.5 Z"/></g>
<g><path style="opacity:1" fill="#6c513d" d="M 634.5,337.5 C 636.072,340.215 637.072,343.215 637.5,346.5C 635.528,343.916 634.528,340.916 634.5,337.5 Z"/></g>
<g><path style="opacity:1" fill="#785b43" d="M 944.5,340.5 C 945.975,348.302 946.975,356.302 947.5,364.5C 945.398,356.772 944.398,348.772 944.5,340.5 Z"/></g>
<g><path style="opacity:1" fill="#745841" d="M 637.5,346.5 C 639.102,350.239 640.102,354.239 640.5,358.5C 638.584,354.837 637.584,350.837 637.5,346.5 Z"/></g>
<g><path style="opacity:1" fill="#604738" d="M 1161.5,384.5 C 1173.4,385.444 1185.07,387.11 1196.5,389.5C 1184.58,388.655 1172.92,386.988 1161.5,384.5 Z"/></g>
<g><path style="opacity:1" fill="#634a39" d="M 1198.5,389.5 C 1205.87,389.91 1213.21,390.744 1220.5,392C 1221.42,392.278 1222.08,392.778 1222.5,393.5C 1214.33,392.43 1206.33,391.097 1198.5,389.5 Z"/></g>
<g><path style="opacity:1" fill="#70553f" d="M 1241.5,397.5 C 1246.22,397.506 1250.88,398.006 1255.5,399C 1257.11,401.228 1257.78,403.728 1257.5,406.5C 1256.26,404.786 1255.59,402.786 1255.5,400.5C 1250.56,400.246 1245.89,399.246 1241.5,397.5 Z"/></g>
<g><path style="opacity:1" fill="#785b43" d="M 1856.5,426.5 C 1855.38,425.844 1854.05,425.511 1852.5,425.5C 1846.89,426.689 1841.22,427.356 1835.5,427.5C 1842.56,424.887 1849.89,424.22 1857.5,425.5C 1857.38,426.107 1857.04,426.44 1856.5,426.5 Z"/></g>
<g><path style="opacity:1" fill="#6c523d" d="M 997.5,425.5 C 1001.77,426.256 1005.77,427.589 1009.5,429.5C 1005.08,429.139 1001.08,427.806 997.5,425.5 Z"/></g>
<g><path style="opacity:1" fill="#664d3a" d="M 1467.5,426.5 C 1478.67,426.921 1489.67,427.587 1500.5,428.5C 1491.49,428.666 1482.49,428.5 1473.5,428C 1471.29,427.809 1469.29,427.309 1467.5,426.5 Z"/></g>
<g><path style="opacity:1" fill="#836548" d="M 1805.5,428.5 C 1797.7,430.04 1789.7,431.04 1781.5,431.5C 1789.24,429.532 1797.24,428.532 1805.5,428.5 Z"/></g>
<g><path style="opacity:1" fill="#8d6d4d" d="M 1009.5,429.5 C 1021,429.93 1032.33,430.597 1043.5,431.5C 1034.49,431.666 1025.49,431.5 1016.5,431C 1013.96,430.814 1011.63,430.314 1009.5,429.5 Z"/></g>
<g><path style="opacity:1" fill="#8b6b4c" d="M 1083.5,429.5 C 1078.27,432.261 1072.6,433.594 1066.5,433.5C 1071.96,431.802 1077.63,430.469 1083.5,429.5 Z"/></g>
<g><path style="opacity:1" fill="#8c6d4d" d="M 1047.5,432.5 C 1053.8,433.26 1060.14,433.593 1066.5,433.5C 1064.19,434.164 1061.69,434.497 1059,434.5C 1054.89,434.651 1051.05,433.984 1047.5,432.5 Z"/></g>
<g><path style="opacity:1" fill="#90704f" d="M 1775.5,432.5 C 1770.89,434.876 1765.89,435.876 1760.5,435.5C 1765.35,434.342 1770.35,433.342 1775.5,432.5 Z"/></g>
<g><path style="opacity:1" fill="#715640" d="M 645.5,435.5 C 645.55,441.389 644.884,447.056 643.5,452.5C 643.45,446.611 644.116,440.944 645.5,435.5 Z"/></g>
<g><path style="opacity:1" fill="#6b513d" d="M 1618.5,451.5 C 1602.66,452.319 1586.66,452.986 1570.5,453.5C 1572.29,452.691 1574.29,452.191 1576.5,452C 1590.5,451.5 1604.5,451.333 1618.5,451.5 Z"/></g>
<g><path style="opacity:1" fill="#775b43" d="M 1516.5,454.5 C 1518.03,454.427 1519.03,455.094 1519.5,456.5C 1517.97,456.573 1516.97,455.906 1516.5,454.5 Z"/></g>
<g><path style="opacity:1" fill="#7f6246" d="M 1520.5,456.5 C 1527.13,457.331 1533.8,457.664 1540.5,457.5C 1537.85,458.164 1535.02,458.498 1532,458.5C 1527.87,458.714 1524.03,458.048 1520.5,456.5 Z"/></g>
<g><path style="opacity:1" fill="#7e6146" d="M 584.5,485.5 C 581.34,488 577.673,489.333 573.5,489.5C 576.95,487.792 580.617,486.459 584.5,485.5 Z"/></g>
<g><path style="opacity:1" fill="#896a4b" d="M 561.5,493.5 C 555.519,495.872 549.185,496.872 542.5,496.5C 548.659,495.237 554.992,494.237 561.5,493.5 Z"/></g>
<g><path style="opacity:1" fill="#6c523d" d="M 1598.5,549.5 C 1595.5,551.277 1592.16,552.277 1588.5,552.5C 1591.5,550.723 1594.84,549.723 1598.5,549.5 Z"/></g>
<g><path style="opacity:1" fill="#6e533e" d="M 1582.5,554.5 C 1580.49,555.924 1578.15,556.59 1575.5,556.5C 1577.51,555.076 1579.85,554.41 1582.5,554.5 Z"/></g>
<g><path style="opacity:1" fill="#694f3c" d="M 1575.5,556.5 C 1573.49,557.924 1571.15,558.59 1568.5,558.5C 1570.51,557.076 1572.85,556.41 1575.5,556.5 Z"/></g>
<g><path style="opacity:1" fill="#8b6c4c" d="M 1552.5,569.5 C 1551.95,580.761 1553.28,591.761 1556.5,602.5C 1554.69,600.615 1553.52,598.281 1553,595.5C 1551.4,586.7 1551.23,578.033 1552.5,569.5 Z"/></g>
<g><path style="opacity:1" fill="#624938" d="M 1558.5,604.5 C 1563.11,605.974 1567.78,606.974 1572.5,607.5C 1568.49,607.666 1564.49,607.499 1560.5,607C 1559.62,606.292 1558.95,605.458 1558.5,604.5 Z"/></g>
<g><path style="opacity:1" fill="#6e533e" d="M 1681.5,645.5 C 1683.13,644.839 1684.97,644.506 1687,644.5C 1689.87,644.3 1692.37,644.967 1694.5,646.5C 1690.19,645.92 1685.86,645.586 1681.5,645.5 Z"/></g>
<g><path style="opacity:1" fill="#6d523e" d="M 1511.5,671.5 C 1520.81,672.354 1530.14,672.687 1539.5,672.5C 1531.34,673.657 1523.01,673.823 1514.5,673C 1513.26,672.768 1512.26,672.268 1511.5,671.5 Z"/></g>
<g><path style="opacity:1" fill="#846649" d="M 1667.5,671.5 C 1664.47,673.019 1661.14,673.685 1657.5,673.5C 1654.97,673.497 1652.64,673.163 1650.5,672.5C 1656.2,672.625 1661.87,672.292 1667.5,671.5 Z"/></g>
<g><path style="opacity:1" fill="#735741" d="M 1718.5,703.5 C 1707.96,704.35 1697.3,705.35 1686.5,706.5C 1690.26,705.168 1694.26,704.335 1698.5,704C 1705.16,703.5 1711.83,703.334 1718.5,703.5 Z"/></g>
<g><path style="opacity:1" fill="#5f4637" d="M 1667.5,710.5 C 1660.68,711.329 1653.68,711.829 1646.5,712C 1643.65,713.43 1640.65,714.263 1637.5,714.5C 1639.86,712.871 1642.52,711.705 1645.5,711C 1652.83,710.5 1660.16,710.334 1667.5,710.5 Z"/></g>
<g><path style="opacity:1" fill="#624938" d="M 1618.5,741.5 C 1614.77,743.411 1610.77,744.744 1606.5,745.5C 1610.08,743.194 1614.08,741.861 1618.5,741.5 Z"/></g>
<g><path style="opacity:1" fill="#8a6b4c" d="M 555.5,811.5 C 555.267,820.807 553.933,829.807 551.5,838.5C 552.438,829.308 553.771,820.308 555.5,811.5 Z"/></g>
<g><path style="opacity:1" fill="#6c523d" d="M 1409.5,826.5 C 1413.29,826.32 1416.62,827.32 1419.5,829.5C 1415.88,829.101 1412.55,828.101 1409.5,826.5 Z"/></g>
<g><path style="opacity:1" fill="#806347" d="M 550.5,846.5 C 549.943,851.052 548.943,855.385 547.5,859.5C 547.425,854.808 548.425,850.474 550.5,846.5 Z"/></g>
<g><path style="opacity:1" fill="#7a5d44" d="M 547.5,859.5 C 547.435,862.428 546.768,865.095 545.5,867.5C 545.294,864.505 545.96,861.838 547.5,859.5 Z"/></g>
<g><path style="opacity:1" fill="#826448" d="M 544.5,873.5 C 544.416,877.837 543.416,881.837 541.5,885.5C 541.898,881.239 542.898,877.239 544.5,873.5 Z"/></g>
<g><path style="opacity:1" fill="#715640" d="M 1527.5,947.5 C 1530.86,947.69 1533.86,948.69 1536.5,950.5C 1533.08,950.472 1530.08,949.472 1527.5,947.5 Z"/></g>
<g><path style="opacity:1" fill="#7e6146" d="M 1078.5,980.5 C 1081.15,980.41 1083.49,981.076 1085.5,982.5C 1082.85,982.59 1080.51,981.924 1078.5,980.5 Z"/></g>
<g><path style="opacity:1" fill="#674d3b" d="M 629.5,983.5 C 623.634,984.248 617.634,984.914 611.5,985.5C 611.611,984.883 611.944,984.383 612.5,984C 618.157,983.501 623.824,983.334 629.5,983.5 Z"/></g>
<g><path style="opacity:1" fill="#826448" d="M 572.5,985.5 C 575.187,985.336 577.854,985.503 580.5,986C 581.416,986.278 582.082,986.778 582.5,987.5C 578.922,987.451 575.589,986.785 572.5,985.5 Z"/></g>
<g><path style="opacity:1" fill="#6c513d" d="M 662.5,984.5 C 665.346,984.552 667.68,985.552 669.5,987.5C 666.843,987.065 664.509,986.065 662.5,984.5 Z"/></g>
<g><path style="opacity:1" fill="#70553f" d="M 734.5,991.5 C 734.472,994.916 733.472,997.916 731.5,1000.5C 731.928,997.215 732.928,994.215 734.5,991.5 Z"/></g>
<g><path style="opacity:1" fill="#816347" d="M 1246.5,1006.5 C 1253.04,1004.91 1259.37,1005.57 1265.5,1008.5C 1259.27,1006.99 1252.94,1006.33 1246.5,1006.5 Z"/></g>
<g><path style="opacity:1" fill="#87684a" d="M 1543.5,1006.5 C 1546.15,1006.41 1548.49,1007.08 1550.5,1008.5C 1547.85,1008.59 1545.51,1007.92 1543.5,1006.5 Z"/></g>
<g><path style="opacity:1" fill="#795d44" d="M 1266.5,1008.5 C 1270.12,1008.9 1273.45,1009.9 1276.5,1011.5C 1272.79,1011.41 1269.45,1010.41 1266.5,1008.5 Z"/></g>
<g><path style="opacity:1" fill="#674d3b" d="M 1237.5,1009.5 C 1237.39,1010.12 1237.06,1010.62 1236.5,1011C 1232.55,1012.48 1228.55,1013.65 1224.5,1014.5C 1228.52,1012.27 1232.86,1010.6 1237.5,1009.5 Z"/></g>
<g><path style="opacity:1" fill="#785b43" d="M 1276.5,1011.5 C 1279.15,1011.41 1281.49,1012.08 1283.5,1013.5C 1280.85,1013.59 1278.51,1012.92 1276.5,1011.5 Z"/></g>
<g><path style="opacity:1" fill="#735741" d="M 1446.5,1012.5 C 1444.16,1014.04 1441.5,1014.71 1438.5,1014.5C 1440.91,1013.23 1443.57,1012.57 1446.5,1012.5 Z"/></g>
<g><path style="opacity:1" fill="#6d523e" d="M 1438.5,1014.5 C 1433.73,1015.89 1428.73,1016.56 1423.5,1016.5C 1428.25,1014.97 1433.25,1014.3 1438.5,1014.5 Z"/></g>
<g><path style="opacity:1" fill="#735841" d="M 1421.5,1016.5 C 1412.95,1017.32 1404.29,1018.32 1395.5,1019.5C 1398.15,1017.89 1401.15,1017.06 1404.5,1017C 1410.16,1016.5 1415.82,1016.33 1421.5,1016.5 Z"/></g>
<g><path style="opacity:1" fill="#624938" d="M 1561.5,1015.5 C 1564.98,1019.24 1565.31,1023.24 1562.5,1027.5C 1562.69,1023.43 1562.36,1019.43 1561.5,1015.5 Z"/></g>
<g><path style="opacity:1" fill="#7e6146" d="M 1558.5,1034.5 C 1557.54,1038.1 1556.87,1041.77 1556.5,1045.5C 1555.1,1041.54 1555.77,1037.88 1558.5,1034.5 Z"/></g>
<g><path style="opacity:1" fill="#8e6f4e" d="M 1592.5,1067.5 C 1598.07,1067.38 1603.4,1068.04 1608.5,1069.5C 1602.93,1069.62 1597.6,1068.96 1592.5,1067.5 Z"/></g>
<g><path style="opacity:1" fill="#87694a" d="M 1609.5,1069.5 C 1614.86,1069.67 1620.19,1070.17 1625.5,1071C 1626.42,1071.28 1627.08,1071.78 1627.5,1072.5C 1621.31,1071.86 1615.31,1070.86 1609.5,1069.5 Z"/></g>
</svg>
