<?xml version="1.0" encoding="UTF-8"?>
<!DOCTYPE svg PUBLIC "-//W3C//DTD SVG 1.1//EN" "http://www.w3.org/Graphics/SVG/1.1/DTD/svg11.dtd">
<svg xmlns="http://www.w3.org/2000/svg" version="1.1" width="2296px" height="1221px" style="shape-rendering:geometricPrecision; text-rendering:geometricPrecision; image-rendering:optimizeQuality; fill-rule:evenodd; clip-rule:evenodd" xmlns:xlink="http://www.w3.org/1999/xlink">
<g><path style="opacity:0.965" fill="#48332c" d="M 1258.5,1220.5 C 1246.5,1220.5 1234.5,1220.5 1222.5,1220.5C 1219.65,1218.83 1216.49,1217.83 1213,1217.5C 1203.96,1217.98 1195.13,1218.98 1186.5,1220.5C 1183.83,1220.5 1181.17,1220.5 1178.5,1220.5C 1172.15,1219.01 1167.32,1215.34 1164,1209.5C 1162.73,1201.94 1161.23,1194.44 1159.5,1187C 1160.84,1180.16 1162.34,1173.32 1164,1166.5C 1164.67,1162.83 1164.67,1159.17 1164,1155.5C 1156.02,1139.53 1148.02,1123.53 1140,1107.5C 1129.91,1101.54 1119.75,1095.71 1109.5,1090C 1107.65,1088.32 1105.98,1086.48 1104.5,1084.5C 1095.05,1080.61 1085.72,1076.44 1076.5,1072C 1070.85,1067.18 1064.85,1062.84 1058.5,1059C 1034.92,1048.21 1011.59,1036.88 988.5,1025C 974.884,1020.14 960.884,1016.81 946.5,1015C 935.342,1010.75 924.009,1007.09 912.5,1004C 889.836,1004.2 867.17,1004.2 844.5,1004C 841.603,1002.63 838.77,1001.13 836,999.5C 826.474,1000.38 816.974,999.875 807.5,998C 800.804,996.281 797.47,991.948 797.5,985C 801.129,969.744 809.463,957.744 822.5,949C 841.953,939.108 860.953,928.441 879.5,917C 883.741,915.543 888.074,915.209 892.5,916C 895.057,916.685 896.891,918.185 898,920.5C 914.979,912.928 932.146,905.762 949.5,899C 961.72,894.445 971.22,886.612 978,875.5C 984.023,845.759 992.69,816.759 1004,788.5C 1007.18,781.476 1007.18,774.476 1004,767.5C 996.283,758.117 988.949,748.451 982,738.5C 978.759,731.011 974.759,724.011 970,717.5C 962.513,712.346 956.013,706.179 950.5,699C 944.779,696.278 939.945,692.445 936,687.5C 932.084,677.013 935.084,669.346 945,664.5C 951.31,647.493 948.143,632.66 935.5,620C 915.833,607.5 896.167,595 876.5,582.5C 867.658,579.205 858.658,576.372 849.5,574C 820.043,569.442 790.709,564.109 761.5,558C 753.921,557.816 746.421,557.316 739,556.5C 731.046,558.072 723.046,559.405 715,560.5C 706.483,560.996 699.483,557.996 694,551.5C 691.959,547.916 689.792,544.416 687.5,541C 681.667,537.167 675.833,533.333 670,529.5C 667.441,532.349 664.274,533.183 660.5,532C 655.189,527.021 650.189,521.687 645.5,516C 640.198,514.94 634.865,513.94 629.5,513C 626.705,511.207 624.205,509.04 622,506.5C 608.852,485.874 597.519,464.207 588,441.5C 585.732,434.665 586.065,427.998 589,421.5C 596.667,413.167 604.667,405.167 613,397.5C 615.95,392.882 619.284,388.548 623,384.5C 625.221,378.39 628.221,372.723 632,367.5C 638.471,360.275 645.138,353.275 652,346.5C 653,344.833 654,343.167 655,341.5C 654.29,331.933 657.623,324.266 665,318.5C 666.377,316.246 667.877,314.08 669.5,312C 677.657,306.922 686.324,302.922 695.5,300C 716.482,295.256 737.149,289.589 757.5,283C 770.166,280.461 782.166,282.461 793.5,289C 806.682,299.093 819.682,309.426 832.5,320C 838.997,325.085 845.997,329.418 853.5,333C 855.667,335.167 857.833,337.333 860,339.5C 862.806,346.446 866.139,353.112 870,359.5C 874.794,367.59 879.961,375.424 885.5,383C 893.151,386.81 901.317,388.977 910,389.5C 924.487,385.338 938.987,381.172 953.5,377C 965.455,375.527 977.455,374.527 989.5,374C 992.8,359.306 996.967,344.806 1002,330.5C 1004.62,325.884 1008.45,322.717 1013.5,321C 1025.1,319.16 1036.77,317.827 1048.5,317C 1060.5,314.333 1072.5,311.667 1084.5,309C 1105.63,306.756 1126.63,303.756 1147.5,300C 1150.69,297.308 1154.03,294.808 1157.5,292.5C 1164.69,280.101 1171.86,267.767 1179,255.5C 1181.68,239.235 1184.85,223.069 1188.5,207C 1186.8,203.106 1184.97,199.273 1183,195.5C 1176.72,191.554 1170.72,187.221 1165,182.5C 1163.66,179.136 1162.83,175.636 1162.5,172C 1170.5,129.831 1180,87.9981 1191,46.5C 1191.93,34.1165 1193.26,21.7831 1195,9.5C 1196.88,2.4745 1201.38,-0.0255026 1208.5,2C 1219.39,6.87602 1228.55,14.0427 1236,23.5C 1248.61,39.4439 1259.61,56.4439 1269,74.5C 1271.33,75.5 1273,77.1667 1274,79.5C 1278.34,100.487 1279.51,121.653 1277.5,143C 1278.42,154.756 1281.58,165.923 1287,176.5C 1295.93,188.364 1300.93,201.698 1302,216.5C 1309.58,230.048 1317.08,243.548 1324.5,257C 1333.24,259.803 1341.91,262.803 1350.5,266C 1354.24,267.738 1357.41,270.238 1360,273.5C 1364.2,285.756 1368.2,298.089 1372,310.5C 1373.93,314.759 1376.27,318.759 1379,322.5C 1386.73,326.892 1393.89,332.059 1400.5,338C 1406.11,340.139 1411.45,342.806 1416.5,346C 1421.33,350.833 1426.17,355.667 1431,360.5C 1442.42,377.674 1454.09,394.674 1466,411.5C 1468.47,403.958 1470.47,396.291 1472,388.5C 1473.28,383.936 1475.12,379.603 1477.5,375.5C 1471.95,360.934 1468.79,345.934 1468,330.5C 1472.35,317.109 1477.69,304.109 1484,291.5C 1487.16,277.861 1492.49,265.194 1500,253.5C 1501.18,248.457 1502.51,243.457 1504,238.5C 1504.64,235.464 1504.47,232.464 1503.5,229.5C 1503.64,224.531 1505.97,221.031 1510.5,219C 1519.67,218.627 1528.84,218.127 1538,217.5C 1542.53,217.719 1547.03,218.219 1551.5,219C 1554.33,220.5 1556.5,222.667 1558,225.5C 1560.17,233.69 1561.5,242.023 1562,250.5C 1564.2,257.446 1566.2,264.446 1568,271.5C 1570.2,296.183 1572.54,320.85 1575,345.5C 1582.2,378.116 1586.54,411.116 1588,444.5C 1588.61,486.606 1590.95,528.606 1595,570.5C 1595.87,577.596 1597.2,584.596 1599,591.5C 1602.17,596.834 1604.5,602.501 1606,608.5C 1611.16,612.659 1612.83,617.992 1611,624.5C 1605.55,637.669 1595.88,642.002 1582,637.5C 1572.76,639.663 1563.6,639.163 1554.5,636C 1550.34,634.421 1546.34,632.588 1542.5,630.5C 1533.05,634.725 1523.72,639.225 1514.5,644C 1506.35,646.549 1498.35,649.382 1490.5,652.5C 1490.61,656.247 1490.11,659.914 1489,663.5C 1482.73,681.632 1476.07,699.632 1469,717.5C 1457.3,734.514 1445.13,734.68 1432.5,718C 1419.29,709.788 1406.96,700.454 1395.5,690C 1383.28,687.431 1371.28,688.098 1359.5,692C 1362.38,702.041 1364.88,712.207 1367,722.5C 1371.81,732.753 1375.31,743.42 1377.5,754.5C 1394.52,757.672 1410.52,763.506 1425.5,772C 1434.81,786.609 1442.81,801.942 1449.5,818C 1448.72,821.225 1447.39,824.225 1445.5,827C 1435.49,833.34 1425.16,839.173 1414.5,844.5C 1409.98,848.852 1405.32,853.019 1400.5,857C 1388.48,869.549 1376.82,882.383 1365.5,895.5C 1361.36,898.97 1356.52,900.637 1351,900.5C 1336.56,897.961 1322.06,895.794 1307.5,894C 1283.03,884.478 1257.7,880.145 1231.5,881C 1229.42,881.192 1227.42,881.692 1225.5,882.5C 1239.7,899.865 1252.53,918.199 1264,937.5C 1266.83,941 1269.67,944.5 1272.5,948C 1287.58,948.474 1302.58,949.808 1317.5,952C 1332.5,952.333 1347.5,952.667 1362.5,953C 1371.65,955.483 1376.31,961.483 1376.5,971C 1375.48,976.204 1374.31,981.371 1373,986.5C 1370.76,1014.21 1371.1,1041.87 1374,1069.5C 1376.13,1080.39 1378.96,1091.05 1382.5,1101.5C 1382.67,1108.66 1380,1114.5 1374.5,1119C 1367.38,1122.56 1360.05,1125.56 1352.5,1128C 1343.38,1140.38 1332.38,1150.72 1319.5,1159C 1310.08,1171.75 1298.75,1182.42 1285.5,1191C 1279.94,1198.4 1273.27,1204.56 1265.5,1209.5C 1264.9,1210.72 1264.74,1212.05 1265,1213.5C 1262.63,1215.7 1260.46,1218.04 1258.5,1220.5 Z"/></g>
<g><path style="opacity:1" fill="#aa865b" d="M 1340.5,302.5 C 1340.45,308.389 1341.12,314.056 1342.5,319.5C 1341.9,326.289 1344.23,331.789 1349.5,336C 1357.76,339.532 1366.1,342.865 1374.5,346C 1383.94,354.106 1393.94,361.439 1404.5,368C 1407.83,371.667 1411.17,375.333 1414.5,379C 1417.91,379.761 1420.91,381.261 1423.5,383.5C 1434.54,407.468 1444.71,431.801 1454,456.5C 1458.29,465.76 1463.96,466.76 1471,459.5C 1472.62,455.694 1473.45,451.694 1473.5,447.5C 1474.61,445.401 1475.28,443.067 1475.5,440.5C 1477.38,438.947 1478.38,436.947 1478.5,434.5C 1479.91,431.781 1480.58,428.781 1480.5,425.5C 1488.44,410.53 1494.94,394.863 1500,378.5C 1500.67,375.833 1500.67,373.167 1500,370.5C 1496.7,361.646 1493.87,352.646 1491.5,343.5C 1497.89,327.411 1504.22,311.411 1510.5,295.5C 1512.94,290.5 1514.61,285.166 1515.5,279.5C 1518.21,270.022 1521.88,261.022 1526.5,252.5C 1531.74,251.551 1537.07,251.218 1542.5,251.5C 1542.33,255.846 1542.5,260.179 1543,264.5C 1543.28,265.416 1543.78,266.082 1544.5,266.5C 1545.97,271.72 1546.64,277.054 1546.5,282.5C 1546.93,292.167 1547.43,301.833 1548,311.5C 1548.06,314.851 1548.89,317.851 1550.5,320.5C 1551.78,332.48 1552.94,344.48 1554,356.5C 1562.85,399.04 1567.02,442.04 1566.5,485.5C 1566.99,498.329 1567.66,510.996 1568.5,523.5C 1568.5,525.167 1568.5,526.833 1568.5,528.5C 1568.67,534.034 1569.34,539.367 1570.5,544.5C 1571,552.992 1571.67,561.326 1572.5,569.5C 1572.54,573.733 1573.21,577.733 1574.5,581.5C 1574.2,584.059 1574.53,586.393 1575.5,588.5C 1575.29,591.495 1575.96,594.162 1577.5,596.5C 1579.82,601.759 1582.15,607.092 1584.5,612.5C 1584.22,614.778 1582.89,615.945 1580.5,616C 1576.17,616.667 1571.83,616.667 1567.5,616C 1565.42,613.364 1563.09,610.864 1560.5,608.5C 1557.89,607.682 1555.23,607.182 1552.5,607C 1550.42,605.295 1548.09,604.128 1545.5,603.5C 1543.36,602.837 1541.03,602.503 1538.5,602.5C 1534.86,602.315 1531.53,602.981 1528.5,604.5C 1522.83,605.39 1517.5,607.057 1512.5,609.5C 1509.28,609.896 1506.61,611.229 1504.5,613.5C 1501.27,613.676 1498.27,614.343 1495.5,615.5C 1487.67,617.554 1480.01,620.387 1472.5,624C 1471.62,624.708 1470.95,625.542 1470.5,626.5C 1467.83,627.167 1466.17,628.833 1465.5,631.5C 1462.28,637.684 1460.28,644.35 1459.5,651.5C 1457.72,654.505 1456.72,657.838 1456.5,661.5C 1453.96,672.634 1450.63,683.634 1446.5,694.5C 1435.66,683.165 1426.16,670.832 1418,657.5C 1416.06,654.894 1413.56,653.061 1410.5,652C 1404.75,650.904 1398.91,650.404 1393,650.5C 1379.5,651.295 1366,651.462 1352.5,651C 1345.06,648.778 1337.73,646.278 1330.5,643.5C 1329.55,642.848 1328.38,642.514 1327,642.5C 1324.99,642.307 1323.49,642.974 1322.5,644.5C 1320.25,644.916 1318.75,646.249 1318,648.5C 1317.33,651.833 1317.33,655.167 1318,658.5C 1324.54,679.106 1330.87,699.773 1337,720.5C 1342.22,730.689 1346.22,741.356 1349,752.5C 1352.29,759.594 1356.46,766.094 1361.5,772C 1363.5,773 1365.5,774 1367.5,775C 1378.48,777.661 1389.48,780.161 1400.5,782.5C 1402.44,784.163 1404.77,784.829 1407.5,784.5C 1410.1,784.549 1412.27,785.549 1414,787.5C 1415.97,791.943 1417.8,796.443 1419.5,801C 1416.2,803.323 1412.86,805.657 1409.5,808C 1399.83,816.333 1390.83,825.333 1382.5,835C 1367,841.908 1352.67,850.574 1339.5,861C 1337.43,862.542 1335.43,862.709 1333.5,861.5C 1329.49,859.579 1325.16,858.412 1320.5,858C 1314.51,857.501 1308.51,857.334 1302.5,857.5C 1284.91,854.512 1267.24,853.845 1249.5,855.5C 1240.78,857.293 1231.94,858.293 1223,858.5C 1207.84,857.533 1192.67,857.367 1177.5,858C 1176.62,858.708 1175.95,859.542 1175.5,860.5C 1173.12,861.512 1172.12,863.345 1172.5,866C 1172.31,868.008 1172.97,869.508 1174.5,870.5C 1184.62,881.982 1194.79,893.649 1205,905.5C 1227.21,926.066 1247.04,948.4 1264.5,972.5C 1266.41,974.562 1268.74,976.062 1271.5,977C 1275.49,977.499 1279.49,977.666 1283.5,977.5C 1283.83,977.5 1284.17,977.5 1284.5,977.5C 1290.98,978.598 1297.65,979.265 1304.5,979.5C 1306.5,979.5 1308.5,979.5 1310.5,979.5C 1315.27,980.889 1320.27,981.556 1325.5,981.5C 1326.92,982.451 1328.59,982.784 1330.5,982.5C 1334.13,1005.67 1335.46,1029.01 1334.5,1052.5C 1333.53,1060.15 1332.86,1067.99 1332.5,1076C 1332.5,1078.69 1332.84,1081.19 1333.5,1083.5C 1333.82,1087.52 1333.98,1091.52 1334,1095.5C 1322.85,1101.98 1312.85,1109.98 1304,1119.5C 1290.18,1135.65 1277.51,1152.65 1266,1170.5C 1260.45,1176.05 1254.95,1181.55 1249.5,1187C 1240.76,1187.33 1232.1,1188.17 1223.5,1189.5C 1212.82,1189.95 1202.15,1190.61 1191.5,1191.5C 1191.5,1190.5 1191.5,1189.5 1191.5,1188.5C 1193.51,1185.13 1194.51,1181.46 1194.5,1177.5C 1195.6,1163.99 1195.6,1150.33 1194.5,1136.5C 1194.5,1136.17 1194.5,1135.83 1194.5,1135.5C 1195.16,1133.87 1195.49,1132.03 1195.5,1130C 1195.64,1126.85 1194.97,1124.02 1193.5,1121.5C 1191.5,1115.17 1188.67,1109.17 1185,1103.5C 1177.53,1095.03 1169.7,1086.86 1161.5,1079C 1141.72,1063.89 1121.39,1049.56 1100.5,1036C 1084.11,1029.31 1068.45,1021.31 1053.5,1012C 1040.53,1007.35 1028.2,1001.35 1016.5,994C 1007.12,989.928 997.451,986.761 987.5,984.5C 984.466,982.982 981.133,982.149 977.5,982C 970.823,981.547 964.156,981.047 957.5,980.5C 951.727,980.038 946.061,979.038 940.5,977.5C 936.796,975.909 932.796,975.076 928.5,975C 916.171,974.5 903.838,974.333 891.5,974.5C 882.855,970.618 873.855,967.952 864.5,966.5C 864.167,965.833 863.833,965.167 863.5,964.5C 873.043,960.229 882.71,956.229 892.5,952.5C 899.363,950.547 906.03,948.213 912.5,945.5C 927.853,938.162 943.52,931.328 959.5,925C 989.253,909.921 1013.42,888.421 1032,860.5C 1039.09,836.365 1042.59,811.698 1042.5,786.5C 1041.95,779.629 1040.45,772.962 1038,766.5C 1033.31,758.422 1028.14,750.756 1022.5,743.5C 1021.14,736.085 1018.81,729.085 1015.5,722.5C 1012.88,712.594 1007.71,704.261 1000,697.5C 998.333,693.5 996.667,689.5 995,685.5C 989.333,681.167 983.667,676.833 978,672.5C 978.695,668.073 980.029,663.74 982,659.5C 984.308,646.035 981.641,633.701 974,622.5C 970.947,619.113 968.28,615.447 966,611.5C 943.055,590.558 917.888,572.725 890.5,558C 879.357,552.854 868.024,548.187 856.5,544C 828.916,536.749 800.916,532.083 772.5,530C 751.793,527.394 731.793,529.894 712.5,537.5C 712.283,533.015 710.783,529.015 708,525.5C 689.915,507.456 669.248,493.123 646,482.5C 639.235,468.98 633.069,455.314 627.5,441.5C 627.364,436.054 628.031,430.72 629.5,425.5C 637.143,418.018 644.31,410.018 651,401.5C 660.371,393.797 668.704,385.13 676,375.5C 677.413,372.339 679.08,369.339 681,366.5C 681.75,356.506 682.416,346.506 683,336.5C 683.613,331.067 686.447,327.734 691.5,326.5C 694.228,326.829 696.562,326.163 698.5,324.5C 699.209,323.596 700.209,323.263 701.5,323.5C 705.8,323.281 709.8,322.281 713.5,320.5C 716.781,320.58 719.781,319.913 722.5,318.5C 727.68,316.858 733.014,315.858 738.5,315.5C 744.212,315.224 749.545,313.89 754.5,311.5C 760.711,309.899 767.044,309.232 773.5,309.5C 779.095,311.297 784.095,314.13 788.5,318C 802.302,330.808 816.969,342.474 832.5,353C 835.101,353.92 837.768,354.587 840.5,355C 847.381,366.593 853.881,378.426 860,390.5C 864.608,398.441 871.108,404.275 879.5,408C 892.861,412.815 906.528,414.148 920.5,412C 931.651,407.757 942.984,404.09 954.5,401C 968.45,399.169 982.45,397.835 996.5,397C 1006.75,393.324 1010.92,386.158 1009,375.5C 1016.37,367.289 1021.87,357.956 1025.5,347.5C 1047.61,345.544 1069.28,341.544 1090.5,335.5C 1094.39,335.354 1098.05,334.687 1101.5,333.5C 1105.46,333.749 1109.12,333.082 1112.5,331.5C 1116.53,331.483 1120.2,330.483 1123.5,328.5C 1135.34,324.251 1147.01,319.418 1158.5,314C 1169.57,315.633 1177.24,311.299 1181.5,301C 1193.18,296.99 1199.01,288.823 1199,276.5C 1202.67,265.167 1206.33,253.833 1210,242.5C 1212.69,229.957 1213.69,217.29 1213,204.5C 1210.29,195.405 1207.29,186.405 1204,177.5C 1202.51,171.542 1201.34,165.542 1200.5,159.5C 1200.48,151.149 1200.81,142.816 1201.5,134.5C 1201.5,134.167 1201.5,133.833 1201.5,133.5C 1203.22,126.739 1204.22,119.739 1204.5,112.5C 1206.35,82.8277 1208.35,53.1611 1210.5,23.5C 1220.25,33.413 1229.08,44.0796 1237,55.5C 1243.92,66.3337 1250.58,77.3337 1257,88.5C 1260.42,108.862 1260.26,129.195 1256.5,149.5C 1256.86,153.517 1257.36,157.517 1258,161.5C 1263.98,177.8 1271.32,193.466 1280,208.5C 1280.05,214.351 1281.05,220.017 1283,225.5C 1287.97,233.48 1292.97,241.48 1298,249.5C 1301.54,257.486 1304.87,265.486 1308,273.5C 1317.02,281.096 1327.19,286.763 1338.5,290.5C 1339.17,294.647 1339.83,298.647 1340.5,302.5 Z"/></g>
<g><path style="opacity:1" fill="#624938" d="M 1204.5,112.5 C 1204.22,119.739 1203.22,126.739 1201.5,133.5C 1201.78,126.261 1202.78,119.261 1204.5,112.5 Z"/></g>
<g><path style="opacity:1" fill="#604738" d="M 1201.5,134.5 C 1200.81,142.816 1200.48,151.149 1200.5,159.5C 1199.84,156.686 1199.5,153.686 1199.5,150.5C 1199.43,144.932 1200.1,139.599 1201.5,134.5 Z"/></g>
<g><path style="opacity:1" fill="#977652" d="M 1544.5,266.5 C 1543.78,266.082 1543.28,265.416 1543,264.5C 1542.5,260.179 1542.33,255.846 1542.5,251.5C 1537.07,251.218 1531.74,251.551 1526.5,252.5C 1531.74,250.55 1537.4,249.883 1543.5,250.5C 1543.39,255.87 1543.73,261.203 1544.5,266.5 Z"/></g>
<g><path style="opacity:1" fill="#b99f7f" d="M 1246.5,256.5 C 1247.38,256.369 1248.04,256.702 1248.5,257.5C 1254.81,270.784 1261.64,283.784 1269,296.5C 1269.44,303.541 1272.61,309.041 1278.5,313C 1287.71,316.525 1296.55,320.691 1305,325.5C 1305.93,337.243 1307.43,348.91 1309.5,360.5C 1309.76,363.028 1310.6,365.361 1312,367.5C 1319.62,372.225 1327.79,375.725 1336.5,378C 1346.66,387.16 1357.66,395.16 1369.5,402C 1372.32,404.638 1374.65,407.638 1376.5,411C 1381.36,412.393 1385.53,414.893 1389,418.5C 1400.94,444.536 1412.44,470.703 1423.5,497C 1449.83,497.667 1476.17,497.667 1502.5,497C 1504.32,495.2 1505.48,493.034 1506,490.5C 1506.32,483.852 1508.32,477.852 1512,472.5C 1512.77,468.853 1513.44,465.186 1514,461.5C 1519.51,451.632 1523.84,441.299 1527,430.5C 1529.73,444.943 1531.4,459.61 1532,474.5C 1532.86,505.838 1533.7,537.171 1534.5,568.5C 1510.89,565.268 1488.56,569.101 1467.5,580C 1456.08,581.475 1445.41,585.141 1435.5,591C 1434.33,592.167 1433.17,593.333 1432,594.5C 1429.21,601.648 1427.05,608.981 1425.5,616.5C 1410.83,616.667 1396.16,616.5 1381.5,616C 1376.83,614 1372.17,612 1367.5,610C 1340.83,609.333 1314.17,609.333 1287.5,610C 1285.33,610.833 1283.83,612.333 1283,614.5C 1282.33,639.833 1282.33,665.167 1283,690.5C 1290.06,711.69 1296.73,733.023 1303,754.5C 1304.81,759.446 1307.14,764.112 1310,768.5C 1312.75,780.762 1317.09,792.429 1323,803.5C 1325.41,805.62 1327.91,807.62 1330.5,809.5C 1324.83,813 1319.17,816.5 1313.5,820C 1257.14,820.199 1200.81,821.199 1144.5,823C 1142.71,823.785 1141.21,824.951 1140,826.5C 1138.86,839.767 1138.36,853.101 1138.5,866.5C 1138.67,878.833 1138.83,891.167 1139,903.5C 1157.44,926.95 1177.77,948.95 1200,969.5C 1210.53,982.06 1220.69,994.894 1230.5,1008C 1231.83,1008.67 1233.17,1009.33 1234.5,1010C 1254.57,1011.38 1274.57,1013.38 1294.5,1016C 1295.33,1016.83 1296.17,1017.67 1297,1018.5C 1299.41,1032.74 1300.07,1047.07 1299,1061.5C 1287.2,1067.91 1276.87,1076.25 1268,1086.5C 1254.6,1102.96 1241.94,1119.96 1230,1137.5C 1229.67,1121.83 1229.33,1106.17 1229,1090.5C 1226.32,1081.5 1222.32,1073.17 1217,1065.5C 1210.87,1058.36 1204.37,1051.53 1197.5,1045C 1183.3,1035.73 1169.63,1025.73 1156.5,1015C 1149.17,1010.33 1141.83,1005.67 1134.5,1001C 1119.38,994.545 1104.72,987.211 1090.5,979C 1078.55,975.525 1067.55,970.192 1057.5,963C 1043.43,955.309 1028.43,950.642 1012.5,949C 1035.84,934.661 1054.01,915.494 1067,891.5C 1069.33,880.183 1071.66,868.85 1074,857.5C 1076.39,820.932 1077.06,784.266 1076,747.5C 1074.8,741.691 1073.13,736.024 1071,730.5C 1066.75,722.321 1061.75,714.654 1056,707.5C 1052.68,694.185 1047.68,681.519 1041,669.5C 1039.04,666.537 1036.71,663.871 1034,661.5C 1032.33,657.5 1030.67,653.5 1029,649.5C 1024.82,646.743 1020.82,643.743 1017,640.5C 1016.85,627.797 1016.18,615.131 1015,602.5C 1013.33,598.5 1011.67,594.5 1010,590.5C 1006.18,586.186 1002.84,581.519 1000,576.5C 991.112,568.311 981.946,560.478 972.5,553C 959.167,544.333 945.833,535.667 932.5,527C 914.885,518.359 896.551,511.692 877.5,507C 833.717,497.437 789.384,493.271 744.5,494.5C 743.197,492.032 741.697,489.699 740,487.5C 722.95,471.051 703.45,458.217 681.5,449C 680.257,447.846 679.257,446.512 678.5,445C 686.667,435.5 695.5,426.667 705,418.5C 709.657,412.852 712.991,406.518 715,399.5C 715.333,390.5 715.667,381.5 716,372.5C 716.996,366.841 720.162,363.007 725.5,361C 734.491,357.252 743.824,354.752 753.5,353.5C 767.332,364.492 781.332,375.325 795.5,386C 798.246,387.75 801.246,388.75 804.5,389C 812.965,402.091 820.798,415.591 828,429.5C 838.271,439.218 850.438,445.052 864.5,447C 894.167,447.667 923.833,447.667 953.5,447C 964.392,442.722 975.392,438.722 986.5,435C 989.877,434.548 993.211,433.882 996.5,433C 1007.86,432.721 1019.19,432.055 1030.5,431C 1041.53,428.658 1046.03,421.825 1044,410.5C 1051.08,402.345 1056.08,393.011 1059,382.5C 1059.9,381.299 1061.07,380.465 1062.5,380C 1072.58,379.819 1082.58,378.819 1092.5,377C 1111.27,371.891 1130.27,367.891 1149.5,365C 1164.1,361.244 1178.1,355.91 1191.5,349C 1203.07,351.058 1211.24,346.891 1216,336.5C 1219.42,334.208 1222.92,332.041 1226.5,330C 1227.79,328.59 1228.95,327.09 1230,325.5C 1233.08,309.84 1237.42,294.507 1243,279.5C 1244.59,271.889 1245.75,264.222 1246.5,256.5 Z"/></g>
<g><path style="opacity:1" fill="#8e6e4e" d="M 1515.5,279.5 C 1514.61,285.166 1512.94,290.5 1510.5,295.5C 1511.39,289.834 1513.06,284.5 1515.5,279.5 Z"/></g>
<g><path style="opacity:1" fill="#977652" d="M 1546.5,282.5 C 1547.83,295.031 1549.17,307.698 1550.5,320.5C 1548.89,317.851 1548.06,314.851 1548,311.5C 1547.43,301.833 1546.93,292.167 1546.5,282.5 Z"/></g>
<g><path style="opacity:1" fill="#604737" d="M 1340.5,302.5 C 1341.88,307.944 1342.55,313.611 1342.5,319.5C 1341.12,314.056 1340.45,308.389 1340.5,302.5 Z"/></g>
<g><path style="opacity:1" fill="#91714f" d="M 773.5,309.5 C 767.044,309.232 760.711,309.899 754.5,311.5C 760.609,308.492 766.942,307.826 773.5,309.5 Z"/></g>
<g><path style="opacity:1" fill="#846649" d="M 754.5,311.5 C 749.545,313.89 744.212,315.224 738.5,315.5C 743.564,313.548 748.897,312.215 754.5,311.5 Z"/></g>
<g><path style="opacity:1" fill="#785b43" d="M 722.5,318.5 C 719.781,319.913 716.781,320.58 713.5,320.5C 716.219,319.087 719.219,318.42 722.5,318.5 Z"/></g>
<g><path style="opacity:1" fill="#7d6045" d="M 713.5,320.5 C 709.8,322.281 705.8,323.281 701.5,323.5C 705.163,321.584 709.163,320.584 713.5,320.5 Z"/></g>
<g><path style="opacity:1" fill="#856749" d="M 698.5,324.5 C 696.562,326.163 694.228,326.829 691.5,326.5C 693.515,325.076 695.848,324.41 698.5,324.5 Z"/></g>
<g><path style="opacity:1" fill="#775b42" d="M 1123.5,328.5 C 1120.2,330.483 1116.53,331.483 1112.5,331.5C 1115.85,329.742 1119.52,328.742 1123.5,328.5 Z"/></g>
<g><path style="opacity:1" fill="#70553f" d="M 1112.5,331.5 C 1109.12,333.082 1105.46,333.749 1101.5,333.5C 1104.95,332.313 1108.61,331.646 1112.5,331.5 Z"/></g>
<g><path style="opacity:1" fill="#694f3c" d="M 1101.5,333.5 C 1098.05,334.687 1094.39,335.354 1090.5,335.5C 1093.88,333.918 1097.54,333.251 1101.5,333.5 Z"/></g>
<g><path style="opacity:1" fill="#644b39" d="M 629.5,425.5 C 628.031,430.72 627.364,436.054 627.5,441.5C 626.359,438.36 626.192,435.027 627,431.5C 627.24,429.148 628.073,427.148 629.5,425.5 Z"/></g>
<g><path style="opacity:1" fill="#6a503c" d="M 1480.5,425.5 C 1480.58,428.781 1479.91,431.781 1478.5,434.5C 1478.42,431.219 1479.09,428.219 1480.5,425.5 Z"/></g>
<g><path style="opacity:1" fill="#6a503c" d="M 1475.5,440.5 C 1475.28,443.067 1474.61,445.401 1473.5,447.5C 1473.17,444.772 1473.84,442.438 1475.5,440.5 Z"/></g>
<g><path style="opacity:1" fill="#6b513d" d="M 1566.5,485.5 C 1567.29,486.609 1567.79,487.942 1568,489.5C 1568.5,500.828 1568.67,512.162 1568.5,523.5C 1567.66,510.996 1566.99,498.329 1566.5,485.5 Z"/></g>
<g><path style="opacity:1" fill="#604737" d="M 1568.5,528.5 C 1570.08,533.583 1570.75,538.916 1570.5,544.5C 1569.34,539.367 1568.67,534.034 1568.5,528.5 Z"/></g>
<g><path style="opacity:1" fill="#6b503d" d="M 1572.5,569.5 C 1573.99,573.236 1574.66,577.236 1574.5,581.5C 1573.21,577.733 1572.54,573.733 1572.5,569.5 Z"/></g>
<g><path style="opacity:1" fill="#755942" d="M 1575.5,588.5 C 1576.77,590.905 1577.43,593.572 1577.5,596.5C 1575.96,594.162 1575.29,591.495 1575.5,588.5 Z"/></g>
<g><path style="opacity:1" fill="#6a503c" d="M 1545.5,603.5 C 1539.8,603.375 1534.13,603.708 1528.5,604.5C 1531.53,602.981 1534.86,602.315 1538.5,602.5C 1541.03,602.503 1543.36,602.837 1545.5,603.5 Z"/></g>
<g><path style="opacity:1" fill="#6d523e" d="M 1528.5,604.5 C 1523.5,606.943 1518.17,608.61 1512.5,609.5C 1517.5,607.057 1522.83,605.39 1528.5,604.5 Z"/></g>
<g><path style="opacity:1" fill="#6d533e" d="M 1504.5,613.5 C 1501.83,615.118 1498.83,615.785 1495.5,615.5C 1498.27,614.343 1501.27,613.676 1504.5,613.5 Z"/></g>
<g><path style="opacity:1" fill="#674d3b" d="M 1470.5,626.5 C 1469.17,628.5 1467.5,630.167 1465.5,631.5C 1466.17,628.833 1467.83,627.167 1470.5,626.5 Z"/></g>
<g><path style="opacity:1" fill="#735740" d="M 1330.5,643.5 C 1327.76,643.401 1325.1,643.735 1322.5,644.5C 1323.49,642.974 1324.99,642.307 1327,642.5C 1328.38,642.514 1329.55,642.848 1330.5,643.5 Z"/></g>
<g><path style="opacity:1" fill="#694f3c" d="M 1459.5,651.5 C 1459.28,655.162 1458.28,658.495 1456.5,661.5C 1456.72,657.838 1457.72,654.505 1459.5,651.5 Z"/></g>
<g><path style="opacity:1" fill="#6c523d" d="M 1015.5,722.5 C 1018.81,729.085 1021.14,736.085 1022.5,743.5C 1019.59,736.767 1017.26,729.767 1015.5,722.5 Z"/></g>
<g><path style="opacity:1" fill="#86674a" d="M 1400.5,782.5 C 1403.07,782.721 1405.4,783.388 1407.5,784.5C 1404.77,784.829 1402.44,784.163 1400.5,782.5 Z"/></g>
<g><path style="opacity:1" fill="#816348" d="M 1249.5,855.5 C 1267.24,853.845 1284.91,854.512 1302.5,857.5C 1284.88,855.905 1267.21,855.239 1249.5,855.5 Z"/></g>
<g><path style="opacity:1" fill="#8d6e4d" d="M 1302.5,857.5 C 1308.51,857.334 1314.51,857.501 1320.5,858C 1325.16,858.412 1329.49,859.579 1333.5,861.5C 1323.08,859.828 1312.74,858.495 1302.5,857.5 Z"/></g>
<g><path style="opacity:1" fill="#5f4637" d="M 1175.5,860.5 C 1174.68,863.764 1174.34,867.098 1174.5,870.5C 1172.97,869.508 1172.31,868.008 1172.5,866C 1172.12,863.345 1173.12,861.512 1175.5,860.5 Z"/></g>
<g><path style="opacity:1" fill="#92724f" d="M 912.5,945.5 C 906.03,948.213 899.363,950.547 892.5,952.5C 898.669,948.998 905.335,946.665 912.5,945.5 Z"/></g>
<g><path style="opacity:1" fill="#8b6c4c" d="M 891.5,974.5 C 903.838,974.333 916.171,974.5 928.5,975C 932.796,975.076 936.796,975.909 940.5,977.5C 924.038,976.22 907.704,975.22 891.5,974.5 Z"/></g>
<g><path style="opacity:1" fill="#654b3a" d="M 1264.5,972.5 C 1267.27,973.437 1269.94,974.604 1272.5,976C 1276.36,976.177 1280.02,976.677 1283.5,977.5C 1279.49,977.666 1275.49,977.499 1271.5,977C 1268.74,976.062 1266.41,974.562 1264.5,972.5 Z"/></g>
<g><path style="opacity:1" fill="#5f4637" d="M 1284.5,977.5 C 1290.84,977.334 1297.18,977.5 1303.5,978C 1304.06,978.383 1304.39,978.883 1304.5,979.5C 1297.65,979.265 1290.98,978.598 1284.5,977.5 Z"/></g>
<g><path style="opacity:1" fill="#644a39" d="M 1310.5,979.5 C 1315.73,979.444 1320.73,980.111 1325.5,981.5C 1320.27,981.556 1315.27,980.889 1310.5,979.5 Z"/></g>
<g><path style="opacity:1" fill="#987753" d="M 957.5,980.5 C 964.156,981.047 970.823,981.547 977.5,982C 981.133,982.149 984.466,982.982 987.5,984.5C 977.289,983.699 967.289,982.365 957.5,980.5 Z"/></g>
<g><path style="opacity:1" fill="#604737" d="M 1334.5,1052.5 C 1334.41,1062.84 1334.08,1073.18 1333.5,1083.5C 1332.84,1081.19 1332.5,1078.69 1332.5,1076C 1332.86,1067.99 1333.53,1060.15 1334.5,1052.5 Z"/></g>
<g><path style="opacity:1" fill="#684e3b" d="M 1193.5,1121.5 C 1194.97,1124.02 1195.64,1126.85 1195.5,1130C 1195.49,1132.03 1195.16,1133.87 1194.5,1135.5C 1194.56,1130.8 1194.23,1126.13 1193.5,1121.5 Z"/></g>
<g><path style="opacity:1" fill="#634a39" d="M 1194.5,1136.5 C 1195.6,1150.33 1195.6,1163.99 1194.5,1177.5C 1193.85,1163.66 1193.85,1150 1194.5,1136.5 Z"/></g>
<g><path style="opacity:1" fill="#5d4536" d="M 1191.5,1188.5 C 1191.5,1189.5 1191.5,1190.5 1191.5,1191.5C 1202.15,1190.61 1212.82,1189.95 1223.5,1189.5C 1222.74,1190.27 1221.74,1190.77 1220.5,1191C 1210.51,1191.83 1200.51,1192.33 1190.5,1192.5C 1190.23,1190.9 1190.57,1189.57 1191.5,1188.5 Z"/></g>
</svg>
