<?xml version="1.0" encoding="UTF-8"?>
<!DOCTYPE svg PUBLIC "-//W3C//DTD SVG 1.1//EN" "http://www.w3.org/Graphics/SVG/1.1/DTD/svg11.dtd">
<svg xmlns="http://www.w3.org/2000/svg" version="1.1" width="2296px" height="1221px" style="shape-rendering:geometricPrecision; text-rendering:geometricPrecision; image-rendering:optimizeQuality; fill-rule:evenodd; clip-rule:evenodd" xmlns:xlink="http://www.w3.org/1999/xlink">
<g><path style="opacity:0.967" fill="#48332c" d="M 1297.5,3.5 C 1305.06,3.73927 1307.39,7.40594 1304.5,14.5C 1305.98,19.7658 1307.15,25.0991 1308,30.5C 1308.9,44.8487 1309.9,59.182 1311,73.5C 1314.31,84.4471 1318.97,94.7804 1325,104.5C 1326,108.431 1326.5,112.431 1326.5,116.5C 1325.84,126.29 1324.34,135.957 1322,145.5C 1317.92,161.08 1314.25,176.747 1311,192.5C 1306.21,228.554 1302.71,264.72 1300.5,301C 1300.59,302.107 1300.92,303.107 1301.5,304C 1310.63,309.068 1319.63,314.401 1328.5,320C 1333.54,323.75 1335.88,328.75 1335.5,335C 1335.46,338.57 1334.96,342.07 1334,345.5C 1330.61,353.681 1327.61,362.014 1325,370.5C 1319.67,395.003 1313.17,419.169 1305.5,443C 1312.45,458.949 1323.78,470.616 1339.5,478C 1356.72,492.554 1375.06,505.554 1394.5,517C 1399.14,521.11 1401.47,526.276 1401.5,532.5C 1398.98,550.41 1395.32,568.077 1390.5,585.5C 1392.35,588.202 1393.51,591.202 1394,594.5C 1395.74,608.803 1396.74,623.137 1397,637.5C 1394.49,646.185 1388.65,650.685 1379.5,651C 1368.64,662.197 1357.47,673.03 1346,683.5C 1344.99,685.534 1344.49,687.7 1344.5,690C 1344.98,697.552 1345.81,705.052 1347,712.5C 1347.42,715.133 1348.59,717.299 1350.5,719C 1360.76,721.631 1370.43,725.631 1379.5,731C 1386.82,732.141 1393.82,731.141 1400.5,728C 1416.24,718.465 1432.24,709.465 1448.5,701C 1452.17,700.333 1455.83,700.333 1459.5,701C 1475.82,705.943 1492.49,708.943 1509.5,710C 1516.04,711.969 1522.71,713.303 1529.5,714C 1536.08,715.959 1539.08,720.459 1538.5,727.5C 1544,731.507 1545.83,736.84 1544,743.5C 1542.94,746.618 1541.61,749.618 1540,752.5C 1536,757.833 1532,763.167 1528,768.5C 1514.3,782.529 1500.3,796.196 1486,809.5C 1486.17,829.523 1487.17,849.523 1489,869.5C 1489.62,874.495 1490.79,879.328 1492.5,884C 1513.39,890.026 1532.22,899.859 1549,913.5C 1552.06,917.29 1553.73,921.623 1554,926.5C 1562.42,942.844 1567.42,960.177 1569,978.5C 1570.54,984.755 1573.04,990.588 1576.5,996C 1566.48,997.259 1556.31,998.092 1546,998.5C 1541.26,996.551 1536.43,994.718 1531.5,993C 1523.49,992.332 1515.49,991.999 1507.5,992C 1491.37,995.564 1477.04,1002.56 1464.5,1013C 1459.47,1018.37 1454.13,1023.37 1448.5,1028C 1446.24,1028.24 1444.07,1028.74 1442,1029.5C 1436.14,1028.41 1430.3,1027.08 1424.5,1025.5C 1424.83,1027.5 1425.17,1029.5 1425.5,1031.5C 1433.35,1032.18 1438.85,1036.18 1442,1043.5C 1443,1048.83 1444,1054.17 1445,1059.5C 1450.38,1066.94 1454.72,1074.94 1458,1083.5C 1458.55,1091.74 1456.21,1099.08 1451,1105.5C 1434.76,1120.73 1416.59,1133.23 1396.5,1143C 1387.51,1149.99 1378.85,1157.32 1370.5,1165C 1364.29,1168.27 1357.95,1171.27 1351.5,1174C 1341.06,1175.9 1332.39,1172.9 1325.5,1165C 1312.54,1160.79 1299.54,1156.79 1286.5,1153C 1278.51,1147.71 1274.67,1140.21 1275,1130.5C 1272.11,1127.94 1268.94,1125.78 1265.5,1124C 1249.62,1120.53 1233.62,1117.7 1217.5,1115.5C 1203.37,1117.3 1189.37,1119.8 1175.5,1123C 1169.54,1126.76 1163.21,1129.76 1156.5,1132C 1150.74,1137.76 1144.41,1142.76 1137.5,1147C 1137.75,1149.9 1137.42,1152.9 1136.5,1156C 1137.97,1159.77 1139.3,1163.61 1140.5,1167.5C 1138.57,1177.26 1132.91,1183.76 1123.5,1187C 1113.17,1196 1103.5,1205.67 1094.5,1216C 1086.2,1220.03 1077.7,1220.53 1069,1217.5C 1062.58,1218.64 1056.08,1218.81 1049.5,1218C 1034.53,1214.68 1019.86,1210.34 1005.5,1205C 988.221,1204.34 971.221,1203.67 954.5,1203C 942.485,1198.47 938.318,1189.97 942,1177.5C 952.716,1164.45 963.049,1151.12 973,1137.5C 983.079,1127.58 993.579,1118.25 1004.5,1109.5C 1002.17,1106.66 999.172,1104.83 995.5,1104C 988.968,1100.48 982.635,1100.81 976.5,1105C 968.167,1110.67 959.833,1116.33 951.5,1122C 944.929,1125.66 938.262,1125.99 931.5,1123C 916,1106.17 900.5,1089.33 885,1072.5C 877.312,1064.96 875.646,1056.3 880,1046.5C 883.527,1042.15 888.027,1039.49 893.5,1038.5C 894.4,1034.42 896.4,1030.92 899.5,1028C 907.605,1024.07 915.605,1019.9 923.5,1015.5C 924.959,1013.42 926.292,1011.25 927.5,1009C 925.117,1005.74 923.117,1002.24 921.5,998.5C 913.424,991.544 904.257,986.544 894,983.5C 883.371,985.449 872.871,987.949 862.5,991C 842.718,999.058 823.051,1007.39 803.5,1016C 790.023,1023.82 777.523,1032.99 766,1043.5C 762.667,1048.17 759.333,1052.83 756,1057.5C 744.149,1070 731.483,1070.67 718,1059.5C 715.387,1052.6 713.054,1045.6 711,1038.5C 710.268,1027.35 711.268,1016.35 714,1005.5C 718.861,986.251 724.528,967.251 731,948.5C 737.461,933.409 746.961,920.576 759.5,910C 760.625,901.202 760.792,892.369 760,883.5C 756.516,871.53 752.183,859.863 747,848.5C 743.383,844.761 739.883,840.928 736.5,837C 730.909,833.414 725.909,829.08 721.5,824C 711.144,821.141 705.644,814.307 705,803.5C 704.37,792.388 703.036,781.388 701,770.5C 699.236,760.306 701.402,751.14 707.5,743C 731.968,728.259 756.635,727.759 781.5,741.5C 799.789,736.128 817.456,729.295 834.5,721C 830.14,717.489 825.473,714.489 820.5,712C 815.91,706.473 814.743,700.306 817,693.5C 822.373,677.552 833.54,670.218 850.5,671.5C 854.486,672.333 858.486,672.499 862.5,672C 868.997,669.417 875.664,667.417 882.5,666C 893.337,659.414 904.337,653.081 915.5,647C 925.761,637.95 935.928,628.784 946,619.5C 949.395,610.774 954.395,603.108 961,596.5C 962.709,590.945 964.543,585.445 966.5,580C 963.656,569.454 959.823,559.287 955,549.5C 953.5,548 952,546.5 950.5,545C 934.845,544.023 928.011,535.857 930,520.5C 934.667,512.5 939.333,504.5 944,496.5C 948.558,490.307 954.724,487.14 962.5,487C 967.554,484.611 972.054,481.445 976,477.5C 977.828,470.954 977.162,464.621 974,458.5C 967.956,449.579 961.79,440.746 955.5,432C 946.284,425.891 936.617,420.558 926.5,416C 919.872,411.012 913.205,406.012 906.5,401C 896.202,389.034 885.535,377.367 874.5,366C 869.546,362.715 864.88,359.048 860.5,355C 855.997,351.245 850.997,348.245 845.5,346C 835.004,342.057 824.671,337.723 814.5,333C 799.507,330.645 794.341,322.145 799,307.5C 802.538,295.922 808.038,285.422 815.5,276C 817.167,275 818.833,274 820.5,273C 825.5,272.333 830.5,272.333 835.5,273C 851.521,277.447 866.855,283.447 881.5,291C 899.854,291.39 918.187,292.223 936.5,293.5C 960.116,291.84 983.449,288.507 1006.5,283.5C 1006.82,275.201 1009.65,267.868 1015,261.5C 1021.9,253.928 1029.4,247.095 1037.5,241C 1051.42,233.651 1065.92,232.485 1081,237.5C 1081.17,237 1081.33,236.5 1081.5,236C 1072.55,224.714 1062.55,214.38 1051.5,205C 1042.2,201.883 1033.04,198.383 1024,194.5C 1014.74,197.529 1007.74,194.862 1003,186.5C 998.011,169.872 993.344,153.205 989,136.5C 987.241,123.547 986.575,110.547 987,97.5C 990.026,89.4891 995.859,84.6557 1004.5,83C 1021.18,79.134 1038.01,75.634 1055,72.5C 1059.63,73.399 1063.79,75.2323 1067.5,78C 1079.6,93.9601 1095.1,105.127 1114,111.5C 1121.03,106.138 1127.03,99.8051 1132,92.5C 1139.22,81.0519 1144.55,68.7186 1148,55.5C 1149.5,54 1151,52.5 1152.5,51C 1181.43,42.766 1210.77,36.4327 1240.5,32C 1251.23,28.4716 1260.9,23.1383 1269.5,16C 1278.7,11.3301 1288.04,7.16338 1297.5,3.5 Z"/></g>
<g><path style="opacity:1" fill="#aa865b" d="M 1303.5,118.5 C 1302.94,123.516 1302.28,128.516 1301.5,133.5C 1297.45,150.157 1293.28,166.823 1289,183.5C 1283.48,226.54 1279.31,269.707 1276.5,313C 1276.84,318.507 1278.34,323.674 1281,328.5C 1286.67,335.167 1292.33,341.833 1298,348.5C 1298.78,349.729 1299.28,351.062 1299.5,352.5C 1294.9,369.133 1290.4,385.8 1286,402.5C 1284.49,411.528 1282.83,420.528 1281,429.5C 1280.77,441.838 1281.1,454.172 1282,466.5C 1283.74,470.241 1286.24,473.408 1289.5,476C 1305.77,486.256 1320.27,498.756 1333,513.5C 1341,523.5 1349,533.5 1357,543.5C 1357.17,546.167 1357.33,548.833 1357.5,551.5C 1355.66,570.202 1353.49,588.869 1351,607.5C 1343.33,617.494 1336.67,628.161 1331,639.5C 1324.01,646.325 1318.84,654.325 1315.5,663.5C 1312.67,667.664 1311,672.331 1310.5,677.5C 1309.02,686.466 1309.35,695.466 1311.5,704.5C 1311.4,708.258 1312.4,711.592 1314.5,714.5C 1319.58,727.153 1326.58,738.653 1335.5,749C 1345.47,753.65 1355.47,758.317 1365.5,763C 1381.71,769.859 1397.38,768.859 1412.5,760C 1425.56,751.812 1438.56,743.645 1451.5,735.5C 1454.86,735.616 1458.19,735.949 1461.5,736.5C 1462.57,737.434 1463.9,737.768 1465.5,737.5C 1468.5,739.277 1471.84,740.277 1475.5,740.5C 1481.17,741.167 1486.83,741.833 1492.5,742.5C 1482.24,754.928 1471.41,766.928 1460,778.5C 1457.19,781.464 1455.02,784.798 1453.5,788.5C 1452.44,789.6 1451.61,790.934 1451,792.5C 1450.19,796.689 1450.35,800.689 1451.5,804.5C 1449.39,817.597 1449.06,830.597 1450.5,843.5C 1450.38,849.069 1451.04,854.402 1452.5,859.5C 1452.69,863.64 1453.36,867.64 1454.5,871.5C 1454.9,875.116 1455.9,878.45 1457.5,881.5C 1460,886.19 1463.17,890.524 1467,894.5C 1468.8,900.098 1471.13,905.431 1474,910.5C 1475.21,912.049 1476.71,913.215 1478.5,914C 1483.76,913.641 1488.43,914.975 1492.5,918C 1506.93,929.76 1520.76,942.26 1534,955.5C 1535.01,957.025 1535.51,958.692 1535.5,960.5C 1533.83,960.5 1532.17,960.5 1530.5,960.5C 1528.49,959.076 1526.15,958.41 1523.5,958.5C 1517.91,957.45 1512.25,956.783 1506.5,956.5C 1502.32,956.501 1498.32,956.834 1494.5,957.5C 1490.84,957.723 1487.5,958.723 1484.5,960.5C 1477.42,965.328 1470.08,965.661 1462.5,961.5C 1460.9,959.926 1458.9,959.259 1456.5,959.5C 1450.32,958.409 1444.98,955.742 1440.5,951.5C 1439.63,949.375 1438.63,949.209 1437.5,951C 1437.64,952.301 1438.31,953.134 1439.5,953.5C 1441.94,962.444 1446.94,969.611 1454.5,975C 1446,981.499 1438.17,988.665 1431,996.5C 1423.73,993.642 1416.23,991.642 1408.5,990.5C 1404.32,982.143 1399.16,974.476 1393,967.5C 1384.64,962.252 1376.81,956.419 1369.5,950C 1362.33,949.167 1359.17,952.333 1360,959.5C 1369.71,978.198 1381.37,995.531 1395,1011.5C 1397.65,1017.88 1399.15,1024.55 1399.5,1031.5C 1399.41,1034.15 1400.08,1036.49 1401.5,1038.5C 1402.41,1047.13 1402.74,1055.79 1402.5,1064.5C 1402.68,1068.71 1404.01,1072.37 1406.5,1075.5C 1409.33,1080.16 1411.83,1084.83 1414,1089.5C 1399.42,1099.88 1384.26,1109.38 1368.5,1118C 1362.87,1122.63 1357.53,1127.63 1352.5,1133C 1350.73,1133.97 1348.89,1134.8 1347,1135.5C 1335.18,1131.46 1323.34,1127.29 1311.5,1123C 1307.89,1122.06 1304.22,1121.39 1300.5,1121C 1290.7,1102.22 1275.37,1090.55 1254.5,1086C 1233.33,1079.83 1212,1078.99 1190.5,1083.5C 1179.74,1083.99 1169.41,1085.99 1159.5,1089.5C 1153.61,1091.78 1147.94,1094.61 1142.5,1098C 1130.33,1107.5 1118.17,1117 1106,1126.5C 1103.38,1129.41 1101.55,1132.74 1100.5,1136.5C 1099.73,1137.26 1099.23,1138.26 1099,1139.5C 1098.26,1147.54 1098.43,1155.54 1099.5,1163.5C 1097.41,1164.58 1096.08,1166.25 1095.5,1168.5C 1090.89,1171.44 1086.89,1175.1 1083.5,1179.5C 1081.33,1180.84 1079.66,1182.67 1078.5,1185C 1076.04,1185.24 1073.71,1184.74 1071.5,1183.5C 1069.38,1181.35 1066.72,1180.35 1063.5,1180.5C 1061.49,1179.08 1059.15,1178.41 1056.5,1178.5C 1054.16,1176.96 1051.5,1176.29 1048.5,1176.5C 1044.38,1175.29 1040.05,1174.62 1035.5,1174.5C 1033.83,1174.5 1032.17,1174.5 1030.5,1174.5C 1023.72,1172.87 1016.72,1171.87 1009.5,1171.5C 1004.58,1170.72 999.582,1170.22 994.5,1170C 1001.95,1163.85 1009.12,1157.35 1016,1150.5C 1019.24,1144.1 1023.74,1138.76 1029.5,1134.5C 1031.59,1133.42 1032.92,1131.75 1033.5,1129.5C 1034.46,1126.24 1035.96,1123.24 1038,1120.5C 1038.98,1118.26 1039.48,1115.93 1039.5,1113.5C 1041.15,1107.27 1040.48,1101.27 1037.5,1095.5C 1037.57,1093.97 1036.91,1092.97 1035.5,1092.5C 1026.47,1078.32 1013.47,1071.48 996.5,1072C 990.543,1068.52 984.209,1065.86 977.5,1064C 969.504,1064.1 961.504,1064.1 953.5,1064C 946.938,1062.29 940.272,1061.12 933.5,1060.5C 932.5,1058.5 931.5,1056.5 930.5,1054.5C 938.89,1046.12 945.223,1036.46 949.5,1025.5C 951.201,1021.03 952.535,1016.36 953.5,1011.5C 953.232,1009.9 953.566,1008.57 954.5,1007.5C 955.163,1005.53 955.496,1003.36 955.5,1001C 955.672,997.523 955.006,994.356 953.5,991.5C 949.023,979.84 941.357,970.674 930.5,964C 920.138,959.287 910.138,954.12 900.5,948.5C 894.272,947.549 888.272,948.549 882.5,951.5C 878.838,951.723 875.505,952.723 872.5,954.5C 870.071,954.884 867.737,955.551 865.5,956.5C 862.933,956.721 860.599,957.388 858.5,958.5C 855.219,958.42 852.219,959.087 849.5,960.5C 843.458,961.514 837.791,963.681 832.5,967C 810.965,982.187 788.632,996.187 765.5,1009C 761.442,1011.36 757.775,1014.19 754.5,1017.5C 753.508,1010.35 753.175,1003.02 753.5,995.5C 755.975,986.951 758.475,978.284 761,969.5C 768.613,958.22 776.613,947.22 785,936.5C 788.925,929.222 791.759,921.556 793.5,913.5C 794.222,913.082 794.722,912.416 795,911.5C 795.499,907.848 795.665,904.182 795.5,900.5C 795.552,888.193 793.719,876.193 790,864.5C 785.509,854.849 780.509,845.515 775,836.5C 768.26,830.43 762.26,823.763 757,816.5C 748.97,808.136 740.637,800.136 732,792.5C 731.5,784.841 731.334,777.174 731.5,769.5C 758.13,771.422 784.797,772.256 811.5,772C 823.723,767.056 836.057,762.389 848.5,758C 856.841,752.323 863.007,744.823 867,735.5C 867.667,729.833 867.667,724.167 867,718.5C 864.489,713.436 862.822,708.103 862,702.5C 861.208,700.413 860.041,698.579 858.5,697C 875.914,693.418 892.247,687.085 907.5,678C 914.258,676.31 920.925,674.31 927.5,672C 935.458,667.375 943.958,663.875 953,661.5C 959.064,658.218 965.23,655.051 971.5,652C 981.466,644.247 988.632,634.414 993,622.5C 997.21,609.158 999.71,595.491 1000.5,581.5C 1000.31,575.846 999.308,570.346 997.5,565C 1000.58,546.99 996.917,530.49 986.5,515.5C 988.756,511.246 990.923,506.912 993,502.5C 1005.52,490.927 1008.52,477.261 1002,461.5C 994.72,438.573 982.22,419.073 964.5,403C 944.99,388.832 926.657,373.165 909.5,356C 889.876,337.755 867.209,324.422 841.5,316C 837.007,313.921 832.674,311.588 828.5,309C 830.768,307.448 833.268,306.615 836,306.5C 862.669,313.852 889.836,317.519 917.5,317.5C 923.922,319.058 930.589,319.724 937.5,319.5C 942.678,319.499 947.678,319.166 952.5,318.5C 968.667,316.191 985,314.024 1001.5,312C 1015.09,310.037 1027.42,305.037 1038.5,297C 1040.33,294.5 1042.17,292 1044,289.5C 1044.33,286.833 1044.67,284.167 1045,281.5C 1048.97,278.438 1053.14,275.771 1057.5,273.5C 1064.41,272.767 1071.08,271.433 1077.5,269.5C 1083.51,270.259 1088.84,268.925 1093.5,265.5C 1099.79,260.917 1104.13,254.917 1106.5,247.5C 1107.93,244.718 1109.1,241.718 1110,238.5C 1110.67,231.5 1110.67,224.5 1110,217.5C 1109.72,216.584 1109.22,215.918 1108.5,215.5C 1105.49,209.977 1101.49,205.144 1096.5,201C 1090.67,196.587 1084.67,192.42 1078.5,188.5C 1067.56,184.811 1056.72,180.811 1046,176.5C 1040.32,169.156 1035.66,161.156 1032,152.5C 1029.7,149.203 1027.04,146.203 1024,143.5C 1023.32,138.178 1022.82,132.844 1022.5,127.5C 1022.5,121.167 1022.5,114.833 1022.5,108.5C 1023.79,108.737 1024.79,108.404 1025.5,107.5C 1034.63,104.064 1043.97,101.564 1053.5,100C 1063.29,110.127 1073.95,119.127 1085.5,127C 1088.96,129.066 1092.63,130.566 1096.5,131.5C 1101.75,134.272 1107.42,135.106 1113.5,134C 1114.06,133.617 1114.39,133.117 1114.5,132.5C 1117.32,131.008 1118.99,128.674 1119.5,125.5C 1120.46,123.735 1120.79,121.735 1120.5,119.5C 1123.39,119.806 1126.05,119.473 1128.5,118.5C 1148.73,109.602 1162.39,94.6016 1169.5,73.5C 1199.34,65.9388 1228.67,57.1055 1257.5,47C 1263.34,43.2459 1269.01,39.2459 1274.5,35C 1277.21,33.0924 1280.21,32.259 1283.5,32.5C 1281.67,49.9058 1282.17,67.2391 1285,84.5C 1288.84,97.1948 1295.01,108.528 1303.5,118.5 Z"/></g>
<g><path style="opacity:1" fill="#b99f7f" d="M 1246.5,94.5 C 1249.01,108.865 1252.68,123.198 1257.5,137.5C 1254.16,166.906 1250.32,196.239 1246,225.5C 1242.74,268.439 1241.74,311.439 1243,354.5C 1243.94,357.993 1245.28,361.326 1247,364.5C 1249.22,366.385 1251.06,368.551 1252.5,371C 1250.51,378.468 1248.68,385.968 1247,393.5C 1246.12,429.515 1246.46,465.515 1248,501.5C 1249.04,503.746 1250.21,505.913 1251.5,508C 1277.41,524.913 1299.08,546.247 1316.5,572C 1308.87,582.071 1302.37,592.904 1297,604.5C 1286.33,615.832 1279.33,629.166 1276,644.5C 1275.33,673.5 1275.33,702.5 1276,731.5C 1278.95,751.225 1287.11,768.392 1300.5,783C 1313.17,787.892 1325.5,793.559 1337.5,800C 1363.79,801.455 1390.12,801.955 1416.5,801.5C 1416.13,831.852 1416.63,862.186 1418,892.5C 1419.12,900.345 1420.95,908.011 1423.5,915.5C 1392.19,915.503 1360.85,915.67 1329.5,916C 1328.58,916.374 1327.75,916.874 1327,917.5C 1326.33,943.5 1326.33,969.5 1327,995.5C 1337.45,1014.29 1349.12,1032.29 1362,1049.5C 1363.29,1053.55 1364.13,1057.72 1364.5,1062C 1364.65,1064.03 1363.98,1065.7 1362.5,1067C 1353.13,1073.18 1343.47,1078.51 1333.5,1083C 1329.1,1074.85 1323.1,1068.18 1315.5,1063C 1298.22,1054.1 1279.89,1048.76 1260.5,1047C 1231.83,1046.33 1203.17,1046.33 1174.5,1047C 1162.29,1049.39 1149.95,1051.06 1137.5,1052C 1131.6,1052.89 1125.93,1054.56 1120.5,1057C 1103.86,1066.23 1088.36,1077.07 1074,1089.5C 1078.03,1055.87 1063.2,1038.7 1029.5,1038C 1017.44,1029.97 1004.1,1027.14 989.5,1029.5C 989.916,1005.47 989.416,981.469 988,957.5C 984.507,947.015 978.34,938.515 969.5,932C 957.64,925.61 945.64,919.61 933.5,914C 909.167,913.333 884.833,913.333 860.5,914C 850.285,916.128 840.285,918.961 830.5,922.5C 830.06,893.791 828.893,865.124 827,836.5C 823.301,826.77 818.801,817.436 813.5,808.5C 824.858,807.857 836.191,807.023 847.5,806C 860.356,800.408 873.356,795.075 886.5,790C 893.16,785.674 897.993,779.841 901,772.5C 902.098,758.209 902.931,743.875 903.5,729.5C 917.494,724.668 930.827,718.502 943.5,711C 967.33,704.393 989.997,695.059 1011.5,683C 1024.67,666.505 1032.17,647.672 1034,626.5C 1034.67,597.167 1034.67,567.833 1034,538.5C 1033.4,536.863 1032.9,535.197 1032.5,533.5C 1034.92,528.989 1037.09,524.323 1039,519.5C 1039.67,491.167 1039.67,462.833 1039,434.5C 1033.34,418.847 1026.34,403.847 1018,389.5C 1007.04,374.871 993.874,362.704 978.5,353C 1003.06,351.223 1027.39,347.889 1051.5,343C 1058.66,339.588 1065.66,335.922 1072.5,332C 1076.4,327.979 1078.57,323.145 1079,317.5C 1082.56,313.975 1086.39,310.809 1090.5,308C 1101.2,304.51 1112.2,302.51 1123.5,302C 1127.9,300.383 1131.73,297.883 1135,294.5C 1138.75,287.807 1141.75,280.807 1144,273.5C 1144.67,243.5 1144.67,213.5 1144,183.5C 1142.37,177.07 1138.87,171.903 1133.5,168C 1139.61,167.912 1145.61,167.245 1151.5,166C 1153.48,162.065 1155.14,158.065 1156.5,154C 1171.69,150.823 1183.86,142.99 1193,130.5C 1197.52,122.958 1201.35,115.125 1204.5,107C 1215.83,104 1227.17,101 1238.5,98C 1241.48,97.2952 1244.14,96.1286 1246.5,94.5 Z"/></g>
<g><path style="opacity:1" fill="#634938" d="M 1128.5,118.5 C 1126.05,119.473 1123.39,119.806 1120.5,119.5C 1120.79,121.735 1120.46,123.735 1119.5,125.5C 1119.5,123.167 1119.5,120.833 1119.5,118.5C 1122.5,118.5 1125.5,118.5 1128.5,118.5 Z"/></g>
<g><path style="opacity:1" fill="#7e6046" d="M 1025.5,107.5 C 1024.79,108.404 1023.79,108.737 1022.5,108.5C 1022.5,114.833 1022.5,121.167 1022.5,127.5C 1021.51,121.021 1021.18,114.354 1021.5,107.5C 1022.83,107.5 1024.17,107.5 1025.5,107.5 Z"/></g>
<g><path style="opacity:1" fill="#604737" d="M 1303.5,118.5 C 1304.64,121.304 1304.8,124.304 1304,127.5C 1303.76,129.852 1302.93,131.852 1301.5,133.5C 1302.28,128.516 1302.94,123.516 1303.5,118.5 Z"/></g>
<g><path style="opacity:1" fill="#755942" d="M 1096.5,131.5 C 1102.43,133.456 1108.43,133.79 1114.5,132.5C 1114.39,133.117 1114.06,133.617 1113.5,134C 1107.42,135.106 1101.75,134.272 1096.5,131.5 Z"/></g>
<g><path style="opacity:1" fill="#6e533e" d="M 1108.5,215.5 C 1109.22,215.918 1109.72,216.584 1110,217.5C 1110.67,224.5 1110.67,231.5 1110,238.5C 1109.1,241.718 1107.93,244.718 1106.5,247.5C 1109.6,237.015 1110.27,226.348 1108.5,215.5 Z"/></g>
<g><path style="opacity:1" fill="#846649" d="M 1093.5,265.5 C 1088.84,268.925 1083.51,270.259 1077.5,269.5C 1082.87,268.814 1088.2,267.481 1093.5,265.5 Z"/></g>
<g><path style="opacity:1" fill="#896a4b" d="M 1077.5,269.5 C 1071.08,271.433 1064.41,272.767 1057.5,273.5C 1063.87,271.246 1070.54,269.913 1077.5,269.5 Z"/></g>
<g><path style="opacity:1" fill="#987753" d="M 917.5,317.5 C 929.144,318.361 940.81,318.695 952.5,318.5C 947.678,319.166 942.678,319.499 937.5,319.5C 930.589,319.724 923.922,319.058 917.5,317.5 Z"/></g>
<g><path style="opacity:1" fill="#6c513d" d="M 1315.5,663.5 C 1314.36,668.422 1312.7,673.089 1310.5,677.5C 1311,672.331 1312.67,667.664 1315.5,663.5 Z"/></g>
<g><path style="opacity:1" fill="#7b5e44" d="M 1311.5,704.5 C 1313.28,707.505 1314.28,710.838 1314.5,714.5C 1312.4,711.592 1311.4,708.258 1311.5,704.5 Z"/></g>
<g><path style="opacity:1" fill="#71553f" d="M 1451.5,735.5 C 1454.96,734.135 1458.29,734.469 1461.5,736.5C 1458.19,735.949 1454.86,735.616 1451.5,735.5 Z"/></g>
<g><path style="opacity:1" fill="#6b513d" d="M 1465.5,737.5 C 1469.16,737.723 1472.5,738.723 1475.5,740.5C 1471.84,740.277 1468.5,739.277 1465.5,737.5 Z"/></g>
<g><path style="opacity:1" fill="#654c3a" d="M 1475.5,740.5 C 1481.54,740.171 1487.54,740.504 1493.5,741.5C 1493.38,742.107 1493.04,742.44 1492.5,742.5C 1486.83,741.833 1481.17,741.167 1475.5,740.5 Z"/></g>
<g><path style="opacity:1" fill="#654c3a" d="M 1453.5,788.5 C 1451.91,793.678 1451.25,799.012 1451.5,804.5C 1450.35,800.689 1450.19,796.689 1451,792.5C 1451.61,790.934 1452.44,789.6 1453.5,788.5 Z"/></g>
<g><path style="opacity:1" fill="#644a39" d="M 1450.5,843.5 C 1451.96,848.598 1452.62,853.931 1452.5,859.5C 1451.04,854.402 1450.38,849.069 1450.5,843.5 Z"/></g>
<g><path style="opacity:1" fill="#684e3b" d="M 1454.5,871.5 C 1456.41,874.452 1457.41,877.786 1457.5,881.5C 1455.9,878.45 1454.9,875.116 1454.5,871.5 Z"/></g>
<g><path style="opacity:1" fill="#87684b" d="M 795.5,900.5 C 795.665,904.182 795.499,907.848 795,911.5C 794.722,912.416 794.222,913.082 793.5,913.5C 793.884,908.99 794.551,904.657 795.5,900.5 Z"/></g>
<g><path style="opacity:1" fill="#735741" d="M 900.5,948.5 C 894.447,949.18 888.447,950.18 882.5,951.5C 888.272,948.549 894.272,947.549 900.5,948.5 Z"/></g>
<g><path style="opacity:1" fill="#6c523d" d="M 1440.5,951.5 C 1439.66,951.842 1439.33,952.508 1439.5,953.5C 1438.31,953.134 1437.64,952.301 1437.5,951C 1438.63,949.209 1439.63,949.375 1440.5,951.5 Z"/></g>
<g><path style="opacity:1" fill="#664c3a" d="M 882.5,951.5 C 879.619,953.68 876.286,954.68 872.5,954.5C 875.505,952.723 878.838,951.723 882.5,951.5 Z"/></g>
<g><path style="opacity:1" fill="#6f543e" d="M 865.5,956.5 C 863.562,958.163 861.228,958.829 858.5,958.5C 860.599,957.388 862.933,956.721 865.5,956.5 Z"/></g>
<g><path style="opacity:1" fill="#7c6045" d="M 858.5,958.5 C 855.781,959.913 852.781,960.58 849.5,960.5C 852.219,959.087 855.219,958.42 858.5,958.5 Z"/></g>
<g><path style="opacity:1" fill="#755942" d="M 1494.5,957.5 C 1491.55,959.41 1488.21,960.41 1484.5,960.5C 1487.5,958.723 1490.84,957.723 1494.5,957.5 Z"/></g>
<g><path style="opacity:1" fill="#755941" d="M 1523.5,958.5 C 1526.15,958.41 1528.49,959.076 1530.5,960.5C 1527.85,960.59 1525.51,959.924 1523.5,958.5 Z"/></g>
<g><path style="opacity:1" fill="#88694b" d="M 1456.5,959.5 C 1458.9,959.259 1460.9,959.926 1462.5,961.5C 1460.1,961.741 1458.1,961.074 1456.5,959.5 Z"/></g>
<g><path style="opacity:1" fill="#7b5e44" d="M 953.5,991.5 C 955.006,994.356 955.672,997.523 955.5,1001C 955.496,1003.36 955.163,1005.53 954.5,1007.5C 954.528,1002.14 954.194,996.805 953.5,991.5 Z"/></g>
<g><path style="opacity:1" fill="#735740" d="M 753.5,995.5 C 753.175,1003.02 753.508,1010.35 754.5,1017.5C 754.44,1018.04 754.107,1018.38 753.5,1018.5C 752.18,1010.68 752.18,1003.01 753.5,995.5 Z"/></g>
<g><path style="opacity:1" fill="#7f6247" d="M 953.5,1011.5 C 952.535,1016.36 951.201,1021.03 949.5,1025.5C 949.711,1020.4 951.045,1015.73 953.5,1011.5 Z"/></g>
<g><path style="opacity:1" fill="#785c43" d="M 1399.5,1031.5 C 1400.92,1033.51 1401.59,1035.85 1401.5,1038.5C 1400.08,1036.49 1399.41,1034.15 1399.5,1031.5 Z"/></g>
<g><path style="opacity:1" fill="#896a4b" d="M 1402.5,1064.5 C 1404.2,1067.94 1405.54,1071.61 1406.5,1075.5C 1404.01,1072.37 1402.68,1068.71 1402.5,1064.5 Z"/></g>
<g><path style="opacity:1" fill="#604838" d="M 1190.5,1083.5 C 1190.08,1084.22 1189.42,1084.72 1188.5,1085C 1178.77,1086.26 1169.1,1087.76 1159.5,1089.5C 1169.41,1085.99 1179.74,1083.99 1190.5,1083.5 Z"/></g>
<g><path style="opacity:1" fill="#755942" d="M 1035.5,1092.5 C 1036.91,1092.97 1037.57,1093.97 1037.5,1095.5C 1036.09,1095.03 1035.43,1094.03 1035.5,1092.5 Z"/></g>
<g><path style="opacity:1" fill="#7d5f45" d="M 1037.5,1095.5 C 1040.48,1101.27 1041.15,1107.27 1039.5,1113.5C 1039.73,1107.38 1039.07,1101.38 1037.5,1095.5 Z"/></g>
<g><path style="opacity:1" fill="#87684a" d="M 1033.5,1129.5 C 1032.92,1131.75 1031.59,1133.42 1029.5,1134.5C 1030.08,1132.25 1031.41,1130.58 1033.5,1129.5 Z"/></g>
<g><path style="opacity:1" fill="#6a4f3c" d="M 1100.5,1136.5 C 1099.53,1145.68 1099.19,1154.68 1099.5,1163.5C 1098.43,1155.54 1098.26,1147.54 1099,1139.5C 1099.23,1138.26 1099.73,1137.26 1100.5,1136.5 Z"/></g>
<g><path style="opacity:1" fill="#6e533e" d="M 1009.5,1171.5 C 1016.72,1171.87 1023.72,1172.87 1030.5,1174.5C 1023.24,1174.39 1016.24,1173.39 1009.5,1171.5 Z"/></g>
<g><path style="opacity:1" fill="#6b503d" d="M 1035.5,1174.5 C 1040.05,1174.62 1044.38,1175.29 1048.5,1176.5C 1043.9,1176.72 1039.57,1176.05 1035.5,1174.5 Z"/></g>
<g><path style="opacity:1" fill="#765a42" d="M 1048.5,1176.5 C 1051.5,1176.29 1054.16,1176.96 1056.5,1178.5C 1053.57,1178.43 1050.91,1177.77 1048.5,1176.5 Z"/></g>
<g><path style="opacity:1" fill="#624838" d="M 1095.5,1168.5 C 1092.11,1172.9 1088.11,1176.56 1083.5,1179.5C 1086.89,1175.1 1090.89,1171.44 1095.5,1168.5 Z"/></g>
<g><path style="opacity:1" fill="#785c43" d="M 1056.5,1178.5 C 1059.15,1178.41 1061.49,1179.08 1063.5,1180.5C 1060.85,1180.59 1058.51,1179.92 1056.5,1178.5 Z"/></g>
<g><path style="opacity:1" fill="#7e6146" d="M 1063.5,1180.5 C 1066.72,1180.35 1069.38,1181.35 1071.5,1183.5C 1068.6,1182.87 1065.94,1181.87 1063.5,1180.5 Z"/></g>
</svg>
