<?xml version="1.0" encoding="UTF-8"?>
<!DOCTYPE svg PUBLIC "-//W3C//DTD SVG 1.1//EN" "http://www.w3.org/Graphics/SVG/1.1/DTD/svg11.dtd">
<svg xmlns="http://www.w3.org/2000/svg" version="1.1" width="2296px" height="1221px" style="shape-rendering:geometricPrecision; text-rendering:geometricPrecision; image-rendering:optimizeQuality; fill-rule:evenodd; clip-rule:evenodd" xmlns:xlink="http://www.w3.org/1999/xlink">
<g><path style="opacity:0.983" fill="#48332c" d="M 1276.5,0.5 C 1277.94,1.33507 1278.94,2.6684 1279.5,4.5C 1293.52,11.0118 1305.52,20.1784 1315.5,32C 1326.67,38.0571 1338.5,41.8905 1351,43.5C 1365.23,41.0916 1379.06,37.2582 1392.5,32C 1397.22,25.2228 1403.72,21.7228 1412,21.5C 1430.68,23.5367 1449.18,26.5367 1467.5,30.5C 1471.29,29.5234 1474.96,30.0234 1478.5,32C 1482.53,36.6901 1487.19,40.6901 1492.5,44C 1505.37,51.5995 1519.03,57.2662 1533.5,61C 1549.89,64.0555 1566.22,67.3889 1582.5,71C 1594.82,74.1202 1599.65,81.9535 1597,94.5C 1594.78,107.032 1591.78,119.366 1588,131.5C 1587.21,133.587 1586.04,135.421 1584.5,137C 1580.33,138.584 1576.66,140.918 1573.5,144C 1570.17,144.667 1566.83,144.667 1563.5,144C 1539.1,135.653 1514.1,131.987 1488.5,133C 1480.82,136.115 1472.99,138.615 1465,140.5C 1456.71,138.96 1448.54,136.793 1440.5,134C 1425.75,132.211 1411.41,133.877 1397.5,139C 1394.2,147.232 1390.7,155.398 1387,163.5C 1383.59,166.123 1380.09,168.623 1376.5,171C 1373.88,175.283 1370.88,179.283 1367.5,183C 1363.61,184.805 1359.61,186.305 1355.5,187.5C 1356.31,188.814 1357.31,189.981 1358.5,191C 1362.68,192.796 1367.02,194.129 1371.5,195C 1376,198.154 1378,202.487 1377.5,208C 1374.74,234.183 1376.91,260.017 1384,285.5C 1389.58,292.992 1394.91,300.659 1400,308.5C 1402.17,313.149 1401.67,317.482 1398.5,321.5C 1407.05,324.929 1411.38,331.262 1411.5,340.5C 1430.7,339.224 1449.87,337.558 1469,335.5C 1483.03,336.197 1489.03,343.531 1487,357.5C 1483.63,366.578 1478.96,374.911 1473,382.5C 1467.19,394.92 1461.19,407.253 1455,419.5C 1450.14,430.095 1446.47,441.095 1444,452.5C 1442.81,457.694 1439.64,460.86 1434.5,462C 1393.56,467.787 1352.9,475.121 1312.5,484C 1311.07,484.465 1309.9,485.299 1309,486.5C 1305.02,501.831 1298.02,515.498 1288,527.5C 1286.21,530.784 1285.04,534.284 1284.5,538C 1285.64,550.8 1285.81,563.633 1285,576.5C 1281.5,599.514 1278,622.514 1274.5,645.5C 1283.97,651.405 1293.3,657.572 1302.5,664C 1308.95,671.726 1314.78,679.893 1320,688.5C 1322.37,716.683 1324.53,744.85 1326.5,773C 1332.61,771.29 1338.61,768.956 1344.5,766C 1343.67,761.712 1345,758.045 1348.5,755C 1352.56,752.887 1356.89,751.72 1361.5,751.5C 1368.82,752.184 1376.15,752.684 1383.5,753C 1385.73,753.561 1387.73,754.561 1389.5,756C 1396.98,756.592 1404.31,757.925 1411.5,760C 1432.42,760.979 1452.75,764.979 1472.5,772C 1475.3,773.793 1477.8,775.96 1480,778.5C 1487.78,792.403 1494.78,806.737 1501,821.5C 1503,824.167 1505,826.833 1507,829.5C 1515.3,836.802 1523.3,844.469 1531,852.5C 1537.85,863.011 1546.35,871.844 1556.5,879C 1574.78,887.867 1593.12,896.534 1611.5,905C 1619.57,912.304 1624.07,921.47 1625,932.5C 1628.26,953.511 1628.26,974.511 1625,995.5C 1616.93,1009.3 1608.6,1022.97 1600,1036.5C 1594.46,1043.71 1587.96,1049.87 1580.5,1055C 1590.1,1059.48 1599.77,1063.82 1609.5,1068C 1624.6,1079.69 1632.77,1095.19 1634,1114.5C 1634.67,1119.5 1634.67,1124.5 1634,1129.5C 1622.5,1158.69 1606.33,1184.86 1585.5,1208C 1579.72,1212.07 1573.72,1212.41 1567.5,1209C 1559.5,1202.33 1551.5,1195.67 1543.5,1189C 1523.18,1178.84 1503.18,1168.18 1483.5,1157C 1464.83,1148.67 1446.17,1140.33 1427.5,1132C 1406.61,1125.37 1386.28,1117.37 1366.5,1108C 1358.28,1105.88 1349.95,1104.38 1341.5,1103.5C 1327.24,1108.9 1312.58,1112.73 1297.5,1115C 1285.81,1115.55 1274.15,1115.22 1262.5,1114C 1232.75,1102.63 1206.42,1085.96 1183.5,1064C 1176.81,1055.94 1174.15,1046.61 1175.5,1036C 1175.1,1012.25 1181.1,990.251 1193.5,970C 1135.59,959.19 1078.26,945.857 1021.5,930C 1012.2,928.504 1002.87,927.837 993.5,928C 983.055,929.861 972.722,932.195 962.5,935C 949.116,944.046 937.283,954.88 927,967.5C 917.46,981.758 906.626,994.925 894.5,1007C 876.126,1015.24 856.959,1020.4 837,1022.5C 815.857,1018.56 796.024,1011.06 777.5,1000C 752.901,981.075 735.734,956.908 726,927.5C 710.328,912.161 694.328,897.161 678,882.5C 658.428,857.37 642.428,830.036 630,800.5C 627.561,790.821 626.394,780.988 626.5,771C 626.985,748.648 629.152,726.481 633,704.5C 634,702.833 635,701.167 636,699.5C 666.648,674.201 699.481,652.035 734.5,633C 742.5,629.333 750.5,625.667 758.5,622C 765.695,616.639 773.028,611.472 780.5,606.5C 783.107,595.175 783.107,583.841 780.5,572.5C 780.594,570.077 781.094,567.744 782,565.5C 794.066,548.098 806.9,531.265 820.5,515C 883.03,492.156 946.03,470.49 1009.5,450C 1022.33,445.057 1035,439.723 1047.5,434C 1077.56,418.638 1107.89,403.805 1138.5,389.5C 1139.58,388.335 1140.42,387.002 1141,385.5C 1141.91,380.971 1142.74,376.471 1143.5,372C 1143.8,354.681 1143.47,337.181 1142.5,319.5C 1128.61,322.092 1114.61,323.926 1100.5,325C 1088.5,328.333 1076.5,331.667 1064.5,335C 1056,336.491 1048,335.157 1040.5,331C 1032.67,323.833 1024.83,316.667 1017,309.5C 1007.5,296.512 998.505,283.179 990,269.5C 986.667,265.5 983.333,261.5 980,257.5C 975.58,249.207 974.58,240.54 977,231.5C 984.419,218.909 990.086,205.576 994,191.5C 999.052,182.451 1004.89,173.951 1011.5,166C 1016.4,162.244 1021.57,161.744 1027,164.5C 1049,155.279 1071.5,147.445 1094.5,141C 1109.43,135.452 1123.93,128.952 1138,121.5C 1141.39,114.871 1143.39,107.871 1144,100.5C 1132.63,95.785 1122.3,89.4517 1113,81.5C 1111.14,79.1123 1109.81,76.4456 1109,73.5C 1107.73,63.769 1109.07,54.4357 1113,45.5C 1115.31,41.4195 1118.81,38.9195 1123.5,38C 1138.84,35.3328 1154.17,32.6662 1169.5,30C 1204.87,18.3646 1240.54,8.53128 1276.5,0.5 Z"/></g>
<g><path style="opacity:1" fill="#aa865b" d="M 1427.5,366.5 C 1432.17,367.167 1436.83,367.833 1441.5,368.5C 1435.66,376.833 1430.83,385.833 1427,395.5C 1422.73,410.19 1419.23,425.023 1416.5,440C 1378.67,445.766 1341,452.433 1303.5,460C 1294.23,467.646 1284.23,474.312 1273.5,480C 1262.79,488.713 1254.29,499.213 1248,511.5C 1247.83,512.833 1247.67,514.167 1247.5,515.5C 1249.35,524.9 1251.52,534.233 1254,543.5C 1255.56,551.619 1256.72,559.786 1257.5,568C 1253.39,596.509 1249.22,625.009 1245,653.5C 1244.38,663.947 1248.21,672.447 1256.5,679C 1269.42,688.712 1282.26,698.545 1295,708.5C 1296.97,713.124 1298.13,717.957 1298.5,723C 1301.02,741.458 1303.19,759.958 1305,778.5C 1306.58,784.086 1309.75,788.586 1314.5,792C 1316.36,793.301 1318.36,793.635 1320.5,793C 1334.88,788.482 1348.88,782.816 1362.5,776C 1368.04,773.411 1373.04,774.077 1377.5,778C 1384.56,779.01 1391.56,780.344 1398.5,782C 1420.04,781.562 1440.87,785.062 1461,792.5C 1468.12,805.07 1474.45,818.07 1480,831.5C 1482.33,834.833 1484.67,838.167 1487,841.5C 1502.84,856.674 1518.01,872.507 1532.5,889C 1536.5,891.667 1540.5,894.333 1544.5,897C 1562.32,906.325 1580.15,915.491 1598,924.5C 1602.65,945.637 1603.65,966.971 1601,988.5C 1592.67,1002.5 1584.33,1016.5 1576,1030.5C 1569.28,1037.88 1562.61,1045.22 1556,1052.5C 1551.94,1060.5 1553.44,1067.34 1560.5,1073C 1570.39,1079.11 1580.73,1084.45 1591.5,1089C 1603.37,1098.61 1608.21,1111.11 1606,1126.5C 1599.39,1142.39 1591.72,1157.72 1583,1172.5C 1579.72,1178.28 1575.88,1183.61 1571.5,1188.5C 1570.83,1188.17 1570.17,1187.83 1569.5,1187.5C 1569.32,1182.97 1567.65,1179.13 1564.5,1176C 1552.5,1169.33 1540.5,1162.67 1528.5,1156C 1505.37,1140.21 1481.7,1125.21 1457.5,1111C 1435.96,1100.06 1414.29,1089.39 1392.5,1079C 1387.51,1074.13 1381.51,1072.3 1374.5,1073.5C 1368.47,1073.6 1362.47,1074.1 1356.5,1075C 1337.4,1079.59 1318.4,1084.59 1299.5,1090C 1288.47,1090.67 1277.47,1090.33 1266.5,1089C 1252.33,1080.08 1238,1071.42 1223.5,1063C 1216.19,1057.42 1209.36,1051.25 1203,1044.5C 1199.58,1023.91 1203.91,1005.24 1216,988.5C 1222.7,980.475 1229.36,972.475 1236,964.5C 1237.66,954.14 1233.16,948.307 1222.5,947C 1214.11,946.055 1205.77,944.722 1197.5,943C 1138.54,928.842 1079.54,914.842 1020.5,901C 1008.95,898.716 997.278,897.383 985.5,897C 972.431,890.659 958.765,888.659 944.5,891C 926.989,909.519 912.155,930.019 900,952.5C 893.976,959.689 888.143,967.023 882.5,974.5C 879.322,977.591 875.488,979.258 871,979.5C 854.658,976.287 838.158,974.454 821.5,974C 809.795,971.157 798.129,968.157 786.5,965C 778.907,951.398 769.741,938.898 759,927.5C 753.779,915.723 749.112,903.723 745,891.5C 741.972,885.466 737.805,880.299 732.5,876C 722.767,869.272 712.767,862.938 702.5,857C 698.868,852.366 694.868,848.033 690.5,844C 685.396,841.227 680.563,838.06 676,834.5C 669.972,825.753 666.306,816.086 665,805.5C 659.776,775.532 658.109,745.532 660,715.5C 675.257,703.787 690.424,691.954 705.5,680C 720.504,670.496 735.838,661.496 751.5,653C 761.333,645.833 771.167,638.667 781,631.5C 783.467,627.4 786.301,623.566 789.5,620C 797.864,617.822 802.364,612.322 803,603.5C 804.121,595.21 804.787,586.876 805,578.5C 816.123,564.375 827.623,550.541 839.5,537C 867.374,527.597 895.04,517.597 922.5,507C 955.637,496.399 988.637,485.399 1021.5,474C 1049.05,462.08 1075.38,448.08 1100.5,432C 1109.17,429.667 1117.83,427.333 1126.5,425C 1137.62,419.852 1148.62,414.519 1159.5,409C 1166.26,403.081 1169.76,395.581 1170,386.5C 1170.29,367.827 1170.79,349.16 1171.5,330.5C 1170.84,320.349 1169.34,310.349 1167,300.5C 1163.79,296.48 1159.63,294.48 1154.5,294.5C 1135.54,296.072 1116.54,296.906 1097.5,297C 1090.33,298.167 1083.16,299.334 1076,300.5C 1068.09,299.783 1060.26,298.616 1052.5,297C 1037.79,280.292 1024.62,262.459 1013,243.5C 1012.04,241.801 1011.54,239.967 1011.5,238C 1011.85,221.96 1016.52,207.293 1025.5,194C 1047.53,182.654 1070.53,173.654 1094.5,167C 1112.63,160.27 1129.96,151.937 1146.5,142C 1148.67,139.833 1150.83,137.667 1153,135.5C 1154.5,130.161 1156,124.827 1157.5,119.5C 1160.58,117.583 1162.75,114.916 1164,111.5C 1165.33,103.8 1164.33,96.4668 1161,89.5C 1159.83,88.3333 1158.67,87.1667 1157.5,86C 1148.74,80.5372 1140.24,74.7038 1132,68.5C 1131.22,65.5706 1131.39,62.7372 1132.5,60C 1146.24,58.0746 1159.9,55.7413 1173.5,53C 1202.02,44.4947 1229.69,33.828 1256.5,21C 1261.26,20.1902 1265.92,20.5236 1270.5,22C 1275,24.4159 1279.33,27.0825 1283.5,30C 1291.17,37.0444 1298.84,44.0444 1306.5,51C 1316.28,55.5597 1326.28,59.5597 1336.5,63C 1344.83,63.6667 1353.17,63.6667 1361.5,63C 1369.38,61.1507 1377.38,60.1507 1385.5,60C 1395.44,57.4671 1404.94,53.9671 1414,49.5C 1431.82,52.4124 1449.65,55.2457 1467.5,58C 1484.94,71.0512 1504.27,80.3845 1525.5,86C 1538.08,88.3101 1550.74,89.9767 1563.5,91C 1566.17,91.8344 1568.84,92.6677 1571.5,93.5C 1572.58,94.365 1572.75,95.365 1572,96.5C 1568.58,101.412 1565.91,106.746 1564,112.5C 1563.44,113.022 1562.77,113.355 1562,113.5C 1548.35,109.295 1534.51,105.795 1520.5,103C 1511.33,102.045 1502.33,102.878 1493.5,105.5C 1490.78,103.473 1487.78,101.973 1484.5,101C 1476.25,99.1733 1467.92,97.84 1459.5,97C 1435.85,97.7553 1412.18,98.7553 1388.5,100C 1372.86,105.638 1362.7,116.471 1358,132.5C 1357.04,140.512 1356.04,148.512 1355,156.5C 1353.88,158.624 1352.38,160.457 1350.5,162C 1339.41,169.032 1327.41,171.365 1314.5,169C 1307.67,173.139 1306.67,178.472 1311.5,185C 1321.87,191.85 1332.54,198.184 1343.5,204C 1347.02,207.349 1350.35,210.849 1353.5,214.5C 1352,221.76 1350.84,229.093 1350,236.5C 1345.48,247.111 1345.48,257.778 1350,268.5C 1356.37,283.934 1362.53,299.434 1368.5,315C 1365.9,319.695 1363.4,324.529 1361,329.5C 1360.67,333.167 1360.33,336.833 1360,340.5C 1355.96,342.768 1354.62,346.102 1356,350.5C 1357.26,352.594 1359.09,353.594 1361.5,353.5C 1366.58,352.306 1371.58,350.806 1376.5,349C 1378.5,348.333 1380.5,348.333 1382.5,349C 1385.71,353.785 1389.38,358.118 1393.5,362C 1397.92,364.027 1402.08,363.527 1406,360.5C 1412.9,363.517 1420.07,365.517 1427.5,366.5 Z"/></g>
<g><path style="opacity:1" fill="#b99f7f" d="M 1253.5,70.5 C 1254.87,70.3433 1256.21,70.51 1257.5,71C 1264.68,81.172 1274.35,87.8387 1286.5,91C 1298.53,96.5396 1311.2,99.0396 1324.5,98.5C 1322.92,105.722 1322.09,113.056 1322,120.5C 1317.02,127.912 1310.18,132.745 1301.5,135C 1293.83,135.333 1286.17,135.667 1278.5,136C 1276.67,136.5 1275.5,137.667 1275,139.5C 1274.33,165.167 1274.33,190.833 1275,216.5C 1275.37,217.416 1275.87,218.25 1276.5,219C 1288.33,226.167 1300.17,233.333 1312,240.5C 1312.33,257.5 1312.67,274.5 1313,291.5C 1314.87,299.117 1317.54,306.451 1321,313.5C 1321.18,337.543 1321.68,361.543 1322.5,385.5C 1332.15,386.332 1341.82,386.832 1351.5,387C 1353.25,390.834 1355.91,393.834 1359.5,396C 1365.83,396.333 1372.17,396.667 1378.5,397C 1384.48,397.946 1385.81,400.946 1382.5,406C 1344.01,412.231 1305.68,419.231 1267.5,427C 1257.18,434.827 1246.51,442.161 1235.5,449C 1227.49,455.667 1220.99,463.5 1216,472.5C 1214.36,500.438 1214.03,528.438 1215,556.5C 1216.8,561.7 1217.97,567.033 1218.5,572.5C 1217.39,587.021 1215.23,601.354 1212,615.5C 1211.33,643.167 1211.33,670.833 1212,698.5C 1213.35,703.38 1215.85,707.547 1219.5,711C 1231.3,720.734 1243.63,729.734 1256.5,738C 1258.55,740.593 1260.72,743.093 1263,745.5C 1266.33,768.451 1269.33,791.451 1272,814.5C 1272.67,816.5 1273.33,818.5 1274,820.5C 1276.44,821.977 1278.61,823.81 1280.5,826C 1305.83,826.667 1331.17,826.667 1356.5,826C 1364.79,823.922 1372.79,820.922 1380.5,817C 1386.56,816.261 1392.56,816.594 1398.5,818C 1407.46,820.49 1416.46,822.824 1425.5,825C 1432.71,834.914 1438.21,845.747 1442,857.5C 1444.93,863.427 1448.27,869.094 1452,874.5C 1466.53,889.365 1480.7,904.532 1494.5,920C 1500.16,924.496 1506.16,928.496 1512.5,932C 1529.18,940.887 1546.01,949.387 1563,957.5C 1556.28,972.927 1547.95,987.594 1538,1001.5C 1534.97,1004.87 1531.63,1007.87 1528,1010.5C 1525.33,1014.5 1522.67,1018.5 1520,1022.5C 1519.67,1046.17 1519.33,1069.83 1519,1093.5C 1490.28,1076.06 1460.45,1060.56 1429.5,1047C 1426.85,1043.01 1423.19,1040.68 1418.5,1040C 1387.15,1039.13 1355.82,1039.46 1324.5,1041C 1313.12,1042.43 1302.12,1045.26 1291.5,1049.5C 1277.15,1041.66 1263.49,1032.83 1250.5,1023C 1256.08,1015.37 1262.24,1008.2 1269,1001.5C 1270.13,987.552 1270.63,973.552 1270.5,959.5C 1270.33,946.833 1270.17,934.167 1270,921.5C 1267.69,917.42 1264.19,914.92 1259.5,914C 1249.44,912.721 1239.44,911.054 1229.5,909C 1172.5,895.224 1115.5,881.557 1058.5,868C 1045.61,865.495 1032.61,863.828 1019.5,863C 1013.33,860.54 1007,858.54 1000.5,857C 970.833,856.333 941.167,856.333 911.5,857C 907.759,858.738 904.592,861.238 902,864.5C 888.428,881.971 876.095,900.304 865,919.5C 860.167,925.667 855.333,931.833 850.5,938C 848.5,938.667 846.5,938.667 844.5,938C 837.151,935.996 829.817,933.996 822.5,932C 813.092,917.359 802.592,903.525 791,890.5C 786.273,878.988 781.94,867.321 778,855.5C 775.217,851.049 772.05,846.883 768.5,843C 759.43,836.936 750.097,831.269 740.5,826C 735.799,821.634 731.466,816.967 727.5,812C 722.666,808.748 717.666,805.748 712.5,803C 708.623,797.415 705.123,791.582 702,785.5C 697.964,773.077 696.13,760.41 696.5,747.5C 711.976,735.858 727.309,724.025 742.5,712C 755.507,703.828 768.84,696.161 782.5,689C 793.947,681.22 805.114,673.053 816,664.5C 818.377,660.912 820.877,657.412 823.5,654C 826.244,653.197 828.911,652.197 831.5,651C 833.58,647.763 835.08,644.263 836,640.5C 837.622,630.829 838.955,621.162 840,611.5C 851.084,597.078 862.918,583.245 875.5,570C 905.514,560.328 935.181,549.662 964.5,538C 995.043,528.597 1025.38,518.597 1055.5,508C 1083.39,495.745 1110.05,481.411 1135.5,465C 1144.6,463.078 1153.6,460.745 1162.5,458C 1171.59,453.12 1180.93,448.786 1190.5,445C 1197.48,441.23 1201.64,435.397 1203,427.5C 1204.55,379.178 1204.88,330.845 1204,282.5C 1203.4,276.31 1202.07,270.31 1200,264.5C 1198.68,262.513 1196.85,261.346 1194.5,261C 1158.08,260.255 1121.74,260.588 1085.5,262C 1076.07,251.236 1067.4,239.903 1059.5,228C 1066.55,223.806 1073.89,220.139 1081.5,217C 1098.68,210.605 1116.02,204.605 1133.5,199C 1151.93,191.535 1169.43,182.369 1186,171.5C 1188.09,166.372 1189.43,161.038 1190,155.5C 1192.87,153.249 1195.2,150.583 1197,147.5C 1197.5,127.836 1197.67,108.169 1197.5,88.5C 1202.88,87.6559 1208.21,86.4893 1213.5,85C 1226.93,80.1525 1240.26,75.3192 1253.5,70.5 Z"/></g>
<g><path style="opacity:1" fill="#684e3b" d="M 1393.5,321.5 C 1394.87,321.343 1396.21,321.51 1397.5,322C 1394.92,323.25 1392.26,323.584 1389.5,323C 1391.06,322.79 1392.39,322.29 1393.5,321.5 Z"/></g>
<g><path style="opacity:1" fill="#654b3a" d="M 1427.5,366.5 C 1432.54,366.173 1437.54,366.506 1442.5,367.5C 1442.38,368.107 1442.04,368.44 1441.5,368.5C 1436.83,367.833 1432.17,367.167 1427.5,366.5 Z"/></g>
</svg>
