<?xml version="1.0" encoding="UTF-8"?>
<!DOCTYPE svg PUBLIC "-//W3C//DTD SVG 1.1//EN" "http://www.w3.org/Graphics/SVG/1.1/DTD/svg11.dtd">
<svg xmlns="http://www.w3.org/2000/svg" version="1.1" width="2296px" height="1221px" style="shape-rendering:geometricPrecision; text-rendering:geometricPrecision; image-rendering:optimizeQuality; fill-rule:evenodd; clip-rule:evenodd" xmlns:xlink="http://www.w3.org/1999/xlink">
<g><path style="opacity:0.966" fill="#48332c" d="M 1613.5,-0.5 C 1622.17,-0.5 1630.83,-0.5 1639.5,-0.5C 1670.87,11.183 1699.54,27.5163 1725.5,48.5C 1728.39,53.0746 1729.22,58.0746 1728,63.5C 1718.15,96.0604 1710.15,129.06 1704,162.5C 1701.99,175.013 1694.82,182.346 1682.5,184.5C 1675.97,183.242 1669.47,181.909 1663,180.5C 1650.2,182.121 1637.36,183.455 1624.5,184.5C 1621.91,184.473 1619.41,184.139 1617,183.5C 1602.08,189.253 1586.58,192.42 1570.5,193C 1561.84,194.213 1554.18,197.546 1547.5,203C 1536.92,214.312 1527.42,226.479 1519,239.5C 1517.89,241.39 1517.05,243.39 1516.5,245.5C 1517.7,250.601 1519.2,255.601 1521,260.5C 1524.8,263.319 1528.97,265.486 1533.5,267C 1545.28,270.396 1556.95,274.063 1568.5,278C 1570,279.5 1571.5,281 1573,282.5C 1576,289.167 1579,295.833 1582,302.5C 1582.38,307.347 1582.88,312.18 1583.5,317C 1583.37,323.928 1580.37,329.261 1574.5,333C 1566.56,336.279 1559.72,341.112 1554,347.5C 1550.45,353.93 1547.45,360.596 1545,367.5C 1544.32,383.852 1544.66,400.185 1546,416.5C 1554.5,433.669 1568.17,444.002 1587,447.5C 1600.35,446.45 1613.52,444.283 1626.5,441C 1647.27,433.853 1668.27,427.52 1689.5,422C 1698.66,412.922 1709.66,407.922 1722.5,407C 1729.96,417.412 1736.79,428.245 1743,439.5C 1746.67,444.167 1750.33,448.833 1754,453.5C 1755.38,460.37 1753.71,466.37 1749,471.5C 1744.92,482.745 1740.25,493.745 1735,504.5C 1736.1,515.269 1735.44,525.936 1733,536.5C 1728.57,543.647 1722.4,548.814 1714.5,552C 1711.74,555.427 1708.41,558.093 1704.5,560C 1693.13,564.715 1682.8,571.048 1673.5,579C 1662.64,589.862 1650.64,599.195 1637.5,607C 1635.62,609.251 1634.12,611.751 1633,614.5C 1631.73,627.815 1631.4,641.148 1632,654.5C 1635.75,661.002 1639.75,667.335 1644,673.5C 1648.81,678.467 1653.15,683.8 1657,689.5C 1658.32,692.406 1658.65,695.406 1658,698.5C 1656.23,700.596 1654.9,702.929 1654,705.5C 1652.61,707.227 1650.94,708.561 1649,709.5C 1643.17,710.666 1637.34,711.832 1631.5,713C 1624.39,713.657 1617.39,713.324 1610.5,712C 1597.01,738.17 1579.01,760.837 1556.5,780C 1548.22,785.278 1540.22,790.945 1532.5,797C 1517.37,802.565 1502.7,809.232 1488.5,817C 1483.53,818.46 1478.53,819.794 1473.5,821C 1472.07,821.465 1470.9,822.299 1470,823.5C 1456.92,851.334 1449.75,880.501 1448.5,911C 1457.8,915.732 1465.63,922.232 1472,930.5C 1474.23,935.458 1475.73,940.624 1476.5,946C 1476.37,951.764 1474.2,956.597 1470,960.5C 1449.76,974.705 1429.26,988.538 1408.5,1002C 1395.5,1010.33 1381.34,1015.5 1366,1017.5C 1353.65,1017.41 1344.15,1012.25 1337.5,1002C 1322.22,1002.4 1307.39,1000.24 1293,995.5C 1277.58,1006.25 1264.08,1019.09 1252.5,1034C 1263.05,1039.68 1271.55,1047.51 1278,1057.5C 1281.53,1063.22 1284.53,1069.22 1287,1075.5C 1289.55,1088.83 1293.89,1101.49 1300,1113.5C 1300.91,1120.65 1300.24,1127.65 1298,1134.5C 1292.11,1151.62 1284.11,1167.62 1274,1182.5C 1271.17,1185.33 1268.33,1188.17 1265.5,1191C 1255.31,1194.76 1245.31,1199.09 1235.5,1204C 1228.67,1206.61 1221.67,1208.61 1214.5,1210C 1195.05,1211.36 1175.71,1213.69 1156.5,1217C 1153.84,1218.48 1151.18,1219.64 1148.5,1220.5C 1141.17,1220.5 1133.83,1220.5 1126.5,1220.5C 1115.96,1217.59 1105.62,1213.76 1095.5,1209C 1087.08,1204.12 1078.41,1199.79 1069.5,1196C 1062.23,1189.55 1058.39,1181.38 1058,1171.5C 1055.77,1151.45 1053.27,1131.45 1050.5,1111.5C 1034.47,1110.66 1018.81,1107.83 1003.5,1103C 995.983,1102.71 988.483,1102.21 981,1101.5C 959.521,1102.9 938.021,1103.4 916.5,1103C 911.775,1102.49 907.109,1101.66 902.5,1100.5C 897.495,1107.84 893.495,1115.84 890.5,1124.5C 901.669,1130 912.335,1136.34 922.5,1143.5C 926.936,1148.81 928.936,1154.98 928.5,1162C 927.543,1176.2 923.377,1189.37 916,1201.5C 913.207,1204.58 909.707,1206.25 905.5,1206.5C 868.066,1195.29 830.066,1192.46 791.5,1198C 779.312,1200.71 767.312,1204.05 755.5,1208C 750.565,1210.61 745.898,1213.61 741.5,1217C 739.2,1217.66 736.867,1218.16 734.5,1218.5C 717.683,1213.51 701.016,1208.01 684.5,1202C 675.027,1197.18 666.527,1191.01 659,1183.5C 653.829,1172.68 655.162,1162.68 663,1153.5C 667.506,1141.87 667.506,1130.21 663,1118.5C 658.638,1105.94 652.805,1094.11 645.5,1083C 636.908,1079.8 628.242,1076.8 619.5,1074C 615.726,1072.7 612.559,1070.53 610,1067.5C 607.393,1062.62 605.06,1057.62 603,1052.5C 600.617,1041.63 597.617,1030.97 594,1020.5C 592.959,1015.56 593.626,1010.89 596,1006.5C 604.206,999.962 611.372,992.462 617.5,984C 609.655,973.465 599.321,967.132 586.5,965C 583.705,963.207 581.205,961.04 579,958.5C 572.501,940.338 564.834,922.672 556,905.5C 552.613,893.607 556.946,886.274 569,883.5C 571.158,884.451 573.325,884.951 575.5,885C 589.412,867.745 605.745,853.412 624.5,842C 633.548,835.525 642.048,836.025 650,843.5C 655.68,852.866 661.346,862.199 667,871.5C 667.667,875.833 667.667,880.167 667,884.5C 663.386,893.85 662.053,903.516 663,913.5C 666.447,920.505 669.114,927.838 671,935.5C 672.667,938.167 674.333,940.833 676,943.5C 682.292,948.123 688.292,953.123 694,958.5C 698.842,967.185 701.842,976.519 703,986.5C 706.074,990.581 709.574,994.414 713.5,998C 719.469,1000.98 725.469,1003.98 731.5,1007C 737.754,1007.78 743.754,1009.45 749.5,1012C 757.875,1012.74 766.208,1012.41 774.5,1011C 782.5,1007 790.5,1003 798.5,999C 802.578,994.251 807.245,990.251 812.5,987C 820.39,984.115 828.057,980.782 835.5,977C 839.833,972.667 844.167,968.333 848.5,964C 839.125,965.095 830.958,962.595 824,956.5C 818.799,942.89 814.799,928.89 812,914.5C 810.212,897.282 818.045,888.449 835.5,888C 847.527,883.906 858.027,877.406 867,868.5C 871.759,861.985 876.759,855.652 882,849.5C 886.597,842.635 890.93,835.635 895,828.5C 894.47,821.584 891.97,815.417 887.5,810C 869.339,803.375 850.672,801.375 831.5,804C 817.353,809.743 803.02,814.909 788.5,819.5C 783.186,819.258 778.686,817.258 775,813.5C 771.599,808.423 768.599,803.089 766,797.5C 761.258,793.546 756.424,789.713 751.5,786C 739.066,771.623 727.232,756.789 716,741.5C 712.029,734.304 711.696,726.971 715,719.5C 717,716.167 719,712.833 721,709.5C 724.181,699.773 727.514,690.106 731,680.5C 736.156,672.006 743.656,668.506 753.5,670C 773.662,679.167 794.328,687.167 815.5,694C 818.868,694.543 822.201,694.376 825.5,693.5C 825.5,694.833 825.5,696.167 825.5,697.5C 828.144,697.16 830.477,697.827 832.5,699.5C 851.915,694.646 871.248,689.48 890.5,684C 904.292,677.271 917.958,670.271 931.5,663C 940.559,656.942 947.892,649.276 953.5,640C 951.729,634.559 948.729,629.892 944.5,626C 939.113,625.13 933.78,624.13 928.5,623C 924.839,620.337 922.339,616.837 921,612.5C 920.042,602.175 919.709,591.842 920,581.5C 921.474,576.026 924.974,572.526 930.5,571C 939.798,568.54 949.131,566.207 958.5,564C 972.983,562.065 987.316,559.399 1001.5,556C 1016.58,550.297 1030.25,542.297 1042.5,532C 1045.03,530.578 1047.7,530.245 1050.5,531C 1058.89,533.514 1067.23,536.181 1075.5,539C 1083.44,552.021 1092.94,563.854 1104,574.5C 1104.21,581.104 1103.37,587.604 1101.5,594C 1102.72,599.268 1104.88,604.101 1108,608.5C 1112.17,612.667 1116.33,616.833 1120.5,621C 1128.42,624.307 1136.59,626.807 1145,628.5C 1153.87,626.32 1162.37,623.154 1170.5,619C 1173.5,618.333 1176.5,618.333 1179.5,619C 1187.27,624.133 1194.1,630.3 1200,637.5C 1197.46,629.293 1198.13,621.293 1202,613.5C 1203.17,612.333 1204.33,611.167 1205.5,610C 1215.95,605.943 1226.28,601.609 1236.5,597C 1243.36,590.468 1251.03,585.134 1259.5,581C 1269.65,578.389 1279.49,579.222 1289,583.5C 1292.88,582.57 1296.71,581.404 1300.5,580C 1302.83,577.5 1305.17,575 1307.5,572.5C 1304.78,565.696 1304.95,559.029 1308,552.5C 1314.34,544.822 1321.84,538.655 1330.5,534C 1343.59,520.578 1352.92,504.911 1358.5,487C 1358.33,476.825 1353.16,470.992 1343,469.5C 1338.65,470.074 1334.32,470.74 1330,471.5C 1328.77,471.355 1327.61,471.022 1326.5,470.5C 1316.1,473.753 1307.93,470.753 1302,461.5C 1298.89,456.156 1296.55,450.489 1295,444.5C 1290.65,436.468 1286.32,428.468 1282,420.5C 1281.13,415.291 1281.8,410.291 1284,405.5C 1293.5,397.333 1303,389.167 1312.5,381C 1318.51,376.993 1324.84,373.493 1331.5,370.5C 1332.66,363.858 1332.83,357.192 1332,350.5C 1329.56,347.952 1327.89,344.952 1327,341.5C 1328.49,328.478 1325.82,316.478 1319,305.5C 1311.5,300 1304,294.5 1296.5,289C 1285.39,285.576 1274.06,284.243 1262.5,285C 1241.99,290.278 1222.66,298.278 1204.5,309C 1200.96,313.916 1197.79,319.083 1195,324.5C 1190.16,328.328 1186.49,332.995 1184,338.5C 1182.42,340.041 1180.59,341.208 1178.5,342C 1168.26,343.673 1158.59,342.006 1149.5,337C 1146.65,326.465 1141.82,316.965 1135,308.5C 1112.72,283.765 1085.89,265.599 1054.5,254C 1042.49,250.874 1030.65,247.374 1019,243.5C 1018.93,238.172 1019.27,232.838 1020,227.5C 1021.7,216.005 1024.03,204.672 1027,193.5C 1027.86,185.516 1028.52,177.516 1029,169.5C 1030.47,166.734 1032.3,164.234 1034.5,162C 1049.97,157.4 1065.64,153.4 1081.5,150C 1085.74,148.098 1089.74,145.765 1093.5,143C 1095.79,142.178 1098.12,141.511 1100.5,141C 1104.38,140.842 1108.21,141.342 1112,142.5C 1123.06,141.526 1132.06,145.526 1139,154.5C 1140.54,158.419 1142.71,161.919 1145.5,165C 1158.39,168.405 1170.39,173.738 1181.5,181C 1184.07,181.958 1186.74,182.458 1189.5,182.5C 1195.82,181.173 1202.15,179.839 1208.5,178.5C 1215.84,178.916 1221.34,182.249 1225,188.5C 1227.33,193.167 1229.67,197.833 1232,202.5C 1235.31,206.271 1239.31,207.604 1244,206.5C 1243.92,196.548 1246.26,187.215 1251,178.5C 1256.03,174.1 1261.53,173.433 1267.5,176.5C 1276.91,171.527 1286.91,169.36 1297.5,170C 1299.73,170.561 1301.73,171.561 1303.5,173C 1318.1,188.781 1334.1,190.448 1351.5,178C 1359.62,171.183 1367.45,164.016 1375,156.5C 1379.42,146.082 1381.92,135.249 1382.5,124C 1377.08,122.046 1371.41,121.046 1365.5,121C 1358.12,119.951 1353.62,115.784 1352,108.5C 1345.24,79.2887 1355.74,59.7887 1383.5,50C 1404.88,46.8218 1425.55,41.1551 1445.5,33C 1449.22,29.2792 1452.89,25.6126 1456.5,22C 1464.48,20.3404 1472.14,17.6738 1479.5,14C 1494.98,7.97024 1510.98,5.30357 1527.5,6C 1530.8,7.65111 1534.14,9.31778 1537.5,11C 1553.37,13.8956 1569.37,14.8956 1585.5,14C 1595.9,11.0627 1605.24,6.22937 1613.5,-0.5 Z"/></g>
<g><path style="opacity:1" fill="#aa865b" d="M 1681.5,48.5 C 1681.97,49.9063 1682.97,50.573 1684.5,50.5C 1686.17,51.1667 1687.83,51.8333 1689.5,52.5C 1690.26,56.767 1691.59,60.767 1693.5,64.5C 1693.5,66.8333 1693.5,69.1667 1693.5,71.5C 1691.72,74.5046 1690.72,77.8379 1690.5,81.5C 1688.06,84.7202 1686.39,88.3869 1685.5,92.5C 1681.86,100.085 1679.19,108.085 1677.5,116.5C 1675.06,121.5 1673.39,126.834 1672.5,132.5C 1670.39,136.502 1669.06,140.835 1668.5,145.5C 1667.7,146.952 1667.2,148.618 1667,150.5C 1658.74,149.172 1650.57,149.172 1642.5,150.5C 1639.85,150.41 1637.51,151.076 1635.5,152.5C 1630.56,153.827 1625.56,154.827 1620.5,155.5C 1617.85,155.41 1615.51,156.076 1613.5,157.5C 1602.37,160.781 1591.04,163.115 1579.5,164.5C 1573.95,164.527 1568.62,165.194 1563.5,166.5C 1553.25,169.609 1542.91,172.776 1532.5,176C 1520.88,180.954 1511.71,188.787 1505,199.5C 1501.33,207.167 1497.67,214.833 1494,222.5C 1492.25,227.841 1491.08,233.174 1490.5,238.5C 1489.35,245.321 1489.18,252.321 1490,259.5C 1490.23,260.737 1490.73,261.737 1491.5,262.5C 1497,277.328 1507.33,286.995 1522.5,291.5C 1525.94,293.204 1529.61,294.538 1533.5,295.5C 1533.83,295.5 1534.17,295.5 1534.5,295.5C 1538.08,297.806 1542.08,299.139 1546.5,299.5C 1552.16,299.567 1554.5,302.234 1553.5,307.5C 1549.55,308.806 1545.89,310.639 1542.5,313C 1532.84,321.483 1524.51,330.983 1517.5,341.5C 1515.87,343.026 1515.04,345.026 1515,347.5C 1514.24,372.868 1514.9,398.201 1517,423.5C 1517.28,424.416 1517.78,425.082 1518.5,425.5C 1526.12,442.29 1538.12,455.123 1554.5,464C 1562.89,467.293 1571.23,470.46 1579.5,473.5C 1581.35,474.837 1583.52,475.503 1586,475.5C 1590.16,474.927 1594.32,474.427 1598.5,474C 1599.42,473.722 1600.08,473.222 1600.5,472.5C 1614.16,469.611 1627.83,466.611 1641.5,463.5C 1648.22,462.905 1654.55,461.238 1660.5,458.5C 1672.25,453.308 1684.59,449.808 1697.5,448C 1702.58,445.42 1707.24,442.253 1711.5,438.5C 1715.35,447.03 1719.35,455.53 1723.5,464C 1717.2,471.109 1712.86,479.276 1710.5,488.5C 1708.93,490.102 1708.26,492.102 1708.5,494.5C 1708.5,494.833 1708.5,495.167 1708.5,495.5C 1707.35,500.65 1707.18,505.984 1708,511.5C 1708.06,514.851 1708.89,517.851 1710.5,520.5C 1711.44,522.466 1712.44,524.466 1713.5,526.5C 1713.17,526.833 1712.83,527.167 1712.5,527.5C 1703.71,531.487 1694.71,534.987 1685.5,538C 1667.7,547.913 1651.7,560.246 1637.5,575C 1629.03,580.323 1621.2,586.49 1614,593.5C 1611.23,598.039 1608.73,602.706 1606.5,607.5C 1605.56,619.651 1604.9,631.818 1604.5,644C 1602.8,655.097 1606.63,663.597 1616,669.5C 1619.84,677.002 1625.01,683.502 1631.5,689C 1625.83,687.686 1620.17,686.019 1614.5,684C 1608.61,682.963 1602.94,683.629 1597.5,686C 1592.67,689.5 1588.5,693.667 1585,698.5C 1579.86,709.95 1573.53,720.617 1566,730.5C 1541.58,747.633 1516.08,763.133 1489.5,777C 1473.92,779.861 1458.92,784.528 1444.5,791C 1442.67,792.833 1440.83,794.667 1439,796.5C 1433.61,817.958 1427.61,839.291 1421,860.5C 1417.91,878.221 1415.74,896.054 1414.5,914C 1412.57,930.403 1419.9,938.069 1436.5,937C 1439.26,938.711 1441.59,940.878 1443.5,943.5C 1425.1,959.051 1405.44,972.885 1384.5,985C 1379.81,987.729 1374.81,989.563 1369.5,990.5C 1369.07,983.893 1365.73,979.393 1359.5,977C 1342.29,973.913 1324.96,972.079 1307.5,971.5C 1307.13,965.764 1304.46,961.431 1299.5,958.5C 1298.65,956.907 1297.32,955.74 1295.5,955C 1290.98,954.186 1286.65,954.353 1282.5,955.5C 1265.77,963.649 1250.93,974.649 1238,988.5C 1229.28,998.88 1220.95,1009.55 1213,1020.5C 1208.23,1026.32 1205.73,1032.98 1205.5,1040.5C 1205.08,1047.99 1208.08,1053.66 1214.5,1057.5C 1215.6,1058.56 1216.93,1059.39 1218.5,1060C 1221.82,1060.5 1225.15,1060.67 1228.5,1060.5C 1231.52,1060.7 1234.52,1061.04 1237.5,1061.5C 1240.82,1077.15 1249.49,1088.82 1263.5,1096.5C 1264.13,1097.42 1264.46,1098.42 1264.5,1099.5C 1264.41,1102.15 1265.08,1104.49 1266.5,1106.5C 1266.35,1109.72 1267.35,1112.38 1269.5,1114.5C 1271.14,1116.29 1272.14,1118.45 1272.5,1121C 1269.38,1134.07 1264.21,1146.24 1257,1157.5C 1255.56,1159.16 1253.72,1159.82 1251.5,1159.5C 1246.3,1160.01 1241.63,1161.68 1237.5,1164.5C 1235.5,1164.83 1233.5,1165.17 1231.5,1165.5C 1228.93,1165.72 1226.6,1166.39 1224.5,1167.5C 1222.79,1168.74 1220.79,1169.41 1218.5,1169.5C 1215.93,1169.72 1213.6,1170.39 1211.5,1171.5C 1197.7,1175.28 1183.7,1178.78 1169.5,1182C 1163.01,1183.94 1156.68,1186.27 1150.5,1189C 1145.13,1189.68 1139.8,1189.51 1134.5,1188.5C 1132.49,1187.08 1130.15,1186.41 1127.5,1186.5C 1119.13,1183.88 1111.13,1180.38 1103.5,1176C 1094.16,1165.46 1091.16,1153.3 1094.5,1139.5C 1095.03,1126.41 1091.36,1114.75 1083.5,1104.5C 1084.07,1098.74 1083.07,1093.41 1080.5,1088.5C 1077.61,1082.61 1072.94,1078.95 1066.5,1077.5C 1066.08,1076.78 1065.42,1076.28 1064.5,1076C 1056.51,1075.5 1048.51,1075.33 1040.5,1075.5C 1029.78,1075.19 1019.45,1073.02 1009.5,1069C 1001.64,1069.99 994.97,1067.82 989.5,1062.5C 987.824,1060.17 985.491,1059.17 982.5,1059.5C 964.047,1060.58 945.713,1062.74 927.5,1066C 923.179,1066.5 918.846,1066.67 914.5,1066.5C 911.833,1066.17 909.167,1065.83 906.5,1065.5C 895.941,1061.41 887.108,1063.74 880,1072.5C 870.201,1090.23 863.367,1109.06 859.5,1129C 859.844,1134.03 861.844,1138.36 865.5,1142C 872.217,1144.19 878.551,1147.19 884.5,1151C 891.095,1153.25 897.762,1155.25 904.5,1157C 905.942,1157.38 906.942,1158.21 907.5,1159.5C 908.117,1165.6 907.45,1171.26 905.5,1176.5C 903.901,1176.77 902.568,1176.43 901.5,1175.5C 898.146,1173.74 894.479,1172.74 890.5,1172.5C 883.677,1171.8 877.011,1170.47 870.5,1168.5C 867.781,1167.09 864.781,1166.42 861.5,1166.5C 858.155,1164.78 854.489,1164.12 850.5,1164.5C 848.585,1164.78 846.919,1164.45 845.5,1163.5C 841.764,1162.01 837.764,1161.34 833.5,1161.5C 832.833,1161.5 832.167,1161.5 831.5,1161.5C 819.674,1160.34 807.674,1160.17 795.5,1161C 791.867,1161.15 788.534,1161.98 785.5,1163.5C 784.833,1163.5 784.167,1163.5 783.5,1163.5C 778.484,1164.5 773.484,1165.67 768.5,1167C 767.944,1167.38 767.611,1167.88 767.5,1168.5C 766.5,1168.5 765.5,1168.5 764.5,1168.5C 761.284,1168.35 758.617,1169.35 756.5,1171.5C 747.992,1173.5 739.825,1176.5 732,1180.5C 728.892,1179.97 726.059,1178.97 723.5,1177.5C 716.767,1174.59 709.767,1172.26 702.5,1170.5C 700.251,1169.92 698.585,1168.59 697.5,1166.5C 697.993,1164.19 698.326,1161.86 698.5,1159.5C 698.717,1155.29 699.383,1151.29 700.5,1147.5C 701.164,1144.85 701.498,1142.02 701.5,1139C 701.714,1134.87 701.048,1131.03 699.5,1127.5C 693.652,1098.28 678.652,1075.11 654.5,1058C 646.458,1054.31 638.124,1052.48 629.5,1052.5C 629.149,1048.32 628.482,1044.32 627.5,1040.5C 625.837,1032.87 624.671,1025.2 624,1017.5C 633.659,1010.17 640.659,1000.84 645,989.5C 646.028,978.918 642.861,969.752 635.5,962C 625.058,952.032 613.225,944.198 600,938.5C 596.554,926.978 592.054,915.978 586.5,905.5C 601.589,895.245 616.256,884.412 630.5,873C 631.5,872.333 632.5,872.333 633.5,873C 634.848,875.01 636.182,877.01 637.5,879C 632.981,893.654 632.315,908.487 635.5,923.5C 635.41,926.152 636.076,928.485 637.5,930.5C 642.228,944.442 649.895,956.609 660.5,967C 664.75,969.374 668.916,971.874 673,974.5C 673.667,975.833 674.333,977.167 675,978.5C 676.226,985.523 677.559,992.523 679,999.5C 681.075,1003.58 683.908,1007.08 687.5,1010C 711.239,1026.54 737.573,1035.04 766.5,1035.5C 771.731,1035.56 776.731,1034.89 781.5,1033.5C 785.817,1031.42 790.484,1030.25 795.5,1030C 798.167,1028.67 800.833,1027.33 803.5,1026C 808.138,1021.35 813.471,1017.68 819.5,1015C 824.698,1008.73 831.364,1005.07 839.5,1004C 847.433,999.066 855.599,994.566 864,990.5C 871.962,994.859 878.962,993.526 885,986.5C 891.821,974.991 892.155,963.324 886,951.5C 881.581,947.15 877.248,942.816 873,938.5C 869.834,933.196 868.167,927.529 868,921.5C 871.506,914.983 876.173,909.316 882,904.5C 896.985,885.2 910.985,865.2 924,844.5C 926.399,836.328 927.066,827.994 926,819.5C 923.129,813.076 920.795,806.409 919,799.5C 910.311,785.886 898.144,776.72 882.5,772C 873.995,769.081 865.328,766.748 856.5,765C 847.172,764.962 837.838,765.296 828.5,766C 826.791,767.545 824.791,768.378 822.5,768.5C 809.521,766.672 796.687,764.338 784,761.5C 776.391,749.559 768.391,737.892 760,726.5C 759.018,725.241 758.685,723.908 759,722.5C 761.797,718.701 764.964,715.201 768.5,712C 769.729,711.219 771.062,710.719 772.5,710.5C 785.774,716.436 799.774,719.103 814.5,718.5C 830.664,719.637 846.664,718.304 862.5,714.5C 868.3,712.804 874.3,711.471 880.5,710.5C 883.152,710.59 885.485,709.924 887.5,708.5C 892.703,707.991 897.37,706.324 901.5,703.5C 922.202,695.566 941.369,684.9 959,671.5C 963.623,665.208 968.623,659.208 974,653.5C 978.31,644.382 978.644,635.049 975,625.5C 971.333,619.833 967.667,614.167 964,608.5C 961.914,605.906 959.414,603.906 956.5,602.5C 955.365,600.787 953.698,600.12 951.5,600.5C 950.432,599.566 949.099,599.232 947.5,599.5C 947.5,597.833 947.5,596.167 947.5,594.5C 953.187,592.248 959.187,590.914 965.5,590.5C 974.051,589.709 982.384,588.376 990.5,586.5C 1012.39,581.383 1032.73,572.716 1051.5,560.5C 1059.09,569.929 1067.59,578.595 1077,586.5C 1076.23,602.515 1081.23,616.515 1092,628.5C 1099.07,637.277 1107.9,643.443 1118.5,647C 1126.75,648.976 1134.92,651.143 1143,653.5C 1154.49,651.921 1165.33,648.421 1175.5,643C 1177.45,642.009 1179.45,641.675 1181.5,642C 1186.95,651.121 1194.12,658.621 1203,664.5C 1205.69,670.197 1209.52,675.03 1214.5,679C 1219.33,679.847 1222.33,677.847 1223.5,673C 1222.83,670 1222.17,667 1221.5,664C 1222.99,654.024 1222.32,644.19 1219.5,634.5C 1222.47,633.215 1225.47,631.882 1228.5,630.5C 1230.03,630.573 1231.03,629.906 1231.5,628.5C 1234.58,628.084 1237.58,627.417 1240.5,626.5C 1245.19,626.449 1249.52,625.449 1253.5,623.5C 1254.92,622.549 1256.59,622.216 1258.5,622.5C 1261.95,621.917 1264.95,620.584 1267.5,618.5C 1272.16,615.659 1277.16,613.492 1282.5,612C 1284.73,609.767 1286.9,607.6 1289,605.5C 1294.9,609.538 1300.74,613.705 1306.5,618C 1309.5,618.667 1312.5,618.667 1315.5,618C 1317.71,616.127 1319.54,613.96 1321,611.5C 1321.33,606.833 1321.67,602.167 1322,597.5C 1322.38,596.944 1322.88,596.611 1323.5,596.5C 1327.25,595.386 1330.92,594.386 1334.5,593.5C 1339.19,591.824 1343.19,589.158 1346.5,585.5C 1347.76,584.486 1348.43,582.986 1348.5,581C 1348.49,579.293 1348.16,577.793 1347.5,576.5C 1346.81,573.635 1345.14,571.468 1342.5,570C 1338.84,569.171 1335.51,567.671 1332.5,565.5C 1336.93,559.275 1342.6,554.442 1349.5,551C 1355.61,546.524 1361.44,541.691 1367,536.5C 1368.92,533.102 1369.92,529.435 1370,525.5C 1373.96,519.916 1377.13,513.916 1379.5,507.5C 1381.99,504.374 1383.32,500.708 1383.5,496.5C 1384.4,495.791 1384.74,494.791 1384.5,493.5C 1385.49,487.685 1386.16,481.685 1386.5,475.5C 1386.69,471.092 1385.69,467.092 1383.5,463.5C 1379.13,453.626 1372.13,446.126 1362.5,441C 1359.9,440.08 1357.23,439.413 1354.5,439C 1346.42,438.401 1338.42,438.401 1330.5,439C 1325.82,434.48 1323.82,428.98 1324.5,422.5C 1338.89,417.77 1349.55,408.77 1356.5,395.5C 1357.92,393.485 1358.59,391.152 1358.5,388.5C 1359.35,379.195 1359.69,369.861 1359.5,360.5C 1359.56,355.924 1358.9,351.591 1357.5,347.5C 1355.23,342.366 1353.4,337.033 1352,331.5C 1350.62,330.449 1349.62,329.116 1349,327.5C 1347.62,315.019 1343.29,303.686 1336,293.5C 1328.89,288.022 1322.05,282.189 1315.5,276C 1311.77,273.807 1308.1,271.64 1304.5,269.5C 1300.21,267.184 1295.54,265.85 1290.5,265.5C 1288.4,264.388 1286.07,263.721 1283.5,263.5C 1279.41,262.105 1275.08,261.438 1270.5,261.5C 1265.83,261.5 1261.17,261.5 1256.5,261.5C 1251.26,262.341 1246.26,263.674 1241.5,265.5C 1237.64,265.77 1234.31,267.103 1231.5,269.5C 1228.89,270.371 1226.22,271.037 1223.5,271.5C 1221.21,271.595 1219.21,272.262 1217.5,273.5C 1215.82,275.008 1213.82,276.008 1211.5,276.5C 1209.97,276.427 1208.97,277.094 1208.5,278.5C 1205.6,280.783 1202.26,282.283 1198.5,283C 1191.93,287.364 1186.09,292.53 1181,298.5C 1179.37,302.289 1177.54,305.956 1175.5,309.5C 1172.89,310.652 1170.23,310.818 1167.5,310C 1162.63,308.389 1157.97,306.556 1153.5,304.5C 1153.88,300.511 1153.22,296.845 1151.5,293.5C 1150.13,291.133 1148.13,289.467 1145.5,288.5C 1141,280.843 1136.5,273.176 1132,265.5C 1124.22,256.712 1115.06,249.879 1104.5,245C 1097.65,242.914 1090.65,241.58 1083.5,241C 1075.18,234.507 1066.52,228.507 1057.5,223C 1052.75,219.856 1050.75,215.689 1051.5,210.5C 1053.01,207.456 1053.68,204.122 1053.5,200.5C 1055.18,197.14 1056.85,193.807 1058.5,190.5C 1059.91,190.027 1060.57,189.027 1060.5,187.5C 1062.44,182.559 1065.77,178.892 1070.5,176.5C 1073.73,176.324 1076.73,175.657 1079.5,174.5C 1087.18,173.326 1094.18,170.493 1100.5,166C 1104.5,165.333 1108.5,165.333 1112.5,166C 1115.93,170.848 1119.59,175.515 1123.5,180C 1127.48,183.155 1131.81,185.655 1136.5,187.5C 1141.53,190.068 1146.86,192.068 1152.5,193.5C 1159.93,197.051 1167.27,200.884 1174.5,205C 1177.17,205.667 1179.83,206.333 1182.5,207C 1190.9,206.876 1199.23,206.209 1207.5,205C 1213.31,221.416 1224.98,228.416 1242.5,226C 1252.68,224.099 1260.01,218.599 1264.5,209.5C 1266.6,206.592 1267.6,203.258 1267.5,199.5C 1267.47,197.418 1268.14,195.584 1269.5,194C 1276.5,193.256 1283.5,192.922 1290.5,193C 1307.74,211.061 1328.08,215.728 1351.5,207C 1367.67,199.815 1381.17,189.315 1392,175.5C 1397.54,167.297 1402.2,158.631 1406,149.5C 1406.36,139.992 1406.86,130.492 1407.5,121C 1407.96,108.794 1402.29,101.128 1390.5,98C 1385.91,96.7748 1381.25,96.2748 1376.5,96.5C 1374.94,89.0441 1376.94,82.8774 1382.5,78C 1385.71,77.7261 1388.38,76.3927 1390.5,74C 1393.54,73.6371 1396.54,73.1371 1399.5,72.5C 1403.36,72.1916 1407.03,71.5249 1410.5,70.5C 1429.88,68.5839 1446.21,60.5839 1459.5,46.5C 1465.03,45.1241 1470.36,43.4575 1475.5,41.5C 1480.62,40.0113 1485.95,39.0113 1491.5,38.5C 1494.43,38.4349 1497.09,37.7682 1499.5,36.5C 1501.99,35.2264 1504.66,34.5597 1507.5,34.5C 1511.21,34.577 1514.88,34.2436 1518.5,33.5C 1523.17,35.5 1527.83,37.5 1532.5,39.5C 1535.22,40.913 1538.22,41.5797 1541.5,41.5C 1541.83,41.5 1542.17,41.5 1542.5,41.5C 1557.99,42.6613 1573.66,42.828 1589.5,42C 1594.23,41.885 1598.57,40.7183 1602.5,38.5C 1611.31,34.55 1619.81,29.8833 1628,24.5C 1631.5,25.6667 1635,26.8333 1638.5,28C 1652.6,35.523 1666.94,42.3564 1681.5,48.5 Z"/></g>
<g><path style="opacity:1" fill="#87684a" d="M 1518.5,33.5 C 1514.88,34.2436 1511.21,34.577 1507.5,34.5C 1510.14,33.579 1512.97,32.9123 1516,32.5C 1517.07,32.528 1517.9,32.8614 1518.5,33.5 Z"/></g>
<g><path style="opacity:1" fill="#85674a" d="M 1499.5,36.5 C 1497.09,37.7682 1494.43,38.4349 1491.5,38.5C 1493.84,36.9605 1496.5,36.2938 1499.5,36.5 Z"/></g>
<g><path style="opacity:1" fill="#86674a" d="M 1532.5,39.5 C 1535.78,39.4203 1538.78,40.087 1541.5,41.5C 1538.22,41.5797 1535.22,40.913 1532.5,39.5 Z"/></g>
<g><path style="opacity:1" fill="#826448" d="M 1602.5,38.5 C 1598.57,40.7183 1594.23,41.885 1589.5,42C 1573.66,42.828 1557.99,42.6613 1542.5,41.5C 1557.5,41.6666 1572.5,41.4999 1587.5,41C 1592.54,40.3222 1597.54,39.4889 1602.5,38.5 Z"/></g>
<g><path style="opacity:1" fill="#806247" d="M 1475.5,41.5 C 1470.36,43.4575 1465.03,45.1241 1459.5,46.5C 1460.35,45.0337 1461.68,44.2004 1463.5,44C 1467.45,42.846 1471.45,42.0127 1475.5,41.5 Z"/></g>
<g><path style="opacity:1" fill="#775b42" d="M 1681.5,48.5 C 1683.03,48.427 1684.03,49.0937 1684.5,50.5C 1682.97,50.573 1681.97,49.9063 1681.5,48.5 Z"/></g>
<g><path style="opacity:1" fill="#7f6247" d="M 1689.5,52.5 C 1691.81,56.0845 1693.14,60.0845 1693.5,64.5C 1691.59,60.767 1690.26,56.767 1689.5,52.5 Z"/></g>
<g><path style="opacity:1" fill="#7f6247" d="M 1410.5,70.5 C 1407.03,71.5249 1403.36,72.1916 1399.5,72.5C 1399.92,71.7784 1400.58,71.2784 1401.5,71C 1404.48,70.502 1407.48,70.3354 1410.5,70.5 Z"/></g>
<g><path style="opacity:1" fill="#6b513d" d="M 1693.5,71.5 C 1693.28,75.1621 1692.28,78.4954 1690.5,81.5C 1690.72,77.8379 1691.72,74.5046 1693.5,71.5 Z"/></g>
<g><path style="opacity:1" fill="#b99f7f" d="M 1626.5,74.5 C 1632.96,75.4002 1638.63,77.9002 1643.5,82C 1639.23,92.7532 1635.9,103.753 1633.5,115C 1625.83,115.333 1618.17,115.667 1610.5,116C 1590.95,119.852 1571.62,124.519 1552.5,130C 1526.99,130.929 1503.33,137.929 1481.5,151C 1476.58,155.014 1472.75,159.848 1470,165.5C 1466,174.167 1462,182.833 1458,191.5C 1456.97,195.773 1456.3,200.106 1456,204.5C 1455.33,233.5 1455.33,262.5 1456,291.5C 1457.95,306.729 1466.12,317.062 1480.5,322.5C 1481.12,364.842 1481.95,407.175 1483,449.5C 1483.33,453.167 1483.67,456.833 1484,460.5C 1490.2,474.042 1499.37,485.209 1511.5,494C 1522.51,499.448 1533.84,504.115 1545.5,508C 1572.83,508.667 1600.17,508.667 1627.5,508C 1635.23,506.546 1642.89,505.213 1650.5,504C 1636.07,512.085 1623.07,522.085 1611.5,534C 1602.72,541.443 1593.39,548.109 1583.5,554C 1578.51,560.137 1574.68,566.971 1572,574.5C 1570.72,599.816 1570.22,625.15 1570.5,650.5C 1563.68,650.996 1558.18,653.996 1554,659.5C 1549.14,667.212 1544.81,675.212 1541,683.5C 1538,687.5 1535,691.5 1532,695.5C 1506.75,713.55 1480.25,729.716 1452.5,744C 1439.41,746.253 1426.74,749.92 1414.5,755C 1408.67,756.833 1404.83,760.667 1403,766.5C 1401.02,782.474 1396.68,797.808 1390,812.5C 1381.06,851.654 1377.39,891.321 1379,931.5C 1371.45,938.244 1362.62,940.411 1352.5,938C 1349.5,937.667 1346.5,937.333 1343.5,937C 1341.29,933.732 1339.46,930.232 1338,926.5C 1334.86,924.014 1331.36,922.181 1327.5,921C 1301.5,920.333 1275.5,920.333 1249.5,921C 1231.53,928.621 1216.03,939.787 1203,954.5C 1195.72,964.785 1188.05,974.785 1180,984.5C 1175.37,990.436 1172.37,997.103 1171,1004.5C 1170.04,1030.22 1170.37,1055.88 1172,1081.5C 1173,1087.16 1176.16,1090.99 1181.5,1093C 1188.18,1093.95 1194.85,1094.95 1201.5,1096C 1202.33,1096.83 1203.17,1097.67 1204,1098.5C 1206.48,1108.96 1211.64,1117.79 1219.5,1125C 1196.48,1132.34 1173.15,1138.67 1149.5,1144C 1144.32,1144.67 1139.82,1143.17 1136,1139.5C 1132.83,1135.16 1130.16,1130.49 1128,1125.5C 1127.9,1112.45 1127.23,1099.45 1126,1086.5C 1123.86,1080.89 1121.19,1075.55 1118,1070.5C 1116.97,1066.23 1116.3,1061.89 1116,1057.5C 1114.67,1050.18 1110.51,1045.34 1103.5,1043C 1091.86,1041.97 1080.19,1041.31 1068.5,1041C 1060.61,1039.89 1052.94,1037.89 1045.5,1035C 1041.5,1034.67 1037.5,1034.33 1033.5,1034C 1028.83,1031.33 1024.17,1028.67 1019.5,1026C 989.833,1025.33 960.167,1025.33 930.5,1026C 904.725,1036.89 878.725,1047.22 852.5,1057C 846.046,1059.73 839.712,1062.73 833.5,1066C 830.02,1072.8 827.52,1079.97 826,1087.5C 825.5,1100.5 825.333,1113.5 825.5,1126.5C 806.164,1126.33 786.83,1126.5 767.5,1127C 756.33,1127.63 745.496,1129.8 735,1133.5C 734.667,1120.17 734.333,1106.83 734,1093.5C 732.497,1085.31 729.997,1077.48 726.5,1070C 753.562,1069.97 780.562,1069.31 807.5,1068C 805.485,1066.44 805.152,1064.61 806.5,1062.5C 811.954,1060.27 817.287,1057.77 822.5,1055C 836.902,1045.6 851.569,1036.6 866.5,1028C 886.138,1019.76 905.305,1010.6 924,1000.5C 924.333,976.167 924.667,951.833 925,927.5C 936.778,912.387 947.778,896.72 958,880.5C 958.988,877.576 959.654,874.576 960,871.5C 960.667,843.167 960.667,814.833 960,786.5C 957.508,776.355 953.842,766.688 949,757.5C 942.48,750.154 934.647,744.654 925.5,741C 948.71,734.394 970.043,724.061 989.5,710C 994.258,703.238 999.758,697.071 1006,691.5C 1008.41,688.185 1010.08,684.518 1011,680.5C 1011.5,660.836 1011.67,641.169 1011.5,621.5C 1020.05,621.469 1028.39,620.135 1036.5,617.5C 1038.42,618.711 1040.26,620.044 1042,621.5C 1041.87,633.633 1044.87,644.967 1051,655.5C 1059.89,667.064 1071.06,675.564 1084.5,681C 1090.34,682.165 1096,683.832 1101.5,686C 1119.17,686.333 1136.83,686.667 1154.5,687C 1158.36,691.524 1162.86,695.358 1168,698.5C 1170.77,704.231 1174.61,709.065 1179.5,713C 1204.83,713.667 1230.17,713.667 1255.5,713C 1256.19,711.933 1256.69,710.766 1257,709.5C 1257.18,695.259 1257.68,681.092 1258.5,667C 1265.75,662.042 1273.75,659.376 1282.5,659C 1288.99,657.462 1295.32,655.462 1301.5,653C 1317.83,652.667 1334.17,652.333 1350.5,652C 1353.09,650.661 1354.59,648.494 1355,645.5C 1355.33,641.167 1355.67,636.833 1356,632.5C 1357.21,630.951 1358.71,629.785 1360.5,629C 1366.68,627.956 1372.68,626.289 1378.5,624C 1380.04,622.421 1381.21,620.587 1382,618.5C 1382.17,607.485 1382.67,596.485 1383.5,585.5C 1389.54,580.822 1395.54,576.155 1401.5,571.5C 1407.24,558.335 1412.74,545.002 1418,531.5C 1420.89,498.541 1421.22,465.541 1419,432.5C 1415.94,423.555 1410.78,416.055 1403.5,410C 1400.39,408.132 1397.06,406.965 1393.5,406.5C 1393.94,375.801 1393.44,345.134 1392,314.5C 1390.26,309.956 1388.93,305.29 1388,300.5C 1386.83,297.497 1385.17,294.83 1383,292.5C 1381.72,279.444 1377.22,267.611 1369.5,257C 1366,254.882 1362.67,255.049 1359.5,257.5C 1348.87,251.893 1337.54,248.726 1325.5,248C 1308.55,245.756 1291.55,243.922 1274.5,242.5C 1261.47,245.846 1248.47,249.179 1235.5,252.5C 1225.82,251.246 1216.48,248.746 1207.5,245C 1199.83,244.777 1192.17,244.944 1184.5,245.5C 1184.95,249.426 1183.62,252.592 1180.5,255C 1173.71,258.48 1166.55,260.646 1159,261.5C 1154.86,261.344 1151.03,260.177 1147.5,258C 1136.24,250.523 1125.91,241.856 1116.5,232C 1111.79,229.949 1107.62,227.115 1104,223.5C 1099.63,213.981 1102.63,208.981 1113,208.5C 1115.59,208.565 1118.09,209.065 1120.5,210C 1130.94,214.886 1141.61,219.22 1152.5,223C 1161.88,226.842 1170.88,231.342 1179.5,236.5C 1187.96,233.807 1196.63,232.141 1205.5,231.5C 1213.54,233.009 1221.54,234.842 1229.5,237C 1233.83,237.667 1238.17,237.667 1242.5,237C 1256.63,230.944 1271.3,228.278 1286.5,229C 1290.67,222.979 1296.5,220.479 1304,221.5C 1309.19,221.712 1314.36,222.212 1319.5,223C 1340.83,228.415 1361.83,234.915 1382.5,242.5C 1399.11,235.793 1413.28,225.793 1425,212.5C 1429.33,205.167 1433.67,197.833 1438,190.5C 1439.66,181.259 1440.66,171.926 1441,162.5C 1441.5,143.17 1441.67,123.836 1441.5,104.5C 1457.23,102.978 1471.9,98.1448 1485.5,90C 1489.17,87 1492.5,83.6667 1495.5,80C 1499.68,78.2039 1504.02,76.8706 1508.5,76C 1545.16,76.5092 1581.83,76.5092 1618.5,76C 1621.36,75.8171 1624.03,75.3171 1626.5,74.5 Z"/></g>
<g><path style="opacity:1" fill="#644b39" d="M 1685.5,92.5 C 1683.41,100.767 1680.74,108.767 1677.5,116.5C 1679.19,108.085 1681.86,100.085 1685.5,92.5 Z"/></g>
<g><path style="opacity:1" fill="#654b3a" d="M 1677.5,116.5 C 1676.61,122.166 1674.94,127.5 1672.5,132.5C 1673.39,126.834 1675.06,121.5 1677.5,116.5 Z"/></g>
<g><path style="opacity:1" fill="#5f4737" d="M 1672.5,132.5 C 1671.94,137.165 1670.61,141.498 1668.5,145.5C 1669.06,140.835 1670.39,136.502 1672.5,132.5 Z"/></g>
<g><path style="opacity:1" fill="#684f3b" d="M 1642.5,150.5 C 1640.56,152.163 1638.23,152.829 1635.5,152.5C 1637.51,151.076 1639.85,150.41 1642.5,150.5 Z"/></g>
<g><path style="opacity:1" fill="#694f3c" d="M 1620.5,155.5 C 1618.56,157.163 1616.23,157.829 1613.5,157.5C 1615.51,156.076 1617.85,155.41 1620.5,155.5 Z"/></g>
<g><path style="opacity:1" fill="#795d44" d="M 1579.5,164.5 C 1574.4,165.957 1569.07,166.624 1563.5,166.5C 1568.62,165.194 1573.95,164.527 1579.5,164.5 Z"/></g>
<g><path style="opacity:1" fill="#7b5e44" d="M 1079.5,174.5 C 1076.73,175.657 1073.73,176.324 1070.5,176.5C 1073.12,174.735 1076.12,174.068 1079.5,174.5 Z"/></g>
<g><path style="opacity:1" fill="#614838" d="M 1136.5,187.5 C 1141.55,188.684 1146.55,190.184 1151.5,192C 1152.06,192.383 1152.39,192.883 1152.5,193.5C 1146.86,192.068 1141.53,190.068 1136.5,187.5 Z"/></g>
<g><path style="opacity:1" fill="#7b5e44" d="M 1060.5,187.5 C 1060.57,189.027 1059.91,190.027 1058.5,190.5C 1058.43,188.973 1059.09,187.973 1060.5,187.5 Z"/></g>
<g><path style="opacity:1" fill="#806347" d="M 1267.5,199.5 C 1267.6,203.258 1266.6,206.592 1264.5,209.5C 1264.72,205.838 1265.72,202.505 1267.5,199.5 Z"/></g>
<g><path style="opacity:1" fill="#795d44" d="M 1053.5,200.5 C 1053.68,204.122 1053.01,207.456 1051.5,210.5C 1051.55,206.922 1052.22,203.589 1053.5,200.5 Z"/></g>
<g><path style="opacity:1" fill="#725740" d="M 1270.5,261.5 C 1275.08,261.438 1279.41,262.105 1283.5,263.5C 1278.92,263.562 1274.59,262.895 1270.5,261.5 Z"/></g>
<g><path style="opacity:1" fill="#765a42" d="M 1490.5,238.5 C 1490.3,246.534 1490.64,254.534 1491.5,262.5C 1490.73,261.737 1490.23,260.737 1490,259.5C 1489.18,252.321 1489.35,245.321 1490.5,238.5 Z"/></g>
<g><path style="opacity:1" fill="#725640" d="M 1256.5,261.5 C 1251.87,263.832 1246.87,265.165 1241.5,265.5C 1246.26,263.674 1251.26,262.341 1256.5,261.5 Z"/></g>
<g><path style="opacity:1" fill="#6a503c" d="M 1283.5,263.5 C 1286.07,263.721 1288.4,264.388 1290.5,265.5C 1287.77,265.829 1285.44,265.163 1283.5,263.5 Z"/></g>
<g><path style="opacity:1" fill="#7c5f45" d="M 1290.5,265.5 C 1295.54,265.85 1300.21,267.184 1304.5,269.5C 1299.56,268.769 1294.89,267.435 1290.5,265.5 Z"/></g>
<g><path style="opacity:1" fill="#694f3c" d="M 1241.5,265.5 C 1238.48,267.4 1235.15,268.733 1231.5,269.5C 1234.31,267.103 1237.64,265.77 1241.5,265.5 Z"/></g>
<g><path style="opacity:1" fill="#735841" d="M 1223.5,271.5 C 1221.9,273.074 1219.9,273.741 1217.5,273.5C 1219.21,272.262 1221.21,271.595 1223.5,271.5 Z"/></g>
<g><path style="opacity:1" fill="#765a42" d="M 1211.5,276.5 C 1211.03,277.906 1210.03,278.573 1208.5,278.5C 1208.97,277.094 1209.97,276.427 1211.5,276.5 Z"/></g>
<g><path style="opacity:1" fill="#694f3c" d="M 1522.5,291.5 C 1526.71,291.677 1530.37,293.01 1533.5,295.5C 1529.61,294.538 1525.94,293.204 1522.5,291.5 Z"/></g>
<g><path style="opacity:1" fill="#684e3b" d="M 1534.5,295.5 C 1538.77,296.256 1542.77,297.589 1546.5,299.5C 1542.08,299.139 1538.08,297.806 1534.5,295.5 Z"/></g>
<g><path style="opacity:1" fill="#836548" d="M 1151.5,293.5 C 1153.22,296.845 1153.88,300.511 1153.5,304.5C 1152.48,301.026 1151.81,297.36 1151.5,293.5 Z"/></g>
<g><path style="opacity:1" fill="#967552" d="M 1517.5,341.5 C 1515.96,349.894 1515.29,358.394 1515.5,367C 1515.97,386.539 1516.97,406.039 1518.5,425.5C 1517.78,425.082 1517.28,424.416 1517,423.5C 1514.9,398.201 1514.24,372.868 1515,347.5C 1515.04,345.026 1515.87,343.026 1517.5,341.5 Z"/></g>
<g><path style="opacity:1" fill="#816347" d="M 1357.5,347.5 C 1358.9,351.591 1359.56,355.924 1359.5,360.5C 1357.95,356.433 1357.28,352.1 1357.5,347.5 Z"/></g>
<g><path style="opacity:1" fill="#846649" d="M 1358.5,388.5 C 1358.59,391.152 1357.92,393.485 1356.5,395.5C 1356.41,392.848 1357.08,390.515 1358.5,388.5 Z"/></g>
<g><path style="opacity:1" fill="#91714f" d="M 1660.5,458.5 C 1654.55,461.238 1648.22,462.905 1641.5,463.5C 1647.61,461.387 1653.95,459.721 1660.5,458.5 Z"/></g>
<g><path style="opacity:1" fill="#90704f" d="M 1600.5,472.5 C 1600.08,473.222 1599.42,473.722 1598.5,474C 1594.32,474.427 1590.16,474.927 1586,475.5C 1583.52,475.503 1581.35,474.837 1579.5,473.5C 1586.53,473.623 1593.53,473.29 1600.5,472.5 Z"/></g>
<g><path style="opacity:1" fill="#745941" d="M 1383.5,463.5 C 1385.69,467.092 1386.69,471.092 1386.5,475.5C 1386.16,481.685 1385.49,487.685 1384.5,493.5C 1384.42,487.479 1384.76,481.479 1385.5,475.5C 1385.04,471.454 1384.37,467.454 1383.5,463.5 Z"/></g>
<g><path style="opacity:1" fill="#7e6046" d="M 1710.5,488.5 C 1710.74,490.898 1710.07,492.898 1708.5,494.5C 1708.26,492.102 1708.93,490.102 1710.5,488.5 Z"/></g>
<g><path style="opacity:1" fill="#755942" d="M 1383.5,496.5 C 1383.32,500.708 1381.99,504.374 1379.5,507.5C 1380.46,503.605 1381.8,499.939 1383.5,496.5 Z"/></g>
<g><path style="opacity:1" fill="#896a4b" d="M 1708.5,495.5 C 1708.45,503.898 1709.12,512.231 1710.5,520.5C 1708.89,517.851 1708.06,514.851 1708,511.5C 1707.18,505.984 1707.35,500.65 1708.5,495.5 Z"/></g>
<g><path style="opacity:1" fill="#88694b" d="M 1347.5,576.5 C 1348.16,577.793 1348.49,579.293 1348.5,581C 1348.43,582.986 1347.76,584.486 1346.5,585.5C 1347.3,582.57 1347.63,579.57 1347.5,576.5 Z"/></g>
<g><path style="opacity:1" fill="#8f6f4e" d="M 990.5,586.5 C 982.384,588.376 974.051,589.709 965.5,590.5C 966.263,589.732 967.263,589.232 968.5,589C 975.79,587.708 983.123,586.875 990.5,586.5 Z"/></g>
<g><path style="opacity:1" fill="#806347" d="M 1334.5,593.5 C 1330.92,594.386 1327.25,595.386 1323.5,596.5C 1324.06,595.21 1325.06,594.377 1326.5,594C 1329.15,593.503 1331.81,593.336 1334.5,593.5 Z"/></g>
<g><path style="opacity:1" fill="#7a5d44" d="M 947.5,594.5 C 947.5,596.167 947.5,597.833 947.5,599.5C 949.099,599.232 950.432,599.566 951.5,600.5C 949.833,600.5 948.167,600.5 946.5,600.5C 946.205,598.265 946.539,596.265 947.5,594.5 Z"/></g>
<g><path style="opacity:1" fill="#785b43" d="M 951.5,600.5 C 953.698,600.12 955.365,600.787 956.5,602.5C 954.597,602.204 952.93,601.537 951.5,600.5 Z"/></g>
<g><path style="opacity:1" fill="#806347" d="M 1267.5,618.5 C 1264.95,620.584 1261.95,621.917 1258.5,622.5C 1261.05,620.416 1264.05,619.083 1267.5,618.5 Z"/></g>
<g><path style="opacity:1" fill="#7e6146" d="M 1253.5,623.5 C 1249.52,625.449 1245.19,626.449 1240.5,626.5C 1244.6,624.977 1248.93,623.977 1253.5,623.5 Z"/></g>
<g><path style="opacity:1" fill="#775b43" d="M 1231.5,628.5 C 1231.03,629.906 1230.03,630.573 1228.5,630.5C 1228.97,629.094 1229.97,628.427 1231.5,628.5 Z"/></g>
<g><path style="opacity:1" fill="#8e6e4e" d="M 901.5,703.5 C 897.37,706.324 892.703,707.991 887.5,708.5C 891.94,706.462 896.607,704.796 901.5,703.5 Z"/></g>
<g><path style="opacity:1" fill="#886a4b" d="M 887.5,708.5 C 885.485,709.924 883.152,710.59 880.5,710.5C 882.515,709.076 884.848,708.41 887.5,708.5 Z"/></g>
<g><path style="opacity:1" fill="#87684a" d="M 862.5,714.5 C 846.664,718.304 830.664,719.637 814.5,718.5C 830.591,718.189 846.591,716.855 862.5,714.5 Z"/></g>
<g><path style="opacity:1" fill="#886a4b" d="M 635.5,923.5 C 636.924,925.515 637.59,927.848 637.5,930.5C 636.076,928.485 635.41,926.152 635.5,923.5 Z"/></g>
<g><path style="opacity:1" fill="#8d6e4d" d="M 1282.5,955.5 C 1286.65,954.353 1290.98,954.186 1295.5,955C 1297.32,955.74 1298.65,956.907 1299.5,958.5C 1294.24,955.802 1288.58,954.802 1282.5,955.5 Z"/></g>
<g><path style="opacity:1" fill="#896a4b" d="M 781.5,1033.5 C 776.731,1034.89 771.731,1035.56 766.5,1035.5C 771.234,1033.86 776.234,1033.19 781.5,1033.5 Z"/></g>
<g><path style="opacity:1" fill="#6a503c" d="M 627.5,1040.5 C 628.482,1044.32 629.149,1048.32 629.5,1052.5C 627.75,1048.82 627.083,1044.82 627.5,1040.5 Z"/></g>
<g><path style="opacity:1" fill="#684e3b" d="M 1214.5,1057.5 C 1219.23,1058.67 1223.9,1059.67 1228.5,1060.5C 1225.15,1060.67 1221.82,1060.5 1218.5,1060C 1216.93,1059.39 1215.6,1058.56 1214.5,1057.5 Z"/></g>
<g><path style="opacity:1" fill="#88694b" d="M 982.5,1059.5 C 985.491,1059.17 987.824,1060.17 989.5,1062.5C 986.843,1062.07 984.509,1061.07 982.5,1059.5 Z"/></g>
<g><path style="opacity:1" fill="#85674a" d="M 906.5,1065.5 C 909.167,1065.83 911.833,1066.17 914.5,1066.5C 911.707,1067.75 909.04,1067.41 906.5,1065.5 Z"/></g>
<g><path style="opacity:1" fill="#86674a" d="M 1040.5,1075.5 C 1048.51,1075.33 1056.51,1075.5 1064.5,1076C 1065.42,1076.28 1066.08,1076.78 1066.5,1077.5C 1057.68,1076.95 1049.01,1076.29 1040.5,1075.5 Z"/></g>
<g><path style="opacity:1" fill="#614838" d="M 1080.5,1088.5 C 1083.07,1093.41 1084.07,1098.74 1083.5,1104.5C 1082.27,1099.34 1081.27,1094 1080.5,1088.5 Z"/></g>
<g><path style="opacity:1" fill="#7c5f45" d="M 1264.5,1099.5 C 1265.92,1101.51 1266.59,1103.85 1266.5,1106.5C 1265.08,1104.49 1264.41,1102.15 1264.5,1099.5 Z"/></g>
<g><path style="opacity:1" fill="#816448" d="M 1266.5,1106.5 C 1267.87,1108.94 1268.87,1111.6 1269.5,1114.5C 1267.35,1112.38 1266.35,1109.72 1266.5,1106.5 Z"/></g>
<g><path style="opacity:1" fill="#8f704e" d="M 699.5,1127.5 C 701.048,1131.03 701.714,1134.87 701.5,1139C 701.498,1142.02 701.164,1144.85 700.5,1147.5C 700.609,1140.8 700.276,1134.14 699.5,1127.5 Z"/></g>
<g><path style="opacity:1" fill="#755a42" d="M 833.5,1161.5 C 837.764,1161.34 841.764,1162.01 845.5,1163.5C 841.267,1163.46 837.267,1162.79 833.5,1161.5 Z"/></g>
<g><path style="opacity:1" fill="#745841" d="M 831.5,1161.5 C 816.102,1161.07 800.769,1161.74 785.5,1163.5C 788.534,1161.98 791.867,1161.15 795.5,1161C 807.674,1160.17 819.674,1160.34 831.5,1161.5 Z"/></g>
<g><path style="opacity:1" fill="#6b513d" d="M 1251.5,1159.5 C 1247.06,1161.54 1242.39,1163.2 1237.5,1164.5C 1241.63,1161.68 1246.3,1160.01 1251.5,1159.5 Z"/></g>
<g><path style="opacity:1" fill="#88694b" d="M 850.5,1164.5 C 854.489,1164.12 858.155,1164.78 861.5,1166.5C 857.542,1166.75 853.876,1166.08 850.5,1164.5 Z"/></g>
<g><path style="opacity:1" fill="#654b3a" d="M 907.5,1159.5 C 908.49,1165.31 908.823,1171.31 908.5,1177.5C 907.209,1177.74 906.209,1177.4 905.5,1176.5C 907.45,1171.26 908.117,1165.6 907.5,1159.5 Z"/></g>
<g><path style="opacity:1" fill="#836548" d="M 698.5,1159.5 C 698.326,1161.86 697.993,1164.19 697.5,1166.5C 696.355,1164.05 696.688,1161.71 698.5,1159.5 Z"/></g>
<g><path style="opacity:1" fill="#745841" d="M 783.5,1163.5 C 778.465,1165.77 773.132,1167.43 767.5,1168.5C 767.611,1167.88 767.944,1167.38 768.5,1167C 773.484,1165.67 778.484,1164.5 783.5,1163.5 Z"/></g>
<g><path style="opacity:1" fill="#7c5f45" d="M 861.5,1166.5 C 864.781,1166.42 867.781,1167.09 870.5,1168.5C 867.219,1168.58 864.219,1167.91 861.5,1166.5 Z"/></g>
<g><path style="opacity:1" fill="#725740" d="M 1231.5,1165.5 C 1229.56,1167.16 1227.23,1167.83 1224.5,1167.5C 1226.6,1166.39 1228.93,1165.72 1231.5,1165.5 Z"/></g>
<g><path style="opacity:1" fill="#71553f" d="M 764.5,1168.5 C 762.152,1170.1 759.486,1171.1 756.5,1171.5C 758.617,1169.35 761.284,1168.35 764.5,1168.5 Z"/></g>
<g><path style="opacity:1" fill="#765a42" d="M 1218.5,1169.5 C 1216.56,1171.16 1214.23,1171.83 1211.5,1171.5C 1213.6,1170.39 1215.93,1169.72 1218.5,1169.5 Z"/></g>
<g><path style="opacity:1" fill="#836548" d="M 702.5,1170.5 C 709.767,1172.26 716.767,1174.59 723.5,1177.5C 716.085,1176.14 709.085,1173.81 702.5,1170.5 Z"/></g>
<g><path style="opacity:1" fill="#7f6146" d="M 890.5,1172.5 C 894.479,1172.74 898.146,1173.74 901.5,1175.5C 897.521,1175.26 893.854,1174.26 890.5,1172.5 Z"/></g>
<g><path style="opacity:1" fill="#88694b" d="M 1127.5,1186.5 C 1130.15,1186.41 1132.49,1187.08 1134.5,1188.5C 1131.85,1188.59 1129.51,1187.92 1127.5,1186.5 Z"/></g>
</svg>
