<?xml version="1.0" encoding="UTF-8"?>
<!DOCTYPE svg PUBLIC "-//W3C//DTD SVG 1.1//EN" "http://www.w3.org/Graphics/SVG/1.1/DTD/svg11.dtd">
<svg xmlns="http://www.w3.org/2000/svg" version="1.1" width="2296px" height="1221px" style="shape-rendering:geometricPrecision; text-rendering:geometricPrecision; image-rendering:optimizeQuality; fill-rule:evenodd; clip-rule:evenodd" xmlns:xlink="http://www.w3.org/1999/xlink">
<g><path style="opacity:0.98" fill="#48332c" d="M 1014.5,-0.5 C 1021.17,-0.5 1027.83,-0.5 1034.5,-0.5C 1042.97,1.30977 1051.64,2.80977 1060.5,4C 1081.55,10.0263 1101.22,19.0263 1119.5,31C 1125.1,36.5931 1129.93,42.7598 1134,49.5C 1135.51,69.5478 1137.17,89.5478 1139,109.5C 1143.29,120.756 1148.63,131.422 1155,141.5C 1177.7,160.272 1186.03,183.939 1180,212.5C 1177.44,215.531 1174.27,217.698 1170.5,219C 1167.67,221.833 1164.83,224.667 1162,227.5C 1154.48,237.865 1146.48,247.865 1138,257.5C 1136,261.5 1134,265.5 1132,269.5C 1130.05,271.894 1127.55,273.394 1124.5,274C 1118.18,273.725 1111.85,273.725 1105.5,274C 1101.95,275.916 1098.11,277.082 1094,277.5C 1082.58,277.187 1071.42,275.354 1060.5,272C 1056.67,270.254 1053.01,268.254 1049.5,266C 1046.87,261.916 1044.37,257.75 1042,253.5C 1040.46,247.003 1038.46,240.67 1036,234.5C 1032.85,231.532 1030.19,228.198 1028,224.5C 1004.32,209.194 978.482,203.027 950.5,206C 948.753,209.834 946.086,212.834 942.5,215C 934.392,218.22 926.726,222.22 919.5,227C 914.797,228.936 909.964,230.436 905,231.5C 900.814,230.412 896.647,229.245 892.5,228C 884.009,223.922 875.676,219.588 867.5,215C 861.01,206.562 859.843,197.396 864,187.5C 864.667,181.167 864.667,174.833 864,168.5C 861.668,159.838 859.334,151.172 857,142.5C 849.333,132.833 841.667,123.167 834,113.5C 830.247,108.359 828.581,102.693 829,96.5C 831.894,90.9384 835.561,85.9384 840,81.5C 847.833,73.6667 855.667,65.8333 863.5,58C 874.446,50.7209 885.112,43.0543 895.5,35C 899.328,32.6127 903.495,31.446 908,31.5C 913.415,31.9169 918.582,33.2502 923.5,35.5C 934.381,35.5194 945.047,33.6861 955.5,30C 974.585,22.2525 993.251,13.5858 1011.5,4C 1012.39,2.38533 1013.39,0.885333 1014.5,-0.5 Z"/></g>
<g><path style="opacity:1" fill="#aa865b" d="M 1032.5,22.5 C 1047.19,24.5047 1061.53,28.0047 1075.5,33C 1084.34,37.9218 1093.34,42.5885 1102.5,47C 1107.23,50.4535 1109.56,55.1201 1109.5,61C 1108.36,73.1354 1109.36,85.1354 1112.5,97C 1110.42,105.965 1111.59,114.465 1116,122.5C 1116.18,130.551 1116.84,138.551 1118,146.5C 1122.08,153.668 1126.42,160.668 1131,167.5C 1137.77,174.867 1145.1,181.534 1153,187.5C 1154.7,189.699 1156.2,192.032 1157.5,194.5C 1155.35,197.151 1153.02,199.651 1150.5,202C 1133.68,214.246 1116.68,226.246 1099.5,238C 1094.6,242.744 1089.6,247.244 1084.5,251.5C 1079.2,244.688 1074.04,237.688 1069,230.5C 1059.46,220.632 1050.3,210.465 1041.5,200C 1037.66,197.578 1033.99,194.911 1030.5,192C 1020.48,188.438 1010.81,184.104 1001.5,179C 981.755,175.438 962.088,175.771 942.5,180C 928.026,189.662 912.026,195.495 894.5,197.5C 892.366,197.485 890.366,196.985 888.5,196C 887.168,180.334 884.668,164.834 881,149.5C 877.253,142.337 873.253,135.337 869,128.5C 862.257,120.012 855.757,111.346 849.5,102.5C 857.649,93.1837 865.982,84.0171 874.5,75C 885.167,67.3333 895.833,59.6667 906.5,52C 911.339,53.4948 916.339,54.8281 921.5,56C 927.882,56.6887 934.215,56.3554 940.5,55C 959.436,49.5319 977.436,41.8653 994.5,32C 1007.06,27.8603 1019.73,24.6936 1032.5,22.5 Z"/></g>
<g><path style="opacity:1" fill="#b99f7f" d="M 1031.5,64.5 C 1034.27,64.4207 1036.94,64.9207 1039.5,66C 1049.01,71.2552 1058.68,76.2552 1068.5,81C 1070.71,82.8734 1072.54,85.04 1074,87.5C 1075.52,106.159 1076.86,124.826 1078,143.5C 1079.47,148.905 1081.14,154.239 1083,159.5C 1083.67,164.167 1083.67,168.833 1083,173.5C 1077.75,167.283 1071.58,162.117 1064.5,158C 1053.42,152.793 1042.08,148.126 1030.5,144C 993.479,141.852 956.479,142.019 919.5,144.5C 919.183,131.778 916.516,119.612 911.5,108C 914.14,105.033 917.14,102.366 920.5,100C 925.772,97.0589 930.772,93.7256 935.5,90C 947.833,89.6667 960.167,89.3333 972.5,89C 975.833,88.3333 979.167,87.6667 982.5,87C 993.856,82.3275 1005.19,77.6608 1016.5,73C 1021.92,70.6315 1026.92,67.7982 1031.5,64.5 Z"/></g>
<g><path style="opacity:0.984" fill="#48332c" d="M 868.5,1220.5 C 867.5,1220.5 866.5,1220.5 865.5,1220.5C 862.695,1219.68 859.695,1219.18 856.5,1219C 831.502,1204.25 808.002,1187.42 786,1168.5C 776.938,1158.04 768.605,1147.04 761,1135.5C 750.25,1114.37 750.25,1093.37 761,1072.5C 772.053,1054.1 785.387,1037.44 801,1022.5C 803.248,1018.85 804.582,1014.85 805,1010.5C 807.367,985.699 803.367,962.033 793,939.5C 784.349,929.926 773.515,924.759 760.5,924C 749.938,921.506 743.771,915.006 742,904.5C 743.036,876.063 740.869,847.897 735.5,820C 736.792,811.721 740.292,804.554 746,798.5C 755.97,787.529 766.303,776.863 777,766.5C 779.29,763.42 781.457,760.253 783.5,757C 770.486,741.798 758.319,725.964 747,709.5C 737.259,693.535 739.426,679.368 753.5,667C 764.072,659.13 774.905,651.63 786,644.5C 786.667,641.5 786.667,638.5 786,635.5C 782.395,623.747 780.062,611.747 779,599.5C 777.471,598.271 776.304,596.771 775.5,595C 752.108,587.09 729.441,577.423 707.5,566C 700.633,560.759 696.467,553.925 695,545.5C 694.402,537.822 694.569,530.155 695.5,522.5C 694.725,510.673 691.225,499.673 685,489.5C 683.5,488 682,486.5 680.5,485C 667.207,477.9 653.541,471.567 639.5,466C 637.833,465.333 636.167,465.333 634.5,466C 629.573,470.048 624.74,474.215 620,478.5C 617.544,487.418 613.044,495.085 606.5,501.5C 600.744,505.323 594.411,506.49 587.5,505C 578.843,503.753 570.509,501.42 562.5,498C 554.451,496.958 546.451,495.624 538.5,494C 532.974,492.474 529.474,488.974 528,483.5C 527.487,477.135 527.821,470.801 529,464.5C 532.232,457.599 535.899,450.933 540,444.5C 543.419,437.165 544.753,429.498 544,421.5C 543.269,419.101 542.102,416.935 540.5,415C 532.336,409.417 524.003,404.084 515.5,399C 509.622,394.79 504.789,389.623 501,383.5C 501.623,362.525 502.456,341.525 503.5,320.5C 502.874,309.483 502.041,298.483 501,287.5C 498.836,281.17 496.669,274.837 494.5,268.5C 503.036,244.254 516.036,222.754 533.5,204C 540.89,199.89 548.557,199.39 556.5,202.5C 559.996,200.33 563.829,198.997 568,198.5C 572.431,199.389 576.431,201.056 580,203.5C 584.248,203.042 588.415,202.209 592.5,201C 599.782,193.596 606.949,186.096 614,178.5C 615.759,173.283 616.426,167.949 616,162.5C 608.853,156.249 606.853,148.583 610,139.5C 618,124.833 626,110.167 634,95.5C 638.618,89.9473 644.451,88.114 651.5,90C 670.682,101.76 690.349,112.76 710.5,123C 715.934,126.468 721.101,130.301 726,134.5C 728.34,138.555 729.007,142.889 728,147.5C 723.383,163.727 716.383,178.727 707,192.5C 704.96,197.643 705.293,202.643 708,207.5C 717.03,203.735 725.863,199.568 734.5,195C 741.865,193.052 748.032,194.885 753,200.5C 755.52,206.935 758.186,213.268 761,219.5C 771.85,236.021 783.85,251.688 797,266.5C 804.755,277.669 811.755,289.336 818,301.5C 821.858,309.618 821.192,317.284 816,324.5C 813.857,326.471 811.357,327.804 808.5,328.5C 806.333,331.5 804.167,334.5 802,337.5C 792.384,347.79 782.217,357.29 771.5,366C 775.25,366.26 778.916,366.927 782.5,368C 791.81,377.642 801.476,386.975 811.5,396C 817.08,400.957 823.413,404.624 830.5,407C 843.476,411.597 856.81,413.597 870.5,413C 875.5,408.667 880.5,404.333 885.5,400C 893.737,394.474 902.737,392.474 912.5,394C 928.558,399.019 944.224,405.019 959.5,412C 971.03,415.066 982.363,418.732 993.5,423C 1014.31,432.902 1034.64,443.569 1054.5,455C 1062.54,460.75 1067.54,468.416 1069.5,478C 1069.08,483.948 1066.75,488.948 1062.5,493C 1048.66,502.091 1034.32,510.424 1019.5,518C 1031.12,523.812 1042.46,530.146 1053.5,537C 1057.07,538.405 1060.74,538.738 1064.5,538C 1072.73,536.289 1080.89,534.455 1089,532.5C 1091.86,533.173 1094.69,534.007 1097.5,535C 1108.1,546.131 1121.1,551.464 1136.5,551C 1140.71,548.726 1145.05,546.726 1149.5,545C 1154.56,537.638 1161.56,534.971 1170.5,537C 1180.11,538.534 1188.78,542.2 1196.5,548C 1204.66,554.425 1206.66,562.425 1202.5,572C 1203.05,576.507 1202.55,581.007 1201,585.5C 1199.85,604.163 1199.18,622.83 1199,641.5C 1199.35,644.576 1200.01,647.576 1201,650.5C 1208.08,652.592 1213.75,656.592 1218,662.5C 1219.98,667.103 1220.82,671.936 1220.5,677C 1219.84,690.879 1218.68,704.712 1217,718.5C 1214.15,724.718 1211.48,731.051 1209,737.5C 1199.07,747.923 1186.9,752.423 1172.5,751C 1163.1,748.905 1153.6,747.405 1144,746.5C 1131.66,749.353 1119.16,751.186 1106.5,752C 1102.81,758.55 1098.97,765.05 1095,771.5C 1086.15,782.51 1074.65,787.176 1060.5,785.5C 1051.78,785.216 1043.11,784.383 1034.5,783C 1029.89,780.051 1025.06,777.551 1020,775.5C 1019.33,781.167 1019.33,786.833 1020,792.5C 1021.12,794.624 1022.62,796.457 1024.5,798C 1032.91,801.569 1038.24,807.736 1040.5,816.5C 1040.24,819.028 1039.4,821.361 1038,823.5C 1035.32,827.005 1032.49,830.339 1029.5,833.5C 1030.98,839.002 1030.48,844.336 1028,849.5C 1022.5,855.667 1017,861.833 1011.5,868C 1004.66,872.548 997.33,873.881 989.5,872C 984.328,868.915 979.328,865.581 974.5,862C 971.162,860.08 967.662,858.58 964,857.5C 946.8,861.693 934.8,872.027 928,888.5C 926.833,892 925.667,895.5 924.5,899C 928.172,907.504 931.005,916.338 933,925.5C 934.884,930.329 937.051,934.995 939.5,939.5C 945.446,941.806 951.112,944.639 956.5,948C 969.163,951.409 981.496,950.409 993.5,945C 996.123,941.588 998.623,938.088 1001,934.5C 1008.74,927.432 1015.74,919.766 1022,911.5C 1026.03,897.471 1034.86,887.971 1048.5,883C 1053.5,882.333 1058.5,882.333 1063.5,883C 1080.86,884.688 1098.2,886.688 1115.5,889C 1120.5,889.749 1125.17,891.416 1129.5,894C 1134.03,898.867 1138.87,903.367 1144,907.5C 1152.3,917.669 1154.14,928.835 1149.5,941C 1153.19,949.704 1157.36,958.204 1162,966.5C 1168.4,973.574 1175.9,979.074 1184.5,983C 1201.7,988.24 1219.2,992.073 1237,994.5C 1246.48,993.761 1255.98,993.261 1265.5,993C 1275.72,989.556 1285.06,984.556 1293.5,978C 1296.42,977.012 1299.42,976.346 1302.5,976C 1308.71,969.131 1313.21,961.298 1316,952.5C 1317.87,942.578 1319.04,932.578 1319.5,922.5C 1319.73,916.348 1318.89,910.348 1317,904.5C 1310.35,893.199 1303.68,881.866 1297,870.5C 1289.08,864.169 1286.75,856.169 1290,846.5C 1302.73,831.543 1318.9,822.377 1338.5,819C 1355.41,817.241 1370.58,821.408 1384,831.5C 1391.49,840.783 1394.99,851.45 1394.5,863.5C 1397.02,863.755 1399.35,864.589 1401.5,866C 1409.5,870.667 1417.5,875.333 1425.5,880C 1429.86,881.923 1434.19,881.923 1438.5,880C 1447,874.916 1455.34,869.583 1463.5,864C 1466.5,863.333 1469.5,863.333 1472.5,864C 1476.95,866.311 1481.45,868.478 1486,870.5C 1486.09,863.452 1485.75,856.452 1485,849.5C 1486.42,844.83 1488.25,840.33 1490.5,836C 1488.47,826.271 1486.8,816.438 1485.5,806.5C 1486.03,799.602 1489.03,794.102 1494.5,790C 1503.17,786.667 1511.83,783.333 1520.5,780C 1532.2,779.673 1543.54,781.673 1554.5,786C 1564.77,791.938 1574.77,798.272 1584.5,805C 1594.03,810.564 1597.7,818.731 1595.5,829.5C 1596.35,835.563 1597.51,841.563 1599,847.5C 1604.77,866.833 1612.11,885.5 1621,903.5C 1623.67,906.833 1626.33,910.167 1629,913.5C 1630.4,917.072 1630.74,920.739 1630,924.5C 1622.24,935.021 1616.91,946.688 1614,959.5C 1611,965.42 1606.16,968.42 1599.5,968.5C 1592.53,967.787 1585.86,965.953 1579.5,963C 1570.83,962.333 1562.17,962.333 1553.5,963C 1533.05,968.711 1523.55,982.211 1525,1003.5C 1527.98,1013.79 1532.31,1023.46 1538,1032.5C 1543.41,1037.46 1549.58,1041.29 1556.5,1044C 1569.73,1048.51 1583.23,1052.01 1597,1054.5C 1600.79,1052.06 1604.63,1049.56 1608.5,1047C 1613.52,1040.98 1618.86,1035.31 1624.5,1030C 1633.87,1026.86 1643.2,1027.2 1652.5,1031C 1661.52,1036.51 1670.85,1041.51 1680.5,1046C 1692.91,1054.96 1705.41,1063.79 1718,1072.5C 1722.23,1083.14 1719.57,1091.81 1710,1098.5C 1708.56,1103.39 1706.56,1108.06 1704,1112.5C 1701.51,1119.88 1701.01,1127.38 1702.5,1135C 1696.94,1145.78 1691.94,1156.78 1687.5,1168C 1662.85,1166.7 1638.18,1166.36 1613.5,1167C 1584.47,1163.28 1555.47,1159.28 1526.5,1155C 1498.28,1150.93 1470.95,1143.59 1444.5,1133C 1421.01,1129.44 1397.51,1125.94 1374,1122.5C 1372.03,1122.54 1370.2,1123.04 1368.5,1124C 1360.4,1131.43 1351.74,1138.1 1342.5,1144C 1337.76,1149.41 1332.43,1154.08 1326.5,1158C 1320.83,1164.33 1315.17,1170.67 1309.5,1177C 1298.39,1183.98 1287.06,1184.31 1275.5,1178C 1259.57,1168.7 1242.9,1161.04 1225.5,1155C 1186.74,1149.6 1148.58,1141.44 1111,1130.5C 1097.67,1137.26 1085.83,1146.09 1075.5,1157C 1060.99,1166.17 1048.33,1177.5 1037.5,1191C 1036.17,1191.67 1034.83,1192.33 1033.5,1193C 1026.58,1194.55 1019.58,1194.88 1012.5,1194C 992.157,1190.05 971.824,1186.21 951.5,1182.5C 947.398,1183.97 943.898,1186.3 941,1189.5C 941.258,1197.82 937.758,1203.99 930.5,1208C 922.97,1210.1 915.637,1212.76 908.5,1216C 895.082,1218.06 881.748,1219.56 868.5,1220.5 Z"/></g>
<g><path style="opacity:1" fill="#aa865b" d="M 657.5,126.5 C 665.143,127.078 672.477,128.911 679.5,132C 688.167,136.667 696.833,141.333 705.5,146C 709.014,148.721 709.347,151.888 706.5,155.5C 694.167,161.665 686,171.332 682,184.5C 676.868,197.039 675.201,210.039 677,223.5C 680.358,231.766 686.525,235.933 695.5,236C 697.221,237.527 699.221,238.527 701.5,239C 705.5,239.667 709.5,239.667 713.5,239C 718.739,236.696 724.072,235.03 729.5,234C 746.219,253.923 760.052,275.756 771,299.5C 775.408,304.073 779.241,309.073 782.5,314.5C 765.945,324.554 752.111,337.554 741,353.5C 734.518,367.115 736.685,378.948 747.5,389C 750.039,390.047 752.705,390.547 755.5,390.5C 760.838,389.66 766.171,389.16 771.5,389C 780.598,400.747 790.931,411.413 802.5,421C 812.819,427.999 824.153,432.666 836.5,435C 844.528,436.539 852.528,438.206 860.5,440C 869.433,441.147 877.766,439.48 885.5,435C 889.868,430.967 893.868,426.634 897.5,422C 899.71,420.261 902.21,419.094 905,418.5C 915.167,422.333 925.333,426.167 935.5,430C 948.827,437.107 962.494,443.44 976.5,449C 989.365,458.852 1003.03,467.518 1017.5,475C 1001.73,484.525 992.726,498.525 990.5,517C 990.872,524.722 994.539,530.389 1001.5,534C 1014.44,539.131 1026.44,545.798 1037.5,554C 1044.21,558.404 1051.55,560.904 1059.5,561.5C 1069.28,560.285 1078.94,558.785 1088.5,557C 1103.17,569.667 1120.17,574.667 1139.5,572C 1142.62,570.941 1145.62,569.608 1148.5,568C 1151.59,565.375 1154.76,562.875 1158,560.5C 1163.52,561.922 1169.02,563.422 1174.5,565C 1175.52,565.519 1176.18,566.353 1176.5,567.5C 1173.42,573.813 1171.59,580.479 1171,587.5C 1169.91,606.825 1169.58,626.159 1170,645.5C 1170.28,656.292 1173.78,665.792 1180.5,674C 1183.89,676.361 1187.55,678.194 1191.5,679.5C 1192.87,690.553 1192.54,701.553 1190.5,712.5C 1186.49,714.506 1182.82,717.006 1179.5,720C 1164.95,719.684 1150.45,718.517 1136,716.5C 1117.59,717.06 1100.42,721.893 1084.5,731C 1078.78,738.391 1073.44,746.057 1068.5,754C 1060.5,754.667 1052.5,754.667 1044.5,754C 1035.5,742.556 1023.84,738.223 1009.5,741C 999.931,744.237 993.764,750.737 991,760.5C 990.709,770.842 991.042,781.175 992,791.5C 992.739,795.385 994.073,799.052 996,802.5C 1000.25,806.816 1004.58,811.15 1009,815.5C 1009.67,816.167 1009.67,816.833 1009,817.5C 1003.13,823.043 996.959,828.21 990.5,833C 974.818,833.838 959.151,834.838 943.5,836C 913.474,842.18 898.807,860.68 899.5,891.5C 900.549,909.696 905.049,927.029 913,943.5C 919.595,953.429 928.095,961.262 938.5,967C 949.119,970.299 959.786,973.633 970.5,977C 993.273,980.695 1010.11,972.528 1021,952.5C 1032.12,941.566 1041.78,929.566 1050,916.5C 1066.94,917.778 1083.77,919.944 1100.5,923C 1109.94,925.93 1119.44,928.43 1129,930.5C 1127.69,935.72 1126.36,941.054 1125,946.5C 1122.23,955.62 1125.23,961.62 1134,964.5C 1139.42,973.007 1145.09,981.34 1151,989.5C 1151.52,992.919 1152.35,996.252 1153.5,999.5C 1150.02,1005.77 1148.52,1012.43 1149,1019.5C 1151.63,1021.99 1154.46,1022.15 1157.5,1020C 1161.17,1017.67 1164.17,1014.67 1166.5,1011C 1169.28,1009.96 1172.11,1009.13 1175,1008.5C 1193.81,1016.08 1213.31,1020.91 1233.5,1023C 1249.63,1024.56 1265.47,1023.06 1281,1018.5C 1288.42,1023.91 1295.25,1030.08 1301.5,1037C 1303.5,1038.33 1305.5,1039.67 1307.5,1041C 1312.67,1042.5 1314.5,1040.67 1313,1035.5C 1310.52,1029.04 1307.85,1022.71 1305,1016.5C 1304.33,1013.83 1304.33,1011.17 1305,1008.5C 1309.45,1005.72 1313.62,1002.55 1317.5,999C 1321.49,999.158 1325.49,999.658 1329.5,1000.5C 1337.36,1000.86 1342.36,997.355 1344.5,990C 1343.04,984.112 1340.71,978.612 1337.5,973.5C 1339.83,968.343 1341.66,963.009 1343,957.5C 1345.49,942.236 1346.83,926.903 1347,911.5C 1343.88,892.934 1336.21,876.601 1324,862.5C 1323.33,861.833 1323.33,861.167 1324,860.5C 1336.07,853.464 1348.74,847.797 1362,843.5C 1365.56,843.732 1368.56,845.065 1371,847.5C 1373.4,855.722 1375.4,864.055 1377,872.5C 1378.79,875.295 1380.96,877.795 1383.5,880C 1395.83,885.667 1408.17,891.333 1420.5,897C 1432.81,899.84 1443.81,897.173 1453.5,889C 1458.32,885.019 1462.98,880.852 1467.5,876.5C 1474.78,884.65 1483.78,888.15 1494.5,887C 1499.81,884.008 1503.31,879.508 1505,873.5C 1505.71,866.81 1505.55,860.144 1504.5,853.5C 1506.62,848.03 1507.95,842.364 1508.5,836.5C 1508.58,833.479 1507.92,830.645 1506.5,828C 1509.67,821.444 1510.34,814.611 1508.5,807.5C 1514.42,805.803 1520.26,803.803 1526,801.5C 1535.68,802.875 1544.85,805.709 1553.5,810C 1559.33,814.5 1565.17,819 1571,823.5C 1566.54,845.894 1568.21,867.894 1576,889.5C 1581.17,899.017 1585.67,908.85 1589.5,919C 1587.83,922.851 1585.99,926.684 1584,930.5C 1583.26,931.574 1582.26,932.241 1581,932.5C 1557.96,924.312 1536.8,927.479 1517.5,942C 1485.82,965.058 1479.99,993.558 1500,1027.5C 1510.46,1042.96 1523.29,1056.12 1538.5,1067C 1542.68,1069.06 1547.01,1070.73 1551.5,1072C 1564.47,1073.4 1577.47,1073.74 1590.5,1073C 1607.54,1068.57 1624.37,1063.4 1641,1057.5C 1657.5,1064.16 1672.67,1073 1686.5,1084C 1675.12,1096.63 1669.79,1111.47 1670.5,1128.5C 1639.87,1126.92 1609.2,1126.08 1578.5,1126C 1564.32,1123.11 1549.99,1121.77 1535.5,1122C 1525.26,1119.46 1514.93,1118.96 1504.5,1120.5C 1494.69,1120.16 1485.02,1118.82 1475.5,1116.5C 1468.06,1109.95 1459.4,1105.78 1449.5,1104C 1426.78,1092.26 1402.78,1084.43 1377.5,1080.5C 1368.02,1080.27 1359.35,1082.77 1351.5,1088C 1328.39,1103.76 1307.73,1122.43 1289.5,1144C 1288.83,1144.17 1288.17,1144.33 1287.5,1144.5C 1284.35,1140.75 1280.35,1138.25 1275.5,1137C 1264.73,1136.49 1254.06,1135.15 1243.5,1133C 1226.05,1126.14 1208.05,1121.47 1189.5,1119C 1172.5,1111.67 1154.83,1106.67 1136.5,1104C 1125.5,1100.33 1114.34,1097.5 1103,1095.5C 1100.83,1095.67 1098.67,1095.83 1096.5,1096C 1091.34,1098.41 1086.34,1101.08 1081.5,1104C 1075.14,1110.7 1068.47,1117.03 1061.5,1123C 1042.57,1134.97 1024.9,1148.64 1008.5,1164C 994.332,1161.36 979.999,1159.36 965.5,1158C 952.901,1153.26 939.901,1150.93 926.5,1151C 922.052,1153.11 918.552,1156.28 916,1160.5C 912.47,1166.72 909.637,1173.22 907.5,1180C 894.117,1184.17 880.451,1186.51 866.5,1187C 851.016,1177.85 837.016,1166.85 824.5,1154C 812.333,1147.17 802.833,1137.67 796,1125.5C 794.863,1112.83 794.196,1100.17 794,1087.5C 803.087,1074.33 811.42,1060.67 819,1046.5C 822.608,1036.07 825.274,1025.4 827,1014.5C 831.055,1006.33 834.722,997.999 838,989.5C 840.788,981.923 841.122,974.257 839,966.5C 833.742,952.651 827.409,939.318 820,926.5C 812.605,920.68 805.438,914.514 798.5,908C 790.729,904.455 783.396,900.455 776.5,896C 777.218,892.539 777.718,889.039 778,885.5C 778.333,866.167 778.667,846.833 779,827.5C 790.239,805.35 802.239,783.684 815,762.5C 816.301,756.078 815.301,750.078 812,744.5C 803.042,733.206 793.709,722.206 784,711.5C 780.251,706.338 776.751,701.004 773.5,695.5C 779.205,690.796 784.205,685.463 788.5,679.5C 795.524,674.987 802.191,669.987 808.5,664.5C 813.848,658.456 815.681,651.456 814,643.5C 811.735,627.172 808.068,611.172 803,595.5C 794.846,584.347 785.012,574.847 773.5,567C 756.129,559.62 740.962,549.12 728,535.5C 727,533.5 726,531.5 725,529.5C 726.005,508.185 720.338,488.851 708,471.5C 702.429,465.258 696.262,459.758 689.5,455C 674.964,447.06 659.63,441.394 643.5,438C 634.49,436.336 626.157,438.003 618.5,443C 606.028,451.803 596.028,462.803 588.5,476C 579.661,476.083 571.994,473.083 565.5,467C 563.876,465.883 562.876,464.383 562.5,462.5C 570.46,445.334 573.96,427.334 573,408.5C 571.861,404.888 570.194,401.554 568,398.5C 560.364,389.863 552.364,381.53 544,373.5C 542.561,371.725 541.561,369.725 541,367.5C 539.671,325.769 540.671,284.103 544,242.5C 550.896,236.637 558.063,231.137 565.5,226C 584.885,227.32 602.885,222.987 619.5,213C 620.667,211.833 621.833,210.667 623,209.5C 633,194.167 643,178.833 653,163.5C 653.188,158.552 652.022,153.885 649.5,149.5C 652.574,141.944 655.24,134.278 657.5,126.5 Z"/></g>
<g><path style="opacity:1" fill="#b99f7f" d="M 641.5,252.5 C 642.941,256.068 644.441,259.734 646,263.5C 649.456,267.757 653.956,269.59 659.5,269C 662.126,271.146 665.126,272.479 668.5,273C 679.167,273.333 689.833,273.667 700.5,274C 707.282,282.396 713.449,291.23 719,300.5C 719.667,301.5 719.667,302.5 719,303.5C 712.723,309.783 708.057,317.117 705,325.5C 704.333,348.5 704.333,371.5 705,394.5C 736.496,407.997 760.329,429.83 776.5,460C 791.291,466.151 806.625,470.485 822.5,473C 851.833,473.667 881.167,473.667 910.5,473C 913.8,471.121 917.134,471.121 920.5,473C 927.833,476.333 935.167,479.667 942.5,483C 946.912,486.29 951.412,489.456 956,492.5C 956.333,512.833 956.667,533.167 957,553.5C 957.445,559.567 960.278,564.067 965.5,567C 973.5,570.667 981.5,574.333 989.5,578C 997.377,585.11 1006.38,590.443 1016.5,594C 1031.12,595.247 1045.79,595.914 1060.5,596C 1069.41,601.525 1079.07,604.858 1089.5,606C 1104.83,606.5 1120.16,606.667 1135.5,606.5C 1135.22,632.185 1135.56,657.852 1136.5,683.5C 1120.83,683.333 1105.16,683.5 1089.5,684C 1084.5,685 1079.5,686 1074.5,687C 1066.95,690.271 1059.29,693.271 1051.5,696C 1048.11,698.786 1045.45,702.119 1043.5,706C 1021.5,706.333 999.5,706.667 977.5,707C 967.661,708.502 961.161,714.002 958,723.5C 956.747,748.472 956.08,773.472 956,798.5C 955.5,799 955,799.5 954.5,800C 940.156,800.436 925.822,801.103 911.5,802C 897.852,804.241 886.019,810.074 876,819.5C 871.611,826.613 868.611,834.279 867,842.5C 865.464,858.801 865.131,875.134 866,891.5C 876.4,914.433 882.733,938.433 885,963.5C 885.333,971.5 885.667,979.5 886,987.5C 890.074,991.119 894.241,994.619 898.5,998C 911.734,1002.52 925.067,1006.86 938.5,1011C 967.167,1011.67 995.833,1011.67 1024.5,1011C 1031.71,1009.78 1038.04,1006.78 1043.5,1002C 1054.46,988.042 1065.79,974.375 1077.5,961C 1081.79,961.651 1086.12,962.485 1090.5,963.5C 1090.1,973.898 1090.6,984.232 1092,994.5C 1095.71,996.293 1099.04,998.626 1102,1001.5C 1106,1007.5 1110,1013.5 1114,1019.5C 1114.18,1031.08 1114.68,1042.58 1115.5,1054C 1161.2,1054.32 1206.86,1055.32 1252.5,1057C 1256.83,1061.33 1261.17,1065.67 1265.5,1070C 1268.53,1072.21 1271.87,1073.71 1275.5,1074.5C 1285.37,1071.56 1295.04,1068.06 1304.5,1064C 1320.03,1053.74 1335.7,1043.74 1351.5,1034C 1360.22,1034.37 1368.55,1032.87 1376.5,1029.5C 1377.32,1014.21 1377.82,998.878 1378,983.5C 1380.37,965.575 1381.87,947.575 1382.5,929.5C 1384.44,930.189 1386.44,930.689 1388.5,931C 1412.51,931.167 1436.51,931.667 1460.5,932.5C 1458.43,936.645 1456.93,940.979 1456,945.5C 1455.33,975.833 1455.33,1006.17 1456,1036.5C 1458.79,1045.04 1461.79,1053.37 1465,1061.5C 1450.96,1056.6 1436.79,1052.1 1422.5,1048C 1395.93,1043.04 1370.6,1046.37 1346.5,1058C 1332.3,1070.1 1316.3,1079.1 1298.5,1085C 1291.5,1085.33 1284.5,1085.67 1277.5,1086C 1274.29,1089.55 1270.79,1092.72 1267,1095.5C 1252.21,1090.34 1237.04,1086.84 1221.5,1085C 1214.73,1081.74 1207.73,1079.08 1200.5,1077C 1181.9,1073.43 1163.56,1068.77 1145.5,1063C 1118.53,1061.41 1091.53,1061.07 1064.5,1062C 1057.39,1064.44 1050.72,1067.78 1044.5,1072C 1038.14,1078.7 1031.47,1085.03 1024.5,1091C 1010.97,1099.6 997.971,1108.93 985.5,1119C 981.551,1119.73 977.884,1119.06 974.5,1117C 947.167,1116.33 919.833,1116.33 892.5,1117C 885.147,1120.69 880.313,1126.52 878,1134.5C 877.282,1135.45 876.449,1135.62 875.5,1135C 865.745,1125.91 855.412,1117.57 844.5,1110C 843.072,1107.82 841.405,1105.82 839.5,1104C 851.044,1088.04 857.878,1070.21 860,1050.5C 865.06,1039.32 869.727,1027.98 874,1016.5C 875.381,969.399 865.048,925.066 843,883.5C 840.5,881 838,878.5 835.5,876C 827.643,871.907 819.976,867.574 812.5,863C 823.785,840.256 835.952,818.089 849,796.5C 849.667,769.833 849.667,743.167 849,716.5C 846.965,710.931 843.798,706.097 839.5,702C 842.762,699.408 845.262,696.241 847,692.5C 847.667,663.833 847.667,635.167 847,606.5C 844.975,593.374 842.308,580.374 839,567.5C 837.39,562.669 835.39,558.003 833,553.5C 831.933,552.809 830.766,552.309 829.5,552C 823.482,545.317 816.815,539.317 809.5,534C 792.385,526.696 777.218,516.529 764,503.5C 761.938,501.099 760.271,498.433 759,495.5C 759.559,484.553 756.893,474.553 751,465.5C 749.509,463.996 747.676,463.163 745.5,463C 739.544,454.921 733.711,446.755 728,438.5C 719.131,429.962 709.964,421.796 700.5,414C 694.737,410.452 688.737,407.452 682.5,405C 657.502,404.5 632.502,404.333 607.5,404.5C 607.906,393.436 607.406,382.436 606,371.5C 604.503,367.835 602.503,364.502 600,361.5C 593.105,353.694 585.772,346.36 578,339.5C 577,337.833 576,336.167 575,334.5C 574.748,315.443 575.748,296.443 578,277.5C 578.465,276.069 579.299,274.903 580.5,274C 587.5,269 594.5,264 601.5,259C 609.833,258.667 618.167,258.333 626.5,258C 631.857,256.829 636.857,254.996 641.5,252.5 Z"/></g>
</svg>
