<?xml version="1.0" encoding="UTF-8"?>
<!DOCTYPE svg PUBLIC "-//W3C//DTD SVG 1.1//EN" "http://www.w3.org/Graphics/SVG/1.1/DTD/svg11.dtd">
<svg xmlns="http://www.w3.org/2000/svg" version="1.1" width="2296px" height="1221px" style="shape-rendering:geometricPrecision; text-rendering:geometricPrecision; image-rendering:optimizeQuality; fill-rule:evenodd; clip-rule:evenodd" xmlns:xlink="http://www.w3.org/1999/xlink">
<g><path style="opacity:0.969" fill="#48332c" d="M 800.5,1.5 C 832.536,1.63925 864.536,2.80591 896.5,5C 902.627,5.64128 906.794,8.80795 909,14.5C 911.41,25.4764 914.743,36.1431 919,46.5C 924.32,54.4632 929.654,62.4632 935,70.5C 942.719,78.8997 951.553,85.733 961.5,91C 968.246,92.3532 974.913,94.0199 981.5,96C 992.765,96.8805 1003.77,95.5471 1014.5,92C 1030.57,85.4631 1046.24,78.1298 1061.5,70C 1069.49,68.5831 1076.33,70.7497 1082,76.5C 1086.52,85.0439 1090.85,93.7105 1095,102.5C 1098.89,104.379 1102.22,107.045 1105,110.5C 1109.57,117.744 1114.91,124.41 1121,130.5C 1133.2,148.222 1143.86,166.888 1153,186.5C 1164.5,201.515 1175.5,216.848 1186,232.5C 1191.63,245.767 1198.3,258.434 1206,270.5C 1210.77,283.589 1209.1,295.922 1201,307.5C 1197.16,319.174 1195.16,331.174 1195,343.5C 1193.49,368.147 1193.16,392.814 1194,417.5C 1203.21,434.213 1217.04,445.379 1235.5,451C 1240.04,451.253 1244.54,451.753 1249,452.5C 1262.8,451.054 1276.63,449.887 1290.5,449C 1302.55,444.569 1314.88,440.902 1327.5,438C 1334.32,436.956 1340.66,438.289 1346.5,442C 1355.46,450.294 1363.79,459.294 1371.5,469C 1382.04,471.12 1391.04,468.454 1398.5,461C 1406.99,456.922 1415.32,452.588 1423.5,448C 1431.1,440.572 1438.43,433.072 1445.5,425.5C 1449.15,418.509 1448.98,411.509 1445,404.5C 1442.33,400.5 1439.67,396.5 1437,392.5C 1435.33,385.636 1436.83,379.636 1441.5,374.5C 1449.37,369.73 1456.7,364.23 1463.5,358C 1469.55,354.974 1475.55,354.974 1481.5,358C 1484.59,361.757 1488.25,364.757 1492.5,367C 1499.09,375.934 1506.09,384.6 1513.5,393C 1527.43,399.307 1540.1,407.64 1551.5,418C 1563.87,424.844 1575.87,432.178 1587.5,440C 1603.23,448.365 1619.57,455.365 1636.5,461C 1644.53,465.011 1651.86,470.011 1658.5,476C 1666.39,479.195 1673.89,483.028 1681,487.5C 1687.79,501.146 1684.29,510.979 1670.5,517C 1668.18,521.795 1665.02,525.962 1661,529.5C 1648.2,552.842 1642.53,577.842 1644,604.5C 1646.32,616.412 1647.32,628.412 1647,640.5C 1640.75,654.814 1630.25,658.98 1615.5,653C 1611.63,651.989 1607.97,650.489 1604.5,648.5C 1597.09,651.296 1589.42,652.129 1581.5,651C 1574.35,648.448 1567.01,646.615 1559.5,645.5C 1548.19,647.333 1536.85,647.833 1525.5,647C 1517.98,655.523 1510.14,663.69 1502,671.5C 1496.9,680.042 1492.06,688.709 1487.5,697.5C 1493.23,708.418 1500.56,718.252 1509.5,727C 1514.22,728.196 1518.56,730.196 1522.5,733C 1531.5,735.331 1540.5,737.665 1549.5,740C 1578.28,743.476 1606.95,747.476 1635.5,752C 1640.9,753.869 1645.9,756.535 1650.5,760C 1661.83,758.359 1669.33,762.859 1673,773.5C 1679.32,794.058 1681.98,815.058 1681,836.5C 1678.96,842.974 1677.96,849.641 1678,856.5C 1675.83,861.333 1672.33,864.833 1667.5,867C 1658.11,867.488 1648.78,868.488 1639.5,870C 1616.75,877.025 1594.42,885.025 1572.5,894C 1565.46,895.845 1558.46,897.845 1551.5,900C 1523.3,914.764 1493.97,926.764 1463.5,936C 1417.33,957.085 1372,979.752 1327.5,1004C 1318.09,1012.02 1308.75,1020.02 1299.5,1028C 1302.27,1038.91 1305.44,1049.75 1309,1060.5C 1311.73,1064.19 1315.06,1067.19 1319,1069.5C 1326.12,1077.23 1326.28,1085.07 1319.5,1093C 1306.54,1096.88 1293.87,1101.54 1281.5,1107C 1274.83,1111.33 1268.17,1115.67 1261.5,1120C 1242.17,1128.67 1222.83,1137.33 1203.5,1146C 1180.14,1164.03 1156.81,1182.03 1133.5,1200C 1120.46,1208.27 1106.62,1214.77 1092,1219.5C 1083.79,1214.94 1079.12,1207.94 1078,1198.5C 1076.83,1174.43 1074.99,1150.43 1072.5,1126.5C 1072.42,1121.72 1073.09,1117.06 1074.5,1112.5C 1073.38,1100.86 1072.54,1089.2 1072,1077.5C 1067.89,1062.72 1064.89,1047.72 1063,1032.5C 1062.64,1009.46 1063.47,986.463 1065.5,963.5C 1064.74,943.146 1063.57,922.812 1062,902.5C 1054.01,840.929 1046.68,779.263 1040,717.5C 1038.99,702.183 1038.32,686.849 1038,671.5C 1037.26,667.018 1036.09,662.685 1034.5,658.5C 1026.47,654.469 1018.14,651.636 1009.5,650C 1005.36,661.441 999.529,671.941 992,681.5C 985.147,697.051 978.48,712.717 972,728.5C 965.982,749.902 959.648,771.235 953,792.5C 949.777,806.393 947.111,820.393 945,834.5C 942.39,842.777 936.89,847.944 928.5,850C 918.532,851.442 908.532,852.109 898.5,852C 893.854,851.674 889.521,850.34 885.5,848C 881.667,842.833 877.167,838.333 872,834.5C 865.922,826.677 860.089,818.677 854.5,810.5C 848.932,799.446 842.766,788.779 836,778.5C 828.953,770.455 822.287,762.122 816,753.5C 797.378,734.873 779.378,715.54 762,695.5C 753.955,684.577 745.788,673.744 737.5,663C 726.268,655.769 715.601,647.769 705.5,639C 694.44,635.533 683.107,633.533 671.5,633C 662.667,630.833 657.167,625.333 655,616.5C 654.206,606.593 654.706,596.76 656.5,587C 655.402,581.071 655.902,575.237 658,569.5C 662,562.833 666,556.167 670,549.5C 673.648,544.685 677.815,540.352 682.5,536.5C 683.022,535.393 683.355,534.226 683.5,533C 679.988,523.451 677.488,513.618 676,503.5C 670.69,489.957 667.023,475.957 665,461.5C 656.731,451.898 649.231,441.732 642.5,431C 632.737,424.9 622.737,419.234 612.5,414C 606.859,408.762 603.692,402.262 603,394.5C 599.629,379.992 597.962,365.325 598,350.5C 598.031,346.232 599.031,342.232 601,338.5C 604.401,334.929 607.901,331.595 611.5,328.5C 613.253,315.901 616.086,303.567 620,291.5C 624.238,263.277 623.238,235.277 617,207.5C 614.212,197.787 609.545,189.12 603,181.5C 599.705,169.733 597.705,157.733 597,145.5C 594.031,140.705 593.698,135.705 596,130.5C 598.317,126.551 600.817,122.717 603.5,119C 620.037,108.57 636.371,97.9033 652.5,87C 663.081,81.8068 673.748,76.8068 684.5,72C 703.304,54.5428 724.304,40.2095 747.5,29C 750.72,26.8971 753.72,24.5638 756.5,22C 771.388,15.3861 786.054,8.55278 800.5,1.5 Z"/></g>
<g><path style="opacity:1" fill="#8d6e4d" d="M 889.5,29.5 C 882.724,29.364 875.724,29.364 868.5,29.5C 874.843,28.7381 881.343,28.0715 888,27.5C 888.833,27.8333 889.667,28.1667 890.5,28.5C 890.376,29.1067 890.043,29.44 889.5,29.5 Z"/></g>
<g><path style="opacity:1" fill="#aa865b" d="M 889.5,29.5 C 888.249,32.7926 888.249,36.1259 889.5,39.5C 899.837,64.025 914.504,85.525 933.5,104C 937.672,107.499 942.338,110.166 947.5,112C 958.992,115.623 970.659,118.457 982.5,120.5C 987.985,121.652 993.651,121.818 999.5,121C 1006.17,120.333 1012.83,119.667 1019.5,119C 1022.74,118.594 1025.74,117.761 1028.5,116.5C 1038.49,112.852 1048.83,111.352 1059.5,112C 1064.4,119.238 1068.9,126.738 1073,134.5C 1085.33,149.833 1097.67,165.167 1110,180.5C 1113.72,187.665 1117.05,194.998 1120,202.5C 1125,208.5 1130,214.5 1135,220.5C 1145.04,228.869 1154.04,238.203 1162,248.5C 1167.33,258.5 1172.67,268.5 1178,278.5C 1178.93,281.136 1179.77,283.803 1180.5,286.5C 1177.93,291.63 1175.93,296.964 1174.5,302.5C 1172.84,304.438 1172.17,306.772 1172.5,309.5C 1172.17,310.167 1171.83,310.833 1171.5,311.5C 1170.23,313.905 1169.57,316.572 1169.5,319.5C 1167.95,323.567 1167.28,327.9 1167.5,332.5C 1167.5,333.167 1167.5,333.833 1167.5,334.5C 1165.87,341.615 1164.87,348.948 1164.5,356.5C 1162.02,379.387 1162.52,402.387 1166,425.5C 1167.02,429.895 1168.18,434.229 1169.5,438.5C 1170.08,441.947 1171.42,444.947 1173.5,447.5C 1179.8,462.129 1190.13,472.796 1204.5,479.5C 1207.66,482 1211.33,483.333 1215.5,483.5C 1242.68,489.891 1269.34,488.558 1295.5,479.5C 1298.72,479.655 1301.38,478.655 1303.5,476.5C 1311.59,471.056 1320.59,468.223 1330.5,468C 1339.54,476.704 1348.87,485.038 1358.5,493C 1366.98,497.657 1375.98,498.824 1385.5,496.5C 1389.8,495.8 1394.13,495.467 1398.5,495.5C 1406.19,495.729 1413.52,494.229 1420.5,491C 1436.45,483.618 1450.29,473.451 1462,460.5C 1466.74,452.354 1470.91,444.02 1474.5,435.5C 1475.92,433.485 1476.59,431.152 1476.5,428.5C 1476.79,419.095 1476.13,409.762 1474.5,400.5C 1474.36,398.192 1475.03,396.192 1476.5,394.5C 1484.12,408.955 1495.79,418.455 1511.5,423C 1520.14,430.323 1529.47,436.656 1539.5,442C 1545.55,448.567 1552.55,453.733 1560.5,457.5C 1565.5,459.943 1570.83,461.61 1576.5,462.5C 1599.27,474.213 1622.6,484.88 1646.5,494.5C 1633.33,505.519 1623.83,519.186 1618,535.5C 1615.12,542.975 1612.95,550.641 1611.5,558.5C 1610.23,560.905 1609.57,563.572 1609.5,566.5C 1609.79,568.735 1609.46,570.735 1608.5,572.5C 1607.83,576.82 1607.5,581.32 1607.5,586C 1607.34,593.064 1608.01,599.897 1609.5,606.5C 1609.5,608.167 1609.5,609.833 1609.5,611.5C 1592.17,611.5 1574.83,611.5 1557.5,611.5C 1549.65,611.825 1541.98,611.492 1534.5,610.5C 1532.19,609.836 1529.69,609.503 1527,609.5C 1523.2,609.304 1519.7,609.97 1516.5,611.5C 1513.74,612.38 1511.07,613.546 1508.5,615C 1494.87,626.966 1481.53,639.299 1468.5,652C 1461.99,656.423 1455.66,661.089 1449.5,666C 1445.25,670.507 1442.91,675.84 1442.5,682C 1444.87,704.459 1452.37,724.959 1465,743.5C 1470.08,747.624 1475.58,751.124 1481.5,754C 1495.11,759.145 1508.77,763.979 1522.5,768.5C 1524.51,769.924 1526.85,770.59 1529.5,770.5C 1538.56,773.312 1547.9,775.478 1557.5,777C 1566.93,777.104 1576.26,777.937 1585.5,779.5C 1598.32,779.931 1611.32,779.931 1624.5,779.5C 1629.36,779.181 1634.03,779.514 1638.5,780.5C 1638.33,784.514 1638.5,788.514 1639,792.5C 1640.79,806.211 1642.96,819.878 1645.5,833.5C 1627.9,838.921 1610.57,844.921 1593.5,851.5C 1590.28,851.345 1587.62,852.345 1585.5,854.5C 1575.83,857.556 1566.16,860.723 1556.5,864C 1550.11,866.595 1544.11,869.761 1538.5,873.5C 1536.33,873.75 1534.66,874.75 1533.5,876.5C 1522.9,881.486 1512.23,886.486 1501.5,891.5C 1495.88,892.987 1490.55,894.987 1485.5,897.5C 1467.21,903.655 1448.88,909.655 1430.5,915.5C 1424.83,916.39 1419.5,918.057 1414.5,920.5C 1412.21,920.595 1410.21,921.262 1408.5,922.5C 1394.69,927.403 1381.36,933.403 1368.5,940.5C 1366.33,940.75 1364.66,941.75 1363.5,943.5C 1341.28,954.887 1319.95,967.721 1299.5,982C 1290.76,989.019 1284.1,997.519 1279.5,1007.5C 1274.63,1017.03 1274.3,1026.7 1278.5,1036.5C 1280.42,1041.61 1281.42,1046.95 1281.5,1052.5C 1281.52,1054.56 1281.85,1056.56 1282.5,1058.5C 1272.13,1061.44 1261.79,1064.1 1251.5,1066.5C 1244.83,1067.72 1238.5,1069.72 1232.5,1072.5C 1215.55,1079.14 1199.55,1087.64 1184.5,1098C 1163.8,1117.04 1142.8,1135.7 1121.5,1154C 1115.59,1159.4 1110.26,1165.24 1105.5,1171.5C 1104.83,1169.17 1104.17,1166.83 1103.5,1164.5C 1103.5,1161.83 1103.5,1159.17 1103.5,1156.5C 1102.95,1122 1102.28,1087.67 1101.5,1053.5C 1099.03,1023.33 1096.7,992.992 1094.5,962.5C 1094.2,954.986 1093.54,947.653 1092.5,940.5C 1092.5,939.5 1092.5,938.5 1092.5,937.5C 1092.48,922.949 1091.48,908.616 1089.5,894.5C 1089.22,883.415 1088.22,872.415 1086.5,861.5C 1086.13,853.198 1084.8,845.198 1082.5,837.5C 1078.23,804.426 1074.56,771.426 1071.5,738.5C 1071.34,731.578 1070.34,724.911 1068.5,718.5C 1068.59,715.848 1067.92,713.515 1066.5,711.5C 1066.59,708.848 1065.92,706.515 1064.5,704.5C 1063.24,692.896 1062.07,681.229 1061,669.5C 1058.21,657.579 1056.21,645.579 1055,633.5C 1052.62,630.727 1049.78,628.561 1046.5,627C 1031.66,621.12 1016.32,617.787 1000.5,617C 997.452,617.606 994.952,619.106 993,621.5C 987.509,637.481 979.176,651.814 968,664.5C 958.597,681.25 949.597,698.25 941,715.5C 938.11,723.666 935.943,732 934.5,740.5C 932.603,742.698 931.603,745.364 931.5,748.5C 930.076,750.515 929.41,752.848 929.5,755.5C 928.129,757.936 927.129,760.603 926.5,763.5C 922.073,775.872 918.573,788.539 916,801.5C 897.74,774.565 875.906,750.732 850.5,730C 838.102,718.271 826.435,705.938 815.5,693C 804.206,684.042 793.206,674.709 782.5,665C 762.526,645.359 742.859,625.359 723.5,605C 717.667,600.5 711.833,596 706,591.5C 706.419,581.144 707.419,570.811 709,560.5C 710.609,557.593 712.442,554.927 714.5,552.5C 716.834,550.824 717.834,548.491 717.5,545.5C 725.278,529.166 727.278,512.166 723.5,494.5C 723.811,489.234 723.145,484.234 721.5,479.5C 719.81,471.445 716.976,463.778 713,456.5C 703.713,444.211 694.046,432.211 684,420.5C 675.731,413.281 666.565,407.447 656.5,403C 645.637,387.779 636.97,371.279 630.5,353.5C 648.698,336.437 658.864,315.437 661,290.5C 664.873,269.673 664.206,249.007 659,228.5C 656.844,220.876 654.844,213.21 653,205.5C 651.914,201.237 650.247,197.237 648,193.5C 645.92,183.764 643.586,174.097 641,164.5C 640.598,153.773 639.931,143.107 639,132.5C 682.855,110.158 726.021,86.658 768.5,62C 774.347,59.2151 780.347,56.7151 786.5,54.5C 792.7,53.6578 798.367,51.6578 803.5,48.5C 815.856,45.3853 827.522,40.7186 838.5,34.5C 840.196,34.3146 841.529,33.4813 842.5,32C 847.684,31.8261 852.684,31.3261 857.5,30.5C 861.064,29.5773 864.731,29.244 868.5,29.5C 875.724,29.364 882.724,29.364 889.5,29.5 Z"/></g>
<g><path style="opacity:1" fill="#91714f" d="M 857.5,30.5 C 852.684,31.3261 847.684,31.8261 842.5,32C 841.529,33.4813 840.196,34.3146 838.5,34.5C 839.29,33.2058 840.29,32.0391 841.5,31C 846.823,30.5006 852.156,30.334 857.5,30.5 Z"/></g>
<g><path style="opacity:1" fill="#927150" d="M 803.5,48.5 C 798.367,51.6578 792.7,53.6578 786.5,54.5C 791.941,52.1291 797.608,50.1291 803.5,48.5 Z"/></g>
<g><path style="opacity:1" fill="#b99f7f" d="M 854.5,76.5 C 855.376,76.3691 856.043,76.7025 856.5,77.5C 865.168,96.8555 876.334,114.522 890,130.5C 894.167,134 898.333,137.5 902.5,141C 916.013,147.967 930.347,152.633 945.5,155C 973.833,155.333 1002.17,155.667 1030.5,156C 1036.61,165.774 1043.11,175.274 1050,184.5C 1058.38,193.875 1066.38,203.542 1074,213.5C 1078.81,223.786 1084.14,233.786 1090,243.5C 1100.67,255.5 1112,266.833 1124,277.5C 1129.1,284.037 1132.27,291.371 1133.5,299.5C 1131.75,313.825 1130.25,328.159 1129,342.5C 1127.98,378.869 1128.65,415.202 1131,451.5C 1133.02,467.215 1138.02,481.881 1146,495.5C 1159.11,510.47 1175.61,518.637 1195.5,520C 1231.83,520.667 1268.17,520.667 1304.5,520C 1306.85,519.564 1309.18,519.064 1311.5,518.5C 1315.28,521.109 1318.95,523.943 1322.5,527C 1325.38,528.608 1328.38,529.941 1331.5,531C 1369.9,532.118 1408.23,531.452 1446.5,529C 1464.56,522.225 1480.39,512.058 1494,498.5C 1498.4,491.757 1502.4,484.757 1506,477.5C 1512.2,485.025 1520.03,490.192 1529.5,493C 1535.89,494.847 1542.23,496.847 1548.5,499C 1558.68,504.589 1569.01,509.922 1579.5,515C 1574.08,535.095 1572.08,555.595 1573.5,576.5C 1541.78,576.03 1510.12,576.53 1478.5,578C 1474.16,580.171 1470.16,582.837 1466.5,586C 1454.53,596.97 1442.86,608.304 1431.5,620C 1421.06,624.106 1413.56,631.273 1409,641.5C 1408.07,670.195 1408.4,698.861 1410,727.5C 1413.7,744.773 1419.87,761.107 1428.5,776.5C 1434.76,781.31 1441.42,785.476 1448.5,789C 1486.91,805.414 1526.91,813.748 1568.5,814C 1553.58,819.293 1538.58,824.293 1523.5,829C 1503.89,839.761 1483.89,849.761 1463.5,859C 1426.83,871.333 1390.17,883.667 1353.5,896C 1330.05,907.891 1307.05,920.557 1284.5,934C 1273.59,940.627 1263.59,948.46 1254.5,957.5C 1250.24,963.008 1246.74,969.008 1244,975.5C 1242.91,992.133 1242.07,1008.8 1241.5,1025.5C 1220.9,1030.15 1200.9,1036.65 1181.5,1045C 1164.7,1052.81 1149.53,1062.98 1136,1075.5C 1135.67,1053.83 1135.33,1032.17 1135,1010.5C 1129.5,950.953 1124.83,891.286 1121,831.5C 1114.18,785.596 1108.51,739.596 1104,693.5C 1102.79,684.309 1100.79,675.309 1098,666.5C 1097.74,655.101 1096.74,643.768 1095,632.5C 1092.35,621.233 1090.35,609.9 1089,598.5C 1087.83,597.333 1086.67,596.167 1085.5,595C 1073.22,589.795 1060.55,585.795 1047.5,583C 1018.75,582.017 990.08,582.35 961.5,584C 957.518,593.014 953.018,601.848 948,610.5C 941.22,618.616 935.22,627.282 930,636.5C 922.906,650.357 915.573,664.024 908,677.5C 904.384,687.294 901.384,697.294 899,707.5C 881.167,692.333 864.667,675.833 849.5,658C 840.125,649.623 830.458,641.623 820.5,634C 806.114,619.403 791.614,604.903 777,590.5C 771.333,582.167 764.333,575.167 756,569.5C 756.197,565.042 757.197,560.709 759,556.5C 759.667,527.5 759.667,498.5 759,469.5C 757.428,460.214 756.095,450.88 755,441.5C 752.103,432.8 748.436,424.467 744,416.5C 735.623,407.125 727.623,397.458 720,387.5C 711.701,378.931 701.867,372.765 690.5,369C 687.822,367.159 686.155,364.659 685.5,361.5C 690.529,348.577 694.029,335.244 696,321.5C 697.582,285.853 697.916,250.186 697,214.5C 693.624,198.033 689.624,181.699 685,165.5C 684.202,163.741 684.369,162.074 685.5,160.5C 711.106,148.032 736.106,134.532 760.5,120C 775.135,112.014 789.802,104.014 804.5,96C 821.181,89.1688 837.848,82.6688 854.5,76.5 Z"/></g>
<g><path style="opacity:1" fill="#88694b" d="M 1028.5,116.5 C 1025.74,117.761 1022.74,118.594 1019.5,119C 1012.83,119.667 1006.17,120.333 999.5,121C 993.651,121.818 987.985,121.652 982.5,120.5C 997.907,119.991 1013.24,118.657 1028.5,116.5 Z"/></g>
<g><path style="opacity:1" fill="#6a4f3c" d="M 1174.5,302.5 C 1174.59,305.152 1173.92,307.485 1172.5,309.5C 1172.17,306.772 1172.84,304.438 1174.5,302.5 Z"/></g>
<g><path style="opacity:1" fill="#715640" d="M 1171.5,311.5 C 1171.71,314.495 1171.04,317.162 1169.5,319.5C 1169.57,316.572 1170.23,313.905 1171.5,311.5 Z"/></g>
<g><path style="opacity:1" fill="#6c513d" d="M 1169.5,319.5 C 1169.72,324.1 1169.05,328.433 1167.5,332.5C 1167.28,327.9 1167.95,323.567 1169.5,319.5 Z"/></g>
<g><path style="opacity:1" fill="#644a39" d="M 1167.5,334.5 C 1167.56,342.109 1166.56,349.442 1164.5,356.5C 1164.87,348.948 1165.87,341.615 1167.5,334.5 Z"/></g>
<g><path style="opacity:1" fill="#806347" d="M 1476.5,428.5 C 1476.59,431.152 1475.92,433.485 1474.5,435.5C 1474.41,432.848 1475.08,430.515 1476.5,428.5 Z"/></g>
<g><path style="opacity:1" fill="#775b43" d="M 1169.5,438.5 C 1171.58,441.053 1172.92,444.053 1173.5,447.5C 1171.42,444.947 1170.08,441.947 1169.5,438.5 Z"/></g>
<g><path style="opacity:1" fill="#664d3a" d="M 1560.5,457.5 C 1566.17,458.39 1571.5,460.057 1576.5,462.5C 1570.83,461.61 1565.5,459.943 1560.5,457.5 Z"/></g>
<g><path style="opacity:1" fill="#816347" d="M 1303.5,476.5 C 1301.38,478.655 1298.72,479.655 1295.5,479.5C 1297.94,478.129 1300.6,477.129 1303.5,476.5 Z"/></g>
<g><path style="opacity:1" fill="#6a4f3c" d="M 1204.5,479.5 C 1208.53,480.025 1212.2,481.358 1215.5,483.5C 1211.33,483.333 1207.66,482 1204.5,479.5 Z"/></g>
<g><path style="opacity:1" fill="#624939" d="M 721.5,479.5 C 723.145,484.234 723.811,489.234 723.5,494.5C 722.111,489.731 721.444,484.731 721.5,479.5 Z"/></g>
<g><path style="opacity:1" fill="#90704e" d="M 1398.5,495.5 C 1394.13,495.467 1389.8,495.8 1385.5,496.5C 1389.77,493.663 1394.1,493.33 1398.5,495.5 Z"/></g>
<g><path style="opacity:1" fill="#87694a" d="M 717.5,545.5 C 717.834,548.491 716.834,550.824 714.5,552.5C 714.935,549.843 715.935,547.509 717.5,545.5 Z"/></g>
<g><path style="opacity:1" fill="#846649" d="M 1611.5,558.5 C 1611.71,561.495 1611.04,564.162 1609.5,566.5C 1609.57,563.572 1610.23,560.905 1611.5,558.5 Z"/></g>
<g><path style="opacity:1" fill="#795d44" d="M 1608.5,572.5 C 1608.41,583.85 1608.74,595.183 1609.5,606.5C 1608.01,599.897 1607.34,593.064 1607.5,586C 1607.5,581.32 1607.83,576.82 1608.5,572.5 Z"/></g>
<g><path style="opacity:1" fill="#836548" d="M 1534.5,610.5 C 1528.46,610.36 1522.46,610.693 1516.5,611.5C 1519.7,609.97 1523.2,609.304 1527,609.5C 1529.69,609.503 1532.19,609.836 1534.5,610.5 Z"/></g>
<g><path style="opacity:1" fill="#886a4b" d="M 1609.5,606.5 C 1610.46,608.265 1610.79,610.265 1610.5,612.5C 1592.66,612.83 1574.99,612.497 1557.5,611.5C 1574.83,611.5 1592.17,611.5 1609.5,611.5C 1609.5,609.833 1609.5,608.167 1609.5,606.5 Z"/></g>
<g><path style="opacity:1" fill="#674e3b" d="M 1064.5,704.5 C 1065.92,706.515 1066.59,708.848 1066.5,711.5C 1064.84,709.562 1064.17,707.228 1064.5,704.5 Z"/></g>
<g><path style="opacity:1" fill="#6c513d" d="M 1066.5,711.5 C 1067.92,713.515 1068.59,715.848 1068.5,718.5C 1067.08,716.485 1066.41,714.152 1066.5,711.5 Z"/></g>
<g><path style="opacity:1" fill="#654b3a" d="M 1068.5,718.5 C 1070.34,724.911 1071.34,731.578 1071.5,738.5C 1069.66,732.089 1068.66,725.422 1068.5,718.5 Z"/></g>
<g><path style="opacity:1" fill="#7b5e44" d="M 934.5,740.5 C 934.097,743.486 933.097,746.152 931.5,748.5C 931.603,745.364 932.603,742.698 934.5,740.5 Z"/></g>
<g><path style="opacity:1" fill="#745841" d="M 931.5,748.5 C 931.59,751.152 930.924,753.485 929.5,755.5C 929.41,752.848 930.076,750.515 931.5,748.5 Z"/></g>
<g><path style="opacity:1" fill="#674e3b" d="M 929.5,755.5 C 929.655,758.716 928.655,761.383 926.5,763.5C 927.129,760.603 928.129,757.936 929.5,755.5 Z"/></g>
<g><path style="opacity:1" fill="#6e533e" d="M 1522.5,768.5 C 1525.15,768.41 1527.49,769.076 1529.5,770.5C 1526.85,770.59 1524.51,769.924 1522.5,768.5 Z"/></g>
<g><path style="opacity:1" fill="#604838" d="M 1624.5,779.5 C 1624.5,779.167 1624.5,778.833 1624.5,778.5C 1629.54,778.173 1634.54,778.506 1639.5,779.5C 1639.38,780.107 1639.04,780.44 1638.5,780.5C 1634.03,779.514 1629.36,779.181 1624.5,779.5 Z"/></g>
<g><path style="opacity:1" fill="#967552" d="M 1624.5,778.5 C 1624.5,778.833 1624.5,779.167 1624.5,779.5C 1611.32,779.931 1598.32,779.931 1585.5,779.5C 1598.49,778.797 1611.49,778.463 1624.5,778.5 Z"/></g>
<g><path style="opacity:1" fill="#765942" d="M 1082.5,837.5 C 1084.8,845.198 1086.13,853.198 1086.5,861.5C 1084.52,853.741 1083.19,845.741 1082.5,837.5 Z"/></g>
<g><path style="opacity:1" fill="#735741" d="M 1593.5,851.5 C 1591.06,852.871 1588.4,853.871 1585.5,854.5C 1587.62,852.345 1590.28,851.345 1593.5,851.5 Z"/></g>
<g><path style="opacity:1" fill="#694e3c" d="M 1538.5,873.5 C 1537.51,875.408 1535.85,876.408 1533.5,876.5C 1534.66,874.75 1536.33,873.75 1538.5,873.5 Z"/></g>
<g><path style="opacity:1" fill="#664c3a" d="M 1501.5,891.5 C 1496.79,894.852 1491.46,896.852 1485.5,897.5C 1490.55,894.987 1495.88,892.987 1501.5,891.5 Z"/></g>
<g><path style="opacity:1" fill="#624938" d="M 1089.5,894.5 C 1091.48,908.616 1092.48,922.949 1092.5,937.5C 1090.69,923.372 1089.69,909.039 1089.5,894.5 Z"/></g>
<g><path style="opacity:1" fill="#654c3a" d="M 1430.5,915.5 C 1425.6,918.271 1420.26,919.937 1414.5,920.5C 1419.5,918.057 1424.83,916.39 1430.5,915.5 Z"/></g>
<g><path style="opacity:1" fill="#745841" d="M 1414.5,920.5 C 1412.9,922.074 1410.9,922.741 1408.5,922.5C 1410.21,921.262 1412.21,920.595 1414.5,920.5 Z"/></g>
<g><path style="opacity:1" fill="#664d3b" d="M 1368.5,940.5 C 1367.51,942.408 1365.85,943.408 1363.5,943.5C 1364.66,941.75 1366.33,940.75 1368.5,940.5 Z"/></g>
<g><path style="opacity:1" fill="#5c4435" d="M 1092.5,940.5 C 1093.54,947.653 1094.2,954.986 1094.5,962.5C 1092.54,955.576 1091.87,948.243 1092.5,940.5 Z"/></g>
<g><path style="opacity:1" fill="#604737" d="M 1279.5,1007.5 C 1277.28,1017.08 1276.95,1026.75 1278.5,1036.5C 1274.3,1026.7 1274.63,1017.03 1279.5,1007.5 Z"/></g>
<g><path style="opacity:1" fill="#856749" d="M 1281.5,1052.5 C 1283.46,1054.32 1283.79,1056.32 1282.5,1058.5C 1281.85,1056.56 1281.52,1054.56 1281.5,1052.5 Z"/></g>
<g><path style="opacity:1" fill="#614938" d="M 1251.5,1066.5 C 1245.5,1069.28 1239.17,1071.28 1232.5,1072.5C 1238.5,1069.72 1244.83,1067.72 1251.5,1066.5 Z"/></g>
<g><path style="opacity:1" fill="#8f6f4e" d="M 1101.5,1053.5 C 1102.28,1087.67 1102.95,1122 1103.5,1156.5C 1102.67,1152.02 1102.17,1147.35 1102,1142.5C 1101.5,1112.84 1101.33,1083.17 1101.5,1053.5 Z"/></g>
<g><path style="opacity:1" fill="#674d3b" d="M 1103.5,1164.5 C 1104.17,1166.83 1104.83,1169.17 1105.5,1171.5C 1105.44,1172.04 1105.11,1172.38 1104.5,1172.5C 1103.52,1169.91 1103.19,1167.25 1103.5,1164.5 Z"/></g>
</svg>
