<?xml version="1.0" encoding="UTF-8"?>
<!DOCTYPE svg PUBLIC "-//W3C//DTD SVG 1.1//EN" "http://www.w3.org/Graphics/SVG/1.1/DTD/svg11.dtd">
<svg xmlns="http://www.w3.org/2000/svg" version="1.1" width="2296px" height="1221px" style="shape-rendering:geometricPrecision; text-rendering:geometricPrecision; image-rendering:optimizeQuality; fill-rule:evenodd; clip-rule:evenodd" xmlns:xlink="http://www.w3.org/1999/xlink">
<g><path style="opacity:0.984" fill="#48332c" d="M 1263.5,322.5 C 1268.29,322.624 1272.96,323.458 1277.5,325C 1290.99,331.911 1303.99,339.577 1316.5,348C 1325.88,356.703 1333.72,366.536 1340,377.5C 1340.5,398.642 1342.5,419.642 1346,440.5C 1352.82,463.653 1365.32,483.153 1383.5,499C 1398.35,506.309 1414.02,508.976 1430.5,507C 1443.27,503.652 1456.27,501.985 1469.5,502C 1476.17,499 1482.83,496 1489.5,493C 1496.79,491.491 1503.46,492.824 1509.5,497C 1515.57,503.74 1522.24,509.74 1529.5,515C 1546.67,526.004 1564.51,535.837 1583,544.5C 1584.59,543.624 1586.09,542.624 1587.5,541.5C 1595.5,544.868 1603.83,547.035 1612.5,548C 1631.44,550.513 1650.44,552.513 1669.5,554C 1684.99,554.826 1697.49,561.326 1707,573.5C 1710.67,578.5 1714.33,583.5 1718,588.5C 1727.98,614.308 1744.48,634.808 1767.5,650C 1774.99,659.486 1783.15,668.32 1792,676.5C 1794.57,680.426 1796.07,684.76 1796.5,689.5C 1796.9,709.007 1792.07,727.007 1782,743.5C 1776.21,750.643 1768.71,754.477 1759.5,755C 1753.21,759.097 1746.54,762.43 1739.5,765C 1726.92,768.645 1714.25,771.978 1701.5,775C 1690.4,777.29 1679.4,776.957 1668.5,774C 1665.59,772.627 1662.75,771.127 1660,769.5C 1655.97,771.456 1651.8,773.122 1647.5,774.5C 1647.17,775.333 1646.83,776.167 1646.5,777C 1650.18,794.071 1653.35,811.238 1656,828.5C 1656.67,835.5 1656.67,842.5 1656,849.5C 1646.24,871.83 1632.41,891.33 1614.5,908C 1610.16,911.172 1605.49,913.839 1600.5,916C 1572.9,927.532 1544.57,936.865 1515.5,944C 1506.8,944.97 1498.14,946.136 1489.5,947.5C 1456.41,938.802 1429.08,921.302 1407.5,895C 1399.97,889.399 1391.97,884.566 1383.5,880.5C 1376.97,873.109 1373.14,864.442 1372,854.5C 1367.62,831.689 1364.62,808.689 1363,785.5C 1350.29,780.729 1337.12,778.063 1323.5,777.5C 1322.12,791.459 1321.29,805.459 1321,819.5C 1320.75,822.85 1319.92,826.017 1318.5,829C 1321.74,832.71 1323.4,837.043 1323.5,842C 1321.95,853.303 1318.79,864.136 1314,874.5C 1307.06,887.375 1300.4,900.375 1294,913.5C 1291.2,917.299 1288.04,920.799 1284.5,924C 1275.99,929.419 1267.66,935.086 1259.5,941C 1252.61,945.112 1245.28,948.112 1237.5,950C 1219.63,953.282 1201.63,955.616 1183.5,957C 1171.04,959.865 1158.71,963.198 1146.5,967C 1135.36,968.956 1124.19,970.789 1113,972.5C 1108.8,971.828 1104.63,970.994 1100.5,970C 1094.47,966.984 1088.47,963.984 1082.5,961C 1061.92,957.438 1041.59,952.772 1021.5,947C 1003.75,942.751 985.755,940.751 967.5,941C 958.756,938.828 950.09,936.495 941.5,934C 936.748,930.586 933.581,926.086 932,920.5C 932.513,906.45 932.513,892.45 932,878.5C 916.917,869.041 901.75,859.708 886.5,850.5C 881.915,854.584 876.915,858.084 871.5,861C 860.773,865.464 849.773,869.131 838.5,872C 812.4,877.324 786.067,880.824 759.5,882.5C 745.032,882.246 730.699,880.746 716.5,878C 705.045,875.878 695.545,870.378 688,861.5C 684.833,856.333 681.667,851.167 678.5,846C 670.167,840.333 661.833,834.667 653.5,829C 648.523,825.336 643.189,824.67 637.5,827C 627.384,831.804 618.217,837.971 610,845.5C 603.846,867.498 591.013,872.665 571.5,861C 565.167,856 558.833,851 552.5,846C 541.944,835.109 531.111,824.609 520,814.5C 517.105,808.998 516.771,803.331 519,797.5C 523,786.833 527,776.167 531,765.5C 533.664,757.012 535.498,748.345 536.5,739.5C 535.127,732.749 532.627,726.416 529,720.5C 518.81,706.626 509.81,691.959 502,676.5C 501.333,675.167 501.333,673.833 502,672.5C 529.092,640.738 556.925,609.571 585.5,579C 586.908,578.685 588.241,579.018 589.5,580C 601.5,588.667 613.5,597.333 625.5,606C 632.208,611.041 637.875,617.041 642.5,624C 647.316,626.217 652.316,627.717 657.5,628.5C 675.614,625.244 693.614,621.41 711.5,617C 721.623,614.515 731.29,610.848 740.5,606C 745.719,599.782 750.552,593.282 755,586.5C 761.017,573.136 767.017,559.803 773,546.5C 776.414,540.003 780.081,533.67 784,527.5C 796.43,517.337 809.93,515.837 824.5,523C 834.377,533.721 844.711,544.054 855.5,554C 873.753,566.043 891.919,578.209 910,590.5C 938.372,589.162 966.538,585.662 994.5,580C 1003.77,576.798 1013.1,573.798 1022.5,571C 1042.41,569.627 1062.07,566.627 1081.5,562C 1091.83,560.606 1102.17,559.273 1112.5,558C 1119.24,551.162 1123.74,542.996 1126,533.5C 1129.77,526.732 1133.94,520.232 1138.5,514C 1129.26,507.713 1119.26,503.046 1108.5,500C 1104.02,496.38 1101.36,491.714 1100.5,486C 1105.33,465.167 1110.17,444.333 1115,423.5C 1116.81,417.747 1118.81,412.08 1121,406.5C 1125.42,400.072 1130.59,394.239 1136.5,389C 1148.88,378.95 1161.55,369.283 1174.5,360C 1190.76,352.025 1207.43,345.025 1224.5,339C 1236.95,331.765 1249.95,326.265 1263.5,322.5 Z"/></g>
<g><path style="opacity:1" fill="#aa865b" d="M 1251.5,352.5 C 1262.4,349.789 1270.4,353.289 1275.5,363C 1286.08,369.877 1296.92,376.377 1308,382.5C 1313.72,403.54 1318.05,424.873 1321,446.5C 1331.9,483.72 1353.74,512.554 1386.5,533C 1407.14,544.989 1429.14,548.322 1452.5,543C 1466.83,541.542 1480.33,537.375 1493,530.5C 1514.45,550.147 1538.62,565.647 1565.5,577C 1596.93,585.899 1628.93,589.232 1661.5,587C 1666.69,587.131 1671.69,588.131 1676.5,590C 1686.06,599.576 1693.23,610.743 1698,623.5C 1705.92,637.757 1715.75,650.59 1727.5,662C 1732.83,666 1738.17,670 1743.5,674C 1747.55,679.258 1751.71,684.425 1756,689.5C 1757.55,694.382 1757.89,699.382 1757,704.5C 1755.93,714.452 1753.76,724.118 1750.5,733.5C 1745.44,733.352 1740.61,734.352 1736,736.5C 1719.48,734.564 1703.15,735.564 1687,739.5C 1685.17,739.333 1683.33,739.167 1681.5,739C 1668.11,729.368 1654.45,729.035 1640.5,738C 1634.52,741.979 1629.19,746.646 1624.5,752C 1612.05,753.279 1605.72,760.113 1605.5,772.5C 1609.62,794.46 1613.62,816.46 1617.5,838.5C 1617.48,840.634 1616.98,842.634 1616,844.5C 1606.97,857.87 1596.8,870.37 1585.5,882C 1581.33,884.588 1576.99,886.921 1572.5,889C 1546.06,897.925 1519.23,905.425 1492,911.5C 1479.78,907.474 1468.28,901.974 1457.5,895C 1448.17,887 1439.5,878.333 1431.5,869C 1424.21,863.048 1416.38,857.881 1408,853.5C 1404.54,837.587 1401.54,821.587 1399,805.5C 1395.86,796.423 1392.53,787.423 1389,778.5C 1389.42,767.183 1386.25,757.017 1379.5,748C 1373.71,744.45 1367.37,742.45 1360.5,742C 1336.27,735.703 1312.94,727.036 1290.5,716C 1283.7,709.59 1275.7,706.59 1266.5,707C 1261.27,709.633 1259.44,713.799 1261,719.5C 1268.72,736.605 1277.72,752.938 1288,768.5C 1291.06,786.268 1293.9,804.102 1296.5,822C 1296.33,823.167 1296.17,824.333 1296,825.5C 1292.96,828.203 1290.3,831.203 1288,834.5C 1279.95,858.094 1269.12,880.261 1255.5,901C 1247.52,907.823 1238.52,912.823 1228.5,916C 1214.91,917.985 1201.25,918.985 1187.5,919C 1172.01,922.719 1156.68,927.052 1141.5,932C 1130.28,935.415 1118.95,936.082 1107.5,934C 1104.42,932.861 1101.42,931.528 1098.5,930C 1095.36,926.599 1091.7,923.933 1087.5,922C 1074.31,916.935 1060.97,912.269 1047.5,908C 1031.98,906.449 1016.65,903.783 1001.5,900C 993.143,899.298 984.81,898.464 976.5,897.5C 975.999,889.99 975.332,882.49 974.5,875C 974.652,868.85 976.152,863.017 979,857.5C 979.784,854.24 979.617,851.073 978.5,848C 940.069,836.851 901.236,827.351 862,819.5C 840.315,824.63 818.815,830.463 797.5,837C 778.307,839.66 759.307,838.66 740.5,834C 730.167,831 719.833,828 709.5,825C 695.448,808.791 678.448,796.624 658.5,788.5C 648.11,791.029 638.443,795.196 629.5,801C 615.202,811.636 601.869,823.302 589.5,836C 583.683,838.198 578.017,837.865 572.5,835C 566.046,826.211 559.213,817.711 552,809.5C 549.123,802.973 548.79,796.307 551,789.5C 553.333,784.833 555.667,780.167 558,775.5C 563.58,768.008 568.913,760.341 574,752.5C 576.973,732.63 573.64,713.963 564,696.5C 557.483,685.646 549.816,675.646 541,666.5C 540.333,665.5 540.333,664.5 541,663.5C 550.811,652.535 560.144,641.202 569,629.5C 571.921,624.659 574.588,619.659 577,614.5C 589.258,625.428 602.091,635.595 615.5,645C 626.387,650.778 637.72,655.444 649.5,659C 660.023,660.03 670.356,659.03 680.5,656C 701.875,651.74 722.875,646.073 743.5,639C 756.474,634.271 766.641,626.104 774,614.5C 788.705,593.219 799.872,570.219 807.5,545.5C 809.753,546.253 811.587,547.586 813,549.5C 818.748,558.584 825.915,566.417 834.5,573C 854.69,585.927 874.357,599.594 893.5,614C 896.554,616.194 899.888,617.861 903.5,619C 924.724,622.819 946.057,623.485 967.5,621C 980.891,619.373 994.224,617.373 1007.5,615C 1022.94,609.14 1038.94,606.14 1055.5,606C 1076.06,601.688 1096.72,598.022 1117.5,595C 1134.32,564.821 1150.32,534.155 1165.5,503C 1162.51,498.679 1158.85,495.012 1154.5,492C 1147.15,487.325 1139.49,483.158 1131.5,479.5C 1131.17,478.833 1130.83,478.167 1130.5,477.5C 1135.67,455.469 1140.84,433.469 1146,411.5C 1147.4,410.773 1148.9,410.273 1150.5,410C 1162.11,398.728 1175.11,389.395 1189.5,382C 1209.62,370.771 1230.29,360.937 1251.5,352.5 Z"/></g>
<g><path style="opacity:1" fill="#b99f7f" d="M 1249.5,402.5 C 1250.55,402.351 1251.55,402.517 1252.5,403C 1259.74,408.537 1267.24,413.704 1275,418.5C 1280.28,438.214 1284.28,458.214 1287,478.5C 1297.8,520.294 1322.3,551.127 1360.5,571C 1366.56,573.864 1372.89,575.864 1379.5,577C 1411.17,577.333 1442.83,577.667 1474.5,578C 1497.28,597.055 1523.28,609.722 1552.5,616C 1561.14,617.573 1569.81,618.906 1578.5,620C 1598.54,620.075 1618.54,620.741 1638.5,622C 1643.28,624.45 1647.12,627.95 1650,632.5C 1655.95,640.057 1660.61,648.39 1664,657.5C 1671.99,672.978 1682.49,686.478 1695.5,698C 1670.17,698.333 1644.83,698.667 1619.5,699C 1607.13,702.18 1597.13,708.847 1589.5,719C 1580.12,719.063 1574.28,723.563 1572,732.5C 1571.08,762.581 1571.41,792.581 1573,822.5C 1567,829.833 1561,837.167 1555,844.5C 1549.59,849.46 1543.42,853.294 1536.5,856C 1525.01,859.58 1513.51,863.08 1502,866.5C 1497.92,864.75 1494.09,862.583 1490.5,860C 1481.17,850.667 1471.83,841.333 1462.5,832C 1455.42,827.043 1448.25,822.21 1441,817.5C 1437.28,801.301 1434.28,784.968 1432,768.5C 1425.55,755.162 1421.55,741.162 1420,726.5C 1418.4,721.468 1415.9,716.968 1412.5,713C 1382.64,706.403 1353.97,696.403 1326.5,683C 1321.09,679.268 1315.43,675.935 1309.5,673C 1283.83,672.333 1258.17,672.333 1232.5,673C 1230,674.167 1228.17,676 1227,678.5C 1226.33,703.833 1226.33,729.167 1227,754.5C 1234.94,770.882 1243.77,786.716 1253.5,802C 1251.53,808.242 1249.36,814.409 1247,820.5C 1240.97,832.52 1234.97,844.52 1229,856.5C 1219.79,869.359 1207.63,878.192 1192.5,883C 1177.85,884.095 1163.18,885.095 1148.5,886C 1142,887.251 1135.66,889.084 1129.5,891.5C 1113.45,884.982 1097.12,879.149 1080.5,874C 1072.2,872.761 1063.87,871.761 1055.5,871C 1041.47,866.884 1027.14,864.717 1012.5,864.5C 1012.5,847.5 1012.5,830.5 1012.5,813.5C 994.045,809.136 975.711,804.303 957.5,799C 939.419,795.251 921.419,791.251 903.5,787C 876.5,786.333 849.5,786.333 822.5,787C 806.488,790.394 790.821,794.894 775.5,800.5C 764.742,797.644 754.075,794.477 743.5,791C 738.833,783.667 732.833,777.667 725.5,773C 716.326,766.577 706.66,760.91 696.5,756C 670.5,755.333 644.5,755.333 618.5,756C 615.5,757.167 612.5,758.333 609.5,759.5C 608.614,736.475 608.114,713.475 608,690.5C 609.399,691.227 610.899,691.727 612.5,692C 669.905,698.771 725.572,692.104 779.5,672C 789.24,668.227 797.406,662.394 804,654.5C 811.167,644.17 817.834,633.503 824,622.5C 837.891,632.723 852.058,642.557 866.5,652C 875.209,653.094 883.876,654.428 892.5,656C 928.185,656.908 963.852,656.574 999.5,655C 1021.38,653.243 1042.72,648.909 1063.5,642C 1069.5,641.667 1075.5,641.333 1081.5,641C 1104.69,636.158 1128.02,632.158 1151.5,629C 1168.22,599.721 1184.06,569.888 1199,539.5C 1199.67,515.5 1199.67,491.5 1199,467.5C 1193.75,460.949 1187.25,455.949 1179.5,452.5C 1178.63,450.534 1178.79,448.534 1180,446.5C 1189.72,438.39 1199.89,430.89 1210.5,424C 1223.56,416.805 1236.56,409.639 1249.5,402.5 Z"/></g>
</svg>
