<?xml version="1.0" encoding="UTF-8"?>
<!DOCTYPE svg PUBLIC "-//W3C//DTD SVG 1.1//EN" "http://www.w3.org/Graphics/SVG/1.1/DTD/svg11.dtd">
<svg xmlns="http://www.w3.org/2000/svg" version="1.1" width="2296px" height="1221px" style="shape-rendering:geometricPrecision; text-rendering:geometricPrecision; image-rendering:optimizeQuality; fill-rule:evenodd; clip-rule:evenodd" xmlns:xlink="http://www.w3.org/1999/xlink">
<g><path style="opacity:0.956" fill="#48332c" d="M 2080.5,199.5 C 2088.51,199.334 2096.51,199.5 2104.5,200C 2107.09,200.226 2109.59,200.726 2112,201.5C 2124.95,197.681 2130.95,202.681 2130,216.5C 2130.38,219.01 2131.21,221.343 2132.5,223.5C 2137.04,226.52 2141.87,228.853 2147,230.5C 2167.97,225.91 2189.14,222.41 2210.5,220C 2215.35,217.41 2220.35,215.076 2225.5,213C 2231.54,211.681 2236.38,213.514 2240,218.5C 2241.88,225.719 2243.21,233.052 2244,240.5C 2247.64,249.793 2251.31,259.127 2255,268.5C 2255.67,273.167 2255.67,277.833 2255,282.5C 2253.11,286.058 2250.27,288.558 2246.5,290C 2237.05,292.273 2228.05,295.606 2219.5,300C 2217.23,301.765 2215.56,303.932 2214.5,306.5C 2214.61,307.442 2214.94,308.275 2215.5,309C 2224.9,309.838 2230.9,314.671 2233.5,323.5C 2243.79,324.734 2247.62,330.401 2245,340.5C 2242.57,343.934 2240.57,347.6 2239,351.5C 2233.71,355.098 2227.88,357.431 2221.5,358.5C 2218.14,361.94 2214.64,365.273 2211,368.5C 2207.52,371.977 2204.85,375.977 2203,380.5C 2197.88,387.644 2191.04,390.144 2182.5,388C 2179.13,384.297 2175.47,380.964 2171.5,378C 2159.89,377.485 2148.56,375.485 2137.5,372C 2129.81,370.086 2123.14,371.753 2117.5,377C 2123.41,377.783 2127.74,380.783 2130.5,386C 2140.74,389.047 2151.07,391.714 2161.5,394C 2165.76,396.683 2167.76,400.516 2167.5,405.5C 2165.75,411.012 2164.59,416.678 2164,422.5C 2162.44,425.728 2159.94,427.895 2156.5,429C 2152.47,429.326 2148.47,429.326 2144.5,429C 2133.11,433.765 2121.45,437.765 2109.5,441C 2096.12,446.57 2083.12,452.904 2070.5,460C 2064.27,462.965 2057.77,465.132 2051,466.5C 2034.62,461.111 2019.96,452.778 2007,441.5C 1998.36,443.934 1989.86,446.768 1981.5,450C 1966.83,458 1952.17,466 1937.5,474C 1928.07,478.382 1918.4,482.216 1908.5,485.5C 1908.33,488.179 1907.33,490.513 1905.5,492.5C 1917.84,497.802 1930.67,499.802 1944,498.5C 1951.36,498.002 1955.69,501.335 1957,508.5C 1957.67,517.167 1957.67,525.833 1957,534.5C 1955.88,539.239 1953.38,543.072 1949.5,546C 1930.02,548.295 1910.69,551.628 1891.5,556C 1869.5,561.875 1847.33,567.041 1825,571.5C 1809.9,569.368 1805.4,561.202 1811.5,547C 1810.31,545.105 1809.31,543.105 1808.5,541C 1799.75,542.185 1791.09,544.018 1782.5,546.5C 1781.99,548.512 1781.82,550.512 1782,552.5C 1784.54,556.252 1787.54,559.585 1791,562.5C 1796.03,577.506 1790.53,585.673 1774.5,587C 1759.63,593.289 1744.3,597.956 1728.5,601C 1719.2,603.874 1711.03,602.041 1704,595.5C 1703.18,593.212 1702.51,590.878 1702,588.5C 1693.87,576.707 1684.04,566.541 1672.5,558C 1664.24,555.135 1655.91,552.469 1647.5,550C 1638.01,549.011 1628.51,548.177 1619,547.5C 1615.99,547.726 1613.15,548.559 1610.5,550C 1607.39,557.727 1601.73,562.393 1593.5,564C 1587.88,565.052 1582.22,565.718 1576.5,566C 1573.87,568.146 1570.87,569.479 1567.5,570C 1553.2,570.605 1539.2,572.939 1525.5,577C 1518.32,580.509 1511.99,585.175 1506.5,591C 1499.83,595.667 1493.17,600.333 1486.5,605C 1495.17,613 1503.83,621 1512.5,629C 1515.83,630.333 1519.17,631.667 1522.5,633C 1541.46,635.366 1560.46,637.366 1579.5,639C 1591.01,642.835 1602.34,642.835 1613.5,639C 1617.5,636.333 1621.5,633.667 1625.5,631C 1628.5,630.333 1631.5,630.333 1634.5,631C 1641.11,635.281 1647.45,639.947 1653.5,645C 1661.46,653.492 1661.46,661.825 1653.5,670C 1649.75,671.43 1646.25,673.264 1643,675.5C 1641,678.5 1641,681.5 1643,684.5C 1654.67,682.533 1666.17,679.866 1677.5,676.5C 1687.89,677.379 1694.05,683.046 1696,693.5C 1699.08,707.737 1697.42,721.404 1691,734.5C 1688.17,736.667 1685.67,739.167 1683.5,742C 1675.82,745.173 1668.16,748.339 1660.5,751.5C 1648.97,759.529 1637.3,767.363 1625.5,775C 1618.05,783.127 1610.05,790.46 1601.5,797C 1595.21,798.459 1588.88,798.459 1582.5,797C 1568.03,791.435 1553.37,786.435 1538.5,782C 1534.17,781.333 1529.83,781.333 1525.5,782C 1514.98,784.971 1504.31,787.304 1493.5,789C 1491.12,793.365 1487.45,796.032 1482.5,797C 1475.88,798.108 1469.22,798.775 1462.5,799C 1455.5,806.667 1448.5,814.333 1441.5,822C 1436.62,823.555 1431.62,823.888 1426.5,823C 1422.55,820.72 1418.89,818.053 1415.5,815C 1405.67,806.5 1396.5,797.333 1388,787.5C 1384.87,780.06 1384.87,772.726 1388,765.5C 1389.67,762.833 1391.33,760.167 1393,757.5C 1398.51,752.69 1403.34,747.356 1407.5,741.5C 1403.05,738.192 1398.22,735.525 1393,733.5C 1369.44,747.807 1344.27,758.64 1317.5,766C 1298.84,768.333 1280.17,770.667 1261.5,773C 1238.47,773.713 1215.47,774.046 1192.5,774C 1194.11,776.228 1194.78,778.728 1194.5,781.5C 1202.73,780.547 1210.4,782.047 1217.5,786C 1223.49,793.929 1226.32,802.762 1226,812.5C 1224.04,814.911 1222.21,817.411 1220.5,820C 1215.41,822.272 1210.08,823.606 1204.5,824C 1201.41,827.67 1200.24,831.836 1201,836.5C 1212.03,847.957 1214.36,860.957 1208,875.5C 1202.51,880.106 1196.18,882.106 1189,881.5C 1177.99,880.526 1167.16,881.693 1156.5,885C 1146.51,890.77 1136.18,895.77 1125.5,900C 1114.78,908.727 1104.12,917.394 1093.5,926C 1088.5,928 1083.5,928 1078.5,926C 1069.09,921.928 1060.76,916.261 1053.5,909C 1043.91,902.407 1034.08,896.24 1024,890.5C 1019.84,895.988 1015.34,901.154 1010.5,906C 1007.2,908.434 1003.54,910.101 999.5,911C 990.619,924.182 978.619,928.182 963.5,923C 958.48,919.968 953.48,916.968 948.5,914C 939.5,913.333 930.5,913.333 921.5,914C 913.927,919.05 906.594,924.383 899.5,930C 885.675,933.537 871.675,934.87 857.5,934C 847.068,943.101 836.068,951.435 824.5,959C 827.833,963.333 831.167,967.667 834.5,972C 839.84,972.434 845.173,972.267 850.5,971.5C 854.693,971.398 858.693,972.231 862.5,974C 868.378,978.21 873.211,983.377 877,989.5C 877.958,992.075 878.458,994.741 878.5,997.5C 878.146,1008.15 877.979,1018.81 878,1029.5C 876.324,1036.85 874.157,1043.68 871.5,1050C 854.935,1048.05 838.269,1048.05 821.5,1050C 802.697,1053.36 784.031,1057.36 765.5,1062C 754.534,1065.21 743.868,1069.21 733.5,1074C 729.051,1079.06 725.217,1084.56 722,1090.5C 720.457,1092.38 718.624,1093.88 716.5,1095C 709.247,1096.56 701.914,1096.89 694.5,1096C 678.326,1092.51 661.993,1090.18 645.5,1089C 640.923,1085.68 638.59,1081.18 638.5,1075.5C 640.446,1067.83 643.279,1060.5 647,1053.5C 652.202,1046.93 657.035,1040.1 661.5,1033C 647.862,1022.18 633.528,1012.35 618.5,1003.5C 617.352,1001.85 616.019,1000.35 614.5,999C 608.065,998.485 601.731,999.152 595.5,1001C 589.456,1007.71 582.789,1013.71 575.5,1019C 570.449,1024.12 567.282,1030.29 566,1037.5C 560.039,1046.72 556.039,1056.72 554,1067.5C 548.825,1072.33 542.658,1074.83 535.5,1075C 522.418,1077.25 509.251,1078.75 496,1079.5C 486.69,1079.36 481.19,1074.69 479.5,1065.5C 480.404,1061.62 481.404,1057.79 482.5,1054C 479.883,1043.92 482.55,1035.76 490.5,1029.5C 491.328,1026.52 491.995,1023.52 492.5,1020.5C 476.414,1013.63 460.414,1006.46 444.5,999C 442.5,998.333 440.5,998.333 438.5,999C 432.718,1002.28 426.718,1002.94 420.5,1001C 418.725,999.561 416.725,998.561 414.5,998C 410,992.833 405.5,987.667 401,982.5C 398.144,978.361 397.81,974.028 400,969.5C 404.694,964.806 409.36,960.14 414,955.5C 418.315,946.871 423.148,938.538 428.5,930.5C 427.365,928.201 426.032,926.034 424.5,924C 415.5,923.333 406.5,923.333 397.5,924C 394.954,927.59 392.787,931.423 391,935.5C 388.087,944.408 385.587,953.408 383.5,962.5C 383.954,966.644 385.454,970.311 388,973.5C 389.048,981.556 385.548,986.389 377.5,988C 366.464,988.785 355.464,988.452 344.5,987C 337.465,986.21 330.798,984.21 324.5,981C 320.756,977.676 319.089,973.509 319.5,968.5C 319.433,964.305 320.266,960.305 322,956.5C 322.667,951.5 322.667,946.5 322,941.5C 311.042,931.673 298.875,929.673 285.5,935.5C 285.66,943.546 282.66,950.046 276.5,955C 268.753,956.866 261.92,955.033 256,949.5C 254.622,945.612 253.622,941.612 253,937.5C 251.442,935.641 249.609,934.141 247.5,933C 241.151,932.773 235.484,930.773 230.5,927C 218.119,924.572 206.786,926.906 196.5,934C 190.5,939.333 184.5,944.667 178.5,950C 182.622,955.791 187.122,961.291 192,966.5C 193.14,970.389 192.307,973.722 189.5,976.5C 182.001,980.499 174.001,982.332 165.5,982C 164.284,983.74 162.618,984.74 160.5,985C 148.785,986.112 137.119,987.112 125.5,988C 119.937,984.386 116.77,979.219 116,972.5C 115.69,966.719 114.857,961.053 113.5,955.5C 113.321,952.869 113.987,950.535 115.5,948.5C 114.568,946.205 113.735,943.871 113,941.5C 112.097,940.299 110.931,939.465 109.5,939C 104.989,938.599 100.489,938.099 96,937.5C 86.3316,938.854 80.9983,934.52 80,924.5C 77.3731,923.686 75.0398,922.353 73,920.5C 71.8906,915.944 71.3906,911.278 71.5,906.5C 71.4187,901.418 71.9187,896.418 73,891.5C 76.0875,887.208 80.2541,885.542 85.5,886.5C 95.9463,887.516 106.28,889.183 116.5,891.5C 130.478,885.761 143.978,879.094 157,871.5C 158.973,868.383 160.807,865.216 162.5,862C 161.107,860.637 159.441,859.804 157.5,859.5C 150.816,861.607 144.149,861.773 137.5,860C 130.495,853.445 124.328,846.279 119,838.5C 116.828,832.342 118.328,827.175 123.5,823C 131.957,819.524 139.624,814.858 146.5,809C 151.869,806.327 157.202,803.66 162.5,801C 165.894,800.248 169.227,800.415 172.5,801.5C 173.814,800.687 174.981,799.687 176,798.5C 180.182,792.323 184.348,786.156 188.5,780C 185.659,776.161 182.492,772.661 179,769.5C 176.803,751.728 184.636,742.228 202.5,741C 213.219,735.654 224.552,732.321 236.5,731C 244.045,726.924 252.045,724.924 260.5,725C 262.286,725.785 263.786,726.951 265,728.5C 269.821,749.327 282.321,755.494 302.5,747C 305.692,744.308 309.025,741.808 312.5,739.5C 313.655,736.554 313.821,733.554 313,730.5C 309.449,723.927 309.782,717.594 314,711.5C 320.426,707.705 326.593,703.538 332.5,699C 336.8,693.699 341.466,688.699 346.5,684C 350.833,682 355.167,682 359.5,684C 363.868,688.033 367.868,692.366 371.5,697C 375.465,698.993 379.465,700.993 383.5,703C 386.5,706.667 389.5,710.333 392.5,714C 396.684,715.837 400.85,717.671 405,719.5C 406.4,718.884 407.9,718.551 409.5,718.5C 413,718.915 416.333,719.915 419.5,721.5C 422.464,720.528 425.464,720.362 428.5,721C 431.018,722.199 433.518,723.365 436,724.5C 440.042,723.656 444.042,722.656 448,721.5C 450.261,721.865 452.427,722.531 454.5,723.5C 454.833,723.167 455.167,722.833 455.5,722.5C 450.914,716.283 451.581,710.783 457.5,706C 461.416,704.898 465.416,704.231 469.5,704C 472.167,700.667 474.833,697.333 477.5,694C 471.786,690.523 470.286,685.69 473,679.5C 476.396,675.797 480.563,674.631 485.5,676C 492.182,678.448 498.682,681.282 505,684.5C 521.196,677.781 525.196,666.447 517,650.5C 514.616,646.451 511.116,643.951 506.5,643C 495.908,642.525 485.575,641.525 475.5,640C 473.416,638.499 472.083,636.499 471.5,634C 470.249,626.91 468.582,619.91 466.5,613C 466.683,608.056 468.349,603.723 471.5,600C 478.669,598.928 485.836,598.094 493,597.5C 501.595,582.338 497.095,575.171 479.5,576C 477.464,575.546 475.63,574.713 474,573.5C 458.937,580.525 444.104,580.025 429.5,572C 422.037,561.276 417.537,549.443 416,536.5C 418.481,523.695 423.648,512.195 431.5,502C 434.062,500.859 436.728,500.026 439.5,499.5C 444.487,500.493 449.154,502.326 453.5,505C 459.002,505.834 464.502,506.667 470,507.5C 485.923,503.955 500.757,497.788 514.5,489C 521.705,482.127 529.205,475.627 537,469.5C 542.626,462.206 548.626,455.206 555,448.5C 557.333,443.167 559.667,437.833 562,432.5C 565.231,427.466 569.731,425.632 575.5,427C 579.991,428.163 584.157,429.997 588,432.5C 592.22,431.131 596.387,431.298 600.5,433C 611.075,437.536 620.575,443.702 629,451.5C 631,455.833 631,460.167 629,464.5C 625.633,468.203 621.966,471.536 618,474.5C 614.489,494.665 622.322,501.498 641.5,495C 644.707,491.051 648.707,488.051 653.5,486C 655.333,484.167 657.167,482.333 659,480.5C 660.911,474.846 663.744,469.68 667.5,465C 676.157,463.778 684.657,461.945 693,459.5C 698.319,460.47 702.652,463.137 706,467.5C 708.615,471.783 711.615,475.783 715,479.5C 717.694,485.066 718.028,490.733 716,496.5C 711.208,498.434 706.708,500.934 702.5,504C 704.293,507.949 705.46,512.115 706,516.5C 706.956,517.894 708.289,518.561 710,518.5C 721.02,517.287 731.52,514.287 741.5,509.5C 746.685,504.469 750.352,498.469 752.5,491.5C 751.194,487.554 749.361,483.888 747,480.5C 746.833,479.167 746.667,477.833 746.5,476.5C 748.755,464.949 750.255,453.282 751,441.5C 751.774,439.061 753.274,437.227 755.5,436C 760.239,435.274 764.905,435.607 769.5,437C 788.643,444.284 807.976,450.95 827.5,457C 833.347,460.868 835.847,466.368 835,473.5C 836.598,478.532 839.098,483.032 842.5,487C 849.881,490.759 857.548,491.259 865.5,488.5C 876.84,489.666 887.007,493.666 896,500.5C 897.586,502.67 898.92,505.004 900,507.5C 900.896,515.246 900.563,522.913 899,530.5C 898.215,532.286 897.049,533.786 895.5,535C 884.553,539.773 878.053,547.939 876,559.5C 878.382,567.784 880.882,575.95 883.5,584C 883.385,586.732 882.552,589.232 881,591.5C 877.974,594.026 874.807,596.36 871.5,598.5C 868.957,603.859 867.291,609.525 866.5,615.5C 866.666,618.847 868,621.681 870.5,624C 878.28,625.248 886.113,626.415 894,627.5C 902.83,626.511 911.664,626.344 920.5,627C 924.856,625.486 928.023,622.652 930,618.5C 933.285,610.265 936.285,601.931 939,593.5C 941.772,591.239 944.938,589.739 948.5,589C 952.869,588.158 957.203,587.158 961.5,586C 965.625,585.146 969.625,585.48 973.5,587C 979.5,592.333 985.5,597.667 991.5,603C 998.136,603.693 1003.64,601.526 1008,596.5C 1010.55,588.632 1014.71,581.799 1020.5,576C 1024.93,573.979 1029.1,574.479 1033,577.5C 1035.2,582.716 1038.36,587.05 1042.5,590.5C 1046.97,596.8 1050.8,603.466 1054,610.5C 1054.67,613.167 1054.67,615.833 1054,618.5C 1050.8,629.12 1046.63,639.287 1041.5,649C 1057.05,671.711 1076.72,676.045 1100.5,662C 1107.18,657.247 1112.18,651.247 1115.5,644C 1112.11,639.212 1110.11,633.879 1109.5,628C 1109.39,622.669 1111.39,618.335 1115.5,615C 1128.2,608.651 1140.86,602.318 1153.5,596C 1157.09,593.623 1160.59,591.123 1164,588.5C 1163.13,581.904 1162.3,575.237 1161.5,568.5C 1161.8,563.901 1162.47,559.401 1163.5,555C 1162.36,553.027 1161.03,551.193 1159.5,549.5C 1141.79,540.087 1134.13,525.42 1136.5,505.5C 1131.19,506.368 1125.86,507.202 1120.5,508C 1099.66,517.61 1078.33,519.277 1056.5,513C 1052.51,507.702 1050.51,501.702 1050.5,495C 1051.81,486.832 1051.81,478.665 1050.5,470.5C 1050.75,466.224 1051.42,462.058 1052.5,458C 1048.06,455.13 1043.39,454.797 1038.5,457C 1034.45,460.716 1030.12,464.05 1025.5,467C 1018.4,477.166 1009.4,479.166 998.5,473C 995.167,470.333 991.833,467.667 988.5,465C 968.765,463.373 962.265,453.206 969,434.5C 973.78,427.274 977.78,419.608 981,411.5C 981.677,404.37 980.511,397.537 977.5,391C 978,389.5 978.5,388 979,386.5C 982.062,383.285 985.396,380.285 989,377.5C 991.753,371.754 995.586,366.921 1000.5,363C 1002.8,362.342 1005.13,361.842 1007.5,361.5C 1018.13,362.903 1028.8,363.403 1039.5,363C 1057.69,356.994 1076.19,352.16 1095,348.5C 1106.25,345.2 1116.75,340.367 1126.5,334C 1130.5,333.333 1134.5,333.333 1138.5,334C 1143.27,337.053 1148.27,339.553 1153.5,341.5C 1156.76,341.097 1159.93,340.43 1163,339.5C 1163.32,338.092 1162.98,336.759 1162,335.5C 1159.17,332.667 1156.33,329.833 1153.5,327C 1133.37,330.758 1113.7,328.758 1094.5,321C 1090.45,316.851 1088.78,311.851 1089.5,306C 1089.74,296.591 1091.24,287.425 1094,278.5C 1097.84,274.217 1102.67,272.05 1108.5,272C 1119.88,271.432 1130.38,274.265 1140,280.5C 1147.73,277.943 1155.56,275.776 1163.5,274C 1181.18,264.83 1197.85,254.164 1213.5,242C 1222.99,236.256 1232.99,231.59 1243.5,228C 1258.19,227.197 1272.86,227.53 1287.5,229C 1292.21,230.207 1295.54,233.04 1297.5,237.5C 1303.29,240.49 1309.46,242.156 1316,242.5C 1330.21,241.421 1344.37,239.921 1358.5,238C 1369.15,232.155 1379.82,231.822 1390.5,237C 1396.71,245.886 1395.54,253.719 1387,260.5C 1387.72,267.205 1387.22,273.871 1385.5,280.5C 1387.4,285.482 1389.23,290.482 1391,295.5C 1397.29,301.578 1404.79,303.578 1413.5,301.5C 1414.97,296.867 1417.97,293.7 1422.5,292C 1427.17,291.667 1431.83,291.333 1436.5,291C 1439.37,288.74 1441.37,285.907 1442.5,282.5C 1439.63,274.424 1435.46,267.09 1430,260.5C 1427.16,249.714 1431.32,243.214 1442.5,241C 1455.1,239.822 1467.43,241.156 1479.5,245C 1482.01,246.421 1484.34,248.088 1486.5,250C 1501.69,251.432 1516.69,253.932 1531.5,257.5C 1538.89,254.344 1544.89,256.177 1549.5,263C 1563.72,268.187 1570.06,278.187 1568.5,293C 1569.06,297.015 1570.23,300.848 1572,304.5C 1576.77,309.465 1581.6,309.631 1586.5,305C 1588.34,299.74 1590.34,294.574 1592.5,289.5C 1599.6,284.566 1606.27,279.066 1612.5,273C 1616.71,271.466 1621.04,271.133 1625.5,272C 1635.44,274.469 1644.44,278.802 1652.5,285C 1654.46,287.748 1656.29,290.582 1658,293.5C 1656.73,299.18 1655.9,305.014 1655.5,311C 1655.87,320.386 1657.37,329.553 1660,338.5C 1662.56,341.531 1665.73,343.698 1669.5,345C 1675.47,346.03 1681.47,346.864 1687.5,347.5C 1694.08,346.374 1700.08,343.874 1705.5,340C 1712.3,332.27 1720.64,327.103 1730.5,324.5C 1730.34,322.801 1730.51,321.134 1731,319.5C 1732.06,318.903 1733.23,318.57 1734.5,318.5C 1748.71,320.973 1763.05,322.139 1777.5,322C 1794.71,325.636 1812.05,328.636 1829.5,331C 1837,331.923 1842.84,335.423 1847,341.5C 1849.6,349.375 1847.26,355.375 1840,359.5C 1836.32,366.196 1833.15,373.196 1830.5,380.5C 1831.49,384.001 1833.49,386.834 1836.5,389C 1842.63,392.067 1848.96,394.567 1855.5,396.5C 1870.57,392.629 1882.57,384.295 1891.5,371.5C 1895.1,368.865 1899.1,368.032 1903.5,369C 1909.3,371.706 1915.13,374.206 1921,376.5C 1926.49,374.559 1930.49,370.892 1933,365.5C 1933.66,357.259 1933.16,349.093 1931.5,341C 1931.68,335.392 1932.52,329.892 1934,324.5C 1939.02,320.273 1944.69,319.273 1951,321.5C 1960.58,321.38 1968.58,317.713 1975,310.5C 1975.48,309.552 1975.65,308.552 1975.5,307.5C 1970.06,306.87 1964.73,305.704 1959.5,304C 1953.89,300.76 1947.89,298.427 1941.5,297C 1932.26,293.69 1928.93,287.19 1931.5,277.5C 1929.06,255.095 1938.56,247.095 1960,253.5C 1969.42,253.372 1977.25,249.872 1983.5,243C 1988.81,241.16 1994.14,241.16 1999.5,243C 2005,245.458 2010.66,247.458 2016.5,249C 2027.5,249.667 2038.5,249.667 2049.5,249C 2047.79,247.622 2046.45,245.955 2045.5,244C 2041.13,242.287 2037.29,239.787 2034,236.5C 2028.68,228.359 2024.85,219.526 2022.5,210C 2023.23,203.434 2026.9,200.267 2033.5,200.5C 2049.35,201.75 2065.01,201.417 2080.5,199.5 Z"/></g>
<g><path style="opacity:1" fill="#9c8a5e" d="M 2146.5,253.5 C 2152.24,254.883 2157.91,254.55 2163.5,252.5C 2182.08,248.318 2200.74,244.651 2219.5,241.5C 2222.94,251.669 2226.44,261.669 2230,271.5C 2215.79,278.278 2203.12,287.278 2192,298.5C 2188.73,304.472 2188.73,310.472 2192,316.5C 2197.56,323.698 2204.73,328.531 2213.5,331C 2214.38,332.356 2214.71,333.856 2214.5,335.5C 2211.86,335.954 2209.53,337.121 2207.5,339C 2203.47,343.368 2199.13,347.368 2194.5,351C 2188.17,351.667 2181.83,351.667 2175.5,351C 2171.69,349.266 2167.69,348.433 2163.5,348.5C 2152.66,349.761 2141.83,349.761 2131,348.5C 2120.83,349.667 2111.33,352.834 2102.5,358C 2094.47,363.888 2089.3,371.721 2087,381.5C 2085.13,391.761 2088.63,399.427 2097.5,404.5C 2101.41,406.876 2105.74,407.876 2110.5,407.5C 2113.37,408.432 2115.7,410.098 2117.5,412.5C 2117.53,413.497 2117.03,414.164 2116,414.5C 2112.28,415.567 2108.78,416.901 2105.5,418.5C 2099.62,420.438 2093.95,422.938 2088.5,426C 2076.56,433.552 2064.4,440.718 2052,447.5C 2045.76,443.295 2039.26,439.462 2032.5,436C 2026.76,429.592 2020.43,423.925 2013.5,419C 2010.17,418.333 2006.83,418.333 2003.5,419C 1989.26,424.08 1975.26,429.747 1961.5,436C 1939.1,451.864 1915.77,466.198 1891.5,479C 1886.27,483.905 1880.77,488.405 1875,492.5C 1873.7,497.117 1874.87,500.95 1878.5,504C 1893.93,511.584 1910.26,515.917 1927.5,517C 1928.34,518.011 1928.67,519.178 1928.5,520.5C 1894.56,520.568 1861.56,526.235 1829.5,537.5C 1828.5,537.167 1827.5,536.833 1826.5,536.5C 1820.99,531.488 1815.65,526.321 1810.5,521C 1803.29,520.78 1796.29,519.447 1789.5,517C 1780.11,515.445 1772.27,518.278 1766,525.5C 1762.27,530.228 1758.94,535.228 1756,540.5C 1755.11,547.645 1755.61,554.645 1757.5,561.5C 1753.15,562.17 1748.82,563.004 1744.5,564C 1739.83,564.667 1735.17,564.667 1730.5,564C 1723.42,560.961 1716.42,557.628 1709.5,554C 1704.5,549.667 1699.5,545.333 1694.5,541C 1691.9,539.864 1689.24,539.031 1686.5,538.5C 1684.56,536.837 1682.23,536.171 1679.5,536.5C 1677.49,535.076 1675.15,534.41 1672.5,534.5C 1663.55,532.24 1654.55,530.073 1645.5,528C 1634.89,526.271 1624.22,525.605 1613.5,526C 1605.92,530.909 1598.92,536.575 1592.5,543C 1589.53,543.794 1586.53,544.461 1583.5,545C 1568.11,545.28 1552.77,546.28 1537.5,548C 1518.96,552.466 1500.96,558.466 1483.5,566C 1475.33,570.167 1469.17,576.333 1465,584.5C 1463.57,590.689 1461.57,596.689 1459,602.5C 1457.67,609.249 1458.67,615.582 1462,621.5C 1467.05,627.095 1472.22,632.595 1477.5,638C 1484.66,641.747 1491.66,645.747 1498.5,650C 1504.85,653.679 1511.52,656.512 1518.5,658.5C 1521.8,660.601 1525.46,661.935 1529.5,662.5C 1535.51,663.891 1541.51,665.391 1547.5,667C 1561.85,667.745 1576.19,667.578 1590.5,666.5C 1596.12,666.306 1601.45,665.306 1606.5,663.5C 1609.76,662.622 1613.09,661.956 1616.5,661.5C 1618.74,661.046 1620.74,661.046 1622.5,661.5C 1614.97,669.276 1612.13,678.61 1614,689.5C 1614.7,700.971 1620.54,707.971 1631.5,710.5C 1633.98,711.164 1636.64,711.497 1639.5,711.5C 1643.47,711.706 1647.14,711.039 1650.5,709.5C 1656.49,709.034 1662.49,708.701 1668.5,708.5C 1669.34,710.379 1669.67,712.379 1669.5,714.5C 1641.02,723.985 1619.19,741.652 1604,767.5C 1601.56,770.721 1598.89,773.721 1596,776.5C 1587.07,769.783 1577.23,764.783 1566.5,761.5C 1564.38,759.345 1561.72,758.345 1558.5,758.5C 1538.12,753.281 1517.45,752.115 1496.5,755C 1490.67,756.039 1485.01,757.539 1479.5,759.5C 1476.08,759.528 1473.08,760.528 1470.5,762.5C 1458.54,766.817 1448.21,773.65 1439.5,783C 1429.54,785.353 1421.87,782.186 1416.5,773.5C 1424.19,763.641 1431.69,753.641 1439,743.5C 1444.57,734.348 1443.4,726.181 1435.5,719C 1424.06,712.562 1412.39,706.562 1400.5,701C 1396.83,700.333 1393.17,700.333 1389.5,701C 1383.19,707.318 1375.86,711.985 1367.5,715C 1352.19,724.714 1335.86,732.214 1318.5,737.5C 1314.31,738.213 1310.31,739.213 1306.5,740.5C 1289.5,740.833 1272.83,742.833 1256.5,746.5C 1231.14,747.023 1205.81,748.19 1180.5,750C 1171.23,750.418 1163.4,753.918 1157,760.5C 1156.85,766.836 1157.18,773.17 1158,779.5C 1163.04,785.563 1167.54,792.063 1171.5,799C 1182.45,801.955 1193.45,802.122 1204.5,799.5C 1207.52,799.817 1209.52,801.483 1210.5,804.5C 1209.29,806.069 1207.62,806.902 1205.5,807C 1181.56,806.108 1170.89,817.608 1173.5,841.5C 1173.35,844.716 1174.35,847.383 1176.5,849.5C 1177.14,850.482 1177.81,851.482 1178.5,852.5C 1167.04,854.132 1155.7,856.299 1144.5,859C 1133.66,864.922 1122.66,870.589 1111.5,876C 1105.38,879.793 1099.54,883.96 1094,888.5C 1087.01,885.752 1079.84,883.585 1072.5,882C 1066.91,879.038 1061.25,876.372 1055.5,874C 1052.29,869.369 1050.46,864.202 1050,858.5C 1045.71,853.105 1040.21,851.271 1033.5,853C 1023.33,856.072 1013,858.405 1002.5,860C 997.458,864.101 996.125,869.268 998.5,875.5C 999.341,882.465 999.674,889.465 999.5,896.5C 993.288,898.272 987.288,900.605 981.5,903.5C 979.194,903.993 976.861,904.326 974.5,904.5C 969.819,902.333 965.819,899.167 962.5,895C 948.661,890.758 934.661,890.425 920.5,894C 915.242,894.942 911.576,897.776 909.5,902.5C 908.549,903.919 908.216,905.585 908.5,907.5C 906.5,907.5 904.5,907.5 902.5,907.5C 899.236,906.676 895.902,906.342 892.5,906.5C 884.799,906.691 877.132,906.358 869.5,905.5C 866.403,903.919 863.403,902.086 860.5,900C 856.074,899.209 851.741,899.543 847.5,901C 842.167,903.667 836.833,906.333 831.5,909C 816.383,919.782 801.55,930.949 787,942.5C 785.077,946.805 785.077,951.138 787,955.5C 793.662,963.483 799.328,972.15 804,981.5C 809.773,989.291 817.44,993.625 827,994.5C 834.404,993.131 841.737,991.464 849,989.5C 850.5,989.833 852,990.167 853.5,990.5C 854.347,991.845 855.513,992.845 857,993.5C 857.004,1007.71 858.171,1021.71 860.5,1035.5C 858.214,1035.41 856.214,1034.74 854.5,1033.5C 849.927,1030.98 844.927,1029.98 839.5,1030.5C 817.374,1029.48 795.374,1030.81 773.5,1034.5C 766.472,1035.17 759.805,1036.83 753.5,1039.5C 746.833,1040.72 740.499,1042.72 734.5,1045.5C 725.941,1049.11 717.608,1053.28 709.5,1058C 706.319,1060.09 703.319,1062.43 700.5,1065C 691.506,1065.5 682.506,1065.67 673.5,1065.5C 674.045,1062.19 674.545,1058.85 675,1055.5C 679.371,1049.05 683.371,1042.38 687,1035.5C 687.667,1032.5 687.667,1029.5 687,1026.5C 684.705,1023.2 682.038,1020.2 679,1017.5C 667.11,988.704 645.444,975.037 614,976.5C 604.056,976.156 594.556,977.989 585.5,982C 575.719,991.111 565.886,1000.28 556,1009.5C 548.441,1021.95 541.941,1034.95 536.5,1048.5C 528.59,1050.82 520.59,1051.82 512.5,1051.5C 516.317,1043.2 520.15,1034.86 524,1026.5C 525.578,1023.34 526.578,1020.01 527,1016.5C 532.659,1009.7 533.992,1002.04 531,993.5C 529.5,992 528,990.5 526.5,989C 520.282,986.058 513.949,983.391 507.5,981C 489.742,977.572 472.076,973.739 454.5,969.5C 454.216,967.585 454.549,965.919 455.5,964.5C 457.017,960.44 457.684,956.107 457.5,951.5C 457.498,948.314 457.165,945.314 456.5,942.5C 456.5,942.167 456.5,941.833 456.5,941.5C 456.472,938.084 455.472,935.084 453.5,932.5C 449.121,920.876 441.788,911.709 431.5,905C 424.015,902.579 416.348,901.912 408.5,903C 401.399,904.393 394.399,906.06 387.5,908C 386.333,909.167 385.167,910.333 384,911.5C 375.425,927.129 369.925,943.795 367.5,961.5C 359.191,960.712 350.858,960.379 342.5,960.5C 342.827,951.318 342.493,942.318 341.5,933.5C 339.107,929.598 336.107,926.098 332.5,923C 325.655,920.406 318.989,917.573 312.5,914.5C 308.104,912.967 303.437,912.3 298.5,912.5C 293.047,912.001 288.047,913.001 283.5,915.5C 276.272,917.281 270.606,921.281 266.5,927.5C 262.814,923.98 258.981,920.647 255,917.5C 253.586,911.853 250.086,908.019 244.5,906C 238.095,904.198 231.761,902.198 225.5,900C 214.928,898.766 204.595,899.766 194.5,903C 186.234,907.604 178.234,912.604 170.5,918C 155.937,928.32 152.27,941.82 159.5,958.5C 152.461,959.957 145.461,961.623 138.5,963.5C 137.795,957.631 137.129,951.631 136.5,945.5C 138.573,940.811 138.907,936.144 137.5,931.5C 136.71,930.206 135.71,929.039 134.5,928C 128.707,925.27 123.04,922.27 117.5,919C 112.215,917.974 106.882,917.307 101.5,917C 99.1189,912.532 97.1189,907.865 95.5,903C 98.055,904.138 100.722,905.471 103.5,907C 127.003,907.767 149.003,902.434 169.5,891C 175.524,885.751 180.19,879.584 183.5,872.5C 184.924,870.485 185.59,868.152 185.5,865.5C 186.647,861.354 186.814,857.02 186,852.5C 185.8,850.68 184.966,849.347 183.5,848.5C 180.035,842.93 175.035,839.596 168.5,838.5C 166.527,837.837 164.361,837.504 162,837.5C 158.523,837.328 155.356,837.994 152.5,839.5C 149.092,840.172 146.425,839.172 144.5,836.5C 147.661,833.509 150.995,830.675 154.5,828C 159.167,826 163.833,824 168.5,822C 170.976,820.691 172.976,818.858 174.5,816.5C 180.397,814.552 186.063,812.052 191.5,809C 196.306,804.194 201.14,799.36 206,794.5C 212.803,785.441 213.303,776.108 207.5,766.5C 207.08,764.906 206.414,763.406 205.5,762C 206.056,760.989 206.722,760.156 207.5,759.5C 212.47,758.518 217.137,756.684 221.5,754C 233.039,752.709 243.872,749.209 254,743.5C 257.227,748.273 260.227,753.273 263,758.5C 269.142,763.817 276.308,766.817 284.5,767.5C 300.312,767.735 313.812,762.401 325,751.5C 327.004,748.525 328.004,745.192 328,741.5C 331.372,736.981 333.539,731.981 334.5,726.5C 338.513,724.494 342.18,721.994 345.5,719C 348.033,715.472 350.866,712.306 354,709.5C 358.753,713.409 363.92,716.742 369.5,719.5C 373.318,723.818 377.318,727.985 381.5,732C 385.856,734.68 390.522,736.513 395.5,737.5C 396.91,743.779 398.077,750.112 399,756.5C 400.077,761.115 402.91,762.615 407.5,761C 409.07,759.603 410.404,758.103 411.5,756.5C 412.486,752.03 412.819,747.363 412.5,742.5C 415.713,742.81 418.713,742.477 421.5,741.5C 422.5,741.5 423.5,741.5 424.5,741.5C 432.421,742.13 440.087,741.13 447.5,738.5C 450.237,739.031 452.904,739.864 455.5,741C 462.686,746.763 469.686,752.763 476.5,759C 480.749,760.141 483.583,758.641 485,754.5C 486.82,746.89 485.154,740.223 480,734.5C 475.466,730.301 471.299,725.801 467.5,721C 473.289,719.843 478.123,717.01 482,712.5C 484.173,707.479 486.84,702.812 490,698.5C 501.24,703.017 512.073,702.184 522.5,696C 527.762,690.064 533.596,684.897 540,680.5C 552.818,662.122 550.984,645.289 534.5,630C 529.655,626.578 524.322,624.245 518.5,623C 508.299,622.203 498.132,622.369 488,623.5C 486.124,622.381 485.291,620.714 485.5,618.5C 503.507,618.33 514.007,609.33 517,591.5C 519.109,576.206 512.943,566.039 498.5,561C 493.902,559.976 489.568,560.476 485.5,562.5C 482.533,559.697 479.033,558.03 475,557.5C 470.172,559.41 465.172,560.743 460,561.5C 454.718,561.174 449.551,560.341 444.5,559C 440.057,552.851 437.057,546.018 435.5,538.5C 436.954,532.621 439.454,527.287 443,522.5C 461.863,529.841 480.363,529.008 498.5,520C 526.816,506.354 550.316,486.854 569,461.5C 571.072,458.029 572.572,454.362 573.5,450.5C 574.283,448.657 574.95,446.657 575.5,444.5C 575.957,443.702 576.624,443.369 577.5,443.5C 589.244,446.199 600.244,450.866 610.5,457.5C 605.706,460.794 602.206,465.127 600,470.5C 599.502,473.482 599.335,476.482 599.5,479.5C 599.335,483.182 599.501,486.848 600,490.5C 600.232,491.737 600.732,492.737 601.5,493.5C 604.429,502.935 610.429,509.768 619.5,514C 630.245,514.918 640.578,513.251 650.5,509C 656.61,504.524 662.443,499.691 668,494.5C 671.67,489.829 674.837,484.829 677.5,479.5C 682.679,477.491 688.012,476.658 693.5,477C 695.864,480.687 698.198,484.354 700.5,488C 687.595,496.457 683.095,508.29 687,523.5C 689.777,529.943 694.277,534.777 700.5,538C 709.237,538.673 717.903,538.173 726.5,536.5C 729.152,536.59 731.485,535.924 733.5,534.5C 758.679,528.789 770.179,513.123 768,487.5C 766.503,483.835 764.503,480.502 762,477.5C 761.457,469.374 762.29,461.374 764.5,453.5C 767.629,455.4 770.963,456.733 774.5,457.5C 777.53,459.403 780.863,460.737 784.5,461.5C 794.431,464.033 804.097,467.366 813.5,471.5C 815.995,484.327 821.995,495.16 831.5,504C 833.078,505.094 834.745,505.928 836.5,506.5C 841.221,509.24 846.388,510.906 852,511.5C 859.743,509.884 867.577,509.217 875.5,509.5C 877.607,510.468 879.941,510.802 882.5,510.5C 882.5,513.5 882.5,516.5 882.5,519.5C 874.572,521.565 868.405,526.232 864,533.5C 861.606,539.287 858.94,544.954 856,550.5C 855.333,554.167 855.333,557.833 856,561.5C 857.791,565.536 859.958,569.369 862.5,573C 855.333,580.167 848.167,587.333 841,594.5C 838.306,597.892 836.14,601.559 834.5,605.5C 833.027,608.017 832.36,610.85 832.5,614C 832.506,616.033 832.839,617.866 833.5,619.5C 836.913,628.993 841.413,637.993 847,646.5C 850.221,650.943 854.555,653.277 860,653.5C 866.528,651.489 873.028,649.323 879.5,647C 894.559,645.994 909.559,644.66 924.5,643C 939.845,635.289 948.679,622.789 951,605.5C 955.358,603.784 959.858,602.451 964.5,601.5C 969.896,604.059 974.23,607.892 977.5,613C 985.497,619.08 994.497,621.08 1004.5,619C 1009.61,616.694 1014.11,613.528 1018,609.5C 1021.22,603.724 1024.38,598.057 1027.5,592.5C 1030.14,599.444 1033.64,606.111 1038,612.5C 1038.18,614.488 1038.01,616.488 1037.5,618.5C 1029.84,619.64 1024.68,623.973 1022,631.5C 1017.39,641.818 1017.39,652.152 1022,662.5C 1025.95,668.734 1029.61,675.067 1033,681.5C 1034.5,683 1036,684.5 1037.5,686C 1043.92,687.359 1049.92,689.693 1055.5,693C 1063.31,695.697 1071.31,696.697 1079.5,696C 1084.24,695.471 1088.91,694.638 1093.5,693.5C 1100.65,691.96 1107.65,690.294 1114.5,688.5C 1116.87,687.217 1119.03,685.55 1121,683.5C 1125.33,677.167 1129.67,670.833 1134,664.5C 1142.86,656.315 1150.19,646.981 1156,636.5C 1156.75,632.749 1157.75,629.082 1159,625.5C 1164.55,619.315 1171.05,614.482 1178.5,611C 1189.11,600.731 1191.94,588.564 1187,574.5C 1184.92,570.007 1182.59,565.674 1180,561.5C 1180.36,554.395 1179.03,547.729 1176,541.5C 1170.22,535.958 1164.88,529.958 1160,523.5C 1159.44,520.845 1158.94,518.179 1158.5,515.5C 1160.99,505.758 1160.99,496.092 1158.5,486.5C 1155.8,483.209 1152.3,481.542 1148,481.5C 1138.29,483.81 1128.45,485.143 1118.5,485.5C 1113.46,485.85 1108.79,487.184 1104.5,489.5C 1094.33,492.029 1083.99,493.362 1073.5,493.5C 1073.33,482.162 1073.5,470.828 1074,459.5C 1077.11,457.614 1078.11,454.947 1077,451.5C 1072.96,448.884 1069.46,445.717 1066.5,442C 1063.17,441.667 1059.83,441.333 1056.5,441C 1049.55,436.454 1041.88,434.62 1033.5,435.5C 1028.71,435.654 1024.38,436.987 1020.5,439.5C 1015.57,440.922 1011.57,443.756 1008.5,448C 1003.56,448.751 999.557,447.084 996.5,443C 998.583,438.007 1000.08,432.84 1001,427.5C 1008.87,413.052 1014.04,397.719 1016.5,381.5C 1025.47,382.581 1034.47,382.748 1043.5,382C 1057.43,377.854 1071.43,374.021 1085.5,370.5C 1090.81,369.924 1095.81,368.591 1100.5,366.5C 1111.44,362.344 1122.28,357.677 1133,352.5C 1136.09,354.629 1139.26,356.629 1142.5,358.5C 1145.36,360.006 1148.52,360.672 1152,360.5C 1156.09,360.569 1159.93,359.903 1163.5,358.5C 1174.03,355.154 1179.87,348.154 1181,337.5C 1177.07,329.224 1171.91,321.724 1165.5,315C 1159.78,311.204 1153.44,309.704 1146.5,310.5C 1138.39,308.779 1130.06,307.779 1121.5,307.5C 1120.83,307.5 1120.17,307.5 1119.5,307.5C 1117.49,306.076 1115.15,305.41 1112.5,305.5C 1111.21,304.129 1110.55,302.295 1110.5,300C 1110.53,296.182 1111.2,292.515 1112.5,289C 1117.19,289.89 1121.85,291.224 1126.5,293C 1139.1,295.457 1151.43,294.457 1163.5,290C 1171.07,287.254 1178.74,284.921 1186.5,283C 1200.52,275.329 1213.85,266.663 1226.5,257C 1231.22,255.804 1235.56,253.804 1239.5,251C 1243.38,249.53 1247.38,248.697 1251.5,248.5C 1260.51,248.44 1269.51,248.107 1278.5,247.5C 1280.2,247.34 1281.87,247.506 1283.5,248C 1288.77,253.3 1295.1,256.467 1302.5,257.5C 1309.1,259.543 1315.77,259.877 1322.5,258.5C 1330.33,258.014 1337.99,257.347 1345.5,256.5C 1353.07,256.857 1360.41,256.024 1367.5,254C 1357.77,283.821 1366.11,307.155 1392.5,324C 1397.49,326.318 1402.16,325.984 1406.5,323C 1416.9,323.827 1424.9,319.994 1430.5,311.5C 1434.25,311.608 1437.91,311.108 1441.5,310C 1443.32,309.8 1444.65,308.966 1445.5,307.5C 1448.41,306.094 1450.91,304.094 1453,301.5C 1457.93,294.806 1460.76,287.306 1461.5,279C 1460.59,274.359 1459.26,269.859 1457.5,265.5C 1463.98,264.509 1470.65,264.176 1477.5,264.5C 1489.34,267.302 1501.34,269.135 1513.5,270C 1517.89,271.131 1522.23,272.465 1526.5,274C 1530.37,274.891 1534.04,274.391 1537.5,272.5C 1541.51,275.505 1545.84,278.005 1550.5,280C 1553.04,281.848 1554.04,284.348 1553.5,287.5C 1552.84,289.641 1552.5,291.975 1552.5,294.5C 1552.31,298.141 1552.98,301.474 1554.5,304.5C 1554.97,308.062 1556.13,311.395 1558,314.5C 1564.65,321.746 1572.82,324.913 1582.5,324C 1587.53,322.147 1590.53,318.647 1591.5,313.5C 1594.04,313.896 1596.21,313.229 1598,311.5C 1600.45,307.469 1602.12,303.136 1603,298.5C 1608.3,294.866 1613.3,290.866 1618,286.5C 1623.98,289.162 1629.98,291.828 1636,294.5C 1636.5,294.833 1637,295.167 1637.5,295.5C 1635.14,300.899 1634.14,306.566 1634.5,312.5C 1631.46,343.608 1645.13,362.442 1675.5,369C 1690.42,371.52 1704.08,368.52 1716.5,360C 1725.94,351.411 1733.61,341.578 1739.5,330.5C 1743.99,332.406 1748.65,333.74 1753.5,334.5C 1759.61,336.611 1765.94,338.278 1772.5,339.5C 1787.63,345.156 1802.97,350.323 1818.5,355C 1811.56,365.16 1808.72,376.327 1810,388.5C 1811.57,394.636 1814.91,399.636 1820,403.5C 1822.83,410.333 1827.67,415.167 1834.5,418C 1850.58,420.533 1866.24,418.866 1881.5,413C 1888.61,409.579 1892.94,404.079 1894.5,396.5C 1895.31,392.979 1895.97,389.312 1896.5,385.5C 1896.74,384.903 1897.24,384.57 1898,384.5C 1901.01,386.09 1904.18,387.257 1907.5,388C 1911.59,393.378 1916.92,395.378 1923.5,394C 1926.99,393.058 1930.33,391.725 1933.5,390C 1939.49,384.858 1944.49,379.024 1948.5,372.5C 1949.97,371.653 1950.8,370.32 1951,368.5C 1951.82,363.316 1951.65,358.316 1950.5,353.5C 1950.5,351.5 1950.5,349.5 1950.5,347.5C 1950.5,345.167 1950.5,342.833 1950.5,340.5C 1954.04,340.247 1957.37,339.581 1960.5,338.5C 1964.08,338.862 1967.08,337.862 1969.5,335.5C 1978.36,330.817 1985.52,324.151 1991,315.5C 1994.62,304.237 1991.12,296.404 1980.5,292C 1976.2,290.894 1971.86,289.894 1967.5,289C 1962.11,285.639 1956.45,282.806 1950.5,280.5C 1949.52,277.914 1949.19,275.247 1949.5,272.5C 1965.06,275.035 1979.23,271.701 1992,262.5C 1999.95,263.823 2007.78,265.657 2015.5,268C 2029.5,267.667 2042,263.167 2053,254.5C 2053.48,253.552 2053.65,252.552 2053.5,251.5C 2061.33,252.505 2064.5,249.172 2063,241.5C 2059.03,235.511 2053.7,231.178 2047,228.5C 2045.35,225.533 2043.85,222.533 2042.5,219.5C 2055.87,218.608 2069.21,217.274 2082.5,215.5C 2090.6,213.824 2098.94,213.157 2107.5,213.5C 2108.11,221.278 2110.28,228.611 2114,235.5C 2119.26,239.882 2124.43,244.382 2129.5,249C 2134.88,251.575 2140.54,253.075 2146.5,253.5 Z"/></g>
<g><path style="opacity:1" fill="#877452" d="M 2082.5,215.5 C 2069.21,217.274 2055.87,218.608 2042.5,219.5C 2041.96,219.44 2041.62,219.107 2041.5,218.5C 2055.14,217.074 2068.8,216.074 2082.5,215.5 Z"/></g>
<g><path style="opacity:1" fill="#8b7954" d="M 1278.5,247.5 C 1269.51,248.107 1260.51,248.44 1251.5,248.5C 1260.47,246.787 1269.47,246.454 1278.5,247.5 Z"/></g>
<g><path style="opacity:1" fill="#5d4939" d="M 2163.5,252.5 C 2157.91,254.55 2152.24,254.883 2146.5,253.5C 2152.19,253.468 2157.86,253.134 2163.5,252.5 Z"/></g>
<g><path style="opacity:1" fill="#66523e" d="M 1345.5,256.5 C 1337.99,257.347 1330.33,258.014 1322.5,258.5C 1323.61,257.71 1324.94,257.21 1326.5,257C 1332.82,256.5 1339.16,256.334 1345.5,256.5 Z"/></g>
<g><path style="opacity:1" fill="#746046" d="M 1302.5,257.5 C 1309.15,258.139 1315.81,258.473 1322.5,258.5C 1315.77,259.877 1309.1,259.543 1302.5,257.5 Z"/></g>
<g><path style="opacity:1" fill="#816e4e" d="M 1477.5,264.5 C 1470.65,264.176 1463.98,264.509 1457.5,265.5C 1456.96,265.44 1456.62,265.107 1456.5,264.5C 1463.66,263.181 1470.66,263.181 1477.5,264.5 Z"/></g>
<g><path style="opacity:1" fill="#b99f7f" d="M 754.5,910.5 C 753.883,910.611 753.383,910.944 753,911.5C 752.333,936.833 752.333,962.167 753,987.5C 753.383,988.056 753.883,988.389 754.5,988.5C 756.808,991.815 759.141,995.149 761.5,998.5C 747.775,1000.84 734.109,1003.51 720.5,1006.5C 720.666,1002.15 720.499,997.821 720,993.5C 717.917,989.33 714.917,985.996 711,983.5C 699.992,956.722 679.826,943.556 650.5,944C 625.833,943.333 601.167,943.333 576.5,944C 570.138,944.855 563.804,945.855 557.5,947C 554.958,948.77 552.291,950.27 549.5,951.5C 544.167,949.667 538.833,947.833 533.5,946C 518.673,944.2 504.006,941.7 489.5,938.5C 492.709,916.687 487.875,897.02 475,879.5C 469.113,873.562 461.946,870.395 453.5,870C 430.5,869.333 407.5,869.333 384.5,870C 374.169,870.406 364.169,872.406 354.5,876C 351.976,877.883 350.642,880.383 350.5,883.5C 347.279,882.495 343.946,881.661 340.5,881C 322.17,880.5 303.836,880.333 285.5,880.5C 285.67,879.178 285.337,878.011 284.5,877C 263.677,867.069 241.677,863.569 218.5,866.5C 218.169,859.137 218.503,851.803 219.5,844.5C 229.19,838.31 237.023,830.31 243,820.5C 243.5,813.508 243.666,806.508 243.5,799.5C 270.835,799.667 298.169,799.5 325.5,799C 333.131,798.009 340.465,796.009 347.5,793C 351,790.167 354.5,787.333 358,784.5C 358.307,779.577 359.973,775.244 363,771.5C 364.66,778.741 366.16,786.074 367.5,793.5C 417.176,793.16 466.843,792.16 516.5,790.5C 517.154,788.885 517.654,787.218 518,785.5C 518.181,768.789 518.681,752.123 519.5,735.5C 526.142,734.669 532.809,734.169 539.5,734C 544.352,733.287 549.019,731.954 553.5,730C 560.333,723.833 567.167,717.667 574,711.5C 576.462,706.912 578.629,702.245 580.5,697.5C 581.663,671.337 581.83,645.003 581,618.5C 580.768,617.263 580.268,616.263 579.5,615.5C 575.055,601.052 565.389,592.719 550.5,590.5C 550.81,575.297 550.476,560.131 549.5,545C 549.759,543.739 550.426,542.739 551.5,542C 558.486,538.689 564.653,534.189 570,528.5C 572.5,537.667 578.333,543.5 587.5,546C 609.508,546.167 631.508,546.667 653.5,547.5C 654.254,550.777 654.754,554.11 655,557.5C 657.193,563.693 661.359,567.859 667.5,570C 697.868,570.953 728.201,570.619 758.5,569C 769.774,566.023 780.44,561.69 790.5,556C 794.695,550.776 797.695,544.942 799.5,538.5C 807.332,540.733 815.332,542.066 823.5,542.5C 823.66,544.199 823.494,545.866 823,547.5C 817.667,552.833 812.333,558.167 807,563.5C 804.452,567.263 802.452,571.263 801,575.5C 800.333,601.167 800.333,626.833 801,652.5C 804.532,661.897 808.865,670.897 814,679.5C 815.777,681.79 817.944,683.457 820.5,684.5C 821.263,685.268 822.263,685.768 823.5,686C 847.67,686.83 871.67,686.663 895.5,685.5C 899.556,683.975 903.556,682.141 907.5,680C 924.965,679.073 942.298,677.406 959.5,675C 969.365,670.316 975.698,662.816 978.5,652.5C 981.167,652.5 983.833,652.5 986.5,652.5C 986.333,664.838 986.5,677.171 987,689.5C 988.333,692.833 989.667,696.167 991,699.5C 995.483,704.983 999.317,710.817 1002.5,717C 1011.83,721.494 1021.49,725.16 1031.5,728C 1057.5,728.667 1083.5,728.667 1109.5,728C 1127.99,717.253 1146.99,707.253 1166.5,698C 1175.52,689.65 1183.02,680.15 1189,669.5C 1189.67,666.167 1190.33,662.833 1191,659.5C 1197.75,651.797 1205.75,645.797 1215,641.5C 1217,637.5 1219,633.5 1221,629.5C 1221.67,601.5 1221.67,573.5 1221,545.5C 1219.39,539.609 1216.72,534.275 1213,529.5C 1212.85,523.751 1212.19,518.085 1211,512.5C 1204.61,506.049 1198.95,499.049 1194,491.5C 1193.92,479.11 1193.25,466.777 1192,454.5C 1190.77,452.274 1188.94,450.774 1186.5,450C 1161.17,449.5 1135.84,449.333 1110.5,449.5C 1110.67,439.161 1110.5,428.828 1110,418.5C 1105.86,417.026 1103.03,414.193 1101.5,410C 1100.17,409.667 1098.83,409.333 1097.5,409C 1109.24,404.865 1121.24,401.532 1133.5,399C 1139.17,396.667 1144.83,394.333 1150.5,392C 1165.83,391.667 1181.17,391.333 1196.5,391C 1204.78,388.726 1210.61,383.559 1214,375.5C 1214.5,355.503 1214.67,335.503 1214.5,315.5C 1219.34,314.498 1224.01,312.998 1228.5,311C 1239.75,304.089 1250.75,296.756 1261.5,289C 1284.76,290.388 1308.09,290.888 1331.5,290.5C 1326.77,313.79 1332.77,333.623 1349.5,350C 1353.33,353.419 1357.66,356.086 1362.5,358C 1386.83,358.667 1411.17,358.667 1435.5,358C 1440.82,355.295 1446.49,353.962 1452.5,354C 1457.45,351.382 1461.45,347.716 1464.5,343C 1480.03,342.337 1489.53,334.503 1493,319.5C 1493.5,315.179 1493.67,310.846 1493.5,306.5C 1497.85,306.334 1502.18,306.501 1506.5,307C 1510.99,309.658 1515.66,311.825 1520.5,313.5C 1519.32,325.746 1521.15,337.413 1526,348.5C 1529.47,351.484 1533.31,353.817 1537.5,355.5C 1538.61,356.29 1539.94,356.79 1541.5,357C 1561.83,357.5 1582.16,357.667 1602.5,357.5C 1602.87,363.009 1603.54,368.342 1604.5,373.5C 1606,377.842 1608.17,381.842 1611,385.5C 1621.57,395.197 1634.07,400.697 1648.5,402C 1676.53,402.929 1704.53,402.596 1732.5,401C 1744.22,396.797 1754.22,389.964 1762.5,380.5C 1767.09,382.147 1771.76,383.481 1776.5,384.5C 1776.33,396.171 1776.5,407.838 1777,419.5C 1778,422.833 1779,426.167 1780,429.5C 1781.7,432.702 1784.2,435.035 1787.5,436.5C 1790.57,445.068 1796.57,450.235 1805.5,452C 1817.5,452.667 1829.5,452.667 1841.5,452C 1849.57,446.272 1857.9,440.939 1866.5,436C 1887.8,425.351 1909.8,416.351 1932.5,409C 1948.94,395.893 1965.94,383.559 1983.5,372C 1990.93,367.745 1998.93,365.078 2007.5,364C 2013.63,360.271 2018.8,355.438 2023,349.5C 2023.5,333.17 2023.67,316.837 2023.5,300.5C 2036.23,300.92 2048.89,300.42 2061.5,299C 2069.94,297.11 2077.61,293.61 2084.5,288.5C 2085.43,287.311 2085.76,285.978 2085.5,284.5C 2089.6,285.231 2093.1,284.231 2096,281.5C 2101.21,283.901 2106.71,285.401 2112.5,286C 2127.5,286.5 2142.5,286.667 2157.5,286.5C 2157.5,296.5 2157.5,306.5 2157.5,316.5C 2135.16,316.333 2112.83,316.5 2090.5,317C 2073.01,319.495 2061.18,328.995 2055,345.5C 2053.92,360.467 2053.08,375.467 2052.5,390.5C 2049.8,388.653 2046.8,387.487 2043.5,387C 2037.17,386.333 2030.83,386.333 2024.5,387C 2009.81,396.127 1994.47,404.127 1978.5,411C 1971.3,417.187 1963.3,422.187 1954.5,426C 1925.14,436.017 1896.47,447.684 1868.5,461C 1859.92,464.459 1851.25,467.626 1842.5,470.5C 1842.5,476.5 1842.5,482.5 1842.5,488.5C 1836.48,487.865 1830.48,487.031 1824.5,486C 1796.83,485.333 1769.17,485.333 1741.5,486C 1733.39,491.268 1727.73,498.435 1724.5,507.5C 1710.15,503.774 1695.82,499.94 1681.5,496C 1673.15,495.12 1664.82,494.12 1656.5,493C 1631.17,492.333 1605.83,492.333 1580.5,493C 1573.57,497.925 1567.24,503.592 1561.5,510C 1559.5,510.667 1557.5,511.333 1555.5,512C 1516.21,510.743 1479.21,519.077 1444.5,537C 1441.72,538.812 1439.22,540.979 1437,543.5C 1433.41,551.009 1430.08,558.676 1427,566.5C 1426.33,592.5 1426.33,618.5 1427,644.5C 1440.42,661.587 1456.58,675.42 1475.5,686C 1486.27,689.591 1496.93,693.591 1507.5,698C 1511.44,698.993 1515.44,699.66 1519.5,700C 1540.16,700.5 1560.83,700.667 1581.5,700.5C 1581.67,706.842 1581.5,713.175 1581,719.5C 1579.98,720.687 1578.81,721.687 1577.5,722.5C 1543.54,721.507 1509.54,721.174 1475.5,721.5C 1475.5,718.167 1475.5,714.833 1475.5,711.5C 1447.86,704.844 1425.2,690.344 1407.5,668C 1390.83,667.333 1374.17,667.333 1357.5,668C 1353.25,670.243 1349.59,673.243 1346.5,677C 1324.93,689.992 1301.93,700.325 1277.5,708C 1266.56,709.24 1255.56,709.907 1244.5,710C 1228.36,713.447 1212.02,715.447 1195.5,716C 1173.05,729.892 1149.72,742.225 1125.5,753C 1124.34,769.426 1124.18,785.926 1125,802.5C 1125.27,807.65 1126.27,812.65 1128,817.5C 1129.97,818.305 1131.47,819.639 1132.5,821.5C 1126.18,822.999 1119.85,824.499 1113.5,826C 1104.99,830.423 1096.32,834.59 1087.5,838.5C 1086.2,837.91 1085.37,836.91 1085,835.5C 1083.97,831.392 1082.64,827.392 1081,823.5C 1079.2,821.683 1077.03,820.516 1074.5,820C 1050.5,819.333 1026.5,819.333 1002.5,820C 991.265,823.035 979.932,825.701 968.5,828C 967.667,828.833 966.833,829.667 966,830.5C 965.5,840.161 965.334,849.828 965.5,859.5C 938.439,858.858 911.439,859.691 884.5,862C 882.156,862.837 880.156,864.171 878.5,866C 858.167,866.333 837.833,866.667 817.5,867C 806.75,871.433 796.75,877.1 787.5,884C 778.364,891.734 768.697,898.734 758.5,905C 756.536,906.451 755.203,908.284 754.5,910.5 Z"/></g>
<g><path style="opacity:1" fill="#614d3b" d="M 1553.5,287.5 C 1553.37,293.203 1553.71,298.87 1554.5,304.5C 1552.98,301.474 1552.31,298.141 1552.5,294.5C 1552.5,291.975 1552.84,289.641 1553.5,287.5 Z"/></g>
<g><path style="opacity:1" fill="#7c694b" d="M 1112.5,305.5 C 1115.15,305.41 1117.49,306.076 1119.5,307.5C 1116.85,307.59 1114.51,306.924 1112.5,305.5 Z"/></g>
<g><path style="opacity:1" fill="#7c694b" d="M 1121.5,307.5 C 1130.06,307.779 1138.39,308.779 1146.5,310.5C 1137.94,310.221 1129.61,309.221 1121.5,307.5 Z"/></g>
<g><path style="opacity:1" fill="#715d44" d="M 1445.5,307.5 C 1444.65,308.966 1443.32,309.8 1441.5,310C 1437.91,311.108 1434.25,311.608 1430.5,311.5C 1435.43,310.348 1440.43,309.015 1445.5,307.5 Z"/></g>
<g><path style="opacity:1" fill="#6b5741" d="M 1753.5,334.5 C 1760.23,335.098 1766.56,336.764 1772.5,339.5C 1765.94,338.278 1759.61,336.611 1753.5,334.5 Z"/></g>
<g><path style="opacity:1" fill="#776448" d="M 1969.5,335.5 C 1967.08,337.862 1964.08,338.862 1960.5,338.5C 1963.34,337.331 1966.34,336.331 1969.5,335.5 Z"/></g>
<g><path style="opacity:1" fill="#816e4e" d="M 1960.5,338.5 C 1957.37,339.581 1954.04,340.247 1950.5,340.5C 1950.5,342.833 1950.5,345.167 1950.5,347.5C 1949.53,345.052 1949.19,342.385 1949.5,339.5C 1953.14,338.886 1956.8,338.552 1960.5,338.5 Z"/></g>
<g><path style="opacity:1" fill="#ab956f" d="M 1537.5,355.5 C 1559.49,356.112 1581.49,356.779 1603.5,357.5C 1604.45,362.77 1604.78,368.103 1604.5,373.5C 1603.54,368.342 1602.87,363.009 1602.5,357.5C 1582.16,357.667 1561.83,357.5 1541.5,357C 1539.94,356.79 1538.61,356.29 1537.5,355.5 Z"/></g>
<g><path style="opacity:1" fill="#735f45" d="M 1142.5,358.5 C 1149.49,359.714 1156.49,359.714 1163.5,358.5C 1159.93,359.903 1156.09,360.569 1152,360.5C 1148.52,360.672 1145.36,360.006 1142.5,358.5 Z"/></g>
<g><path style="opacity:1" fill="#837150" d="M 1100.5,366.5 C 1095.81,368.591 1090.81,369.924 1085.5,370.5C 1090.19,368.409 1095.19,367.076 1100.5,366.5 Z"/></g>
<g><path style="opacity:1" fill="#786549" d="M 1950.5,353.5 C 1951.65,358.316 1951.82,363.316 1951,368.5C 1950.8,370.32 1949.97,371.653 1948.5,372.5C 1950.25,366.319 1950.92,359.986 1950.5,353.5 Z"/></g>
<g><path style="opacity:1" fill="#786549" d="M 1896.5,385.5 C 1895.97,389.312 1895.31,392.979 1894.5,396.5C 1894.33,393.15 1894.5,389.817 1895,386.5C 1895.38,385.944 1895.88,385.611 1896.5,385.5 Z"/></g>
<g><path style="opacity:1" fill="#634f3c" d="M 2097.5,404.5 C 2101.99,405.34 2106.32,406.34 2110.5,407.5C 2105.74,407.876 2101.41,406.876 2097.5,404.5 Z"/></g>
<g><path style="opacity:1" fill="#614d3b" d="M 2117.5,412.5 C 2118.4,413.209 2118.74,414.209 2118.5,415.5C 2114.21,416.707 2109.88,417.707 2105.5,418.5C 2108.78,416.901 2112.28,415.567 2116,414.5C 2117.03,414.164 2117.53,413.497 2117.5,412.5 Z"/></g>
<g><path style="opacity:1" fill="#634f3c" d="M 1033.5,435.5 C 1029.37,437.21 1025.03,438.543 1020.5,439.5C 1024.38,436.987 1028.71,435.654 1033.5,435.5 Z"/></g>
<g><path style="opacity:1" fill="#65513d" d="M 577.5,443.5 C 576.624,443.369 575.957,443.702 575.5,444.5C 574.95,446.657 574.283,448.657 573.5,450.5C 573.337,448.143 573.503,445.81 574,443.5C 575.292,442.209 576.458,442.209 577.5,443.5 Z"/></g>
<g><path style="opacity:1" fill="#624e3b" d="M 774.5,457.5 C 778.358,457.77 781.691,459.103 784.5,461.5C 780.863,460.737 777.53,459.403 774.5,457.5 Z"/></g>
<g><path style="opacity:1" fill="#7e6b4c" d="M 599.5,479.5 C 600.422,483.995 601.089,488.662 601.5,493.5C 600.732,492.737 600.232,491.737 600,490.5C 599.501,486.848 599.335,483.182 599.5,479.5 Z"/></g>
<g><path style="opacity:1" fill="#65513d" d="M 1118.5,485.5 C 1114.1,487.408 1109.43,488.741 1104.5,489.5C 1108.79,487.184 1113.46,485.85 1118.5,485.5 Z"/></g>
<g><path style="opacity:1" fill="#6e5b43" d="M 836.5,506.5 C 841.614,507.925 846.781,509.258 852,510.5C 859.918,508.471 867.751,508.137 875.5,509.5C 867.577,509.217 859.743,509.884 852,511.5C 846.388,510.906 841.221,509.24 836.5,506.5 Z"/></g>
<g><path style="opacity:1" fill="#756247" d="M 875.5,509.5 C 878.167,509.5 880.833,509.5 883.5,509.5C 883.813,513.042 883.479,516.375 882.5,519.5C 882.5,516.5 882.5,513.5 882.5,510.5C 879.941,510.802 877.607,510.468 875.5,509.5 Z"/></g>
<g><path style="opacity:1" fill="#756147" d="M 733.5,534.5 C 731.485,535.924 729.152,536.59 726.5,536.5C 728.515,535.076 730.848,534.41 733.5,534.5 Z"/></g>
<g><path style="opacity:1" fill="#796549" d="M 1672.5,534.5 C 1675.15,534.41 1677.49,535.076 1679.5,536.5C 1676.85,536.59 1674.51,535.924 1672.5,534.5 Z"/></g>
<g><path style="opacity:1" fill="#786448" d="M 1679.5,536.5 C 1682.23,536.171 1684.56,536.837 1686.5,538.5C 1683.85,538.59 1681.51,537.924 1679.5,536.5 Z"/></g>
<g><path style="opacity:1" fill="#624e3b" d="M 834.5,605.5 C 833.771,610.13 833.437,614.797 833.5,619.5C 832.839,617.866 832.506,616.033 832.5,614C 832.36,610.85 833.027,608.017 834.5,605.5 Z"/></g>
<g><path style="opacity:1" fill="#ad9771" d="M 579.5,615.5 C 580.268,616.263 580.768,617.263 581,618.5C 581.83,645.003 581.663,671.337 580.5,697.5C 580.78,670.148 580.447,642.815 579.5,615.5 Z"/></g>
<g><path style="opacity:1" fill="#6c5841" d="M 1518.5,658.5 C 1522.53,659.025 1526.2,660.358 1529.5,662.5C 1525.46,661.935 1521.8,660.601 1518.5,658.5 Z"/></g>
<g><path style="opacity:1" fill="#735f46" d="M 1622.5,661.5 C 1620.74,661.046 1618.74,661.046 1616.5,661.5C 1618.6,659.727 1620.93,659.394 1623.5,660.5C 1623.38,661.107 1623.04,661.44 1622.5,661.5 Z"/></g>
<g><path style="opacity:1" fill="#826f4e" d="M 1606.5,663.5 C 1601.45,665.306 1596.12,666.306 1590.5,666.5C 1595.55,664.656 1600.88,663.656 1606.5,663.5 Z"/></g>
<g><path style="opacity:1" fill="#aa956e" d="M 820.5,684.5 C 845.474,685.462 870.474,685.795 895.5,685.5C 871.67,686.663 847.67,686.83 823.5,686C 822.263,685.768 821.263,685.268 820.5,684.5 Z"/></g>
<g><path style="opacity:1" fill="#826f4e" d="M 1114.5,688.5 C 1107.65,690.294 1100.65,691.96 1093.5,693.5C 1100.02,690.298 1107.02,688.631 1114.5,688.5 Z"/></g>
<g><path style="opacity:1" fill="#7b684b" d="M 1668.5,708.5 C 1662.49,708.701 1656.49,709.034 1650.5,709.5C 1654.07,708.097 1657.91,707.431 1662,707.5C 1664.36,707.504 1666.53,707.837 1668.5,708.5 Z"/></g>
<g><path style="opacity:1" fill="#847150" d="M 1650.5,709.5 C 1647.14,711.039 1643.47,711.706 1639.5,711.5C 1636.64,711.497 1633.98,711.164 1631.5,710.5C 1637.86,710.593 1644.2,710.26 1650.5,709.5 Z"/></g>
<g><path style="opacity:1" fill="#67533e" d="M 1318.5,737.5 C 1314.92,739.728 1310.92,740.728 1306.5,740.5C 1310.31,739.213 1314.31,738.213 1318.5,737.5 Z"/></g>
<g><path style="opacity:1" fill="#7c694b" d="M 447.5,738.5 C 440.087,741.13 432.421,742.13 424.5,741.5C 431.715,741.125 438.882,739.792 446,737.5C 446.765,737.57 447.265,737.903 447.5,738.5 Z"/></g>
<g><path style="opacity:1" fill="#624e3b" d="M 1306.5,740.5 C 1289.98,742.469 1273.31,744.469 1256.5,746.5C 1272.83,742.833 1289.5,740.833 1306.5,740.5 Z"/></g>
<g><path style="opacity:1" fill="#7e6b4c" d="M 421.5,741.5 C 418.713,742.477 415.713,742.81 412.5,742.5C 412.819,747.363 412.486,752.03 411.5,756.5C 411.5,751.5 411.5,746.5 411.5,741.5C 414.833,741.5 418.167,741.5 421.5,741.5 Z"/></g>
<g><path style="opacity:1" fill="#7a674a" d="M 1558.5,758.5 C 1561.72,758.345 1564.38,759.345 1566.5,761.5C 1563.6,760.871 1560.94,759.871 1558.5,758.5 Z"/></g>
<g><path style="opacity:1" fill="#64503d" d="M 1479.5,759.5 C 1476.86,761.31 1473.86,762.31 1470.5,762.5C 1473.08,760.528 1476.08,759.528 1479.5,759.5 Z"/></g>
<g><path style="opacity:1" fill="#66523e" d="M 207.5,759.5 C 206.722,760.156 206.056,760.989 205.5,762C 206.414,763.406 207.08,764.906 207.5,766.5C 205.466,765.452 204.133,763.786 203.5,761.5C 204.32,759.889 205.654,759.222 207.5,759.5 Z"/></g>
<g><path style="opacity:1" fill="#735f46" d="M 168.5,838.5 C 163.13,838.392 157.797,838.725 152.5,839.5C 155.356,837.994 158.523,837.328 162,837.5C 164.361,837.504 166.527,837.837 168.5,838.5 Z"/></g>
<g><path style="opacity:1" fill="#7c684b" d="M 1173.5,841.5 C 1174.87,843.936 1175.87,846.603 1176.5,849.5C 1174.35,847.383 1173.35,844.716 1173.5,841.5 Z"/></g>
<g><path style="opacity:1" fill="#806c4d" d="M 183.5,848.5 C 184.966,849.347 185.8,850.68 186,852.5C 186.814,857.02 186.647,861.354 185.5,865.5C 185.877,859.677 185.21,854.011 183.5,848.5 Z"/></g>
<g><path style="opacity:1" fill="#7a6649" d="M 185.5,865.5 C 185.59,868.152 184.924,870.485 183.5,872.5C 183.41,869.848 184.076,867.515 185.5,865.5 Z"/></g>
<g><path style="opacity:1" fill="#7a674a" d="M 998.5,875.5 C 1000.06,879.203 1000.72,883.203 1000.5,887.5C 1000.5,890.686 1000.16,893.686 999.5,896.5C 999.674,889.465 999.341,882.465 998.5,875.5 Z"/></g>
<g><path style="opacity:1" fill="#7c694b" d="M 981.5,903.5 C 979.345,905.534 977.012,905.867 974.5,904.5C 976.861,904.326 979.194,903.993 981.5,903.5 Z"/></g>
<g><path style="opacity:1" fill="#867351" d="M 869.5,905.5 C 877.132,906.358 884.799,906.691 892.5,906.5C 886.013,907.654 879.346,907.821 872.5,907C 871.263,906.768 870.263,906.268 869.5,905.5 Z"/></g>
<g><path style="opacity:1" fill="#5f4a39" d="M 909.5,902.5 C 909.664,905.187 909.497,907.854 909,910.5C 908.692,911.308 908.192,911.975 907.5,912.5C 906.269,911.349 906.269,910.183 907.5,909C 905.618,908.802 903.952,908.302 902.5,907.5C 904.5,907.5 906.5,907.5 908.5,907.5C 908.216,905.585 908.549,903.919 909.5,902.5 Z"/></g>
<g><path style="opacity:1" fill="#604c3a" d="M 312.5,914.5 C 302.743,912.918 293.077,913.251 283.5,915.5C 288.047,913.001 293.047,912.001 298.5,912.5C 303.437,912.3 308.104,912.967 312.5,914.5 Z"/></g>
<g><path style="opacity:1" fill="#ad9671" d="M 754.5,910.5 C 753.175,936.488 753.175,962.488 754.5,988.5C 753.883,988.389 753.383,988.056 753,987.5C 752.333,962.167 752.333,936.833 753,911.5C 753.383,910.944 753.883,910.611 754.5,910.5 Z"/></g>
<g><path style="opacity:1" fill="#65513d" d="M 453.5,932.5 C 455.472,935.084 456.472,938.084 456.5,941.5C 454.69,938.855 453.69,935.855 453.5,932.5 Z"/></g>
<g><path style="opacity:1" fill="#786448" d="M 456.5,942.5 C 457.165,945.314 457.498,948.314 457.5,951.5C 457.684,956.107 457.017,960.44 455.5,964.5C 456.302,957.196 456.635,949.862 456.5,942.5 Z"/></g>
<g><path style="opacity:1" fill="#816e4e" d="M 137.5,931.5 C 138.907,936.144 138.573,940.811 136.5,945.5C 137.129,951.631 137.795,957.631 138.5,963.5C 138.44,964.043 138.107,964.376 137.5,964.5C 136.755,958.166 136.089,951.833 135.5,945.5C 137.114,940.974 137.781,936.308 137.5,931.5 Z"/></g>
<g><path style="opacity:1" fill="#776348" d="M 341.5,933.5 C 342.493,942.318 342.827,951.318 342.5,960.5C 350.858,960.379 359.191,960.712 367.5,961.5C 359.021,961.817 350.354,961.817 341.5,961.5C 341.5,952.167 341.5,942.833 341.5,933.5 Z"/></g>
<g><path style="opacity:0.946" fill="#48332c" d="M 228.5,964.5 C 231.271,964.421 233.937,964.921 236.5,966C 241.599,968.883 246.933,971.217 252.5,973C 261.521,973.393 270.521,974.06 279.5,975C 283.305,975.534 286.971,976.534 290.5,978C 297.363,986.709 304.696,995.042 312.5,1003C 320.758,1009.38 328.924,1015.88 337,1022.5C 338.473,1026.42 339.639,1030.42 340.5,1034.5C 339.47,1038.42 338.136,1042.26 336.5,1046C 339.278,1048.5 341.778,1051.33 344,1054.5C 345.405,1060.53 344.072,1065.87 340,1070.5C 334.333,1076.17 328.667,1081.83 323,1087.5C 319.555,1092.06 316.888,1097.06 315,1102.5C 309.681,1108.17 303.181,1110 295.5,1108C 283.664,1104.77 271.664,1102.44 259.5,1101C 253.183,1097.88 250.35,1092.71 251,1085.5C 249.694,1081.55 247.861,1077.89 245.5,1074.5C 234.524,1068.01 222.69,1064.01 210,1062.5C 204.771,1064.13 199.604,1065.97 194.5,1068C 181.033,1066.64 167.699,1067.47 154.5,1070.5C 150.758,1069.98 147.091,1069.15 143.5,1068C 129.182,1056.75 126.849,1043.41 136.5,1028C 138.956,1026.29 141.623,1024.96 144.5,1024C 153.478,1024.07 161.478,1021.4 168.5,1016C 173.459,1010.86 178.792,1006.2 184.5,1002C 188.815,999.451 193.481,998.118 198.5,998C 195.233,992.064 194.733,985.897 197,979.5C 198.543,977.622 200.376,976.122 202.5,975C 211.879,972.937 220.545,969.437 228.5,964.5 Z"/></g>
<g><path style="opacity:1" fill="#9c8a5e" d="M 226.5,986.5 C 235.275,988.254 243.942,990.754 252.5,994C 259.167,994.333 265.833,994.667 272.5,995C 277.872,994.932 281.372,997.432 283,1002.5C 293.435,1013.94 304.768,1024.27 317,1033.5C 318.265,1036.46 319.431,1039.46 320.5,1042.5C 315.587,1052.57 311.254,1062.9 307.5,1073.5C 299.666,1074.25 291.833,1074.91 284,1075.5C 283.167,1075.17 282.333,1074.83 281.5,1074.5C 276.715,1069.09 272.048,1063.59 267.5,1058C 257.324,1050.58 245.99,1045.91 233.5,1044C 223.549,1042.34 213.549,1041.67 203.5,1042C 195.906,1044.46 188.906,1047.96 182.5,1052.5C 173.518,1051.76 164.518,1051.59 155.5,1052C 151.218,1049.26 150.552,1045.93 153.5,1042C 158.619,1038.11 164.286,1035.27 170.5,1033.5C 178.012,1028.24 185.346,1022.74 192.5,1017C 196.284,1015.05 200.284,1013.72 204.5,1013C 210.475,1011.36 213.975,1007.53 215,1001.5C 215.499,997.848 215.665,994.182 215.5,990.5C 219.537,989.935 223.203,988.601 226.5,986.5 Z"/></g>
<g><path style="opacity:1" fill="#b89f7e" d="M 249.5,1008.5 C 253.846,1008.33 258.179,1008.5 262.5,1009C 272.2,1011.69 280.367,1016.86 287,1024.5C 289.101,1037.72 283.601,1043.89 270.5,1043C 267.833,1041.33 265.167,1039.67 262.5,1038C 255.334,1035.79 248.334,1033.12 241.5,1030C 234.556,1023.6 234.889,1017.6 242.5,1012C 244.355,1011.58 246.189,1011.08 248,1010.5C 249.03,1010.16 249.53,1009.5 249.5,1008.5 Z"/></g>
<g><path style="opacity:0.943" fill="#48332c" d="M 407.5,1011.5 C 410.635,1011.55 412.302,1013.21 412.5,1016.5C 419.147,1025.99 428.147,1029.66 439.5,1027.5C 445.173,1029.67 449.006,1033.67 451,1039.5C 455.154,1041.65 457.82,1044.99 459,1049.5C 460.203,1056.8 460.537,1064.14 460,1071.5C 456.556,1081.72 451.556,1091.06 445,1099.5C 443.606,1104.93 441.106,1109.77 437.5,1114C 430.36,1118.32 422.693,1121.16 414.5,1122.5C 412.198,1121.97 409.865,1121.64 407.5,1121.5C 401.264,1123.17 394.931,1123.67 388.5,1123C 385.804,1122.31 383.637,1120.81 382,1118.5C 368.256,1102.67 359.589,1084.34 356,1063.5C 352.898,1059.79 350.731,1055.63 349.5,1051C 350.137,1048.75 350.97,1046.59 352,1044.5C 358.468,1037.03 365.302,1029.86 372.5,1023C 376.888,1020.14 381.554,1017.81 386.5,1016C 393.67,1014.67 400.67,1013.17 407.5,1011.5 Z"/></g>
<g><path style="opacity:1" fill="#9c895e" d="M 397.5,1024.5 C 401.558,1028.05 405.558,1031.89 409.5,1036C 417.478,1040.94 426.145,1043.77 435.5,1044.5C 436.333,1046.17 437.167,1047.83 438,1049.5C 438.41,1054.51 438.91,1059.51 439.5,1064.5C 439.674,1066.69 439.007,1068.53 437.5,1070C 425.745,1071.85 418.078,1078.35 414.5,1089.5C 409.614,1092.53 404.447,1093.53 399,1092.5C 396.938,1088.31 395.271,1083.98 394,1079.5C 387.454,1070.24 381.287,1060.74 375.5,1051C 378.594,1045.57 382.094,1040.4 386,1035.5C 390.335,1032.33 394.168,1028.66 397.5,1024.5 Z"/></g>
<g><path style="opacity:1" fill="#83704f" d="M 839.5,1030.5 C 844.927,1029.98 849.927,1030.98 854.5,1033.5C 849.397,1032.41 844.397,1031.41 839.5,1030.5 Z"/></g>
<g><path style="opacity:1" fill="#6c5942" d="M 773.5,1034.5 C 767.062,1036.66 760.396,1038.33 753.5,1039.5C 759.805,1036.83 766.472,1035.17 773.5,1034.5 Z"/></g>
<g><path style="opacity:1" fill="#b89f7e" d="M 397.5,1040.5 C 403.039,1039.64 407.872,1040.97 412,1044.5C 414.356,1049.66 416.856,1054.66 419.5,1059.5C 417.963,1065.86 413.963,1068.36 407.5,1067C 404.197,1063.62 400.197,1061.45 395.5,1060.5C 389.792,1053.21 390.458,1046.54 397.5,1040.5 Z"/></g>
<g><path style="opacity:1" fill="#5c4838" d="M 753.5,1039.5 C 747.501,1042.28 741.167,1044.28 734.5,1045.5C 740.499,1042.72 746.833,1040.72 753.5,1039.5 Z"/></g>
</svg>
