<?xml version="1.0" encoding="UTF-8"?>
<!DOCTYPE svg PUBLIC "-//W3C//DTD SVG 1.1//EN" "http://www.w3.org/Graphics/SVG/1.1/DTD/svg11.dtd">
<svg xmlns="http://www.w3.org/2000/svg" version="1.1" width="883px" height="354px" style="shape-rendering:geometricPrecision; text-rendering:geometricPrecision; image-rendering:optimizeQuality; fill-rule:evenodd; clip-rule:evenodd" xmlns:xlink="http://www.w3.org/1999/xlink">
<g><path style="opacity:0.986" fill="#000000" d="M 806.5,-0.5 C 813.5,-0.5 820.5,-0.5 827.5,-0.5C 833.369,0.204733 839.369,0.871399 845.5,1.5C 846.607,0.978099 847.774,0.644766 849,0.5C 855.84,1.67021 862.674,2.83688 869.5,4C 871.725,4.56106 873.725,5.56106 875.5,7C 877.698,10.0228 880.031,12.8562 882.5,15.5C 882.5,18.8333 882.5,22.1667 882.5,25.5C 880.263,29.4096 877.263,32.7429 873.5,35.5C 879.782,44.4313 878.449,51.9313 869.5,58C 861.227,59.8688 853.227,62.5355 845.5,66C 842.46,66.3201 839.46,66.3201 836.5,66C 841.1,73.8 840.1,80.8 833.5,87C 828.933,88.9157 824.933,91.5824 821.5,95C 811.993,96.4422 803.659,93.9422 796.5,87.5C 794.075,89.1445 791.408,90.3112 788.5,91C 775.768,92.9327 763.434,96.266 751.5,101C 749.668,101.748 748.001,102.748 746.5,104C 753.945,113.104 752.945,121.104 743.5,128C 734.085,130.644 725.418,129.144 717.5,123.5C 714.201,126.155 710.534,128.321 706.5,130C 700.605,131.132 694.938,132.965 689.5,135.5C 681.293,144.756 671.96,145.923 661.5,139C 641.209,136.138 620.876,135.805 600.5,138C 592.354,140.474 585.521,144.974 580,151.5C 577.949,155.352 578.449,158.852 581.5,162C 587.649,165.16 593.982,167.827 600.5,170C 606.885,170.149 613.218,169.815 619.5,169C 625.996,172.253 632.662,174.92 639.5,177C 649.124,182.756 652.957,191.256 651,202.5C 650,204.167 649,205.833 648,207.5C 642.167,212.667 636.333,217.833 630.5,223C 623.798,225.144 617.298,224.644 611,221.5C 605.043,222.797 599.043,222.797 593,221.5C 587.003,229.569 578.836,233.236 568.5,232.5C 558.326,233.176 549.826,229.843 543,222.5C 541.678,218.992 540.845,215.659 540.5,212.5C 541.123,209.833 542.123,207.333 543.5,205C 531.9,206.657 520.233,208.324 508.5,210C 504.91,211.53 501.243,212.864 497.5,214C 483.026,215.019 468.86,217.519 455,221.5C 454.5,221.833 454,222.167 453.5,222.5C 455.938,225.978 459.104,228.644 463,230.5C 467.381,240.074 466.548,249.241 460.5,258C 453.108,263.379 445.108,264.545 436.5,261.5C 420.409,268.417 403.909,269.417 387,264.5C 383.259,268.241 379.425,272.075 375.5,276C 368.775,280.243 361.441,282.909 353.5,284C 344.131,285.059 334.798,286.226 325.5,287.5C 319.405,286.696 314.071,288.529 309.5,293C 313.652,298.119 318.152,302.952 323,307.5C 328.787,315.566 329.454,323.899 325,332.5C 316.029,339.735 308.195,338.735 301.5,329.5C 297.368,327.423 293.034,326.589 288.5,327C 281.672,331.915 274.672,336.581 267.5,341C 254.325,342.978 247.991,337.478 248.5,324.5C 246.667,320.833 244.833,317.167 243,313.5C 237.639,311.067 232.139,309.067 226.5,307.5C 221.218,308.257 217.052,310.923 214,315.5C 209.781,322.772 204.948,329.605 199.5,336C 191.252,341.712 184.752,340.212 180,331.5C 179.501,327.179 179.334,322.846 179.5,318.5C 170.722,319.176 162.389,317.676 154.5,314C 150.926,309.903 149.093,305.07 149,299.5C 147,296.167 145,292.833 143,289.5C 135.637,293.55 128.303,297.55 121,301.5C 117.633,300.867 114.467,299.7 111.5,298C 107.611,294.864 103.945,291.531 100.5,288C 98.2902,286.261 95.7902,285.094 93,284.5C 85.2439,284.501 77.4106,284.668 69.5,285C 64.4602,291.038 58.1269,295.038 50.5,297C 51.7738,307.051 47.4404,310.718 37.5,308C 31.5,302.667 25.5,297.333 19.5,292C 10.56,293.1 3.89332,289.933 -0.5,282.5C -0.5,279.833 -0.5,277.167 -0.5,274.5C 1.26589,272.229 3.26589,270.063 5.5,268C 19.0121,265.305 32.3455,261.972 45.5,258C 45.8333,257.667 46.1667,257.333 46.5,257C 41.2796,252.084 40.1129,246.25 43,239.5C 46.4791,233.349 51.6458,229.516 58.5,228C 60.3333,226.167 62.1667,224.333 64,222.5C 61.8275,209.332 66.9941,204.832 79.5,209C 81.7122,211.043 83.7122,213.209 85.5,215.5C 95.9349,213.225 105.935,209.725 115.5,205C 117.985,201.248 120.652,197.581 123.5,194C 133.639,190.566 139.639,194.066 141.5,204.5C 154.17,198.984 166.836,193.151 179.5,187C 182.845,183.977 185.178,180.311 186.5,176C 181.065,174.231 177.232,170.731 175,165.5C 173.659,157.802 172.159,150.136 170.5,142.5C 165.744,142.065 161.077,141.232 156.5,140C 151.467,136.1 150.3,131.267 153,125.5C 154.731,123.383 156.898,121.883 159.5,121C 173.516,118.327 185.516,111.994 195.5,102C 200.334,98.7484 205.334,95.7484 210.5,93C 221.343,92.0109 226.343,96.8442 225.5,107.5C 225.986,109.497 227.153,110.831 229,111.5C 236.35,108.143 243.184,103.976 249.5,99C 263.815,96.984 269.649,103.151 267,117.5C 269.748,115.542 272.582,113.709 275.5,112C 281.049,105.956 286.383,99.789 291.5,93.5C 298.909,96.5147 306.575,98.5147 314.5,99.5C 313.814,103.287 314.814,106.454 317.5,109C 319.455,109.953 321.122,111.287 322.5,113C 338.439,112.431 343.272,119.264 337,133.5C 335.915,134.293 334.748,134.96 333.5,135.5C 332.176,140.596 331.176,145.763 330.5,151C 332.603,157.368 336.103,162.868 341,167.5C 345.571,165.143 350.405,163.476 355.5,162.5C 360.417,156.643 366.584,154.976 374,157.5C 376.653,154.237 379.487,151.07 382.5,148C 384.39,146.888 386.39,146.054 388.5,145.5C 394.397,148.899 398.73,153.732 401.5,160C 401.355,160.772 401.022,161.439 400.5,162C 406.955,170.888 415.622,174.222 426.5,172C 433.924,169.362 438.757,164.195 441,156.5C 441.427,152.324 441.927,148.158 442.5,144C 440.488,133.643 435.821,124.643 428.5,117C 424.156,114.829 420.156,112.163 416.5,109C 402.659,105.158 391.159,97.6581 382,86.5C 376.206,70.7709 381.706,61.7709 398.5,59.5C 402.358,53.2348 408.024,50.0681 415.5,50C 421.287,47.6065 426.954,44.9398 432.5,42C 426.33,39.1657 422.33,34.499 420.5,28C 421.413,23.4214 424.08,20.4214 428.5,19C 433.5,18.6667 438.5,18.3333 443.5,18C 452.025,15.3688 460.691,13.3688 469.5,12C 486.502,10.6641 503.502,9.66406 520.5,9C 526.855,9.42196 532.855,11.0886 538.5,14C 542.923,18.2208 544.59,23.3874 543.5,29.5C 547.5,29.5 551.5,29.5 555.5,29.5C 554.304,19.0281 558.97,13.3614 569.5,12.5C 580.669,15.48 592.003,17.6467 603.5,19C 607.926,19.871 611.259,22.2044 613.5,26C 618.689,26.3808 623.689,27.5474 628.5,29.5C 643.074,24.7948 651.074,30.1281 652.5,45.5C 655.328,47.7481 658.328,49.7481 661.5,51.5C 664.658,48.1724 667.658,44.6724 670.5,41C 678.039,35.9338 685.039,36.6005 691.5,43C 698.31,43.1223 704.977,44.1223 711.5,46C 713.96,47.4578 716.127,49.2911 718,51.5C 718.982,56.1258 719.816,60.7924 720.5,65.5C 727.816,67.6794 735.149,67.5127 742.5,65C 746.95,62.7388 751.617,61.0722 756.5,60C 760.208,57.4954 762.374,53.9954 763,49.5C 766.916,46.0722 771.416,43.5722 776.5,42C 778.833,40.3333 781.167,38.6667 783.5,37C 774.836,36.2419 767.003,33.4085 760,28.5C 757.697,23.9617 758.197,19.795 761.5,16C 764.957,14.2565 768.623,13.2565 772.5,13C 781.16,12.5002 789.827,12.3336 798.5,12.5C 797.403,5.67225 800.069,1.33892 806.5,-0.5 Z"/></g>
<g><path style="opacity:0.953" fill="#000000" d="M 80.5,305.5 C 93.8401,301.926 103.34,306.259 109,318.5C 110.233,320.866 111.066,323.366 111.5,326C 110.797,331.143 110.297,336.309 110,341.5C 108.455,346.377 105.121,349.043 100,349.5C 96.3658,348.733 92.8658,347.566 89.5,346C 84.7825,341.973 79.4492,338.973 73.5,337C 72,335.5 70.5,334 69,332.5C 65.6988,337.234 61.1988,340.067 55.5,341C 50.3189,341.362 45.1522,341.862 40,342.5C 33.4189,342.419 29.9189,339.086 29.5,332.5C 30.1798,329.64 31.5131,327.14 33.5,325C 41.0016,322.054 48.3349,318.721 55.5,315C 56.6759,312.314 58.3425,309.981 60.5,308C 67.3242,308.123 73.9909,307.289 80.5,305.5 Z"/></g>
<g><path style="opacity:0.923" fill="#000000" d="M 145.5,353.5 C 144.833,353.5 144.167,353.5 143.5,353.5C 133.945,350.929 128.611,344.596 127.5,334.5C 128.162,331.853 128.162,329.353 127.5,327C 130.95,316.075 137.616,313.408 147.5,319C 149.595,322.303 152.428,324.803 156,326.5C 158.13,329.665 157.963,332.665 155.5,335.5C 157.85,344.811 154.516,350.811 145.5,353.5 Z"/></g>
</svg>
