<?xml version="1.0" encoding="UTF-8"?>
<!DOCTYPE svg PUBLIC "-//W3C//DTD SVG 1.1//EN" "http://www.w3.org/Graphics/SVG/1.1/DTD/svg11.dtd">
<svg xmlns="http://www.w3.org/2000/svg" version="1.1" width="2296px" height="1221px" style="shape-rendering:geometricPrecision; text-rendering:geometricPrecision; image-rendering:optimizeQuality; fill-rule:evenodd; clip-rule:evenodd" xmlns:xlink="http://www.w3.org/1999/xlink">
<g><path style="opacity:0.964" fill="#48332c" d="M 2035.5,120.5 C 2041.64,118.959 2045.98,120.959 2048.5,126.5C 2050.5,127.333 2052.5,128.167 2054.5,129C 2063.84,136.015 2072.84,143.348 2081.5,151C 2087.1,156.721 2092.6,162.555 2098,168.5C 2099.44,173.762 2099.77,179.096 2099,184.5C 2095.75,190.008 2092.75,195.675 2090,201.5C 2090.47,211.874 2088.8,221.874 2085,231.5C 2072.35,241.666 2058.68,250.332 2044,257.5C 2045.46,270.224 2043.13,282.224 2037,293.5C 2031.59,297.788 2026.09,301.955 2020.5,306C 2024.17,306.333 2027.83,306.667 2031.5,307C 2034,308.167 2035.83,310 2037,312.5C 2038.58,310.959 2040.41,309.792 2042.5,309C 2050.08,308.282 2057.58,307.116 2065,305.5C 2070.75,307.389 2076.25,309.889 2081.5,313C 2084.56,317.172 2087.06,321.672 2089,326.5C 2089.27,338.123 2091.1,349.456 2094.5,360.5C 2093.36,365.623 2091.02,370.123 2087.5,374C 2076.7,380.636 2066.03,387.469 2055.5,394.5C 2047.43,401.074 2040.59,408.74 2035,417.5C 2028.49,422.189 2024.82,428.522 2024,436.5C 2022.89,444.495 2022.22,452.495 2022,460.5C 2025.51,462.587 2028.84,464.92 2032,467.5C 2040.59,464.905 2049.09,465.405 2057.5,469C 2060.2,471.403 2061.87,474.403 2062.5,478C 2061.34,481.979 2059.67,485.645 2057.5,489C 2058.19,493.81 2058.69,498.643 2059,503.5C 2067.3,507.466 2074.8,512.633 2081.5,519C 2083.58,519.869 2085.75,520.369 2088,520.5C 2098.22,519.091 2108.39,519.425 2118.5,521.5C 2121.36,520.005 2123.69,517.838 2125.5,515C 2130.66,512.832 2135.66,513.165 2140.5,516C 2148.18,520.79 2155.34,526.29 2162,532.5C 2163.73,536.295 2165.73,539.962 2168,543.5C 2168.67,546.833 2168.67,550.167 2168,553.5C 2166.44,557.558 2165.28,561.725 2164.5,566C 2166.47,578.698 2169.3,591.198 2173,603.5C 2178.82,608.738 2184.82,613.738 2191,618.5C 2193.94,625.67 2194.28,633.004 2192,640.5C 2188.22,645.723 2185.22,651.39 2183,657.5C 2182.83,664.23 2182.16,670.897 2181,677.5C 2177.71,688.563 2170.54,692.396 2159.5,689C 2154.72,687.444 2150.39,685.111 2146.5,682C 2138.53,680.205 2130.53,678.538 2122.5,677C 2117.33,674.252 2112.33,671.252 2107.5,668C 2102.34,665.871 2097,665.204 2091.5,666C 2089.41,667.041 2087.75,668.541 2086.5,670.5C 2091.58,680.727 2092.08,691.06 2088,701.5C 2084.81,706.345 2080.31,709.178 2074.5,710C 2066.96,711.713 2059.3,712.713 2051.5,713C 2045.63,717.438 2039.29,721.105 2032.5,724C 2034.02,728.364 2033.52,732.53 2031,736.5C 2027.84,739.219 2024.34,741.386 2020.5,743C 2017.12,747.59 2013.62,752.09 2010,756.5C 2008.54,759.366 2008.21,762.366 2009,765.5C 2013.08,767.457 2016.92,769.79 2020.5,772.5C 2022.37,776.56 2025.03,780.06 2028.5,783C 2032.63,785.477 2036.46,788.31 2040,791.5C 2041.79,792.409 2043.62,792.576 2045.5,792C 2050.71,787.368 2056.88,785.201 2064,785.5C 2071.96,786.358 2079.79,787.858 2087.5,790C 2096.37,793.86 2105.04,798.193 2113.5,803C 2115.65,805.469 2117.15,808.302 2118,811.5C 2119.08,818.644 2119.91,825.811 2120.5,833C 2120.46,836.221 2120.13,839.388 2119.5,842.5C 2130.58,850.228 2131.25,858.728 2121.5,868C 2119.13,869.036 2116.63,869.536 2114,869.5C 2104.91,868.986 2095.75,868.819 2086.5,869C 2075.18,872.87 2064.52,871.537 2054.5,865C 2050.22,863.843 2045.88,863.01 2041.5,862.5C 2043.05,869.923 2046.88,875.923 2053,880.5C 2058.59,891.937 2058.92,903.604 2054,915.5C 2051.78,919.388 2048.61,922.221 2044.5,924C 2025.86,927.576 2007.53,932.243 1989.5,938C 1975.66,939.497 1966.5,933.664 1962,920.5C 1956.39,914.536 1950.06,909.536 1943,905.5C 1949.2,923.644 1942.7,931.811 1923.5,930C 1916.87,926.69 1909.87,925.69 1902.5,927C 1894.93,928.89 1887.6,931.39 1880.5,934.5C 1881.36,937.146 1881.2,939.813 1880,942.5C 1877.93,948.211 1875.76,953.878 1873.5,959.5C 1877.1,963.274 1880.6,967.274 1884,971.5C 1885.74,975.661 1886.74,979.995 1887,984.5C 1892.97,987.236 1898.14,991.07 1902.5,996C 1915.08,997.302 1926.42,1001.64 1936.5,1009C 1938.4,1010.82 1940.07,1012.82 1941.5,1015C 1948.41,1018.9 1955.07,1023.23 1961.5,1028C 1967.17,1033.32 1969,1039.82 1967,1047.5C 1965.33,1050.17 1963.67,1052.83 1962,1055.5C 1958.45,1071.82 1953.12,1087.49 1946,1102.5C 1938.89,1107.56 1931.73,1107.73 1924.5,1103C 1915.86,1101.25 1907.19,1101.25 1898.5,1103C 1885.21,1105.66 1872.04,1108.83 1859,1112.5C 1851.87,1117.23 1844.2,1120.9 1836,1123.5C 1831.31,1122.82 1827.31,1120.82 1824,1117.5C 1822.25,1114.33 1820.25,1111.33 1818,1108.5C 1814.04,1099.19 1810.04,1089.85 1806,1080.5C 1805.21,1076.91 1805.38,1073.41 1806.5,1070C 1793.38,1070.04 1780.71,1067.7 1768.5,1063C 1760.32,1058.82 1753.32,1053.15 1747.5,1046C 1740.33,1043.16 1734.66,1038.5 1730.5,1032C 1721.57,1030.4 1712.57,1029.56 1703.5,1029.5C 1703.58,1036.17 1700.92,1041.34 1695.5,1045C 1684.77,1045.54 1674.11,1045.21 1663.5,1044C 1660.58,1050.57 1658.42,1057.4 1657,1064.5C 1654.97,1068.41 1652.13,1071.57 1648.5,1074C 1646,1074.5 1643.5,1075 1641,1075.5C 1627.2,1069.34 1613.37,1063.18 1599.5,1057C 1570.97,1049.4 1541.97,1044.4 1512.5,1042C 1504.21,1039.72 1499.54,1034.38 1498.5,1026C 1499.33,1013.5 1501.83,1001.33 1506,989.5C 1509.52,982.637 1514.86,977.97 1522,975.5C 1524.63,976.323 1527.29,976.99 1530,977.5C 1540.47,975.883 1550.97,975.05 1561.5,975C 1565.17,974 1568.83,973 1572.5,972C 1575.49,969.043 1578.49,966.043 1581.5,963C 1576.89,959.863 1571.89,957.53 1566.5,956C 1563.13,953.635 1560.96,950.468 1560,946.5C 1559.87,936.408 1557.87,926.741 1554,917.5C 1551.95,907.976 1555.12,900.809 1563.5,896C 1567.9,895.183 1572.23,894.183 1576.5,893C 1591.15,873.229 1610.32,867.062 1634,874.5C 1635.44,873.852 1636.94,873.519 1638.5,873.5C 1638.93,870.624 1639.59,867.791 1640.5,865C 1636.95,856.632 1638.29,849.132 1644.5,842.5C 1642.87,839.404 1640.87,836.57 1638.5,834C 1625.42,834.655 1613.09,831.988 1601.5,826C 1580.96,824.305 1560.62,825.805 1540.5,830.5C 1537.3,830.378 1534.3,829.545 1531.5,828C 1527.88,823.926 1524.38,819.759 1521,815.5C 1512.63,799.427 1504.3,783.427 1496,767.5C 1488.62,758.574 1481.12,749.74 1473.5,741C 1470.29,740.704 1467.13,740.204 1464,739.5C 1457.2,740.279 1450.37,740.779 1443.5,741C 1431.32,745.948 1419.32,751.281 1407.5,757C 1401.52,761.319 1395.85,765.986 1390.5,771C 1386.36,773.067 1382.03,773.734 1377.5,773C 1369.9,770.697 1362.23,768.697 1354.5,767C 1347.64,765.474 1342.47,761.641 1339,755.5C 1337.25,749.412 1335.75,743.245 1334.5,737C 1330.6,733.769 1327.44,729.936 1325,725.5C 1326.88,711.077 1322.38,698.91 1311.5,689C 1301.33,683.752 1291.66,677.752 1282.5,671C 1274.37,669.955 1266.37,668.289 1258.5,666C 1243.53,664.834 1228.53,664.167 1213.5,664C 1211.21,663.178 1208.88,662.511 1206.5,662C 1201.67,658.419 1196.67,655.085 1191.5,652C 1178.52,647.003 1166.52,640.337 1155.5,632C 1145.08,625.931 1134.42,620.264 1123.5,615C 1119.87,611.369 1115.7,608.536 1111,606.5C 1096.46,611.959 1081.63,616.292 1066.5,619.5C 1066.5,622.167 1066.5,624.833 1066.5,627.5C 1079.81,629.727 1093.14,631.894 1106.5,634C 1111.57,635.406 1115.07,638.572 1117,643.5C 1119.27,653.698 1122.93,663.364 1128,672.5C 1130.22,678.654 1129.88,684.654 1127,690.5C 1116.38,700.493 1106.71,711.159 1098,722.5C 1091.79,728.375 1085.29,733.875 1078.5,739C 1066.8,744.194 1056.13,742.528 1046.5,734C 1038.98,725.977 1030.98,718.477 1022.5,711.5C 1016.76,712.137 1011.1,713.137 1005.5,714.5C 1002.42,719.714 998.083,723.548 992.5,726C 986.667,731.167 980.833,736.333 975,741.5C 971.667,745.5 968.333,749.5 965,753.5C 963.407,759.394 962.573,765.394 962.5,771.5C 963.097,782.186 963.93,792.852 965,803.5C 968.379,820.348 972.379,837.014 977,853.5C 978.422,859.763 977.255,865.429 973.5,870.5C 967.262,876.24 960.595,881.407 953.5,886C 942.24,889.377 931.073,889.21 920,885.5C 918.167,886.667 916.333,887.833 914.5,889C 913.547,890.955 912.213,892.622 910.5,894C 907.53,895.153 904.863,896.82 902.5,899C 905.315,906.017 904.815,912.85 901,919.5C 891.399,933.047 878.899,942.88 863.5,949C 845.508,954.58 828.008,961.413 811,969.5C 802.726,967.405 796.226,962.738 791.5,955.5C 789.825,951.475 787.659,947.808 785,944.5C 772.034,948.867 758.867,952.533 745.5,955.5C 746.439,970.222 750.939,983.888 759,996.5C 760.03,1000.77 760.697,1005.11 761,1009.5C 766.094,1019.36 771.427,1029.03 777,1038.5C 779.651,1043.38 779.984,1048.38 778,1053.5C 775.524,1058.59 772.857,1063.59 770,1068.5C 762.992,1084.87 755.992,1101.2 749,1117.5C 746.5,1121.33 743.333,1124.5 739.5,1127C 735.5,1127.67 731.5,1127.67 727.5,1127C 723.881,1122.93 720.381,1118.76 717,1114.5C 712.283,1102.06 707.283,1089.73 702,1077.5C 698.743,1072.57 695.076,1067.9 691,1063.5C 682.294,1047.25 673.46,1031.09 664.5,1015C 653.96,1007.27 642.96,1000.27 631.5,994C 623.887,992.912 616.554,993.912 609.5,997C 603.245,1001.38 597.078,1005.88 591,1010.5C 584.517,1025.88 574.684,1028.38 561.5,1018C 535.41,990.908 507.743,965.575 478.5,942C 471.283,938.474 464.449,934.307 458,929.5C 456.162,926.963 455.329,924.129 455.5,921C 456.712,904.124 458.378,887.291 460.5,870.5C 458.016,867.516 455.35,864.682 452.5,862C 437.375,863.086 422.209,863.919 407,864.5C 385.97,863.533 364.97,862.2 344,860.5C 329.984,861.169 315.984,862.169 302,863.5C 291.085,863.092 280.252,861.925 269.5,860C 263.836,857.668 260.336,853.501 259,847.5C 258.366,836.058 261.032,825.392 267,815.5C 269.742,811.884 273.242,809.384 277.5,808C 282.833,807.667 288.167,807.333 293.5,807C 298.833,805.333 304.167,803.667 309.5,802C 340.443,787.078 367.443,766.744 390.5,741C 392.332,740.252 393.999,739.252 395.5,738C 390.534,728.353 385.534,718.686 380.5,709C 373.872,709.495 367.205,709.495 360.5,709C 357.333,707.167 354.833,704.667 353,701.5C 348.238,686.719 344.405,671.719 341.5,656.5C 341.594,654.077 342.094,651.744 343,649.5C 349.025,644.641 355.191,639.975 361.5,635.5C 343.762,628.983 325.429,625.817 306.5,626C 303.511,625.67 300.678,624.836 298,623.5C 291.928,624.965 285.762,625.798 279.5,626C 272.346,628.94 265.013,631.274 257.5,633C 241.827,633.305 226.16,632.972 210.5,632C 208.754,631.529 207.087,630.862 205.5,630C 199.28,621.054 193.446,611.887 188,602.5C 182.879,599.047 178.046,595.214 173.5,591C 161.818,591.278 150.152,592.112 138.5,593.5C 129.626,592.291 120.793,592.624 112,594.5C 104.932,594.101 100.599,590.434 99,583.5C 95.8472,560.71 89.8472,538.71 81,517.5C 79.1232,510.944 80.9566,505.777 86.5,502C 104.814,494.56 123.48,487.894 142.5,482C 156.38,476.726 169.713,470.392 182.5,463C 186.084,461.927 189.75,461.26 193.5,461C 220.577,451.197 247.577,441.197 274.5,431C 300.233,425.63 325.566,419.13 350.5,411.5C 353.894,413.444 357.561,414.944 361.5,416C 365.18,420.679 369.514,424.679 374.5,428C 391.466,439.155 408.799,449.822 426.5,460C 443.721,457.786 461.054,456.12 478.5,455C 486.557,454.73 494.557,454.563 502.5,454.5C 514.221,456.387 523.887,461.887 531.5,471C 539.75,474.358 547.75,478.192 555.5,482.5C 568.379,465.244 581.379,448.077 594.5,431C 603.612,422.108 614.279,415.775 626.5,412C 628.813,408.719 631.813,406.219 635.5,404.5C 636.992,406.166 638.825,407.166 641,407.5C 646.163,406.199 651.33,406.199 656.5,407.5C 663.647,406.36 670.814,405.36 678,404.5C 700.059,405.415 722.059,407.082 744,409.5C 748.876,408.925 753.709,408.092 758.5,407C 769.359,400.15 780.692,394.15 792.5,389C 795.5,388.333 798.5,388.333 801.5,389C 814.762,394.506 828.428,395.839 842.5,393C 843.833,392 843.833,391 842.5,390C 836.067,385.899 829.401,382.232 822.5,379C 814.81,377.494 807.143,375.828 799.5,374C 796.971,371.971 794.304,370.138 791.5,368.5C 784.707,372.577 778.04,372.41 771.5,368C 766.644,362.146 761.477,356.646 756,351.5C 751.35,342.704 753.184,335.538 761.5,330C 783.148,317.343 805.481,306.009 828.5,296C 844.43,290.266 860.764,286.599 877.5,285C 880.658,286.15 883.825,287.317 887,288.5C 889.824,287.946 892.657,287.446 895.5,287C 908.418,275.084 921.084,262.751 933.5,250C 935.67,248.414 938.004,247.08 940.5,246C 967.735,238.566 995.402,235.899 1023.5,238C 1025.95,238.725 1028.28,239.725 1030.5,241C 1035.5,247.333 1040.5,253.667 1045.5,260C 1053.68,264.257 1062.01,268.257 1070.5,272C 1081.8,276.896 1093.46,277.896 1105.5,275C 1110.36,274.495 1114.86,272.995 1119,270.5C 1122.48,264.708 1124.98,258.541 1126.5,252C 1125.22,249.266 1124.05,246.433 1123,243.5C 1121.81,235.052 1125.31,229.552 1133.5,227C 1152.98,224.73 1171.98,220.397 1190.5,214C 1211.77,212.309 1232.94,210.143 1254,207.5C 1270.18,206.075 1280.51,213.075 1285,228.5C 1293.22,237.782 1300.22,236.782 1306,225.5C 1307.51,220.644 1306.85,215.978 1304,211.5C 1302.29,205.306 1303.79,200.14 1308.5,196C 1325.32,184.459 1343.99,179.126 1364.5,180C 1360.75,172.462 1362.42,166.462 1369.5,162C 1384.57,158.033 1399.9,155.866 1415.5,155.5C 1433.13,157.439 1450.8,158.939 1468.5,160C 1475.37,161.341 1480.2,165.175 1483,171.5C 1486.8,181.104 1491.14,190.438 1496,199.5C 1499.77,207.458 1501.44,215.792 1501,224.5C 1500.28,226.949 1499.28,229.283 1498,231.5C 1492.67,236.167 1487.33,240.833 1482,245.5C 1480.41,247.67 1479.08,250.004 1478,252.5C 1476.14,262.795 1474.47,273.129 1473,283.5C 1471.45,289.453 1468.28,294.286 1463.5,298C 1459.04,298.576 1454.7,298.076 1450.5,296.5C 1446.29,296.741 1442.29,297.741 1438.5,299.5C 1436.25,301.919 1433.58,303.752 1430.5,305C 1427.3,308.566 1424.47,312.4 1422,316.5C 1418.07,319.883 1414.24,323.383 1410.5,327C 1405.73,329.59 1400.73,331.59 1395.5,333C 1389.56,341.319 1390.56,348.819 1398.5,355.5C 1403.97,357.569 1409.64,358.903 1415.5,359.5C 1427.05,358.278 1438.38,356.111 1449.5,353C 1455.17,348.667 1460.83,344.333 1466.5,340C 1477.45,333.859 1486.78,335.526 1494.5,345C 1503.13,347.054 1509.63,351.887 1514,359.5C 1515.28,372.704 1512.62,385.038 1506,396.5C 1503.71,398.372 1501.21,399.872 1498.5,401C 1490.76,401.381 1483.09,401.047 1475.5,400C 1471.34,408.81 1464.34,413.81 1454.5,415C 1452.3,417.54 1449.8,419.707 1447,421.5C 1444.41,435.729 1448.91,447.229 1460.5,456C 1462.29,456.52 1463.96,456.187 1465.5,455C 1468.56,451.601 1471.89,448.601 1475.5,446C 1479.46,444.337 1483.46,444.17 1487.5,445.5C 1496.87,433.704 1506.54,433.538 1516.5,445C 1522.08,446.815 1527.74,447.815 1533.5,448C 1536.83,447 1540.17,446 1543.5,445C 1556.11,436.722 1568.44,428.056 1580.5,419C 1585.45,416.799 1590.45,416.466 1595.5,418C 1601.09,421.29 1606.09,425.29 1610.5,430C 1619.29,436.236 1628.29,442.236 1637.5,448C 1646.36,455.529 1655.19,463.029 1664,470.5C 1667.09,479.181 1665.42,486.847 1659,493.5C 1658.17,496.172 1657.33,498.839 1656.5,501.5C 1658.88,506.449 1662.38,510.449 1667,513.5C 1669.08,517.336 1671.42,521.003 1674,524.5C 1675.71,528.618 1677.21,532.785 1678.5,537C 1690.51,537.477 1702.51,538.143 1714.5,539C 1724.77,543.054 1735.43,545.054 1746.5,545C 1753.32,547.46 1760.32,548.46 1767.5,548C 1772.5,538.897 1779.33,531.397 1788,525.5C 1787.15,512.961 1782.32,502.127 1773.5,493C 1765.87,491.044 1762.7,486.21 1764,478.5C 1770.35,467.992 1779.68,462.992 1792,463.5C 1796.97,463.573 1801.81,464.073 1806.5,465C 1803.92,462.48 1801.59,459.813 1799.5,457C 1793.98,456.348 1788.48,456.514 1783,457.5C 1780.07,457.225 1777.24,456.559 1774.5,455.5C 1751.2,464.35 1736.86,456.683 1731.5,432.5C 1727.67,430.702 1723.67,429.202 1719.5,428C 1709.79,421.75 1705.62,412.916 1707,401.5C 1710.99,393.861 1713.99,385.861 1716,377.5C 1719.55,369.631 1725.72,365.631 1734.5,365.5C 1742.45,366.391 1750.28,367.725 1758,369.5C 1759.7,368.594 1761.53,368.261 1763.5,368.5C 1763.16,364.869 1763.99,361.536 1766,358.5C 1769.81,355.122 1773.98,352.288 1778.5,350C 1770.43,349.702 1762.43,350.035 1754.5,351C 1747.96,348.479 1741.79,345.313 1736,341.5C 1730.28,345.055 1724.12,346.222 1717.5,345C 1713.24,343.066 1709.24,340.732 1705.5,338C 1691.56,333.465 1677.56,329.131 1663.5,325C 1660.4,323.561 1657.56,321.727 1655,319.5C 1648.82,306.916 1645.82,293.583 1646,279.5C 1639.41,272.462 1638.74,264.796 1644,256.5C 1647.37,253.465 1650.37,250.132 1653,246.5C 1656.62,236.756 1662.12,228.256 1669.5,221C 1672.76,219.142 1676.26,217.975 1680,217.5C 1694.78,219.1 1709.61,219.933 1724.5,220C 1730.19,221.273 1735.86,222.273 1741.5,223C 1749.51,216.313 1755.84,208.313 1760.5,199C 1754.7,189.608 1752.2,179.441 1753,168.5C 1758.22,160.141 1765.05,153.641 1773.5,149C 1779.71,141.125 1787.37,135.125 1796.5,131C 1799.83,130.333 1803.17,130.333 1806.5,131C 1820.52,133.005 1834.52,135.005 1848.5,137C 1869.84,144.669 1891.51,151.336 1913.5,157C 1918.05,158.588 1920.89,161.755 1922,166.5C 1923.67,173.5 1925.33,180.5 1927,187.5C 1931.33,190.167 1935.67,192.833 1940,195.5C 1940.24,192.343 1940.07,189.176 1939.5,186C 1939.83,178.838 1943.49,176.004 1950.5,177.5C 1976.01,175.446 1991.01,161.946 1995.5,137C 1998.34,135.08 2001.34,133.413 2004.5,132C 2015.13,128.673 2025.46,124.839 2035.5,120.5 Z"/></g>
<g><path style="opacity:1" fill="#9c8a5e" d="M 2068.5,198.5 C 2067.79,204.066 2067.13,209.732 2066.5,215.5C 2054.05,222.563 2041.38,229.396 2028.5,236C 2019.17,240.144 2016.01,246.977 2019,256.5C 2019.67,262.5 2019.67,268.5 2019,274.5C 2008.9,280.397 1999.9,287.73 1992,296.5C 1988.74,302.805 1988.74,309.138 1992,315.5C 1994.12,320.242 1996.62,324.742 1999.5,329C 2006.69,332.281 2012.02,330.448 2015.5,323.5C 2016.45,323.013 2017.45,322.68 2018.5,322.5C 2025.09,331.814 2034.09,335.481 2045.5,333.5C 2050.65,334.327 2055.98,334.827 2061.5,335C 2062.07,335.995 2062.73,336.828 2063.5,337.5C 2065.99,343.975 2067.33,350.642 2067.5,357.5C 2064.03,359.808 2060.69,362.308 2057.5,365C 2048.34,369.412 2039.34,374.078 2030.5,379C 2024.46,384.709 2018.13,390.043 2011.5,395C 2002.19,403.465 1995.53,413.632 1991.5,425.5C 1988.58,431.727 1986.92,438.393 1986.5,445.5C 1986.16,450.93 1986.66,456.264 1988,461.5C 1992.73,469.562 1998.23,477.062 2004.5,484C 2012.65,488.772 2021.31,492.272 2030.5,494.5C 2031.21,495.404 2032.21,495.737 2033.5,495.5C 2033.18,499.702 2033.52,503.702 2034.5,507.5C 2035.52,516.043 2039.52,522.877 2046.5,528C 2056.02,532.923 2065.35,538.09 2074.5,543.5C 2076.51,544.924 2078.85,545.59 2081.5,545.5C 2085.91,546.979 2090.58,547.646 2095.5,547.5C 2101.83,547.1 2108.17,546.766 2114.5,546.5C 2121.64,546.464 2128.31,548.131 2134.5,551.5C 2132.38,553.4 2131.05,555.733 2130.5,558.5C 2128.09,562.021 2127.09,566.021 2127.5,570.5C 2127.67,572.833 2127.83,575.167 2128,577.5C 2128.28,578.416 2128.78,579.082 2129.5,579.5C 2129.34,580.873 2129.51,582.207 2130,583.5C 2137.16,596.82 2143.99,610.153 2150.5,623.5C 2151.29,627.88 2152.29,632.214 2153.5,636.5C 2148.74,639.753 2144.41,643.587 2140.5,648C 2135.04,647.971 2129.7,646.971 2124.5,645C 2119.83,640.333 2115.17,635.667 2110.5,631C 2101.81,626.094 2093.48,626.761 2085.5,633C 2081.32,635.696 2077.32,638.53 2073.5,641.5C 2068.82,641.334 2064.15,641.501 2059.5,642C 2058.94,642.383 2058.61,642.883 2058.5,643.5C 2056.26,644.568 2054.43,646.234 2053,648.5C 2052.23,652.594 2052.57,656.594 2054,660.5C 2056.53,665.553 2059.03,670.553 2061.5,675.5C 2061.26,677.898 2061.93,679.898 2063.5,681.5C 2063.72,683.787 2064.39,685.953 2065.5,688C 2065.17,688.5 2064.83,689 2064.5,689.5C 2057.71,686.958 2050.71,686.125 2043.5,687C 2038.17,691 2032.83,695 2027.5,699C 2010.48,699.56 1993.48,699.56 1976.5,699C 1974.06,701.225 1972.39,703.892 1971.5,707C 1973.32,710.45 1975.16,713.95 1977,717.5C 1984.03,720.958 1990.87,724.791 1997.5,729C 1994.04,734.762 1990.2,740.262 1986,745.5C 1983.55,755.012 1982.89,764.679 1984,774.5C 1987.26,782.577 1993.09,788.077 2001.5,791C 2009.24,801.073 2018.58,809.406 2029.5,816C 2041.69,820.129 2053.36,818.962 2064.5,812.5C 2070.69,814.464 2077.02,815.631 2083.5,816C 2086.5,817.667 2089.5,819.333 2092.5,821C 2094.16,822.444 2094.82,824.278 2094.5,826.5C 2095.19,831.805 2095.53,837.138 2095.5,842.5C 2091.96,842.187 2088.62,842.521 2085.5,843.5C 2079.89,845.139 2074.23,846.472 2068.5,847.5C 2061.07,845.791 2053.74,844.125 2046.5,842.5C 2043.5,840.723 2040.16,839.723 2036.5,839.5C 2032.99,838.942 2029.49,838.276 2026,837.5C 2021.72,838.261 2017.55,839.428 2013.5,841C 2004.17,847.227 2002,855.393 2007,865.5C 2014.07,871.979 2019.4,879.646 2023,888.5C 2025.33,890.833 2027.67,893.167 2030,895.5C 2030.49,896.793 2030.66,898.127 2030.5,899.5C 2022.63,901.632 2014.63,903.132 2006.5,904C 2000.01,905.371 1993.68,907.204 1987.5,909.5C 1978.63,899.898 1967.97,893.064 1955.5,889C 1947.06,886.299 1938.56,883.799 1930,881.5C 1925.51,881.272 1923.01,883.438 1922.5,888C 1924.32,895.112 1925.49,902.278 1926,909.5C 1923.1,907.467 1919.94,906.134 1916.5,905.5C 1906.06,903.304 1896.06,904.638 1886.5,909.5C 1878.49,912.227 1870.49,915.061 1862.5,918C 1854.84,924.567 1853.51,932.234 1858.5,941C 1855.47,946.234 1852.3,951.4 1849,956.5C 1847.13,963.871 1848.79,970.204 1854,975.5C 1857.33,978.167 1860.67,980.833 1864,983.5C 1863.78,991.903 1866.95,998.736 1873.5,1004C 1880.33,1008.91 1887.33,1013.58 1894.5,1018C 1903.76,1019.38 1912.76,1021.71 1921.5,1025C 1922.36,1027.87 1924.03,1030.2 1926.5,1032C 1930.97,1034.97 1935.31,1038.14 1939.5,1041.5C 1934.11,1048.38 1928.95,1055.38 1924,1062.5C 1919.87,1063.24 1915.71,1063.74 1911.5,1064C 1890.86,1073.72 1869.2,1077.05 1846.5,1074C 1845.4,1070.04 1843.9,1066.2 1842,1062.5C 1843.21,1050.91 1838.38,1043.24 1827.5,1039.5C 1824.7,1038.36 1821.7,1038.2 1818.5,1039C 1817.94,1039.38 1817.61,1039.88 1817.5,1040.5C 1815.17,1040.83 1813.83,1042.17 1813.5,1044.5C 1806.25,1045.46 1798.92,1045.8 1791.5,1045.5C 1785.19,1044.23 1779.19,1042.06 1773.5,1039C 1768.88,1032.21 1762.88,1027.04 1755.5,1023.5C 1753.03,1019.86 1750.36,1016.36 1747.5,1013C 1739.39,1007.52 1730.39,1004.85 1720.5,1005C 1712.83,1004.33 1705.17,1004.33 1697.5,1005C 1688.04,1007.62 1683.37,1013.79 1683.5,1023.5C 1681.14,1023.66 1678.81,1023.5 1676.5,1023C 1674.84,1021.17 1672.84,1019.84 1670.5,1019C 1661.01,1017.54 1652.34,1019.54 1644.5,1025C 1642.26,1027.49 1640.26,1030.15 1638.5,1033C 1636.09,1033.93 1633.59,1034.43 1631,1034.5C 1624.87,1033.41 1618.7,1032.57 1612.5,1032C 1608.3,1030.32 1603.96,1029.15 1599.5,1028.5C 1594.5,1026.25 1589.17,1024.92 1583.5,1024.5C 1569.88,1020.94 1556.05,1018.61 1542,1017.5C 1536.67,1016.96 1534.5,1013.96 1535.5,1008.5C 1534.8,1003.65 1536.14,999.479 1539.5,996C 1553.01,997.344 1566.34,996.344 1579.5,993C 1587.6,987.897 1594.77,981.73 1601,974.5C 1605.01,968.018 1606.35,961.018 1605,953.5C 1604.12,950.898 1602.62,948.731 1600.5,947C 1594.57,943.535 1588.57,940.368 1582.5,937.5C 1582.78,931.155 1581.78,925.155 1579.5,919.5C 1579.33,918.178 1579.66,917.011 1580.5,916C 1584.67,914.918 1588.67,913.251 1592.5,911C 1596.78,906.721 1601.11,902.387 1605.5,898C 1607.25,897.529 1608.91,896.862 1610.5,896C 1621.08,897.359 1631.74,897.692 1642.5,897C 1651.83,893.332 1659,887.165 1664,878.5C 1668.31,864.737 1671.48,850.737 1673.5,836.5C 1675.18,831.432 1675.84,826.098 1675.5,820.5C 1676.16,819.036 1676.49,817.369 1676.5,815.5C 1676.62,812.514 1675.95,809.848 1674.5,807.5C 1670.47,801.477 1664.8,797.977 1657.5,797C 1635.17,797.402 1612.84,797.402 1590.5,797C 1587.75,796.057 1585.08,795.224 1582.5,794.5C 1577.75,792.969 1572.75,792.302 1567.5,792.5C 1554.46,791.563 1542.96,786.896 1533,778.5C 1524.08,761.656 1515.41,744.656 1507,727.5C 1502.57,720.201 1496.07,716.367 1487.5,716C 1484.34,711.823 1480.17,709.99 1475,710.5C 1466.17,711.116 1457.34,711.616 1448.5,712C 1442.41,713.197 1436.41,714.697 1430.5,716.5C 1414.39,715.379 1398.73,717.046 1383.5,721.5C 1376.59,723.42 1369.59,724.587 1362.5,725C 1357.59,716.307 1353.42,707.141 1350,697.5C 1344.95,690.733 1340.95,683.4 1338,675.5C 1336.5,674 1335,672.5 1333.5,671C 1318.68,663.424 1304.34,655.091 1290.5,646C 1281.83,644.026 1273.16,642.192 1264.5,640.5C 1260.08,639.028 1255.41,638.362 1250.5,638.5C 1240.01,637.67 1229.34,637.17 1218.5,637C 1217.76,635.961 1216.76,635.461 1215.5,635.5C 1205.47,630.203 1195.14,625.37 1184.5,621C 1164.75,608.459 1143.75,598.626 1121.5,591.5C 1119.38,588.689 1116.55,587.022 1113,586.5C 1093.53,590.886 1074.36,596.386 1055.5,603C 1047.41,607.2 1044.41,613.867 1046.5,623C 1045.88,629.595 1047.04,635.761 1050,641.5C 1051.23,643.726 1053.06,645.226 1055.5,646C 1069.44,647.235 1083.11,649.902 1096.5,654C 1098.03,660.663 1099.7,667.33 1101.5,674C 1097.37,677.236 1093.04,680.236 1088.5,683C 1078.3,687.93 1068.3,693.097 1058.5,698.5C 1047.99,695.912 1038.99,690.745 1031.5,683C 1026.52,679.336 1021.19,678.67 1015.5,681C 1001.74,689.763 987.741,698.097 973.5,706C 959.927,717.571 947.76,730.404 937,744.5C 932.531,751.771 928.865,759.438 926,767.5C 927.894,795.891 930.728,824.225 934.5,852.5C 935.067,855.911 933.734,857.911 930.5,858.5C 926.865,859.579 923.199,859.579 919.5,858.5C 915.689,857.355 911.689,857.188 907.5,858C 905.934,858.608 904.6,859.442 903.5,860.5C 891.857,865.302 881.69,872.302 873,881.5C 870.2,888.903 871.367,895.57 876.5,901.5C 861.529,913.326 845.529,923.659 828.5,932.5C 823.13,932.608 817.797,932.275 812.5,931.5C 811.078,931.291 809.745,930.791 808.5,930C 805.734,926.478 802.734,923.145 799.5,920C 794.742,917.856 789.742,917.023 784.5,917.5C 778.834,918.39 773.5,920.057 768.5,922.5C 754.224,926.152 739.891,929.652 725.5,933C 721.471,935.022 718.971,938.188 718,942.5C 713.959,944.723 712.625,948.056 714,952.5C 729.696,982.393 744.196,1012.89 757.5,1044C 750.716,1058.4 744.049,1072.9 737.5,1087.5C 732.022,1071.55 725.189,1056.21 717,1041.5C 701.71,1017.54 684.877,994.708 666.5,973C 662.295,969.711 657.628,967.378 652.5,966C 642.833,965.667 633.167,965.333 623.5,965C 617.649,960.16 610.983,958.16 603.5,959C 598.159,964.175 593.159,969.675 588.5,975.5C 587.635,976.583 586.635,976.749 585.5,976C 573.456,965.621 561.123,955.621 548.5,946C 533.415,937.04 518.249,928.207 503,919.5C 497.036,905.86 494.703,891.527 496,876.5C 494.375,871.288 493.375,865.955 493,860.5C 491.888,857.722 490.055,855.555 487.5,854C 479.31,849.481 471.977,843.814 465.5,837C 460.141,832.927 454.141,831.594 447.5,833C 444.404,835.215 441.071,836.881 437.5,838C 427.658,838.825 417.991,838.658 408.5,837.5C 391.328,836.695 373.994,836.029 356.5,835.5C 341.47,834.084 326.47,834.418 311.5,836.5C 308.636,836.614 305.97,836.114 303.5,835C 329.461,821.021 354.794,806.021 379.5,790C 392.945,779.189 406.112,768.023 419,756.5C 419.667,755.167 420.333,753.833 421,752.5C 421.733,746.174 422.399,739.84 423,733.5C 429.658,724.774 428.991,716.774 421,709.5C 417.621,698.289 410.454,690.956 399.5,687.5C 397.562,685.837 395.228,685.171 392.5,685.5C 388.812,685.219 385.145,684.719 381.5,684C 380.069,683.535 378.903,682.701 378,681.5C 378.929,674.278 378.429,667.111 376.5,660C 376.833,658.833 377.167,657.667 377.5,656.5C 383.652,654.174 389.485,651.174 395,647.5C 401.051,638.071 399.217,630.571 389.5,625C 380.167,620.667 370.833,616.333 361.5,612C 355.731,610.978 350.064,610.145 344.5,609.5C 342.485,608.076 340.152,607.41 337.5,607.5C 317.77,602.816 297.77,601.316 277.5,603C 262.309,605.892 246.975,607.725 231.5,608.5C 228.482,608.704 225.482,609.037 222.5,609.5C 218.12,606.286 214.62,602.286 212,597.5C 207.587,589.005 202.92,580.672 198,572.5C 196.269,570.383 194.102,568.883 191.5,568C 179.037,566.854 166.704,567.521 154.5,570C 142.144,570.957 129.811,571.123 117.5,570.5C 115.529,557.25 115.029,543.917 116,530.5C 139.246,518.257 161.746,504.757 183.5,490C 193.924,485.859 204.591,482.525 215.5,480C 226.015,475.825 236.181,470.992 246,465.5C 256.475,461.731 266.975,458.064 277.5,454.5C 281.915,454.139 285.915,452.806 289.5,450.5C 299.099,448.357 308.765,446.524 318.5,445C 323.235,443.257 327.902,441.423 332.5,439.5C 335.659,438.669 338.659,437.669 341.5,436.5C 345.998,434.723 350.665,434.223 355.5,435C 374.369,455.082 396.036,471.249 420.5,483.5C 422.462,485.017 424.795,485.684 427.5,485.5C 429.369,485.493 431.036,485.16 432.5,484.5C 432.833,484.5 433.167,484.5 433.5,484.5C 436.785,484.072 439.785,483.072 442.5,481.5C 459.548,480.436 476.548,478.936 493.5,477C 498.077,478.644 502.744,479.978 507.5,481C 515.167,486.667 522.833,492.333 530.5,498C 537.989,501.241 544.989,505.241 551.5,510C 556.44,511.041 561.106,510.374 565.5,508C 582.421,489.083 598.588,469.583 614,449.5C 621.52,443.403 628.853,437.07 636,430.5C 636.752,427.622 638.418,425.622 641,424.5C 649.238,425.963 657.405,427.797 665.5,430C 682.181,430.275 698.848,430.775 715.5,431.5C 728.074,434.344 740.74,435.011 753.5,433.5C 760.569,432.644 767.236,430.477 773.5,427C 782.167,421.333 790.833,415.667 799.5,410C 805.516,410.034 811.516,410.534 817.5,411.5C 825.656,412.657 833.99,412.823 842.5,412C 845.522,411.902 848.189,411.068 850.5,409.5C 854.702,408.868 858.702,407.868 862.5,406.5C 869.258,407.749 874.758,405.749 879,400.5C 879.743,397.217 879.076,394.217 877,391.5C 858.847,375.671 838.347,363.838 815.5,356C 808.167,354.667 800.833,353.333 793.5,352C 792.315,350.647 790.981,349.48 789.5,348.5C 810.118,340.358 830.118,330.858 849.5,320C 859.977,319.289 870.31,317.789 880.5,315.5C 887.037,315.414 893.37,314.747 899.5,313.5C 899.833,313.5 900.167,313.5 900.5,313.5C 902.967,313.245 904.967,312.245 906.5,310.5C 909.935,308.947 913.268,307.114 916.5,305C 928.565,293.604 939.898,281.604 950.5,269C 952.345,267.872 954.345,267.372 956.5,267.5C 959.781,267.58 962.781,266.913 965.5,265.5C 976.665,263.996 987.998,262.663 999.5,261.5C 1005.2,261.892 1010.87,262.558 1016.5,263.5C 1024.55,275.055 1034.88,283.889 1047.5,290C 1053.5,293 1059.5,296 1065.5,299C 1071.55,300.462 1077.55,302.129 1083.5,304C 1093.66,305.964 1102.32,303.297 1109.5,296C 1115.55,297.367 1121.21,296.367 1126.5,293C 1137.49,281.346 1144.83,267.68 1148.5,252C 1169.34,250.04 1189.01,244.207 1207.5,234.5C 1214.07,235.984 1220.74,236.651 1227.5,236.5C 1237.83,235.815 1248.17,235.648 1258.5,236C 1264.39,249.552 1274.39,258.552 1288.5,263C 1309.16,263.09 1324.66,254.256 1335,236.5C 1335.21,231.742 1335.38,227.075 1335.5,222.5C 1341.86,219.468 1348.53,217.302 1355.5,216C 1361.66,213.423 1367.33,210.09 1372.5,206C 1383.35,203.146 1391.19,196.646 1396,186.5C 1397.72,184.443 1399.72,182.776 1402,181.5C 1404.16,182.985 1406.32,184.485 1408.5,186C 1423.38,186.843 1438.21,186.343 1453,184.5C 1455.17,184.667 1457.33,184.833 1459.5,185C 1464.19,194.902 1468.53,205.069 1472.5,215.5C 1468.21,220.292 1463.71,224.959 1459,229.5C 1456.97,234.215 1453.97,238.215 1450,241.5C 1449.78,246.915 1449.28,252.248 1448.5,257.5C 1447.51,263.645 1447.18,269.978 1447.5,276.5C 1444.94,276.198 1442.61,276.532 1440.5,277.5C 1425.95,279.78 1414.62,287.113 1406.5,299.5C 1405.31,300.429 1403.98,300.762 1402.5,300.5C 1399.5,300.294 1396.84,300.96 1394.5,302.5C 1386.58,304.23 1378.91,306.73 1371.5,310C 1364.56,316.306 1361.9,324.14 1363.5,333.5C 1363.33,341.507 1363.5,349.507 1364,357.5C 1364.23,358.737 1364.73,359.737 1365.5,360.5C 1366.46,363.757 1367.96,366.757 1370,369.5C 1396.51,388.25 1424.34,390.417 1453.5,376C 1458.14,371.919 1460.3,366.753 1460,360.5C 1460.5,360 1461,359.5 1461.5,359C 1467.29,356.791 1472.96,354.291 1478.5,351.5C 1481.47,356.473 1485.47,360.473 1490.5,363.5C 1490.83,364.833 1491.17,366.167 1491.5,367.5C 1490.66,372.542 1489.66,377.542 1488.5,382.5C 1487.18,382.33 1486.01,382.663 1485,383.5C 1478.63,377.906 1472.8,378.573 1467.5,385.5C 1464.63,386.208 1461.8,386.875 1459,387.5C 1458.33,388.833 1458.33,390.167 1459,391.5C 1460.04,392.373 1460.88,393.373 1461.5,394.5C 1458.68,395.372 1455.68,395.372 1452.5,394.5C 1449.84,394.44 1447.51,395.107 1445.5,396.5C 1432.45,394.776 1422.95,399.776 1417,411.5C 1411.31,425.106 1410.14,439.106 1413.5,453.5C 1413.35,456.716 1414.35,459.383 1416.5,461.5C 1419.77,470.097 1425.44,476.431 1433.5,480.5C 1435.86,482.129 1438.52,483.295 1441.5,484C 1448.01,484.82 1454.35,484.653 1460.5,483.5C 1464.56,482.99 1468.56,482.156 1472.5,481C 1482.81,476.177 1493.15,471.344 1503.5,466.5C 1505.1,468.074 1507.1,468.741 1509.5,468.5C 1524.76,474.179 1540.42,475.679 1556.5,473C 1559.24,471.93 1561.74,470.43 1564,468.5C 1565.5,464.93 1567,461.43 1568.5,458C 1574.85,454.157 1580.85,449.823 1586.5,445C 1604.32,456.439 1621.99,468.439 1639.5,481C 1631.34,494.317 1631.51,507.484 1640,520.5C 1643.67,524.833 1647.33,529.167 1651,533.5C 1653.47,539.915 1656.14,546.248 1659,552.5C 1661.5,555.848 1664.67,558.182 1668.5,559.5C 1669.26,560.268 1670.26,560.768 1671.5,561C 1678.49,561.5 1685.49,561.666 1692.5,561.5C 1698.18,561.743 1703.85,562.243 1709.5,563C 1714.08,565.973 1719.08,567.973 1724.5,569C 1740.83,569.667 1757.17,569.667 1773.5,569C 1779.03,566.478 1783.69,562.811 1787.5,558C 1789.95,557.275 1792.28,556.275 1794.5,555C 1799.67,549.833 1804.83,544.667 1810,539.5C 1812.53,535.716 1814.36,531.716 1815.5,527.5C 1816.16,525.359 1816.5,523.025 1816.5,520.5C 1816.69,516.859 1816.02,513.526 1814.5,510.5C 1811.63,502.429 1807.96,494.762 1803.5,487.5C 1810.83,486.121 1817.33,483.121 1823,478.5C 1823.83,476.5 1824.67,474.5 1825.5,472.5C 1831.07,468.949 1832.91,463.949 1831,457.5C 1825.5,450.667 1820,443.833 1814.5,437C 1812.17,436 1809.83,435 1807.5,434C 1796.33,432.576 1785.17,432.076 1774,432.5C 1768.42,433.104 1762.92,434.104 1757.5,435.5C 1756.23,424.781 1751.23,416.281 1742.5,410C 1738.79,409.154 1735.79,407.321 1733.5,404.5C 1735.58,401.139 1736.91,397.472 1737.5,393.5C 1739.05,392.548 1740.71,392.215 1742.5,392.5C 1744.98,393.164 1747.64,393.497 1750.5,393.5C 1754.47,393.706 1758.14,393.039 1761.5,391.5C 1766.13,389.284 1771.13,388.117 1776.5,388C 1782.46,385.735 1788.46,383.568 1794.5,381.5C 1799.7,365.094 1806.03,349.094 1813.5,333.5C 1815.1,332.713 1815.77,331.38 1815.5,329.5C 1813.19,329.007 1810.86,328.674 1808.5,328.5C 1806.16,326.96 1803.5,326.294 1800.5,326.5C 1789.91,324.825 1779.24,323.658 1768.5,323C 1763.63,318.734 1757.97,316.4 1751.5,316C 1743.92,305.864 1733.92,299.197 1721.5,296C 1716.55,295.058 1711.55,294.558 1706.5,294.5C 1696.93,295.268 1687.43,296.601 1678,298.5C 1676.5,298.167 1675,297.833 1673.5,297.5C 1670.29,287.163 1667.62,276.663 1665.5,266C 1670.52,258.814 1675.18,251.314 1679.5,243.5C 1690.48,243.619 1701.48,243.285 1712.5,242.5C 1720.4,243.279 1728.06,244.945 1735.5,247.5C 1739.17,250.167 1742.83,250.167 1746.5,247.5C 1767.95,237.574 1779.11,220.908 1780,197.5C 1777.59,190.105 1775.09,182.772 1772.5,175.5C 1777.47,174.518 1782.14,172.684 1786.5,170C 1791.26,164.781 1796.26,159.781 1801.5,155C 1807.91,154.678 1814.24,155.345 1820.5,157C 1834.86,156.731 1848.86,158.731 1862.5,163C 1875.53,161.928 1887.86,164.262 1899.5,170C 1900.67,171.167 1901.83,172.333 1903,173.5C 1904.86,180.709 1905.86,188.043 1906,195.5C 1906.84,199.5 1909.01,202.5 1912.5,204.5C 1914.79,206.267 1917.46,207.267 1920.5,207.5C 1922.72,208.688 1925.06,209.688 1927.5,210.5C 1934.61,217.713 1938.77,226.38 1940,236.5C 1946.07,240.324 1949.07,238.657 1949,231.5C 1953.84,227.328 1955.84,221.995 1955,215.5C 1958.81,209.716 1959.31,203.716 1956.5,197.5C 1966.11,195.573 1975.45,192.739 1984.5,189C 1990.93,184.577 1996.76,179.41 2002,173.5C 2006.1,166.293 2009.94,158.959 2013.5,151.5C 2022.93,147.952 2031.93,143.619 2040.5,138.5C 2043.61,143.112 2047.28,147.278 2051.5,151C 2060.74,157.696 2069.24,165.196 2077,173.5C 2077.67,175.167 2077.67,176.833 2077,178.5C 2073.34,184.822 2070.51,191.488 2068.5,198.5 Z"/></g>
<g><path style="opacity:1" fill="#b99f7f" d="M 1955.5,410.5 C 1954.34,437.33 1954.17,464.33 1955,491.5C 1955.2,493.32 1956.03,494.653 1957.5,495.5C 1961.44,503.617 1966.77,510.784 1973.5,517C 1982.96,520.326 1992.3,524.159 2001.5,528.5C 2001.79,537.657 2003.96,546.324 2008,554.5C 2011.57,557.699 2015.4,560.533 2019.5,563C 2025,565.245 2030,568.245 2034.5,572C 2038.28,574.225 2042.28,575.891 2046.5,577C 2062.89,577.136 2079.22,577.969 2095.5,579.5C 2095.5,585.167 2095.5,590.833 2095.5,596.5C 2084.16,596.333 2072.83,596.5 2061.5,597C 2054.31,600.205 2047.64,604.205 2041.5,609C 2036.05,609.101 2030.72,609.768 2025.5,611C 2023.62,612.543 2022.12,614.376 2021,616.5C 2020.5,629.162 2020.33,641.829 2020.5,654.5C 2017.48,654.335 2014.48,654.502 2011.5,655C 2005.96,657.865 2000.96,661.532 1996.5,666C 1979.83,666.333 1963.17,666.667 1946.5,667C 1944.08,667.293 1942.24,668.459 1941,670.5C 1939.35,694.079 1939.02,717.745 1940,741.5C 1941.8,744.927 1943.96,748.094 1946.5,751C 1948.02,752.009 1949.69,752.509 1951.5,752.5C 1951.33,770.17 1951.5,787.836 1952,805.5C 1952.82,807.788 1953.49,810.122 1954,812.5C 1959.82,817.408 1965.82,822.075 1972,826.5C 1972.5,834.827 1972.67,843.16 1972.5,851.5C 1969.48,851.196 1966.48,850.696 1963.5,850C 1940.17,849.333 1916.83,849.333 1893.5,850C 1892.67,850.833 1891.83,851.667 1891,852.5C 1890.5,859.158 1890.33,865.825 1890.5,872.5C 1883.16,872.334 1875.83,872.5 1868.5,873C 1854.88,876.874 1841.54,881.541 1828.5,887C 1827.46,888.918 1826.29,890.751 1825,892.5C 1824.67,899.5 1824.33,906.5 1824,913.5C 1822.31,916.667 1820.48,919.667 1818.5,922.5C 1817.78,922.918 1817.28,923.584 1817,924.5C 1816.33,949.5 1816.33,974.5 1817,999.5C 1817.28,1000.42 1817.78,1001.08 1818.5,1001.5C 1818.39,1003.9 1819.39,1005.74 1821.5,1007C 1816.17,1007.67 1810.83,1007.67 1805.5,1007C 1800.93,1000.21 1794.93,995.041 1787.5,991.5C 1781.6,980.373 1772.27,974.54 1759.5,974C 1728.85,972.474 1698.18,972.141 1667.5,973C 1659.1,973.912 1654.1,978.412 1652.5,986.5C 1647.5,986.5 1642.5,986.5 1637.5,986.5C 1637.5,967.5 1637.5,948.5 1637.5,929.5C 1649.84,929.667 1662.17,929.5 1674.5,929C 1678.32,927.723 1681.99,926.057 1685.5,924C 1687.67,920.5 1690.5,917.667 1694,915.5C 1700.7,896.379 1705.03,876.712 1707,856.5C 1707.67,830.833 1707.67,805.167 1707,779.5C 1706.88,776.068 1705.72,773.068 1703.5,770.5C 1699.2,767.675 1694.53,766.009 1689.5,765.5C 1665.31,764.795 1640.98,764.128 1616.5,763.5C 1598.15,763.437 1581.48,758.27 1566.5,748C 1562.62,742.415 1559.12,736.582 1556,730.5C 1549.76,718.351 1543.76,706.018 1538,693.5C 1533.89,687.379 1528.05,684.213 1520.5,684C 1518.34,682.088 1516.01,680.421 1513.5,679C 1487.83,678.333 1462.17,678.333 1436.5,679C 1424,678.403 1412,680.403 1400.5,685C 1397.12,685.824 1393.78,685.657 1390.5,684.5C 1387.52,678.228 1384.68,671.895 1382,665.5C 1376.79,658.299 1372.46,650.633 1369,642.5C 1367.83,641.333 1366.67,640.167 1365.5,639C 1353.04,633.271 1341.37,626.271 1330.5,618C 1326.95,616.059 1323.29,614.393 1319.5,613C 1311.1,612.054 1302.77,610.721 1294.5,609C 1280.2,607.82 1265.86,607.153 1251.5,607C 1247.89,605.056 1244.56,602.723 1241.5,600C 1228.91,595.873 1217.25,589.873 1206.5,582C 1190.06,573.279 1173.06,565.945 1155.5,560C 1153.69,558.398 1151.69,557.064 1149.5,556C 1124.5,555.333 1099.5,555.333 1074.5,556C 1056.51,560.576 1038.84,565.909 1021.5,572C 1019.38,573.049 1017.72,574.549 1016.5,576.5C 1015.73,577.263 1015.23,578.263 1015,579.5C 1014.5,602.498 1014.33,625.498 1014.5,648.5C 1004.16,648.334 993.828,648.5 983.5,649C 974.827,652.999 966.827,657.999 959.5,664C 952.586,667.125 945.92,670.792 939.5,675C 935.677,680.244 931.011,684.578 925.5,688C 917.622,696.876 910.122,706.043 903,715.5C 900.06,721.046 897.394,726.713 895,732.5C 893.951,763.88 894.451,795.213 896.5,826.5C 888.826,826.334 881.159,826.5 873.5,827C 864.507,831.495 855.84,836.495 847.5,842C 844.739,844.344 842.572,847.178 841,850.5C 840.667,858.167 840.333,865.833 840,873.5C 834.744,877.211 829.578,881.045 824.5,885C 798.476,885.098 772.476,885.765 746.5,887C 729.43,892.465 712.097,897.131 694.5,901C 691.438,902.061 688.938,903.894 687,906.5C 685.76,909.412 684.094,912.079 682,914.5C 681.5,920.825 681.334,927.158 681.5,933.5C 672.827,933.666 664.16,933.5 655.5,933C 651.185,930.227 646.518,928.227 641.5,927C 626.5,926.667 611.5,926.333 596.5,926C 579.465,912.142 560.799,900.808 540.5,892C 534.499,887.161 530.666,880.995 529,873.5C 528.667,864.833 528.333,856.167 528,847.5C 526.091,840.039 524.591,832.539 523.5,825C 512.199,817.358 501.199,809.358 490.5,801C 473.167,800.667 455.833,800.333 438.5,800C 443.353,796.145 447.853,791.978 452,787.5C 453.173,780.563 453.84,773.563 454,766.5C 456.066,763.039 457.566,759.373 458.5,755.5C 459.663,732.004 459.83,708.337 459,684.5C 458.722,683.584 458.222,682.918 457.5,682.5C 453.178,677.406 449.678,671.739 447,665.5C 444.65,663.317 442.483,660.984 440.5,658.5C 437.346,656.974 434.013,656.307 430.5,656.5C 430.667,638.497 430.5,620.497 430,602.5C 427.859,597.692 424.359,594.192 419.5,592C 411.49,588.328 403.49,584.661 395.5,581C 380.35,578.796 365.35,575.796 350.5,572C 316.806,570.324 283.139,570.158 249.5,571.5C 245.965,568.764 243.132,565.431 241,561.5C 237.314,552.623 232.48,544.457 226.5,537C 215.891,535.763 205.225,535.097 194.5,535C 202.635,529.762 210.968,524.762 219.5,520C 239.274,515.41 257.941,508.077 275.5,498C 283.93,495.411 292.264,492.411 300.5,489C 311.494,485.224 322.661,482.057 334,479.5C 335.627,479.625 337.127,480.125 338.5,481C 353.109,495.436 369.776,506.936 388.5,515.5C 388.918,516.222 389.584,516.722 390.5,517C 414.67,517.83 438.67,517.663 462.5,516.5C 467.397,514.856 472.397,514.023 477.5,514C 490.476,525.289 504.81,534.623 520.5,542C 544.833,542.667 569.167,542.667 593.5,542C 599.606,538.062 604.94,533.229 609.5,527.5C 616.696,517.172 624.863,507.505 634,498.5C 638.333,492.5 642.667,486.5 647,480.5C 654.193,475.002 661.026,469.169 667.5,463C 679.591,462.677 691.591,463.677 703.5,466C 730.5,466.667 757.5,466.667 784.5,466C 791.764,464.435 798.764,462.101 805.5,459C 813.029,453.739 820.696,448.739 828.5,444C 842.5,443.667 856.5,443.333 870.5,443C 877.612,441.805 884.612,440.139 891.5,438C 897.204,437.633 902.87,436.966 908.5,436C 909,435.5 909.5,435 910,434.5C 910.667,409.833 910.667,385.167 910,360.5C 906.133,356.154 901.633,352.654 896.5,350C 908.924,346.493 921.591,344.493 934.5,344C 940.764,342.134 946.431,339.134 951.5,335C 962.162,323.005 973.162,311.338 984.5,300C 985.5,299.333 986.5,299.333 987.5,300C 991.5,305.333 996.167,310 1001.5,314C 1006.42,316.128 1011.08,318.795 1015.5,322C 1025.74,327.456 1036.41,331.79 1047.5,335C 1075.83,335.667 1104.17,335.667 1132.5,335C 1135.89,333.311 1138.89,331.144 1141.5,328.5C 1150.31,329.265 1157.81,326.599 1164,320.5C 1170.88,310.394 1175.88,299.394 1179,287.5C 1179.47,286.069 1180.3,284.903 1181.5,284C 1197.27,281.88 1212.6,278.046 1227.5,272.5C 1228.44,272.608 1229.28,272.941 1230,273.5C 1236.18,284.334 1245.35,291.501 1257.5,295C 1278.51,295.833 1299.51,295.666 1320.5,294.5C 1334.95,276.875 1351.95,262.375 1371.5,251C 1385.11,249.863 1397.11,244.863 1407.5,236C 1410.12,235.178 1412.78,234.678 1415.5,234.5C 1415.79,238.106 1415.46,241.606 1414.5,245C 1404.63,246.178 1395.3,249.178 1386.5,254C 1380.33,261.96 1373.66,269.626 1366.5,277C 1355.33,286.833 1344.17,296.667 1333,306.5C 1332.33,332.5 1332.33,358.5 1333,384.5C 1332.73,391.185 1334.56,397.185 1338.5,402.5C 1347.48,408.325 1357.15,412.491 1367.5,415C 1371.82,415.499 1376.15,415.666 1380.5,415.5C 1380.08,438.535 1380.58,461.535 1382,484.5C 1383.89,491.519 1386.56,498.186 1390,504.5C 1394.77,509.136 1400.27,512.636 1406.5,515C 1435.83,515.667 1465.17,515.667 1494.5,515C 1502.68,513.369 1510.34,510.369 1517.5,506C 1541.17,505.667 1564.83,505.333 1588.5,505C 1593.64,502.494 1597.81,503.661 1601,508.5C 1601.33,519.167 1601.67,529.833 1602,540.5C 1603.16,542.285 1603.83,544.285 1604,546.5C 1609.28,554.119 1614.95,561.452 1621,568.5C 1622.7,575.263 1625.36,581.597 1629,587.5C 1631.25,589.377 1633.75,590.877 1636.5,592C 1648.11,593.246 1659.78,593.913 1671.5,594C 1678.98,596.715 1686.65,599.049 1694.5,601C 1730.83,601.667 1767.17,601.667 1803.5,601C 1810.01,599.913 1815.01,596.579 1818.5,591C 1821.92,589.525 1825.25,587.859 1828.5,586C 1833.98,580.854 1839.14,575.354 1844,569.5C 1845.62,565.668 1846.62,561.668 1847,557.5C 1847.33,543.5 1847.67,529.5 1848,515.5C 1849.76,514.056 1851.76,513.056 1854,512.5C 1854.74,507.429 1857.41,503.762 1862,501.5C 1862.33,500.167 1862.67,498.833 1863,497.5C 1863.67,473.833 1863.67,450.167 1863,426.5C 1858.25,420.914 1854.08,414.914 1850.5,408.5C 1845.27,403.34 1838.93,401.007 1831.5,401.5C 1835.25,389.408 1840.09,377.742 1846,366.5C 1846.5,343.836 1846.67,321.169 1846.5,298.5C 1840.05,297.471 1833.72,295.971 1827.5,294C 1818.84,293.239 1810.17,292.572 1801.5,292C 1796.5,287.24 1790.5,284.573 1783.5,284C 1782.62,282.414 1781.62,280.914 1780.5,279.5C 1794.38,271.453 1804.55,260.12 1811,245.5C 1812.13,231.915 1812.97,218.248 1813.5,204.5C 1815.83,203.333 1818.17,202.167 1820.5,201C 1821.79,198.708 1823.46,196.708 1825.5,195C 1834.82,195.017 1844.16,195.35 1853.5,196C 1860.35,198.109 1866.35,201.609 1871.5,206.5C 1873.53,215.103 1875.03,223.77 1876,232.5C 1879.06,236.745 1883.22,238.911 1888.5,239C 1895.25,242.086 1900.42,246.919 1904,253.5C 1905.43,258.718 1906.93,263.884 1908.5,269C 1925.1,270.456 1941.76,270.956 1958.5,270.5C 1958.33,295.169 1958.5,319.836 1959,344.5C 1961.2,350.392 1964.03,355.892 1967.5,361C 1971.38,362.19 1975.38,362.857 1979.5,363C 1977.63,365.209 1975.46,367.042 1973,368.5C 1967.78,376.486 1963.11,384.819 1959,393.5C 1957.62,399.135 1956.45,404.801 1955.5,410.5 Z"/></g>
<g><path style="opacity:1" fill="#64503c" d="M 2068.5,198.5 C 2069.12,204.598 2068.45,210.265 2066.5,215.5C 2067.13,209.732 2067.79,204.066 2068.5,198.5 Z"/></g>
<g><path style="opacity:1" fill="#6b5741" d="M 1912.5,204.5 C 1915.65,204.415 1918.32,205.415 1920.5,207.5C 1917.46,207.267 1914.79,206.267 1912.5,204.5 Z"/></g>
<g><path style="opacity:1" fill="#5d4938" d="M 1735.5,247.5 C 1739.17,247.5 1742.83,247.5 1746.5,247.5C 1742.83,250.167 1739.17,250.167 1735.5,247.5 Z"/></g>
<g><path style="opacity:1" fill="#796649" d="M 965.5,265.5 C 962.781,266.913 959.781,267.58 956.5,267.5C 959.219,266.087 962.219,265.42 965.5,265.5 Z"/></g>
<g><path style="opacity:1" fill="#66533e" d="M 1448.5,257.5 C 1448.5,264.167 1448.5,270.833 1448.5,277.5C 1445.83,277.5 1443.17,277.5 1440.5,277.5C 1442.61,276.532 1444.94,276.198 1447.5,276.5C 1447.18,269.978 1447.51,263.645 1448.5,257.5 Z"/></g>
<g><path style="opacity:1" fill="#64503d" d="M 1402.5,300.5 C 1400.09,301.768 1397.43,302.435 1394.5,302.5C 1396.84,300.96 1399.5,300.294 1402.5,300.5 Z"/></g>
<g><path style="opacity:1" fill="#796649" d="M 906.5,310.5 C 904.967,312.245 902.967,313.245 900.5,313.5C 902.033,311.755 904.033,310.755 906.5,310.5 Z"/></g>
<g><path style="opacity:1" fill="#826f4e" d="M 899.5,313.5 C 893.37,314.747 887.037,315.414 880.5,315.5C 881.609,314.71 882.942,314.21 884.5,314C 889.489,313.501 894.489,313.334 899.5,313.5 Z"/></g>
<g><path style="opacity:1" fill="#7c694b" d="M 1800.5,326.5 C 1803.5,326.294 1806.16,326.96 1808.5,328.5C 1805.57,328.435 1802.91,327.768 1800.5,326.5 Z"/></g>
<g><path style="opacity:1" fill="#746146" d="M 1808.5,328.5 C 1810.86,328.674 1813.19,329.007 1815.5,329.5C 1815.77,331.38 1815.1,332.713 1813.5,333.5C 1813.41,332.504 1813.75,331.671 1814.5,331C 1812.28,330.434 1810.28,329.6 1808.5,328.5 Z"/></g>
<g><path style="opacity:1" fill="#867351" d="M 2063.5,337.5 C 2062.73,336.828 2062.07,335.995 2061.5,335C 2055.98,334.827 2050.65,334.327 2045.5,333.5C 2050.86,333.262 2056.19,333.096 2061.5,333C 2063.04,334.11 2063.7,335.61 2063.5,337.5 Z"/></g>
<g><path style="opacity:1" fill="#857251" d="M 1363.5,333.5 C 1364.28,342.348 1364.95,351.348 1365.5,360.5C 1364.73,359.737 1364.23,358.737 1364,357.5C 1363.5,349.507 1363.33,341.507 1363.5,333.5 Z"/></g>
<g><path style="opacity:1" fill="#826f4e" d="M 1761.5,391.5 C 1758.14,393.039 1754.47,393.706 1750.5,393.5C 1747.64,393.497 1744.98,393.164 1742.5,392.5C 1748.87,392.653 1755.2,392.32 1761.5,391.5 Z"/></g>
<g><path style="opacity:1" fill="#5c4838" d="M 1461.5,394.5 C 1462.04,394.56 1462.38,394.893 1462.5,395.5C 1456.87,396.495 1451.21,396.829 1445.5,396.5C 1447.51,395.107 1449.84,394.44 1452.5,394.5C 1455.68,395.372 1458.68,395.372 1461.5,394.5 Z"/></g>
<g><path style="opacity:1" fill="#7b684b" d="M 862.5,406.5 C 858.702,407.868 854.702,408.868 850.5,409.5C 854.098,407.308 858.098,406.308 862.5,406.5 Z"/></g>
<g><path style="opacity:1" fill="#83704f" d="M 850.5,409.5 C 848.189,411.068 845.522,411.902 842.5,412C 833.99,412.823 825.656,412.657 817.5,411.5C 828.58,411.874 839.58,411.207 850.5,409.5 Z"/></g>
<g><path style="opacity:1" fill="#ab956f" d="M 1955.5,410.5 C 1955.33,437.169 1955.5,463.835 1956,490.5C 1956.61,492.154 1957.11,493.821 1957.5,495.5C 1956.03,494.653 1955.2,493.32 1955,491.5C 1954.17,464.33 1954.34,437.33 1955.5,410.5 Z"/></g>
<g><path style="opacity:1" fill="#5f4b3a" d="M 1991.5,425.5 C 1990.46,432.45 1988.8,439.117 1986.5,445.5C 1986.92,438.393 1988.58,431.727 1991.5,425.5 Z"/></g>
<g><path style="opacity:1" fill="#5f4b39" d="M 715.5,431.5 C 728.118,432.958 740.785,433.625 753.5,433.5C 740.74,435.011 728.074,434.344 715.5,431.5 Z"/></g>
<g><path style="opacity:1" fill="#776348" d="M 341.5,436.5 C 338.659,437.669 335.659,438.669 332.5,439.5C 334.919,437.138 337.919,436.138 341.5,436.5 Z"/></g>
<g><path style="opacity:1" fill="#776348" d="M 289.5,450.5 C 285.915,452.806 281.915,454.139 277.5,454.5C 281.216,452.595 285.216,451.261 289.5,450.5 Z"/></g>
<g><path style="opacity:1" fill="#7c694b" d="M 1413.5,453.5 C 1414.87,455.936 1415.87,458.603 1416.5,461.5C 1414.35,459.383 1413.35,456.716 1413.5,453.5 Z"/></g>
<g><path style="opacity:1" fill="#6a5640" d="M 1503.5,466.5 C 1505.9,466.259 1507.9,466.926 1509.5,468.5C 1507.1,468.741 1505.1,468.074 1503.5,466.5 Z"/></g>
<g><path style="opacity:1" fill="#614d3b" d="M 1433.5,480.5 C 1436.65,480.737 1439.65,481.57 1442.5,483C 1448.49,483.499 1454.49,483.666 1460.5,483.5C 1454.35,484.653 1448.01,484.82 1441.5,484C 1438.52,483.295 1435.86,482.129 1433.5,480.5 Z"/></g>
<g><path style="opacity:1" fill="#6e5b43" d="M 442.5,481.5 C 439.785,483.072 436.785,484.072 433.5,484.5C 436.084,482.528 439.084,481.528 442.5,481.5 Z"/></g>
<g><path style="opacity:1" fill="#6e5a42" d="M 420.5,483.5 C 424.466,484.162 428.466,484.495 432.5,484.5C 431.036,485.16 429.369,485.493 427.5,485.5C 424.795,485.684 422.462,485.017 420.5,483.5 Z"/></g>
<g><path style="opacity:1" fill="#67533f" d="M 2030.5,494.5 C 2031.83,494.5 2033.17,494.5 2034.5,494.5C 2034.5,498.833 2034.5,503.167 2034.5,507.5C 2033.52,503.702 2033.18,499.702 2033.5,495.5C 2032.21,495.737 2031.21,495.404 2030.5,494.5 Z"/></g>
<g><path style="opacity:1" fill="#ae9772" d="M 388.5,515.5 C 413.141,516.462 437.808,516.795 462.5,516.5C 438.67,517.663 414.67,517.83 390.5,517C 389.584,516.722 388.918,516.222 388.5,515.5 Z"/></g>
<g><path style="opacity:1" fill="#7a664a" d="M 1814.5,510.5 C 1816.02,513.526 1816.69,516.859 1816.5,520.5C 1816.5,523.025 1816.16,525.359 1815.5,527.5C 1815.63,521.797 1815.29,516.13 1814.5,510.5 Z"/></g>
<g><path style="opacity:1" fill="#66523e" d="M 2074.5,543.5 C 2077.15,543.41 2079.49,544.076 2081.5,545.5C 2078.85,545.59 2076.51,544.924 2074.5,543.5 Z"/></g>
<g><path style="opacity:1" fill="#756247" d="M 2081.5,545.5 C 2092.66,546.328 2103.66,546.661 2114.5,546.5C 2108.17,546.766 2101.83,547.1 2095.5,547.5C 2090.58,547.646 2085.91,546.979 2081.5,545.5 Z"/></g>
<g><path style="opacity:1" fill="#66523d" d="M 1668.5,559.5 C 1676.65,560.036 1684.65,560.703 1692.5,561.5C 1685.49,561.666 1678.49,561.5 1671.5,561C 1670.26,560.768 1669.26,560.268 1668.5,559.5 Z"/></g>
<g><path style="opacity:1" fill="#5c4738" d="M 2130.5,558.5 C 2128.3,565.379 2127.97,572.379 2129.5,579.5C 2128.78,579.082 2128.28,578.416 2128,577.5C 2127.83,575.167 2127.67,572.833 2127.5,570.5C 2127.09,566.021 2128.09,562.021 2130.5,558.5 Z"/></g>
<g><path style="opacity:1" fill="#aa946d" d="M 1016.5,576.5 C 1015.87,600.647 1015.21,624.647 1014.5,648.5C 1014.33,625.498 1014.5,602.498 1015,579.5C 1015.23,578.263 1015.73,577.263 1016.5,576.5 Z"/></g>
<g><path style="opacity:1" fill="#746146" d="M 337.5,607.5 C 340.152,607.41 342.485,608.076 344.5,609.5C 341.848,609.59 339.515,608.924 337.5,607.5 Z"/></g>
<g><path style="opacity:1" fill="#68543f" d="M 231.5,608.5 C 228.591,610.287 225.591,610.621 222.5,609.5C 225.482,609.037 228.482,608.704 231.5,608.5 Z"/></g>
<g><path style="opacity:1" fill="#816e4e" d="M 2150.5,623.5 C 2152.2,626.92 2153.53,630.587 2154.5,634.5C 2154.46,635.416 2154.12,636.083 2153.5,636.5C 2152.29,632.214 2151.29,627.88 2150.5,623.5 Z"/></g>
<g><path style="opacity:1" fill="#897753" d="M 1215.5,635.5 C 1216.76,635.461 1217.76,635.961 1218.5,637C 1229.34,637.17 1240.01,637.67 1250.5,638.5C 1250.17,638.5 1249.83,638.5 1249.5,638.5C 1238.83,638.667 1228.16,638.5 1217.5,638C 1216.62,637.292 1215.95,636.458 1215.5,635.5 Z"/></g>
<g><path style="opacity:1" fill="#736046" d="M 1249.5,638.5 C 1249.83,638.5 1250.17,638.5 1250.5,638.5C 1255.41,638.362 1260.08,639.028 1264.5,640.5C 1259.29,640.392 1254.29,639.725 1249.5,638.5 Z"/></g>
<g><path style="opacity:1" fill="#67543f" d="M 2073.5,641.5 C 2068.64,642.266 2063.64,642.932 2058.5,643.5C 2058.61,642.883 2058.94,642.383 2059.5,642C 2064.15,641.501 2068.82,641.334 2073.5,641.5 Z"/></g>
<g><path style="opacity:1" fill="#786549" d="M 2061.5,675.5 C 2063.07,677.102 2063.74,679.102 2063.5,681.5C 2061.93,679.898 2061.26,677.898 2061.5,675.5 Z"/></g>
<g><path style="opacity:1" fill="#7d6a4c" d="M 392.5,685.5 C 395.228,685.171 397.562,685.837 399.5,687.5C 396.933,687.279 394.599,686.612 392.5,685.5 Z"/></g>
<g><path style="opacity:1" fill="#ad9772" d="M 457.5,682.5 C 458.222,682.918 458.722,683.584 459,684.5C 459.83,708.337 459.663,732.004 458.5,755.5C 458.794,731.141 458.461,706.807 457.5,682.5 Z"/></g>
<g><path style="opacity:1" fill="#64503d" d="M 1430.5,716.5 C 1422.68,717.329 1414.68,717.829 1406.5,718C 1398.93,719.881 1391.26,721.048 1383.5,721.5C 1398.73,717.046 1414.39,715.379 1430.5,716.5 Z"/></g>
<g><path style="opacity:1" fill="#a9936c" d="M 1616.5,763.5 C 1640.98,764.128 1665.31,764.795 1689.5,765.5C 1666.16,765.667 1642.83,765.5 1619.5,765C 1618.26,764.768 1617.26,764.268 1616.5,763.5 Z"/></g>
<g><path style="opacity:1" fill="#7f6c4d" d="M 1567.5,792.5 C 1572.75,792.302 1577.75,792.969 1582.5,794.5C 1577.25,794.698 1572.25,794.031 1567.5,792.5 Z"/></g>
<g><path style="opacity:1" fill="#715e45" d="M 1674.5,807.5 C 1675.95,809.848 1676.62,812.514 1676.5,815.5C 1676.49,817.369 1676.16,819.036 1675.5,820.5C 1675.53,816.131 1675.2,811.798 1674.5,807.5 Z"/></g>
<g><path style="opacity:1" fill="#6b5741" d="M 1675.5,820.5 C 1675.84,826.098 1675.18,831.432 1673.5,836.5C 1673.53,830.949 1674.19,825.616 1675.5,820.5 Z"/></g>
<g><path style="opacity:1" fill="#8b7854" d="M 356.5,835.5 C 373.994,836.029 391.328,836.695 408.5,837.5C 393.83,837.667 379.163,837.5 364.5,837C 361.635,836.817 358.969,836.317 356.5,835.5 Z"/></g>
<g><path style="opacity:1" fill="#756247" d="M 2036.5,839.5 C 2040.16,839.723 2043.5,840.723 2046.5,842.5C 2042.84,842.277 2039.5,841.277 2036.5,839.5 Z"/></g>
<g><path style="opacity:1" fill="#6e5a43" d="M 2094.5,826.5 C 2095.29,827.609 2095.79,828.942 2096,830.5C 2096.5,834.821 2096.67,839.154 2096.5,843.5C 2092.83,843.5 2089.17,843.5 2085.5,843.5C 2088.62,842.521 2091.96,842.187 2095.5,842.5C 2095.53,837.138 2095.19,831.805 2094.5,826.5 Z"/></g>
<g><path style="opacity:1" fill="#66523e" d="M 934.5,852.5 C 936.586,856.659 935.252,858.659 930.5,858.5C 933.734,857.911 935.067,855.911 934.5,852.5 Z"/></g>
<g><path style="opacity:1" fill="#614d3b" d="M 919.5,858.5 C 914.012,858.248 908.678,858.915 903.5,860.5C 904.6,859.442 905.934,858.608 907.5,858C 911.689,857.188 915.689,857.355 919.5,858.5 Z"/></g>
<g><path style="opacity:1" fill="#5c4838" d="M 1916.5,905.5 C 1910.82,905.334 1905.16,905.501 1899.5,906C 1895.28,907.684 1890.95,908.851 1886.5,909.5C 1896.06,904.638 1906.06,903.304 1916.5,905.5 Z"/></g>
<g><path style="opacity:1" fill="#64503d" d="M 784.5,917.5 C 779.5,919.943 774.166,921.61 768.5,922.5C 773.5,920.057 778.834,918.39 784.5,917.5 Z"/></g>
<g><path style="opacity:1" fill="#a9946d" d="M 1818.5,922.5 C 1817.18,948.84 1817.18,975.173 1818.5,1001.5C 1817.78,1001.08 1817.28,1000.42 1817,999.5C 1816.33,974.5 1816.33,949.5 1817,924.5C 1817.28,923.584 1817.78,922.918 1818.5,922.5 Z"/></g>
<g><path style="opacity:1" fill="#766347" d="M 812.5,931.5 C 817.797,932.275 823.13,932.608 828.5,932.5C 826.527,933.163 824.361,933.496 822,933.5C 818.523,933.672 815.356,933.006 812.5,931.5 Z"/></g>
<g><path style="opacity:1" fill="#5f4b3a" d="M 1579.5,919.5 C 1581.78,925.155 1582.78,931.155 1582.5,937.5C 1581.78,937.082 1581.28,936.416 1581,935.5C 1580.61,930.146 1580.11,924.812 1579.5,919.5 Z"/></g>
<g><path style="opacity:1" fill="#735f45" d="M 1583.5,1024.5 C 1589.17,1024.92 1594.5,1026.25 1599.5,1028.5C 1593.91,1027.77 1588.57,1026.43 1583.5,1024.5 Z"/></g>
<g><path style="opacity:1" fill="#7b674a" d="M 1827.5,1039.5 C 1824.1,1039.34 1820.76,1039.68 1817.5,1040.5C 1817.61,1039.88 1817.94,1039.38 1818.5,1039C 1821.7,1038.2 1824.7,1038.36 1827.5,1039.5 Z"/></g>
<g><path style="opacity:1" fill="#6d5942" d="M 1813.5,1044.5 C 1810.23,1045.82 1806.57,1046.49 1802.5,1046.5C 1798.65,1046.5 1794.98,1046.17 1791.5,1045.5C 1798.92,1045.8 1806.25,1045.46 1813.5,1044.5 Z"/></g>
</svg>
