<?xml version="1.0" encoding="UTF-8"?>
<!DOCTYPE svg PUBLIC "-//W3C//DTD SVG 1.1//EN" "http://www.w3.org/Graphics/SVG/1.1/DTD/svg11.dtd">
<svg xmlns="http://www.w3.org/2000/svg" version="1.1" width="2296px" height="1221px" style="shape-rendering:geometricPrecision; text-rendering:geometricPrecision; image-rendering:optimizeQuality; fill-rule:evenodd; clip-rule:evenodd" xmlns:xlink="http://www.w3.org/1999/xlink">
<g><path style="opacity:0.983" fill="#48332c" d="M 944.5,577.5 C 959.906,583.199 974.906,590.032 989.5,598C 998.659,605.826 1005.49,615.326 1010,626.5C 1012.39,636.019 1015.39,645.352 1019,654.5C 1022.77,677.152 1019.94,698.986 1010.5,720C 1014.79,725.958 1019.46,731.624 1024.5,737C 1041.16,737.857 1057.83,738.191 1074.5,738C 1086.03,734.2 1097.7,730.867 1109.5,728C 1116.18,726.849 1122.51,727.849 1128.5,731C 1140.67,738.253 1153,745.253 1165.5,752C 1170.3,755.755 1173.46,760.588 1175,766.5C 1176.79,769.295 1178.96,771.795 1181.5,774C 1190.02,779.761 1199.02,784.761 1208.5,789C 1228.83,794.664 1249.16,800.331 1269.5,806C 1283.58,811.471 1297.58,817.138 1311.5,823C 1327.59,827.356 1343.59,832.023 1359.5,837C 1369.5,839.131 1379.5,841.131 1389.5,843C 1393.6,845.467 1397.43,848.301 1401,851.5C 1409.35,864.852 1418.85,877.352 1429.5,889C 1441.06,894.967 1453.06,899.967 1465.5,904C 1473.94,908.765 1478.77,915.931 1480,925.5C 1481.52,947.219 1478.02,968.052 1469.5,988C 1475.5,993 1481.5,998 1487.5,1003C 1493.29,1006.54 1499.46,1007.37 1506,1005.5C 1511.78,1006.62 1517.61,1007.29 1523.5,1007.5C 1546.69,1005.35 1569.69,1006.51 1592.5,1011C 1610.56,1016.7 1627.23,1025.03 1642.5,1036C 1665.93,1052.08 1687.59,1070.41 1707.5,1091C 1717.86,1095.79 1728.52,1099.79 1739.5,1103C 1745,1104.83 1749.5,1107.99 1753,1112.5C 1753.75,1123.27 1754.91,1134.11 1756.5,1145C 1755.88,1152.49 1755.38,1159.99 1755,1167.5C 1753.37,1175.13 1748.87,1180.3 1741.5,1183C 1727.03,1190.07 1712.03,1195.73 1696.5,1200C 1692.67,1201.75 1689.01,1203.75 1685.5,1206C 1681.83,1206.67 1678.17,1206.67 1674.5,1206C 1669.02,1204.4 1663.69,1202.4 1658.5,1200C 1647.42,1198.08 1636.26,1196.91 1625,1196.5C 1614.85,1197.55 1604.68,1197.72 1594.5,1197C 1590.38,1194.55 1586.05,1192.55 1581.5,1191C 1573.28,1185.1 1571.28,1177.44 1575.5,1168C 1563.95,1150.59 1550.95,1134.26 1536.5,1119C 1525.7,1110.38 1513.37,1106.88 1499.5,1108.5C 1487.89,1107.94 1476.55,1109.44 1465.5,1113C 1447.94,1119.61 1430.27,1125.95 1412.5,1132C 1401.17,1138.33 1389.83,1144.67 1378.5,1151C 1371.74,1159.19 1364.74,1167.19 1357.5,1175C 1351.75,1179.18 1345.41,1180.35 1338.5,1178.5C 1335.61,1178.93 1332.78,1179.6 1330,1180.5C 1319.25,1177.38 1308.75,1173.54 1298.5,1169C 1272.17,1165.85 1245.84,1163.18 1219.5,1161C 1213.88,1155.91 1213.05,1150.08 1217,1143.5C 1225.81,1136.89 1232.47,1128.55 1237,1118.5C 1240.04,1110.16 1242.54,1101.66 1244.5,1093C 1241.92,1087.33 1239.75,1081.5 1238,1075.5C 1236.76,1070.06 1236.09,1064.73 1236,1059.5C 1232.18,1055.84 1229.35,1051.51 1227.5,1046.5C 1218.51,1041.76 1209.35,1037.42 1200,1033.5C 1191.28,1035.71 1182.62,1038.04 1174,1040.5C 1170.64,1039.94 1167.31,1039.27 1164,1038.5C 1155.01,1043.6 1145.84,1043.77 1136.5,1039C 1130.56,1035.39 1124.89,1031.39 1119.5,1027C 1109.97,1017.8 1100.8,1008.3 1092,998.5C 1088.83,994.81 1086.16,990.81 1084,986.5C 1082.78,981.102 1084.28,976.602 1088.5,973C 1093.64,971.732 1098.64,970.066 1103.5,968C 1123.4,956.885 1143.73,946.551 1164.5,937C 1170.9,933.265 1176.74,928.765 1182,923.5C 1183.37,921.305 1183.71,918.971 1183,916.5C 1179.13,905.983 1172.97,897.149 1164.5,890C 1158.22,886.054 1152.22,881.721 1146.5,877C 1122.05,865.803 1096.38,859.47 1069.5,858C 1047.65,857.136 1025.81,856.302 1004,855.5C 992.245,862.255 980.745,869.422 969.5,877C 961.586,880.198 955.086,878.364 950,871.5C 947.373,867.081 944.873,862.581 942.5,858C 938.221,856.527 934.221,854.527 930.5,852C 899.5,828.333 868.5,804.667 837.5,781C 832.637,778.934 827.637,777.268 822.5,776C 809.754,775.251 797.421,772.584 785.5,768C 779.636,764.434 777.47,759.267 779,752.5C 788.457,734.631 793.957,715.631 795.5,695.5C 794.749,690.417 793.582,685.417 792,680.5C 785.407,673.582 777.907,667.749 769.5,663C 750.82,653.886 731.82,645.553 712.5,638C 705.186,636.28 697.853,636.28 690.5,638C 681.662,640.502 672.829,643.002 664,645.5C 658.895,645.114 654.562,643.114 651,639.5C 636.421,617.903 619.588,598.069 600.5,580C 581.37,563.873 562.537,547.373 544,530.5C 539.887,523.937 538.887,516.937 541,509.5C 541.934,505.363 543.268,501.363 545,497.5C 550.436,488.398 555.436,479.065 560,469.5C 561.918,453.823 563.918,438.156 566,422.5C 570.949,412.288 577.615,403.288 586,395.5C 588.667,391.5 591.333,387.5 594,383.5C 595.055,375.782 596.388,368.115 598,360.5C 601.216,353.956 605.216,347.956 610,342.5C 611.131,333.876 611.798,325.21 612,316.5C 614.31,309.042 616.477,301.542 618.5,294C 617.356,290.181 615.356,286.848 612.5,284C 602.735,278.439 594.069,271.439 586.5,263C 578.868,259.34 571.202,255.674 563.5,252C 550.656,242.839 541.823,230.672 537,215.5C 537.226,193.704 541.559,172.704 550,152.5C 553.239,147.309 557.906,144.976 564,145.5C 577.898,147.876 591.898,148.876 606,148.5C 625.169,148.095 644.336,147.595 663.5,147C 673.937,146.104 684.27,144.604 694.5,142.5C 697.861,142.112 700.694,143.112 703,145.5C 715.246,138.959 728.079,133.959 741.5,130.5C 746.138,130.986 750.138,132.82 753.5,136C 775.656,138.794 795.656,133.461 813.5,120C 818.187,115.457 822.02,110.291 825,104.5C 825.823,98.3795 825.323,92.3795 823.5,86.5C 816.21,84.622 808.877,82.7887 801.5,81C 791.371,73.7883 789.871,64.9549 797,54.5C 807.75,43.2 820.583,35.0333 835.5,30C 851.151,24.1163 867.151,19.4496 883.5,16C 897.095,10.5243 911.095,6.35766 925.5,3.5C 929.238,3.57913 932.572,4.74579 935.5,7C 942.793,19.0844 949.959,31.251 957,43.5C 961.142,49.9421 966.309,55.4421 972.5,60C 985.64,70.4041 999.307,80.0707 1013.5,89C 1029.18,96.4474 1045.18,103.114 1061.5,109C 1065.5,110.663 1069.16,112.829 1072.5,115.5C 1085.23,130.618 1096.73,146.618 1107,163.5C 1113.07,165.243 1116.74,169.243 1118,175.5C 1118.37,205.561 1115.03,235.228 1108,264.5C 1102.62,278.609 1092.45,283.942 1077.5,280.5C 1069.83,280.978 1062.17,281.478 1054.5,282C 1033.29,285.708 1011.96,288.375 990.5,290C 984.987,291.969 979.321,293.303 973.5,294C 952.143,295.014 930.81,296.348 909.5,298C 902.678,299.052 896.011,300.719 889.5,303C 874.353,308.662 859.186,314.162 844,319.5C 843.318,342.413 846.652,364.746 854,386.5C 879.542,405.404 908.042,414.737 939.5,414.5C 948.681,413.535 957.847,412.535 967,411.5C 978.484,411.217 988.651,414.717 997.5,422C 1011.24,437.534 1027.24,450.201 1045.5,460C 1054.55,461.423 1063.55,463.089 1072.5,465C 1076.39,467.596 1079.22,471.096 1081,475.5C 1084.72,489.698 1089.05,503.698 1094,517.5C 1094.98,522.734 1094.31,527.734 1092,532.5C 1086.95,538.552 1082.28,544.885 1078,551.5C 1069.43,562.797 1060.26,573.631 1050.5,584C 1045.53,587.305 1040.2,588.138 1034.5,586.5C 1022.39,581.612 1010.39,576.445 998.5,571C 992.833,570.333 987.167,570.333 981.5,571C 969.119,573.174 956.786,575.341 944.5,577.5 Z"/></g>
<g><path style="opacity:1" fill="#9c8a5e" d="M 916.5,32.5 C 917.822,32.33 918.989,32.6634 920,33.5C 929.797,54.6259 943.964,72.1259 962.5,86C 974.156,94.4962 986.156,102.496 998.5,110C 1016.92,118.525 1035.58,126.358 1054.5,133.5C 1063.38,149.367 1073.04,164.7 1083.5,179.5C 1079.42,196.902 1075.09,214.236 1070.5,231.5C 1055.09,236.701 1039.76,242.201 1024.5,248C 1013.26,251.644 1001.92,254.977 990.5,258C 985.665,259.914 981.331,262.581 977.5,266C 952.189,268.221 926.856,270.221 901.5,272C 889.018,275.203 876.685,278.87 864.5,283C 845.747,285.511 827.08,288.511 808.5,292C 798.807,294.886 795.641,301.053 799,310.5C 805.187,320.207 810.854,330.207 816,340.5C 817.319,362.44 822.319,383.44 831,403.5C 859.807,428.722 893.473,441.055 932,440.5C 943.799,440.899 955.465,439.899 967,437.5C 969.925,437.523 972.759,438.023 975.5,439C 977.46,441.637 979.46,444.303 981.5,447C 995.119,456.951 1008.45,467.284 1021.5,478C 1032.4,484.076 1043.9,488.576 1056,491.5C 1057.02,496.913 1058.35,502.246 1060,507.5C 1060.67,513.833 1060.67,520.167 1060,526.5C 1057.09,531.129 1053.59,535.296 1049.5,539C 1042.83,543 1036.17,547 1029.5,551C 1026.44,551.458 1023.44,551.124 1020.5,550C 1008.15,545.414 995.488,542.08 982.5,540C 977.167,539.333 971.833,539.333 966.5,540C 962.552,541.138 959.552,543.471 957.5,547C 951.227,548.202 945.227,550.202 939.5,553C 932.5,553.333 925.5,553.667 918.5,554C 908.22,557.728 904.72,564.894 908,575.5C 908.567,585.559 912.401,594.059 919.5,601C 920.833,601.667 922.167,602.333 923.5,603C 928.5,603.333 933.5,603.667 938.5,604C 951.67,608.586 964.337,614.253 976.5,621C 980.273,624.718 983.44,628.884 986,633.5C 990.065,643.69 992.898,654.19 994.5,665C 993.927,673.197 993.093,681.364 992,689.5C 989.219,699.841 986.052,710.008 982.5,720C 982.796,724.889 984.296,729.389 987,733.5C 994.047,741.545 1000.71,749.878 1007,758.5C 1010.73,763.523 1015.73,765.856 1022,765.5C 1040.83,765.431 1059.66,765.097 1078.5,764.5C 1093.3,765.849 1107.96,768.016 1122.5,771C 1131.67,775.418 1140,781.085 1147.5,788C 1152,790.39 1156.67,792.39 1161.5,794C 1179.77,809.094 1200.77,817.761 1224.5,820C 1235.84,825.835 1247.84,829.501 1260.5,831C 1277.39,837.944 1294.39,844.611 1311.5,851C 1334.04,863.626 1358.04,872.292 1383.5,877C 1391.2,888.727 1399.87,899.727 1409.5,910C 1414.67,914.09 1420.34,917.423 1426.5,920C 1435.4,923.371 1444.24,926.871 1453,930.5C 1453.41,948.43 1449.75,965.43 1442,981.5C 1440.6,988.717 1441.93,995.384 1446,1001.5C 1454.32,1011.16 1463.82,1019.33 1474.5,1026C 1484.47,1031.99 1495.13,1033.83 1506.5,1031.5C 1511.72,1032.96 1517.06,1033.63 1522.5,1033.5C 1547.27,1031.13 1571.6,1033.3 1595.5,1040C 1613.45,1048.98 1630.79,1058.98 1647.5,1070C 1663.1,1082.93 1678.1,1096.6 1692.5,1111C 1706.27,1117.7 1720.6,1123.04 1735.5,1127C 1735.96,1127.41 1736.29,1127.91 1736.5,1128.5C 1731.28,1137.5 1728.28,1147.17 1727.5,1157.5C 1720.08,1160.37 1712.75,1163.54 1705.5,1167C 1698.69,1169.62 1691.69,1171.45 1684.5,1172.5C 1668.42,1171.32 1652.42,1169.49 1636.5,1167C 1625.51,1166.5 1614.51,1166.33 1603.5,1166.5C 1604.12,1149.23 1597.78,1135.07 1584.5,1124C 1577.77,1118.94 1570.77,1114.27 1563.5,1110C 1547.29,1091.03 1526.62,1081.7 1501.5,1082C 1462.76,1071.28 1426.43,1076.61 1392.5,1098C 1383.13,1107.7 1374.13,1117.7 1365.5,1128C 1355.29,1134.94 1345.62,1142.61 1336.5,1151C 1334.73,1151.97 1332.89,1152.8 1331,1153.5C 1320.43,1148.97 1309.6,1145.14 1298.5,1142C 1288.27,1139.99 1277.93,1139.15 1267.5,1139.5C 1269.37,1133.42 1271.53,1127.42 1274,1121.5C 1274.91,1116.34 1274.41,1111.34 1272.5,1106.5C 1275.3,1098.56 1274.96,1090.72 1271.5,1083C 1273.61,1078.01 1274.45,1072.84 1274,1067.5C 1266.95,1056.7 1261.61,1045.03 1258,1032.5C 1255,1026.5 1252,1020.5 1249,1014.5C 1246.37,1011.77 1243.21,1009.94 1239.5,1009C 1228.39,1006.37 1217.23,1003.87 1206,1001.5C 1198.35,1002.05 1191.18,1004.22 1184.5,1008C 1179.06,1008.24 1173.72,1009.08 1168.5,1010.5C 1158.68,1003.23 1147.68,998.893 1135.5,997.5C 1133.62,994.787 1131.95,991.953 1130.5,989C 1148.33,979.082 1166.66,969.582 1185.5,960.5C 1195.77,946.732 1206.6,933.398 1218,920.5C 1218.16,918.324 1219,916.491 1220.5,915C 1215.04,900.458 1210.71,885.625 1207.5,870.5C 1180.47,859.484 1153.14,849.317 1125.5,840C 1100.46,830.725 1074.63,825.558 1048,824.5C 1036.7,824.392 1025.53,825.559 1014.5,828C 999.66,828.627 984.826,828.461 970,827.5C 962.447,827.82 954.947,828.32 947.5,829C 920.215,808.717 893.215,788.05 866.5,767C 851.606,756.441 836.439,746.275 821,736.5C 820.867,725.985 821.367,715.485 822.5,705C 822.2,692.028 819.7,679.528 815,667.5C 808.405,657.571 799.905,649.738 789.5,644C 769.535,634.674 749.535,625.341 729.5,616C 716.39,611.985 703.057,608.985 689.5,607C 677.035,602.067 664.368,597.734 651.5,594C 637.695,581.196 624.195,568.029 611,554.5C 601.076,541.905 590.409,529.905 579,518.5C 579.663,506.862 580.663,495.195 582,483.5C 590.209,468.414 597.876,453.081 605,437.5C 610.202,425.358 612.536,412.691 612,399.5C 620.245,386.01 626.578,371.677 631,356.5C 633.971,343.337 634.137,330.17 631.5,317C 633.058,311.053 635.558,305.553 639,300.5C 642.002,285.652 637.502,273.485 625.5,264C 616.628,258.395 608.294,252.061 600.5,245C 593.081,241.083 585.414,237.75 577.5,235C 567.085,229.005 560.418,220.172 557.5,208.5C 560.635,195.765 563.968,183.098 567.5,170.5C 603.156,173.013 638.822,172.847 674.5,170C 683.229,169.537 691.562,167.537 699.5,164C 701.167,163 702.5,161.667 703.5,160C 714.246,158.518 724.746,156.018 735,152.5C 742.899,159.188 752.065,162.188 762.5,161.5C 785.974,161.136 807.308,154.302 826.5,141C 835.232,133.945 842.065,125.445 847,115.5C 852.645,99.0434 850.979,83.3767 842,68.5C 838.902,65.5696 835.402,63.2363 831.5,61.5C 848.404,52.254 866.404,46.0873 885.5,43C 895.74,38.8621 906.074,35.3621 916.5,32.5 Z"/></g>
<g><path style="opacity:1" fill="#b99f7f" d="M 963.5,779.5 C 963.631,780.239 963.464,780.906 963,781.5C 941.833,765 920.667,748.5 899.5,732C 885.27,722.107 870.77,712.607 856,703.5C 855.667,688.5 855.333,673.5 855,658.5C 855.055,641.778 848.555,628.278 835.5,618C 829.165,613.497 822.498,609.497 815.5,606C 795.224,596.022 774.557,587.022 753.5,579C 742.706,577.651 732.04,575.651 721.5,573C 709.835,567.75 697.835,563.417 685.5,560C 664.905,540.408 645.405,519.908 627,498.5C 629.724,491.041 633.057,483.708 637,476.5C 639.486,469.56 641.819,462.56 644,455.5C 644.253,448.124 644.919,440.791 646,433.5C 663.242,405.965 670.575,375.965 668,343.5C 670.767,339.965 672.434,335.965 673,331.5C 673.667,304.167 673.667,276.833 673,249.5C 670.725,242.901 667.225,237.067 662.5,232C 653.263,226.099 644.596,219.432 636.5,212C 633.392,209.894 630.059,208.228 626.5,207C 652.828,205.911 679.161,204.911 705.5,204C 715.414,202.94 725.081,200.94 734.5,198C 735.5,197 736.5,196 737.5,195C 762.167,194.667 786.833,194.333 811.5,194C 872.748,183.764 896.914,147.931 884,86.5C 887.632,84.2226 891.465,83.556 895.5,84.5C 901.503,94.6766 908.837,103.843 917.5,112C 936.181,126.678 956.181,139.345 977.5,150C 990.999,155.79 1004.67,161.123 1018.5,166C 1019.67,167.167 1020.83,168.333 1022,169.5C 1026.16,177.828 1030.83,185.828 1036,193.5C 1036.71,195.367 1036.21,196.867 1034.5,198C 1009.07,208.255 983.068,216.922 956.5,224C 951.003,226.245 946.003,229.245 941.5,233C 917.496,234.513 893.496,236.18 869.5,238C 857.057,240.259 845.057,243.926 833.5,249C 812.724,251.777 792.057,255.111 771.5,259C 768.417,259.786 766.251,261.619 765,264.5C 764.333,290.5 764.333,316.5 765,342.5C 765.438,345.376 766.438,348.043 768,350.5C 773.064,357.903 777.73,365.57 782,373.5C 783.872,393.611 787.872,413.278 794,432.5C 799.548,441.377 807.048,448.21 816.5,453C 837.536,465.259 860.203,472.259 884.5,474C 904.167,474.333 923.833,474.667 943.5,475C 944.361,477.868 946.028,480.202 948.5,482C 958.785,489.284 968.785,496.95 978.5,505C 963.5,505.333 948.5,505.667 933.5,506C 928.436,506.728 924.77,509.395 922.5,514C 916.771,514.432 911.438,516.098 906.5,519C 899.5,519.333 892.5,519.667 885.5,520C 880.212,520.966 876.378,523.799 874,528.5C 873.333,554.167 873.333,579.833 874,605.5C 874.46,615.209 877.127,624.209 882,632.5C 883.833,633.667 885.667,634.833 887.5,636C 893.485,636.799 899.485,637.465 905.5,638C 917.058,642.445 928.392,647.445 939.5,653C 945.929,657.916 950.596,664.083 953.5,671.5C 951.429,675.64 949.929,679.974 949,684.5C 948.333,697.167 948.333,709.833 949,722.5C 960.625,740.248 972.125,758.082 983.5,776C 987.688,778.062 992.021,779.729 996.5,781C 1015.05,781.454 1033.05,784.787 1050.5,791C 1067.48,792.214 1084.48,793.214 1101.5,794C 1107.69,794.627 1113.36,796.627 1118.5,800C 1122.17,803.667 1125.83,807.333 1129.5,811C 1140.68,813.727 1151.68,817.06 1162.5,821C 1176.93,827.255 1191.6,832.922 1206.5,838C 1222.38,843.939 1237.05,851.939 1250.5,862C 1258.54,869.705 1266.87,877.039 1275.5,884C 1298.76,896.966 1323.42,905.966 1349.5,911C 1357.36,923.197 1366.36,934.53 1376.5,945C 1385.87,951.071 1395.87,955.905 1406.5,959.5C 1407.33,981.492 1407.83,1003.49 1408,1025.5C 1408.79,1028.83 1409.96,1032 1411.5,1035C 1421.77,1036.8 1432.1,1038.13 1442.5,1039C 1475.94,1039.63 1508.94,1043.63 1541.5,1051C 1551.28,1055.22 1561.28,1058.89 1571.5,1062C 1578.34,1066.25 1585.34,1070.25 1592.5,1074C 1604.42,1074.85 1615.76,1077.85 1626.5,1083C 1641.15,1092.97 1654.65,1104.47 1667,1117.5C 1675.03,1126.9 1674.2,1135.4 1664.5,1143C 1656.78,1147.69 1648.44,1149.69 1639.5,1149C 1632.09,1146.59 1626.92,1141.76 1624,1134.5C 1623.32,1128.12 1622.32,1121.78 1621,1115.5C 1620.29,1113.92 1619.46,1112.42 1618.5,1111C 1614.01,1108.92 1609.67,1106.59 1605.5,1104C 1602.3,1101.09 1599.96,1097.59 1598.5,1093.5C 1587.67,1087.39 1576.67,1081.55 1565.5,1076C 1552.71,1072.3 1540.04,1068.3 1527.5,1064C 1511.78,1062.04 1496.11,1059.71 1480.5,1057C 1457.33,1056.78 1434.33,1054.78 1411.5,1051C 1406.85,1049.89 1402.35,1048.39 1398,1046.5C 1384.74,1051.03 1371.9,1056.53 1359.5,1063C 1349.11,1072.39 1339.78,1082.72 1331.5,1094C 1325.97,1096.93 1320.97,1100.6 1316.5,1105C 1313.85,1105.5 1311.19,1105.66 1308.5,1105.5C 1308.52,1080.82 1308.02,1056.16 1307,1031.5C 1303.94,1027.43 1301.27,1023.1 1299,1018.5C 1294.95,1004.01 1288.78,990.509 1280.5,978C 1274.91,975.028 1268.91,973.695 1262.5,974C 1256.06,970.11 1249.06,968.11 1241.5,968C 1246.54,962.749 1250.7,956.915 1254,950.5C 1254.83,928.159 1254.67,905.826 1253.5,883.5C 1238.1,871.127 1221.1,861.294 1202.5,854C 1176.25,843.252 1149.25,834.918 1121.5,829C 1115.57,825.079 1110.24,820.412 1105.5,815C 1103.75,814.529 1102.09,813.862 1100.5,813C 1082.14,812.319 1063.81,811.319 1045.5,810C 1034.74,806.3 1023.74,803.633 1012.5,802C 1001.37,799.402 990.375,796.402 979.5,793C 973.708,789.041 968.374,784.541 963.5,779.5 Z"/></g>
<g><path style="opacity:1" fill="#65503e" d="M 944.5,577.5 C 942.192,578.714 939.859,578.714 937.5,577.5C 939.973,576.203 942.307,576.203 944.5,577.5 Z"/></g>
<g><path style="opacity:1" fill="#9f8d62" d="M 963.5,779.5 C 956.433,774.006 951.933,767.006 950,758.5C 954.521,765.557 959.021,772.557 963.5,779.5 Z"/></g>
</svg>
