<?xml version="1.0" encoding="UTF-8"?>
<!DOCTYPE svg PUBLIC "-//W3C//DTD SVG 1.1//EN" "http://www.w3.org/Graphics/SVG/1.1/DTD/svg11.dtd">
<svg xmlns="http://www.w3.org/2000/svg" version="1.1" width="2296px" height="1221px" style="shape-rendering:geometricPrecision; text-rendering:geometricPrecision; image-rendering:optimizeQuality; fill-rule:evenodd; clip-rule:evenodd" xmlns:xlink="http://www.w3.org/1999/xlink">
<g><path style="opacity:0.982" fill="#48332c" d="M 1071.5,304.5 C 1073.53,306.537 1075.2,308.87 1076.5,311.5C 1075.97,313.23 1074.97,314.564 1073.5,315.5C 1072.74,321.681 1069.91,326.681 1065,330.5C 1064.04,333.075 1063.54,335.741 1063.5,338.5C 1066.9,348.222 1069.4,358.222 1071,368.5C 1074.75,376.418 1080.58,382.085 1088.5,385.5C 1094.83,383.38 1101.33,382.047 1108,381.5C 1118.86,383.73 1129.69,386.064 1140.5,388.5C 1151.07,387.233 1161.57,385.566 1172,383.5C 1181.3,382.974 1187.63,386.974 1191,395.5C 1193.44,411.833 1198.11,427.5 1205,442.5C 1206.34,449.388 1205.01,455.722 1201,461.5C 1197.33,465.833 1193.67,470.167 1190,474.5C 1185.4,491.954 1174.24,499.621 1156.5,497.5C 1141.73,498.527 1127.73,502.36 1114.5,509C 1113.3,509.903 1112.47,511.069 1112,512.5C 1110.96,519.125 1110.29,525.792 1110,532.5C 1109.04,536.468 1106.87,539.635 1103.5,542C 1092.57,547.107 1081.07,549.94 1069,550.5C 1065.54,550.733 1062.37,549.899 1059.5,548C 1050.4,538.299 1042.9,527.466 1037,515.5C 1031.74,511.742 1028.24,506.742 1026.5,500.5C 1019.46,498.099 1012.46,495.599 1005.5,493C 987.749,487.609 970.749,489.275 954.5,498C 932.473,520.257 935.473,538.591 963.5,553C 974.922,556.395 986.422,556.895 998,554.5C 1001.32,556.441 1003.15,559.441 1003.5,563.5C 1002.67,565.473 1002.5,567.473 1003,569.5C 1009.58,583.829 1017.08,597.662 1025.5,611C 1038.05,615.064 1050.88,617.897 1064,619.5C 1074.33,616.292 1084.83,613.792 1095.5,612C 1099.59,611.233 1103.59,611.566 1107.5,613C 1120,620.751 1132.34,628.751 1144.5,637C 1154.71,640.845 1164.87,644.678 1175,648.5C 1177.09,647.692 1179.09,646.692 1181,645.5C 1187.08,648.57 1192.91,652.07 1198.5,656C 1202.89,657.181 1207.22,658.514 1211.5,660C 1224.54,672.038 1233.88,686.704 1239.5,704C 1217.96,716.879 1196.96,730.546 1176.5,745C 1171.5,749.333 1166.5,753.667 1161.5,758C 1156.5,763.667 1151.5,769.333 1146.5,775C 1141.46,775.599 1137.13,774.099 1133.5,770.5C 1130.58,761.984 1126.58,753.984 1121.5,746.5C 1119.52,747.383 1117.52,747.217 1115.5,746C 1111.24,743.953 1107.07,741.787 1103,739.5C 1101.07,741.016 1099.91,743.016 1099.5,745.5C 1108.24,759.869 1106.57,773.369 1094.5,786C 1092.04,787.711 1089.38,789.044 1086.5,790C 1080.1,800.849 1071.1,803.849 1059.5,799C 1040.9,787.245 1038.56,789.245 1052.5,805C 1067.78,809.369 1076.12,819.535 1077.5,835.5C 1076.98,838.912 1076.15,842.245 1075,845.5C 1070.02,851.978 1064.86,858.312 1059.5,864.5C 1062.08,869.333 1064.92,874 1068,878.5C 1067.67,880.833 1067.33,883.167 1067,885.5C 1109.37,924.515 1159.54,941.682 1217.5,937C 1223.5,941.667 1229.5,946.333 1235.5,951C 1239.21,954.038 1243.37,956.205 1248,957.5C 1251.89,955.815 1252.55,953.149 1250,949.5C 1247.03,945.026 1243.86,940.693 1240.5,936.5C 1252.96,934.069 1264.63,929.569 1275.5,923C 1276.73,922.221 1277.73,921.221 1278.5,920C 1280.09,914.229 1282.25,908.729 1285,903.5C 1288.86,900.158 1293.36,898.491 1298.5,898.5C 1304.45,898.905 1310.12,900.405 1315.5,903C 1328.51,910.841 1341.85,918.174 1355.5,925C 1360.01,928.005 1362.68,932.172 1363.5,937.5C 1363.39,938.442 1363.06,939.275 1362.5,940C 1368.81,940.847 1375.15,941.513 1381.5,942C 1393.33,943.167 1399.83,949.667 1401,961.5C 1403.65,974.147 1403.98,986.814 1402,999.5C 1400.56,1003.27 1398.06,1006.11 1394.5,1008C 1377.26,1008.98 1360.59,1012.65 1344.5,1019C 1338.51,1024.46 1335.51,1031.3 1335.5,1039.5C 1335.69,1052.87 1340.52,1064.21 1350,1073.5C 1357.58,1081.09 1365.75,1087.92 1374.5,1094C 1383.4,1092.7 1392.4,1091.54 1401.5,1090.5C 1404.92,1090.48 1408.26,1090.98 1411.5,1092C 1418.21,1098.37 1425.21,1104.37 1432.5,1110C 1442.89,1115.86 1453.55,1121.19 1464.5,1126C 1472.49,1128.67 1480.66,1130.5 1489,1131.5C 1502.81,1132.02 1516.64,1132.02 1530.5,1131.5C 1540.33,1132.44 1550.17,1133.44 1560,1134.5C 1576.54,1133.07 1592.38,1128.91 1607.5,1122C 1618.71,1116.15 1630.04,1110.48 1641.5,1105C 1647.33,1102.01 1652.5,1098.17 1657,1093.5C 1659.5,1089.51 1661.16,1085.17 1662,1080.5C 1665.39,1074.7 1670.23,1072.87 1676.5,1075C 1694.64,1083.46 1708.81,1096.3 1719,1113.5C 1720.37,1127.71 1717.04,1140.71 1709,1152.5C 1708.33,1159.5 1708.33,1166.5 1709,1173.5C 1712.33,1180.42 1713.33,1187.75 1712,1195.5C 1710.83,1196.67 1709.67,1197.83 1708.5,1199C 1699.1,1199.97 1689.77,1201.47 1680.5,1203.5C 1673.75,1202.82 1667.08,1201.66 1660.5,1200C 1653.65,1199.7 1646.82,1199.2 1640,1198.5C 1608.57,1202.43 1577.07,1205.77 1545.5,1208.5C 1520.05,1209.64 1494.88,1207.31 1470,1201.5C 1459.41,1204.23 1448.91,1203.9 1438.5,1200.5C 1426.06,1203.43 1413.72,1206.76 1401.5,1210.5C 1393.61,1208.51 1385.61,1207.01 1377.5,1206C 1373.22,1204.53 1369.22,1202.53 1365.5,1200C 1360.83,1198.67 1356.17,1197.33 1351.5,1196C 1337.73,1195.35 1324.07,1195.68 1310.5,1197C 1303.81,1193.99 1297.81,1189.99 1292.5,1185C 1281.96,1185.13 1276.96,1180.13 1277.5,1170C 1274.26,1157.18 1267.93,1146.18 1258.5,1137C 1242.52,1128.84 1226.19,1121.51 1209.5,1115C 1185.73,1110.06 1162.39,1103.56 1139.5,1095.5C 1125.16,1098.45 1111.49,1103.28 1098.5,1110C 1086.8,1115.13 1075.47,1114.46 1064.5,1108C 1063,1106.5 1061.5,1105 1060,1103.5C 1055.06,1094.63 1050.4,1085.63 1046,1076.5C 1045.33,1073.17 1045.33,1069.83 1046,1066.5C 1049.79,1059.14 1052.79,1051.47 1055,1043.5C 1055.67,1038.17 1055.67,1032.83 1055,1027.5C 1040.72,1004.21 1022.55,984.381 1000.5,968C 956.149,946.329 910.816,926.995 864.5,910C 846.92,905.617 829.253,901.617 811.5,898C 786.386,896.874 761.386,898.041 736.5,901.5C 731.626,900.98 727.46,898.98 724,895.5C 715.998,881.329 709.498,866.496 704.5,851C 705.13,848.11 705.963,845.276 707,842.5C 710,838.833 713,835.167 716,831.5C 718.884,825.642 719.218,819.642 717,813.5C 712.189,804.207 708.189,794.54 705,784.5C 699.883,778.176 693.383,773.676 685.5,771C 678.898,768.466 672.231,766.133 665.5,764C 661.58,761.584 659.58,758.084 659.5,753.5C 661.889,742.052 664.723,730.719 668,719.5C 670.562,713.939 674.728,710.106 680.5,708C 695.188,706.164 709.855,704.164 724.5,702C 730.958,700.802 737.291,699.136 743.5,697C 748.492,689.896 749.325,682.396 746,674.5C 735.744,657.235 722.244,642.735 705.5,631C 702.5,628 699.5,625 696.5,622C 694.285,620.956 691.952,620.29 689.5,620C 675.854,618.943 662.188,618.277 648.5,618C 638.433,617.431 629.933,613.597 623,606.5C 621.561,601.264 620.728,595.931 620.5,590.5C 614.439,587.965 608.772,584.631 603.5,580.5C 591.603,566.701 584.603,550.701 582.5,532.5C 573.229,524.09 573.229,515.59 582.5,507C 591.665,501.919 600.665,496.585 609.5,491C 615.583,487.595 621.916,486.929 628.5,489C 633.167,491.667 637.833,494.333 642.5,497C 663.962,496.616 685.295,494.616 706.5,491C 725.27,486.308 743.937,481.308 762.5,476C 779.518,468.842 790.685,456.342 796,438.5C 796.518,434.449 796.184,430.449 795,426.5C 790.895,418.858 787.561,410.858 785,402.5C 776.126,394.311 766.293,387.478 755.5,382C 748.885,377.719 742.552,373.053 736.5,368C 724.539,362.235 712.039,358.069 699,355.5C 684.255,358.391 670.088,362.891 656.5,369C 649.114,370.202 643.281,367.702 639,361.5C 631.055,350.615 624.388,338.949 619,326.5C 618.274,321.761 618.607,317.095 620,312.5C 623.955,306.877 628.288,301.543 633,296.5C 637.503,290.165 641.503,283.498 645,276.5C 645.294,268.152 645.794,259.818 646.5,251.5C 646.194,248.468 645.694,245.468 645,242.5C 638.054,225.942 630.054,209.942 621,194.5C 620.333,190.5 620.333,186.5 621,182.5C 628.922,167.656 636.589,152.656 644,137.5C 648.274,131.28 654.108,127.447 661.5,126C 697.459,122.259 733.459,118.926 769.5,116C 781.498,114 793.498,112 805.5,110C 809,107.833 811.833,105 814,101.5C 813.755,94.5071 810.921,88.6737 805.5,84C 789.998,76.708 773.665,72.708 756.5,72C 751.124,70.4443 747.624,66.9443 746,61.5C 743.95,55.6858 742.117,49.8525 740.5,44C 740.621,38.0888 743.288,33.7555 748.5,31C 760.498,29.8875 772.498,28.5542 784.5,27C 794.261,21.6333 804.594,17.6333 815.5,15C 821.5,12 827.5,9 833.5,6C 841.445,4.86755 849.111,5.86755 856.5,9C 882.181,20.0046 906.514,33.3379 929.5,49C 931.53,50.8962 933.197,53.0629 934.5,55.5C 940.528,56.7419 946.528,56.5753 952.5,55C 960.572,47.9584 969.905,44.2917 980.5,44C 983.102,44.8834 985.269,46.3834 987,48.5C 999.029,72.1963 1017.2,89.363 1041.5,100C 1048.32,99.4399 1055.15,98.6066 1062,97.5C 1066.81,97.4947 1071.31,98.6614 1075.5,101C 1091.8,114.967 1107.13,129.967 1121.5,146C 1130.62,151.31 1139.12,157.477 1147,164.5C 1177.16,158.166 1207.33,151.666 1237.5,145C 1246.76,143.05 1254.6,145.55 1261,152.5C 1270.09,164.349 1279.43,176.016 1289,187.5C 1295.16,193.596 1302.66,196.763 1311.5,197C 1319.82,197.888 1328.15,198.554 1336.5,199C 1342.82,200.328 1348.49,202.995 1353.5,207C 1364.21,224.917 1375.04,242.75 1386,260.5C 1393.84,272.189 1402.18,283.522 1411,294.5C 1411.83,297.172 1412.67,299.839 1413.5,302.5C 1412.73,305.431 1411.73,308.264 1410.5,311C 1415.81,320.02 1414.14,327.353 1405.5,333C 1401.58,334.102 1397.58,334.769 1393.5,335C 1373.98,335.901 1354.48,337.068 1335,338.5C 1317.68,338.506 1310.35,329.839 1313,312.5C 1311.76,307.527 1309.6,303.027 1306.5,299C 1292.16,293.776 1277.5,289.776 1262.5,287C 1258.63,284.298 1255.3,281.131 1252.5,277.5C 1245.3,275.35 1237.97,273.85 1230.5,273C 1227.94,272.315 1226.11,270.815 1225,268.5C 1222.69,274.136 1218.53,277.636 1212.5,279C 1199.99,277.739 1187.66,278.739 1175.5,282C 1169.65,284.191 1165.48,288.024 1163,293.5C 1161.36,295.81 1159.2,297.31 1156.5,298C 1144.53,297.152 1132.53,296.819 1120.5,297C 1109.67,299.17 1099.17,302.336 1089,306.5C 1083.17,305.743 1077.34,305.076 1071.5,304.5 Z"/></g>
<g><path style="opacity:1" fill="#9c8a5e" d="M 853.5,26.5 C 857.062,26.9652 860.395,28.1319 863.5,30C 872.003,35.0838 880.336,40.4171 888.5,46C 891.08,50.584 894.413,54.584 898.5,58C 908.687,62.7523 917.354,69.419 924.5,78C 929.749,81.6382 935.582,83.4715 942,83.5C 949.857,82.4935 957.691,81.6601 965.5,81C 976.35,93.3499 988.016,104.85 1000.5,115.5C 1001.87,121.033 1005.2,124.867 1010.5,127C 1026.41,126.751 1042.08,124.584 1057.5,120.5C 1059.3,120.577 1060.97,121.077 1062.5,122C 1083.54,142.039 1103.54,163.039 1122.5,185C 1128.82,188.832 1135.48,189.498 1142.5,187C 1146.77,184.619 1150.93,182.119 1155,179.5C 1181.8,184.272 1208.3,182.772 1234.5,175C 1236.83,174.333 1239.17,174.333 1241.5,175C 1249.36,183.891 1256.86,193.058 1264,202.5C 1275.63,217.064 1290.79,224.898 1309.5,226C 1317.5,226.333 1325.5,226.667 1333.5,227C 1346.96,249.432 1361.3,271.266 1376.5,292.5C 1374.75,293.395 1372.92,294.062 1371,294.5C 1352.98,291.164 1336.48,284.33 1321.5,274C 1315.64,271.601 1309.64,269.601 1303.5,268C 1295.77,262.971 1287.44,259.304 1278.5,257C 1264.76,255.48 1251.09,253.48 1237.5,251C 1235.24,244.908 1230.91,242.575 1224.5,244C 1218.31,246.929 1212.31,250.096 1206.5,253.5C 1198.86,252.731 1191.2,252.231 1183.5,252C 1181.34,246.85 1179.17,241.684 1177,236.5C 1171.15,228.664 1164.48,227.664 1157,233.5C 1153.33,243.5 1149.67,253.5 1146,263.5C 1143.83,265.667 1141.67,267.833 1139.5,270C 1119.69,267.954 1101.02,271.621 1083.5,281C 1079.7,283.614 1077.37,287.114 1076.5,291.5C 1067.29,287.483 1057.79,284.15 1048,281.5C 1041.76,282.981 1040.09,286.648 1043,292.5C 1047.91,299.137 1053.41,305.304 1059.5,311C 1046.32,319.2 1041.16,331.034 1044,346.5C 1046.6,356.367 1048.6,366.367 1050,376.5C 1054.15,385.296 1059.65,393.13 1066.5,400C 1074.37,406.512 1083.37,409.178 1093.5,408C 1098.7,405.987 1104.04,404.487 1109.5,403.5C 1118.51,405.893 1127.51,408.393 1136.5,411C 1146.37,412.191 1156.04,411.357 1165.5,408.5C 1169.27,421.153 1173.27,433.819 1177.5,446.5C 1172.77,451.062 1168.6,456.062 1165,461.5C 1163.86,464.096 1163.03,466.763 1162.5,469.5C 1141.57,469.816 1121.9,474.982 1103.5,485C 1099.37,488.131 1095.53,491.631 1092,495.5C 1088.33,501.326 1084.5,506.993 1080.5,512.5C 1073.43,505.93 1065.93,499.93 1058,494.5C 1057.71,487.252 1054.38,481.918 1048,478.5C 1046.04,474.417 1042.87,471.584 1038.5,470C 1016.78,464.361 994.784,463.027 972.5,466C 943.247,470.938 922.414,486.772 910,513.5C 907.978,523.418 910.312,532.085 917,539.5C 933.764,555.637 953.264,567.303 975.5,574.5C 978.801,584.244 982.968,593.577 988,602.5C 993.064,609.903 997.73,617.57 1002,625.5C 1009.09,634.133 1018.25,639.299 1029.5,641C 1042.1,643.848 1054.77,644.181 1067.5,642C 1077.93,638.243 1088.6,635.41 1099.5,633.5C 1114.63,642.802 1129.63,652.302 1144.5,662C 1161.81,668.27 1179.14,674.437 1196.5,680.5C 1198.22,688.763 1198.72,697.096 1198,705.5C 1188.5,711.667 1179,717.833 1169.5,724C 1156.01,726.497 1142.51,728.997 1129,731.5C 1127.5,731 1126,730.5 1124.5,730C 1119.61,725.304 1114.11,721.471 1108,718.5C 1107.61,719.428 1106.95,720.095 1106,720.5C 1102.26,717.759 1098.09,716.925 1093.5,718C 1088.56,723.678 1087.22,730.178 1089.5,737.5C 1087.17,737.5 1084.83,737.5 1082.5,737.5C 1082.29,741.092 1081.62,744.592 1080.5,748C 1082.2,753.753 1083.04,759.586 1083,765.5C 1082.26,767.221 1081.43,768.887 1080.5,770.5C 1075.56,772.945 1071.4,776.278 1068,780.5C 1062.95,776.78 1057.45,773.947 1051.5,772C 1044.17,771.333 1036.83,771.333 1029.5,772C 1026.23,772.936 1023.9,774.936 1022.5,778C 1028.92,791.253 1033.75,805.086 1037,819.5C 1041.11,825.883 1044.27,832.716 1046.5,840C 1043.38,844.121 1039.88,847.954 1036,851.5C 1030.82,860.566 1029.49,870.233 1032,880.5C 1037.13,893.272 1044.63,904.438 1054.5,914C 1099.16,954.688 1151.83,971.688 1212.5,965C 1233.18,971.002 1253.35,978.169 1273,986.5C 1276.74,986.262 1278.57,984.262 1278.5,980.5C 1275.55,973.273 1272.05,966.273 1268,959.5C 1267.33,958.167 1267.33,956.833 1268,955.5C 1276.2,951.985 1284.03,947.818 1291.5,943C 1296.04,938.291 1300.71,933.791 1305.5,929.5C 1311.11,931.941 1315.28,935.941 1318,941.5C 1325.69,949.429 1334.86,954.929 1345.5,958C 1350.36,964.097 1356.7,966.931 1364.5,966.5C 1370.02,966.324 1375.35,965.324 1380.5,963.5C 1381.94,972.116 1382.94,980.783 1383.5,989.5C 1369.09,989.82 1355.09,992.32 1341.5,997C 1318.51,1006.81 1309.01,1023.98 1313,1048.5C 1314.07,1056.1 1316.07,1063.43 1319,1070.5C 1326.73,1081.23 1334.06,1092.23 1341,1103.5C 1343.54,1106.37 1346.37,1108.87 1349.5,1111C 1359.46,1113.48 1369.13,1116.81 1378.5,1121C 1386.83,1121.33 1395.17,1121.67 1403.5,1122C 1406.62,1123.06 1409.62,1124.39 1412.5,1126C 1420,1131.25 1427.66,1136.25 1435.5,1141C 1449.67,1144.38 1463.67,1148.38 1477.5,1153C 1492.01,1152.7 1506.34,1154.03 1520.5,1157C 1540.18,1157.1 1559.85,1157.27 1579.5,1157.5C 1589.72,1156.85 1599.72,1155.02 1609.5,1152C 1617.21,1148.31 1623.54,1142.98 1628.5,1136C 1631.83,1134.67 1635.17,1133.33 1638.5,1132C 1652.94,1124.03 1667.44,1116.2 1682,1108.5C 1685.85,1112.01 1689.35,1115.85 1692.5,1120C 1687.34,1128.42 1685.01,1137.59 1685.5,1147.5C 1686.17,1160.27 1687.51,1172.94 1689.5,1185.5C 1686.53,1186 1683.53,1186.33 1680.5,1186.5C 1662.22,1184.27 1643.89,1182.6 1625.5,1181.5C 1588.63,1183.94 1551.79,1186.6 1515,1189.5C 1502.55,1186.8 1490.05,1184.3 1477.5,1182C 1466.25,1180.14 1454.91,1179.14 1443.5,1179C 1438.33,1175.91 1433.33,1172.58 1428.5,1169C 1422.26,1164.8 1415.59,1163.8 1408.5,1166C 1402.02,1170.98 1395.69,1176.14 1389.5,1181.5C 1381.85,1179.84 1375.18,1176.34 1369.5,1171C 1365.73,1168.78 1361.73,1167.11 1357.5,1166C 1344.63,1163.89 1331.96,1160.89 1319.5,1157C 1312.89,1155.79 1306.22,1155.29 1299.5,1155.5C 1299.66,1153.47 1299.5,1151.47 1299,1149.5C 1290.22,1131.05 1278.05,1115.22 1262.5,1102C 1249.36,1092.87 1235.69,1084.54 1221.5,1077C 1207.36,1070.84 1192.7,1066.51 1177.5,1064C 1167.8,1063.35 1158.14,1063.69 1148.5,1065C 1131.44,1068.16 1114.27,1070.66 1097,1072.5C 1093.63,1071.47 1090.46,1069.97 1087.5,1068C 1086.06,1066.87 1085.39,1065.37 1085.5,1063.5C 1088.16,1054.33 1088.99,1044.99 1088,1035.5C 1085.82,1028 1081.99,1021.5 1076.5,1016C 1074.98,1014.99 1073.31,1014.49 1071.5,1014.5C 1068.43,999.527 1061.1,987.027 1049.5,977C 1033.59,965.763 1018.26,953.763 1003.5,941C 975.882,922.693 946.215,908.359 914.5,898C 896.541,891.125 878.208,885.458 859.5,881C 835.305,876.189 811.305,870.523 787.5,864C 771.181,861.301 754.847,859.801 738.5,859.5C 736.445,857.445 734.779,855.112 733.5,852.5C 741.079,845.008 746.913,836.341 751,826.5C 751.667,822.5 751.667,818.5 751,814.5C 747.379,802.617 742.045,791.617 735,781.5C 723.831,768.655 710.665,758.488 695.5,751C 691.979,749.326 688.313,748.16 684.5,747.5C 685.006,741.134 686.34,734.967 688.5,729C 707.123,726.303 725.29,721.803 743,715.5C 749.467,718.448 755.634,717.948 761.5,714C 770.746,701.519 773.913,687.686 771,672.5C 767.319,663.809 763.652,655.142 760,646.5C 752.871,637.037 744.704,628.537 735.5,621C 726.473,614.818 717.806,608.151 709.5,601C 704.773,598.467 699.773,596.801 694.5,596C 681.3,595.422 668.133,595.922 655,597.5C 651.43,597.456 647.93,596.956 644.5,596C 640.774,582.048 634.274,569.548 625,558.5C 625.281,549.159 623.781,540.159 620.5,531.5C 626.363,530.879 631.696,528.879 636.5,525.5C 641.311,527.453 646.311,528.619 651.5,529C 681.327,530.723 710.66,527.723 739.5,520C 764.592,511.459 787.258,498.793 807.5,482C 816.921,471.764 822.088,459.597 823,445.5C 824.608,425.264 819.941,406.597 809,389.5C 801.363,376.524 792.196,364.69 781.5,354C 761.058,339.847 738.391,331.181 713.5,328C 699.484,329 685.484,328.666 671.5,327C 668.706,321.91 665.54,317.077 662,312.5C 661.333,311.167 661.333,309.833 662,308.5C 668.604,292.957 674.937,277.29 681,261.5C 684.701,250.35 685.368,239.016 683,227.5C 678.461,208.09 669.961,190.756 657.5,175.5C 659.984,167.698 663.651,160.531 668.5,154C 705.542,150.411 742.542,146.411 779.5,142C 790.504,139.827 800.504,135.494 809.5,129C 823.168,127.341 832.001,119.841 836,106.5C 841.557,88.5994 837.39,73.4328 823.5,61C 816.724,56.2789 809.391,52.6122 801.5,50C 816.13,45.1889 830.463,39.5222 844.5,33C 847.921,31.3015 850.921,29.1348 853.5,26.5 Z"/></g>
<g><path style="opacity:1" fill="#b99f7f" d="M 871.5,96.5 C 878.784,99.47 884.451,104.303 888.5,111C 890.67,112.586 893.004,113.92 895.5,115C 907.763,116.273 920.097,116.94 932.5,117C 943.034,129.201 954.534,140.368 967,150.5C 967.73,155.155 970.23,158.321 974.5,160C 994.167,160.333 1013.83,160.667 1033.5,161C 1052.1,179.239 1069.76,198.239 1086.5,218C 1088.89,219.861 1091.55,221.194 1094.5,222C 1101.19,222.169 1107.86,222.669 1114.5,223.5C 1112.14,228.365 1108.81,232.532 1104.5,236C 1084.23,234.519 1065.23,238.519 1047.5,248C 1034.83,248.333 1022.17,248.667 1009.5,249C 1008.87,249.75 1008.37,250.584 1008,251.5C 1007.33,275.833 1007.33,300.167 1008,324.5C 1009.31,341.409 1009.97,358.409 1010,375.5C 1010.44,381.374 1011.77,387.04 1014,392.5C 1032.64,408.813 1052.14,423.98 1072.5,438C 1079.67,441.721 1087,445.054 1094.5,448C 1098.7,451.523 1098.37,454.523 1093.5,457C 1073.67,458.167 1056.33,452.167 1041.5,439C 1036.17,436.333 1030.83,433.667 1025.5,431C 997.141,430.079 968.808,430.413 940.5,432C 909.766,436.088 888.266,452.255 876,480.5C 875.333,506.5 875.333,532.5 876,558.5C 876.188,562.877 877.521,566.877 880,570.5C 897.366,588.518 918.033,601.185 942,608.5C 943.937,614.976 946.27,621.309 949,627.5C 954.366,636.853 959.699,646.187 965,655.5C 972.3,666.913 982.8,673.413 996.5,675C 1024.81,676.264 1053.14,676.931 1081.5,677C 1084.17,679 1086.83,681 1089.5,683C 1079.12,683.19 1068.79,683.69 1058.5,684.5C 1057.42,685.665 1056.58,686.998 1056,688.5C 1055.67,693.167 1055.33,697.833 1055,702.5C 1053.3,703.406 1051.47,703.739 1049.5,703.5C 1049.74,706.226 1048.9,708.559 1047,710.5C 1046.82,719.411 1046.32,728.245 1045.5,737C 1029.17,737.333 1012.83,737.667 996.5,738C 993.452,738.606 990.952,740.106 989,742.5C 988.333,766.167 988.333,789.833 989,813.5C 991.472,819.915 994.138,826.248 997,832.5C 997.333,847.5 997.667,862.5 998,877.5C 1007.8,886.303 1017.3,895.47 1026.5,905C 1045.58,919.724 1063.25,936.057 1079.5,954C 1091.12,960.618 1100.45,969.618 1107.5,981C 1115.84,986.505 1124.51,991.505 1133.5,996C 1149.53,996.823 1165.53,997.823 1181.5,999C 1197.73,1004.81 1214.06,1010.48 1230.5,1016C 1232.5,1017.33 1234.5,1018.67 1236.5,1020C 1250.5,1020.5 1264.5,1020.67 1278.5,1020.5C 1278.5,1024.5 1278.5,1028.5 1278.5,1032.5C 1285.98,1032.98 1290.32,1036.98 1291.5,1044.5C 1291.56,1046.48 1290.9,1048.15 1289.5,1049.5C 1292.73,1056.95 1296.23,1064.29 1300,1071.5C 1314.15,1087.63 1325.65,1105.46 1334.5,1125C 1349.79,1125.95 1364.29,1129.78 1378,1136.5C 1379.27,1140.17 1378.1,1142.67 1374.5,1144C 1365.2,1145.19 1356.2,1144.03 1347.5,1140.5C 1342.46,1145.63 1337.13,1145.8 1331.5,1141C 1323,1131.83 1314.5,1122.67 1306,1113.5C 1300.27,1104.76 1294.94,1095.76 1290,1086.5C 1285.67,1081.5 1281.33,1076.5 1277,1071.5C 1271.71,1063.08 1266.54,1054.58 1261.5,1046C 1247.48,1040.21 1233.15,1035.21 1218.5,1031C 1193.5,1030.33 1168.5,1030.33 1143.5,1031C 1136.26,1033.8 1128.93,1034.14 1121.5,1032C 1112.61,1022.39 1106.78,1011.23 1104,998.5C 1097.24,993.742 1091.07,988.242 1085.5,982C 1079.12,976.615 1072.45,971.615 1065.5,967C 1058.3,958.287 1050.63,949.954 1042.5,942C 1030.5,932.333 1018.5,922.667 1006.5,913C 992.833,898 978.5,883.667 963.5,870C 926.931,855.477 889.264,844.811 850.5,838C 829.357,831.336 807.69,827.503 785.5,826.5C 785.888,810.128 785.388,793.795 784,777.5C 780.703,768.907 776.87,760.574 772.5,752.5C 779.581,751.929 786.581,751.095 793.5,750C 798.782,743.602 802.615,736.435 805,728.5C 805.667,698.833 805.667,669.167 805,639.5C 801.925,631.024 798.592,622.691 795,614.5C 785.456,600.623 773.623,589.123 759.5,580C 751.178,569.839 740.511,563.839 727.5,562C 769.173,559.349 806.173,545.015 838.5,519C 848.879,509.901 854.712,498.401 856,484.5C 856.667,452.5 856.667,420.5 856,388.5C 848.388,360.923 834.222,337.423 813.5,318C 783.228,299.139 750.228,291.139 714.5,294C 716.074,292.174 716.907,290.007 717,287.5C 717.667,256.5 717.667,225.5 717,194.5C 716.625,192 715.792,189.667 714.5,187.5C 748.465,183.006 782.465,178.839 816.5,175C 821.772,173.131 827.106,171.465 832.5,170C 836.336,167.916 840.003,165.583 843.5,163C 852.643,162.681 859.809,158.848 865,151.5C 867.455,146.681 869.455,141.681 871,136.5C 871.5,123.171 871.667,109.837 871.5,96.5 Z"/></g>
<g><path style="opacity:0.91" fill="#97845d" d="M 1071.5,304.5 C 1070.24,304.539 1069.24,304.039 1068.5,303C 1070,302.415 1071,302.915 1071.5,304.5 Z"/></g>
</svg>
