<?xml version="1.0" encoding="UTF-8"?>
<!DOCTYPE svg PUBLIC "-//W3C//DTD SVG 1.1//EN" "http://www.w3.org/Graphics/SVG/1.1/DTD/svg11.dtd">
<svg xmlns="http://www.w3.org/2000/svg" version="1.1" width="2296px" height="1221px" style="shape-rendering:geometricPrecision; text-rendering:geometricPrecision; image-rendering:optimizeQuality; fill-rule:evenodd; clip-rule:evenodd" xmlns:xlink="http://www.w3.org/1999/xlink">
<g><path style="opacity:0.984" fill="#48332c" d="M 746.5,55.5 C 749.85,55.335 753.183,55.5017 756.5,56C 765.04,58.308 773.707,59.9746 782.5,61C 802.799,62.6871 823.132,63.6871 843.5,64C 847.062,64.7389 850.228,66.2389 853,68.5C 864.889,87.0541 877.555,105.054 891,122.5C 906.691,130.188 920.024,140.854 931,154.5C 933.557,157.392 935.724,160.559 937.5,164C 949.068,171.565 960.068,179.899 970.5,189C 986.949,188.978 1003.28,190.311 1019.5,193C 1058.2,201.206 1096.86,209.539 1135.5,218C 1144.45,219.619 1150.29,224.786 1153,233.5C 1158.3,250.396 1164.97,266.729 1173,282.5C 1179.58,292.666 1185.92,303 1192,313.5C 1195.63,316.13 1198.97,319.13 1202,322.5C 1204.29,327.647 1205.95,332.981 1207,338.5C 1225.68,364.5 1242.34,391.833 1257,420.5C 1266.43,431.264 1275.1,442.597 1283,454.5C 1292.87,464.592 1301.54,475.592 1309,487.5C 1311.28,493.493 1310.61,499.16 1307,504.5C 1297.23,521.042 1286.23,536.709 1274,551.5C 1271.78,563.139 1270.11,574.806 1269,586.5C 1282.74,606.809 1297.57,626.309 1313.5,645C 1335.97,653.567 1357.97,663.234 1379.5,674C 1404.85,685.116 1430.51,695.449 1456.5,705C 1476.12,707.231 1495.79,708.898 1515.5,710C 1524.35,709.84 1530.85,713.674 1535,721.5C 1539.75,730.661 1544.75,739.661 1550,748.5C 1552.02,760.562 1554.35,772.562 1557,784.5C 1557.4,790.254 1557.06,795.92 1556,801.5C 1566.14,821.285 1577.47,840.285 1590,858.5C 1597.5,867.333 1605,876.167 1612.5,885C 1625.14,890.078 1638.14,894.078 1651.5,897C 1680.85,904.808 1710.68,909.308 1741,910.5C 1749.17,910.013 1757.34,909.846 1765.5,910C 1770.59,913.083 1775.09,916.917 1779,921.5C 1786.27,932.375 1794.27,942.709 1803,952.5C 1805.36,955.888 1807.19,959.554 1808.5,963.5C 1807.9,964.795 1807.4,966.128 1807,967.5C 1802.41,972.093 1797.24,975.927 1791.5,979C 1765.08,984.348 1738.41,987.848 1711.5,989.5C 1700.47,989.046 1689.47,988.212 1678.5,987C 1673.51,986.376 1668.67,985.209 1664,983.5C 1655.34,985.966 1646.5,987.8 1637.5,989C 1629.77,992.466 1621.77,995.133 1613.5,997C 1597.95,999.753 1582.29,1001.42 1566.5,1002C 1561.38,1002.64 1557.54,1005.14 1555,1009.5C 1548.08,1022.34 1541.41,1035.34 1535,1048.5C 1533.97,1058.49 1532.97,1068.49 1532,1078.5C 1530.17,1082.33 1527.33,1085.17 1523.5,1087C 1516.49,1087.93 1509.49,1088.43 1502.5,1088.5C 1470.07,1085.13 1437.57,1083.13 1405,1082.5C 1391.83,1082.67 1378.67,1082.83 1365.5,1083C 1353.65,1085.09 1341.82,1087.25 1330,1089.5C 1327.49,1088.91 1324.99,1088.74 1322.5,1089C 1319.29,1095.23 1317.12,1101.73 1316,1108.5C 1321.15,1109.61 1326.31,1110.78 1331.5,1112C 1337.7,1114.37 1341.04,1118.87 1341.5,1125.5C 1340.52,1130.14 1340.35,1134.81 1341,1139.5C 1352.18,1155.95 1348.01,1166.45 1328.5,1171C 1295.78,1173.67 1263.11,1177.01 1230.5,1181C 1211.5,1181.67 1192.5,1181.67 1173.5,1181C 1159.69,1179.52 1151.19,1172.02 1148,1158.5C 1147.64,1152.86 1147.48,1147.36 1147.5,1142C 1121.82,1141.23 1096.15,1141.57 1070.5,1143C 1042.12,1149.2 1013.46,1151.03 984.5,1148.5C 975.1,1148.6 965.767,1149.27 956.5,1150.5C 948.075,1150.31 941.242,1146.98 936,1140.5C 934.543,1136.26 934.209,1131.93 935,1127.5C 946.132,1106.45 955.132,1084.45 962,1061.5C 969.512,1036.45 977.178,1011.45 985,986.5C 990.327,965.527 995.493,944.527 1000.5,923.5C 999.5,923.167 998.5,922.833 997.5,922.5C 972.057,925.186 946.557,927.186 921,928.5C 912.5,928 904,927.5 895.5,927C 889.532,924.734 886.532,920.401 886.5,914C 894.561,881.018 899.061,847.518 900,813.5C 901.969,805.523 906.969,801.19 915,800.5C 923.082,802.307 931.249,802.807 939.5,802C 953.855,796.104 968.355,790.604 983,785.5C 983.945,785.095 984.612,784.428 985,783.5C 985.515,774.264 990.015,768.097 998.5,765C 1004.41,765.148 1010.24,764.981 1016,764.5C 1020.1,755.824 1018.6,748.324 1011.5,742C 964.881,725.563 916.881,717.563 867.5,718C 859.095,718.426 850.762,719.426 842.5,721C 832.793,723.736 823.126,726.569 813.5,729.5C 808.601,728.967 804.434,726.967 801,723.5C 782.763,699.366 765.763,674.366 750,648.5C 745.489,642.142 745.489,635.808 750,629.5C 758.869,618.964 768.702,609.464 779.5,601C 780.449,600.383 781.282,600.549 782,601.5C 791.559,590.273 802.059,580.106 813.5,571C 816.167,570.333 818.833,570.333 821.5,571C 838.478,576.771 855.811,581.104 873.5,584C 901.502,583.434 929.502,583.434 957.5,584C 961.946,579.554 966.446,575.054 971,570.5C 980.65,555.509 991.816,541.676 1004.5,529C 1011.32,523.424 1018.32,518.091 1025.5,513C 1029.2,509.633 1032.54,505.966 1035.5,502C 1013.79,489.146 993.121,474.813 973.5,459C 943.954,435.459 915.621,410.459 888.5,384C 857.377,376.959 826.711,368.293 796.5,358C 781.417,355.021 766.584,351.188 752,346.5C 747.709,348.365 743.209,349.531 738.5,350C 723.592,349.153 709.259,351.486 695.5,357C 689.903,358.091 684.57,357.424 679.5,355C 670.836,345.844 663.002,336.011 656,325.5C 651.5,320.333 647,315.167 642.5,310C 627.626,299.727 613.293,288.727 599.5,277C 579.833,258.667 560.167,240.333 540.5,222C 538.5,221 536.5,220 534.5,219C 528.032,211.53 521.198,204.364 514,197.5C 510.622,192.525 510.789,187.691 514.5,183C 512.211,168.14 514.378,153.973 521,140.5C 525.232,134.274 531.066,130.441 538.5,129C 585.844,132.2 631.178,123.533 674.5,103C 698.968,87.6661 722.968,71.8328 746.5,55.5 Z"/></g>
<g><path style="opacity:1" fill="#9c8a5e" d="M 751.5,85.5 C 778.59,90.3638 805.924,92.5305 833.5,92C 844.979,109.486 857.979,125.819 872.5,141C 881.588,146.037 890.921,150.704 900.5,155C 907.786,163.295 916.453,169.628 926.5,174C 928.572,177.202 930.072,180.702 931,184.5C 939.121,197.621 949.621,208.455 962.5,217C 977.47,218.129 992.47,219.129 1007.5,220C 1047.5,228.567 1087.5,237.067 1127.5,245.5C 1132.65,263.146 1139.49,280.146 1148,296.5C 1157.5,312.175 1167.5,327.508 1178,342.5C 1180.38,358.76 1182.05,375.093 1183,391.5C 1185.03,399.867 1190.2,405.367 1198.5,408C 1207.93,414.131 1217.1,420.631 1226,427.5C 1234.09,438.679 1242.42,449.679 1251,460.5C 1255.9,472.526 1260.4,484.693 1264.5,497C 1255.4,523.56 1248.57,550.726 1244,578.5C 1243.33,584.167 1243.33,589.833 1244,595.5C 1251.66,612.147 1261.33,627.48 1273,641.5C 1279.33,649.167 1285.67,656.833 1292,664.5C 1294.26,667.433 1297.1,669.6 1300.5,671C 1307.99,673.273 1315.32,675.94 1322.5,679C 1374.25,704.538 1427.58,726.205 1482.5,744C 1490.73,746.641 1499.06,748.807 1507.5,750.5C 1507.55,753.568 1508.05,756.568 1509,759.5C 1528.18,814.066 1556.68,862.899 1594.5,906C 1601.96,910.729 1609.96,914.395 1618.5,917C 1651.02,926.104 1684.02,932.771 1717.5,937C 1730.84,938.298 1744.18,938.631 1757.5,938C 1762.47,943.969 1767.8,949.635 1773.5,955C 1752.55,957.44 1731.55,959.274 1710.5,960.5C 1694.54,960.643 1678.88,958.643 1663.5,954.5C 1640.34,959.309 1617,963.143 1593.5,966C 1582.02,968.038 1570.68,970.704 1559.5,974C 1546.43,974.057 1533.43,974.723 1520.5,976C 1517,978.167 1514.17,981 1512,984.5C 1509.86,1009.79 1508.36,1035.13 1507.5,1060.5C 1502.16,1060.67 1496.82,1060.5 1491.5,1060C 1488.45,1057.81 1485.11,1056.14 1481.5,1055C 1464.79,1050.56 1447.79,1047.89 1430.5,1047C 1398.82,1047.13 1367.15,1047.3 1335.5,1047.5C 1331.78,1047.38 1328.11,1046.88 1324.5,1046C 1318.16,1041.44 1311.16,1039.77 1303.5,1041C 1301.67,1042.83 1299.83,1044.67 1298,1046.5C 1288.29,1065.59 1279.95,1085.26 1273,1105.5C 1271.72,1122.21 1279.56,1129.38 1296.5,1127C 1301.38,1131.44 1307.05,1134.27 1313.5,1135.5C 1313.58,1138.21 1313.91,1140.87 1314.5,1143.5C 1285.78,1145.67 1257.11,1148.51 1228.5,1152C 1210.5,1152.67 1192.5,1152.67 1174.5,1152C 1172.01,1146.7 1170.01,1141.2 1168.5,1135.5C 1171.73,1126.83 1169.39,1120.33 1161.5,1116C 1099.79,1116.29 1038.13,1116.13 976.5,1115.5C 976.167,1115 975.833,1114.5 975.5,1114C 976.7,1108.9 977.534,1103.73 978,1098.5C 993.102,1054.43 1007.44,1010.09 1021,965.5C 1025.58,946.168 1031.25,927.168 1038,908.5C 1040.46,897.959 1036.3,892.126 1025.5,891C 1009.54,889.448 993.536,889.115 977.5,890C 960.131,891.985 942.798,894.152 925.5,896.5C 927.065,873.527 928.065,850.527 928.5,827.5C 951.466,822.925 974.133,817.092 996.5,810C 1003.8,807.205 1008.46,802.038 1010.5,794.5C 1034.25,792.222 1046.25,779.055 1046.5,755C 1045.23,740.801 1039.23,729.134 1028.5,720C 1024.95,718.059 1021.29,716.393 1017.5,715C 987.412,705.192 956.745,697.858 925.5,693C 893.21,688.894 860.876,685.227 828.5,682C 817.643,669.778 807.143,657.278 797,644.5C 794.333,640.5 791.667,636.5 789,632.5C 788.333,631.167 788.333,629.833 789,628.5C 798.632,616.036 809.132,604.369 820.5,593.5C 838.446,599.403 856.779,603.57 875.5,606C 900.998,605.237 926.498,605.403 952,606.5C 962.632,607.716 972.466,605.549 981.5,600C 993.229,589.28 1003.06,577.114 1011,563.5C 1016.17,558.333 1021.33,553.167 1026.5,548C 1035.62,541.212 1044.46,534.046 1053,526.5C 1059.42,519.847 1061.09,512.181 1058,503.5C 1039.98,482.15 1019.98,462.817 998,445.5C 980.333,425.167 962.667,404.833 945,384.5C 938.655,375.818 933.322,366.485 929,356.5C 923.82,349.157 916.654,345.324 907.5,345C 871.836,342 836.169,339 800.5,336C 778.635,330.367 756.635,325.367 734.5,321C 720.517,319.258 706.517,317.925 692.5,317C 687.508,314.839 682.841,312.172 678.5,309C 671.873,300.704 664.873,292.704 657.5,285C 644.167,273 630.833,261 617.5,249C 603.382,240.559 590.715,230.226 579.5,218C 571.416,213.543 563.582,208.709 556,203.5C 555.39,199.764 555.723,196.097 557,192.5C 560.843,180.306 564.676,168.139 568.5,156C 613.665,156.159 655.998,145.493 695.5,124C 714.754,111.885 733.421,99.0515 751.5,85.5 Z"/></g>
<g><path style="opacity:1" fill="#b99f7f" d="M 777.5,125.5 C 784.508,125.334 791.508,125.5 798.5,126C 809.737,141.907 821.737,157.24 834.5,172C 842.505,178.503 851.505,183.17 861.5,186C 867.091,189.586 872.091,193.92 876.5,199C 881.542,202.521 886.875,205.521 892.5,208C 895.101,211.794 896.934,215.961 898,220.5C 904.415,229.586 911.582,238.086 919.5,246C 921.67,247.586 924.004,248.92 926.5,250C 948.705,250.258 970.705,252.591 992.5,257C 1016.86,262.407 1041.2,268.074 1065.5,274C 1073.15,275.441 1080.81,276.775 1088.5,278C 1090.33,278.273 1091.83,279.107 1093,280.5C 1099.02,297.551 1106.02,314.218 1114,330.5C 1123.83,346.84 1134.17,362.84 1145,378.5C 1146.92,393.784 1148.25,409.118 1149,424.5C 1149.15,428.098 1150.15,431.431 1152,434.5C 1164.75,442.243 1177.25,450.409 1189.5,459C 1199.33,472.167 1209.17,485.333 1219,498.5C 1216.23,515.125 1213.23,531.791 1210,548.5C 1209.33,574.833 1209.33,601.167 1210,627.5C 1211.15,632.814 1213.15,637.814 1216,642.5C 1229.49,663.316 1244.33,683.15 1260.5,702C 1284.74,710.953 1308.41,721.286 1331.5,733C 1376.51,753.506 1422.84,770.506 1470.5,784C 1472.05,785.214 1473.22,786.714 1474,788.5C 1488.59,832.687 1509.26,873.687 1536,911.5C 1542.28,918.573 1548.45,925.74 1554.5,933C 1544.3,935.05 1534.3,937.717 1524.5,941C 1512.17,941.333 1499.83,941.667 1487.5,942C 1482.76,943.068 1479.6,945.901 1478,950.5C 1476.51,971.802 1475.34,993.136 1474.5,1014.5C 1435.84,1013.74 1397.17,1012.91 1358.5,1012C 1354.91,1010.04 1351.24,1008.37 1347.5,1007C 1321.83,1006.33 1296.17,1006.33 1270.5,1007C 1268.41,1007.79 1266.58,1008.96 1265,1010.5C 1255.56,1029.38 1247.23,1048.71 1240,1068.5C 1238.57,1083.44 1238.07,1098.44 1238.5,1113.5C 1228.15,1115.36 1217.81,1116.36 1207.5,1116.5C 1204.05,1107.53 1202.55,1098.2 1203,1088.5C 1201.44,1085.27 1198.94,1083.1 1195.5,1082C 1139.81,1081.6 1084.15,1081.43 1028.5,1081.5C 1043.52,1034.96 1058.02,988.29 1072,941.5C 1072.67,915.833 1072.67,890.167 1072,864.5C 1071.29,862.919 1070.46,861.419 1069.5,860C 1065.66,858.414 1061.66,857.414 1057.5,857C 1034.18,855.953 1010.85,855.286 987.5,855C 1002.79,852.093 1017.79,848.093 1032.5,843C 1038.98,839.85 1043.32,834.85 1045.5,828C 1066.94,826.563 1078.44,815.063 1080,793.5C 1080.67,767.167 1080.67,740.833 1080,714.5C 1077.28,703.889 1072.11,694.723 1064.5,687C 1041.84,677.834 1018.51,670.834 994.5,666C 963.41,659.731 932.076,655.064 900.5,652C 888.47,651.309 876.47,650.309 864.5,649C 860.833,646.667 857.833,643.667 855.5,640C 905.5,639.667 955.5,639.333 1005.5,639C 1015.71,635.13 1023.88,628.63 1030,619.5C 1042.41,598.427 1058.91,581.26 1079.5,568C 1085.53,563.308 1090.03,557.475 1093,550.5C 1093.67,524.167 1093.67,497.833 1093,471.5C 1080.66,456.149 1067.16,441.649 1052.5,428C 1044.53,422.09 1037.03,415.59 1030,408.5C 1012.33,388.167 994.667,367.833 977,347.5C 970.891,338.284 965.558,328.617 961,318.5C 956.364,314.292 950.864,312.126 944.5,312C 908.856,308.721 873.189,305.721 837.5,303C 815.282,297.464 792.949,292.464 770.5,288C 756.594,285.751 742.594,284.417 728.5,284C 722.911,281.401 717.577,278.401 712.5,275C 708.638,270.771 705.138,266.271 702,261.5C 679.224,237.709 654.391,216.543 627.5,198C 624.5,195 621.5,192 618.5,189C 657.972,187.218 694.972,176.884 729.5,158C 745.739,147.391 761.739,136.558 777.5,125.5 Z"/></g>
</svg>
