<?xml version="1.0" encoding="UTF-8"?>
<!DOCTYPE svg PUBLIC "-//W3C//DTD SVG 1.1//EN" "http://www.w3.org/Graphics/SVG/1.1/DTD/svg11.dtd">
<svg xmlns="http://www.w3.org/2000/svg" version="1.1" width="2296px" height="1221px" style="shape-rendering:geometricPrecision; text-rendering:geometricPrecision; image-rendering:optimizeQuality; fill-rule:evenodd; clip-rule:evenodd" xmlns:xlink="http://www.w3.org/1999/xlink">
<g><path style="opacity:0.964" fill="#48332c" d="M 1053.5,118.5 C 1057.51,118.334 1061.51,118.501 1065.5,119C 1073.83,124.667 1082.17,130.333 1090.5,136C 1103.97,148.47 1117.14,161.304 1130,174.5C 1134.4,183.564 1140.9,190.731 1149.5,196C 1163.05,201.055 1177.05,204.221 1191.5,205.5C 1199.67,205.084 1207.67,203.751 1215.5,201.5C 1221.78,204.152 1228.11,206.652 1234.5,209C 1243.17,215 1251.83,221 1260.5,227C 1271.65,237.456 1278.48,250.289 1281,265.5C 1284.15,282.039 1285.48,298.706 1285,315.5C 1284.29,318.595 1283.29,321.595 1282,324.5C 1273.37,339.762 1264.37,354.762 1255,369.5C 1238.56,389.935 1222.9,410.935 1208,432.5C 1198,445.833 1188,459.167 1178,472.5C 1174.9,476.356 1171.57,480.023 1168,483.5C 1159.41,514.512 1152.08,545.846 1146,577.5C 1144.57,582.185 1142.74,586.685 1140.5,591C 1143.46,592.961 1146.13,595.294 1148.5,598C 1162.63,603.561 1175.63,610.894 1187.5,620C 1197.45,626.226 1207.62,632.06 1218,637.5C 1226.33,634.422 1234.49,630.922 1242.5,627C 1261.08,615.424 1279.42,603.424 1297.5,591C 1301.99,586.329 1305.99,581.329 1309.5,576C 1322.28,570.473 1335.61,568.139 1349.5,569C 1354.5,572 1359.5,575 1364.5,578C 1371.38,583.883 1378.55,589.383 1386,594.5C 1402.46,580.351 1420.63,568.851 1440.5,560C 1454.83,551 1469.17,542 1483.5,533C 1514.87,531.808 1544.87,537.808 1573.5,551C 1579.6,555.615 1585.1,560.782 1590,566.5C 1599.37,583.929 1606.37,602.263 1611,621.5C 1611.67,627.5 1611.67,633.5 1611,639.5C 1606.77,651.62 1602.27,663.62 1597.5,675.5C 1602.82,692.436 1607.98,709.436 1613,726.5C 1619.67,731.833 1625.67,737.833 1631,744.5C 1640.86,762.288 1644.86,781.288 1643,801.5C 1640.99,808.847 1638.99,816.181 1637,823.5C 1636.33,827.5 1636.33,831.5 1637,835.5C 1639.5,839.333 1642.67,842.5 1646.5,845C 1652.23,845.784 1657.07,848.284 1661,852.5C 1663.31,859.666 1664.97,866.999 1666,874.5C 1669.46,885.624 1676.63,893.124 1687.5,897C 1689.5,898.667 1691.5,900.333 1693.5,902C 1715.31,908.029 1736.31,916.029 1756.5,926C 1764.61,931.111 1772.44,936.611 1780,942.5C 1781.75,945.005 1783.25,947.671 1784.5,950.5C 1797.84,954.369 1801.18,962.536 1794.5,975C 1774.81,978.605 1755.14,982.605 1735.5,987C 1736.65,995.088 1736.81,1003.25 1736,1011.5C 1733.28,1015.54 1729.94,1016.21 1726,1013.5C 1717.1,1014.79 1708.27,1014.29 1699.5,1012C 1692.11,1011.2 1684.78,1011.53 1677.5,1013C 1671.67,1016.08 1666,1019.41 1660.5,1023C 1655.99,1024.79 1651.32,1025.96 1646.5,1026.5C 1633.58,1024.52 1620.58,1023.36 1607.5,1023C 1600.49,1021.9 1593.49,1020.73 1586.5,1019.5C 1564.67,1024.96 1542.67,1029.79 1520.5,1034C 1504.15,1035.59 1487.82,1036.92 1471.5,1038C 1462.61,1032.12 1454.61,1025.12 1447.5,1017C 1444.23,1015.39 1441.23,1013.39 1438.5,1011C 1429.95,1002.45 1421.45,993.946 1413,985.5C 1410.56,980.078 1408.89,974.412 1408,968.5C 1400.9,958.635 1394.57,948.302 1389,937.5C 1385.33,932.5 1381.67,927.5 1378,922.5C 1377.33,918.5 1377.33,914.5 1378,910.5C 1380.21,903.569 1381.87,896.569 1383,889.5C 1370.25,880.086 1358.08,869.92 1346.5,859C 1342.23,855.712 1337.73,852.879 1333,850.5C 1316.88,853.603 1300.71,856.437 1284.5,859C 1273.63,863.069 1262.63,866.736 1251.5,870C 1247.36,874.574 1242.36,877.907 1236.5,880C 1219.4,885.547 1202.74,892.214 1186.5,900C 1180,904.5 1173.5,909 1167,913.5C 1162.7,919.845 1161.37,926.845 1163,934.5C 1165.19,944.416 1168.19,954.082 1172,963.5C 1180.82,969.268 1182.82,976.934 1178,986.5C 1175.41,988.545 1172.58,990.211 1169.5,991.5C 1158.55,1004.62 1146.72,1016.95 1134,1028.5C 1129.67,1037.5 1125.33,1046.5 1121,1055.5C 1118.52,1068.63 1113.52,1080.63 1106,1091.5C 1104.27,1093.62 1102.1,1095.12 1099.5,1096C 1094.5,1096.67 1089.5,1096.67 1084.5,1096C 1081.37,1093.42 1078.71,1090.42 1076.5,1087C 1061.18,1084.67 1045.85,1082.34 1030.5,1080C 1025.17,1079.33 1019.83,1079.33 1014.5,1080C 1011.16,1083.17 1007.16,1084.67 1002.5,1084.5C 994.338,1084.11 986.338,1082.78 978.5,1080.5C 973.031,1081.7 967.531,1082.7 962,1083.5C 951.019,1080.84 940.019,1078.17 929,1075.5C 916.981,1071.79 905.481,1072.96 894.5,1079C 891.833,1080.67 889.167,1082.33 886.5,1084C 882.43,1091.08 876.43,1095.41 868.5,1097C 863.672,1100.58 858.672,1103.91 853.5,1107C 843.888,1111.14 834.554,1115.81 825.5,1121C 817.459,1124.23 809.459,1124.23 801.5,1121C 795.333,1114.83 789.167,1108.67 783,1102.5C 769.931,1085.01 755.931,1068.35 741,1052.5C 739.065,1049.63 737.399,1046.63 736,1043.5C 735.476,1033.4 734.643,1023.23 733.5,1013C 734.971,1007.34 734.471,1001.84 732,996.5C 731.333,987.5 731.333,978.5 732,969.5C 733.435,959.49 734.935,949.49 736.5,939.5C 734.189,933.727 732.355,927.727 731,921.5C 729.521,907.815 727.855,894.148 726,880.5C 722.437,866.415 719.27,852.249 716.5,838C 717.161,831.345 720.161,826.012 725.5,822C 734.864,816.987 743.53,810.987 751.5,804C 759.854,796.116 766.354,786.95 771,776.5C 776.207,765.591 780.707,754.424 784.5,743C 785.346,728.673 783.846,714.506 780,700.5C 775.948,690.944 770.115,682.61 762.5,675.5C 759.998,674.208 757.331,673.541 754.5,673.5C 745.157,675.225 736.157,678.059 727.5,682C 719.467,687.013 711.467,692.013 703.5,697C 698.106,698.033 693.106,697.033 688.5,694C 673.651,681.15 660.151,666.984 648,651.5C 645.332,641.819 647.665,633.485 655,626.5C 656.072,622.454 657.238,618.454 658.5,614.5C 648.525,587.023 629.858,567.857 602.5,557C 587.675,551.418 572.342,549.085 556.5,550C 554.413,549.208 552.579,548.041 551,546.5C 550.07,541.27 548.404,536.27 546,531.5C 543.794,514.639 540.628,497.973 536.5,481.5C 537.103,477.446 537.936,473.446 539,469.5C 545.427,460.078 551.427,450.411 557,440.5C 558.187,438.956 558.52,437.289 558,435.5C 553.456,429.214 550.456,422.214 549,414.5C 547.414,412.33 546.08,409.996 545,407.5C 536.196,401.842 528.029,395.342 520.5,388C 514.911,385.401 509.577,382.401 504.5,379C 501.893,378.182 499.226,377.682 496.5,377.5C 490.185,378.488 483.852,378.654 477.5,378C 475.04,376.542 472.873,374.709 471,372.5C 469.361,354.924 469.028,337.258 470,319.5C 470.883,316.898 472.383,314.731 474.5,313C 483.314,311.431 491.647,308.431 499.5,304C 516.874,291.63 532.708,277.463 547,261.5C 558.045,248.791 568.711,235.791 579,222.5C 586.235,213.622 595.568,209.955 607,211.5C 615.508,211.867 624.008,212.367 632.5,213C 649.99,216.706 667.323,221.039 684.5,226C 690.833,226.333 697.167,226.667 703.5,227C 713.866,228.842 724.2,230.842 734.5,233C 738.167,233.667 741.833,233.667 745.5,233C 749.905,228.717 754.405,224.55 759,220.5C 762.081,214.669 765.415,209.002 769,203.5C 774.046,199.319 779.879,197.319 786.5,197.5C 799.966,198.355 813.299,200.189 826.5,203C 830.167,203.667 833.833,203.667 837.5,203C 866.284,197.638 894.95,191.638 923.5,185C 931.891,182.305 939.558,178.305 946.5,173C 953.833,166.333 961.167,159.667 968.5,153C 972.737,148.52 976.737,143.853 980.5,139C 983.382,137.392 986.382,136.059 989.5,135C 1011.12,130.096 1032.45,124.596 1053.5,118.5 Z"/></g>
<g><path style="opacity:1" fill="#9c8a5e" d="M 1173.5,228.5 C 1177.22,230.405 1181.22,231.739 1185.5,232.5C 1196.44,234.552 1207.44,235.052 1218.5,234C 1220.91,236.285 1223.41,238.451 1226,240.5C 1226.25,243.919 1226.75,247.253 1227.5,250.5C 1227.43,252.027 1228.09,253.027 1229.5,253.5C 1236.05,265.6 1242.89,277.6 1250,289.5C 1252.29,292.892 1255.45,294.559 1259.5,294.5C 1259.67,300.176 1259.5,305.843 1259,311.5C 1254.89,318.729 1251.05,326.063 1247.5,333.5C 1246.09,333.973 1245.43,334.973 1245.5,336.5C 1240.17,344.492 1234.84,352.492 1229.5,360.5C 1227.41,361.585 1226.08,363.251 1225.5,365.5C 1203.29,393.562 1181.79,422.229 1161,451.5C 1155.93,457.059 1151.1,462.725 1146.5,468.5C 1144.02,469.687 1143.02,471.687 1143.5,474.5C 1142.08,476.515 1141.41,478.848 1141.5,481.5C 1140.08,483.515 1139.41,485.848 1139.5,488.5C 1136.03,500.045 1133.03,511.711 1130.5,523.5C 1129.08,525.515 1128.41,527.848 1128.5,530.5C 1127.5,536.5 1126.5,542.5 1125.5,548.5C 1123.88,553.256 1122.88,558.256 1122.5,563.5C 1121.57,564.568 1121.23,565.901 1121.5,567.5C 1120.26,569.214 1119.59,571.214 1119.5,573.5C 1117.9,578.403 1115.9,583.07 1113.5,587.5C 1112.03,589.117 1111.36,591.117 1111.5,593.5C 1111.51,595.045 1111.84,596.378 1112.5,597.5C 1113.04,599.593 1113.88,601.593 1115,603.5C 1121.5,609.333 1128,615.167 1134.5,621C 1143.83,625.667 1153.17,630.333 1162.5,635C 1174.55,643.354 1186.88,651.188 1199.5,658.5C 1201.1,660.074 1203.1,660.741 1205.5,660.5C 1208.08,662.472 1211.08,663.472 1214.5,663.5C 1222.96,665 1231.13,663.666 1239,659.5C 1240.03,659.164 1240.53,658.497 1240.5,657.5C 1267.31,643.204 1292.97,627.038 1317.5,609C 1321.59,605.584 1324.92,601.584 1327.5,597C 1332.45,595.194 1337.11,592.861 1341.5,590C 1342.5,589.333 1343.5,589.333 1344.5,590C 1356.22,599.385 1368.22,608.385 1380.5,617C 1384.37,618.52 1388.37,618.854 1392.5,618C 1403.5,610.333 1414.5,602.667 1425.5,595C 1432.73,590.886 1440.06,587.053 1447.5,583.5C 1449.85,583.408 1451.51,582.408 1452.5,580.5C 1465.61,573.444 1478.27,565.61 1490.5,557C 1498.88,556.814 1507.21,557.481 1515.5,559C 1530.98,561.538 1546.32,564.705 1561.5,568.5C 1563.44,570.163 1565.77,570.829 1568.5,570.5C 1569.17,570.5 1569.5,570.833 1569.5,571.5C 1569.72,575.162 1570.72,578.495 1572.5,581.5C 1574.01,584.678 1575.34,588.011 1576.5,591.5C 1576.93,594.157 1577.93,596.491 1579.5,598.5C 1581.09,601.257 1582.09,604.257 1582.5,607.5C 1583.86,614.915 1586.19,621.915 1589.5,628.5C 1589.07,633.973 1587.9,639.306 1586,644.5C 1583.89,647.727 1582.05,651.06 1580.5,654.5C 1577.67,658.664 1576,663.331 1575.5,668.5C 1574.4,672.747 1574.23,677.08 1575,681.5C 1578.2,693.606 1581.7,705.606 1585.5,717.5C 1585.35,720.716 1586.35,723.383 1588.5,725.5C 1589.65,730.441 1591.48,735.108 1594,739.5C 1599.36,745.855 1605.02,751.855 1611,757.5C 1612.79,760.736 1614.29,764.07 1615.5,767.5C 1615.88,772.037 1617.05,776.371 1619,780.5C 1619.5,786.825 1619.67,793.158 1619.5,799.5C 1617.29,806.782 1615.29,814.116 1613.5,821.5C 1613.5,826.167 1613.5,830.833 1613.5,835.5C 1613.17,838.228 1613.84,840.562 1615.5,842.5C 1620.21,849.392 1625.55,855.892 1631.5,862C 1634.99,864.912 1638.99,866.412 1643.5,866.5C 1644.87,882.073 1651.2,895.24 1662.5,906C 1674,913.252 1685.67,920.252 1697.5,927C 1710.11,931.927 1722.78,936.76 1735.5,941.5C 1741.68,943.33 1748.01,944.996 1754.5,946.5C 1756.94,947.871 1759.6,948.871 1762.5,949.5C 1764.21,950.738 1766.21,951.405 1768.5,951.5C 1770.38,951.712 1771.72,952.712 1772.5,954.5C 1769.25,955.598 1765.91,956.264 1762.5,956.5C 1758.57,956.926 1754.91,957.926 1751.5,959.5C 1742.64,961.286 1733.97,963.786 1725.5,967C 1719.23,969.426 1715.89,973.926 1715.5,980.5C 1716.09,985.263 1717.09,989.93 1718.5,994.5C 1712.47,993.993 1706.47,993.159 1700.5,992C 1684.51,988.917 1670.18,992.25 1657.5,1002C 1651.31,1006.25 1644.64,1007.42 1637.5,1005.5C 1634.15,1003.74 1630.48,1002.74 1626.5,1002.5C 1624.05,1002.7 1621.72,1002.37 1619.5,1001.5C 1617.16,999.96 1614.5,999.294 1611.5,999.5C 1605.45,998.757 1599.45,997.757 1593.5,996.5C 1590.3,994.97 1586.8,994.304 1583,994.5C 1579.2,994.304 1575.7,994.97 1572.5,996.5C 1555.33,1000.72 1537.99,1004.22 1520.5,1007C 1510.85,1008.53 1501.18,1008.7 1491.5,1007.5C 1490.35,1005.85 1489.02,1004.35 1487.5,1003C 1454.31,985.141 1430.14,958.974 1415,924.5C 1412.67,921.5 1410.33,918.5 1408,915.5C 1408.22,911.338 1409.38,907.338 1411.5,903.5C 1412.22,903.082 1412.72,902.416 1413,901.5C 1413.67,895.5 1413.67,889.5 1413,883.5C 1412.63,881.509 1411.79,879.842 1410.5,878.5C 1409.46,875.944 1407.79,873.777 1405.5,872C 1401.33,869.083 1397,866.416 1392.5,864C 1379.02,852.096 1365.35,840.43 1351.5,829C 1348.61,827.207 1345.61,825.707 1342.5,824.5C 1342.08,823.778 1341.42,823.278 1340.5,823C 1335.65,822.185 1330.98,822.352 1326.5,823.5C 1326.5,824.167 1326.17,824.5 1325.5,824.5C 1319.51,824.367 1313.84,825.367 1308.5,827.5C 1295.56,827.929 1283.22,830.596 1271.5,835.5C 1264.83,836.724 1258.5,838.724 1252.5,841.5C 1243.64,844.24 1234.64,846.24 1225.5,847.5C 1219.31,848.143 1213.31,849.143 1207.5,850.5C 1205.5,850.5 1203.5,850.5 1201.5,850.5C 1190.99,850.06 1180.65,850.06 1170.5,850.5C 1168.63,850.859 1167.13,851.859 1166,853.5C 1158.64,864.222 1150.81,874.556 1142.5,884.5C 1140.41,885.585 1139.08,887.251 1138.5,889.5C 1134.67,893.164 1130.67,896.664 1126.5,900C 1123.55,902.436 1121.22,905.269 1119.5,908.5C 1118.35,912.646 1118.19,916.98 1119,921.5C 1119.38,922.056 1119.88,922.389 1120.5,922.5C 1126,930.819 1132,938.819 1138.5,946.5C 1138.26,948.898 1138.93,950.898 1140.5,952.5C 1141.83,957.167 1143.17,961.833 1144.5,966.5C 1144.39,969.049 1145.05,971.382 1146.5,973.5C 1146.14,974.183 1145.8,974.85 1145.5,975.5C 1139.55,978.403 1134.38,982.403 1130,987.5C 1122.69,995.457 1116.36,1004.12 1111,1013.5C 1098.93,1024.97 1090.43,1038.63 1085.5,1054.5C 1083.9,1055.29 1083.23,1056.62 1083.5,1058.5C 1082.17,1058.5 1080.83,1058.5 1079.5,1058.5C 1071.27,1056.82 1062.93,1056.15 1054.5,1056.5C 1049.52,1055.95 1044.52,1055.61 1039.5,1055.5C 1031.81,1054.91 1024.14,1054.24 1016.5,1053.5C 1015.74,1052.73 1014.74,1052.23 1013.5,1052C 1006.65,1051.18 999.987,1051.35 993.5,1052.5C 986.905,1054.57 980.238,1054.91 973.5,1053.5C 967.871,1051.06 961.871,1050.06 955.5,1050.5C 954.737,1049.73 953.737,1049.23 952.5,1049C 948.848,1048.5 945.182,1048.33 941.5,1048.5C 922.667,1047.64 903.667,1047.64 884.5,1048.5C 878.158,1048.33 871.825,1048.5 865.5,1049C 864.263,1049.23 863.263,1049.73 862.5,1050.5C 855.837,1052.33 849.837,1055.5 844.5,1060C 836.128,1066.7 828.795,1074.37 822.5,1083C 814.195,1081.85 805.861,1080.51 797.5,1079C 794.667,1075.5 791.833,1072 789,1068.5C 781.96,1053.42 774.626,1038.42 767,1023.5C 765.058,1018.5 763.224,1013.5 761.5,1008.5C 761.312,1002.71 761.978,997.045 763.5,991.5C 767.491,978.212 771.491,964.879 775.5,951.5C 777.011,948.456 777.678,945.122 777.5,941.5C 778.162,939.696 778.495,937.696 778.5,935.5C 778.602,931.883 777.935,928.55 776.5,925.5C 776.167,924.167 775.833,922.833 775.5,921.5C 775.573,919.973 774.906,918.973 773.5,918.5C 771.592,914.92 768.926,911.92 765.5,909.5C 764.414,899.192 763.747,888.859 763.5,878.5C 763.407,872.484 763.074,866.484 762.5,860.5C 765.259,853.984 768.259,847.651 771.5,841.5C 772.906,841.027 773.573,840.027 773.5,838.5C 782.87,821.751 792.203,805.084 801.5,788.5C 803.915,785.66 805.248,782.327 805.5,778.5C 808.394,772.15 810.06,765.483 810.5,758.5C 811.658,749.009 811.825,739.342 811,729.5C 810.571,724.953 809.738,720.619 808.5,716.5C 808.126,711.675 807.126,707.008 805.5,702.5C 805.318,698.511 804.318,694.844 802.5,691.5C 802.768,689.901 802.434,688.568 801.5,687.5C 801.585,684.351 800.585,681.684 798.5,679.5C 796.503,674.988 793.503,671.155 789.5,668C 784.363,665.645 779.363,663.145 774.5,660.5C 773.415,658.413 771.749,657.08 769.5,656.5C 758.141,650.893 746.141,649.059 733.5,651C 724.614,654.851 715.614,657.851 706.5,660C 697.667,653.833 690.167,646.333 684,637.5C 682.561,628.076 683.894,619.076 688,610.5C 691.821,589.313 684.988,572.479 667.5,560C 657.33,553.748 646.997,547.748 636.5,542C 621.738,536.951 606.738,533.118 591.5,530.5C 587.112,528.566 582.445,527.233 577.5,526.5C 577.167,526.5 576.833,526.5 576.5,526.5C 574.485,525.076 572.152,524.41 569.5,524.5C 569.602,516.883 568.602,509.55 566.5,502.5C 564.612,493.902 563.445,485.235 563,476.5C 571.812,462.557 577.979,447.557 581.5,431.5C 582.647,427.354 582.814,423.02 582,418.5C 581.626,416.509 580.793,414.842 579.5,413.5C 576.185,404.54 570.685,397.206 563,391.5C 559.6,384.535 555.1,378.369 549.5,373C 533.648,363.778 517.315,355.611 500.5,348.5C 499.626,344.912 500.959,342.246 504.5,340.5C 506.587,339.415 507.92,337.749 508.5,335.5C 512.833,330.5 517.5,325.833 522.5,321.5C 526.1,319.57 529.1,316.903 531.5,313.5C 533.167,311.167 535.167,309.167 537.5,307.5C 542.167,304.833 545.833,301.167 548.5,296.5C 550.833,293.5 553.5,290.833 556.5,288.5C 558.587,287.415 559.92,285.749 560.5,283.5C 567.969,276.2 575.636,269.033 583.5,262C 595.077,254.057 606.41,245.89 617.5,237.5C 621.842,237.739 626.176,238.073 630.5,238.5C 637.912,239.449 645.246,240.783 652.5,242.5C 654.515,243.924 656.848,244.59 659.5,244.5C 663.502,246.61 667.835,247.943 672.5,248.5C 674.767,249.423 677.1,250.256 679.5,251C 690.956,251.099 702.289,252.265 713.5,254.5C 715.515,255.924 717.848,256.59 720.5,256.5C 722.042,257.301 723.708,257.634 725.5,257.5C 733.45,259.497 741.45,259.831 749.5,258.5C 754.531,257.151 759.198,254.985 763.5,252C 772.968,243.87 780.968,234.536 787.5,224C 793.194,224.37 798.861,225.203 804.5,226.5C 817.456,230.259 830.79,231.425 844.5,230C 846.382,229.802 848.048,229.302 849.5,228.5C 862.833,225.5 876.167,222.5 889.5,219.5C 894.12,219.26 898.453,218.26 902.5,216.5C 903.167,216.5 903.833,216.5 904.5,216.5C 907.152,216.59 909.485,215.924 911.5,214.5C 912.167,214.5 912.833,214.5 913.5,214.5C 916.781,214.58 919.781,213.913 922.5,212.5C 922.833,212.5 923.167,212.5 923.5,212.5C 925.898,212.741 927.898,212.074 929.5,210.5C 932.152,210.59 934.485,209.924 936.5,208.5C 945.193,204.986 953.526,200.653 961.5,195.5C 965.1,193.57 968.1,190.903 970.5,187.5C 971.833,185.5 973.5,183.833 975.5,182.5C 977.587,181.415 978.92,179.749 979.5,177.5C 983.024,172.451 986.024,167.117 988.5,161.5C 991.152,161.59 993.485,160.924 995.5,159.5C 996.568,158.566 997.901,158.232 999.5,158.5C 1005.14,159.16 1010.14,157.827 1014.5,154.5C 1018.17,153.833 1021.83,153.167 1025.5,152.5C 1029.16,152.277 1032.5,151.277 1035.5,149.5C 1042.24,147.98 1048.9,146.48 1055.5,145C 1066.4,151.896 1076.73,159.562 1086.5,168C 1093.32,175.984 1100.65,183.484 1108.5,190.5C 1108.98,192.949 1109.98,195.115 1111.5,197C 1121.5,203.333 1131.5,209.667 1141.5,216C 1152.14,220.268 1162.81,224.435 1173.5,228.5 Z"/></g>
<g><path style="opacity:1" fill="#7a6649" d="M 1035.5,149.5 C 1032.5,151.277 1029.16,152.277 1025.5,152.5C 1028.5,150.723 1031.84,149.723 1035.5,149.5 Z"/></g>
<g><path style="opacity:1" fill="#847250" d="M 1014.5,154.5 C 1010.14,157.827 1005.14,159.16 999.5,158.5C 1004.37,157.031 1009.37,155.697 1014.5,154.5 Z"/></g>
<g><path style="opacity:1" fill="#7f6c4d" d="M 995.5,159.5 C 993.485,160.924 991.152,161.59 988.5,161.5C 990.515,160.076 992.848,159.41 995.5,159.5 Z"/></g>
<g><path style="opacity:1" fill="#7f6d4d" d="M 979.5,177.5 C 978.92,179.749 977.587,181.415 975.5,182.5C 976.08,180.251 977.413,178.585 979.5,177.5 Z"/></g>
<g><path style="opacity:1" fill="#b99f7f" d="M 1350.5,647.5 C 1350.92,648.222 1351.58,648.722 1352.5,649C 1375.67,649.83 1398.67,649.663 1421.5,648.5C 1428.22,645.965 1434.22,642.131 1439.5,637C 1447.03,631.739 1454.7,626.739 1462.5,622C 1477.81,613.371 1493.14,604.705 1508.5,596C 1510.2,595.042 1512.03,594.542 1514,594.5C 1521.29,596.113 1528.46,597.947 1535.5,600C 1536.93,600.465 1538.1,601.299 1539,602.5C 1541.53,608.685 1543.53,615.019 1545,621.5C 1548.97,625.173 1549.47,629.173 1546.5,633.5C 1545.11,635.877 1544.28,638.543 1544,641.5C 1543.17,664.004 1543.34,686.337 1544.5,708.5C 1544.34,710.857 1544.5,713.19 1545,715.5C 1549.96,733.177 1555.46,750.677 1561.5,768C 1566.03,773.866 1571.2,779.032 1577,783.5C 1579.43,786.934 1581.43,790.6 1583,794.5C 1583.33,819.167 1583.67,843.833 1584,868.5C 1584.94,871.993 1586.28,875.326 1588,878.5C 1594.25,887.594 1602.42,894.261 1612.5,898.5C 1614.22,913.054 1620.22,925.554 1630.5,936C 1637.47,939.823 1644.14,944.156 1650.5,949C 1658.65,951.93 1666.31,955.596 1673.5,960C 1662.76,960.189 1652.09,961.189 1641.5,963C 1637.66,964.675 1633.83,966.175 1630,967.5C 1625.78,966.923 1621.62,966.09 1617.5,965C 1593.5,964.333 1569.5,964.333 1545.5,965C 1536.51,966.407 1527.67,968.574 1519,971.5C 1514.92,970.711 1511.08,969.211 1507.5,967C 1487.64,952.475 1470.48,935.309 1456,915.5C 1452.74,907.53 1448.91,899.863 1444.5,892.5C 1443.67,879.513 1443.17,866.513 1443,853.5C 1440.38,844.542 1434.55,838.375 1425.5,835C 1414.13,824.626 1402.46,814.626 1390.5,805C 1384.87,800.364 1378.87,796.531 1372.5,793.5C 1347.34,792.337 1322,792.17 1296.5,793C 1291.42,793.037 1286.75,794.203 1282.5,796.5C 1274.46,796.91 1266.46,797.743 1258.5,799C 1238.31,805.634 1217.98,811.634 1197.5,817C 1178.19,818.194 1158.86,818.861 1139.5,819C 1135.18,822.789 1131.68,827.289 1129,832.5C 1120.93,841.565 1113.26,850.898 1106,860.5C 1099.7,865.801 1093.7,871.468 1088,877.5C 1087.33,901.167 1087.33,924.833 1088,948.5C 1089.63,953.102 1091.8,957.435 1094.5,961.5C 1090.04,967.119 1086.21,973.119 1083,979.5C 1070.26,991.968 1060.76,1006.63 1054.5,1023.5C 1051.5,1023.5 1048.5,1023.5 1045.5,1023.5C 1045.08,1022.78 1044.42,1022.28 1043.5,1022C 1024.82,1021.71 1006.16,1021.21 987.5,1020.5C 981.206,1019.45 974.872,1018.62 968.5,1018C 923.471,1017 878.471,1017.67 833.5,1020C 827.109,1020.86 821.442,1023.36 816.5,1027.5C 815.522,1027.02 814.689,1026.36 814,1025.5C 810.55,1018.11 806.55,1011.11 802,1004.5C 801.111,997.389 802.444,990.722 806,984.5C 807.581,955.19 807.914,925.857 807,896.5C 806.087,889.768 803.254,884.101 798.5,879.5C 809.047,860.079 819.88,840.746 831,821.5C 833.717,813.732 836.717,806.065 840,798.5C 840.248,795.081 840.748,791.747 841.5,788.5C 842.664,760.336 842.83,732.003 842,703.5C 841.814,700.964 841.314,698.631 840.5,696.5C 839.977,685.05 837.477,674.05 833,663.5C 832.231,646.067 823.398,635.233 806.5,631C 803.872,629.374 801.539,627.374 799.5,625C 797.753,624.648 796.086,624.148 794.5,623.5C 791.442,621.868 788.109,620.701 784.5,620C 764.836,619.5 745.169,619.333 725.5,619.5C 723.537,618.04 721.704,616.373 720,614.5C 719.667,595.5 719.333,576.5 719,557.5C 716.463,550.092 712.629,543.426 707.5,537.5C 693.599,525.715 678.266,516.215 661.5,509C 641.54,504.176 621.54,499.676 601.5,495.5C 605.303,484.925 608.803,474.258 612,463.5C 612.667,438.167 612.667,412.833 612,387.5C 610.248,381.988 607.914,376.654 605,371.5C 600.57,366.614 595.903,361.947 591,357.5C 590.751,354.823 589.751,352.49 588,350.5C 582.923,344.918 577.423,339.918 571.5,335.5C 579.722,327.448 587.388,318.948 594.5,310C 602.833,303 611.167,296 619.5,289C 625.384,284.942 631.384,281.109 637.5,277.5C 641.345,279.283 645.345,280.783 649.5,282C 657.167,282.333 664.833,282.667 672.5,283C 680.955,285.642 689.621,287.308 698.5,288C 726.839,288.833 755.173,288.667 783.5,287.5C 787.878,286.477 791.878,284.644 795.5,282C 802.12,275.206 808.454,268.206 814.5,261C 852.104,263.625 888.77,259.291 924.5,248C 933.909,246.257 943.242,244.59 952.5,243C 960.733,240.145 969.066,237.478 977.5,235C 996.253,224.582 1010.59,209.915 1020.5,191C 1025.64,190.133 1030.64,188.799 1035.5,187C 1037.5,186.333 1039.5,186.333 1041.5,187C 1044.2,189.04 1046.86,191.04 1049.5,193C 1059.05,202.554 1068.55,212.054 1078,221.5C 1078.91,223.659 1079.75,225.825 1080.5,228C 1088.7,233.595 1097.03,238.929 1105.5,244C 1115.12,248.323 1124.79,252.656 1134.5,257C 1141.9,259.062 1149.23,261.229 1156.5,263.5C 1167.45,264.84 1178.45,265.673 1189.5,266C 1191.46,268.333 1193.62,270.5 1196,272.5C 1196.99,275.424 1197.65,278.424 1198,281.5C 1203,290.677 1207.84,299.843 1212.5,309C 1186.87,343.772 1161.37,378.605 1136,413.5C 1129.37,421.796 1122.37,429.796 1115,437.5C 1103.92,472.545 1095.26,508.212 1089,544.5C 1086.99,549.675 1084.66,554.675 1082,559.5C 1081.33,583.167 1081.33,606.833 1082,630.5C 1083.53,632.221 1084.53,634.221 1085,636.5C 1091.15,640.164 1096.65,644.664 1101.5,650C 1112,655.918 1122.67,661.251 1133.5,666C 1147.59,677.873 1163.25,686.873 1180.5,693C 1205.5,693.667 1230.5,693.667 1255.5,693C 1260.64,690.763 1265.98,689.096 1271.5,688C 1296.65,675.013 1320.65,660.18 1343.5,643.5C 1345.4,645.616 1347.73,646.949 1350.5,647.5 Z"/></g>
<g><path style="opacity:1" fill="#877451" d="M 970.5,187.5 C 968.1,190.903 965.1,193.57 961.5,195.5C 963.9,192.097 966.9,189.43 970.5,187.5 Z"/></g>
<g><path style="opacity:1" fill="#7a674a" d="M 936.5,208.5 C 934.485,209.924 932.152,210.59 929.5,210.5C 931.515,209.076 933.848,208.41 936.5,208.5 Z"/></g>
<g><path style="opacity:1" fill="#7d6a4c" d="M 929.5,210.5 C 927.898,212.074 925.898,212.741 923.5,212.5C 925.102,210.926 927.102,210.259 929.5,210.5 Z"/></g>
<g><path style="opacity:1" fill="#786549" d="M 922.5,212.5 C 919.781,213.913 916.781,214.58 913.5,214.5C 916.219,213.087 919.219,212.42 922.5,212.5 Z"/></g>
<g><path style="opacity:1" fill="#7d694b" d="M 911.5,214.5 C 909.485,215.924 907.152,216.59 904.5,216.5C 906.515,215.076 908.848,214.41 911.5,214.5 Z"/></g>
<g><path style="opacity:1" fill="#7b684a" d="M 902.5,216.5 C 898.453,218.26 894.12,219.26 889.5,219.5C 893.547,217.74 897.88,216.74 902.5,216.5 Z"/></g>
<g><path style="opacity:1" fill="#5c4838" d="M 804.5,226.5 C 819.426,228.227 834.426,228.894 849.5,228.5C 848.048,229.302 846.382,229.802 844.5,230C 830.79,231.425 817.456,230.259 804.5,226.5 Z"/></g>
<g><path style="opacity:1" fill="#6a5741" d="M 1173.5,228.5 C 1177.92,228.861 1181.92,230.194 1185.5,232.5C 1181.22,231.739 1177.22,230.405 1173.5,228.5 Z"/></g>
<g><path style="opacity:1" fill="#695540" d="M 617.5,237.5 C 618.964,236.84 620.631,236.507 622.5,236.5C 625.486,236.382 628.152,237.048 630.5,238.5C 626.176,238.073 621.842,237.739 617.5,237.5 Z"/></g>
<g><path style="opacity:1" fill="#64503c" d="M 652.5,242.5 C 655.152,242.41 657.485,243.076 659.5,244.5C 656.848,244.59 654.515,243.924 652.5,242.5 Z"/></g>
<g><path style="opacity:1" fill="#6a5740" d="M 659.5,244.5 C 664.165,245.057 668.498,246.39 672.5,248.5C 667.835,247.943 663.502,246.61 659.5,244.5 Z"/></g>
<g><path style="opacity:1" fill="#746146" d="M 1227.5,250.5 C 1228.91,250.973 1229.57,251.973 1229.5,253.5C 1228.09,253.027 1227.43,252.027 1227.5,250.5 Z"/></g>
<g><path style="opacity:1" fill="#6f5b43" d="M 713.5,254.5 C 716.152,254.41 718.485,255.076 720.5,256.5C 717.848,256.59 715.515,255.924 713.5,254.5 Z"/></g>
<g><path style="opacity:1" fill="#83704f" d="M 725.5,257.5 C 733.486,258.099 741.486,258.432 749.5,258.5C 741.45,259.831 733.45,259.497 725.5,257.5 Z"/></g>
<g><path style="opacity:1" fill="#7c694b" d="M 560.5,283.5 C 559.92,285.749 558.587,287.415 556.5,288.5C 557.08,286.251 558.413,284.585 560.5,283.5 Z"/></g>
<g><path style="opacity:1" fill="#887552" d="M 548.5,296.5 C 545.833,301.167 542.167,304.833 537.5,307.5C 540.833,303.5 544.5,299.833 548.5,296.5 Z"/></g>
<g><path style="opacity:1" fill="#847150" d="M 531.5,313.5 C 529.1,316.903 526.1,319.57 522.5,321.5C 524.9,318.097 527.9,315.43 531.5,313.5 Z"/></g>
<g><path style="opacity:1" fill="#6c5942" d="M 1247.5,333.5 C 1247.57,335.027 1246.91,336.027 1245.5,336.5C 1245.43,334.973 1246.09,333.973 1247.5,333.5 Z"/></g>
<g><path style="opacity:1" fill="#7b684b" d="M 508.5,335.5 C 507.92,337.749 506.587,339.415 504.5,340.5C 505.08,338.251 506.413,336.585 508.5,335.5 Z"/></g>
<g><path style="opacity:1" fill="#624d3b" d="M 1229.5,360.5 C 1228.92,362.749 1227.59,364.415 1225.5,365.5C 1226.08,363.251 1227.41,361.585 1229.5,360.5 Z"/></g>
<g><path style="opacity:1" fill="#604c3a" d="M 579.5,413.5 C 580.793,414.842 581.626,416.509 582,418.5C 582.814,423.02 582.647,427.354 581.5,431.5C 581.822,425.346 581.155,419.346 579.5,413.5 Z"/></g>
<g><path style="opacity:1" fill="#634f3c" d="M 1146.5,468.5 C 1145.49,470.544 1144.49,472.544 1143.5,474.5C 1143.02,471.687 1144.02,469.687 1146.5,468.5 Z"/></g>
<g><path style="opacity:1" fill="#6a5640" d="M 1141.5,481.5 C 1141.59,484.152 1140.92,486.485 1139.5,488.5C 1139.41,485.848 1140.08,483.515 1141.5,481.5 Z"/></g>
<g><path style="opacity:1" fill="#5f4b3a" d="M 566.5,502.5 C 568.602,509.55 569.602,516.883 569.5,524.5C 568.015,517.366 567.015,510.033 566.5,502.5 Z"/></g>
<g><path style="opacity:1" fill="#6e5b43" d="M 569.5,524.5 C 572.152,524.41 574.485,525.076 576.5,526.5C 573.772,526.829 571.438,526.163 569.5,524.5 Z"/></g>
<g><path style="opacity:1" fill="#5c4838" d="M 577.5,526.5 C 582.445,527.233 587.112,528.566 591.5,530.5C 586.46,530.077 581.793,528.744 577.5,526.5 Z"/></g>
<g><path style="opacity:1" fill="#725e45" d="M 1130.5,523.5 C 1130.59,526.152 1129.92,528.485 1128.5,530.5C 1128.41,527.848 1129.08,525.515 1130.5,523.5 Z"/></g>
<g><path style="opacity:1" fill="#5f4b3a" d="M 1125.5,548.5 C 1125.87,553.911 1124.87,558.911 1122.5,563.5C 1122.88,558.256 1123.88,553.256 1125.5,548.5 Z"/></g>
<g><path style="opacity:1" fill="#7a664a" d="M 1561.5,568.5 C 1564.15,568.41 1566.49,569.076 1568.5,570.5C 1565.77,570.829 1563.44,570.163 1561.5,568.5 Z"/></g>
<g><path style="opacity:1" fill="#65513d" d="M 1121.5,567.5 C 1121.95,570.01 1121.28,572.01 1119.5,573.5C 1119.59,571.214 1120.26,569.214 1121.5,567.5 Z"/></g>
<g><path style="opacity:1" fill="#725f45" d="M 1569.5,571.5 C 1571.28,574.505 1572.28,577.838 1572.5,581.5C 1570.72,578.495 1569.72,575.162 1569.5,571.5 Z"/></g>
<g><path style="opacity:1" fill="#7d694b" d="M 1452.5,580.5 C 1451.51,582.408 1449.85,583.408 1447.5,583.5C 1448.66,581.75 1450.33,580.75 1452.5,580.5 Z"/></g>
<g><path style="opacity:1" fill="#6d5942" d="M 1113.5,587.5 C 1112.95,590.807 1112.62,594.14 1112.5,597.5C 1111.84,596.378 1111.51,595.045 1111.5,593.5C 1111.36,591.117 1112.03,589.117 1113.5,587.5 Z"/></g>
<g><path style="opacity:1" fill="#68553f" d="M 1576.5,591.5 C 1578.45,593.32 1579.45,595.654 1579.5,598.5C 1577.93,596.491 1576.93,594.157 1576.5,591.5 Z"/></g>
<g><path style="opacity:1" fill="#ad9671" d="M 725.5,619.5 C 745.169,619.333 764.836,619.5 784.5,620C 788.109,620.701 791.442,621.868 794.5,623.5C 790.778,622.983 787.112,622.15 783.5,621C 763.996,620.832 744.662,620.332 725.5,619.5 Z"/></g>
<g><path style="opacity:1" fill="#776448" d="M 1582.5,607.5 C 1585.41,614.216 1587.74,621.216 1589.5,628.5C 1586.19,621.915 1583.86,614.915 1582.5,607.5 Z"/></g>
<g><path style="opacity:1" fill="#a9936e" d="M 1546.5,633.5 C 1546.2,636.522 1545.7,639.522 1545,642.5C 1544.5,664.497 1544.33,686.497 1544.5,708.5C 1543.34,686.337 1543.17,664.004 1544,641.5C 1544.28,638.543 1545.11,635.877 1546.5,633.5 Z"/></g>
<g><path style="opacity:1" fill="#ac9671" d="M 1350.5,647.5 C 1374.14,648.46 1397.81,648.793 1421.5,648.5C 1398.67,649.663 1375.67,649.83 1352.5,649C 1351.58,648.722 1350.92,648.222 1350.5,647.5 Z"/></g>
<g><path style="opacity:1" fill="#7e6b4c" d="M 769.5,656.5 C 771.749,657.08 773.415,658.413 774.5,660.5C 772.251,659.92 770.585,658.587 769.5,656.5 Z"/></g>
<g><path style="opacity:1" fill="#624e3c" d="M 1199.5,658.5 C 1201.9,658.259 1203.9,658.926 1205.5,660.5C 1203.1,660.741 1201.1,660.074 1199.5,658.5 Z"/></g>
<g><path style="opacity:1" fill="#65513d" d="M 1580.5,654.5 C 1579.36,659.422 1577.7,664.089 1575.5,668.5C 1576,663.331 1577.67,658.664 1580.5,654.5 Z"/></g>
<g><path style="opacity:1" fill="#614d3b" d="M 1205.5,660.5 C 1211.35,662.155 1217.35,662.822 1223.5,662.5C 1220.71,663.477 1217.71,663.81 1214.5,663.5C 1211.08,663.472 1208.08,662.472 1205.5,660.5 Z"/></g>
<g><path style="opacity:1" fill="#8a7753" d="M 1240.5,657.5 C 1240.53,658.497 1240.03,659.164 1239,659.5C 1231.13,663.666 1222.96,665 1214.5,663.5C 1217.71,663.81 1220.71,663.477 1223.5,662.5C 1229.29,661.21 1234.95,659.543 1240.5,657.5 Z"/></g>
<g><path style="opacity:1" fill="#614d3b" d="M 798.5,679.5 C 800.585,681.684 801.585,684.351 801.5,687.5C 799.415,685.316 798.415,682.649 798.5,679.5 Z"/></g>
<g><path style="opacity:1" fill="#624e3c" d="M 802.5,691.5 C 804.318,694.844 805.318,698.511 805.5,702.5C 803.517,699.201 802.517,695.534 802.5,691.5 Z"/></g>
<g><path style="opacity:1" fill="#ab956f" d="M 840.5,696.5 C 841.314,698.631 841.814,700.964 842,703.5C 842.83,732.003 842.664,760.336 841.5,788.5C 841.733,757.823 841.4,727.156 840.5,696.5 Z"/></g>
<g><path style="opacity:1" fill="#7a674a" d="M 1585.5,717.5 C 1586.87,719.936 1587.87,722.603 1588.5,725.5C 1586.35,723.383 1585.35,720.716 1585.5,717.5 Z"/></g>
<g><path style="opacity:1" fill="#594536" d="M 808.5,716.5 C 809.738,720.619 810.571,724.953 811,729.5C 811.825,739.342 811.658,749.009 810.5,758.5C 810.794,744.443 810.128,730.443 808.5,716.5 Z"/></g>
<g><path style="opacity:1" fill="#7f6c4d" d="M 805.5,778.5 C 805.248,782.327 803.915,785.66 801.5,788.5C 801.752,784.673 803.085,781.34 805.5,778.5 Z"/></g>
<g><path style="opacity:1" fill="#a7926b" d="M 1372.5,793.5 C 1347.83,793.333 1323.16,793.5 1298.5,794C 1293.1,794.528 1287.76,795.361 1282.5,796.5C 1286.75,794.203 1291.42,793.037 1296.5,793C 1322,792.17 1347.34,792.337 1372.5,793.5 Z"/></g>
<g><path style="opacity:1" fill="#867451" d="M 1615.5,767.5 C 1617.29,771.265 1618.79,775.265 1620,779.5C 1620.5,786.158 1620.67,792.825 1620.5,799.5C 1620.17,799.5 1619.83,799.5 1619.5,799.5C 1619.67,793.158 1619.5,786.825 1619,780.5C 1617.05,776.371 1615.88,772.037 1615.5,767.5 Z"/></g>
<g><path style="opacity:1" fill="#604c3a" d="M 1619.5,799.5 C 1619.83,799.5 1620.17,799.5 1620.5,799.5C 1618.94,807.168 1616.61,814.501 1613.5,821.5C 1615.29,814.116 1617.29,806.782 1619.5,799.5 Z"/></g>
<g><path style="opacity:1" fill="#6d5a42" d="M 1326.5,823.5 C 1330.98,822.352 1335.65,822.185 1340.5,823C 1341.42,823.278 1342.08,823.778 1342.5,824.5C 1337.21,823.658 1331.88,823.324 1326.5,823.5 Z"/></g>
<g><path style="opacity:1" fill="#5d4938" d="M 1325.5,824.5 C 1320.2,826.875 1314.53,827.875 1308.5,827.5C 1313.84,825.367 1319.51,824.367 1325.5,824.5 Z"/></g>
<g><path style="opacity:1" fill="#5d4938" d="M 1271.5,835.5 C 1265.5,838.276 1259.17,840.276 1252.5,841.5C 1258.5,838.724 1264.83,836.724 1271.5,835.5 Z"/></g>
<g><path style="opacity:1" fill="#6d5a42" d="M 773.5,838.5 C 773.573,840.027 772.906,841.027 771.5,841.5C 771.427,839.973 772.094,838.973 773.5,838.5 Z"/></g>
<g><path style="opacity:1" fill="#796649" d="M 1613.5,835.5 C 1614.92,837.515 1615.59,839.848 1615.5,842.5C 1613.84,840.562 1613.17,838.228 1613.5,835.5 Z"/></g>
<g><path style="opacity:1" fill="#5a4537" d="M 1225.5,847.5 C 1219.85,849.776 1213.85,850.776 1207.5,850.5C 1213.31,849.143 1219.31,848.143 1225.5,847.5 Z"/></g>
<g><path style="opacity:1" fill="#64503c" d="M 1170.5,850.5 C 1180.65,850.06 1190.99,850.06 1201.5,850.5C 1191.33,851.483 1181,851.483 1170.5,850.5 Z"/></g>
<g><path style="opacity:1" fill="#806d4e" d="M 762.5,860.5 C 763.074,866.484 763.407,872.484 763.5,878.5C 762.579,874.015 761.912,869.349 761.5,864.5C 761.511,862.955 761.844,861.622 762.5,860.5 Z"/></g>
<g><path style="opacity:1" fill="#624d3b" d="M 1142.5,884.5 C 1141.92,886.749 1140.59,888.415 1138.5,889.5C 1139.08,887.251 1140.41,885.585 1142.5,884.5 Z"/></g>
<g><path style="opacity:1" fill="#67533e" d="M 1410.5,878.5 C 1411.79,879.842 1412.63,881.509 1413,883.5C 1413.67,889.5 1413.67,895.5 1413,901.5C 1412.72,902.416 1412.22,903.082 1411.5,903.5C 1413.07,895.051 1412.74,886.718 1410.5,878.5 Z"/></g>
<g><path style="opacity:1" fill="#5d4838" d="M 1119.5,908.5 C 1119.28,913.23 1119.62,917.897 1120.5,922.5C 1119.88,922.389 1119.38,922.056 1119,921.5C 1118.19,916.98 1118.35,912.646 1119.5,908.5 Z"/></g>
<g><path style="opacity:1" fill="#736045" d="M 773.5,918.5 C 774.906,918.973 775.573,919.973 775.5,921.5C 774.094,921.027 773.427,920.027 773.5,918.5 Z"/></g>
<g><path style="opacity:1" fill="#7f6c4d" d="M 776.5,925.5 C 777.935,928.55 778.602,931.883 778.5,935.5C 778.495,937.696 778.162,939.696 777.5,941.5C 777.815,937.629 777.482,933.962 776.5,930.5C 776.5,928.833 776.5,927.167 776.5,925.5 Z"/></g>
<g><path style="opacity:1" fill="#5d4838" d="M 1735.5,941.5 C 1742.3,941.791 1748.63,943.457 1754.5,946.5C 1748.01,944.996 1741.68,943.33 1735.5,941.5 Z"/></g>
<g><path style="opacity:1" fill="#65523e" d="M 776.5,930.5 C 777.482,933.962 777.815,937.629 777.5,941.5C 777.678,945.122 777.011,948.456 775.5,951.5C 776.29,944.529 776.623,937.529 776.5,930.5 Z"/></g>
<g><path style="opacity:1" fill="#6e5a42" d="M 1762.5,949.5 C 1764.9,949.259 1766.9,949.926 1768.5,951.5C 1766.21,951.405 1764.21,950.738 1762.5,949.5 Z"/></g>
<g><path style="opacity:1" fill="#756147" d="M 1138.5,946.5 C 1140.07,948.102 1140.74,950.102 1140.5,952.5C 1138.93,950.898 1138.26,948.898 1138.5,946.5 Z"/></g>
<g><path style="opacity:1" fill="#614d3b" d="M 1762.5,956.5 C 1759.46,959.193 1755.79,960.193 1751.5,959.5C 1754.91,957.926 1758.57,956.926 1762.5,956.5 Z"/></g>
<g><path style="opacity:1" fill="#7d6a4c" d="M 1144.5,966.5 C 1146.06,968.491 1147.06,970.824 1147.5,973.5C 1147.25,974.713 1146.59,975.38 1145.5,975.5C 1145.8,974.85 1146.14,974.183 1146.5,973.5C 1145.05,971.382 1144.39,969.049 1144.5,966.5 Z"/></g>
<g><path style="opacity:1" fill="#735f45" d="M 1593.5,996.5 C 1586.5,995.167 1579.5,995.167 1572.5,996.5C 1575.7,994.97 1579.2,994.304 1583,994.5C 1586.8,994.304 1590.3,994.97 1593.5,996.5 Z"/></g>
<g><path style="opacity:1" fill="#7a674a" d="M 1611.5,999.5 C 1614.5,999.294 1617.16,999.96 1619.5,1001.5C 1616.57,1001.43 1613.91,1000.77 1611.5,999.5 Z"/></g>
<g><path style="opacity:1" fill="#776348" d="M 1626.5,1002.5 C 1630.48,1002.74 1634.15,1003.74 1637.5,1005.5C 1633.52,1005.26 1629.85,1004.26 1626.5,1002.5 Z"/></g>
<g><path style="opacity:1" fill="#796649" d="M 763.5,991.5 C 761.978,997.045 761.312,1002.71 761.5,1008.5C 759.886,1002.6 760.552,996.935 763.5,991.5 Z"/></g>
<g><path style="opacity:1" fill="#ab956e" d="M 987.5,1020.5 C 1006.16,1021.21 1024.82,1021.71 1043.5,1022C 1044.42,1022.28 1045.08,1022.78 1045.5,1023.5C 1028.18,1022.77 1010.85,1022.27 993.5,1022C 991.292,1021.81 989.292,1021.31 987.5,1020.5 Z"/></g>
<g><path style="opacity:1" fill="#67533e" d="M 941.5,1048.5 C 922.501,1048.86 903.501,1049.19 884.5,1049.5C 884.5,1049.17 884.5,1048.83 884.5,1048.5C 903.667,1047.64 922.667,1047.64 941.5,1048.5 Z"/></g>
<g><path style="opacity:1" fill="#776448" d="M 884.5,1048.5 C 884.5,1048.83 884.5,1049.17 884.5,1049.5C 877.132,1049.32 869.799,1049.65 862.5,1050.5C 863.263,1049.73 864.263,1049.23 865.5,1049C 871.825,1048.5 878.158,1048.33 884.5,1048.5 Z"/></g>
<g><path style="opacity:1" fill="#7b684a" d="M 941.5,1048.5 C 945.182,1048.33 948.848,1048.5 952.5,1049C 953.737,1049.23 954.737,1049.73 955.5,1050.5C 950.609,1050.47 945.943,1049.8 941.5,1048.5 Z"/></g>
<g><path style="opacity:1" fill="#7e6c4d" d="M 955.5,1050.5 C 961.871,1050.06 967.871,1051.06 973.5,1053.5C 967.274,1053.07 961.274,1052.07 955.5,1050.5 Z"/></g>
<g><path style="opacity:1" fill="#887552" d="M 993.5,1052.5 C 999.987,1051.35 1006.65,1051.18 1013.5,1052C 1014.74,1052.23 1015.74,1052.73 1016.5,1053.5C 1008.87,1052.64 1001.2,1052.31 993.5,1052.5 Z"/></g>
<g><path style="opacity:1" fill="#786449" d="M 1039.5,1055.5 C 1044.52,1055.61 1049.52,1055.95 1054.5,1056.5C 1053.55,1057.15 1052.38,1057.49 1051,1057.5C 1046.98,1057.11 1043.14,1056.44 1039.5,1055.5 Z"/></g>
<g><path style="opacity:1" fill="#7c694b" d="M 1085.5,1054.5 C 1084.96,1056.12 1084.63,1057.78 1084.5,1059.5C 1082.59,1059.78 1080.92,1059.45 1079.5,1058.5C 1080.83,1058.5 1082.17,1058.5 1083.5,1058.5C 1083.23,1056.62 1083.9,1055.29 1085.5,1054.5 Z"/></g>
</svg>
