<?xml version="1.0" encoding="UTF-8"?>
<!DOCTYPE svg PUBLIC "-//W3C//DTD SVG 1.1//EN" "http://www.w3.org/Graphics/SVG/1.1/DTD/svg11.dtd">
<svg xmlns="http://www.w3.org/2000/svg" version="1.1" width="2296px" height="1221px" style="shape-rendering:geometricPrecision; text-rendering:geometricPrecision; image-rendering:optimizeQuality; fill-rule:evenodd; clip-rule:evenodd" xmlns:xlink="http://www.w3.org/1999/xlink">
<g><path style="opacity:0.965" fill="#48332c" d="M 769.5,157.5 C 785.165,158.608 800.832,159.775 816.5,161C 819.661,162.413 822.661,164.08 825.5,166C 829.94,171.042 834.94,175.375 840.5,179C 854.692,186.257 868.358,194.257 881.5,203C 892.277,212.752 892.111,222.252 881,231.5C 877.42,240.632 876.753,249.965 879,259.5C 896.532,279.439 918.032,284.939 943.5,276C 947.853,273.633 952.187,271.3 956.5,269C 961.507,261.942 968.174,259.776 976.5,262.5C 980.17,265.094 983.003,268.427 985,272.5C 995.266,306.665 1007.43,339.998 1021.5,372.5C 1021.26,375.656 1020.42,378.656 1019,381.5C 1005.42,400.25 989.753,417.25 972,432.5C 970.536,477.837 968.869,523.17 967,568.5C 964.927,584.679 962.76,600.846 960.5,617C 961.824,626.954 963.658,636.787 966,646.5C 978.763,665.037 991.763,683.37 1005,701.5C 1010.21,699.872 1015.38,698.039 1020.5,696C 1022.39,691.693 1024.89,687.86 1028,684.5C 1031.72,682.233 1034.89,679.4 1037.5,676C 1045.2,671.82 1052.54,667.154 1059.5,662C 1062.38,660.392 1065.38,659.059 1068.5,658C 1077.61,657.935 1086.61,656.935 1095.5,655C 1105.5,654.333 1115.5,654.333 1125.5,655C 1162.52,659.595 1199.35,665.429 1236,672.5C 1243.9,667.634 1252.06,663.134 1260.5,659C 1270.73,655.055 1281.06,651.388 1291.5,648C 1307.96,631.354 1318.79,611.521 1324,588.5C 1327.65,569.995 1329.31,551.329 1329,532.5C 1327.01,528.098 1327.18,523.765 1329.5,519.5C 1328.59,515.222 1327.92,510.889 1327.5,506.5C 1327.77,500.791 1330.44,496.624 1335.5,494C 1360.52,490.237 1384.85,483.904 1408.5,475C 1428.33,459.856 1448.99,445.856 1470.5,433C 1476.29,425.717 1483.62,423.717 1492.5,427C 1501.8,431.66 1511.13,436.327 1520.5,441C 1537.82,445.067 1554.15,451.401 1569.5,460C 1575.76,460.582 1581.59,462.415 1587,465.5C 1588.42,468.344 1589.26,471.344 1589.5,474.5C 1585.96,495.18 1586.46,515.847 1591,536.5C 1597.48,547.947 1605.32,558.447 1614.5,568C 1627.48,578.156 1640.81,587.823 1654.5,597C 1661.91,600.104 1669.58,602.438 1677.5,604C 1689.91,604.944 1702.41,606.111 1715,607.5C 1740.56,606.095 1766.06,603.928 1791.5,601C 1806.52,600.233 1821.52,599.566 1836.5,599C 1841.46,601.147 1846.13,603.814 1850.5,607C 1857.16,607.823 1863.16,610.157 1868.5,614C 1874.52,623.163 1882.02,630.997 1891,637.5C 1895.31,645.384 1893.98,652.051 1887,657.5C 1876.74,677.011 1866.74,696.677 1857,716.5C 1852.95,720.216 1848.62,723.55 1844,726.5C 1838.37,724.646 1832.54,723.479 1826.5,723C 1795.24,719.807 1763.91,718.807 1732.5,720C 1723.35,720.896 1714.35,722.563 1705.5,725C 1689.24,729.986 1672.91,734.652 1656.5,739C 1644.83,739.667 1633.17,739.667 1621.5,739C 1608.23,735.364 1595.4,730.864 1583,725.5C 1555.69,731.922 1529.86,741.755 1505.5,755C 1490.64,764.595 1475.64,773.928 1460.5,783C 1461.54,784.901 1462.7,786.735 1464,788.5C 1468.05,804.268 1474.05,819.268 1482,833.5C 1482.95,839.373 1482.28,845.04 1480,850.5C 1474.65,856.546 1469.98,863.212 1466,870.5C 1458.58,874.128 1451.08,877.628 1443.5,881C 1420.12,887.238 1397.28,895.072 1375,904.5C 1374.23,904.355 1373.56,904.022 1373,903.5C 1368.66,894.289 1362.16,887.122 1353.5,882C 1342.25,877.889 1331.91,879.389 1322.5,886.5C 1286.73,866.794 1248.73,852.961 1208.5,845C 1195.83,843 1183.17,841 1170.5,839C 1164.5,838.333 1158.5,838.333 1152.5,839C 1140.56,842.57 1128.89,846.903 1117.5,852C 1098.67,870.167 1079.83,888.333 1061,906.5C 1042.73,932.437 1020.23,953.937 993.5,971C 988.198,973.651 982.864,976.318 977.5,979C 979.041,980.579 980.208,982.413 981,984.5C 982.085,989.437 982.752,994.437 983,999.5C 985.909,1006.32 989.576,1012.66 994,1018.5C 996.914,1026.02 995.414,1032.52 989.5,1038C 981.612,1043.02 974.445,1048.85 968,1055.5C 967.667,1056.5 967.333,1057.5 967,1058.5C 963.5,1061.33 960,1064.17 956.5,1067C 949.265,1068.59 943.265,1066.59 938.5,1061C 918.24,1054.14 897.907,1047.47 877.5,1041C 874.167,1040.33 870.833,1039.67 867.5,1039C 849.167,1038.33 830.833,1038.33 812.5,1039C 797.598,1042.48 782.598,1045.48 767.5,1048C 764.833,1048.67 762.167,1049.33 759.5,1050C 750.078,1056.43 740.411,1062.43 730.5,1068C 721.833,1070.38 714.833,1068.05 709.5,1061C 691.101,1058.37 686.434,1048.87 695.5,1032.5C 693.463,1024.62 691.963,1016.62 691,1008.5C 682.033,985.192 665.199,972.025 640.5,969C 615.745,965.664 590.745,966.664 565.5,972C 551.749,977.375 538.749,984.041 526.5,992C 520.915,993.186 515.249,993.852 509.5,994C 507.167,996.333 504.833,998.667 502.5,1001C 493.945,1007.41 486.112,1006.57 479,998.5C 467.213,980.89 451.379,968.223 431.5,960.5C 427.621,957.409 425.288,953.409 424.5,948.5C 426.874,935.528 432.04,923.861 440,913.5C 452.146,900.801 464.979,888.634 478.5,877C 481.167,875.333 483.833,873.667 486.5,872C 490.771,870.992 494.771,871.492 498.5,873.5C 517.449,869.035 531.616,858.368 541,841.5C 541.545,835.016 543.545,829.016 547,823.5C 551.436,820.697 555.603,817.531 559.5,814C 558.809,812.933 558.309,811.766 558,810.5C 557.333,805.5 557.333,800.5 558,795.5C 562.755,788.324 567.755,781.324 573,774.5C 577.528,761.12 575.028,749.287 565.5,739C 556.154,736.517 546.821,733.85 537.5,731C 531.947,728.39 526.281,726.057 520.5,724C 517.268,722.77 514.601,720.77 512.5,718C 505.873,716.465 499.206,716.465 492.5,718C 486.049,721.226 479.382,723.893 472.5,726C 464.872,731.96 457.538,738.293 450.5,745C 444.675,747.923 438.675,748.256 432.5,746C 420.035,735.602 407.035,725.936 393.5,717C 391.043,714.085 389.376,710.752 388.5,707C 391.954,697.356 395.787,687.856 400,678.5C 402.05,671.314 403.217,663.981 403.5,656.5C 403.168,638.145 399.668,620.478 393,603.5C 391.431,599.928 389.098,596.928 386,594.5C 385.333,590.5 385.333,586.5 386,582.5C 386.465,581.069 387.299,579.903 388.5,579C 398.278,574.611 407.945,569.944 417.5,565C 420.167,564.333 422.833,564.333 425.5,565C 443.226,581.036 462.893,594.369 484.5,605C 501.621,611.813 519.287,613.48 537.5,610C 540.52,608.3 543.52,606.634 546.5,605C 554.636,595.863 563.136,587.03 572,578.5C 577.868,570.1 582.701,561.1 586.5,551.5C 584.461,546.178 583.128,540.678 582.5,535C 582.637,532.102 583.137,529.269 584,526.5C 590.43,515.595 598.43,505.928 608,497.5C 613.249,491.17 616.749,484.003 618.5,476C 617.004,468.521 615.67,461.021 614.5,453.5C 614.643,442.857 619.976,436.69 630.5,435C 638.202,434.706 645.869,434.04 653.5,433C 655.976,431.691 657.976,429.858 659.5,427.5C 657.684,425.183 655.684,423.016 653.5,421C 647.663,417.582 641.996,413.916 636.5,410C 626.061,408.347 620.228,402.181 619,391.5C 617.086,382.158 619.086,373.824 625,366.5C 633.149,356.602 642.815,348.602 654,342.5C 660.295,331.87 660.962,320.87 656,309.5C 648.592,307.762 643.259,303.429 640,296.5C 639.667,289.833 639.333,283.167 639,276.5C 639.037,271.577 637.203,267.577 633.5,264.5C 626.524,266.666 619.524,266.833 612.5,265C 607.813,260.457 603.98,255.291 601,249.5C 587.031,237.602 570.864,232.102 552.5,233C 548.743,236.744 544.41,239.744 539.5,242C 534.389,243.111 529.722,242.111 525.5,239C 520.027,229.876 514.194,221.043 508,212.5C 502.95,205.869 502.45,199.036 506.5,192C 526.654,183.045 547.654,177.712 569.5,176C 580.233,184.03 592.233,189.364 605.5,192C 618.561,191.518 631.561,190.518 644.5,189C 652.212,193.856 660.212,198.19 668.5,202C 684.606,206.992 700.773,211.825 717,216.5C 725.858,212.32 734.358,207.487 742.5,202C 747.974,196.861 753.474,191.695 759,186.5C 760.5,184.333 762,182.167 763.5,180C 759.883,176.941 758.383,173.108 759,168.5C 762.704,164.964 766.204,161.298 769.5,157.5 Z"/></g>
<g><path style="opacity:1" fill="#9c8a5e" d="M 809.5,183.5 C 823.568,196.049 839.235,206.382 856.5,214.5C 852.543,220.54 850.376,227.207 850,234.5C 849.353,242.189 849.52,249.856 850.5,257.5C 850.345,260.716 851.345,263.383 853.5,265.5C 856.533,271.042 860.533,275.876 865.5,280C 874.707,285.185 884.041,290.185 893.5,295C 907.763,299.302 922.097,299.469 936.5,295.5C 939.495,295.706 942.162,295.04 944.5,293.5C 950.167,292.167 955.833,290.833 961.5,289.5C 964.167,289.167 966.833,288.833 969.5,288.5C 969.263,289.791 969.596,290.791 970.5,291.5C 972.509,302.207 974.842,312.873 977.5,323.5C 977.41,326.152 978.076,328.485 979.5,330.5C 984.373,343.604 989.373,356.771 994.5,370C 982.592,388.243 967.592,403.576 949.5,416C 947.959,417.579 946.792,419.413 946,421.5C 945.958,430.154 946.124,438.82 946.5,447.5C 944.639,474.135 943.639,500.801 943.5,527.5C 942.361,537.651 941.694,547.984 941.5,558.5C 940.542,571.539 939.209,584.539 937.5,597.5C 935.81,605.645 934.477,613.978 933.5,622.5C 932.504,627.826 931.504,633.159 930.5,638.5C 930.295,641.795 931.128,644.795 933,647.5C 945.533,663.027 956.866,679.361 967,696.5C 977.736,708.733 987.903,721.4 997.5,734.5C 1004.52,735.732 1011.52,735.566 1018.5,734C 1028.01,730.72 1037.67,728.053 1047.5,726C 1049.05,724.178 1049.71,722.011 1049.5,719.5C 1048.35,715.222 1047.85,710.888 1048,706.5C 1061.15,682.84 1081.31,671.507 1108.5,672.5C 1116.19,673.021 1123.85,673.687 1131.5,674.5C 1134.95,675.687 1138.61,676.354 1142.5,676.5C 1168.27,679.763 1193.94,683.763 1219.5,688.5C 1227.53,690.867 1235.87,691.867 1244.5,691.5C 1248.94,691.79 1253.27,691.29 1257.5,690C 1267.92,684.858 1278.26,679.525 1288.5,674C 1296.37,666.461 1304.54,659.294 1313,652.5C 1328.38,634.066 1338.72,613.066 1344,589.5C 1346.58,569.823 1349.25,550.156 1352,530.5C 1352.5,524.843 1352.67,519.176 1352.5,513.5C 1355.83,513.167 1359.17,512.833 1362.5,512.5C 1365.23,512.829 1367.56,512.163 1369.5,510.5C 1384.3,506.513 1398.63,501.346 1412.5,495C 1428.01,486.745 1443.68,478.745 1459.5,471C 1463.92,467.575 1468.59,464.575 1473.5,462C 1486.86,461.78 1500.2,462.447 1513.5,464C 1514.5,465 1515.5,466 1516.5,467C 1530.96,475.07 1546.29,480.57 1562.5,483.5C 1562.31,499.069 1563.98,514.402 1567.5,529.5C 1567.41,532.152 1568.08,534.485 1569.5,536.5C 1573.34,548.508 1579.5,559.174 1588,568.5C 1605.18,584.826 1623.01,600.326 1641.5,615C 1655.86,622.783 1671.19,627.283 1687.5,628.5C 1694.9,630.508 1702.57,631.508 1710.5,631.5C 1723.97,632.971 1737.64,633.637 1751.5,633.5C 1758.41,633.584 1765.25,632.917 1772,631.5C 1782.08,633.392 1792.24,634.392 1802.5,634.5C 1816.46,632.941 1830.46,632.441 1844.5,633C 1853.32,638.397 1861.32,644.731 1868.5,652C 1859.65,669.531 1850.65,687.031 1841.5,704.5C 1840.33,704.833 1839.17,705.167 1838,705.5C 1826.91,702.948 1815.74,700.781 1804.5,699C 1786.02,692.551 1767.36,687.385 1748.5,683.5C 1744.85,682.835 1741.02,682.501 1737,682.5C 1731.57,682.281 1726.4,682.948 1721.5,684.5C 1704.02,688.576 1687.68,695.409 1672.5,705C 1663.91,708.197 1655.24,711.197 1646.5,714C 1640.22,715.49 1633.89,716.157 1627.5,716C 1622.47,712.153 1617.14,708.82 1611.5,706C 1606.11,704.868 1601.11,705.702 1596.5,708.5C 1587.22,704.074 1577.55,703.241 1567.5,706C 1562.47,708.341 1557.47,710.674 1552.5,713C 1540.9,714.977 1529.57,717.977 1518.5,722C 1508.71,726.481 1499.05,731.148 1489.5,736C 1468.02,749.466 1446.02,762.132 1423.5,774C 1421,776.5 1418.5,779 1416,781.5C 1414.49,787.395 1415.66,792.561 1419.5,797C 1423.89,799.409 1428.56,800.909 1433.5,801.5C 1436.95,802.687 1440.61,803.354 1444.5,803.5C 1449.91,810.634 1451.91,818.634 1450.5,827.5C 1449.09,827.973 1448.43,828.973 1448.5,830.5C 1442.55,840.229 1436.22,849.729 1429.5,859C 1420.17,865 1410.83,871 1401.5,877C 1390.62,882.192 1381.78,880.026 1375,870.5C 1372.06,857.219 1363.9,851.386 1350.5,853C 1343.08,854.813 1335.91,857.313 1329,860.5C 1309.43,851.128 1289.59,842.461 1269.5,834.5C 1265.5,832.39 1261.16,831.057 1256.5,830.5C 1252.13,829.656 1247.79,828.656 1243.5,827.5C 1241.4,826.388 1239.07,825.721 1236.5,825.5C 1235.83,825.5 1235.17,825.5 1234.5,825.5C 1232.49,824.076 1230.15,823.41 1227.5,823.5C 1212.98,820.017 1198.32,817.184 1183.5,815C 1170.67,809.222 1157.67,809.055 1144.5,814.5C 1134.19,813.502 1123.86,812.835 1113.5,812.5C 1108.68,811.35 1103.68,811.184 1098.5,812C 1096.28,812.566 1094.28,813.4 1092.5,814.5C 1088.61,814.698 1084.61,814.864 1080.5,815C 1075.76,817.625 1072.26,821.459 1070,826.5C 1066.92,839.483 1062.92,852.149 1058,864.5C 1041.9,890.948 1022.4,914.781 999.5,936C 982.716,946.641 965.216,955.808 947,963.5C 944.626,966.801 943.96,970.467 945,974.5C 946.854,978.221 949.187,981.554 952,984.5C 953.708,988.163 954.874,991.996 955.5,996C 952.057,1006.16 948.723,1016.33 945.5,1026.5C 931.936,1020.73 918.269,1014.89 904.5,1009C 897.923,1007.4 891.256,1006.57 884.5,1006.5C 876.74,1004.66 868.74,1003.66 860.5,1003.5C 850.82,1003.52 841.153,1003.85 831.5,1004.5C 823.589,1004.08 815.923,1004.75 808.5,1006.5C 786.163,1011.11 764.83,1018.61 744.5,1029C 739.167,1032.67 733.833,1036.33 728.5,1040C 724.396,1042.31 721.062,1041.47 718.5,1037.5C 723.971,1026.66 725.471,1015.32 723,1003.5C 720.011,993.178 715.678,983.511 710,974.5C 704.86,966.847 697.693,962.68 688.5,962C 676.831,951.551 663.164,945.551 647.5,944C 621.461,940.501 595.461,940.668 569.5,944.5C 564.835,945.057 560.502,946.39 556.5,948.5C 540.723,953.534 525.389,959.534 510.5,966.5C 499.55,961.851 488.55,957.518 477.5,953.5C 476.633,943.137 475.8,932.804 475,922.5C 480.323,914.031 486.49,906.198 493.5,899C 496.339,897.08 499.339,895.413 502.5,894C 534.342,887.821 555.175,869.321 565,838.5C 572.688,832.805 580.355,827.138 588,821.5C 589.743,817.016 591.743,812.683 594,808.5C 594.667,805.167 594.667,801.833 594,798.5C 591.705,796.874 590.205,794.707 589.5,792C 595.099,782.549 596.933,772.382 595,761.5C 592.184,748.699 586.35,737.532 577.5,728C 562.693,718.947 547.026,711.614 530.5,706C 525.309,698.897 518.309,694.564 509.5,693C 503.833,692.333 498.167,692.333 492.5,693C 476.865,698.647 461.532,705.147 446.5,712.5C 439.231,705.402 431.731,698.402 424,691.5C 423.666,689.153 423.833,686.819 424.5,684.5C 427.14,679.915 428.806,674.915 429.5,669.5C 433.092,656.429 434.425,643.096 433.5,629.5C 433.59,626.848 432.924,624.515 431.5,622.5C 429.244,615.743 424.744,611.076 418,608.5C 416.306,603.612 414.472,598.778 412.5,594C 414.445,591.237 417.112,589.404 420.5,588.5C 439.27,602.557 459.603,614.057 481.5,623C 488.459,624.823 495.459,626.49 502.5,628C 515.509,627.89 528.509,627.223 541.5,626C 546.945,624.112 551.945,621.445 556.5,618C 561.562,616.318 566.562,614.485 571.5,612.5C 569.684,611.185 568.017,609.685 566.5,608C 581.082,600.754 593.249,590.587 603,577.5C 606.216,571.736 608.883,565.736 611,559.5C 611.64,550.738 611.307,542.071 610,533.5C 618.71,523.792 627.043,513.792 635,503.5C 641.122,493.306 644.289,482.306 644.5,470.5C 644.59,467.848 643.924,465.515 642.5,463.5C 642.714,461.856 642.38,460.356 641.5,459C 653.075,454.633 663.242,448.133 672,439.5C 677.281,428.877 676.281,418.877 669,409.5C 661.113,400.774 651.947,393.774 641.5,388.5C 640.054,385.178 640.554,382.178 643,379.5C 651.636,369.863 660.636,360.53 670,351.5C 677.214,337.343 679.881,322.343 678,306.5C 675.893,297.601 670.893,290.935 663,286.5C 664.363,273.534 661.697,261.534 655,250.5C 652.463,247.628 649.63,245.128 646.5,243C 638.806,242.037 631.139,241.037 623.5,240C 615.165,228.815 604.498,220.482 591.5,215C 584.833,213 578.167,211 571.5,209C 566.167,208.333 560.833,208.333 555.5,209C 549.733,212.632 543.9,216.132 538,219.5C 534.345,214.867 531.178,209.867 528.5,204.5C 538.958,202.741 548.291,198.574 556.5,192C 559.738,190.632 563.072,190.299 566.5,191C 576.273,197.61 586.939,202.11 598.5,204.5C 599.263,205.268 600.263,205.768 601.5,206C 608.346,206.821 615.013,206.654 621.5,205.5C 628.113,204.01 634.78,203.177 641.5,203C 653.539,210.938 666.539,216.938 680.5,221C 687.977,222.327 695.311,224.161 702.5,226.5C 704.515,227.924 706.848,228.59 709.5,228.5C 718.446,230.389 727.113,229.556 735.5,226C 737.657,224.019 739.324,221.686 740.5,219C 756.501,215.257 769.667,207.09 780,194.5C 781.646,192.391 782.812,190.057 783.5,187.5C 784.931,186.22 785.598,184.553 785.5,182.5C 793.475,183.276 801.475,183.61 809.5,183.5 Z"/></g>
<g><path style="opacity:1" fill="#695540" d="M 809.5,183.5 C 801.475,183.61 793.475,183.276 785.5,182.5C 785.598,184.553 784.931,186.22 783.5,187.5C 783.833,185.5 784.167,183.5 784.5,181.5C 793.017,181.732 801.35,182.399 809.5,183.5 Z"/></g>
<g><path style="opacity:1" fill="#6a5640" d="M 598.5,204.5 C 606.132,205.358 613.799,205.691 621.5,205.5C 615.013,206.654 608.346,206.821 601.5,206C 600.263,205.768 599.263,205.268 598.5,204.5 Z"/></g>
<g><path style="opacity:1" fill="#6a5640" d="M 702.5,226.5 C 705.152,226.41 707.485,227.076 709.5,228.5C 706.848,228.59 704.515,227.924 702.5,226.5 Z"/></g>
<g><path style="opacity:1" fill="#b99f7f" d="M 1203.5,781.5 C 1178,780.337 1152.34,780.17 1126.5,781C 1124.94,781.21 1123.61,781.71 1122.5,782.5C 1103.83,782.333 1085.16,782.5 1066.5,783C 1059.72,783.857 1053.06,785.19 1046.5,787C 1043.71,790.081 1041.54,793.581 1040,797.5C 1036.69,815.099 1030.36,831.432 1021,846.5C 1006.41,867.77 989.576,887.27 970.5,905C 967.167,907.333 963.833,909.667 960.5,912C 950.786,917.857 940.786,923.191 930.5,928C 922.908,927.378 917.741,930.544 915,937.5C 914.5,950.496 914.333,963.496 914.5,976.5C 869.869,974.013 825.202,973.846 780.5,976C 771.444,977.978 762.444,980.144 753.5,982.5C 751.755,964.519 744.755,949.019 732.5,936C 728.768,934.031 724.768,933.031 720.5,933C 705.587,920.466 688.254,913.8 668.5,913C 634.514,911.81 600.514,911.143 566.5,911C 580.269,900.631 589.435,887.131 594,870.5C 601.456,863.702 609.456,857.702 618,852.5C 619.19,847.787 621.19,843.453 624,839.5C 625.791,802.154 625.791,764.821 624,727.5C 620.205,715.083 613.705,704.25 604.5,695C 590.287,688.267 575.954,681.934 561.5,676C 554.48,667.657 545.48,663.324 534.5,663C 510.803,662.197 487.136,662.363 463.5,663.5C 463.5,661.167 463.5,658.833 463.5,656.5C 499.163,657.906 534.83,657.739 570.5,656C 577.219,654.323 583.219,651.323 588.5,647C 592.531,645.827 596.531,644.66 600.5,643.5C 600.183,640.428 600.516,637.428 601.5,634.5C 631.401,619.757 644.901,595.757 642,562.5C 647.54,555.279 653.54,548.279 660,541.5C 672.007,525.489 676.673,507.489 674,487.5C 684.422,483.622 693.756,477.956 702,470.5C 702.667,469.167 703.333,467.833 704,466.5C 705.628,441.883 705.961,417.216 705,392.5C 703.989,388.632 702.489,384.966 700.5,381.5C 704.582,372.259 707.082,362.593 708,352.5C 708.667,328.167 708.667,303.833 708,279.5C 706.946,271.289 703.446,264.456 697.5,259C 719.884,258.957 742.217,258.291 764.5,257C 767.157,254.041 769.824,251.041 772.5,248C 784.373,244.982 794.873,239.482 804,231.5C 808.668,235.003 813.668,238.003 819,240.5C 819.186,255.859 819.852,271.192 821,286.5C 822.405,296.481 827.238,304.314 835.5,310C 846.42,317.645 858.42,322.978 871.5,326C 895.138,327.403 918.804,327.903 942.5,327.5C 944.012,336.224 945.845,344.891 948,353.5C 948.667,355.833 948.667,358.167 948,360.5C 939.726,369.78 930.559,377.947 920.5,385C 918.383,386.731 916.883,388.898 916,391.5C 916.037,437.546 914.704,483.546 912,529.5C 910.147,554.766 906.48,579.766 901,604.5C 900.333,627.833 900.333,651.167 901,674.5C 915.443,693.752 929.11,713.419 942,733.5C 951.258,743.421 959.758,753.921 967.5,765C 994.187,765.87 1020.85,765.537 1047.5,764C 1057.35,760.94 1067.35,758.273 1077.5,756C 1078.13,755.25 1078.63,754.416 1079,753.5C 1079.07,746.061 1079.74,738.728 1081,731.5C 1087.93,721.239 1096.76,713.073 1107.5,707C 1114.04,705.989 1120.37,706.656 1126.5,709C 1136.57,709.343 1146.57,710.343 1156.5,712C 1172.8,715.375 1189.13,718.375 1205.5,721C 1232.17,721.667 1258.83,721.667 1285.5,721C 1297.22,715.198 1308.89,709.198 1320.5,703C 1328.06,695.436 1335.89,688.27 1344,681.5C 1345.96,678.537 1348.29,675.871 1351,673.5C 1362.44,656.139 1370.11,637.139 1374,616.5C 1377.49,592.877 1380.16,569.211 1382,545.5C 1382.83,544.667 1383.67,543.833 1384.5,543C 1403.07,539.702 1421.07,534.368 1438.5,527C 1456.21,517.813 1473.88,508.647 1491.5,499.5C 1504.49,506.113 1517.99,511.113 1532,514.5C 1533.74,525.096 1534.74,535.763 1535,546.5C 1537.67,556.513 1540.33,566.513 1543,576.5C 1553.65,595.151 1567.81,610.651 1585.5,623C 1599.36,639.266 1616.69,649.932 1637.5,655C 1648.81,656.997 1660.14,658.83 1671.5,660.5C 1660.92,665.192 1650.59,670.359 1640.5,676C 1608.53,674.622 1576.53,674.289 1544.5,675C 1535.88,677.142 1527.54,680.142 1519.5,684C 1509.1,686.365 1498.77,689.032 1488.5,692C 1471.86,699.65 1455.86,708.316 1440.5,718C 1424.99,726.923 1409.32,735.589 1393.5,744C 1391.04,745.458 1388.87,747.291 1387,749.5C 1385.52,773.743 1385.02,798.077 1385.5,822.5C 1370.83,822.667 1356.16,822.5 1341.5,822C 1317.69,810.511 1293.03,801.845 1267.5,796C 1250.55,792.515 1233.55,789.181 1216.5,786C 1212.41,783.802 1208.07,782.302 1203.5,781.5 Z"/></g>
<g><path style="opacity:1" fill="#7c694b" d="M 850.5,257.5 C 851.871,259.936 852.871,262.603 853.5,265.5C 851.345,263.383 850.345,260.716 850.5,257.5 Z"/></g>
<g><path style="opacity:1" fill="#7e6a4c" d="M 970.5,291.5 C 969.596,290.791 969.263,289.791 969.5,288.5C 966.833,288.833 964.167,289.167 961.5,289.5C 964.171,287.882 967.171,287.215 970.5,287.5C 970.5,288.833 970.5,290.167 970.5,291.5 Z"/></g>
<g><path style="opacity:1" fill="#6a5640" d="M 944.5,293.5 C 942.162,295.04 939.495,295.706 936.5,295.5C 938.905,294.232 941.572,293.565 944.5,293.5 Z"/></g>
<g><path style="opacity:1" fill="#7c694b" d="M 977.5,323.5 C 978.924,325.515 979.59,327.848 979.5,330.5C 978.076,328.485 977.41,326.152 977.5,323.5 Z"/></g>
<g><path style="opacity:1" fill="#766347" d="M 642.5,463.5 C 643.924,465.515 644.59,467.848 644.5,470.5C 642.837,468.562 642.171,466.228 642.5,463.5 Z"/></g>
<g><path style="opacity:1" fill="#7b684b" d="M 1369.5,510.5 C 1367.56,512.163 1365.23,512.829 1362.5,512.5C 1364.51,511.076 1366.85,510.41 1369.5,510.5 Z"/></g>
<g><path style="opacity:1" fill="#766348" d="M 1567.5,529.5 C 1568.92,531.515 1569.59,533.848 1569.5,536.5C 1568.08,534.485 1567.41,532.152 1567.5,529.5 Z"/></g>
<g><path style="opacity:1" fill="#64503c" d="M 943.5,527.5 C 943.666,535.84 943.5,544.173 943,552.5C 942.809,554.708 942.309,556.708 941.5,558.5C 941.694,547.984 942.361,537.651 943.5,527.5 Z"/></g>
<g><path style="opacity:1" fill="#66523e" d="M 937.5,597.5 C 937.334,606.157 936.001,614.49 933.5,622.5C 934.477,613.978 935.81,605.645 937.5,597.5 Z"/></g>
<g><path style="opacity:1" fill="#65513d" d="M 431.5,622.5 C 432.924,624.515 433.59,626.848 433.5,629.5C 432.076,627.485 431.41,625.152 431.5,622.5 Z"/></g>
<g><path style="opacity:1" fill="#634f3c" d="M 1687.5,628.5 C 1695.38,628.885 1703.05,629.885 1710.5,631.5C 1702.57,631.508 1694.9,630.508 1687.5,628.5 Z"/></g>
<g><path style="opacity:1" fill="#7e6b4d" d="M 1710.5,631.5 C 1724.35,631.477 1738.02,632.144 1751.5,633.5C 1737.64,633.637 1723.97,632.971 1710.5,631.5 Z"/></g>
<g><path style="opacity:1" fill="#66523e" d="M 1131.5,674.5 C 1135.49,674.116 1139.16,674.783 1142.5,676.5C 1138.61,676.354 1134.95,675.687 1131.5,674.5 Z"/></g>
<g><path style="opacity:1" fill="#7e6b4c" d="M 429.5,669.5 C 428.806,674.915 427.14,679.915 424.5,684.5C 425.595,679.216 427.261,674.216 429.5,669.5 Z"/></g>
<g><path style="opacity:1" fill="#6b5741" d="M 1748.5,683.5 C 1739.48,683.448 1730.48,683.782 1721.5,684.5C 1726.4,682.948 1731.57,682.281 1737,682.5C 1741.02,682.501 1744.85,682.835 1748.5,683.5 Z"/></g>
<g><path style="opacity:1" fill="#624e3b" d="M 1219.5,688.5 C 1228.04,688.943 1236.37,689.943 1244.5,691.5C 1235.87,691.867 1227.53,690.867 1219.5,688.5 Z"/></g>
<g><path style="opacity:1" fill="#ab956f" d="M 1203.5,781.5 C 1176.48,781.211 1149.48,781.544 1122.5,782.5C 1123.61,781.71 1124.94,781.21 1126.5,781C 1152.34,780.17 1178,780.337 1203.5,781.5 Z"/></g>
<g><path style="opacity:1" fill="#66523e" d="M 1433.5,801.5 C 1436.52,801.335 1439.52,801.502 1442.5,802C 1443.42,802.278 1444.08,802.778 1444.5,803.5C 1440.61,803.354 1436.95,802.687 1433.5,801.5 Z"/></g>
<g><path style="opacity:1" fill="#604b3a" d="M 1113.5,812.5 C 1106.38,812.175 1099.38,812.841 1092.5,814.5C 1094.28,813.4 1096.28,812.566 1098.5,812C 1103.68,811.184 1108.68,811.35 1113.5,812.5 Z"/></g>
<g><path style="opacity:1" fill="#7a664a" d="M 1227.5,823.5 C 1230.15,823.41 1232.49,824.076 1234.5,825.5C 1231.85,825.59 1229.51,824.924 1227.5,823.5 Z"/></g>
<g><path style="opacity:1" fill="#68543f" d="M 1236.5,825.5 C 1239.07,825.721 1241.4,826.388 1243.5,827.5C 1240.77,827.829 1238.44,827.163 1236.5,825.5 Z"/></g>
<g><path style="opacity:1" fill="#705d44" d="M 1450.5,827.5 C 1450.57,829.027 1449.91,830.027 1448.5,830.5C 1448.43,828.973 1449.09,827.973 1450.5,827.5 Z"/></g>
<g><path style="opacity:1" fill="#7a664a" d="M 1256.5,830.5 C 1261.16,831.057 1265.5,832.39 1269.5,834.5C 1264.84,833.943 1260.5,832.61 1256.5,830.5 Z"/></g>
<g><path style="opacity:1" fill="#5d4939" d="M 569.5,944.5 C 565.509,946.606 561.176,947.939 556.5,948.5C 560.502,946.39 564.835,945.057 569.5,944.5 Z"/></g>
<g><path style="opacity:1" fill="#796649" d="M 860.5,1003.5 C 868.74,1003.66 876.74,1004.66 884.5,1006.5C 876.273,1006.23 868.273,1005.23 860.5,1003.5 Z"/></g>
<g><path style="opacity:1" fill="#695540" d="M 831.5,1004.5 C 824.011,1005.51 816.344,1006.18 808.5,1006.5C 815.923,1004.75 823.589,1004.08 831.5,1004.5 Z"/></g>
</svg>
