<?xml version="1.0" encoding="UTF-8"?>
<!DOCTYPE svg PUBLIC "-//W3C//DTD SVG 1.1//EN" "http://www.w3.org/Graphics/SVG/1.1/DTD/svg11.dtd">
<svg xmlns="http://www.w3.org/2000/svg" version="1.1" width="2296px" height="1221px" style="shape-rendering:geometricPrecision; text-rendering:geometricPrecision; image-rendering:optimizeQuality; fill-rule:evenodd; clip-rule:evenodd" xmlns:xlink="http://www.w3.org/1999/xlink">
<g><path style="opacity:0.984" fill="#48332c" d="M 990.5,11.5 C 997.241,11.1712 1003.91,11.6712 1010.5,13C 1027.06,22.779 1044.06,31.779 1061.5,40C 1071.33,39.1292 1081,37.1292 1090.5,34C 1103.01,30.3505 1115.68,29.3505 1128.5,31C 1132.29,32.3926 1135.95,34.0593 1139.5,36C 1157.03,47.8544 1173.69,60.8544 1189.5,75C 1211.53,97.7648 1232.87,121.098 1253.5,145C 1255.17,145.333 1256.83,145.667 1258.5,146C 1278.7,165.865 1299.2,185.365 1320,204.5C 1319.85,205.825 1320.02,206.992 1320.5,208C 1344.69,214.713 1368.69,222.046 1392.5,230C 1433.43,244.42 1474.1,259.42 1514.5,275C 1523.41,277.38 1532.41,277.88 1541.5,276.5C 1549.19,277.15 1556.85,277.984 1564.5,279C 1589.91,283.123 1615.24,287.457 1640.5,292C 1644.68,295.526 1647.18,300.026 1648,305.5C 1672.94,332.11 1699.44,356.943 1727.5,380C 1742.5,394.333 1757.5,408.667 1772.5,423C 1783.48,427.4 1792.98,433.9 1801,442.5C 1808.4,452.334 1808.07,462.001 1800,471.5C 1790.12,483.058 1778.29,491.891 1764.5,498C 1761.43,498.456 1758.43,498.456 1755.5,498C 1749.74,503.762 1743.41,508.762 1736.5,513C 1731.86,514.092 1727.19,515.092 1722.5,516C 1703.41,524.587 1683.74,531.587 1663.5,537C 1657.83,537.667 1652.17,537.667 1646.5,537C 1637.83,535 1629.17,533 1620.5,531C 1606.22,529.562 1592.22,530.895 1578.5,535C 1570.5,540.333 1562.5,545.667 1554.5,551C 1551.91,552.197 1549.24,553.197 1546.5,554C 1534.83,554.272 1523.17,554.105 1511.5,553.5C 1511.52,563.273 1511.02,572.94 1510,582.5C 1520.92,589.379 1532.09,595.879 1543.5,602C 1550.82,603.897 1558.15,605.73 1565.5,607.5C 1567.2,607.101 1568.86,606.601 1570.5,606C 1578.42,597.376 1588.08,591.876 1599.5,589.5C 1603.6,589.886 1607.6,590.719 1611.5,592C 1620.34,597.585 1629.34,602.919 1638.5,608C 1641.04,610.205 1643.21,612.705 1645,615.5C 1647.09,623.199 1650.09,630.532 1654,637.5C 1658.46,643.625 1663.29,649.458 1668.5,655C 1670.07,656.076 1671.73,656.909 1673.5,657.5C 1686.21,650.365 1698.55,650.865 1710.5,659C 1728.76,674.593 1744.93,692.093 1759,711.5C 1762.55,722.633 1758.38,728.133 1746.5,728C 1703.1,750.392 1665.93,780.559 1635,818.5C 1633.28,821.674 1631.94,825.007 1631,828.5C 1630.25,836.61 1628.91,844.61 1627,852.5C 1623.6,858.87 1618.26,861.87 1611,861.5C 1588.81,860.745 1566.64,859.745 1544.5,858.5C 1534.2,859.617 1523.87,860.45 1513.5,861C 1503.37,866.407 1492.54,868.907 1481,868.5C 1462.75,867.197 1444.58,865.197 1426.5,862.5C 1407.82,863.418 1389.15,864.584 1370.5,866C 1362.37,866.375 1354.37,867.542 1346.5,869.5C 1337.57,882.266 1329.24,895.433 1321.5,909C 1327.94,911.773 1331.77,916.606 1333,923.5C 1337.45,926.283 1341.62,929.45 1345.5,933C 1360.46,933.292 1369.29,940.792 1372,955.5C 1373.33,964.813 1374.5,974.146 1375.5,983.5C 1375.24,987.45 1374.07,991.117 1372,994.5C 1360.17,1013.68 1343.33,1025.85 1321.5,1031C 1312.89,1032.49 1304.22,1033.49 1295.5,1034C 1268.88,1040.8 1241.88,1045.47 1214.5,1048C 1210.77,1050.13 1206.77,1051.47 1202.5,1052C 1194.47,1052.6 1186.47,1052.26 1178.5,1051C 1171.65,1049.56 1165.32,1047.06 1159.5,1043.5C 1149.91,1046.35 1141.58,1044.35 1134.5,1037.5C 1131.76,1034.35 1129.26,1031.01 1127,1027.5C 1120.8,1011.9 1114.8,996.234 1109,980.5C 1109.09,969.898 1112.59,960.398 1119.5,952C 1093.65,955.647 1067.65,958.314 1041.5,960C 1029.44,971.05 1019.27,983.55 1011,997.5C 1003.26,1006.78 993.757,1008.95 982.5,1004C 965.5,1003.67 948.5,1003.33 931.5,1003C 924.792,1002.49 918.126,1001.66 911.5,1000.5C 908.02,1001.16 904.853,1002.49 902,1004.5C 900.895,1010.85 900.728,1017.19 901.5,1023.5C 906.562,1025.74 911.228,1028.57 915.5,1032C 936.242,1039.1 957.242,1045.44 978.5,1051C 986.229,1053.7 993.562,1057.2 1000.5,1061.5C 1006.71,1068.73 1007.04,1076.23 1001.5,1084C 974.194,1093.82 947.194,1104.48 920.5,1116C 899.274,1122.74 878.274,1130.07 857.5,1138C 813.5,1157 769.5,1176 725.5,1195C 716.716,1196.54 707.883,1197.71 699,1198.5C 691.342,1199.17 685.675,1196.17 682,1189.5C 678.676,1180.38 676.176,1171.04 674.5,1161.5C 651.229,1174.3 626.563,1183.46 600.5,1189C 592.5,1189.67 584.5,1189.67 576.5,1189C 563.254,1183.04 550.587,1176.04 538.5,1168C 508.684,1143.86 483.518,1115.69 463,1083.5C 454.584,1075.09 446.917,1066.09 440,1056.5C 444.134,1015.17 448.8,973.839 454,932.5C 457.563,904.48 465.563,877.813 478,852.5C 484.453,841.717 493.619,834.217 505.5,830C 540.351,818.954 575.684,809.787 611.5,802.5C 615.779,802.736 619.779,803.903 623.5,806C 629.792,810.623 635.792,815.623 641.5,821C 646.718,823.776 652.051,826.276 657.5,828.5C 669.774,821.408 680.774,812.574 690.5,802C 676.711,784.542 662.544,767.375 648,750.5C 639.554,739.17 635.721,726.67 636.5,713C 638.344,665.734 643.844,618.901 653,572.5C 655.557,560.603 658.891,548.936 663,537.5C 678.11,521.052 693.277,504.552 708.5,488C 714.488,484.615 720.821,482.115 727.5,480.5C 729.645,472.952 731.478,465.285 733,457.5C 733.78,454.488 734.947,451.655 736.5,449C 733.705,443.093 733.872,437.26 737,431.5C 741.637,427.764 746.804,424.93 752.5,423C 780.28,412.963 808.113,403.129 836,393.5C 841.716,394.357 846.383,397.024 850,401.5C 854.669,410.502 860.503,418.669 867.5,426C 875.155,427.928 882.489,426.928 889.5,423C 905.013,415.077 920.68,407.41 936.5,400C 944.02,396.605 951.687,393.605 959.5,391C 967.833,390.333 976.167,390.333 984.5,391C 1014.85,393.945 1045.18,396.945 1075.5,400C 1082.3,401.599 1088.96,403.599 1095.5,406C 1112.17,407.834 1128.84,407.834 1145.5,406C 1171.62,385.546 1197.46,364.713 1223,343.5C 1220.46,327.169 1215.96,311.336 1209.5,296C 1195.19,294.852 1180.86,293.852 1166.5,293C 1160.95,292.071 1155.45,290.904 1150,289.5C 1142.81,293.178 1135.65,297.011 1128.5,301C 1110.8,308.897 1092.8,309.564 1074.5,303C 1067.93,300.69 1061.26,298.69 1054.5,297C 1046.95,293.392 1039.28,290.058 1031.5,287C 1012.05,285.367 993.05,281.7 974.5,276C 959.826,262.47 946.659,247.637 935,231.5C 933.786,229.951 932.286,228.785 930.5,228C 897.774,218.536 865.107,208.869 832.5,199C 814.648,195.352 796.648,192.685 778.5,191C 768.716,186.32 765.55,178.82 769,168.5C 784.544,144.077 796.877,118.077 806,90.5C 807.958,85.4096 810.792,80.9096 814.5,77C 816.9,75.2993 819.567,74.466 822.5,74.5C 825.57,75.0612 828.57,75.5612 831.5,76C 839.681,71.7435 848.014,67.7435 856.5,64C 889.914,50.5287 923.247,36.8621 956.5,23C 967.704,18.4325 979.037,14.5991 990.5,11.5 Z"/></g>
<g><path style="opacity:1" fill="#9c8a5e" d="M 995.5,39.5 C 997.199,39.3398 998.866,39.5065 1000.5,40C 1009.51,45.8391 1018.84,51.1725 1028.5,56C 1037.15,60.8238 1046.15,64.8238 1055.5,68C 1061.5,68.6667 1067.5,68.6667 1073.5,68C 1087.02,64.0487 1100.69,60.7153 1114.5,58C 1117.93,57.2989 1121.26,57.6323 1124.5,59C 1150.53,76.0201 1174.53,95.6868 1196.5,118C 1229.08,150.916 1261.91,183.416 1295,215.5C 1293.29,225.095 1296.79,231.929 1305.5,236C 1359.73,253.077 1413.73,270.744 1467.5,289C 1470.81,294.979 1475.81,298.645 1482.5,300C 1511.84,303.001 1541.17,306.001 1570.5,309C 1587.44,312.075 1604.44,314.742 1621.5,317C 1626.64,324.108 1632.14,330.941 1638,337.5C 1678.47,376.646 1720.14,414.312 1763,450.5C 1763.67,451.167 1763.67,451.833 1763,452.5C 1750.93,463.451 1738.76,474.284 1726.5,485C 1712.34,488.576 1698.67,493.576 1685.5,500C 1674.45,503.685 1663.45,507.352 1652.5,511C 1642.49,509.734 1632.49,508.067 1622.5,506C 1605.47,503.614 1589.13,505.947 1573.5,513C 1562.47,518.843 1551.8,525.176 1541.5,532C 1526.09,530.791 1510.76,531.458 1495.5,534C 1484.23,540.604 1475.73,549.771 1470,561.5C 1463.54,575.861 1460.21,590.861 1460,606.5C 1461.71,610.219 1464.21,613.386 1467.5,616C 1500.77,621.757 1533.1,630.757 1564.5,643C 1576.82,645.343 1585.15,640.677 1589.5,629C 1594.59,628.174 1599.59,628.508 1604.5,630C 1608.68,637.853 1614.02,644.853 1620.5,651C 1631.89,659.391 1643.56,667.391 1655.5,675C 1659.27,677.219 1663.27,678.885 1667.5,680C 1675.83,680.333 1684.17,680.667 1692.5,681C 1694.95,681.29 1697.29,681.956 1699.5,683C 1705.69,689.885 1711.03,697.385 1715.5,705.5C 1672.8,734.025 1635.63,768.691 1604,809.5C 1603.26,813.71 1603.43,817.876 1604.5,822C 1603.79,825.098 1602.13,827.431 1599.5,829C 1591.68,829.081 1583.85,828.914 1576,828.5C 1547.85,830.221 1519.68,831.721 1491.5,833C 1471.17,833.667 1450.83,833.667 1430.5,833C 1402.67,827.751 1375,821.751 1347.5,815C 1342.23,813.932 1337.23,814.599 1332.5,817C 1321.82,827.004 1312.65,838.17 1305,850.5C 1295.06,868.095 1284.73,885.428 1274,902.5C 1269.9,910.571 1271.07,917.738 1277.5,924C 1284.06,925.255 1290.73,925.922 1297.5,926C 1300.17,928.667 1302.83,931.333 1305.5,934C 1318.42,941.708 1331.25,949.541 1344,957.5C 1346.25,965.697 1347.25,974.03 1347,982.5C 1340.59,990.777 1332.76,997.277 1323.5,1002C 1287.19,1010.58 1250.52,1017.24 1213.5,1022C 1208.14,1023.18 1203.14,1025.18 1198.5,1028C 1192.79,1028.63 1187.12,1028.3 1181.5,1027C 1172.1,1020.4 1161.77,1018.07 1150.5,1020C 1148.29,1017.08 1146.45,1013.91 1145,1010.5C 1140.66,997.301 1135.82,984.301 1130.5,971.5C 1135.08,962.677 1139.91,954.011 1145,945.5C 1147.39,940.605 1146.89,936.105 1143.5,932C 1139.5,930.333 1135.5,928.667 1131.5,927C 1102.5,925.229 1073.5,923.896 1044.5,923C 1027.65,933.257 1011.32,944.257 995.5,956C 991.779,958.527 987.779,960.527 983.5,962C 973.5,962.333 963.5,962.667 953.5,963C 945.065,965.467 936.899,968.634 929,972.5C 917.656,973.029 906.49,971.529 895.5,968C 887.422,965.96 881.255,968.46 877,975.5C 871.333,988.833 865.667,1002.17 860,1015.5C 854.85,1034.03 862.017,1042.87 881.5,1042C 882.551,1043.38 883.884,1044.38 885.5,1045C 892.746,1047.31 900.079,1049.31 907.5,1051C 921.345,1059.59 936.012,1066.59 951.5,1072C 917.365,1086.38 882.698,1099.38 847.5,1111C 805.417,1129.14 763.417,1147.47 721.5,1166C 715.592,1167.68 709.592,1168.84 703.5,1169.5C 703.335,1166.48 703.502,1163.48 704,1160.5C 707.748,1150.76 710.581,1140.76 712.5,1130.5C 711.296,1120.25 705.63,1116.41 695.5,1119C 682.777,1123.86 670.444,1129.53 658.5,1136C 638.931,1142.47 619.264,1148.63 599.5,1154.5C 590.781,1151.64 582.781,1147.47 575.5,1142C 544.784,1117.62 514.951,1092.12 486,1065.5C 478.718,1045.81 474.885,1025.48 474.5,1004.5C 477.256,971.197 482.089,938.197 489,905.5C 491.673,894.482 495.339,883.815 500,873.5C 502.215,868.9 505.048,864.734 508.5,861C 515.851,857.216 523.518,854.216 531.5,852C 556.312,845.422 581.145,838.922 606,832.5C 620.363,840.349 633.03,850.349 644,862.5C 645.609,866.779 647.443,870.946 649.5,875C 655.647,878.431 661.647,878.098 667.5,874C 688.025,854.474 708.192,834.641 728,814.5C 732.139,804.958 729.472,798.291 720,794.5C 704.092,773.255 687.425,752.588 670,732.5C 668.414,730.33 667.08,727.996 666,725.5C 665.389,678.387 669.722,631.72 679,585.5C 681.221,574.282 684.221,563.282 688,552.5C 704.338,534.846 719.838,516.68 734.5,498C 740.699,492.136 746.532,485.969 752,479.5C 755.851,470.963 760.351,462.797 765.5,455C 785.317,447.172 805.484,440.339 826,434.5C 838.231,443.868 851.731,451.035 866.5,456C 878.255,455.563 889.588,452.896 900.5,448C 921.555,436.806 942.888,426.139 964.5,416C 968.833,415.833 973.167,415.667 977.5,415.5C 1005.13,418.04 1032.8,420.206 1060.5,422C 1065.88,422.785 1071.21,423.785 1076.5,425C 1081.24,427.435 1086.24,429.101 1091.5,430C 1104.84,430.692 1118.18,430.525 1131.5,429.5C 1133.83,429.667 1136.17,429.833 1138.5,430C 1142.97,434.301 1148.3,435.635 1154.5,434C 1159.8,431.349 1165.14,428.682 1170.5,426C 1178.59,425.56 1186.26,423.56 1193.5,420C 1196.7,417.093 1199.04,413.593 1200.5,409.5C 1217.84,400.836 1234.17,390.669 1249.5,379C 1259.69,370.195 1260.02,361.195 1250.5,352C 1252.53,338.466 1251.03,325.299 1246,312.5C 1242.31,299.744 1237.64,287.411 1232,275.5C 1230.27,273.383 1228.1,271.883 1225.5,271C 1220.57,269.678 1215.57,268.678 1210.5,268C 1189.7,268.473 1169.2,266.307 1149,261.5C 1145.36,261.713 1141.86,262.547 1138.5,264C 1130.15,269.175 1121.49,273.842 1112.5,278C 1108.25,279.312 1103.92,280.145 1099.5,280.5C 1077.85,277.432 1056.52,272.932 1035.5,267C 1018.87,266.065 1002.53,263.398 986.5,259C 973.128,244.631 960.128,229.964 947.5,215C 928.279,197.219 905.946,184.886 880.5,178C 857.523,171.67 834.189,167.17 810.5,164.5C 820.628,144.411 830.628,124.244 840.5,104C 848.888,99.1394 857.554,94.8061 866.5,91C 902.281,76.6096 937.947,61.943 973.5,47C 980.844,44.1739 988.177,41.6739 995.5,39.5 Z"/></g>
<g><path style="opacity:1" fill="#b99f7f" d="M 989.5,88.5 C 990.873,88.3433 992.207,88.51 993.5,89C 1002.55,94.694 1012.22,99.0273 1022.5,102C 1050.59,102.016 1078.59,102.683 1106.5,104C 1116.17,111.667 1125.83,119.333 1135.5,127C 1161.78,151.274 1187.44,176.274 1212.5,202C 1235.83,214.333 1259.17,226.667 1282.5,239C 1312.11,259.612 1341.45,280.612 1370.5,302C 1390.77,308.868 1411.1,315.535 1431.5,322C 1434.52,324.023 1436.85,326.69 1438.5,330C 1441.95,331.927 1445.61,333.261 1449.5,334C 1479.53,336.67 1509.53,339.67 1539.5,343C 1555.14,345.913 1570.81,348.579 1586.5,351C 1598.4,365.902 1611.4,379.902 1625.5,393C 1647.04,412.714 1668.71,432.214 1690.5,451.5C 1677.44,455.026 1664.77,459.859 1652.5,466C 1647.11,467.465 1641.77,469.131 1636.5,471C 1613.5,471.333 1590.5,471.667 1567.5,472C 1556.2,472.825 1545.53,475.825 1535.5,481C 1526.5,485.832 1517.83,491.165 1509.5,497C 1492.71,496.905 1476.04,498.239 1459.5,501C 1442.61,512.277 1432.44,528.111 1429,548.5C 1428.24,552.819 1427.57,557.152 1427,561.5C 1426.33,587.833 1426.33,614.167 1427,640.5C 1427.64,646.15 1430.81,649.65 1436.5,651C 1469.09,656.195 1500.76,664.861 1531.5,677C 1547.5,677.333 1563.5,677.667 1579.5,678C 1590.94,688.548 1603.27,697.881 1616.5,706C 1620.22,708.527 1624.22,710.527 1628.5,712C 1610.55,729.077 1593.38,746.91 1577,765.5C 1570.23,772.807 1567.56,781.474 1569,791.5C 1567.83,792.667 1566.67,793.833 1565.5,795C 1549.5,795.333 1533.5,795.667 1517.5,796C 1501.51,797.321 1485.51,798.488 1469.5,799.5C 1455.11,797.455 1440.77,794.955 1426.5,792C 1410.19,788.172 1393.86,784.506 1377.5,781C 1352.5,780.333 1327.5,780.333 1302.5,781C 1300.5,782 1298.5,783 1296.5,784C 1288.16,792.524 1280.66,801.69 1274,811.5C 1264.5,828.498 1254.5,845.165 1244,861.5C 1241.73,865.714 1239.73,870.047 1238,874.5C 1237.03,900.896 1237.36,927.229 1239,953.5C 1239.83,955.667 1241.33,957.167 1243.5,958C 1249.77,959.152 1256.1,959.818 1262.5,960C 1266.8,964.149 1271.47,967.816 1276.5,971C 1253.35,976.405 1230.01,981.071 1206.5,985C 1198.81,985.831 1191.15,985.665 1183.5,984.5C 1181.9,982.292 1180.56,979.959 1179.5,977.5C 1180.65,952.19 1180.81,926.857 1180,901.5C 1179.53,900.069 1178.7,898.903 1177.5,898C 1173.28,896.891 1169.28,895.225 1165.5,893C 1139.11,892.483 1112.78,891.149 1086.5,889C 1060.46,888.056 1034.46,888.389 1008.5,890C 989.167,902.667 969.833,915.333 950.5,928C 940.833,928.333 931.167,928.667 921.5,929C 916.648,929.713 911.981,931.046 907.5,933C 888.833,933.333 870.167,933.667 851.5,934C 847.725,935.442 844.892,937.942 843,941.5C 836.606,956.017 830.606,970.684 825,985.5C 824.333,1012.5 824.333,1039.5 825,1066.5C 825.833,1068.17 826.667,1069.83 827.5,1071.5C 800.269,1083.03 773.102,1094.7 746,1106.5C 745.667,1101.17 745.333,1095.83 745,1090.5C 743.833,1088 742,1086.17 739.5,1085C 713.5,1084.33 687.5,1084.33 661.5,1085C 648.38,1090.73 635.38,1096.73 622.5,1103C 617.609,1104.86 612.609,1105.86 607.5,1106C 579.54,1083.04 551.874,1059.71 524.5,1036C 521.567,1033.74 519.4,1030.9 518,1027.5C 515.439,1019.65 513.606,1011.65 512.5,1003.5C 514.093,979.795 517.927,956.461 524,933.5C 527.446,923.275 531.446,913.275 536,903.5C 542,894.907 550.167,889.407 560.5,887C 569.754,884.193 579.087,881.693 588.5,879.5C 590.299,879.577 591.966,880.077 593.5,881C 599.302,885.8 604.802,890.967 610,896.5C 611.857,899.937 613.191,903.604 614,907.5C 615.214,909.049 616.714,910.215 618.5,911C 644.5,911.667 670.5,911.667 696.5,911C 699.433,909.729 702.099,908.062 704.5,906C 723.082,887.083 741.915,868.583 761,850.5C 761.973,848.608 762.64,846.608 763,844.5C 763.667,818.833 763.667,793.167 763,767.5C 757.079,762.912 751.746,757.579 747,751.5C 733.758,733.588 719.758,716.254 705,699.5C 703.367,697.547 702.201,695.38 701.5,693C 704.81,657.971 710.977,623.471 720,589.5C 732.314,576.181 744.314,562.514 756,548.5C 759.356,545.124 761.69,541.124 763,536.5C 772,530.167 779.667,522.5 786,513.5C 789.772,504.117 794.939,495.617 801.5,488C 805.967,486.347 810.467,484.847 815,483.5C 821.011,485.13 826.845,487.297 832.5,490C 858.833,490.667 885.167,490.667 911.5,490C 919.833,487 928.167,484 936.5,481C 954.011,471.744 971.677,462.744 989.5,454C 1011.86,452.337 1033.53,455.337 1054.5,463C 1071.47,464.227 1088.47,464.893 1105.5,465C 1107,466.252 1108.67,467.252 1110.5,468C 1136.5,468.667 1162.5,468.667 1188.5,468C 1193.66,465.588 1198.66,462.921 1203.5,460C 1211.23,458.656 1218.9,456.989 1226.5,455C 1230.22,451.575 1233.22,447.575 1235.5,443C 1254.17,433.975 1271.5,422.975 1287.5,410C 1288.67,408.167 1289.83,406.333 1291,404.5C 1291.67,378.167 1291.67,351.833 1291,325.5C 1290.07,322.638 1288.4,320.305 1286,318.5C 1285.73,306.302 1284.07,294.302 1281,282.5C 1279.4,279.781 1277.24,277.614 1274.5,276C 1253.56,262.057 1232.89,247.723 1212.5,233C 1204.34,232.628 1196.34,231.294 1188.5,229C 1161.5,228.333 1134.5,228.333 1107.5,229C 1100.85,231.658 1094.52,234.824 1088.5,238.5C 1083.53,236.899 1078.53,235.399 1073.5,234C 1059.78,232.772 1046.11,231.105 1032.5,229C 1028.49,227.665 1024.49,226.331 1020.5,225C 1007.07,209.478 993.401,194.145 979.5,179C 963.829,165.328 946.162,154.995 926.5,148C 910.346,143.252 894.013,139.252 877.5,136C 886.347,131.41 895.347,127.077 904.5,123C 933.134,111.962 961.467,100.462 989.5,88.5 Z"/></g>
</svg>
