<?xml version="1.0" encoding="UTF-8"?>
<!DOCTYPE svg PUBLIC "-//W3C//DTD SVG 1.1//EN" "http://www.w3.org/Graphics/SVG/1.1/DTD/svg11.dtd">
<svg xmlns="http://www.w3.org/2000/svg" version="1.1" width="2296px" height="1221px" style="shape-rendering:geometricPrecision; text-rendering:geometricPrecision; image-rendering:optimizeQuality; fill-rule:evenodd; clip-rule:evenodd" xmlns:xlink="http://www.w3.org/1999/xlink">
<g><path style="opacity:0.965" fill="#48332c" d="M 1224.5,129.5 C 1228.85,129.334 1233.18,129.501 1237.5,130C 1258.04,136.102 1276.71,145.602 1293.5,158.5C 1294.81,159.912 1295.64,161.579 1296,163.5C 1294.86,179.479 1293.53,195.479 1292,211.5C 1290.5,213.833 1289,216.167 1287.5,218.5C 1281.25,223.01 1275.41,228.01 1270,233.5C 1263.21,241.963 1256.04,250.13 1248.5,258C 1249.28,260.582 1250.95,262.249 1253.5,263C 1260.53,263.813 1267.53,264.813 1274.5,266C 1283.72,269.072 1293.05,271.739 1302.5,274C 1326.44,278.205 1349.94,284.039 1373,291.5C 1389.88,282.646 1407.04,274.146 1424.5,266C 1430.25,264.295 1435.92,262.295 1441.5,260C 1439.52,241.983 1447.52,231.983 1465.5,230C 1484.48,228.572 1503.48,228.239 1522.5,229C 1528.55,230.722 1533.89,233.722 1538.5,238C 1557.77,249.789 1578.77,256.122 1601.5,257C 1608.59,259.474 1615.59,262.14 1622.5,265C 1631,265.36 1639.33,266.694 1647.5,269C 1650.65,272.152 1652.99,275.819 1654.5,280C 1684.02,281.745 1713.35,285.079 1742.5,290C 1755.5,290.37 1768.5,290.203 1781.5,289.5C 1799.67,290.321 1817.84,291.321 1836,292.5C 1844.85,292.131 1853.69,291.465 1862.5,290.5C 1870.5,290.33 1877.33,292.997 1883,298.5C 1888.47,310.939 1895.13,322.606 1903,333.5C 1906.36,344.615 1902.53,351.782 1891.5,355C 1871.81,361.228 1852.14,367.561 1832.5,374C 1798.94,389.401 1765.28,404.401 1731.5,419C 1726.83,422.333 1722.17,425.667 1717.5,429C 1711.33,435.167 1705.17,441.333 1699,447.5C 1696.5,450.502 1694.5,453.835 1693,457.5C 1685.96,464.608 1678.12,465.442 1669.5,460C 1661.25,453.376 1652.25,448.042 1642.5,444C 1634.67,438.584 1626.67,433.417 1618.5,428.5C 1616.66,429.919 1614.66,431.086 1612.5,432C 1590.91,429.4 1570.91,433.734 1552.5,445C 1546.55,448.023 1540.55,448.023 1534.5,445C 1530.96,440.886 1526.96,437.219 1522.5,434C 1511.59,426.763 1500.43,419.93 1489,413.5C 1456.53,430.642 1426.53,451.309 1399,475.5C 1393.91,481.979 1388.58,488.312 1383,494.5C 1382.31,495.332 1382.48,495.998 1383.5,496.5C 1408.55,506.197 1433.22,516.697 1457.5,528C 1470.93,538.093 1483.09,549.593 1494,562.5C 1518.01,555.739 1542.51,552.072 1567.5,551.5C 1588.5,552.75 1609.5,553.916 1630.5,555C 1640.97,555.981 1649.47,560.481 1656,568.5C 1660.35,575.866 1664.68,583.199 1669,590.5C 1673.91,596.655 1678.58,602.989 1683,609.5C 1686.47,620.228 1682.8,627.228 1672,630.5C 1669.98,641.208 1665.31,650.541 1658,658.5C 1655.29,660.936 1652.13,662.436 1648.5,663C 1638.82,663.457 1629.15,663.124 1619.5,662C 1604.94,659.074 1590.28,656.907 1575.5,655.5C 1558.81,659.473 1542.48,664.64 1526.5,671C 1513.83,674.336 1501.16,677.67 1488.5,681C 1481.48,684.7 1474.48,688.367 1467.5,692C 1463.89,693.047 1460.22,693.88 1456.5,694.5C 1437.01,690.728 1417.68,686.228 1398.5,681C 1385.23,678.882 1371.9,678.215 1358.5,679C 1356.21,679.822 1353.88,680.489 1351.5,681C 1347.35,684.904 1343.02,688.571 1338.5,692C 1321.27,710.227 1304.44,728.727 1288,747.5C 1282.01,756.133 1276.01,764.799 1270,773.5C 1267.33,779.495 1263.67,784.828 1259,789.5C 1253.99,798.566 1252.33,808.232 1254,818.5C 1257.26,833.455 1260.26,848.455 1263,863.5C 1272.7,868.29 1282.2,873.456 1291.5,879C 1297.08,880.917 1302.75,882.584 1308.5,884C 1315.58,889.017 1318.08,895.85 1316,904.5C 1313.14,915.761 1309.47,926.761 1305,937.5C 1301.61,943.889 1296.61,948.556 1290,951.5C 1287.26,957.985 1284.26,964.319 1281,970.5C 1278.31,974.676 1274.47,976.676 1269.5,976.5C 1259.66,975.123 1249.99,972.957 1240.5,970C 1231.45,969.056 1222.45,967.723 1213.5,966C 1201.86,964.579 1190.19,963.913 1178.5,964C 1165.59,973.708 1152.76,983.542 1140,993.5C 1139.67,999.167 1139.33,1004.83 1139,1010.5C 1134.54,1027.69 1130.7,1045.02 1127.5,1062.5C 1134.49,1084.24 1137.32,1106.57 1136,1129.5C 1134.67,1132.83 1133.33,1136.17 1132,1139.5C 1130.35,1140.72 1128.52,1141.55 1126.5,1142C 1118.06,1141.41 1109.56,1140.57 1101,1139.5C 1088.96,1143.07 1076.8,1146.23 1064.5,1149C 1056.21,1150.41 1047.87,1150.74 1039.5,1150C 1037.71,1149.22 1036.21,1148.05 1035,1146.5C 1018.2,1120.65 994.697,1104.15 964.5,1097C 958.742,1096.52 953.075,1095.52 947.5,1094C 938.44,1093.88 929.44,1093.22 920.5,1092C 914.09,1090.55 909.923,1086.72 908,1080.5C 907.721,1067.13 906.887,1053.79 905.5,1040.5C 906.883,1031.54 907.383,1022.54 907,1013.5C 905.494,1008.99 902.827,1005.33 899,1002.5C 893.151,972.734 888.817,942.734 886,912.5C 881.208,891.122 876.208,869.788 871,848.5C 868.069,840.693 864.569,833.193 860.5,826C 846.377,821.709 832.044,818.709 817.5,817C 808.833,821.667 800.167,826.333 791.5,831C 774.526,845.481 756.526,858.481 737.5,870C 734.783,875.203 730.449,878.203 724.5,879C 720.406,879.767 716.406,879.434 712.5,878C 703.833,872 695.167,866 686.5,860C 684.956,858.813 683.289,858.48 681.5,859C 661.962,869.385 644.629,882.551 629.5,898.5C 624.752,904.084 620.585,910.084 617,916.5C 611.511,922.824 604.678,924.991 596.5,923C 570.555,910.7 545.888,896.367 522.5,880C 512.343,877.505 502.677,873.839 493.5,869C 492.54,867.581 491.707,866.081 491,864.5C 490.35,857.025 491.016,849.692 493,842.5C 500.409,834.098 507.409,825.432 514,816.5C 517.09,804.984 520.757,793.651 525,782.5C 527.618,777.549 531.284,773.549 536,770.5C 536.609,764.947 538.609,759.947 542,755.5C 551.694,742.129 561.028,728.462 570,714.5C 573.499,702.505 576.999,690.505 580.5,678.5C 575.954,671.795 575.454,664.795 579,657.5C 585.292,652.877 591.292,647.877 597,642.5C 611.764,624.911 625.93,606.911 639.5,588.5C 639.023,587.522 638.357,586.689 637.5,586C 611.556,572.695 584.889,561.028 557.5,551C 541.015,543.59 524.682,535.924 508.5,528C 497.505,525.252 486.839,521.586 476.5,517C 472.224,512.108 471.39,506.608 474,500.5C 476.08,498.877 478.246,497.377 480.5,496C 488.175,494.749 495.842,493.415 503.5,492C 510.862,488.213 518.529,485.213 526.5,483C 543.322,478.584 560.322,474.918 577.5,472C 612.825,460.044 648.658,449.877 685,441.5C 688.785,442.658 692.619,443.158 696.5,443C 709.384,439.196 722.384,435.862 735.5,433C 745.124,429.934 754.457,426.267 763.5,422C 751.073,416.456 738.406,411.456 725.5,407C 717.56,399.89 716.393,391.723 722,382.5C 742.86,357.64 765.694,334.806 790.5,314C 781.688,309.093 772.688,304.427 763.5,300C 752.555,292.533 740.555,287.199 727.5,284C 721.624,279.038 719.79,272.871 722,265.5C 729.578,254.014 735.244,241.68 739,228.5C 745.14,218.338 753.307,216.171 763.5,222C 768.246,223.349 773.08,224.183 778,224.5C 796.705,221.316 815.539,219.316 834.5,218.5C 834.608,216.217 835.441,214.217 837,212.5C 842.546,205.463 848.712,198.963 855.5,193C 858.167,192 860.833,191 863.5,190C 870.99,189.347 878.49,188.847 886,188.5C 902.496,189.403 918.996,190.237 935.5,191C 942.666,194.167 950.166,196 958,196.5C 987.935,195.064 1017.77,192.564 1047.5,189C 1091.59,180.605 1134.93,169.271 1177.5,155C 1194.3,148.31 1209.97,139.81 1224.5,129.5 Z"/></g>
<g><path style="opacity:1" fill="#9c8a5e" d="M 1276.5,292.5 C 1280.5,294.61 1284.84,295.943 1289.5,296.5C 1310.84,301.667 1332.17,306.834 1353.5,312C 1360.32,313.402 1366.65,312.402 1372.5,309C 1373.39,307.385 1374.39,305.885 1375.5,304.5C 1383.8,304.789 1391.8,303.789 1399.5,301.5C 1420.07,296.365 1440.07,289.532 1459.5,281C 1463.06,279.108 1465.56,276.275 1467,272.5C 1468.22,266.784 1469.72,261.284 1471.5,256C 1486.49,254.867 1501.49,254.534 1516.5,255C 1530.01,264.59 1544.68,271.757 1560.5,276.5C 1562.51,277.924 1564.85,278.59 1567.5,278.5C 1570.22,279.913 1573.22,280.58 1576.5,280.5C 1582.55,280.912 1588.55,281.745 1594.5,283C 1609.57,289.131 1625.23,292.797 1641.5,294C 1651.41,296.977 1661.41,299.644 1671.5,302C 1689.98,304.797 1708.32,308.297 1726.5,312.5C 1732.85,314.764 1739.52,315.764 1746.5,315.5C 1776.22,315.045 1805.88,316.045 1835.5,318.5C 1844.84,317.884 1854.18,317.217 1863.5,316.5C 1866.08,324.327 1869.75,331.66 1874.5,338.5C 1848.27,342.523 1822.93,349.689 1798.5,360C 1793.34,362.412 1788.34,365.079 1783.5,368C 1761.94,376.778 1740.61,386.111 1719.5,396C 1702.86,406.469 1688.19,419.302 1675.5,434.5C 1659.44,425.932 1643.78,416.765 1628.5,407C 1618.24,402.19 1607.57,398.69 1596.5,396.5C 1585.01,395.341 1573.34,395.174 1561.5,396C 1560.26,396.232 1559.26,396.732 1558.5,397.5C 1554.62,399.075 1550.62,399.908 1546.5,400C 1535.27,392.356 1523.27,386.023 1510.5,381C 1495.4,374.567 1480.07,373.9 1464.5,379C 1433.13,399.027 1403.47,421.36 1375.5,446C 1368.38,449.98 1361.88,454.814 1356,460.5C 1354.26,463.309 1353.09,466.309 1352.5,469.5C 1351.22,476.704 1351.22,484.038 1352.5,491.5C 1350.48,500.309 1353.14,507.475 1360.5,513C 1389.58,524.432 1418.24,536.766 1446.5,550C 1453,555.833 1459.5,561.667 1466,567.5C 1470.46,573.625 1475.29,579.458 1480.5,585C 1482.74,586.136 1485.08,586.97 1487.5,587.5C 1494.97,588.816 1502.3,588.149 1509.5,585.5C 1520.28,583.063 1531.28,581.063 1542.5,579.5C 1560.5,578.167 1578.5,578.167 1596.5,579.5C 1608.89,580.282 1621.23,581.449 1633.5,583C 1641.09,594.18 1648.42,605.513 1655.5,617C 1650.27,623.071 1645.6,629.571 1641.5,636.5C 1638.22,637.657 1634.88,637.824 1631.5,637C 1619.85,634.97 1608.19,633.137 1596.5,631.5C 1590.41,629.951 1584.08,629.284 1577.5,629.5C 1572.65,629.501 1567.99,629.834 1563.5,630.5C 1558.84,631.057 1554.5,632.39 1550.5,634.5C 1538.42,638.367 1526.42,642.534 1514.5,647C 1501.28,649.851 1488.28,653.518 1475.5,658C 1469.91,660.599 1464.58,663.599 1459.5,667C 1456.18,667.498 1452.85,667.665 1449.5,667.5C 1447.16,665.96 1444.5,665.294 1441.5,665.5C 1414.53,656.814 1386.87,652.647 1358.5,653C 1352.6,653.892 1346.93,655.558 1341.5,658C 1333.88,663.284 1326.55,668.951 1319.5,675C 1305,690.833 1290.5,706.667 1276,722.5C 1263.42,739.992 1251.09,757.659 1239,775.5C 1236.26,780.299 1234.1,785.299 1232.5,790.5C 1231.08,792.515 1230.41,794.848 1230.5,797.5C 1229.37,805.421 1229.2,813.421 1230,821.5C 1232.07,832.542 1234.24,843.542 1236.5,854.5C 1236.96,857.482 1237.3,860.482 1237.5,863.5C 1237.27,868.248 1237.77,872.915 1239,877.5C 1241.61,882.435 1244.61,887.102 1248,891.5C 1257.2,900.363 1266.03,909.53 1274.5,919C 1276.22,919.739 1277.89,920.573 1279.5,921.5C 1274.67,930.501 1269.33,939.168 1263.5,947.5C 1261.03,948.797 1258.69,948.797 1256.5,947.5C 1253.15,945.742 1249.48,944.742 1245.5,944.5C 1235.88,942.841 1226.21,941.508 1216.5,940.5C 1211.1,938.795 1205.43,938.128 1199.5,938.5C 1195.83,938.5 1192.17,938.5 1188.5,938.5C 1186.02,937.836 1183.36,937.503 1180.5,937.5C 1176.53,937.294 1172.86,937.961 1169.5,939.5C 1151.22,950.935 1133.88,963.768 1117.5,978C 1112.38,984.14 1111.04,991.14 1113.5,999C 1111.01,1016.78 1107.18,1034.28 1102,1051.5C 1101.33,1057.5 1101.33,1063.5 1102,1069.5C 1103.74,1075.56 1105.58,1081.56 1107.5,1087.5C 1105.69,1087.49 1104.02,1087.99 1102.5,1089C 1099.71,1092.08 1097.54,1095.58 1096,1099.5C 1093.41,1101.55 1090.91,1103.72 1088.5,1106C 1076.28,1113.19 1063.78,1119.69 1051,1125.5C 1049.83,1125.33 1048.67,1125.17 1047.5,1125C 1031.91,1105.04 1012.25,1090.71 988.5,1082C 975.264,1070.85 959.931,1065.52 942.5,1066C 939.174,1054.02 935.841,1042.02 932.5,1030C 933.407,1021.72 934.907,1013.56 937,1005.5C 937.834,991.837 932.334,981.504 920.5,974.5C 920.468,969.609 919.801,964.943 918.5,960.5C 916.174,944.877 914.174,929.21 912.5,913.5C 912.612,907.274 911.946,901.274 910.5,895.5C 910.736,892.391 910.403,889.391 909.5,886.5C 909.473,880.949 908.806,875.616 907.5,870.5C 907.715,858.971 905.715,847.971 901.5,837.5C 901.468,832.609 900.801,827.943 899.5,823.5C 898.743,818.161 896.076,813.994 891.5,811C 886.712,808.271 881.712,806.104 876.5,804.5C 872.915,802.194 868.915,800.861 864.5,800.5C 845.678,796.303 826.678,792.803 807.5,790C 800.675,788.201 794.842,789.701 790,794.5C 789.007,797.308 788.173,800.141 787.5,803C 766.776,818.056 745.776,832.723 724.5,847C 719.922,847.054 715.922,845.387 712.5,842C 705.039,837.934 697.373,834.434 689.5,831.5C 684.881,829.954 680.548,830.62 676.5,833.5C 664.92,838.289 653.92,844.123 643.5,851C 630.982,861.095 618.648,871.429 606.5,882C 604.866,883.308 603.032,884.142 601,884.5C 576.551,875.359 553.385,863.692 531.5,849.5C 530.571,848.311 530.238,846.978 530.5,845.5C 533.324,841.37 534.991,836.703 535.5,831.5C 538.77,818.606 542.936,805.94 548,793.5C 570.132,772.707 590.799,750.707 610,727.5C 613.02,722.468 615.186,717.135 616.5,711.5C 616.089,705.752 613.089,702.086 607.5,700.5C 607.167,699.667 606.833,698.833 606.5,698C 607.107,687.838 607.774,677.672 608.5,667.5C 628.335,646.836 646.502,624.836 663,601.5C 668.252,593.977 669.919,585.644 668,576.5C 663.457,571.813 658.291,567.98 652.5,565C 643.797,556.629 634.797,548.629 625.5,541C 617.194,539.966 608.86,538.966 600.5,538C 579.846,529.84 560.179,519.84 541.5,508C 542.672,507.581 543.672,506.915 544.5,506C 550.848,505.082 557.181,504.082 563.5,503C 575.067,499.588 586.734,496.588 598.5,494C 629.457,482.845 661.123,474.678 693.5,469.5C 696.152,469.59 698.485,468.924 700.5,467.5C 709.839,465.164 719.173,462.831 728.5,460.5C 731.152,460.59 733.485,459.924 735.5,458.5C 746.315,455.506 756.982,452.006 767.5,448C 777.436,442.199 787.769,437.199 798.5,433C 800.041,431.629 801.375,430.129 802.5,428.5C 804.652,426.393 805.652,423.726 805.5,420.5C 805.56,417.845 804.893,415.511 803.5,413.5C 802.654,402.507 797.321,394.673 787.5,390C 780.833,387.333 774.167,384.667 767.5,382C 766.223,379.534 766.223,377.034 767.5,374.5C 784.187,363.156 800.52,351.323 816.5,339C 823.031,332.703 829.198,326.203 835,319.5C 836.901,312.534 836.068,305.867 832.5,299.5C 819.576,291.697 806.576,283.864 793.5,276C 782.72,270.47 771.72,265.636 760.5,261.5C 760.586,257.143 760.92,252.81 761.5,248.5C 771.132,249.588 780.799,249.755 790.5,249C 801.688,246.352 813.022,244.852 824.5,244.5C 829.906,245.26 834.573,243.927 838.5,240.5C 842.956,237.878 846.623,234.378 849.5,230C 855.401,225.917 861.401,222.083 867.5,218.5C 868.756,218.539 869.756,218.039 870.5,217C 884.496,216.5 898.496,216.333 912.5,216.5C 918.509,216.334 924.509,216.501 930.5,217C 940.24,221.916 950.574,223.749 961.5,222.5C 988.25,221.542 1014.92,219.542 1041.5,216.5C 1046.54,216.412 1051.54,215.912 1056.5,215C 1057.42,214.722 1058.08,214.222 1058.5,213.5C 1081.84,208.26 1105.17,202.926 1128.5,197.5C 1130.79,197.405 1132.79,196.738 1134.5,195.5C 1162.22,188.872 1188.89,179.372 1214.5,167C 1219.98,162.846 1225.81,159.346 1232,156.5C 1245.62,160.062 1258.12,165.895 1269.5,174C 1267.53,183.39 1266.36,192.89 1266,202.5C 1260,207.833 1254,213.167 1248,218.5C 1239.33,228.5 1230.67,238.5 1222,248.5C 1220.94,254.724 1221.61,260.724 1224,266.5C 1227.21,273.086 1231.04,279.253 1235.5,285C 1236.83,285.667 1238.17,286.333 1239.5,287C 1252.22,286.482 1264.55,288.315 1276.5,292.5 Z"/></g>
<g><path style="opacity:1" fill="#705c43" d="M 1134.5,195.5 C 1132.79,196.738 1130.79,197.405 1128.5,197.5C 1130.1,195.926 1132.1,195.259 1134.5,195.5 Z"/></g>
<g><path style="opacity:1" fill="#8a7753" d="M 912.5,216.5 C 898.496,216.333 884.496,216.5 870.5,217C 869.756,218.039 868.756,218.539 867.5,218.5C 867.953,217.542 868.619,216.708 869.5,216C 884.006,215.173 898.339,215.339 912.5,216.5 Z"/></g>
<g><path style="opacity:1" fill="#7f6c4d" d="M 1058.5,213.5 C 1058.08,214.222 1057.42,214.722 1056.5,215C 1051.54,215.912 1046.54,216.412 1041.5,216.5C 1046.96,215.049 1052.63,214.049 1058.5,213.5 Z"/></g>
<g><path style="opacity:1" fill="#b99f7f" d="M 916.5,252.5 C 944.997,253.664 973.664,253.83 1002.5,253C 1011.72,252.881 1020.72,252.047 1029.5,250.5C 1053.05,249.424 1076.38,246.591 1099.5,242C 1130.44,235.071 1161.11,227.238 1191.5,218.5C 1191.33,243.169 1191.5,267.836 1192,292.5C 1194.59,300.349 1198.26,307.683 1203,314.5C 1205.07,315.525 1207.24,316.358 1209.5,317C 1215.5,317.333 1221.5,317.667 1227.5,318C 1248.85,324.753 1270.51,330.087 1292.5,334C 1303.4,338.448 1314.74,341.114 1326.5,342C 1351.53,342.92 1376.53,342.587 1401.5,341C 1403.82,338.352 1406.49,336.019 1409.5,334C 1417.2,333.706 1424.87,333.04 1432.5,332C 1453.12,325.43 1473.45,318.096 1493.5,310C 1497.17,305.487 1499.34,300.32 1500,294.5C 1506.55,297.523 1513.05,300.689 1519.5,304C 1526.95,305.595 1534.28,307.595 1541.5,310C 1557.01,311.589 1572.01,315.256 1586.5,321C 1601.24,322.178 1615.57,325.178 1629.5,330C 1656.14,335.213 1682.8,340.213 1709.5,345C 1717.17,345.333 1724.83,345.667 1732.5,346C 1715.75,352.544 1699.42,359.877 1683.5,368C 1677.99,372.181 1672.49,376.348 1667,380.5C 1655.72,374.629 1643.89,370.129 1631.5,367C 1611.52,365.87 1591.52,365.203 1571.5,365C 1557.72,357.514 1543.39,351.181 1528.5,346C 1500.86,344.405 1473.19,344.072 1445.5,345C 1439.7,346.741 1434.03,348.741 1428.5,351C 1411.17,363.333 1393.83,375.667 1376.5,388C 1362.48,401.195 1347.48,413.028 1331.5,423.5C 1327.34,427.154 1324.17,431.487 1322,436.5C 1320.61,467.489 1320.27,498.489 1321,529.5C 1322.66,538.833 1328.16,544.667 1337.5,547C 1363,556.847 1388.33,567.513 1413.5,579C 1426.87,589.372 1438.54,601.372 1448.5,615C 1450.04,615.29 1451.38,615.956 1452.5,617C 1460.83,617.333 1469.17,617.667 1477.5,618C 1465.94,620.933 1454.44,624.099 1443,627.5C 1434.57,625.633 1426.07,624.133 1417.5,623C 1386.5,622.333 1355.5,622.333 1324.5,623C 1317.38,624.563 1310.71,627.23 1304.5,631C 1294.06,639.433 1284.23,648.599 1275,658.5C 1265.67,669.491 1256.01,680.158 1246,690.5C 1243.49,694.858 1240.49,698.858 1237,702.5C 1228.94,714.232 1221.27,726.232 1214,738.5C 1205.67,747.131 1201.01,757.465 1200,769.5C 1199.33,796.833 1199.33,824.167 1200,851.5C 1204.02,869.694 1206.85,888.027 1208.5,906.5C 1186.17,907.333 1163.84,907.833 1141.5,908C 1139.61,908.973 1137.61,909.64 1135.5,910C 1122.78,919.721 1109.78,929.054 1096.5,938C 1093.31,942.689 1089.31,946.523 1084.5,949.5C 1082.86,960.078 1082.02,970.745 1082,981.5C 1077.62,994.556 1074.29,1007.89 1072,1021.5C 1071.67,1033.83 1071.33,1046.17 1071,1058.5C 1068.49,1064.51 1064.66,1069.51 1059.5,1073.5C 1047.24,1064.2 1033.9,1056.7 1019.5,1051C 1006.43,1040.42 991.434,1035.42 974.5,1036C 971.026,1029.92 968.526,1023.42 967,1016.5C 966.667,997.5 966.333,978.5 966,959.5C 964.333,956.833 962.667,954.167 961,951.5C 956.982,948.479 953.316,945.146 950,941.5C 947.519,918.43 944.519,895.43 941,872.5C 939.731,853.077 937.731,833.743 935,814.5C 934.241,811.215 932.908,808.215 931,805.5C 930.667,800.5 930.333,795.5 930,790.5C 929.036,786.532 926.869,783.365 923.5,781C 920.339,779.587 917.339,777.92 914.5,776C 891.263,768.811 867.597,763.478 843.5,760C 817.858,758.433 792.191,758.1 766.5,759C 760.149,761.182 756.815,765.682 756.5,772.5C 743.134,780.699 730.468,789.865 718.5,800C 695.833,800.333 673.167,800.667 650.5,801C 629.153,809.418 609.986,821.251 593,836.5C 588.714,833.941 584.214,831.774 579.5,830C 577.022,828.062 576.855,825.895 579,823.5C 595.561,807.36 611.895,791.027 628,774.5C 633.385,768.116 638.385,761.45 643,754.5C 644.725,751.326 646.058,747.993 647,744.5C 647.333,726.5 647.667,708.5 648,690.5C 666.203,669.635 682.869,647.635 698,624.5C 699.62,598.541 699.954,572.541 699,546.5C 696.08,541.78 691.913,538.613 686.5,537C 678.626,529.051 670.293,521.551 661.5,514.5C 672.693,511.085 684.026,507.918 695.5,505C 702.709,503.137 710.043,502.137 717.5,502C 739.852,496.162 762.185,490.162 784.5,484C 799.648,477.591 814.648,470.924 829.5,464C 831.617,462.269 833.117,460.102 834,457.5C 834.819,431.97 834.653,406.47 833.5,381C 839.978,374.864 846.811,369.031 854,363.5C 857.429,358.981 861.096,354.648 865,350.5C 865.333,349.5 865.667,348.5 866,347.5C 866.618,322.467 866.618,297.467 866,272.5C 868.754,270.873 871.588,269.373 874.5,268C 876.257,265.154 878.257,262.488 880.5,260C 887.221,256.22 893.721,252.053 900,247.5C 901.171,248.893 902.671,249.727 904.5,250C 908.584,250.522 912.584,251.355 916.5,252.5 Z"/></g>
<g><path style="opacity:1" fill="#877451" d="M 838.5,240.5 C 834.573,243.927 829.906,245.26 824.5,244.5C 829.118,243.41 833.785,242.077 838.5,240.5 Z"/></g>
<g><path style="opacity:1" fill="#af9874" d="M 1029.5,250.5 C 1020.72,252.047 1011.72,252.881 1002.5,253C 973.664,253.83 944.997,253.664 916.5,252.5C 954.19,252.867 991.856,252.201 1029.5,250.5 Z"/></g>
<g><path style="opacity:1" fill="#69553f" d="M 1560.5,276.5 C 1563.15,276.41 1565.49,277.076 1567.5,278.5C 1564.85,278.59 1562.51,277.924 1560.5,276.5 Z"/></g>
<g><path style="opacity:1" fill="#7c684b" d="M 1567.5,278.5 C 1570.78,278.42 1573.78,279.087 1576.5,280.5C 1573.22,280.58 1570.22,279.913 1567.5,278.5 Z"/></g>
<g><path style="opacity:1" fill="#5f4b3a" d="M 1276.5,292.5 C 1281.16,293.057 1285.5,294.39 1289.5,296.5C 1284.84,295.943 1280.5,294.61 1276.5,292.5 Z"/></g>
<g><path style="opacity:1" fill="#5f4b39" d="M 1399.5,301.5 C 1391.8,303.789 1383.8,304.789 1375.5,304.5C 1383.32,303.189 1391.32,302.189 1399.5,301.5 Z"/></g>
<g><path style="opacity:1" fill="#65513d" d="M 1726.5,312.5 C 1733.42,312.656 1740.09,313.656 1746.5,315.5C 1739.52,315.764 1732.85,314.764 1726.5,312.5 Z"/></g>
<g><path style="opacity:1" fill="#6c5841" d="M 1596.5,396.5 C 1583.8,396.246 1571.14,396.579 1558.5,397.5C 1559.26,396.732 1560.26,396.232 1561.5,396C 1573.34,395.174 1585.01,395.341 1596.5,396.5 Z"/></g>
<g><path style="opacity:1" fill="#857250" d="M 803.5,413.5 C 804.893,415.511 805.56,417.845 805.5,420.5C 805.652,423.726 804.652,426.393 802.5,428.5C 804.7,423.63 805.033,418.63 803.5,413.5 Z"/></g>
<g><path style="opacity:1" fill="#7d694c" d="M 735.5,458.5 C 733.485,459.924 731.152,460.59 728.5,460.5C 730.515,459.076 732.848,458.41 735.5,458.5 Z"/></g>
<g><path style="opacity:1" fill="#786548" d="M 700.5,467.5 C 698.485,468.924 696.152,469.59 693.5,469.5C 695.515,468.076 697.848,467.41 700.5,467.5 Z"/></g>
<g><path style="opacity:1" fill="#837050" d="M 1352.5,469.5 C 1352.84,477.024 1352.84,484.357 1352.5,491.5C 1351.22,484.038 1351.22,476.704 1352.5,469.5 Z"/></g>
<g><path style="opacity:1" fill="#897653" d="M 1596.5,579.5 C 1578.5,578.167 1560.5,578.167 1542.5,579.5C 1544.29,578.691 1546.29,578.191 1548.5,578C 1555,577.833 1561.5,577.667 1568,577.5C 1577.71,577.319 1587.21,577.986 1596.5,579.5 Z"/></g>
<g><path style="opacity:1" fill="#837150" d="M 1509.5,585.5 C 1502.3,588.149 1494.97,588.816 1487.5,587.5C 1494.86,587.115 1502.19,586.448 1509.5,585.5 Z"/></g>
<g><path style="opacity:1" fill="#7c694b" d="M 1563.5,630.5 C 1567.99,629.834 1572.65,629.501 1577.5,629.5C 1584.08,629.284 1590.41,629.951 1596.5,631.5C 1585.52,630.649 1574.52,630.316 1563.5,630.5 Z"/></g>
<g><path style="opacity:1" fill="#5f4b3a" d="M 1563.5,630.5 C 1559.5,632.61 1555.16,633.943 1550.5,634.5C 1554.5,632.39 1558.84,631.057 1563.5,630.5 Z"/></g>
<g><path style="opacity:1" fill="#756247" d="M 1441.5,665.5 C 1444.5,665.294 1447.16,665.96 1449.5,667.5C 1446.57,667.435 1443.91,666.768 1441.5,665.5 Z"/></g>
<g><path style="opacity:1" fill="#64503c" d="M 1232.5,790.5 C 1232.59,793.152 1231.92,795.485 1230.5,797.5C 1230.41,794.848 1231.08,792.515 1232.5,790.5 Z"/></g>
<g><path style="opacity:1" fill="#7d6a4c" d="M 864.5,800.5 C 868.915,800.861 872.915,802.194 876.5,804.5C 872.216,803.739 868.216,802.405 864.5,800.5 Z"/></g>
<g><path style="opacity:1" fill="#604c3a" d="M 899.5,823.5 C 900.801,827.943 901.468,832.609 901.5,837.5C 899.896,833.1 899.229,828.434 899.5,823.5 Z"/></g>
<g><path style="opacity:1" fill="#604c3a" d="M 689.5,831.5 C 685.094,831.748 680.76,832.415 676.5,833.5C 680.548,830.62 684.881,829.954 689.5,831.5 Z"/></g>
<g><path style="opacity:1" fill="#867351" d="M 535.5,831.5 C 534.991,836.703 533.324,841.37 530.5,845.5C 531.796,840.607 533.462,835.94 535.5,831.5 Z"/></g>
<g><path style="opacity:1" fill="#786448" d="M 1236.5,854.5 C 1238.48,857.373 1238.81,860.373 1237.5,863.5C 1237.3,860.482 1236.96,857.482 1236.5,854.5 Z"/></g>
<g><path style="opacity:1" fill="#614d3b" d="M 907.5,870.5 C 908.806,875.616 909.473,880.949 909.5,886.5C 908.043,881.402 907.376,876.069 907.5,870.5 Z"/></g>
<g><path style="opacity:1" fill="#756147" d="M 910.5,895.5 C 911.946,901.274 912.612,907.274 912.5,913.5C 911.19,907.712 910.523,901.712 910.5,895.5 Z"/></g>
<g><path style="opacity:1" fill="#614d3b" d="M 1188.5,938.5 C 1182.13,938.347 1175.8,938.68 1169.5,939.5C 1172.86,937.961 1176.53,937.294 1180.5,937.5C 1183.36,937.503 1186.02,937.836 1188.5,938.5 Z"/></g>
<g><path style="opacity:1" fill="#6d5a42" d="M 1199.5,938.5 C 1205.43,938.128 1211.1,938.795 1216.5,940.5C 1210.65,940.184 1204.98,939.518 1199.5,938.5 Z"/></g>
<g><path style="opacity:1" fill="#7c694b" d="M 1245.5,944.5 C 1249.48,944.742 1253.15,945.742 1256.5,947.5C 1252.52,947.258 1248.85,946.258 1245.5,944.5 Z"/></g>
<g><path style="opacity:1" fill="#6a5640" d="M 918.5,960.5 C 919.801,964.943 920.468,969.609 920.5,974.5C 919.028,970.081 918.362,965.414 918.5,960.5 Z"/></g>
</svg>
