<?xml version="1.0" encoding="UTF-8"?>
<!DOCTYPE svg PUBLIC "-//W3C//DTD SVG 1.1//EN" "http://www.w3.org/Graphics/SVG/1.1/DTD/svg11.dtd">
<svg xmlns="http://www.w3.org/2000/svg" version="1.1" width="2296px" height="1221px" style="shape-rendering:geometricPrecision; text-rendering:geometricPrecision; image-rendering:optimizeQuality; fill-rule:evenodd; clip-rule:evenodd" xmlns:xlink="http://www.w3.org/1999/xlink">
<g><path style="opacity:0.984" fill="#48332c" d="M 1179.5,48.5 C 1202.83,51.03 1226.16,53.53 1249.5,56C 1258.56,57.5748 1266.9,60.9082 1274.5,66C 1289.95,71.7038 1304.95,78.3704 1319.5,86C 1334.48,99.9814 1347.65,115.481 1359,132.5C 1375.16,159.161 1389.5,186.828 1402,215.5C 1403.87,248.212 1406.54,280.879 1410,313.5C 1413.3,325.361 1415.97,337.361 1418,349.5C 1422.42,360.854 1425.76,372.521 1428,384.5C 1431.3,386.795 1434.3,389.462 1437,392.5C 1440.17,397 1443.33,401.5 1446.5,406C 1459.25,409.77 1468.41,417.603 1474,429.5C 1475.45,442.781 1476.28,456.114 1476.5,469.5C 1476.6,479.271 1475.77,488.937 1474,498.5C 1469.27,506.193 1462.44,509.026 1453.5,507C 1449.83,505.981 1446.66,504.148 1444,501.5C 1438.19,502.759 1432.35,503.926 1426.5,505C 1424.58,505.36 1422.91,506.194 1421.5,507.5C 1423.32,514.096 1424.82,520.763 1426,527.5C 1429.95,533.451 1434.62,538.784 1440,543.5C 1444.85,553.305 1444.52,562.972 1439,572.5C 1439.7,583.293 1435.2,590.793 1425.5,595C 1417.42,594.678 1409.42,595.678 1401.5,598C 1389.14,602.675 1376.47,606.342 1363.5,609C 1354.9,614.135 1345.9,618.468 1336.5,622C 1332.1,626.283 1327.6,630.45 1323,634.5C 1316.11,649.508 1311.44,665.174 1309,681.5C 1301.84,691.981 1292.01,698.481 1279.5,701C 1265.99,705.902 1254.82,702.735 1246,691.5C 1243,687.833 1240,684.167 1237,680.5C 1233.74,674.44 1231.24,668.107 1229.5,661.5C 1220.17,666.498 1211.17,671.998 1202.5,678C 1191.42,681.472 1181.92,687.639 1174,696.5C 1171.13,699.781 1169.96,703.614 1170.5,708C 1172.63,722.754 1173.79,737.587 1174,752.5C 1180.99,763.751 1182.66,775.751 1179,788.5C 1178,791.5 1177,794.5 1176,797.5C 1170.94,804.228 1166.27,811.228 1162,818.5C 1160.27,824.032 1159.27,829.699 1159,835.5C 1156.56,841.606 1152.06,845.106 1145.5,846C 1139.75,857.039 1130.75,862.039 1118.5,861C 1112.79,858.459 1108.12,854.626 1104.5,849.5C 1088.55,841.108 1072.88,841.608 1057.5,851C 1049.33,861.167 1041.17,871.333 1033,881.5C 1017.89,896.899 1003.72,896.066 990.5,879C 982.836,875.533 977.003,877.367 973,884.5C 968.333,893.167 963.667,901.833 959,910.5C 953.936,926.468 952.269,942.801 954,959.5C 958.331,975.49 962.664,991.49 967,1007.5C 973.078,1012.12 979.245,1016.62 985.5,1021C 994.771,1024.63 1003.27,1029.47 1011,1035.5C 1013.55,1039.44 1015.05,1043.78 1015.5,1048.5C 1013.72,1056.87 1013.55,1065.54 1015,1074.5C 1016.91,1077.22 1018.24,1080.22 1019,1083.5C 1025.9,1090.78 1034.4,1093.62 1044.5,1092C 1051.53,1093.92 1056.69,1098.09 1060,1104.5C 1064.41,1113.66 1069.08,1122.66 1074,1131.5C 1077.35,1140.4 1079.52,1149.57 1080.5,1159C 1078.05,1169.22 1072.05,1176.56 1062.5,1181C 1057.78,1185.72 1053.11,1190.39 1048.5,1195C 1046.5,1196 1044.5,1197 1042.5,1198C 1033.37,1197.34 1024.2,1196.51 1015,1195.5C 998.276,1200.63 984.109,1196.8 972.5,1184C 961.833,1179 951.167,1174 940.5,1169C 934.19,1163.02 928.19,1156.69 922.5,1150C 917.428,1149.25 912.428,1149.58 907.5,1151C 901.609,1155.11 895.276,1158.45 888.5,1161C 885.215,1165.95 881.548,1170.62 877.5,1175C 872.768,1177.4 867.768,1178.07 862.5,1177C 858.779,1174.47 854.779,1172.47 850.5,1171C 818.135,1165.24 786.135,1157.91 754.5,1149C 736.564,1142.29 731.397,1130.13 739,1112.5C 740.738,1108.76 743.238,1105.59 746.5,1103C 759.115,1096.85 770.115,1088.52 779.5,1078C 797.394,1067.45 813.561,1054.62 828,1039.5C 828.822,1037.21 829.489,1034.88 830,1032.5C 833.05,1007.53 835.883,982.531 838.5,957.5C 838.553,951.039 837.72,944.706 836,938.5C 830.003,929.506 825.337,919.839 822,909.5C 813,897.167 804,884.833 795,872.5C 790.335,861.504 786.668,850.171 784,838.5C 779.249,835.541 774.416,832.707 769.5,830C 765.383,825.886 763.383,820.886 763.5,815C 764.921,794.03 767.421,773.197 771,752.5C 772.876,740.58 778.043,730.414 786.5,722C 794.947,718.388 803.614,715.388 812.5,713C 821.338,706.834 830.672,701.501 840.5,697C 850.454,690.102 859.954,682.602 869,674.5C 876.398,666.035 883.065,657.035 889,647.5C 890.601,642.864 892.101,638.198 893.5,633.5C 891.444,624.515 891.278,615.515 893,606.5C 893.561,603.71 894.894,601.377 897,599.5C 898.045,590.358 897.379,581.358 895,572.5C 882.27,568.428 874.27,559.762 871,546.5C 867.454,534.981 866.787,523.314 869,511.5C 871.307,502.191 877.14,496.691 886.5,495C 895.315,495.022 904.148,495.189 913,495.5C 920.242,495.612 927.409,495.112 934.5,494C 941.698,491.381 948.698,488.381 955.5,485C 965.453,474.473 970.286,461.973 970,447.5C 966.519,440.044 962.852,432.711 959,425.5C 957.045,420.679 955.878,415.679 955.5,410.5C 956.521,402.238 957.854,394.072 959.5,386C 956.318,380.803 953.818,375.303 952,369.5C 945.958,363.127 940.292,356.46 935,349.5C 933.756,346.436 932.923,343.269 932.5,340C 935.507,329.155 940.007,318.988 946,309.5C 950.476,304.934 955.143,300.601 960,296.5C 963.252,291.666 966.252,286.666 969,281.5C 973.222,277.948 978.055,276.781 983.5,278C 989.566,282.395 995.9,286.395 1002.5,290C 1025.53,290.486 1048.53,289.819 1071.5,288C 1086.22,286.869 1099.89,282.536 1112.5,275C 1123.05,264.446 1133.55,253.946 1144,243.5C 1145.68,230.325 1153.18,223.658 1166.5,223.5C 1177.2,224.869 1187.86,226.036 1198.5,227C 1200.5,226 1202.5,225 1204.5,224C 1212.04,216.13 1219.21,207.963 1226,199.5C 1233.73,186.51 1236.73,172.51 1235,157.5C 1234.28,155.051 1233.28,152.717 1232,150.5C 1222.43,141.937 1211.6,135.437 1199.5,131C 1196.96,128.795 1194.79,126.295 1193,123.5C 1184.41,105.381 1176.41,87.0472 1169,68.5C 1166.49,58.5246 1169.99,51.8579 1179.5,48.5 Z"/></g>
<g><path style="opacity:1" fill="#a97e5f" d="M 1442.5,470.5 C 1441.83,472.833 1441.17,475.167 1440.5,477.5C 1432.86,476.52 1425.19,476.353 1417.5,477C 1403.46,481.084 1399.46,489.751 1405.5,503C 1403.07,513.122 1402.9,523.289 1405,533.5C 1405.81,536.446 1407.14,539.112 1409,541.5C 1417.45,545.73 1419.62,552.063 1415.5,560.5C 1392.12,566.679 1368.79,573.179 1345.5,580C 1324.76,589.402 1307.6,603.235 1294,621.5C 1287.44,635.523 1282.27,650.023 1278.5,665C 1275.23,664.091 1272.73,661.924 1271,658.5C 1268.14,652.248 1265.47,645.915 1263,639.5C 1256.39,630.784 1247.56,626.784 1236.5,627.5C 1228.85,627.412 1221.52,628.912 1214.5,632C 1191.99,643.948 1168.65,653.948 1144.5,662C 1137.08,665.928 1133.08,672.095 1132.5,680.5C 1133.15,685.609 1134.31,690.609 1136,695.5C 1138.08,715.78 1139.41,736.114 1140,756.5C 1140.42,760.009 1141.42,763.343 1143,766.5C 1146.36,771.893 1149.2,777.56 1151.5,783.5C 1145.45,791.403 1139.95,799.736 1135,808.5C 1131.2,816.5 1129.86,824.833 1131,833.5C 1113.36,811.791 1090.86,804.291 1063.5,811C 1045.63,819.938 1027.29,827.772 1008.5,834.5C 1001.77,830.204 994.434,828.704 986.5,830C 971.418,836.08 958.918,845.58 949,858.5C 941.726,869.375 933.726,879.709 925,889.5C 916.963,903.114 913.963,917.781 916,933.5C 917.3,963.732 925.3,992.065 940,1018.5C 953.382,1032.88 969.216,1043.71 987.5,1051C 984.86,1056.55 984.027,1062.39 985,1068.5C 989.003,1100.51 1007,1117.18 1039,1118.5C 1044.85,1129.22 1049.02,1140.56 1051.5,1152.5C 1051.43,1153.77 1051.1,1154.94 1050.5,1156C 1046.55,1158.28 1042.89,1160.95 1039.5,1164C 1038.02,1166.64 1036.02,1168.81 1033.5,1170.5C 1021.84,1167.96 1010.17,1167.96 998.5,1170.5C 993.123,1167.96 988.123,1164.8 983.5,1161C 975.081,1157.19 966.747,1153.19 958.5,1149C 955.015,1138.18 948.015,1130.51 937.5,1126C 933.855,1121.18 929.188,1117.85 923.5,1116C 912.159,1116.17 900.826,1116.83 889.5,1118C 880.523,1120.32 871.856,1123.49 863.5,1127.5C 849.612,1122.56 835.946,1117.06 822.5,1111C 815.241,1108.85 807.908,1107.02 800.5,1105.5C 814.702,1094.8 826.202,1081.8 835,1066.5C 843.991,1060.18 850.324,1051.85 854,1041.5C 856.027,1022.34 859.027,1003.34 863,984.5C 864.428,967.855 865.094,951.188 865,934.5C 861.984,925.157 857.65,916.491 852,908.5C 847.024,893.873 839.024,881.207 828,870.5C 823.883,859.599 819.217,848.933 814,838.5C 812.162,829.934 811.162,821.267 811,812.5C 810.07,798.111 810.403,783.778 812,769.5C 817.603,757.792 824.103,746.625 831.5,736C 857.108,723.034 881.108,707.701 903.5,690C 912.586,681.993 918.753,672.16 922,660.5C 923.703,636.194 924.87,611.861 925.5,587.5C 924.194,569.247 918.86,552.247 909.5,536.5C 911.607,533.939 914.274,532.106 917.5,531C 937.675,527.719 956.675,521.053 974.5,511C 990.146,496.546 999.646,478.713 1003,457.5C 1003.82,451.39 1003.32,445.39 1001.5,439.5C 1003.34,424.679 1002.51,410.013 999,395.5C 991.279,383.392 984.612,370.725 979,357.5C 977.237,346.815 973.403,336.982 967.5,328C 969.628,324.87 972.128,322.037 975,319.5C 977.056,314.689 980.056,310.689 984,307.5C 993.529,313.867 1004.03,316.2 1015.5,314.5C 1037.85,314.038 1060.18,313.204 1082.5,312C 1099.47,310.453 1115.14,305.12 1129.5,296C 1144.46,282.543 1158.46,268.376 1171.5,253.5C 1182.45,255.173 1193.45,255.673 1204.5,255C 1211.56,252.971 1217.89,249.637 1223.5,245C 1236.32,232.178 1246.82,217.678 1255,201.5C 1260.49,185.888 1262.16,169.888 1260,153.5C 1257.72,146.64 1255.05,139.974 1252,133.5C 1250.17,131.667 1248.33,129.833 1246.5,128C 1238.33,123.418 1230.33,118.585 1222.5,113.5C 1221.73,102.468 1220.73,91.4683 1219.5,80.5C 1231.04,79.8095 1242.37,80.9762 1253.5,84C 1268.83,90.6667 1284.17,97.3333 1299.5,104C 1303.85,108.07 1308.02,112.236 1312,116.5C 1333.3,149.417 1352.3,183.75 1369,219.5C 1369.94,223.114 1370.61,226.781 1371,230.5C 1371.71,265.702 1374.71,300.702 1380,335.5C 1385.33,354.833 1390.67,374.167 1396,393.5C 1406.86,416.362 1422.19,435.696 1442,451.5C 1442.5,457.825 1442.67,464.158 1442.5,470.5 Z"/></g>
<g><path style="opacity:1" fill="#b99f7f" d="M 1294.5,178.5 C 1309.24,202.303 1322.74,226.97 1335,252.5C 1335.54,255.529 1336.21,258.529 1337,261.5C 1337.92,301.107 1341.59,340.44 1348,379.5C 1353.04,391.329 1356.37,403.663 1358,416.5C 1360.3,421.685 1362.3,427.018 1364,432.5C 1366.97,437.602 1369.8,442.769 1372.5,448C 1371.21,450.071 1370.05,452.238 1369,454.5C 1368.83,479.507 1368.33,504.507 1367.5,529.5C 1348.95,535.305 1330.29,540.805 1311.5,546C 1304.83,549.333 1298.17,552.667 1291.5,556C 1282.7,563.128 1274.2,570.628 1266,578.5C 1262.92,583 1260.08,587.667 1257.5,592.5C 1237.84,593.333 1218.18,593.833 1198.5,594C 1194.44,594.34 1190.44,595.007 1186.5,596C 1172.71,602.06 1159.05,608.393 1145.5,615C 1131.94,619.78 1118.61,625.113 1105.5,631C 1102.47,633.559 1100.3,636.726 1099,640.5C 1098.33,666.167 1098.33,691.833 1099,717.5C 1099.79,721.55 1100.79,725.55 1102,729.5C 1102.62,740.89 1103.78,752.224 1105.5,763.5C 1104.16,767.511 1102.83,771.511 1101.5,775.5C 1079.5,775.333 1057.5,775.5 1035.5,776C 1031.83,777 1028.17,778 1024.5,779C 1013.18,785.161 1001.51,790.494 989.5,795C 975.486,795.981 961.486,796.981 947.5,798C 929.77,807.063 915.937,820.23 906,837.5C 903,840.5 900,843.5 897,846.5C 895.35,875.747 895.017,905.081 896,934.5C 899.396,973.13 902.396,1011.8 905,1050.5C 907.075,1054.58 909.908,1058.08 913.5,1061C 923.355,1069.18 934.022,1076.18 945.5,1082C 925.492,1082.83 905.492,1082.67 885.5,1081.5C 887.699,1072.65 889.366,1063.65 890.5,1054.5C 881.761,992.418 879.094,930.085 882.5,867.5C 877.758,854.352 870.258,843.018 860,833.5C 856.47,822.604 851.97,812.104 846.5,802C 850.708,795.088 854.541,787.921 858,780.5C 860.809,776.39 863.975,772.557 867.5,769C 889.56,757.585 910.56,744.585 930.5,730C 943.871,720.743 952.371,708.243 956,692.5C 958.293,648.908 959.126,605.241 958.5,561.5C 965.651,561.303 972.651,560.137 979.5,558C 989.318,555.09 998.651,551.09 1007.5,546C 1017.2,538.459 1024.36,528.959 1029,517.5C 1031.33,509.833 1033.67,502.167 1036,494.5C 1036.67,458.833 1036.67,423.167 1036,387.5C 1035.71,379.081 1034.71,370.747 1033,362.5C 1031.59,357.603 1029.43,353.103 1026.5,349C 1057.83,347.578 1089.16,346.245 1120.5,345C 1137.31,343.26 1152.64,337.593 1166.5,328C 1179.05,315.955 1191.05,303.455 1202.5,290.5C 1214.49,289.667 1226.49,289.167 1238.5,289C 1249.18,285.987 1258.02,280.154 1265,271.5C 1274.98,260.876 1282.98,248.876 1289,235.5C 1294.07,216.862 1295.91,197.862 1294.5,178.5 Z"/></g>
<g><path style="opacity:1" fill="#694c3d" d="M 1442.5,470.5 C 1442.81,473.247 1442.48,475.914 1441.5,478.5C 1440.89,478.376 1440.56,478.043 1440.5,477.5C 1441.17,475.167 1441.83,472.833 1442.5,470.5 Z"/></g>
</svg>
