<?xml version="1.0" encoding="UTF-8"?>
<!DOCTYPE svg PUBLIC "-//W3C//DTD SVG 1.1//EN" "http://www.w3.org/Graphics/SVG/1.1/DTD/svg11.dtd">
<svg xmlns="http://www.w3.org/2000/svg" version="1.1" width="2296px" height="1221px" style="shape-rendering:geometricPrecision; text-rendering:geometricPrecision; image-rendering:optimizeQuality; fill-rule:evenodd; clip-rule:evenodd" xmlns:xlink="http://www.w3.org/1999/xlink">
<g><path style="opacity:0.985" fill="#48332c" d="M 1004.5,36.5 C 1013.35,34.8221 1019.85,37.8221 1024,45.5C 1026.12,57.7803 1026.62,70.1136 1025.5,82.5C 1025.69,102.653 1027.52,122.653 1031,142.5C 1034.68,153.368 1037.85,164.368 1040.5,175.5C 1039.94,180.897 1037.78,185.564 1034,189.5C 1030.76,192.983 1027.76,196.65 1025,200.5C 1017.6,206.063 1011.44,212.729 1006.5,220.5C 1012.41,219.916 1018.08,221.083 1023.5,224C 1032.34,230.515 1039.17,238.682 1044,248.5C 1045.39,253.095 1045.73,257.761 1045,262.5C 1042.7,268.946 1040.53,275.446 1038.5,282C 1038.92,284.763 1039.58,287.43 1040.5,290C 1046.21,289.995 1051.87,289.329 1057.5,288C 1069.98,280.499 1083.31,278.499 1097.5,282C 1103.75,284.627 1110.08,286.96 1116.5,289C 1122.17,289.667 1127.83,289.667 1133.5,289C 1139.4,285.604 1145.73,283.271 1152.5,282C 1163.14,280.402 1173.81,279.069 1184.5,278C 1191.55,273.806 1198.89,270.139 1206.5,267C 1223.78,262.845 1241.12,259.012 1258.5,255.5C 1265.04,255.441 1270.71,257.608 1275.5,262C 1283.25,272.902 1290.09,284.402 1296,296.5C 1297.58,298.041 1299.41,299.208 1301.5,300C 1311.8,301.29 1318.97,306.79 1323,316.5C 1324.97,322.454 1326.97,328.454 1329,334.5C 1329.39,341.722 1328.89,348.889 1327.5,356C 1328.74,370.621 1324.9,383.788 1316,395.5C 1301.68,411.721 1284.51,423.555 1264.5,431C 1260.63,432.467 1256.63,433.301 1252.5,433.5C 1243.6,431.359 1234.6,429.692 1225.5,428.5C 1221.34,428.632 1217.34,429.466 1213.5,431C 1211.31,433.512 1210.97,436.345 1212.5,439.5C 1210.82,444.718 1209.65,450.051 1209,455.5C 1207.28,460.549 1204.12,464.382 1199.5,467C 1196.42,468.139 1193.42,469.472 1190.5,471C 1188.85,472.47 1187.85,474.303 1187.5,476.5C 1188.58,481.98 1188.58,487.48 1187.5,493C 1187.66,497.253 1188.32,501.42 1189.5,505.5C 1195.32,507.831 1200.15,511.498 1204,516.5C 1207.73,522.904 1212.23,528.737 1217.5,534C 1232.94,540.925 1248.94,546.259 1265.5,550C 1277.15,556.259 1280.98,565.759 1277,578.5C 1274.79,587.12 1272.79,595.786 1271,604.5C 1269.85,608.975 1268.01,613.142 1265.5,617C 1267.15,624.695 1264.82,631.028 1258.5,636C 1247.96,641.851 1237.29,647.518 1226.5,653C 1204.5,664.505 1195.33,682.671 1199,707.5C 1198.09,712.651 1196.09,717.318 1193,721.5C 1182.1,730.374 1170.26,737.874 1157.5,744C 1153.2,748.234 1148.03,750.734 1142,751.5C 1131.39,749.89 1120.89,747.723 1110.5,745C 1070.03,739.023 1031.03,744.356 993.5,761C 981.004,767.747 968.671,774.747 956.5,782C 955.299,782.903 954.465,784.069 954,785.5C 954.441,802.722 946.275,813.222 929.5,817C 924.134,817.736 918.8,817.569 913.5,816.5C 909.473,818.546 907.473,821.879 907.5,826.5C 910.027,832.526 913.194,838.193 917,843.5C 920.659,852.924 918.492,860.591 910.5,866.5C 909.67,872.138 909.17,877.804 909,883.5C 907.443,892.94 902.276,899.607 893.5,903.5C 888.04,912.77 887.206,922.437 891,932.5C 905.5,925.667 920.667,923.5 936.5,926C 939.333,927.5 941.5,929.667 943,932.5C 941.999,943.818 944.832,953.985 951.5,963C 959.059,967.947 967.059,972.114 975.5,975.5C 978.64,973.527 981.64,971.36 984.5,969C 988.428,967.675 992.428,967.342 996.5,968C 1014.3,973.267 1031.97,978.934 1049.5,985C 1053.9,986.777 1057.4,989.61 1060,993.5C 1061.67,1001.5 1063.33,1009.5 1065,1017.5C 1066.08,1034.17 1066.74,1050.83 1067,1067.5C 1065.21,1077.3 1059.71,1084.13 1050.5,1088C 1043.63,1089.98 1036.63,1091.31 1029.5,1092C 1014.95,1093.61 1002.95,1099.94 993.5,1111C 983.167,1116.67 972.833,1122.33 962.5,1128C 961.235,1129.34 960.735,1130.84 961,1132.5C 964.667,1135.5 968.333,1138.5 972,1141.5C 976.931,1150.52 975.764,1158.68 968.5,1166C 954.01,1173.08 939.677,1180.41 925.5,1188C 917.76,1190.05 910.093,1189.72 902.5,1187C 885.555,1181.24 868.888,1174.91 852.5,1168C 831.681,1165.2 811.014,1161.53 790.5,1157C 764.286,1155.26 738.119,1155.09 712,1156.5C 701.862,1155.88 691.695,1155.05 681.5,1154C 669.766,1150.93 662.933,1143.43 661,1131.5C 653.798,1125.76 649.132,1118.43 647,1109.5C 643.475,1089.73 639.475,1070.07 635,1050.5C 630.718,1010.96 625.052,971.63 618,932.5C 616.243,906.496 614.41,880.496 612.5,854.5C 611.915,844.913 614.415,836.247 620,828.5C 627,820.167 634,811.833 641,803.5C 651.721,792.779 662.387,782.113 673,771.5C 685.463,752.738 698.297,734.238 711.5,716C 723.77,708.794 736.77,703.127 750.5,699C 763.656,692.589 776.656,685.922 789.5,679C 810.842,664.165 831.175,647.998 850.5,630.5C 857.077,622.351 862.91,613.684 868,604.5C 872.018,594.114 875.018,583.448 877,572.5C 878.192,557.835 879.359,543.168 880.5,528.5C 879.759,517.871 877.593,507.537 874,497.5C 864.489,476.304 856.156,454.637 849,432.5C 837.24,408.32 821.573,386.987 802,368.5C 795.694,358.194 787.361,349.861 777,343.5C 774.558,340.952 772.892,337.952 772,334.5C 770.883,324.222 770.383,313.889 770.5,303.5C 771.319,274.167 772.152,244.834 773,215.5C 775.127,209.416 778.627,204.249 783.5,200C 793.5,194.667 803.5,189.333 813.5,184C 838.347,175.538 863.347,167.538 888.5,160C 899.24,153.927 908.074,145.761 915,135.5C 921.984,112.685 934.151,93.185 951.5,77C 955.5,74.3333 959.5,71.6667 963.5,69C 967.086,63.4094 971.42,58.4094 976.5,54C 983.207,50.6464 989.207,46.3131 994.5,41C 997.893,39.38 1001.23,37.88 1004.5,36.5 Z"/></g>
<g><path style="opacity:1" fill="#a97e5f" d="M 987.5,92.5 C 988.75,92.5774 989.583,93.244 990,94.5C 989.928,104.703 991.262,114.703 994,124.5C 1000.86,140.726 1007.03,157.226 1012.5,174C 1010.74,177.431 1008.57,180.597 1006,183.5C 997.961,189.872 990.961,197.205 985,205.5C 977.499,219.644 979.666,232.144 991.5,243C 997.463,245.918 1003.8,247.251 1010.5,247C 1014.02,252.022 1018.35,256.189 1023.5,259.5C 1014.55,274.141 1014.21,288.975 1022.5,304C 1021.59,305.789 1021.42,307.623 1022,309.5C 1029.87,317.236 1033.87,326.569 1034,337.5C 1031.73,344.804 1029.57,352.137 1027.5,359.5C 1029.67,367.825 1034.17,369.491 1041,364.5C 1044.46,357.462 1047.12,350.128 1049,342.5C 1053.92,333.647 1059.59,325.314 1066,317.5C 1072.51,312.346 1079.84,311.013 1088,313.5C 1092.25,313.736 1096.08,312.902 1099.5,311C 1109.55,317.362 1116.05,326.196 1119,337.5C 1122.59,341.393 1126.25,341.393 1130,337.5C 1130.34,330.124 1133.17,323.957 1138.5,319C 1143.4,316.277 1148.57,315.777 1154,317.5C 1166.45,317.483 1167.62,313.983 1157.5,307C 1168.21,306.056 1178.88,304.723 1189.5,303C 1210.53,292.367 1232.7,285.2 1256,281.5C 1258.76,281.685 1260.76,283.018 1262,285.5C 1265.49,295.694 1270.66,304.861 1277.5,313C 1283.14,317.159 1289.47,319.659 1296.5,320.5C 1294.02,335.387 1292.52,350.387 1292,365.5C 1284,382.997 1272.17,397.33 1256.5,408.5C 1241.89,402.817 1226.89,401.317 1211.5,404C 1199.3,406.898 1191.97,414.398 1189.5,426.5C 1182.51,427.329 1176.18,429.829 1170.5,434C 1159.6,443.225 1151.43,454.391 1146,467.5C 1142.36,480.305 1142.7,492.971 1147,505.5C 1154.76,513.928 1161.76,522.928 1168,532.5C 1174.1,540.307 1181.93,543.807 1191.5,543C 1196.63,550.234 1203.29,555.567 1211.5,559C 1224.73,564.687 1238.39,568.854 1252.5,571.5C 1249.94,582.335 1248.94,593.335 1249.5,604.5C 1245.73,604.263 1242.06,604.763 1238.5,606C 1228.78,611.527 1218.78,616.527 1208.5,621C 1177.29,637.74 1161.62,663.906 1161.5,699.5C 1153.96,704.199 1146.3,708.699 1138.5,713C 1131.15,712.115 1123.82,710.781 1116.5,709C 1072.43,701.789 1029.76,706.789 988.5,724C 971.019,732.572 954.019,741.905 937.5,752C 925.566,761.086 919.733,773.253 920,788.5C 916.236,790.632 912.736,793.132 909.5,796C 900.593,793.345 893.593,795.845 888.5,803.5C 879.95,804.492 871.95,802.659 864.5,798C 854.75,796.415 851.584,800.249 855,809.5C 865.321,816.821 874.321,825.488 882,835.5C 883.367,838.603 884.534,841.77 885.5,845C 883.514,849.058 883.181,853.225 884.5,857.5C 883.033,864.738 882.033,872.072 881.5,879.5C 873.937,881.565 868.77,886.232 866,893.5C 864.333,899.833 862.667,906.167 861,912.5C 860.134,924.917 862.8,936.584 869,947.5C 872.97,952.475 877.803,956.309 883.5,959C 891.191,959.429 898.857,959.429 906.5,959C 920.15,974.652 936.15,987.318 954.5,997C 960.573,999.747 966.906,1001.58 973.5,1002.5C 979.2,1001.99 984.7,1000.66 990,998.5C 998.231,1009.4 1007.23,1019.74 1017,1029.5C 1016.66,1035.55 1015.66,1041.55 1014,1047.5C 1013.5,1052.15 1013.33,1056.82 1013.5,1061.5C 1009.06,1061.75 1004.73,1062.59 1000.5,1064C 991.833,1069 983.167,1074 974.5,1079C 958.303,1082.43 943.636,1089.1 930.5,1099C 923.242,1105.35 918.408,1113.19 916,1122.5C 916.884,1133.81 917.551,1145.14 918,1156.5C 895.061,1142.61 870.561,1132.45 844.5,1126C 832.672,1124.41 821.005,1122.07 809.5,1119C 797.572,1117.01 785.572,1115.68 773.5,1115C 748.169,1114.5 722.836,1114.33 697.5,1114.5C 695.458,1097.45 692.958,1080.45 690,1063.5C 681.714,1029.64 674.047,995.642 667,961.5C 662.318,930.666 659.318,899.666 658,868.5C 657.294,860.553 656.127,852.72 654.5,845C 660.096,839.407 664.93,833.24 669,826.5C 681.667,815.167 693.667,803.167 705,790.5C 715.709,773.582 726.542,756.748 737.5,740C 744.919,736.083 752.586,732.75 760.5,730C 774.008,722.412 787.674,715.079 801.5,708C 824.691,691.813 847.024,674.48 868.5,656C 893.51,640.125 911.01,618.292 921,590.5C 923.253,580.943 923.92,571.276 923,561.5C 920.762,537.116 916.429,513.116 910,489.5C 896.343,457.53 881.343,426.196 865,395.5C 844.487,367.142 823.487,339.142 802,311.5C 801.333,307.833 801.333,304.167 802,300.5C 805.504,278.961 807.838,257.294 809,235.5C 820.916,228.598 833.082,222.098 845.5,216C 854.772,210.392 863.772,204.392 872.5,198C 881.363,194.601 890.363,191.601 899.5,189C 912.898,182.603 924.231,173.603 933.5,162C 936.562,160.939 939.062,159.106 941,156.5C 948.253,144.329 955.253,131.996 962,119.5C 969.663,109.672 978.163,100.672 987.5,92.5 Z"/></g>
<g><path style="opacity:1" fill="#b99f7f" d="M 945.5,215.5 C 947.321,230.133 948.154,245.133 948,260.5C 948.49,269.663 952.99,275.83 961.5,279C 966.104,280.061 970.771,280.727 975.5,281C 978,283.5 980.5,286 983,288.5C 983.333,301.167 983.667,313.833 984,326.5C 987.138,332.443 988.804,338.777 989,345.5C 990.29,347.792 991.957,349.792 994,351.5C 994.333,367.167 994.667,382.833 995,398.5C 995.5,399 996,399.5 996.5,400C 1022.17,400.667 1047.83,400.667 1073.5,400C 1075.04,398.421 1076.21,396.587 1077,394.5C 1078.46,389.106 1080.13,383.772 1082,378.5C 1082.64,376.187 1083.97,374.52 1086,373.5C 1111.14,374.653 1136.3,374.819 1161.5,374C 1162.42,373.626 1163.25,373.126 1164,372.5C 1164.11,367.944 1165.11,363.611 1167,359.5C 1169.5,357 1172,354.5 1174.5,352C 1182.27,351.87 1189.93,351.036 1197.5,349.5C 1198.49,345.893 1198.82,342.226 1198.5,338.5C 1210.96,339.785 1222.79,337.785 1234,332.5C 1236.82,339.298 1240.98,345.131 1246.5,350C 1241.59,356.917 1235.92,363.251 1229.5,369C 1212.5,369.333 1195.5,369.667 1178.5,370C 1166.62,372.167 1159.12,379 1156,390.5C 1155.17,391.333 1154.33,392.167 1153.5,393C 1143.28,394.857 1134.78,399.69 1128,407.5C 1119.77,416.405 1114.1,426.738 1111,438.5C 1109.41,467.141 1109.08,495.808 1110,524.5C 1110.13,529.694 1111.13,534.694 1113,539.5C 1120.1,547.265 1126.43,555.599 1132,564.5C 1137.96,573.065 1146.13,577.231 1156.5,577C 1159.94,582.439 1164.61,586.439 1170.5,589C 1141.94,605.942 1127.77,631.109 1128,664.5C 1125.11,667.057 1121.94,669.224 1118.5,671C 1089.17,671.333 1059.83,671.667 1030.5,672C 1011.37,674.893 992.368,678.56 973.5,683C 947.609,692.445 923.276,704.778 900.5,720C 890.637,728.906 886.137,740.073 887,753.5C 883.236,755.632 879.736,758.132 876.5,761C 858.618,763.051 840.618,764.051 822.5,764C 821.333,764.5 820.5,765.333 820,766.5C 819.333,791.167 819.333,815.833 820,840.5C 820.333,841.5 820.667,842.5 821,843.5C 825.5,847.333 830,851.167 834.5,855C 831.155,862.872 828.655,871.039 827,879.5C 826.333,906.167 826.333,932.833 827,959.5C 829.438,967.709 832.438,975.709 836,983.5C 840.043,987.877 844.876,991.044 850.5,993C 857.833,993.333 865.167,993.667 872.5,994C 888.755,1013.13 908.755,1026.8 932.5,1035C 940.167,1035.33 947.833,1035.67 955.5,1036C 949.669,1039.08 944.002,1042.41 938.5,1046C 920.552,1049.72 904.719,1057.56 891,1069.5C 885.351,1076.13 882.518,1083.8 882.5,1092.5C 862.212,1088.91 841.879,1085.41 821.5,1082C 791.589,1081.66 761.755,1080.83 732,1079.5C 728.174,1058.25 724.508,1036.92 721,1015.5C 714.258,989.273 707.925,962.939 702,936.5C 698.019,915.319 695.685,893.986 695,872.5C 698.247,868.341 701.247,864.008 704,859.5C 715.966,849.868 726.966,839.202 737,827.5C 748.625,809.752 760.125,791.918 771.5,774C 795.144,763.678 818.144,752.011 840.5,739C 856.167,727.333 871.833,715.667 887.5,704C 897.255,694.908 907.588,686.575 918.5,679C 937.738,663.026 950.238,642.859 956,618.5C 956.667,586.5 956.667,554.5 956,522.5C 953.616,499.86 949.616,477.527 944,455.5C 930.075,423.649 915.075,392.316 899,361.5C 880.732,335.299 861.732,309.632 842,284.5C 841.333,280.167 841.333,275.833 842,271.5C 843.873,269.291 846.04,267.458 848.5,266C 869.148,256.684 888.482,245.351 906.5,232C 915.227,228.202 924.227,225.202 933.5,223C 937.939,221.032 941.939,218.532 945.5,215.5 Z"/></g>
<g><path style="opacity:0.983" fill="#48332c" d="M 1610.5,658.5 C 1622.08,658.362 1628.25,664.028 1629,675.5C 1638.04,689.614 1645.38,704.614 1651,720.5C 1656.62,736.988 1661.62,753.655 1666,770.5C 1667.4,777.452 1667.73,784.452 1667,791.5C 1661.19,810.786 1654.53,829.786 1647,848.5C 1633.42,876.007 1619.08,903.007 1604,929.5C 1601.5,932 1599,934.5 1596.5,937C 1573.11,953.391 1549.44,969.391 1525.5,985C 1506.66,1000.76 1488.66,1017.42 1471.5,1035C 1467.13,1038.19 1462.46,1040.85 1457.5,1043C 1448.14,1045.1 1440.31,1042.6 1434,1035.5C 1427.88,1021.26 1421.21,1007.26 1414,993.5C 1398.92,973.019 1385.09,951.685 1372.5,929.5C 1362.49,923.16 1352.16,917.327 1341.5,912C 1327.52,913.426 1317.35,907.926 1311,895.5C 1300.26,872.348 1289.26,849.348 1278,826.5C 1277.11,823.567 1276.61,820.567 1276.5,817.5C 1277.73,808.845 1278.9,800.178 1280,791.5C 1281.33,788.833 1282.67,786.167 1284,783.5C 1288.86,779.399 1293.52,775.066 1298,770.5C 1306.16,756.011 1315.49,742.344 1326,729.5C 1331.67,717.833 1337.33,706.167 1343,694.5C 1351.85,686.381 1362.35,682.714 1374.5,683.5C 1400.83,686.181 1427.17,688.681 1453.5,691C 1460.61,693.389 1467.61,696.056 1474.5,699C 1493.11,703.048 1511.44,702.048 1529.5,696C 1553.85,689.322 1576.19,678.655 1596.5,664C 1601.16,661.842 1605.83,660.009 1610.5,658.5 Z"/></g>
<g><path style="opacity:1" fill="#a97e5f" d="M 1611.5,689.5 C 1613.78,689.756 1614.94,691.09 1615,693.5C 1622.78,723.169 1628.94,753.169 1633.5,783.5C 1632.94,790.356 1631.44,797.023 1629,803.5C 1624.94,813.011 1621.27,822.678 1618,832.5C 1604.98,858.531 1591.98,884.531 1579,910.5C 1550.23,929.609 1521.73,949.109 1493.5,969C 1482.87,976.905 1472.7,985.405 1463,994.5C 1460.92,990.007 1458.59,985.674 1456,981.5C 1454.47,958.88 1445.97,939.38 1430.5,923C 1415.14,913.316 1399.14,904.65 1382.5,897C 1369.1,887.05 1354.27,880.217 1338,876.5C 1328.73,856.953 1319.73,837.286 1311,817.5C 1310.33,813.5 1310.33,809.5 1311,805.5C 1326.9,785.374 1341.56,764.374 1355,742.5C 1359.03,732.729 1362.87,722.895 1366.5,713C 1372.78,711.576 1379.11,711.242 1385.5,712C 1406.52,714.742 1427.52,717.409 1448.5,720C 1460.01,726.294 1472.34,729.628 1485.5,730C 1494.5,730.667 1503.5,730.667 1512.5,730C 1523.61,727.806 1534.61,725.14 1545.5,722C 1557.28,716.779 1569.28,712.112 1581.5,708C 1592.4,703.061 1602.4,696.895 1611.5,689.5 Z"/></g>
<g><path style="opacity:1" fill="#b99f7f" d="M 1397.5,752.5 C 1408.3,751.864 1418.3,754.364 1427.5,760C 1452.17,763.886 1477,765.386 1502,764.5C 1531.37,767.304 1559.7,763.304 1587,752.5C 1588.99,759.955 1590.83,767.455 1592.5,775C 1589.9,782.906 1587.06,790.739 1584,798.5C 1570.97,824.562 1557.97,850.562 1545,876.5C 1525.18,891.147 1504.68,904.814 1483.5,917.5C 1478.95,906.23 1472.28,896.396 1463.5,888C 1439.7,875.268 1416.04,862.268 1392.5,849C 1386.38,846.516 1380.05,844.85 1373.5,844C 1369.09,837.446 1365.42,830.446 1362.5,823C 1361.59,821.211 1361.42,819.377 1362,817.5C 1371.06,804.772 1379.73,791.772 1388,778.5C 1392.02,770.128 1395.19,761.461 1397.5,752.5 Z"/></g>
</svg>
