<?xml version="1.0" encoding="UTF-8"?>
<!DOCTYPE svg PUBLIC "-//W3C//DTD SVG 1.1//EN" "http://www.w3.org/Graphics/SVG/1.1/DTD/svg11.dtd">
<svg xmlns="http://www.w3.org/2000/svg" version="1.1" width="2296px" height="1221px" style="shape-rendering:geometricPrecision; text-rendering:geometricPrecision; image-rendering:optimizeQuality; fill-rule:evenodd; clip-rule:evenodd" xmlns:xlink="http://www.w3.org/1999/xlink">
<g><path style="opacity:0.985" fill="#48332c" d="M 1091.5,159.5 C 1103.15,159.93 1114.48,162.096 1125.5,166C 1129.67,167.584 1133.34,169.918 1136.5,173C 1152.3,177.6 1167.97,182.6 1183.5,188C 1195.32,190.03 1206.98,192.696 1218.5,196C 1236.25,198.129 1253.92,200.795 1271.5,204C 1278.53,204.761 1285.53,204.595 1292.5,203.5C 1297.42,204.079 1301.75,205.913 1305.5,209C 1321.52,212.709 1325.52,221.709 1317.5,236C 1296.27,250.559 1280.1,269.392 1269,292.5C 1261.22,309.177 1254.22,326.177 1248,343.5C 1244.97,352.658 1244.8,361.825 1247.5,371C 1247.33,376.191 1245,380.191 1240.5,383C 1234.83,386.833 1229.17,390.667 1223.5,394.5C 1232.29,400.562 1241.96,404.395 1252.5,406C 1260.12,411.418 1261.28,417.918 1256,425.5C 1253.4,443.709 1259.07,458.709 1273,470.5C 1275.73,474.241 1278.07,478.241 1280,482.5C 1286.26,485.712 1292.09,489.545 1297.5,494C 1302.97,499.291 1307.97,504.958 1312.5,511C 1320.28,516.556 1328.95,519.89 1338.5,521C 1341.13,523.146 1344.13,524.479 1347.5,525C 1366.71,526.274 1385.71,524.608 1404.5,520C 1409.45,518.194 1414.11,515.861 1418.5,513C 1423.83,508.333 1429.17,503.667 1434.5,499C 1441.77,497.485 1449.1,497.152 1456.5,498C 1460.45,500.28 1464.11,502.947 1467.5,506C 1469.5,506.667 1471.5,507.333 1473.5,508C 1484.99,508.724 1496.32,510.391 1507.5,513C 1514.08,515.198 1518.91,519.364 1522,525.5C 1524.59,529.674 1526.92,534.007 1529,538.5C 1533.48,550.291 1538.15,561.958 1543,573.5C 1543.4,580.358 1542.4,587.025 1540,593.5C 1532.03,610.773 1523.03,627.44 1513,643.5C 1506.17,651.667 1498.67,659.167 1490.5,666C 1478.54,672.801 1468.37,670.634 1460,659.5C 1458.36,655.861 1456.03,652.861 1453,650.5C 1447.04,651.451 1442.38,654.451 1439,659.5C 1434.83,667.505 1431.5,675.839 1429,684.5C 1427.77,695.072 1428.77,705.405 1432,715.5C 1432.96,716.579 1433.79,717.745 1434.5,719C 1442.68,722.616 1451.18,725.45 1460,727.5C 1465.63,723.216 1471.79,722.049 1478.5,724C 1485.45,728.615 1492.12,733.615 1498.5,739C 1502.55,741.694 1506.89,743.861 1511.5,745.5C 1520.73,741.286 1530.4,739.453 1540.5,740C 1544.64,741.135 1547.97,743.469 1550.5,747C 1553,748.08 1555.33,749.414 1557.5,751C 1563.83,752 1570.17,753 1576.5,754C 1580.38,756.107 1584.38,757.941 1588.5,759.5C 1589.17,759.167 1589.83,758.833 1590.5,758.5C 1611.63,760.943 1632.8,760.943 1654,758.5C 1661.34,759.046 1668.68,759.713 1676,760.5C 1683.88,758.905 1691.71,757.072 1699.5,755C 1717.47,750.559 1728.97,757.059 1734,774.5C 1737.16,789.068 1736.99,803.568 1733.5,818C 1736.28,823.246 1736.12,828.412 1733,833.5C 1723.75,842.743 1715.25,852.576 1707.5,863C 1701.59,867.538 1695.43,871.705 1689,875.5C 1676.85,892.656 1662.85,908.322 1647,922.5C 1642,930.5 1637,938.5 1632,946.5C 1627.98,952.859 1622.48,957.359 1615.5,960C 1608.58,960.907 1602.08,961.407 1596,961.5C 1575.24,959.305 1554.41,957.472 1533.5,956C 1519.98,951.754 1514.64,942.921 1517.5,929.5C 1501.43,921.801 1485.1,914.634 1468.5,908C 1452.6,907.851 1436.94,905.851 1421.5,902C 1415.13,901.392 1408.79,901.725 1402.5,903C 1380.46,907.26 1358.79,912.927 1337.5,920C 1314.93,928.943 1294.27,940.943 1275.5,956C 1255.64,973.862 1234.64,990.195 1212.5,1005C 1199.68,1018.5 1188.18,1033 1178,1048.5C 1173.79,1052.38 1169.29,1055.88 1164.5,1059C 1158.56,1060.41 1152.56,1060.74 1146.5,1060C 1129.23,1058.97 1112.23,1056.31 1095.5,1052C 1079.28,1045.39 1062.94,1039.06 1046.5,1033C 1037.21,1028.1 1031.88,1020.43 1030.5,1010C 1035.41,981.306 1033.25,953.14 1024,925.5C 1020.5,918.502 1016.5,911.835 1012,905.5C 994.466,888.964 976.632,872.797 958.5,857C 951.03,849.684 946.364,840.851 944.5,830.5C 945.541,819.92 950.541,811.754 959.5,806C 967.205,803.265 974.872,800.432 982.5,797.5C 993.504,782.433 994.337,766.767 985,750.5C 981.581,745.077 977.415,740.244 972.5,736C 946.831,717.334 918.497,704.334 887.5,697C 876.521,695.768 865.521,695.434 854.5,696C 840.059,702.053 825.726,708.386 811.5,715C 799.308,724.521 790.141,736.355 784,750.5C 782.188,753.28 780.021,755.78 777.5,758C 757.5,770 737.5,782 717.5,794C 700.53,808.149 683.197,821.815 665.5,835C 646.309,845.389 626.975,855.389 607.5,865C 591.267,867.778 582.101,860.944 580,844.5C 579.833,841.333 579.667,838.167 579.5,835C 580.865,814.292 581.865,793.626 582.5,773C 579.228,746.256 576.562,719.423 574.5,692.5C 575.473,684.098 575.64,675.098 575,665.5C 572.669,654.84 569.336,644.507 565,634.5C 559.474,623.586 554.141,612.586 549,601.5C 539.782,576.513 529.782,551.846 519,527.5C 514.964,520.28 514.63,512.946 518,505.5C 533.451,494.384 548.617,482.884 563.5,471C 573.734,464.486 584.734,462.486 596.5,465C 616.293,475.064 635.96,485.397 655.5,496C 689.685,504.748 722.685,501.415 754.5,486C 767.326,476.753 780.326,467.753 793.5,459C 798.737,456.365 804.237,454.532 810,453.5C 830.668,460.392 850.502,469.226 869.5,480C 876.505,493.669 884.338,506.836 893,519.5C 899.195,526.014 906.362,531.181 914.5,535C 932.446,543.538 951.279,549.038 971,551.5C 982.319,551.642 993.152,549.475 1003.5,545C 1025.73,528.014 1034.89,505.514 1031,477.5C 1021.6,456.413 1008.6,437.746 992,421.5C 984.817,410.494 981.15,398.494 981,385.5C 985.737,369.078 989.404,352.411 992,335.5C 995.079,306.897 997.413,278.23 999,249.5C 999.686,239.73 1002.02,230.397 1006,221.5C 1008.83,218.667 1011.67,215.833 1014.5,213C 1036,199.416 1057.67,186.083 1079.5,173C 1081.97,167.038 1085.97,162.538 1091.5,159.5 Z"/></g>
<g><path style="opacity:1" fill="#a97e5f" d="M 1103.5,199.5 C 1113.07,201.524 1122.07,205.024 1130.5,210C 1154.41,216.645 1178.41,222.978 1202.5,229C 1215.74,231.184 1229.07,232.517 1242.5,233C 1249.91,233.902 1257.25,235.236 1264.5,237C 1254.67,250.821 1246.5,265.654 1240,281.5C 1234.52,298.068 1229.36,314.734 1224.5,331.5C 1215.52,332.135 1206.52,332.302 1197.5,332C 1195,332.412 1193,333.578 1191.5,335.5C 1200.07,341.117 1209.41,345.117 1219.5,347.5C 1218.43,354.081 1217.1,360.581 1215.5,367C 1202.17,372.333 1188.83,377.667 1175.5,383C 1171.42,383.231 1167.42,383.898 1163.5,385C 1177.54,393.688 1190.87,403.354 1203.5,414C 1213.4,416.675 1223.23,419.509 1233,422.5C 1233.26,433.284 1234.26,443.951 1236,454.5C 1239.58,465.498 1245.08,475.331 1252.5,484C 1246.26,490.384 1240.09,496.884 1234,503.5C 1232.52,512.014 1236.02,516.181 1244.5,516C 1252.52,510.978 1261.18,508.311 1270.5,508C 1274.11,509.944 1277.44,512.277 1280.5,515C 1289.91,526.41 1300.57,536.41 1312.5,545C 1317.06,548.174 1322.06,549.174 1327.5,548C 1328.19,546.933 1328.69,545.766 1329,544.5C 1335.02,550.067 1342.19,552.9 1350.5,553C 1372.91,556.247 1394.91,554.58 1416.5,548C 1428.07,543.633 1438.24,537.133 1447,528.5C 1451.45,532.604 1456.61,535.437 1462.5,537C 1473.73,539.485 1485.06,540.985 1496.5,541.5C 1502.53,549.695 1508.36,558.028 1514,566.5C 1513.55,569.739 1512.22,572.739 1510,575.5C 1504.03,580.467 1498.36,585.801 1493,591.5C 1487.36,599.972 1481.53,608.305 1475.5,616.5C 1445.73,614.723 1420.9,625.057 1401,647.5C 1373.04,677.839 1372.54,708.673 1399.5,740C 1407.52,746.331 1416.52,748.164 1426.5,745.5C 1430.34,747.835 1434.51,748.835 1439,748.5C 1446.82,747.589 1454.66,747.422 1462.5,748C 1472.92,759.42 1485.25,768.086 1499.5,774C 1510.53,776.684 1521.2,775.684 1531.5,771C 1533.5,770.333 1535.5,770.333 1537.5,771C 1541.5,773.667 1545.5,776.333 1549.5,779C 1554.98,780.954 1560.65,781.954 1566.5,782C 1570.97,784.381 1575.64,786.381 1580.5,788C 1587.94,788.231 1595.27,789.231 1602.5,791C 1622.5,791.333 1642.5,791.667 1662.5,792C 1667,792.5 1671.5,793 1676,793.5C 1684.62,792.386 1693.12,790.72 1701.5,788.5C 1703.17,797.843 1706,806.843 1710,815.5C 1710.67,816.833 1710.67,818.167 1710,819.5C 1701.98,828.194 1692.81,835.36 1682.5,841C 1674.17,848 1665.83,855 1657.5,862C 1645.61,869.444 1633.28,876.111 1620.5,882C 1609.27,893.845 1597.77,905.345 1586,916.5C 1574.85,915.343 1563.68,914.343 1552.5,913.5C 1544.2,904.163 1534.2,896.997 1522.5,892C 1498.15,879.772 1472.48,871.772 1445.5,868C 1438.52,867.229 1431.52,866.729 1424.5,866.5C 1413.14,867.207 1401.81,868.207 1390.5,869.5C 1366.57,866.12 1344.23,870.62 1323.5,883C 1271.29,912.857 1223.29,948.524 1179.5,990C 1163.56,998.867 1146.73,1005.37 1129,1009.5C 1117.66,1004.61 1106.16,1000.11 1094.5,996C 1088.6,994.406 1082.6,993.572 1076.5,993.5C 1076.67,983.494 1076.5,973.494 1076,963.5C 1076.14,933.932 1067.14,907.599 1049,884.5C 1044.33,879.167 1039.67,873.833 1035,868.5C 1026.12,854.566 1017.62,840.399 1009.5,826C 1014.41,818.933 1017.58,811.1 1019,802.5C 1026.57,766.217 1016.74,735.717 989.5,711C 965.53,689.178 937.864,673.844 906.5,665C 891.726,660.89 876.726,657.89 861.5,656C 842.167,655.333 822.833,655.333 803.5,656C 786.642,657.346 772.475,664.18 761,676.5C 752.057,690.08 750.224,704.58 755.5,720C 754.055,724.029 752.055,727.696 749.5,731C 737.821,738.172 726.488,745.838 715.5,754C 683.474,767.728 654.974,786.561 630,810.5C 622.611,780.166 616.944,749.499 613,718.5C 608.715,694.743 604.049,671.077 599,647.5C 591.043,625.252 581.71,603.585 571,582.5C 563.793,561.591 555.627,541.091 546.5,521C 557.062,514.439 567.062,507.106 576.5,499C 579.343,497.483 582.177,495.983 585,494.5C 603.532,504.184 622.032,514.017 640.5,524C 677.038,535.717 712.705,533.384 747.5,517C 761.121,510.512 772.455,501.179 781.5,489C 790.913,487.473 799.913,484.64 808.5,480.5C 822.224,485.862 835.557,492.029 848.5,499C 856.998,518.824 869.332,535.824 885.5,550C 914.812,568.661 946.812,577.994 981.5,578C 997.017,577.627 1011.02,572.96 1023.5,564C 1031.7,556.137 1039.53,547.97 1047,539.5C 1058.32,519.613 1062.32,498.28 1059,475.5C 1058.13,469.063 1056.8,462.73 1055,456.5C 1043.8,435.976 1031.8,415.976 1019,396.5C 1016.41,394.451 1013.91,392.285 1011.5,390C 1016.77,373.13 1020.94,355.963 1024,338.5C 1026.71,305.792 1029.71,273.125 1033,240.5C 1041.4,234.046 1050.24,228.212 1059.5,223C 1074.39,215.392 1089.05,207.559 1103.5,199.5 Z"/></g>
<g><path style="opacity:1" fill="#b99f7f" d="M 1134.5,350.5 C 1133.5,350.5 1132.5,350.5 1131.5,350.5C 1131.17,374.176 1131.5,397.843 1132.5,421.5C 1133.18,421.863 1133.85,422.196 1134.5,422.5C 1145.79,430.158 1156.79,438.325 1167.5,447C 1175.28,449.757 1183.28,451.757 1191.5,453C 1194.1,453.977 1196.6,455.144 1199,456.5C 1199.33,486.167 1199.67,515.833 1200,545.5C 1200.37,546.416 1200.87,547.25 1201.5,548C 1216.41,549.302 1231.41,549.968 1246.5,550C 1252.2,555.365 1257.53,561.031 1262.5,567C 1268.61,572.445 1275.28,577.112 1282.5,581C 1290.59,580.581 1298.26,581.914 1305.5,585C 1310.81,585.813 1316.15,586.479 1321.5,587C 1347.82,588.177 1374.15,588.844 1400.5,589C 1389.89,593.548 1380.39,599.715 1372,607.5C 1365.62,614.88 1359.62,622.547 1354,630.5C 1351.08,636.275 1348.74,642.275 1347,648.5C 1346.33,678.5 1346.33,708.5 1347,738.5C 1349.71,752.761 1356.21,764.927 1366.5,775C 1369.79,777.478 1373.46,779.144 1377.5,780C 1394.76,781.843 1412.1,782.843 1429.5,783C 1440.16,795.637 1453.49,804.304 1469.5,809C 1483.17,809.333 1496.83,809.667 1510.5,810C 1512.89,811.861 1515.55,813.194 1518.5,814C 1527.56,813.997 1535.89,816.331 1543.5,821C 1570.67,824.966 1598.01,826.633 1625.5,826C 1620.44,830.057 1615.11,833.724 1609.5,837C 1600.87,840.429 1592.54,844.429 1584.5,849C 1579.84,854.497 1574.84,859.664 1569.5,864.5C 1549.17,854.334 1528.17,845.834 1506.5,839C 1496.85,837.252 1487.18,835.585 1477.5,834C 1429.16,833.281 1380.83,833.614 1332.5,835C 1311.58,837.963 1292.58,845.629 1275.5,858C 1258.7,867.234 1242.37,877.234 1226.5,888C 1197.67,909.492 1170,932.492 1143.5,957C 1139.04,958.979 1134.54,960.812 1130,962.5C 1124.52,961.574 1119.02,960.74 1113.5,960C 1112.67,959.167 1111.83,958.333 1111,957.5C 1110.67,949.5 1110.33,941.5 1110,933.5C 1108.27,922.542 1106.94,911.542 1106,900.5C 1103.53,886.55 1098.53,873.55 1091,861.5C 1083.76,850.923 1075.76,840.923 1067,831.5C 1063,824.833 1059,818.167 1055,811.5C 1054.67,783.833 1054.33,756.167 1054,728.5C 1049.37,709.391 1040.2,692.891 1026.5,679C 1016.83,671.333 1007.17,663.667 997.5,656C 966.082,638.083 932.415,626.749 896.5,622C 856.833,621.333 817.167,621.333 777.5,622C 758.829,621.111 742.663,626.944 729,639.5C 724.854,645.261 721.854,651.595 720,658.5C 719.938,670.57 719.272,682.57 718,694.5C 704.906,702.963 692.072,711.796 679.5,721C 671.255,725.039 663.089,729.206 655,733.5C 648.627,694.716 641.627,656.05 634,617.5C 627.83,597.825 619.997,578.825 610.5,560.5C 610.833,560.167 611.167,559.833 611.5,559.5C 622.228,562.823 633.228,564.656 644.5,565C 675.517,565.872 706.517,565.538 737.5,564C 757.588,560.305 776.588,553.638 794.5,544C 799.649,539.685 804.649,535.185 809.5,530.5C 811.918,531.457 814.084,532.791 816,534.5C 823.071,550.901 832.571,565.735 844.5,579C 868.151,595.151 894.151,605.818 922.5,611C 955.5,611.667 988.5,611.667 1021.5,611C 1036.17,610.157 1049.17,605.157 1060.5,596C 1069.12,588.39 1076.62,579.89 1083,570.5C 1089.01,557.455 1092.34,543.789 1093,529.5C 1093.67,501.5 1093.67,473.5 1093,445.5C 1092.44,433.792 1089.44,422.792 1084,412.5C 1075.37,397.702 1066.53,383.035 1057.5,368.5C 1060.32,337.847 1063.15,307.18 1066,276.5C 1067.83,273.333 1070.33,270.833 1073.5,269C 1086.11,261.446 1098.94,254.279 1112,247.5C 1131.1,252.865 1150.27,258.032 1169.5,263C 1179.47,264.225 1189.47,265.058 1199.5,265.5C 1197.04,276.491 1194.04,287.324 1190.5,298C 1180.83,298.333 1171.17,298.667 1161.5,299C 1160.58,299.374 1159.75,299.874 1159,300.5C 1158.5,314.496 1158.33,328.496 1158.5,342.5C 1151.83,344.113 1145.5,346.613 1139.5,350C 1137.87,350.494 1136.2,350.66 1134.5,350.5 Z"/></g>
<g><path style="opacity:1" fill="#ad8566" d="M 1134.5,350.5 C 1134.5,374.5 1134.5,398.5 1134.5,422.5C 1133.85,422.196 1133.18,421.863 1132.5,421.5C 1131.5,397.843 1131.17,374.176 1131.5,350.5C 1132.5,350.5 1133.5,350.5 1134.5,350.5 Z"/></g>
</svg>
