<?xml version="1.0" encoding="UTF-8"?>
<!DOCTYPE svg PUBLIC "-//W3C//DTD SVG 1.1//EN" "http://www.w3.org/Graphics/SVG/1.1/DTD/svg11.dtd">
<svg xmlns="http://www.w3.org/2000/svg" version="1.1" width="2296px" height="1221px" style="shape-rendering:geometricPrecision; text-rendering:geometricPrecision; image-rendering:optimizeQuality; fill-rule:evenodd; clip-rule:evenodd" xmlns:xlink="http://www.w3.org/1999/xlink">
<g><path style="opacity:0.97" fill="#48332c" d="M 1097.5,301.5 C 1105.12,300.912 1112.45,302.079 1119.5,305C 1127.5,309 1135.5,313 1143.5,317C 1148,322.833 1153.17,328 1159,332.5C 1160,334.5 1161,336.5 1162,338.5C 1163.86,350.632 1162.02,362.132 1156.5,373C 1157.29,382.132 1157.79,391.299 1158,400.5C 1158.93,407.439 1160.76,414.106 1163.5,420.5C 1166.99,422.079 1170.33,423.913 1173.5,426C 1184.6,438.106 1196.6,449.106 1209.5,459C 1221.28,464.389 1232.95,470.056 1244.5,476C 1255.65,485.419 1267.99,493.085 1281.5,499C 1284.17,499.667 1286.83,499.667 1289.5,499C 1298.58,495.863 1307.58,492.53 1316.5,489C 1327.91,487.37 1339.25,485.37 1350.5,483C 1351.42,482.626 1352.25,482.126 1353,481.5C 1356.01,472.814 1361.01,465.48 1368,459.5C 1369.54,455.581 1371.71,452.081 1374.5,449C 1387.9,443.8 1401.56,439.467 1415.5,436C 1422.19,434.85 1428.52,435.85 1434.5,439C 1438.67,443.833 1442.83,448.667 1447,453.5C 1451.35,463.53 1455.68,473.53 1460,483.5C 1468.9,495.621 1477.57,507.954 1486,520.5C 1493.09,527.679 1498.43,536.012 1502,545.5C 1504.17,547.667 1506.33,549.833 1508.5,552C 1518.64,557.906 1528.97,563.573 1539.5,569C 1549.55,569.92 1559.55,571.253 1569.5,573C 1575.94,575.773 1579.77,580.606 1581,587.5C 1581.67,597.5 1581.67,607.5 1581,617.5C 1579.9,631.583 1572.73,640.75 1559.5,645C 1555.06,649.439 1550.06,653.106 1544.5,656C 1542,659.167 1539.5,662.333 1537,665.5C 1520.41,679.419 1505.08,694.752 1491,711.5C 1485.42,719.664 1480.08,727.997 1475,736.5C 1472.38,742.977 1470.38,749.643 1469,756.5C 1460.7,772.143 1459.7,788.143 1466,804.5C 1466.69,812.185 1466.53,819.851 1465.5,827.5C 1467.02,840.467 1468.35,853.467 1469.5,866.5C 1468.87,881.628 1461.04,890.294 1446,892.5C 1445.67,892.167 1445.33,891.833 1445,891.5C 1433.57,895.298 1423.07,900.798 1413.5,908C 1405.68,911.41 1398.01,915.077 1390.5,919C 1380.71,922.713 1370.71,923.38 1360.5,921C 1352.06,913.248 1343.73,905.248 1335.5,897C 1328.36,892.026 1321.36,886.86 1314.5,881.5C 1297.63,882.153 1280.8,882.486 1264,882.5C 1254.65,881.749 1246.15,878.582 1238.5,873C 1229.04,865.204 1219.87,857.038 1211,848.5C 1210.36,847.034 1209.53,845.7 1208.5,844.5C 1197.7,840.743 1187.7,835.577 1178.5,829C 1172.22,827.675 1165.88,826.675 1159.5,826C 1128.58,825.607 1097.75,825.44 1067,825.5C 1041.86,836.087 1018.03,848.92 995.5,864C 982.744,870.311 969.744,876.144 956.5,881.5C 951.322,893.506 942.656,897.006 930.5,892C 907.212,880.023 885.212,866.023 864.5,850C 847.8,839.321 831.134,828.654 814.5,818C 786.731,807.283 759.064,796.283 731.5,785C 725.788,782.074 721.288,777.908 718,772.5C 715.999,759.82 721.499,752.986 734.5,752C 744.954,745.545 756.287,741.212 768.5,739C 775.055,736.565 780.722,732.898 785.5,728C 796.812,724.511 807.145,719.178 816.5,712C 826.67,705.666 837.67,701.833 849.5,700.5C 855.881,702.038 862.215,703.538 868.5,705C 881.54,704.729 894.54,704.896 907.5,705.5C 912.964,702.532 918.297,699.366 923.5,696C 926.167,695.333 928.833,694.667 931.5,694C 934.584,688.581 936.584,682.748 937.5,676.5C 935.692,676.509 934.025,676.009 932.5,675C 929.167,672.333 925.833,669.667 922.5,667C 918.843,664.007 916.177,660.34 914.5,656C 907.756,654.463 902.09,651.13 897.5,646C 888.867,642.5 879.867,640.5 870.5,640C 866.828,638.497 863.162,636.997 859.5,635.5C 844.372,642.453 831.372,652.287 820.5,665C 807.086,672.149 795.753,669.483 786.5,657C 781.585,654.425 776.919,651.425 772.5,648C 767.248,643.353 761.914,638.686 756.5,634C 747.495,628.497 738.828,622.497 730.5,616C 727,612.5 723.5,609 720,605.5C 716.857,597.886 716.857,590.219 720,582.5C 725.354,577.81 730.021,572.477 734,566.5C 740.252,556.33 746.252,545.997 752,535.5C 756.562,531.275 760.729,526.775 764.5,522C 769.939,519.629 775.606,518.963 781.5,520C 788.007,521.254 794.34,523.088 800.5,525.5C 808.07,520.548 816.07,516.381 824.5,513C 831.981,507.208 836.481,499.708 838,490.5C 842.263,484.302 846.263,477.969 850,471.5C 852.983,462.919 854.816,454.086 855.5,445C 853.552,432.577 852.386,420.077 852,407.5C 845.693,393.73 843.693,379.396 846,364.5C 848.128,361.37 850.628,358.537 853.5,356C 861.313,353.047 869.313,350.713 877.5,349C 892.018,340.628 907.685,336.294 924.5,336C 946.025,329.58 968.025,325.913 990.5,325C 1012.71,320.485 1034.71,315.152 1056.5,309C 1068.42,307.006 1080.42,305.673 1092.5,305C 1093.96,303.374 1095.62,302.208 1097.5,301.5 Z"/></g>
<g><path style="opacity:1" fill="#a97e5f" d="M 1308.5,520.5 C 1313.34,520.089 1318.01,519.422 1322.5,518.5C 1324.5,518.167 1326.5,517.833 1328.5,517.5C 1335.71,517.073 1342.71,516.073 1349.5,514.5C 1357.21,513.499 1364.54,510.999 1371.5,507C 1377.04,501.434 1381.21,494.934 1384,487.5C 1387.75,482.597 1391.25,477.597 1394.5,472.5C 1402.38,470.532 1410.38,469.199 1418.5,468.5C 1422.81,475.117 1426.65,482.117 1430,489.5C 1436.05,496.548 1441.72,503.881 1447,511.5C 1452.03,516.867 1457.37,521.867 1463,526.5C 1464.61,534.33 1467.61,541.663 1472,548.5C 1477.66,555.99 1483.83,562.99 1490.5,569.5C 1491.58,571.587 1493.25,572.92 1495.5,573.5C 1507.85,582.682 1521.18,590.348 1535.5,596.5C 1537.83,605.396 1538.16,614.396 1536.5,623.5C 1536.82,625.722 1536.16,627.556 1534.5,629C 1515.51,641.482 1498.18,655.982 1482.5,672.5C 1479.24,674.094 1476.57,676.427 1474.5,679.5C 1472.17,681.167 1470.17,683.167 1468.5,685.5C 1466.41,686.585 1465.08,688.251 1464.5,690.5C 1455.64,699.199 1447.48,708.533 1440,718.5C 1435.81,729.129 1433.31,740.129 1432.5,751.5C 1430.98,756.748 1430.31,762.248 1430.5,768C 1431.86,791.975 1432.86,815.809 1433.5,839.5C 1432.81,845.212 1431.81,850.878 1430.5,856.5C 1410.93,857.804 1392.6,863.137 1375.5,872.5C 1366.92,869.688 1358.25,867.188 1349.5,865C 1342.66,861.829 1336.66,857.495 1331.5,852C 1323.6,848.533 1315.6,845.366 1307.5,842.5C 1304.16,840.783 1300.49,840.116 1296.5,840.5C 1292.14,839.993 1287.81,839.327 1283.5,838.5C 1280.46,836.989 1277.12,836.322 1273.5,836.5C 1268.02,836.636 1262.68,835.803 1257.5,834C 1241.89,825.694 1226.22,817.694 1210.5,810C 1205.35,806.68 1200.69,802.847 1196.5,798.5C 1194.82,796.166 1192.49,795.166 1189.5,795.5C 1186.06,795.212 1182.73,794.546 1179.5,793.5C 1174.17,791.333 1168.5,790.333 1162.5,790.5C 1136.84,789.495 1111.17,789.328 1085.5,790C 1075.4,790.039 1065.4,790.873 1055.5,792.5C 1053.1,792.259 1051.1,792.926 1049.5,794.5C 1025.62,804.77 1002.95,817.104 981.5,831.5C 979.326,831.75 977.659,832.75 976.5,834.5C 964.969,840.098 953.303,845.432 941.5,850.5C 929.658,844.413 917.658,838.58 905.5,833C 895.829,824.646 885.162,817.979 873.5,813C 865.481,806.993 857.148,801.493 848.5,796.5C 846.082,793.29 842.748,791.624 838.5,791.5C 834.042,789.771 829.709,787.771 825.5,785.5C 825.027,784.094 824.027,783.427 822.5,783.5C 819.341,782.669 816.341,781.669 813.5,780.5C 811.485,779.076 809.152,778.41 806.5,778.5C 798.193,777.674 790.86,774.674 784.5,769.5C 784.027,768.094 783.027,767.427 781.5,767.5C 778.533,767.011 775.867,765.845 773.5,764C 792.868,754.983 811.868,745.483 830.5,735.5C 832.898,735.741 834.898,735.074 836.5,733.5C 836.833,733.5 837.167,733.5 837.5,733.5C 841.33,732.872 844.997,731.872 848.5,730.5C 853.711,735.944 860.044,739.611 867.5,741.5C 869.515,742.924 871.848,743.59 874.5,743.5C 899.164,749.585 921.497,744.752 941.5,729C 944.067,726.604 946.4,724.104 948.5,721.5C 951.418,718.972 952.752,715.639 952.5,711.5C 952.512,705.291 953.679,699.291 956,693.5C 957.157,683.279 956.324,673.279 953.5,663.5C 951.807,661.973 949.973,660.64 948,659.5C 945.423,654.018 942.09,649.018 938,644.5C 926.928,639.048 916.094,633.215 905.5,627C 899.68,624.38 893.68,622.38 887.5,621C 881.634,617.374 875.634,614.04 869.5,611C 863.645,608.927 857.978,609.093 852.5,611.5C 847.75,612.743 843.416,614.743 839.5,617.5C 829.808,620.022 821.808,625.189 815.5,633C 814.5,633.667 813.5,633.667 812.5,633C 807.541,625.707 801.541,619.374 794.5,614C 781.463,605.154 768.463,596.32 755.5,587.5C 763.476,573.042 772.81,559.542 783.5,547C 791.103,548.049 798.77,548.382 806.5,548C 812.189,545.156 817.855,542.322 823.5,539.5C 826.716,539.655 829.383,538.655 831.5,536.5C 835.865,532.811 840.531,529.478 845.5,526.5C 847.587,525.415 848.92,523.749 849.5,521.5C 851.833,518.167 854.167,514.833 856.5,511.5C 858.655,509.383 859.655,506.716 859.5,503.5C 864.853,496.798 869.186,489.465 872.5,481.5C 873.906,481.027 874.573,480.027 874.5,478.5C 877.606,470.409 879.606,462.076 880.5,453.5C 881.165,450.183 881.499,446.683 881.5,443C 881.642,437.257 880.975,431.757 879.5,426.5C 880.472,413.203 878.972,400.203 875,387.5C 874.333,385.167 874.333,382.833 875,380.5C 885.485,378.001 895.652,374.501 905.5,370C 917.826,367.768 930.159,365.601 942.5,363.5C 949.655,363.299 956.322,361.633 962.5,358.5C 963.833,358.5 965.167,358.5 966.5,358.5C 970.846,358.666 975.179,358.499 979.5,358C 981.058,357.79 982.391,357.29 983.5,356.5C 987.099,355.656 990.766,355.323 994.5,355.5C 997.495,355.706 1000.16,355.04 1002.5,353.5C 1008.78,352.176 1015.11,351.176 1021.5,350.5C 1025.16,350.048 1028.83,349.548 1032.5,349C 1033.06,348.617 1033.39,348.117 1033.5,347.5C 1045.3,342.867 1057.64,339.867 1070.5,338.5C 1081.95,336.998 1093.29,335.664 1104.5,334.5C 1116.68,333.258 1126.02,337.925 1132.5,348.5C 1133.5,362.991 1133.5,377.491 1132.5,392C 1131.8,408.193 1135.3,423.36 1143,437.5C 1146.09,441.928 1150.26,444.761 1155.5,446C 1177.48,468.315 1202.81,485.648 1231.5,498C 1243.17,507.174 1255.84,514.841 1269.5,521C 1282.53,524.333 1295.53,524.166 1308.5,520.5 Z"/></g>
<g><path style="opacity:1" fill="#916b53" d="M 1104.5,334.5 C 1093.29,335.664 1081.95,336.998 1070.5,338.5C 1081.47,335.222 1092.8,333.889 1104.5,334.5 Z"/></g>
<g><path style="opacity:1" fill="#8c6850" d="M 1033.5,347.5 C 1033.39,348.117 1033.06,348.617 1032.5,349C 1028.83,349.548 1025.16,350.048 1021.5,350.5C 1025.2,348.755 1029.2,347.755 1033.5,347.5 Z"/></g>
<g><path style="opacity:1" fill="#82604b" d="M 1002.5,353.5 C 1000.16,355.04 997.495,355.706 994.5,355.5C 996.905,354.232 999.572,353.565 1002.5,353.5 Z"/></g>
<g><path style="opacity:1" fill="#86634d" d="M 983.5,356.5 C 982.391,357.29 981.058,357.79 979.5,358C 975.179,358.499 970.846,358.666 966.5,358.5C 971.96,357.263 977.627,356.596 983.5,356.5 Z"/></g>
<g><path style="opacity:1" fill="#916b53" d="M 962.5,358.5 C 956.322,361.633 949.655,363.299 942.5,363.5C 948.75,360.604 955.417,358.937 962.5,358.5 Z"/></g>
<g><path style="opacity:1" fill="#b99f7f" d="M 1086.5,375.5 C 1092.39,375.221 1096.22,377.888 1098,383.5C 1098.33,403.833 1098.67,424.167 1099,444.5C 1100.93,453.878 1103.93,462.878 1108,471.5C 1110.7,476.436 1114.86,479.27 1120.5,480C 1142.16,502.821 1167.5,520.154 1196.5,532C 1208.72,542.284 1222.39,550.284 1237.5,556C 1241.11,556.945 1244.78,557.612 1248.5,558C 1274.83,558.667 1301.17,558.667 1327.5,558C 1333.39,557.308 1339.06,555.974 1344.5,554C 1349.5,553.667 1354.5,553.333 1359.5,553C 1361.95,552.275 1364.28,551.275 1366.5,550C 1381.25,550.189 1395.09,547.022 1408,540.5C 1410.57,543.319 1412.91,546.319 1415,549.5C 1419.97,553.466 1424.63,557.799 1429,562.5C 1429.23,567.964 1430.9,572.964 1434,577.5C 1443.26,592.931 1455.43,605.598 1470.5,615.5C 1456.75,628.146 1443.25,641.146 1430,654.5C 1422.1,663.314 1414.43,672.314 1407,681.5C 1406,683.5 1405,685.5 1404,687.5C 1401.93,697.846 1399.93,708.179 1398,718.5C 1397.67,751.167 1397.33,783.833 1397,816.5C 1397.06,819.767 1395.56,821.934 1392.5,823C 1386.74,823.309 1381.07,824.142 1375.5,825.5C 1372.94,822.858 1370.27,820.358 1367.5,818C 1359.35,814.183 1351.02,810.85 1342.5,808C 1326.08,805.797 1309.75,803.131 1293.5,800C 1276.83,791.333 1260.17,782.667 1243.5,774C 1238.17,770 1232.83,766 1227.5,762C 1219.01,759.418 1210.35,757.751 1201.5,757C 1142.5,755.019 1083.5,755.019 1024.5,757C 1018.12,757.855 1012.12,759.855 1006.5,763C 984.86,774.371 963.527,786.205 942.5,798.5C 933.539,792.681 924.539,786.848 915.5,781C 922.524,780.831 929.524,780.331 936.5,779.5C 948.489,767.679 960.655,756.012 973,744.5C 978.292,737.54 983.958,730.873 990,724.5C 990.667,696.167 990.667,667.833 990,639.5C 988.964,636.247 988.297,632.914 988,629.5C 982.068,622.504 976.235,615.337 970.5,608C 960.01,602.922 949.677,597.589 939.5,592C 933.117,588.827 926.45,586.493 919.5,585C 913.5,581.667 907.5,578.333 901.5,575C 886.833,574.667 872.167,574.333 857.5,574C 872.619,568.881 884.119,559.381 892,545.5C 893.779,538.607 897.112,532.607 902,527.5C 909.606,512.744 913.939,497.077 915,480.5C 915.5,458.169 915.667,435.836 915.5,413.5C 924.437,411.259 933.104,408.092 941.5,404C 956.621,401.555 971.621,398.555 986.5,395C 1014.38,391.957 1042.05,387.623 1069.5,382C 1075.13,379.517 1080.79,377.35 1086.5,375.5 Z"/></g>
<g><path style="opacity:1" fill="#765644" d="M 879.5,426.5 C 880.975,431.757 881.642,437.257 881.5,443C 881.499,446.683 881.165,450.183 880.5,453.5C 880.552,444.482 880.218,435.482 879.5,426.5 Z"/></g>
<g><path style="opacity:1" fill="#87634d" d="M 1418.5,468.5 C 1410.38,469.199 1402.38,470.532 1394.5,472.5C 1402.23,468.99 1410.23,467.656 1418.5,468.5 Z"/></g>
<g><path style="opacity:1" fill="#755543" d="M 874.5,478.5 C 874.573,480.027 873.906,481.027 872.5,481.5C 872.427,479.973 873.094,478.973 874.5,478.5 Z"/></g>
<g><path style="opacity:1" fill="#745543" d="M 859.5,503.5 C 859.655,506.716 858.655,509.383 856.5,511.5C 857.129,508.603 858.129,505.936 859.5,503.5 Z"/></g>
<g><path style="opacity:1" fill="#926c53" d="M 1349.5,514.5 C 1342.71,516.073 1335.71,517.073 1328.5,517.5C 1328.61,516.883 1328.94,516.383 1329.5,516C 1336.18,515.61 1342.85,515.11 1349.5,514.5 Z"/></g>
<g><path style="opacity:1" fill="#775845" d="M 1322.5,518.5 C 1318.01,519.422 1313.34,520.089 1308.5,520.5C 1309.26,519.732 1310.26,519.232 1311.5,519C 1315.15,518.501 1318.82,518.335 1322.5,518.5 Z"/></g>
<g><path style="opacity:1" fill="#86634d" d="M 849.5,521.5 C 848.92,523.749 847.587,525.415 845.5,526.5C 846.08,524.251 847.413,522.585 849.5,521.5 Z"/></g>
<g><path style="opacity:1" fill="#83614b" d="M 831.5,536.5 C 829.383,538.655 826.716,539.655 823.5,539.5C 825.936,538.129 828.603,537.129 831.5,536.5 Z"/></g>
<g><path style="opacity:1" fill="#684c3d" d="M 1490.5,569.5 C 1492.75,570.08 1494.42,571.413 1495.5,573.5C 1493.25,572.92 1491.58,571.587 1490.5,569.5 Z"/></g>
<g><path style="opacity:1" fill="#8b674f" d="M 1535.5,596.5 C 1537.07,597.681 1537.9,599.347 1538,601.5C 1538.17,604.333 1538.33,607.167 1538.5,610C 1538.63,614.758 1537.97,619.258 1536.5,623.5C 1538.16,614.396 1537.83,605.396 1535.5,596.5 Z"/></g>
<g><path style="opacity:1" fill="#64493b" d="M 852.5,611.5 C 848.91,614.791 844.576,616.791 839.5,617.5C 843.416,614.743 847.75,612.743 852.5,611.5 Z"/></g>
<g><path style="opacity:1" fill="#604538" d="M 1482.5,672.5 C 1480.43,675.573 1477.76,677.906 1474.5,679.5C 1476.57,676.427 1479.24,674.094 1482.5,672.5 Z"/></g>
<g><path style="opacity:1" fill="#694c3d" d="M 1468.5,685.5 C 1467.92,687.749 1466.59,689.415 1464.5,690.5C 1465.08,688.251 1466.41,686.585 1468.5,685.5 Z"/></g>
<g><path style="opacity:1" fill="#916b52" d="M 952.5,711.5 C 952.752,715.639 951.418,718.972 948.5,721.5C 949.658,718.011 950.991,714.678 952.5,711.5 Z"/></g>
<g><path style="opacity:1" fill="#89654e" d="M 848.5,730.5 C 844.997,731.872 841.33,732.872 837.5,733.5C 839.385,731.689 841.719,730.522 844.5,730C 846.066,729.235 847.399,729.402 848.5,730.5 Z"/></g>
<g><path style="opacity:1" fill="#89654e" d="M 836.5,733.5 C 834.898,735.074 832.898,735.741 830.5,735.5C 832.102,733.926 834.102,733.259 836.5,733.5 Z"/></g>
<g><path style="opacity:1" fill="#785846" d="M 867.5,741.5 C 870.152,741.41 872.485,742.076 874.5,743.5C 871.848,743.59 869.515,742.924 867.5,741.5 Z"/></g>
<g><path style="opacity:1" fill="#63483a" d="M 1432.5,751.5 C 1432.99,780.831 1433.33,810.164 1433.5,839.5C 1432.86,815.809 1431.86,791.975 1430.5,768C 1430.31,762.248 1430.98,756.748 1432.5,751.5 Z"/></g>
<g><path style="opacity:1" fill="#795946" d="M 781.5,767.5 C 783.027,767.427 784.027,768.094 784.5,769.5C 782.973,769.573 781.973,768.906 781.5,767.5 Z"/></g>
<g><path style="opacity:1" fill="#84614b" d="M 806.5,778.5 C 809.152,778.41 811.485,779.076 813.5,780.5C 810.848,780.59 808.515,779.924 806.5,778.5 Z"/></g>
<g><path style="opacity:1" fill="#7b5b47" d="M 822.5,783.5 C 824.027,783.427 825.027,784.094 825.5,785.5C 823.973,785.573 822.973,784.906 822.5,783.5 Z"/></g>
<g><path style="opacity:1" fill="#88644d" d="M 838.5,791.5 C 842.748,791.624 846.082,793.29 848.5,796.5C 844.849,795.341 841.515,793.674 838.5,791.5 Z"/></g>
<g><path style="opacity:1" fill="#87644d" d="M 1162.5,790.5 C 1168.5,790.333 1174.17,791.333 1179.5,793.5C 1173.63,792.951 1167.96,791.951 1162.5,790.5 Z"/></g>
<g><path style="opacity:1" fill="#674a3c" d="M 1055.5,792.5 C 1053.9,794.074 1051.9,794.741 1049.5,794.5C 1051.1,792.926 1053.1,792.259 1055.5,792.5 Z"/></g>
<g><path style="opacity:1" fill="#86634d" d="M 1189.5,795.5 C 1192.49,795.166 1194.82,796.166 1196.5,798.5C 1193.84,798.065 1191.51,797.065 1189.5,795.5 Z"/></g>
<g><path style="opacity:1" fill="#654a3b" d="M 981.5,831.5 C 980.514,833.408 978.848,834.408 976.5,834.5C 977.659,832.75 979.326,831.75 981.5,831.5 Z"/></g>
<g><path style="opacity:1" fill="#765744" d="M 1273.5,836.5 C 1277.12,836.322 1280.46,836.989 1283.5,838.5C 1279.92,838.451 1276.59,837.785 1273.5,836.5 Z"/></g>
<g><path style="opacity:1" fill="#87644d" d="M 1296.5,840.5 C 1300.49,840.116 1304.16,840.783 1307.5,842.5C 1303.64,842.192 1299.97,841.525 1296.5,840.5 Z"/></g>
</svg>
