<?xml version="1.0" encoding="UTF-8"?>
<!DOCTYPE svg PUBLIC "-//W3C//DTD SVG 1.1//EN" "http://www.w3.org/Graphics/SVG/1.1/DTD/svg11.dtd">
<svg xmlns="http://www.w3.org/2000/svg" version="1.1" width="2296px" height="1221px" style="shape-rendering:geometricPrecision; text-rendering:geometricPrecision; image-rendering:optimizeQuality; fill-rule:evenodd; clip-rule:evenodd" xmlns:xlink="http://www.w3.org/1999/xlink">
<g><path style="opacity:0.984" fill="#48332c" d="M 773.5,34.5 C 783.212,34.5455 792.545,36.3788 801.5,40C 811.375,54.9142 820.875,70.0809 830,85.5C 842.56,115.285 854.56,145.285 866,175.5C 869,181.5 872,187.5 875,193.5C 884.204,206.072 893.037,218.906 901.5,232C 909.999,236.748 918.332,241.748 926.5,247C 932.873,250.63 939.539,251.297 946.5,249C 967.137,242.566 987.137,234.566 1006.5,225C 1021.94,220.098 1037.6,219.265 1053.5,222.5C 1062.24,221.734 1070.9,222.567 1079.5,225C 1093.58,232.247 1107.91,238.913 1122.5,245C 1137,254.755 1152,263.755 1167.5,272C 1181.19,281.513 1194.52,291.513 1207.5,302C 1215.54,310.37 1223.21,319.036 1230.5,328C 1263.75,333.63 1295.41,328.63 1325.5,313C 1331.84,308.497 1338.5,304.497 1345.5,301C 1359.02,292.469 1363.52,280.302 1359,264.5C 1357.44,250.814 1355.77,237.148 1354,223.5C 1340.84,194.3 1346.01,168.8 1369.5,147C 1389.21,130.813 1411.21,118.647 1435.5,110.5C 1437.11,100.187 1438.61,89.8535 1440,79.5C 1451.58,70.9582 1463.74,63.2916 1476.5,56.5C 1477.17,57.5 1477.83,58.5 1478.5,59.5C 1506.64,54.7741 1534.98,51.6074 1563.5,50C 1576.31,46.2144 1589.31,43.2144 1602.5,41C 1613.5,40.3333 1624.5,40.3333 1635.5,41C 1646.11,41.5293 1654.94,45.696 1662,53.5C 1669.49,63.1502 1676.49,73.1502 1683,83.5C 1691.94,104.386 1700.61,125.386 1709,146.5C 1715.53,158.221 1721.53,170.221 1727,182.5C 1733.79,191.3 1742.29,197.8 1752.5,202C 1760.11,206.386 1762.94,212.886 1761,221.5C 1759.66,224.318 1758.16,226.985 1756.5,229.5C 1759.23,237.093 1757.89,243.926 1752.5,250C 1738.72,255.725 1725.05,261.725 1711.5,268C 1706.37,273.147 1700.21,276.314 1693,277.5C 1692,277.167 1691,276.833 1690,276.5C 1683.38,279.395 1676.55,281.562 1669.5,283C 1671.89,285.867 1673.22,289.2 1673.5,293C 1672.62,297.596 1670.78,301.762 1668,305.5C 1656.38,314.45 1644.21,322.617 1631.5,330C 1626.74,333.732 1624.24,338.566 1624,344.5C 1621.87,349.902 1617.87,352.569 1612,352.5C 1603,349.986 1593.83,348.82 1584.5,349C 1575.27,352.53 1567.1,357.696 1560,364.5C 1564.63,383.078 1568.46,401.911 1571.5,421C 1569.22,434.29 1561.55,442.956 1548.5,447C 1545.29,452.54 1540.63,456.207 1534.5,458C 1519.09,462.483 1503.42,465.816 1487.5,468C 1479.58,469.562 1471.91,471.896 1464.5,475C 1455.88,482.61 1448.38,491.11 1442,500.5C 1443.96,521.663 1447.29,542.663 1452,563.5C 1460.86,585.779 1467.19,608.779 1471,632.5C 1478.76,646.691 1485.43,661.357 1491,676.5C 1491.41,680.213 1491.41,683.879 1491,687.5C 1494.33,695.493 1498.66,702.826 1504,709.5C 1509.83,715.333 1515.67,721.167 1521.5,727C 1527.5,731 1533.5,735 1539.5,739C 1541.33,740.833 1543.17,742.667 1545,744.5C 1554.61,759.115 1562.94,774.448 1570,790.5C 1570.67,793.833 1570.67,797.167 1570,800.5C 1559.77,824.051 1545.61,844.884 1527.5,863C 1515.39,870.888 1502.39,876.888 1488.5,881C 1472.89,881.871 1458.55,886.538 1445.5,895C 1445.9,900.826 1444.4,906.326 1441,911.5C 1435.14,917.699 1428.97,923.532 1422.5,929C 1398.98,944.426 1374.32,957.759 1348.5,969C 1341.07,971.058 1333.74,970.725 1326.5,968C 1312.08,961.456 1299.41,952.456 1288.5,941C 1273.4,936.449 1258.73,930.783 1244.5,924C 1242.83,923.333 1241.17,923.333 1239.5,924C 1220.8,933.708 1203.47,945.375 1187.5,959C 1175.15,969.357 1162.81,979.691 1150.5,990C 1151.89,996.616 1151.39,1003.12 1149,1009.5C 1149.6,1037.22 1144.6,1063.88 1134,1089.5C 1129.06,1100.38 1124.39,1111.38 1120,1122.5C 1091.04,1149.31 1057.04,1166.31 1018,1173.5C 1010.72,1173.21 1008.05,1169.55 1010,1162.5C 1010.97,1160.7 1012.14,1159.03 1013.5,1157.5C 1012.76,1155.36 1012.09,1153.2 1011.5,1151C 1020.16,1128.48 1022,1105.65 1017,1082.5C 1013.92,1064.84 1009.59,1047.51 1004,1030.5C 999.854,1021.18 994.021,1013.18 986.5,1006.5C 990.646,1000.52 995.646,995.354 1001.5,991C 997.465,990.303 993.465,990.47 989.5,991.5C 983.411,989.457 977.411,989.457 971.5,991.5C 964.801,989.727 959.301,986.06 955,980.5C 947.544,970.709 939.711,961.209 931.5,952C 926.672,950.06 922.172,947.56 918,944.5C 914.278,938.837 913.611,932.837 916,926.5C 921.123,914.344 925.79,902.01 930,889.5C 936.54,876.972 943.873,864.972 952,853.5C 957.468,848.847 963.634,845.347 970.5,843C 986.747,840.512 1003.08,838.845 1019.5,838C 1024.77,836.131 1030.11,834.465 1035.5,833C 1044.23,826.968 1053.56,821.968 1063.5,818C 1070.5,817 1077.5,816 1084.5,815C 1092.91,812.531 1101.24,809.865 1109.5,807C 1115.01,805.779 1120.51,805.612 1126,806.5C 1130.77,805.364 1135.27,803.531 1139.5,801C 1148,800.965 1156.33,799.798 1164.5,797.5C 1165.17,797.667 1165.83,797.833 1166.5,798C 1169.55,803.232 1173.89,806.732 1179.5,808.5C 1178.5,803.209 1177,798.209 1175,793.5C 1184.82,789.368 1191.32,782.201 1194.5,772C 1198.42,772.096 1202.42,772.262 1206.5,772.5C 1210.35,772.632 1214.02,772.132 1217.5,771C 1210.14,766.655 1202.48,762.822 1194.5,759.5C 1194.08,755.219 1193.91,750.885 1194,746.5C 1187.92,741.095 1182.59,735.095 1178,728.5C 1169.28,713.724 1161.61,698.391 1155,682.5C 1144.05,653.176 1145.22,624.343 1158.5,596C 1157.74,592.225 1155.74,589.225 1152.5,587C 1136.34,578.758 1120.68,569.758 1105.5,560C 1094.94,555.868 1084.27,552.034 1073.5,548.5C 1070.63,525.459 1057.63,514.625 1034.5,516C 1027.54,519.145 1020.88,522.811 1014.5,527C 1012.26,527.906 1009.92,528.406 1007.5,528.5C 1001.2,527.175 994.865,526.008 988.5,525C 971.751,524.882 955.084,523.715 938.5,521.5C 913.21,540.758 890.043,562.425 869,586.5C 858.214,600.954 847.048,615.121 835.5,629C 820.13,627.209 805.797,622.209 792.5,614C 781.917,608.461 771.751,602.295 762,595.5C 760.198,579.429 755.198,564.429 747,550.5C 723.837,516.844 701.17,482.844 679,448.5C 676.589,441.065 678.589,435.065 685,430.5C 687.811,423.901 690.311,417.234 692.5,410.5C 692.167,410.167 691.833,409.833 691.5,409.5C 684.473,413.795 677.807,413.295 671.5,408C 661.044,394.542 650.211,381.376 639,368.5C 625.426,345.924 608.592,326.09 588.5,309C 566.994,296.746 545.328,284.746 523.5,273C 516.845,270.668 510.178,268.335 503.5,266C 499.084,263.588 495.251,260.422 492,256.5C 488.5,247.012 485.5,237.345 483,227.5C 475.552,212.822 469.885,197.489 466,181.5C 464.503,172.658 467.003,165.158 473.5,159C 478.341,156.079 483.341,153.412 488.5,151C 497.481,143.843 506.815,137.176 516.5,131C 525.487,125.67 535.153,123.336 545.5,124C 552.136,126.267 558.802,128.434 565.5,130.5C 572.458,128.808 579.458,127.308 586.5,126C 601.925,119.31 617.925,114.476 634.5,111.5C 636.577,111.692 638.577,112.192 640.5,113C 643.592,116.737 647.592,118.403 652.5,118C 658.347,120.754 663.68,124.254 668.5,128.5C 670.001,127.248 671.668,126.248 673.5,125.5C 677.946,119.551 682.946,114.051 688.5,109C 682.537,96.8133 683.87,85.48 692.5,75C 719.003,60.4151 746.003,46.9151 773.5,34.5 Z M 713.5,394.5 C 713.5,395.167 713.5,395.833 713.5,396.5C 707.906,401.977 701.239,405.977 693.5,408.5C 699.779,403.353 706.446,398.687 713.5,394.5 Z"/></g>
<g><path style="opacity:1" fill="#a97e5f" d="M 780.5,60.5 C 785.595,74.3603 792.095,87.6937 800,100.5C 812.667,131.833 825.333,163.167 838,194.5C 844.448,205.725 852.114,216.058 861,225.5C 866.62,236.454 873.787,246.288 882.5,255C 894.008,261.251 905.008,268.251 915.5,276C 931.219,282.558 947.219,283.224 963.5,278C 983.445,272.241 1002.78,264.908 1021.5,256C 1035.84,255.806 1050.17,256.139 1064.5,257C 1078.42,263.527 1092.42,269.861 1106.5,276C 1121.33,285.252 1136.33,294.252 1151.5,303C 1162.12,310.618 1172.45,318.618 1182.5,327C 1191.54,336.369 1200.2,346.035 1208.5,356C 1216.18,360.675 1224.52,363.675 1233.5,365C 1271.9,368.33 1308.23,361.33 1342.5,344C 1349.68,338.907 1357.35,334.574 1365.5,331C 1386.86,317.44 1397.2,297.94 1396.5,272.5C 1395.63,251.629 1393.13,230.962 1389,210.5C 1387,206.5 1385,202.5 1383,198.5C 1381.29,190.971 1382.95,184.304 1388,178.5C 1401.03,166.06 1415.86,156.227 1432.5,149C 1441.59,146.792 1450.25,143.458 1458.5,139C 1464.78,134.269 1468.95,128.102 1471,120.5C 1471.93,112.731 1473.26,105.064 1475,97.5C 1481.43,93.0333 1488.26,89.1999 1495.5,86C 1519.1,87.5297 1542.76,87.8631 1566.5,87C 1571.19,86.4971 1575.86,85.8304 1580.5,85C 1596.99,78.8971 1613.99,76.8971 1631.5,79C 1636.72,85.2179 1641.55,91.7179 1646,98.5C 1656.06,121.337 1665.72,144.337 1675,167.5C 1686.79,190.287 1702.62,209.787 1722.5,226C 1707.43,231.702 1695.1,241.035 1685.5,254C 1678.83,255.168 1673.16,258.168 1668.5,263C 1662.23,262.694 1656.06,261.527 1650,259.5C 1644.06,260.269 1640.56,263.603 1639.5,269.5C 1640.6,274.618 1641.77,279.618 1643,284.5C 1633.13,290.77 1623.8,297.77 1615,305.5C 1611.7,311.11 1608.7,316.776 1606,322.5C 1599.22,320.596 1592.39,318.93 1585.5,317.5C 1564.82,321.922 1547.32,331.922 1533,347.5C 1529.59,352.484 1527.76,357.984 1527.5,364C 1532.68,381.895 1536.68,400.062 1539.5,418.5C 1539.24,421.271 1537.91,423.438 1535.5,425C 1508.19,431.111 1480.86,437.445 1453.5,444C 1451.5,445 1449.5,446 1447.5,447C 1443.13,451.701 1438.47,456.034 1433.5,460C 1424.62,459.691 1417.78,463.191 1413,470.5C 1406.26,491.764 1401.93,513.431 1400,535.5C 1412.11,568.486 1425.77,600.819 1441,632.5C 1447.26,648.284 1452.93,664.284 1458,680.5C 1464.25,699.011 1473.58,715.678 1486,730.5C 1491.83,736.333 1497.67,742.167 1503.5,748C 1509.13,750.398 1513.96,753.898 1518,758.5C 1522.33,768.167 1526.67,777.833 1531,787.5C 1531.67,788.5 1531.67,789.5 1531,790.5C 1523.59,800.323 1516.92,810.656 1511,821.5C 1504.79,830.195 1496.63,836.361 1486.5,840C 1459.04,844.81 1435.87,857.31 1417,877.5C 1411.28,884.216 1405.95,891.216 1401,898.5C 1388.11,911.387 1375.28,924.221 1362.5,937C 1356.01,936.91 1350.01,938.577 1344.5,942C 1341.87,942.995 1339.21,943.328 1336.5,943C 1330.37,940.437 1324.71,937.103 1319.5,933C 1313.15,927.643 1307.15,921.977 1301.5,916C 1283.16,908.33 1264.82,900.664 1246.5,893C 1240.41,892.139 1234.41,892.473 1228.5,894C 1215.86,899.652 1203.86,906.319 1192.5,914C 1174.25,927.576 1156.59,941.909 1139.5,957C 1125.94,962.212 1117.94,971.879 1115.5,986C 1117.88,1018.89 1113.05,1050.73 1101,1081.5C 1096.95,1090.44 1092.78,1099.27 1088.5,1108C 1074.17,1120 1059,1130.83 1043,1140.5C 1044.52,1119.91 1044.85,1099.24 1044,1078.5C 1043.2,1071.35 1041.7,1064.35 1039.5,1057.5C 1041,1053.84 1042.5,1050.17 1044,1046.5C 1044.67,1044.17 1044.67,1041.83 1044,1039.5C 1043.04,1038.11 1041.71,1037.44 1040,1037.5C 1037.78,1038.22 1035.62,1038.72 1033.5,1039C 1028.58,1031.16 1023.91,1023.16 1019.5,1015C 1021.18,1011.99 1022.85,1008.99 1024.5,1006C 1021.03,995.597 1020.53,985.097 1023,974.5C 1019.04,970.955 1014.38,968.955 1009,968.5C 1002.9,970.122 996.735,970.956 990.5,971C 981.764,962.018 976.93,951.185 976,938.5C 972.784,931.956 968.784,925.956 964,920.5C 967.774,905.849 972.774,891.515 979,877.5C 979.75,876.874 980.584,876.374 981.5,876C 994.757,874.114 1008.09,873.114 1021.5,873C 1031.68,870.607 1041.68,867.607 1051.5,864C 1058.69,860.239 1065.69,856.239 1072.5,852C 1086.94,850.556 1100.94,847.222 1114.5,842C 1136.48,842.619 1155.48,835.452 1171.5,820.5C 1175.24,822.076 1178.57,824.243 1181.5,827C 1185.36,832.374 1189.69,837.374 1194.5,842C 1200.35,844.905 1204.02,843.239 1205.5,837C 1203.1,831.598 1200.26,826.431 1197,821.5C 1195.64,815.215 1195.31,808.882 1196,802.5C 1200.34,796.832 1205.84,792.665 1212.5,790C 1218.65,789.003 1224.81,788.17 1231,787.5C 1238.57,788.6 1246.07,790.1 1253.5,792C 1261.5,792.667 1269.5,792.667 1277.5,792C 1283.09,787.579 1282.75,783.579 1276.5,780C 1268.06,778.846 1259.73,777.18 1251.5,775C 1248.59,774.311 1245.93,773.145 1243.5,771.5C 1237.53,761.036 1231.37,750.703 1225,740.5C 1227.56,727.997 1223.73,718.164 1213.5,711C 1207.13,707.953 1201.29,704.119 1196,699.5C 1186.07,685.317 1177.4,670.317 1170,654.5C 1167.23,638.478 1169.9,623.478 1178,609.5C 1181.43,606.744 1184.09,603.41 1186,599.5C 1190.46,583.536 1194.79,567.536 1199,551.5C 1200.54,547.581 1202.71,544.081 1205.5,541C 1197,538.166 1188.5,535.333 1180,532.5C 1171.04,534.948 1162.21,537.782 1153.5,541C 1143.85,542.931 1134.18,542.931 1124.5,541C 1112.69,539.174 1101.35,535.84 1090.5,531C 1085.33,524.496 1081.33,517.329 1078.5,509.5C 1077.26,508.719 1076.26,507.719 1075.5,506.5C 1076.43,505.232 1076.59,503.899 1076,502.5C 1074.21,498.423 1072.05,494.59 1069.5,491C 1053.45,486.921 1037.29,486.421 1021,489.5C 1017.36,489.888 1014.2,488.888 1011.5,486.5C 1010.83,487.5 1010.17,488.5 1009.5,489.5C 999.975,486.202 990.308,483.369 980.5,481C 953.697,464.359 926.364,463.359 898.5,478C 881.961,485.868 868.461,497.368 858,512.5C 851.923,522.654 846.923,533.32 843,544.5C 840.667,547.5 838.333,550.5 836,553.5C 833.408,556.762 830.241,559.262 826.5,561C 818.462,563.207 810.462,565.541 802.5,568C 800.246,569.377 798.08,570.877 796,572.5C 795.625,561.294 793.459,550.461 789.5,540C 791.693,531.487 790.193,523.654 785,516.5C 775.708,504.873 766.041,493.539 756,482.5C 744.407,466.404 732.24,450.738 719.5,435.5C 724.256,426.32 728.756,416.986 733,407.5C 738.901,398.263 745.568,389.596 753,381.5C 757.991,368.478 753.491,363.311 739.5,366C 734.92,367.638 730.42,369.471 726,371.5C 721.208,370.414 716.375,370.247 711.5,371C 702.506,375.337 693.506,379.337 684.5,383C 675.473,372.44 666.806,361.607 658.5,350.5C 665.295,346.684 671.461,342.017 677,336.5C 679.194,333.446 680.861,330.112 682,326.5C 682.855,323.044 681.689,320.544 678.5,319C 675.833,318.333 673.167,318.333 670.5,319C 660.984,321.84 651.651,324.84 642.5,328C 636.98,321.981 631.647,315.814 626.5,309.5C 640.007,302.256 639.674,296.089 625.5,291C 619.151,290.725 612.818,290.725 606.5,291C 600.642,285.486 593.976,281.152 586.5,278C 579.049,267.548 571.216,257.381 563,247.5C 557.309,243.136 551.643,238.802 546,234.5C 538.922,220 530.589,206.333 521,193.5C 520.343,188.213 519.176,183.047 517.5,178C 521.487,173.345 525.487,168.678 529.5,164C 532.94,161.613 536.607,159.78 540.5,158.5C 551.67,158.802 562.67,160.302 573.5,163C 583.431,164.303 593.097,163.303 602.5,160C 610.657,154.889 618.991,150.056 627.5,145.5C 634.571,153.693 643.571,156.859 654.5,155C 663.48,159.904 672.147,159.238 680.5,153C 684.05,149.117 687.217,144.951 690,140.5C 694.967,136.534 699.634,132.201 704,127.5C 706.455,123.469 708.121,119.136 709,114.5C 709.346,107.548 709.512,100.715 709.5,94C 722.136,87.6822 734.802,81.3489 747.5,75C 757.355,71.788 767.022,68.1213 776.5,64C 777.731,62.5952 779.064,61.4286 780.5,60.5 Z"/></g>
<g><path style="opacity:1" fill="#b99f7f" d="M 757.5,120.5 C 761.061,124.603 763.894,129.27 766,134.5C 778.804,166.58 791.804,198.58 805,230.5C 810.846,240.682 817.846,250.015 826,258.5C 832.03,270.416 839.864,280.916 849.5,290C 855.04,293.27 860.707,296.27 866.5,299C 875.229,307.385 885.562,312.718 897.5,315C 926.5,315.667 955.5,315.667 984.5,315C 990.829,313.335 997.162,311.669 1003.5,310C 1015.58,305.864 1027.58,301.53 1039.5,297C 1040.83,296.333 1042.17,296.333 1043.5,297C 1052.44,301.151 1061.44,305.151 1070.5,309C 1087.33,319.585 1104.33,329.918 1121.5,340C 1141.75,354.579 1159.75,371.579 1175.5,391C 1183.67,395.21 1192.34,397.877 1201.5,399C 1233.83,399.667 1266.17,399.667 1298.5,399C 1321.31,397.507 1343.31,392.507 1364.5,384C 1379.49,376.173 1394.16,367.839 1408.5,359C 1421.63,347.897 1428.8,333.731 1430,316.5C 1430.67,288.833 1430.67,261.167 1430,233.5C 1429.72,225.089 1428.88,216.755 1427.5,208.5C 1444.67,192.742 1464.67,181.909 1487.5,176C 1495.82,172.345 1501.32,166.178 1504,157.5C 1505.43,149.183 1506.76,140.85 1508,132.5C 1513.25,128.12 1519.09,124.62 1525.5,122C 1550.35,121.8 1575.18,121.3 1600,120.5C 1605.26,123.097 1609.26,127.097 1612,132.5C 1622.17,154.499 1631.5,176.832 1640,199.5C 1643.04,206.521 1646.87,213.021 1651.5,219C 1646.64,220.762 1641.98,223.096 1637.5,226C 1628.83,226.333 1620.17,226.667 1611.5,227C 1609.51,227.574 1608.01,228.741 1607,230.5C 1606.67,237.833 1606.33,245.167 1606,252.5C 1596.43,257.956 1587.77,264.622 1580,272.5C 1577.64,276.219 1576.14,280.219 1575.5,284.5C 1546.33,280.842 1521.49,289.509 1501,310.5C 1498.75,314.007 1496.75,317.673 1495,321.5C 1494.5,345.164 1494.33,368.831 1494.5,392.5C 1489.05,394.888 1483.38,396.721 1477.5,398C 1457.9,400.734 1438.56,404.734 1419.5,410C 1416.83,411.333 1414.17,412.667 1411.5,414C 1407.59,417.983 1403.59,421.983 1399.5,426C 1393.54,426.714 1387.87,428.381 1382.5,431C 1380.96,432.579 1379.79,434.413 1379,436.5C 1378.21,442.119 1376.54,447.452 1374,452.5C 1371.33,466.587 1368.66,480.587 1366,494.5C 1365.06,520.869 1365.39,547.202 1367,573.5C 1376.16,593.482 1384.49,613.815 1392,634.5C 1406.21,661.694 1417.55,690.027 1426,719.5C 1433.72,741.865 1446.22,761.032 1463.5,777C 1467.08,780.416 1471.08,783.249 1475.5,785.5C 1476.58,786.365 1476.75,787.365 1476,788.5C 1469.26,796.967 1460.76,803.134 1450.5,807C 1413.56,813.952 1385.4,833.452 1366,865.5C 1358.02,872.65 1350.18,879.983 1342.5,887.5C 1338.21,883.348 1333.21,880.181 1327.5,878C 1311.7,871.931 1296.03,865.598 1280.5,859C 1269.17,858.333 1257.83,858.333 1246.5,859C 1223.75,868.269 1200.09,873.269 1175.5,874C 1170.65,874.713 1165.98,876.046 1161.5,878C 1142.3,891.527 1123.97,906.193 1106.5,922C 1098.42,925.611 1091.59,930.778 1086,937.5C 1084.72,939.717 1083.72,942.051 1083,944.5C 1081.75,962.818 1080.75,981.151 1080,999.5C 1079.62,1004.21 1078.96,1008.88 1078,1013.5C 1077.5,1010.52 1077.34,1007.52 1077.5,1004.5C 1073.82,1004.67 1070.15,1004.5 1066.5,1004C 1064.14,999.451 1061.64,994.951 1059,990.5C 1057.22,973.605 1056.22,956.605 1056,939.5C 1054.42,937.959 1052.59,936.792 1050.5,936C 1041.15,935.832 1031.82,935.332 1022.5,934.5C 1016.9,929.136 1013.23,922.636 1011.5,915C 1011.99,913.018 1012.99,911.351 1014.5,910C 1029.45,908.199 1044.45,906.866 1059.5,906C 1068.17,903.333 1076.83,900.667 1085.5,898C 1092.5,894.503 1099.16,890.503 1105.5,886C 1118.5,884.868 1131.16,882.201 1143.5,878C 1151.78,872.027 1160.78,867.361 1170.5,864C 1184.01,860.581 1197.68,857.915 1211.5,856C 1220.63,854.01 1229.47,851.177 1238,847.5C 1238.33,841.167 1238.67,834.833 1239,828.5C 1239.5,828 1240,827.5 1240.5,827C 1264.5,826.667 1288.5,826.333 1312.5,826C 1313.52,825.481 1314.18,824.647 1314.5,823.5C 1315.15,810.858 1315.48,798.191 1315.5,785.5C 1315.65,772.742 1315.15,760.075 1314,747.5C 1303.79,745.7 1293.62,743.533 1283.5,741C 1280.9,740.117 1278.73,738.617 1277,736.5C 1270.75,726.33 1264.75,715.997 1259,705.5C 1260.66,695.083 1257.83,686.25 1250.5,679C 1234.04,671.202 1222.37,658.869 1215.5,642C 1216.65,640.177 1217.82,638.344 1219,636.5C 1223.26,621.625 1227.26,606.625 1231,591.5C 1232.58,586.734 1234.92,582.4 1238,578.5C 1238.5,554.169 1238.67,529.836 1238.5,505.5C 1232.14,504.768 1226.14,502.934 1220.5,500C 1191.4,499.06 1162.4,499.393 1133.5,501C 1128.79,498.949 1124.62,496.115 1121,492.5C 1118.18,486.864 1115.35,481.198 1112.5,475.5C 1111.76,474.713 1110.92,474.047 1110,473.5C 1110.06,466.465 1107.56,460.632 1102.5,456C 1084.54,454.751 1066.54,454.084 1048.5,454C 1043.01,452.714 1037.34,452.047 1031.5,452C 1026.54,450.511 1021.54,449.178 1016.5,448C 1011.73,444.897 1006.73,442.231 1001.5,440C 993.5,438 985.5,436 977.5,434C 949.167,433.333 920.833,433.333 892.5,434C 876.683,438.409 861.683,444.742 847.5,453C 836.9,462.265 827.733,472.765 820,484.5C 817.247,479.992 814.247,475.659 811,471.5C 798.574,458.132 786.741,444.299 775.5,430C 780,424.167 784.5,418.333 789,412.5C 789.981,386.413 789.648,360.413 788,334.5C 787.097,333.299 785.931,332.465 784.5,332C 761.502,331.5 738.502,331.333 715.5,331.5C 715.667,316.496 715.5,301.496 715,286.5C 699.911,285.509 684.745,285.176 669.5,285.5C 669.666,277.826 669.5,270.159 669,262.5C 665.888,259.194 662.055,257.361 657.5,257C 651.833,256.667 646.167,256.333 640.5,256C 635.168,251.329 629.168,247.663 622.5,245C 613.31,232.964 603.644,221.298 593.5,210C 587.509,207.179 582.509,203.179 578.5,198C 595.861,197.86 613.194,197.193 630.5,196C 633.167,195 635.833,194 638.5,193C 659.5,192.667 680.5,192.333 701.5,192C 712.455,190.606 719.955,184.773 724,174.5C 728.333,170.833 732.667,167.167 737,163.5C 742.804,152.586 745.137,140.919 744,128.5C 748.65,126.002 753.15,123.335 757.5,120.5 Z"/></g>
<g><path style="opacity:0.155" fill="#a2795c" d="M 713.5,396.5 C 713.5,395.833 713.5,395.167 713.5,394.5C 714.077,393.227 714.743,393.227 715.5,394.5C 715.145,395.522 714.478,396.189 713.5,396.5 Z"/></g>
</svg>
