<?xml version="1.0" encoding="UTF-8"?>
<!DOCTYPE svg PUBLIC "-//W3C//DTD SVG 1.1//EN" "http://www.w3.org/Graphics/SVG/1.1/DTD/svg11.dtd">
<svg xmlns="http://www.w3.org/2000/svg" version="1.1" width="2296px" height="1221px" style="shape-rendering:geometricPrecision; text-rendering:geometricPrecision; image-rendering:optimizeQuality; fill-rule:evenodd; clip-rule:evenodd" xmlns:xlink="http://www.w3.org/1999/xlink">
<g><path style="opacity:0.983" fill="#48332c" d="M 1114.5,1220.5 C 1094.5,1220.5 1074.5,1220.5 1054.5,1220.5C 1053.01,1218.72 1051.01,1218.05 1048.5,1218.5C 1048.66,1217.13 1048.49,1215.79 1048,1214.5C 1036.29,1206.89 1023.79,1200.73 1010.5,1196C 981.38,1191.76 952.38,1186.76 923.5,1181C 882.045,1178.32 840.711,1174.32 799.5,1169C 776.447,1168.02 753.447,1168.69 730.5,1171C 724.633,1172.51 718.799,1174.01 713,1175.5C 705.769,1174.98 699.436,1172.31 694,1167.5C 686.736,1157.57 681.236,1146.73 677.5,1135C 678.346,1129.81 680.179,1124.97 683,1120.5C 688,1114.17 693,1107.83 698,1101.5C 705.849,1081.95 714.849,1062.95 725,1044.5C 731.297,1033.23 739.464,1023.56 749.5,1015.5C 752.538,1007.65 758.205,1004.48 766.5,1006C 778.249,1008.95 789.916,1012.29 801.5,1016C 813.443,1015.46 819.776,1021.13 820.5,1033C 819.605,1037.78 819.271,1042.45 819.5,1047C 822.747,1058.16 825.914,1069.32 829,1080.5C 833.236,1087.27 839.403,1091.1 847.5,1092C 851.5,1092.67 855.5,1092.67 859.5,1092C 868.236,1090.32 876.903,1088.32 885.5,1086C 893.539,1081.96 900.372,1076.46 906,1069.5C 910.884,1059.73 915.217,1049.73 919,1039.5C 923.597,1032.2 930.264,1028.87 939,1029.5C 956.667,1030.17 974.333,1030.83 992,1031.5C 1007.91,1029.24 1015.41,1036.24 1014.5,1052.5C 1031.84,1049.33 1048.84,1044.83 1065.5,1039C 1089.16,1039.25 1107.33,1029.42 1120,1009.5C 1121.83,1003.85 1123.67,998.185 1125.5,992.5C 1122.77,986.045 1119.27,980.045 1115,974.5C 1111.11,963.102 1114.95,955.935 1126.5,953C 1128.5,950 1130.5,947 1132.5,944C 1123.39,942.89 1117.23,938.056 1114,929.5C 1109.51,920.612 1109.01,911.612 1112.5,902.5C 1106.44,893.595 1099.77,885.095 1092.5,877C 1074.65,873.123 1067.49,862.29 1071,844.5C 1060.25,853.053 1050.25,852.386 1041,842.5C 1039.19,841.922 1037.36,841.422 1035.5,841C 1021.74,838.971 1007.9,837.471 994,836.5C 989.692,836.619 985.525,837.452 981.5,839C 971.355,848.251 962.189,847.418 954,836.5C 947.064,824.295 940.398,811.961 934,799.5C 933.333,796.833 933.333,794.167 934,791.5C 940.697,781.788 947.031,771.788 953,761.5C 953.261,757.294 953.761,753.127 954.5,749C 954.878,736.459 954.378,723.959 953,711.5C 954.916,703.829 958.75,697.329 964.5,692C 975.167,684 985.833,676 996.5,668C 1000.1,666.723 1003.76,666.39 1007.5,667C 1015,670.389 1022.83,672.556 1031,673.5C 1060.91,665.198 1089.24,653.198 1116,637.5C 1119.63,630.52 1123.3,623.52 1127,616.5C 1127.63,608.693 1126.8,601.027 1124.5,593.5C 1124.67,591.962 1125.01,590.462 1125.5,589C 1122.62,583.703 1120.12,578.203 1118,572.5C 1117.39,568.463 1117.56,564.463 1118.5,560.5C 1111.62,560.394 1105.62,558.061 1100.5,553.5C 1099.08,547.073 1097.25,540.74 1095,534.5C 1094.88,531.386 1094.71,528.386 1094.5,525.5C 1088.92,527.908 1083.26,528.075 1077.5,526C 1069.21,523.192 1061.88,518.859 1055.5,513C 1044.12,509.897 1032.62,508.397 1021,508.5C 1004.88,513.654 988.382,516.821 971.5,518C 962.857,523.1 954.857,522.1 947.5,515C 932.233,500.737 918.066,485.571 905,469.5C 902.234,463.614 901.901,457.614 904,451.5C 915.957,434.42 927.79,417.254 939.5,400C 943.894,397.626 948.56,396.959 953.5,398C 957.5,400.667 961.5,403.333 965.5,406C 969.747,405.395 973.747,406.395 977.5,409C 988.091,409.009 998.591,409.843 1009,411.5C 1016.57,402.928 1024.57,394.595 1033,386.5C 1037.44,380.625 1041.1,374.292 1044,367.5C 1044.67,365.167 1044.67,362.833 1044,360.5C 1041.04,356.084 1038.21,351.584 1035.5,347C 1032.92,345.75 1030.26,345.416 1027.5,346C 1020.14,349.265 1012.64,352.099 1005,354.5C 1000.46,354.065 996.796,352.065 994,348.5C 989.84,336.51 984.84,324.843 979,313.5C 974.719,306.885 970.053,300.552 965,294.5C 958.64,284.967 959.807,276.467 968.5,269C 974.581,266.229 980.914,264.229 987.5,263C 1001.6,256.283 1015.93,250.116 1030.5,244.5C 1031.77,241.633 1032.61,238.633 1033,235.5C 1033.67,227.167 1033.67,218.833 1033,210.5C 1032.27,205.979 1030.94,201.646 1029,197.5C 1013.96,177.454 997.794,158.287 980.5,140C 974.567,134.732 967.734,131.232 960,129.5C 955.842,130.073 951.676,130.573 947.5,131C 938.103,136.4 931.603,144.233 928,154.5C 919.551,164.809 909.884,166.142 899,158.5C 888.604,145.08 877.271,132.413 865,120.5C 856.422,108.269 857.922,97.4352 869.5,88C 882.026,78.9089 894.693,70.0755 907.5,61.5C 909.098,62.4847 910.765,62.6514 912.5,62C 927.466,49.6086 942.299,37.1086 957,24.5C 960.333,19.1667 963.667,13.8333 967,8.5C 973.036,1.77897 980.536,-0.72103 989.5,1C 1001.3,4.90092 1012.64,9.90092 1023.5,16C 1039.71,18.9592 1055.05,24.2925 1069.5,32C 1082.07,44.6634 1093.57,58.1634 1104,72.5C 1110.36,79.2516 1117.19,85.4183 1124.5,91C 1131.57,97.4024 1137.91,104.402 1143.5,112C 1147.33,113.746 1150.99,115.746 1154.5,118C 1165,125.833 1175.5,133.667 1186,141.5C 1188.9,146.412 1190.23,151.745 1190,157.5C 1192.91,160.99 1195.58,164.656 1198,168.5C 1202.82,178.817 1208.16,188.817 1214,198.5C 1215.02,246.88 1213.35,295.214 1209,343.5C 1208.33,353.833 1208.33,364.167 1209,374.5C 1212.88,410.99 1217.88,447.324 1224,483.5C 1228.84,496.851 1234.51,509.851 1241,522.5C 1256.92,551.341 1272.59,580.341 1288,609.5C 1293.5,619.831 1299.5,629.831 1306,639.5C 1329.05,667.559 1353.22,694.726 1378.5,721C 1383.14,725.654 1388.47,729.321 1394.5,732C 1400.44,736.811 1402.6,742.978 1401,750.5C 1396.47,759.571 1392.47,768.904 1389,778.5C 1386.42,794.801 1382.59,810.801 1377.5,826.5C 1382.33,847.159 1387.16,867.826 1392,888.5C 1397.08,900.472 1404.91,910.305 1415.5,918C 1431.23,928.382 1447.9,937.048 1465.5,944C 1476.21,945.743 1486.88,947.743 1497.5,950C 1509.67,953.944 1522,957.278 1534.5,960C 1543.17,960.667 1551.83,960.667 1560.5,960C 1570.5,958.327 1580.5,956.993 1590.5,956C 1592.5,956.667 1594.5,957.333 1596.5,958C 1610.65,968.913 1625.65,978.58 1641.5,987C 1649.65,994.967 1649.31,1002.63 1640.5,1010C 1635.8,1010.93 1631.13,1011.93 1626.5,1013C 1607.19,1032.64 1588.19,1052.64 1569.5,1073C 1557.17,1084.67 1544.83,1096.33 1532.5,1108C 1525.17,1114 1517.83,1120 1510.5,1126C 1508.58,1139.58 1500.75,1146.42 1487,1146.5C 1475.8,1145.62 1464.64,1144.45 1453.5,1143C 1425.33,1142.59 1397.33,1144.59 1369.5,1149C 1343.63,1149.19 1317.97,1151.53 1292.5,1156C 1258.13,1164.51 1223.8,1173.18 1189.5,1182C 1174.19,1190.32 1158.19,1196.99 1141.5,1202C 1136.13,1206.68 1130.13,1210.35 1123.5,1213C 1120.89,1216.12 1117.89,1218.62 1114.5,1220.5 Z"/></g>
<g><path style="opacity:1" fill="#a97e5f" d="M 998.5,800.5 C 993.602,799.787 988.602,799.121 983.5,798.5C 981.507,791.518 979.507,784.518 977.5,777.5C 982.105,766.517 985.605,755.184 988,743.5C 989.053,732.845 988.22,722.345 985.5,712C 985.833,710.833 986.167,709.667 986.5,708.5C 992.857,704.464 999.191,700.464 1005.5,696.5C 1023.31,703.172 1040.98,702.672 1058.5,695C 1066.83,691.5 1075.17,688 1083.5,684.5C 1085.6,688.106 1088.27,691.273 1091.5,694C 1097.23,696.776 1099.9,694.943 1099.5,688.5C 1099.52,685.158 1098.85,681.991 1097.5,679C 1109.67,669.735 1123.34,665.402 1138.5,666C 1146.99,667.554 1155.49,669.054 1164,670.5C 1172.25,669.007 1174.25,664.674 1170,657.5C 1161.16,653.751 1153.16,648.751 1146,642.5C 1145.33,640.833 1145.33,639.167 1146,637.5C 1148.25,631.422 1150.08,625.255 1151.5,619C 1149.58,607.837 1147.75,596.67 1146,585.5C 1142.07,579.908 1138.57,574.075 1135.5,568C 1139.92,559.769 1138.26,552.769 1130.5,547C 1124.75,544.35 1118.75,542.516 1112.5,541.5C 1113.02,538.432 1113.86,535.432 1115,532.5C 1118.33,527.833 1122.33,523.833 1127,520.5C 1129.08,514.673 1132.41,509.673 1137,505.5C 1139.29,502.165 1138.79,499.332 1135.5,497C 1127.16,497 1118.83,496.667 1110.5,496C 1103.01,499.246 1095.68,502.746 1088.5,506.5C 1086.39,505.946 1084.39,505.112 1082.5,504C 1062.19,486.341 1038.52,478.674 1011.5,481C 1000.22,484.528 988.72,487.028 977,488.5C 974.542,486.286 972.542,483.619 971,480.5C 963.738,472.901 956.238,465.734 948.5,459C 949.234,453.492 950.068,447.992 951,442.5C 959.255,440.122 966.755,436.289 973.5,431C 985.603,431.603 997.603,433.103 1009.5,435.5C 1014.42,435.706 1018.76,434.206 1022.5,431C 1025.5,428.667 1028.5,426.333 1031.5,424C 1041.74,413.759 1051.24,402.926 1060,391.5C 1063.07,386.036 1065.57,380.369 1067.5,374.5C 1073.79,373.368 1077.12,369.535 1077.5,363C 1071.07,335.579 1053.74,320.579 1025.5,318C 1022.93,317.099 1020.6,315.766 1018.5,314C 1013.52,306.537 1009.18,298.704 1005.5,290.5C 1006.04,289.252 1006.71,288.085 1007.5,287C 1035.4,284.097 1052.24,268.93 1058,241.5C 1061.24,221.017 1058.58,201.35 1050,182.5C 1034.52,163.057 1018.69,143.89 1002.5,125C 989.984,114.572 976.317,105.905 961.5,99C 951.813,97.1637 942.813,98.8304 934.5,104C 929.014,110.453 923.18,116.62 917,122.5C 912.107,118.609 906.94,115.109 901.5,112C 898.977,108.622 896.977,104.955 895.5,101C 897.167,99.3333 898.833,97.6667 900.5,96C 917.631,85.5389 933.631,73.5389 948.5,60C 954.5,55.6667 960.5,51.3333 966.5,47C 973.106,39.6169 979.106,31.7836 984.5,23.5C 997.118,29.4755 1009.45,35.9755 1021.5,43C 1028.69,45.297 1036.02,46.9637 1043.5,48C 1051.05,50.5375 1057.21,55.0375 1062,61.5C 1070.67,72.8333 1079.33,84.1667 1088,95.5C 1094.36,102.252 1101.19,108.418 1108.5,114C 1115.3,120.622 1121.63,127.622 1127.5,135C 1141.19,143.684 1154.02,153.517 1166,164.5C 1169.95,170.779 1174.28,176.779 1179,182.5C 1182.14,189.456 1185.81,196.123 1190,202.5C 1189.3,225.831 1188.3,249.165 1187,272.5C 1184.13,301.979 1181.63,331.479 1179.5,361C 1179.59,374.213 1180.42,387.38 1182,400.5C 1186.24,429.847 1190.57,459.181 1195,488.5C 1196.61,493.988 1198.61,499.322 1201,504.5C 1225.06,551.634 1250.4,597.968 1277,643.5C 1289.8,662.077 1303.8,679.743 1319,696.5C 1331.01,714.518 1343.51,732.184 1356.5,749.5C 1352.69,757.086 1350.19,765.086 1349,773.5C 1348.63,798.221 1348.97,822.888 1350,847.5C 1352.97,862.413 1358.3,876.413 1366,889.5C 1367.06,895.004 1368.72,900.338 1371,905.5C 1375.17,912.516 1379.84,919.183 1385,925.5C 1393.5,932.667 1401.33,940.5 1408.5,949C 1419.65,958.794 1432.32,966.127 1446.5,971C 1470.36,979.866 1495.03,984.199 1520.5,984C 1533.73,987.18 1547.06,989.846 1560.5,992C 1569.76,992.912 1578.92,992.412 1588,990.5C 1592.07,992.787 1596.24,994.953 1600.5,997C 1588.96,1010.21 1577.79,1023.71 1567,1037.5C 1541.42,1060.41 1517.92,1085.25 1496.5,1112C 1484.66,1111.8 1473,1110.13 1461.5,1107C 1451.5,1106.33 1441.5,1106.33 1431.5,1107C 1392.86,1110.66 1354.2,1114 1315.5,1117C 1301.78,1119.01 1288.11,1121.34 1274.5,1124C 1240.42,1133.02 1206.42,1142.35 1172.5,1152C 1162.71,1156.39 1153.04,1161.06 1143.5,1166C 1130.83,1175.67 1118.17,1185.33 1105.5,1195C 1101.19,1196.86 1096.69,1198.02 1092,1198.5C 1065.39,1188.41 1038.55,1178.91 1011.5,1170C 1000.48,1168.13 989.478,1166.13 978.5,1164C 964.674,1159.38 950.674,1155.38 936.5,1152C 921.184,1150.45 905.851,1149.11 890.5,1148C 859.33,1142.25 827.997,1137.58 796.5,1134C 781.833,1133.33 767.167,1133.33 752.5,1134C 741.048,1134.29 729.715,1135.45 718.5,1137.5C 717.417,1136.64 717.251,1135.64 718,1134.5C 723.736,1128.03 728.736,1121.03 733,1113.5C 744.944,1087.95 757.111,1062.62 769.5,1037.5C 774.391,1039.57 778.891,1042.24 783,1045.5C 787.941,1058.71 793.941,1071.38 801,1083.5C 808.5,1091 816,1098.5 823.5,1106C 831.888,1112.46 841.388,1115.96 852,1116.5C 891.486,1119.52 919.986,1103.52 937.5,1068.5C 951.127,1063.84 965.127,1061.67 979.5,1062C 983.019,1062.4 986.352,1063.4 989.5,1065C 995.468,1075.48 1004.47,1079.82 1016.5,1078C 1043.72,1071.69 1071.06,1066.03 1098.5,1061C 1118.87,1051.41 1134.7,1036.91 1146,1017.5C 1147.87,1010.47 1149.87,1003.47 1152,996.5C 1152.83,991.411 1152.49,986.411 1151,981.5C 1147.5,975.833 1144,970.167 1140.5,964.5C 1146.41,958.086 1153.08,952.586 1160.5,948C 1165.56,944.615 1168.56,939.948 1169.5,934C 1168.35,927.905 1164.68,924.239 1158.5,923C 1151.08,923.67 1144.42,921.837 1138.5,917.5C 1137.19,913.443 1135.69,909.443 1134,905.5C 1134.16,894.828 1129.83,886.495 1121,880.5C 1115.88,873.707 1110.38,867.207 1104.5,861C 1099.62,858.96 1094.96,856.627 1090.5,854C 1094.53,844.234 1098.37,834.401 1102,824.5C 1106.04,820.8 1109.7,816.8 1113,812.5C 1114.87,804.381 1111.71,800.548 1103.5,801C 1096.34,806.914 1088.34,811.247 1079.5,814C 1072.66,818.182 1065.82,822.349 1059,826.5C 1054.79,822.643 1050.29,819.143 1045.5,816C 1037.85,812.508 1030.51,808.508 1023.5,804C 1015.31,801.9 1006.98,800.734 998.5,800.5 Z"/></g>
<g><path style="opacity:1" fill="#b99f7f" d="M 1090.5,167.5 C 1112.31,179.817 1130.48,196.15 1145,216.5C 1148.19,221.554 1150.86,226.888 1153,232.5C 1151.85,256.538 1149.85,280.538 1147,304.5C 1146.07,346.519 1146.4,388.519 1148,430.5C 1171.33,497.833 1194.67,565.167 1218,632.5C 1234.92,668.394 1256.92,700.728 1284,729.5C 1294.25,743.659 1304.25,757.992 1314,772.5C 1314.21,810.525 1315.21,848.525 1317,886.5C 1320.03,899.568 1325.03,911.901 1332,923.5C 1335.02,936.207 1340.69,947.541 1349,957.5C 1358.83,966 1368,975.167 1376.5,985C 1395.69,998.961 1417.02,1008.29 1440.5,1013C 1457.05,1015.74 1473.72,1017.41 1490.5,1018C 1497.67,1020.28 1505,1021.94 1512.5,1023C 1496.27,1038.06 1481.27,1054.23 1467.5,1071.5C 1445.51,1072.33 1423.51,1072.83 1401.5,1073C 1363.19,1076.62 1324.86,1079.95 1286.5,1083C 1270.04,1084.86 1253.71,1087.53 1237.5,1091C 1204.46,1099.84 1171.46,1108.84 1138.5,1118C 1119.88,1124.97 1103.21,1134.97 1088.5,1148C 1087.13,1148.87 1085.63,1149.37 1084,1149.5C 1070.37,1145.43 1056.87,1140.93 1043.5,1136C 1035.43,1135.1 1027.43,1133.77 1019.5,1132C 1000.74,1126.46 982.075,1121.29 963.5,1116.5C 964.833,1114.5 966.167,1112.5 967.5,1110.5C 996.791,1111.66 1026.12,1111.82 1055.5,1111C 1072.89,1106.88 1090.23,1102.55 1107.5,1098C 1120.68,1098.09 1133.01,1095.09 1144.5,1089C 1160.49,1079.35 1172.65,1066.18 1181,1049.5C 1182.67,1041.83 1184.33,1034.17 1186,1026.5C 1186.33,1013.5 1186.67,1000.5 1187,987.5C 1193.01,983.822 1198.01,979.155 1202,973.5C 1202.67,947.5 1202.67,921.5 1202,895.5C 1200.75,892.619 1198.58,890.786 1195.5,890C 1190.83,889.667 1186.17,889.333 1181.5,889C 1178.22,886.138 1174.72,883.638 1171,881.5C 1168.54,873.293 1166.54,864.96 1165,856.5C 1159.33,850.167 1153.67,843.833 1148,837.5C 1147.82,814.79 1147.32,792.124 1146.5,769.5C 1145.97,768.808 1145.31,768.308 1144.5,768C 1118.83,767.333 1093.17,767.333 1067.5,768C 1065.96,769.878 1064.12,771.378 1062,772.5C 1058.29,769.73 1054.13,768.23 1049.5,768C 1040.51,767.215 1031.51,766.715 1022.5,766.5C 1022.33,758.16 1022.5,749.827 1023,741.5C 1026.25,739.457 1029.42,737.29 1032.5,735C 1045.5,734.667 1058.5,734.333 1071.5,734C 1077.31,733.287 1082.97,731.954 1088.5,730C 1102.83,729.667 1117.17,729.333 1131.5,729C 1132.13,728.25 1132.63,727.416 1133,726.5C 1133.33,721.5 1133.67,716.5 1134,711.5C 1137.59,708.954 1141.42,706.787 1145.5,705C 1164.17,704.667 1182.83,704.333 1201.5,704C 1202.93,703.535 1204.1,702.701 1205,701.5C 1205.67,677.5 1205.67,653.5 1205,629.5C 1204.4,626.692 1203.24,624.192 1201.5,622C 1196.09,619.548 1190.93,616.714 1186,613.5C 1185.67,602.833 1185.33,592.167 1185,581.5C 1183.39,577.194 1182.89,572.861 1183.5,568.5C 1170.05,532.942 1156.05,497.609 1141.5,462.5C 1129.18,461.667 1116.85,461.167 1104.5,461C 1095.43,454.804 1085.43,450.804 1074.5,449C 1086.16,438.518 1094.99,426.018 1101,411.5C 1104.46,409.283 1107.46,406.617 1110,403.5C 1110.67,376.5 1110.67,349.5 1110,322.5C 1105.95,309.123 1098.11,298.623 1086.5,291C 1088.57,285.55 1090.4,280.05 1092,274.5C 1092.67,242.167 1092.67,209.833 1092,177.5C 1091.66,174.12 1091.16,170.787 1090.5,167.5 Z"/></g>
<g><path style="opacity:1" fill="#64483a" d="M 983.5,798.5 C 988.602,799.121 993.602,799.787 998.5,800.5C 993.056,801.108 988.056,800.442 983.5,798.5 Z"/></g>
</svg>
