<?xml version="1.0" encoding="UTF-8"?>
<!DOCTYPE svg PUBLIC "-//W3C//DTD SVG 1.1//EN" "http://www.w3.org/Graphics/SVG/1.1/DTD/svg11.dtd">
<svg xmlns="http://www.w3.org/2000/svg" version="1.1" width="2296px" height="1221px" style="shape-rendering:geometricPrecision; text-rendering:geometricPrecision; image-rendering:optimizeQuality; fill-rule:evenodd; clip-rule:evenodd" xmlns:xlink="http://www.w3.org/1999/xlink">
<g><path style="opacity:0.983" fill="#48332c" d="M 1562.5,327.5 C 1570.94,327.29 1579.28,328.124 1587.5,330C 1592.44,332.946 1595.94,337.112 1598,342.5C 1601.97,368.35 1606.97,394.017 1613,419.5C 1623.94,458.588 1633.94,497.921 1643,537.5C 1652.34,563.024 1662.17,588.358 1672.5,613.5C 1671.74,617.86 1669.41,621.027 1665.5,623C 1659.93,626.455 1653.93,628.788 1647.5,630C 1616.5,628.513 1585.5,628.18 1554.5,629C 1547.13,630.118 1539.79,631.451 1532.5,633C 1525.62,636.275 1518.62,639.275 1511.5,642C 1502.85,644.741 1494.85,643.408 1487.5,638C 1470.2,622.366 1453.2,606.366 1436.5,590C 1433.83,588 1431.17,586 1428.5,584C 1415.47,570.634 1402.8,556.967 1390.5,543C 1374.36,535.431 1358.69,527.097 1343.5,518C 1336.56,511.359 1333.23,503.193 1333.5,493.5C 1336.06,471.082 1339.23,448.748 1343,426.5C 1347.77,411.771 1351.43,396.771 1354,381.5C 1357.82,373.273 1359.48,364.607 1359,355.5C 1362.87,345.973 1370.03,341.64 1380.5,342.5C 1389.18,342.953 1397.68,344.287 1406,346.5C 1422.04,345.407 1434.54,351.574 1443.5,365C 1453.77,366.684 1464.1,367.351 1474.5,367C 1479.92,365.973 1484.92,363.973 1489.5,361C 1496.41,354.764 1502.57,347.931 1508,340.5C 1509.94,337.894 1512.44,336.061 1515.5,335C 1531.32,332.569 1546.98,330.069 1562.5,327.5 Z"/></g>
<g><path style="opacity:1" fill="#a97e5f" d="M 1573.5,356.5 C 1581.24,392.64 1589.41,428.973 1598,465.5C 1605.56,491.2 1613.23,516.867 1621,542.5C 1627.39,561 1634.55,579.167 1642.5,597C 1633.57,595.349 1624.57,593.683 1615.5,592C 1599.86,590.589 1584.19,590.256 1568.5,591C 1549.09,593.663 1529.59,595.163 1510,595.5C 1505.63,595.677 1501.46,594.843 1497.5,593C 1493.11,590.139 1488.45,587.806 1483.5,586C 1476.53,578.03 1469.2,570.364 1461.5,563C 1449.33,554.833 1439.17,544.667 1431,532.5C 1425.05,525.542 1418.22,519.709 1410.5,515C 1396.06,508.615 1382.06,501.448 1368.5,493.5C 1368.68,476.059 1370.51,458.726 1374,441.5C 1379.81,419.902 1385.31,398.236 1390.5,376.5C 1397.72,372.363 1405.39,371.529 1413.5,374C 1418.33,377.252 1423.33,380.252 1428.5,383C 1448.71,401.553 1472.05,407.22 1498.5,400C 1501,398.92 1503.33,397.586 1505.5,396C 1516,385.5 1526.5,375 1537,364.5C 1538.41,362.35 1539.24,360.016 1539.5,357.5C 1549.47,358.591 1559.47,358.758 1569.5,358C 1571.06,357.79 1572.39,357.29 1573.5,356.5 Z"/></g>
<g><path style="opacity:0.981" fill="#48332c" d="M 1730.5,403.5 C 1740.55,402.129 1749.89,403.962 1758.5,409C 1766.12,418.621 1772.95,428.788 1779,439.5C 1780.5,441 1782,442.5 1783.5,444C 1788.39,445.443 1793.06,447.443 1797.5,450C 1812.42,459.903 1828.09,468.57 1844.5,476C 1849.61,481.723 1854.11,487.89 1858,494.5C 1861.67,499.5 1866,503.833 1871,507.5C 1875.23,513.159 1876.56,519.493 1875,526.5C 1871.45,534.583 1868.79,542.917 1867,551.5C 1858.83,563.834 1851.16,576.501 1844,589.5C 1840.17,602.154 1835.51,614.487 1830,626.5C 1824.55,634.286 1818.72,641.786 1812.5,649C 1807.85,652.216 1802.69,654.049 1797,654.5C 1785.24,652.879 1773.4,652.045 1761.5,652C 1750.23,650.911 1740.06,647.078 1731,640.5C 1730,638.833 1729,637.167 1728,635.5C 1728.59,618.186 1724.92,601.853 1717,586.5C 1704.74,567.64 1691.74,549.306 1678,531.5C 1652.81,511.579 1646.14,486.579 1658,456.5C 1666.82,438.674 1678.66,423.174 1693.5,410C 1694.83,409.333 1696.17,408.667 1697.5,408C 1708.57,406.082 1719.57,404.582 1730.5,403.5 Z"/></g>
<g><path style="opacity:1" fill="#b99f7f" d="M 1546.5,423.5 C 1551.63,442.892 1556.13,462.559 1560,482.5C 1567.48,507.087 1574.31,531.753 1580.5,556.5C 1565.49,556.29 1550.49,556.623 1535.5,557.5C 1529.09,557.138 1523.09,555.304 1517.5,552C 1508.46,539.959 1497.79,529.626 1485.5,521C 1475.23,511.422 1465.9,501.089 1457.5,490C 1451.24,484.703 1444.24,480.703 1436.5,478C 1427.64,473.405 1418.97,468.571 1410.5,463.5C 1413.3,453.102 1416.3,442.769 1419.5,432.5C 1423.77,433.879 1428.1,435.046 1432.5,436C 1463.17,436.667 1493.83,436.667 1524.5,436C 1533.51,434.663 1540.85,430.497 1546.5,423.5 Z"/></g>
<g><path style="opacity:1" fill="#a97e5f" d="M 1732.5,429.5 C 1735.52,429.335 1738.52,429.502 1741.5,430C 1747.12,438.08 1752.62,446.247 1758,454.5C 1765.35,462.76 1774.18,468.927 1784.5,473C 1799.94,479.721 1815.61,485.888 1831.5,491.5C 1838.03,501.89 1845.53,511.557 1854,520.5C 1853.14,532.546 1847.81,542.213 1838,549.5C 1825.59,565.325 1816.59,582.991 1811,602.5C 1807.52,606.662 1803.52,609.995 1799,612.5C 1789.57,610.953 1780.07,610.12 1770.5,610C 1765.28,601.07 1760.45,591.904 1756,582.5C 1744.06,565.624 1731.39,549.291 1718,533.5C 1708.57,523.471 1698.57,514.137 1688,505.5C 1677.34,491.8 1676.67,477.467 1686,462.5C 1689.92,457.004 1693.58,451.337 1697,445.5C 1701.53,440.633 1706.37,436.133 1711.5,432C 1718.72,431.824 1725.72,430.991 1732.5,429.5 Z"/></g>
<g><path style="opacity:1" fill="#b99f7f" d="M 1761.5,496.5 C 1766.38,496.193 1771.05,497.026 1775.5,499C 1784.13,506.648 1793.46,513.315 1803.5,519C 1807.82,523.861 1808.66,529.361 1806,535.5C 1801.5,541.835 1797.5,548.502 1794,555.5C 1790.51,559.047 1786.34,560.214 1781.5,559C 1766.74,547.344 1754.91,533.177 1746,516.5C 1745.15,512.375 1745.48,508.375 1747,504.5C 1751.44,500.977 1756.27,498.311 1761.5,496.5 Z"/></g>
<g><path style="opacity:0.969" fill="#48332c" d="M 1907.5,607.5 C 1909.85,607.838 1912.19,608.338 1914.5,609C 1919.66,611.63 1925,613.964 1930.5,616C 1939.74,624.565 1948.24,633.732 1956,643.5C 1958.12,647.366 1957.79,651.033 1955,654.5C 1948.33,660.5 1941.67,666.5 1935,672.5C 1930.6,681.564 1924.1,688.731 1915.5,694C 1909.75,694.851 1904.08,694.517 1898.5,693C 1888.26,685.092 1879.76,675.592 1873,664.5C 1869.61,659.06 1866.78,653.393 1864.5,647.5C 1864.61,644.332 1865.78,641.665 1868,639.5C 1868.61,634.865 1869.28,630.532 1870,626.5C 1871.12,624.376 1872.62,622.543 1874.5,621C 1885.17,615.321 1896.17,610.821 1907.5,607.5 Z"/></g>
<g><path style="opacity:1" fill="#a87e5f" d="M 1908.5,627.5 C 1912.63,629.433 1916.96,630.933 1921.5,632C 1925.18,636.345 1928.85,640.678 1932.5,645C 1929.26,649.382 1925.42,653.215 1921,656.5C 1916.97,662.57 1912.47,668.237 1907.5,673.5C 1898.16,665.158 1891.16,655.158 1886.5,643.5C 1886.78,641.67 1887.44,640.003 1888.5,638.5C 1895.55,635.313 1902.22,631.646 1908.5,627.5 Z"/></g>
<g><path style="opacity:0.978" fill="#48332c" d="M 1679.5,645.5 C 1686.6,648.074 1693.94,649.908 1701.5,651C 1708.29,659.463 1715.46,667.63 1723,675.5C 1738.64,697.753 1745.31,722.419 1743,749.5C 1741.86,757.429 1739.19,764.762 1735,771.5C 1733.27,773.617 1731.1,775.117 1728.5,776C 1722.92,777.517 1717.25,777.851 1711.5,777C 1702.17,774.333 1692.83,771.667 1683.5,769C 1667.82,766.884 1652.15,764.884 1636.5,763C 1628.73,759.033 1621.56,754.2 1615,748.5C 1607.06,735.956 1600.73,722.622 1596,708.5C 1594.28,698.665 1597.44,690.832 1605.5,685C 1610.37,682.064 1615.37,679.397 1620.5,677C 1630.41,666.713 1641.74,658.38 1654.5,652C 1661.01,650.037 1667.67,649.037 1674.5,649C 1676.23,647.811 1677.9,646.644 1679.5,645.5 Z"/></g>
<g><path style="opacity:0.978" fill="#48332c" d="M 571.5,668.5 C 576.511,668.334 581.511,668.501 586.5,669C 588.996,670.08 591.33,671.414 593.5,673C 604.936,686.438 617.102,699.271 630,711.5C 634.616,726.526 630.782,739.026 618.5,749C 614.25,751.374 610.084,753.874 606,756.5C 594.333,772.167 582.667,787.833 571,803.5C 561.727,814.368 550.893,823.202 538.5,830C 534.259,831.457 529.926,831.791 525.5,831C 514.787,821.952 503.787,813.286 492.5,805C 488.667,801.167 484.833,797.333 481,793.5C 479.637,790.41 478.47,787.244 477.5,784C 478.795,771.424 480.628,758.924 483,746.5C 488.828,729.016 495.828,712.016 504,695.5C 507.131,691.367 510.631,687.534 514.5,684C 532.651,675.215 551.651,670.048 571.5,668.5 Z"/></g>
<g><path style="opacity:0.97" fill="#48332c" d="M 1793.5,672.5 C 1800.2,672.682 1806.2,674.849 1811.5,679C 1823.33,690.488 1832.83,703.655 1840,718.5C 1840.95,724.671 1839.61,730.338 1836,735.5C 1830.67,742.833 1825.33,750.167 1820,757.5C 1811.95,765.054 1802.78,766.554 1792.5,762C 1787.14,759.646 1782.64,756.146 1779,751.5C 1773.71,744.54 1768.04,737.873 1762,731.5C 1759.61,728.401 1759.11,725.067 1760.5,721.5C 1757.45,716.068 1754.95,710.402 1753,704.5C 1752.18,696.975 1755.01,691.141 1761.5,687C 1771.67,680.74 1782.34,675.907 1793.5,672.5 Z"/></g>
<g><path style="opacity:1" fill="#a97e5f" d="M 1673.5,675.5 C 1681.01,674.618 1687.67,676.451 1693.5,681C 1697.18,688.199 1701.02,695.365 1705,702.5C 1710.47,716.328 1713.3,730.661 1713.5,745.5C 1695.1,741.304 1676.44,739.137 1657.5,739C 1651.2,737.508 1644.87,736.175 1638.5,735C 1637.67,734.167 1636.83,733.333 1636,732.5C 1631.65,724.144 1627.65,715.811 1624,707.5C 1632.8,700.372 1641.3,692.872 1649.5,685C 1657.7,682.056 1665.7,678.889 1673.5,675.5 Z"/></g>
<g><path style="opacity:1" fill="#a87e5f" d="M 1792.5,695.5 C 1794.2,695.34 1795.87,695.506 1797.5,696C 1806.6,703.37 1813.93,712.203 1819.5,722.5C 1814.83,729.832 1809.16,736.165 1802.5,741.5C 1801.06,741.281 1799.73,740.781 1798.5,740C 1791.29,732.463 1784.46,724.629 1778,716.5C 1775.96,712.76 1775.46,708.927 1776.5,705C 1781.76,701.542 1787.1,698.375 1792.5,695.5 Z"/></g>
<g><path style="opacity:1" fill="#a97e5f" d="M 556.5,696.5 C 564.659,697.039 572.659,698.539 580.5,701C 584.291,705.491 588.457,709.658 593,713.5C 596.787,717.579 599.954,722.079 602.5,727C 583.333,751.51 562.666,774.844 540.5,797C 537.667,799.167 534.833,801.333 532,803.5C 523.89,795.454 515.223,788.121 506,781.5C 505.207,772.398 505.873,763.398 508,754.5C 513.229,738.71 519.562,723.376 527,708.5C 528.731,706.383 530.898,704.883 533.5,704C 541.136,701.016 548.803,698.516 556.5,696.5 Z"/></g>
<g><path style="opacity:1" fill="#b99f7f" d="M 1660.5,702.5 C 1667.86,701.768 1674.86,702.934 1681.5,706C 1688.74,713.58 1687.74,719.913 1678.5,725C 1675.83,725.667 1673.17,725.667 1670.5,725C 1664.65,722.34 1659.49,718.84 1655,714.5C 1653.37,708.757 1655.21,704.757 1660.5,702.5 Z"/></g>
<g><path style="opacity:0.969" fill="#48332c" d="M 383.5,723.5 C 386.568,723.547 389.568,724.047 392.5,725C 401.766,729.213 410.599,734.046 419,739.5C 424.783,750.08 427.116,761.414 426,773.5C 425.241,776.785 423.908,779.785 422,782.5C 413.042,791.798 403.209,799.964 392.5,807C 371.56,817.955 360.726,811.789 360,788.5C 360.972,786.695 362.139,785.028 363.5,783.5C 358.407,777.336 356.24,770.336 357,762.5C 363.191,752.119 368.857,741.452 374,730.5C 376.529,727.115 379.696,724.782 383.5,723.5 Z"/></g>
<g><path style="opacity:1" fill="#b99f7f" d="M 550.5,723.5 C 555.844,723.334 561.177,723.501 566.5,724C 575.874,727.016 578.04,732.849 573,741.5C 568.833,744.333 564.667,747.167 560.5,750C 556.263,754.48 552.263,759.147 548.5,764C 545.833,764.667 543.167,764.667 540.5,764C 537.946,761.446 535.446,758.946 533,756.5C 533.424,750.193 534.09,743.86 535,737.5C 537.852,730.142 543.019,725.475 550.5,723.5 Z"/></g>
<g><path style="opacity:0.981" fill="#48332c" d="M 657.5,733.5 C 662.844,733.334 668.177,733.501 673.5,734C 686.77,737.038 700.103,739.705 713.5,742C 721.75,746.973 727.25,754.14 730,763.5C 735.147,778.545 737.98,794.045 738.5,810C 738.469,813.818 737.802,817.485 736.5,821C 737.624,826.396 736.791,831.563 734,836.5C 730.378,842.456 725.711,847.456 720,851.5C 719.454,856.804 718.288,861.971 716.5,867C 717.962,872.891 720.295,878.391 723.5,883.5C 731.423,887.129 739.09,891.296 746.5,896C 753.37,900.239 756.703,906.406 756.5,914.5C 755.437,923.047 754.103,931.547 752.5,940C 757.041,949.345 757.541,958.845 754,968.5C 738.906,981.802 721.739,991.635 702.5,998C 695.701,1006.9 686.701,1011.9 675.5,1013C 669.167,1013.67 662.833,1013.67 656.5,1013C 649.167,1010.33 641.833,1007.67 634.5,1005C 622.265,1002.66 609.932,1001.99 597.5,1003C 585.656,1005.84 573.822,1008.67 562,1011.5C 550.182,1008.67 538.349,1005.84 526.5,1003C 514.09,1004.09 503.59,1000.26 495,991.5C 493.107,988.382 491.774,985.049 491,981.5C 488.893,958.872 488.226,936.206 489,913.5C 490.172,896.978 498.005,884.812 512.5,877C 518.333,873.945 524.333,871.278 530.5,869C 544.687,866.162 558.02,861.162 570.5,854C 572.897,848.604 576.897,844.938 582.5,843C 585.667,839.833 588.833,836.667 592,833.5C 607.761,804.973 623.761,776.639 640,748.5C 644.558,741.758 650.391,736.758 657.5,733.5 Z"/></g>
<g><path style="opacity:1" fill="#a87d5f" d="M 389.5,747.5 C 394.51,749.421 399.343,751.755 404,754.5C 405.487,759.431 406.154,764.431 406,769.5C 404.207,772.295 402.04,774.795 399.5,777C 393.752,780.958 387.919,784.791 382,788.5C 380.102,782.418 378.268,776.251 376.5,770C 381.217,762.734 385.55,755.234 389.5,747.5 Z"/></g>
<g><path style="opacity:1" fill="#a97e5f" d="M 664.5,760.5 C 676.123,762.487 687.789,764.321 699.5,766C 711.468,790.831 712.302,815.997 702,841.5C 695.489,845.694 691.823,851.694 691,859.5C 689.965,877.595 695.799,893.095 708.5,906C 715.412,909.372 722.245,912.872 729,916.5C 728.346,923.279 727.846,930.112 727.5,937C 727.382,942.276 728.049,947.443 729.5,952.5C 729.167,953.167 728.833,953.833 728.5,954.5C 714.217,961.807 699.55,968.307 684.5,974C 681.797,977.038 678.797,979.705 675.5,982C 672.5,982.5 669.5,983 666.5,983.5C 657.735,980.618 649.069,977.452 640.5,974C 625.641,970.922 610.641,969.589 595.5,970C 584.176,971.789 573.009,974.289 562,977.5C 549.692,973.797 537.192,971.13 524.5,969.5C 523.568,956.187 522.901,942.854 522.5,929.5C 522.43,923.436 522.93,917.436 524,911.5C 525.873,909.291 528.04,907.458 530.5,906C 540.418,901.472 550.418,897.139 560.5,893C 570.422,885.749 579.756,877.749 588.5,869C 595.692,866.82 601.859,862.987 607,857.5C 611.4,853.033 615.066,848.033 618,842.5C 632.753,814.652 648.253,787.319 664.5,760.5 Z"/></g>
<g><path style="opacity:0.972" fill="#48332c" d="M 409.5,809.5 C 418.839,809.334 428.173,809.5 437.5,810C 449.337,810.478 456.837,816.311 460,827.5C 460.242,839.017 460.742,850.517 461.5,862C 461.158,872.713 458.658,882.88 454,892.5C 447.532,900.474 439.365,905.807 429.5,908.5C 423.813,906.629 418.146,905.795 412.5,906C 406.833,901.667 401.167,897.333 395.5,893C 391.162,884.494 386.662,875.994 382,867.5C 374.18,860.782 372.513,852.782 377,843.5C 383.333,835.833 389.667,828.167 396,820.5C 399.819,815.833 404.319,812.166 409.5,809.5 Z"/></g>
<g><path style="opacity:1" fill="#a87e5f" d="M 416.5,833.5 C 423.876,833.274 431.209,833.608 438.5,834.5C 438.898,847.219 438.398,859.886 437,872.5C 436.374,878.462 433.374,882.795 428,885.5C 422.557,883.574 417.39,881.074 412.5,878C 408.289,871.747 404.455,865.247 401,858.5C 400.389,854.318 401.056,850.318 403,846.5C 408.003,842.664 412.503,838.33 416.5,833.5 Z"/></g>
<g><path style="opacity:1" fill="#b99f7f" d="M 653.5,842.5 C 659.583,842.394 665.083,844.06 670,847.5C 672.298,851.218 672.965,855.218 672,859.5C 669.219,867.729 665.885,875.729 662,883.5C 661.333,887.833 661.333,892.167 662,896.5C 666.283,904.401 669.45,912.734 671.5,921.5C 671.386,926.184 669.719,930.184 666.5,933.5C 662.623,934.687 658.79,936.021 655,937.5C 637.487,936.051 619.987,936.218 602.5,938C 592.775,944.97 582.775,945.303 572.5,939C 566.957,933.49 566.124,927.323 570,920.5C 589.726,909.812 609.559,899.312 629.5,889C 633.362,884.771 636.862,880.271 640,875.5C 643.043,866.62 645.71,857.62 648,848.5C 649.36,845.977 651.193,843.977 653.5,842.5 Z"/></g>
</svg>
