<?xml version="1.0" encoding="UTF-8"?>
<!DOCTYPE svg PUBLIC "-//W3C//DTD SVG 1.1//EN" "http://www.w3.org/Graphics/SVG/1.1/DTD/svg11.dtd">
<svg xmlns="http://www.w3.org/2000/svg" version="1.1" width="2296px" height="1221px" style="shape-rendering:geometricPrecision; text-rendering:geometricPrecision; image-rendering:optimizeQuality; fill-rule:evenodd; clip-rule:evenodd" xmlns:xlink="http://www.w3.org/1999/xlink">
<g><path style="opacity:0.985" fill="#48332c" d="M 1343.5,152.5 C 1364.82,155.11 1386.16,157.61 1407.5,160C 1419.72,162.651 1432.06,164.651 1444.5,166C 1450.77,167.201 1456.77,169.201 1462.5,172C 1476.57,173.58 1489.91,177.58 1502.5,184C 1509.7,190.941 1512.53,199.441 1511,209.5C 1513.6,218.637 1516.6,227.637 1520,236.5C 1532.75,258.332 1545.75,279.999 1559,301.5C 1561.3,308.688 1562.96,316.022 1564,323.5C 1565.82,328.625 1567.82,333.625 1570,338.5C 1570.81,347.789 1568.81,356.456 1564,364.5C 1552.27,383.239 1540.94,402.239 1530,421.5C 1530.6,428.644 1531.43,435.81 1532.5,443C 1528.29,459.247 1520.79,473.747 1510,486.5C 1500.03,496.43 1492.03,507.763 1486,520.5C 1481.23,525.936 1475.4,529.769 1468.5,532C 1445.23,532.812 1421.9,534.479 1398.5,537C 1396,538.08 1393.67,539.414 1391.5,541C 1386.5,545.333 1381.5,549.667 1376.5,554C 1371.09,569.228 1365.09,584.228 1358.5,599C 1359.81,604.489 1359.64,609.989 1358,615.5C 1337.15,654.494 1310.48,689.161 1278,719.5C 1261.61,741.556 1242.78,761.39 1221.5,779C 1213.97,784.732 1205.47,787.898 1196,788.5C 1180.33,787.47 1164.83,785.303 1149.5,782C 1123.01,772.59 1097.34,761.257 1072.5,748C 1060.69,740.249 1056.52,729.415 1060,715.5C 1063.91,684.914 1066.57,654.248 1068,623.5C 1066.84,601.569 1063.84,579.902 1059,558.5C 1055.39,557.226 1052.73,554.893 1051,551.5C 1046.48,540.404 1045.32,529.07 1047.5,517.5C 1047.58,515.264 1047.25,512.93 1046.5,510.5C 1046.83,510.167 1047.17,509.833 1047.5,509.5C 1050.46,511.834 1053.12,511.334 1055.5,508C 1060.75,507.083 1065.75,505.416 1070.5,503C 1090.13,489.403 1110.8,477.403 1132.5,467C 1143.85,461.316 1153.02,453.15 1160,442.5C 1171.92,422.984 1184.59,403.984 1198,385.5C 1208.76,365.219 1216.76,343.885 1222,321.5C 1225.28,295.892 1220.61,271.892 1208,249.5C 1205.35,237.634 1210.18,231.3 1222.5,230.5C 1223.95,227.433 1226.28,225.266 1229.5,224C 1252.53,216.657 1275.2,208.324 1297.5,199C 1307.93,187.304 1317.26,174.804 1325.5,161.5C 1330.62,156.582 1336.62,153.582 1343.5,152.5 Z"/></g>
<g><path style="opacity:1" fill="#a97e5f" d="M 1360.5,194.5 C 1389.1,195.598 1417.43,199.098 1445.5,205C 1447.73,205.561 1449.73,206.561 1451.5,208C 1459.04,215.87 1466.21,224.037 1473,232.5C 1480.17,244.179 1487.84,255.512 1496,266.5C 1501.27,279.306 1505.93,292.306 1510,305.5C 1515.19,315.89 1521.86,325.223 1530,333.5C 1530.95,339.362 1530.29,345.028 1528,350.5C 1523,360.513 1517,369.846 1510,378.5C 1504.92,389.653 1499.59,400.653 1494,411.5C 1492.98,415.765 1492.48,420.098 1492.5,424.5C 1492.82,430.894 1493.32,437.228 1494,443.5C 1485,456.833 1476,470.167 1467,483.5C 1464.29,488.416 1461.46,493.249 1458.5,498C 1437.04,496.341 1415.71,497.341 1394.5,501C 1382.8,504.682 1372.47,510.682 1363.5,519C 1347.41,532.352 1338.57,549.519 1337,570.5C 1336.83,577.856 1336.33,585.189 1335.5,592.5C 1324.63,600.868 1316.13,611.201 1310,623.5C 1299.28,629.883 1290.95,638.55 1285,649.5C 1278,656.5 1271,663.5 1264,670.5C 1255.72,683.11 1247.06,695.444 1238,707.5C 1224.39,722.482 1207.56,728.315 1187.5,725C 1179.14,724.141 1170.8,723.141 1162.5,722C 1144.67,714.837 1127.84,706.004 1112,695.5C 1109.91,690.372 1108.57,685.038 1108,679.5C 1105.55,644.105 1099.21,609.438 1089,575.5C 1083.31,559.582 1077.14,543.916 1070.5,528.5C 1086.85,523.159 1103.18,517.659 1119.5,512C 1141.74,501.428 1159.24,485.594 1172,464.5C 1190.54,446.301 1207.21,426.634 1222,405.5C 1248.04,361.928 1255.71,315.262 1245,265.5C 1243.66,260.636 1241.82,255.969 1239.5,251.5C 1257.46,247.862 1275.12,243.029 1292.5,237C 1313.48,226.847 1333.48,215.181 1352.5,202C 1355.43,199.715 1358.1,197.215 1360.5,194.5 Z"/></g>
<g><path style="opacity:1" fill="#b99f7f" d="M 1387.5,234.5 C 1395.88,235.675 1404.21,237.175 1412.5,239C 1414.83,240.667 1417.17,242.333 1419.5,244C 1438.42,265.254 1454.59,288.421 1468,313.5C 1470.09,323.541 1473.26,333.208 1477.5,342.5C 1472.29,353.25 1466.79,363.917 1461,374.5C 1460.33,377.167 1459.67,379.833 1459,382.5C 1458.67,392.5 1458.33,402.5 1458,412.5C 1446.05,429.127 1434.88,446.294 1424.5,464C 1409.17,464.333 1393.83,464.667 1378.5,465C 1366.11,465.339 1354.45,468.339 1343.5,474C 1333.39,481.111 1324.22,489.278 1316,498.5C 1309.09,509.129 1305.09,520.796 1304,533.5C 1303,541.471 1302.34,549.471 1302,557.5C 1297.75,559.743 1294.09,562.743 1291,566.5C 1285.94,573.228 1281.27,580.228 1277,587.5C 1266.62,593.551 1258.62,601.884 1253,612.5C 1246.11,620.306 1238.77,627.64 1231,634.5C 1222.45,648.386 1213.11,661.72 1203,674.5C 1199.12,678.05 1194.95,681.217 1190.5,684C 1189.17,684.667 1187.83,684.667 1186.5,684C 1175.39,677.894 1164.06,672.228 1152.5,667C 1147.88,664.382 1144.72,660.549 1143,655.5C 1140.02,622.158 1134.86,589.158 1127.5,556.5C 1127.61,555.558 1127.94,554.725 1128.5,554C 1155.32,547.516 1177.82,534.016 1196,513.5C 1209.55,495.615 1224.21,478.615 1240,462.5C 1262.99,434.17 1276.99,401.837 1282,365.5C 1282.5,337.835 1282.67,310.169 1282.5,282.5C 1298.06,279.275 1313.4,275.109 1328.5,270C 1349.39,259.894 1369.05,248.06 1387.5,234.5 Z"/></g>
<g><path style="opacity:0.984" fill="#48332c" d="M 914.5,774.5 C 923.967,774.607 933.3,775.774 942.5,778C 954.714,782.071 967.048,785.738 979.5,789C 987.698,791.172 994.198,795.672 999,802.5C 1008.47,822.116 1018.47,841.449 1029,860.5C 1035.47,867.97 1042.3,875.136 1049.5,882C 1057.13,884.226 1062.97,888.726 1067,895.5C 1072.8,906.829 1075.13,918.829 1074,931.5C 1073.56,934.376 1072.56,937.043 1071,939.5C 1062.75,948.417 1052.92,954.917 1041.5,959C 1036.04,962.787 1030.88,966.954 1026,971.5C 1022.5,979.154 1020.34,987.154 1019.5,995.5C 1019.3,999.411 1020.13,1003.08 1022,1006.5C 1025.27,1012.04 1028.27,1017.71 1031,1023.5C 1033.47,1034.32 1031.47,1044.32 1025,1053.5C 1013.17,1071.49 1003.17,1090.49 995,1110.5C 990.598,1116.9 984.598,1120.9 977,1122.5C 954.096,1119.54 931.262,1116.04 908.5,1112C 893.063,1108.78 879.396,1102.11 867.5,1092C 854.608,1090.09 842.275,1086.42 830.5,1081C 826.072,1077.91 823.239,1073.74 822,1068.5C 820.82,1059.55 820.153,1050.55 820,1041.5C 814.54,1033.71 808.04,1026.87 800.5,1021C 777.325,1005.25 754.325,989.246 731.5,973C 722.884,965.39 715.384,956.89 709,947.5C 705.562,934.957 700.228,923.291 693,912.5C 688.619,903.981 686.952,894.981 688,885.5C 690.708,877.75 694.708,870.75 700,864.5C 701.22,853.553 706.387,845.053 715.5,839C 728.606,832.446 741.94,826.446 755.5,821C 760.277,820.011 765.111,819.511 770,819.5C 778.424,821.019 786.924,821.519 795.5,821C 804.956,818.736 814.29,816.07 823.5,813C 834.913,811.051 846.247,808.717 857.5,806C 863.287,803.606 868.954,800.94 874.5,798C 879.833,791.333 885.833,785.333 892.5,780C 899.622,776.815 906.955,774.981 914.5,774.5 Z"/></g>
<g><path style="opacity:1" fill="#a97e5f" d="M 911.5,805.5 C 932.715,806.22 953.049,810.887 972.5,819.5C 987.3,849.778 1004.13,878.778 1023,906.5C 1025.74,908.788 1028.58,910.955 1031.5,913C 1016.8,931.556 1003.96,951.39 993,972.5C 986.707,988.661 987.04,1004.66 994,1020.5C 996.421,1024.34 998.588,1028.34 1000.5,1032.5C 989.52,1050.29 979.187,1068.46 969.5,1087C 955.422,1087.25 941.422,1086.25 927.5,1084C 919.049,1080.61 910.716,1076.94 902.5,1073C 889.121,1069.33 875.788,1065.66 862.5,1062C 857.365,1054.24 852.865,1046.07 849,1037.5C 848.098,1023.05 845.098,1009.05 840,995.5C 833.221,982.005 822.721,972.505 808.5,967C 795.311,962.149 782.311,956.816 769.5,951C 761.718,947.795 753.718,945.295 745.5,943.5C 740.333,935.833 735.167,928.167 730,920.5C 729.842,904.125 729.009,887.792 727.5,871.5C 728.225,867.55 729.892,864.05 732.5,861C 742.715,856.059 753.048,851.392 763.5,847C 769.313,846.276 774.98,846.942 780.5,849C 787.833,849.667 795.167,849.667 802.5,849C 811.326,847.281 819.992,844.947 828.5,842C 850.004,839.875 870.337,833.875 889.5,824C 896.459,819.375 902.459,813.708 907.5,807C 909.058,806.79 910.391,806.29 911.5,805.5 Z"/></g>
<g><path style="opacity:1" fill="#b99f7f" d="M 931.5,851.5 C 935.025,851.346 937.859,852.679 940,855.5C 949.804,875.777 960.637,895.444 972.5,914.5C 962.79,927.253 956.957,941.587 955,957.5C 954.667,978.167 954.333,998.833 954,1019.5C 949.566,1026.7 945.4,1034.04 941.5,1041.5C 936.891,1039.36 932.224,1037.52 927.5,1036C 917.96,1034.61 908.627,1032.61 899.5,1030C 897.391,1028.86 895.558,1027.36 894,1025.5C 890.016,1017.53 886.016,1009.53 882,1001.5C 880.973,989.67 878.973,978.003 876,966.5C 870.193,950.026 859.026,938.859 842.5,933C 833.307,930.537 824.64,926.871 816.5,922C 805.079,917.526 793.412,913.86 781.5,911C 777.008,905.684 773.008,900.017 769.5,894C 776.167,890.667 782.833,887.333 789.5,884C 806.85,883.729 824.184,883.063 841.5,882C 858.436,876.356 875.769,872.356 893.5,870C 907.721,866.722 920.387,860.555 931.5,851.5 Z"/></g>
</svg>
