<?xml version="1.0" encoding="UTF-8"?>
<!DOCTYPE svg PUBLIC "-//W3C//DTD SVG 1.1//EN" "http://www.w3.org/Graphics/SVG/1.1/DTD/svg11.dtd">
<svg xmlns="http://www.w3.org/2000/svg" version="1.1" width="2296px" height="1221px" style="shape-rendering:geometricPrecision; text-rendering:geometricPrecision; image-rendering:optimizeQuality; fill-rule:evenodd; clip-rule:evenodd" xmlns:xlink="http://www.w3.org/1999/xlink">
<g><path style="opacity:0.987" fill="#48332c" d="M 1433.5,355.5 C 1433.64,346.483 1433.31,337.483 1432.5,328.5C 1432.4,322.073 1433.9,316.073 1437,310.5C 1450.55,302.973 1463.72,294.806 1476.5,286C 1493.88,279.146 1510.21,270.479 1525.5,260C 1542.05,246.799 1553.88,230.299 1561,210.5C 1571.56,201.867 1581.23,202.867 1590,213.5C 1591.99,219.83 1596.16,223.663 1602.5,225C 1604.83,226.667 1607.17,228.333 1609.5,230C 1633.97,257.46 1656.14,286.627 1676,317.5C 1685.76,337.201 1692.76,357.867 1697,379.5C 1704.61,392.386 1710.28,406.052 1714,420.5C 1714.85,425.297 1715.35,430.13 1715.5,435C 1714.26,446.529 1712.76,458.029 1711,469.5C 1709.32,476.879 1706.65,483.879 1703,490.5C 1697.38,498.453 1691.38,506.12 1685,513.5C 1675.31,524.191 1665.31,534.524 1655,544.5C 1654.36,545.609 1653.86,546.775 1653.5,548C 1654.28,550.39 1655.44,552.557 1657,554.5C 1664,560.5 1671,566.5 1678,572.5C 1681.92,578.93 1684.25,585.93 1685,593.5C 1686.66,617.635 1685.32,641.635 1681,665.5C 1677.3,676.879 1670.8,686.379 1661.5,694C 1637.5,710 1613.5,726 1589.5,742C 1573.34,749.911 1557.34,758.078 1541.5,766.5C 1540.66,775.032 1537.33,782.365 1531.5,788.5C 1534.9,796.209 1537.4,804.209 1539,812.5C 1547.21,828.817 1555.21,845.15 1563,861.5C 1565.49,875.246 1567.32,889.079 1568.5,903C 1568.19,910.638 1567.02,918.138 1565,925.5C 1556.79,941.927 1549.12,958.594 1542,975.5C 1533.37,989.141 1522.87,1001.31 1510.5,1012C 1485.1,1024.69 1458.77,1035.02 1431.5,1043C 1428.8,1046.04 1425.8,1048.7 1422.5,1051C 1389.82,1064.22 1355.82,1070.05 1320.5,1068.5C 1308.13,1068.23 1296.13,1066.07 1284.5,1062C 1281.83,1060.33 1279.17,1058.67 1276.5,1057C 1269.3,1049.47 1261.8,1042.3 1254,1035.5C 1246.91,1025.67 1240.58,1015.33 1235,1004.5C 1231.42,999.2 1227.26,994.367 1222.5,990C 1189.03,969.603 1153.7,952.936 1116.5,940C 1101.01,935.884 1085.34,934.884 1069.5,937C 1054.83,944 1040.17,951 1025.5,958C 1017.28,966.219 1007.95,972.885 997.5,978C 986.684,981.731 975.684,982.397 964.5,980C 945.148,972.491 926.148,964.158 907.5,955C 891.237,945.731 875.237,936.064 859.5,926C 848.009,917.421 836.343,909.088 824.5,901C 814.354,893.565 807.52,883.731 804,871.5C 802.131,866.228 800.465,860.894 799,855.5C 797.202,837.555 796.202,819.555 796,801.5C 789.595,781.62 783.595,761.62 778,741.5C 775.499,736.494 772.499,731.827 769,727.5C 763.469,726.405 758.302,724.238 753.5,721C 747.865,716.367 742.532,711.367 737.5,706C 719.212,692.047 701.212,677.714 683.5,663C 666.599,656.216 649.932,648.883 633.5,641C 620.167,637 606.833,633 593.5,629C 573.348,621.535 566.848,607.701 574,587.5C 582.377,578.125 590.377,568.458 598,558.5C 602.388,552.391 605.721,545.724 608,538.5C 614.743,517.861 620.077,496.861 624,475.5C 627.454,441.553 622.454,408.887 609,377.5C 601.372,367.535 592.206,359.368 581.5,353C 579.126,350.961 577.126,348.628 575.5,346C 570.002,344.507 564.836,342.341 560,339.5C 555.966,333.482 555.633,327.148 559,320.5C 562.61,312.279 565.943,303.946 569,295.5C 570.297,287.082 571.964,278.749 574,270.5C 574.667,269.167 575.333,267.833 576,266.5C 581.87,261.663 587.37,256.496 592.5,251C 605.661,242.834 619.994,237.834 635.5,236C 646.612,231.944 657.612,227.61 668.5,223C 671.928,222.299 675.262,222.632 678.5,224C 682.548,227.716 686.882,231.05 691.5,234C 696.357,234.189 701.024,235.189 705.5,237C 711.802,242.301 717.802,247.968 723.5,254C 728.889,258.389 734.556,262.389 740.5,266C 761.655,273.496 782.321,282.163 802.5,292C 813.752,295.313 825.085,298.313 836.5,301C 842.723,302.779 848.723,305.112 854.5,308C 861.308,313.425 863.975,320.425 862.5,329C 860.908,331.622 860.741,334.122 862,336.5C 868.076,332.713 874.576,329.879 881.5,328C 890.177,326.565 898.843,325.065 907.5,323.5C 911.583,324.361 915.583,325.527 919.5,327C 932.086,335.978 946.086,341.644 961.5,344C 978.458,352.568 996.458,356.235 1015.5,355C 1023.88,355.718 1028.72,360.218 1030,368.5C 1035.02,372.022 1039.19,376.355 1042.5,381.5C 1047.87,385.19 1052.87,389.357 1057.5,394C 1065.66,397.827 1072.99,402.827 1079.5,409C 1082.42,410.528 1085.42,411.861 1088.5,413C 1112.12,416.73 1135.46,415.396 1158.5,409C 1172.71,402.111 1181.88,390.944 1186,375.5C 1193.52,365.66 1203.35,362.16 1215.5,365C 1225.4,366.373 1235.07,368.706 1244.5,372C 1249.5,372.667 1254.5,372.667 1259.5,372C 1278.14,366.629 1297.14,363.295 1316.5,362C 1325.24,359.087 1334.07,356.587 1343,354.5C 1351.46,355.9 1358.46,359.9 1364,366.5C 1365.53,369.417 1366.86,372.417 1368,375.5C 1369.25,373.999 1370.25,372.332 1371,370.5C 1372.42,360.147 1375.09,350.147 1379,340.5C 1387.49,331.173 1397.65,328.339 1409.5,332C 1416.3,334.817 1422.14,338.984 1427,344.5C 1428.69,348.56 1430.86,352.227 1433.5,355.5 Z"/></g>
<g><path style="opacity:1" fill="#a97e5f" d="M 1594.5,255.5 C 1596.8,257.294 1598.96,259.294 1601,261.5C 1624.78,304.391 1646.45,348.391 1666,393.5C 1669.76,408.953 1673.26,424.453 1676.5,440C 1674.33,445.507 1671.5,450.674 1668,455.5C 1656.4,472.371 1644.06,488.705 1631,504.5C 1622.9,517.595 1615.23,530.929 1608,544.5C 1606.54,551.431 1607.87,557.764 1612,563.5C 1616.39,568.889 1620.39,574.556 1624,580.5C 1629.35,585.919 1634.68,591.252 1640,596.5C 1640.93,601.287 1641.43,606.12 1641.5,611C 1640.4,625.545 1638.9,640.045 1637,654.5C 1635.94,657.562 1634.11,660.062 1631.5,662C 1605.41,679.086 1580.74,698.086 1557.5,719C 1538.89,731.636 1518.89,741.636 1497.5,749C 1485.26,756.143 1480.26,766.81 1482.5,781C 1481.68,790.887 1483.18,800.387 1487,809.5C 1489.17,812.333 1491.67,814.833 1494.5,817C 1505.05,819.895 1512.88,826.061 1518,835.5C 1517.56,842.137 1517.56,848.804 1518,855.5C 1526.16,874.451 1528.49,894.118 1525,914.5C 1519.06,927.383 1513.39,940.383 1508,953.5C 1504.41,959.01 1500.58,964.343 1496.5,969.5C 1487.65,972.524 1479.99,977.357 1473.5,984C 1468.17,986.667 1462.83,989.333 1457.5,992C 1438.6,998.785 1419.93,1006.12 1401.5,1014C 1373.44,1016.57 1345.44,1019.23 1317.5,1022C 1309.24,1013.54 1299.91,1006.54 1289.5,1001C 1286.33,997.833 1283.17,994.667 1280,991.5C 1267.98,969.811 1251.48,952.311 1230.5,939C 1213.95,928.891 1196.95,919.557 1179.5,911C 1154.65,902.453 1129.31,895.787 1103.5,891C 1079.49,887.921 1057.16,892.587 1036.5,905C 1018.83,908.224 1002.16,914.224 986.5,923C 981.727,924.702 976.894,926.202 972,927.5C 942.45,912.309 913.283,896.476 884.5,880C 869.622,871.119 858.122,858.953 850,843.5C 838.385,806.988 825.385,770.988 811,735.5C 788.454,699.954 759.287,671.12 723.5,649C 720.978,644.966 717.978,641.299 714.5,638C 690.575,620.198 664.908,605.198 637.5,593C 648.788,585.7 656.288,575.533 660,562.5C 667.206,536.133 671.706,509.3 673.5,482C 673.083,472.411 671.916,462.911 670,453.5C 666.077,435.216 662.41,416.883 659,398.5C 654.064,377.594 644.064,359.594 629,344.5C 621.086,336.582 612.586,329.415 603.5,323C 608.524,311.598 613.357,300.098 618,288.5C 620.377,280.123 625.877,275.29 634.5,274C 649.1,268.795 664.1,266.795 679.5,268C 697.637,283.105 717.97,294.439 740.5,302C 758.549,313.69 777.883,322.69 798.5,329C 812.282,332.118 826.116,334.951 840,337.5C 840.945,337.905 841.612,338.572 842,339.5C 844.19,349.066 844.857,358.733 844,368.5C 841.965,373.604 840.132,378.771 838.5,384C 840.672,394.524 847.005,399.191 857.5,398C 859.609,396.859 861.442,395.359 863,393.5C 868.782,381.996 874.282,370.33 879.5,358.5C 880.025,357.808 880.692,357.308 881.5,357C 890.833,356.333 900.167,356.333 909.5,357C 917.279,360.593 925.279,363.593 933.5,366C 936.833,368.667 940.167,371.333 943.5,374C 951.167,377 958.833,380 966.5,383C 980.233,385.144 993.9,384.977 1007.5,382.5C 1010.67,395.831 1017.67,406.664 1028.5,415C 1039.37,419.664 1047.54,427.164 1053,437.5C 1062,448.082 1073.5,453.415 1087.5,453.5C 1099.5,452.921 1110.5,449.421 1120.5,443C 1133.12,442.209 1145.45,439.876 1157.5,436C 1176.8,430.234 1195.47,422.901 1213.5,414C 1227.88,413.489 1242.21,412.489 1256.5,411C 1266.82,407.337 1277.16,403.67 1287.5,400C 1306.58,398.316 1324.25,392.483 1340.5,382.5C 1346.16,388.324 1351.66,394.324 1357,400.5C 1361.09,406.672 1364.09,413.339 1366,420.5C 1371.19,426.199 1375.52,425.532 1379,418.5C 1379.52,413.148 1380.19,407.815 1381,402.5C 1383.7,400.766 1385.7,398.432 1387,395.5C 1389.06,385.819 1391.23,376.152 1393.5,366.5C 1397.49,365.81 1401.49,365.643 1405.5,366C 1418.36,384.525 1433.02,401.525 1449.5,417C 1456.06,418.898 1459.73,416.565 1460.5,410C 1459.17,403.665 1457.83,397.332 1456.5,391C 1457.6,383.947 1459.43,377.113 1462,370.5C 1462.12,362.043 1463.12,353.71 1465,345.5C 1475.97,334.861 1487.8,325.361 1500.5,317C 1516.9,311.8 1532.23,304.467 1546.5,295C 1563.56,283.102 1579.56,269.936 1594.5,255.5 Z"/></g>
<g><path style="opacity:1" fill="#b99f7f" d="M 672.5,320.5 C 682.495,326.662 693.162,331.495 704.5,335C 725.697,349.098 748.697,359.098 773.5,365C 784.219,366.637 794.886,368.471 805.5,370.5C 805.333,388.17 805.5,405.836 806,423.5C 808.194,427.027 811.027,429.861 814.5,432C 840.167,432.667 865.833,432.667 891.5,432C 893.96,430.542 896.127,428.709 898,426.5C 901.095,419.671 904.262,413.004 907.5,406.5C 914.792,409.764 922.126,412.931 929.5,416C 944.454,417.635 959.454,418.468 974.5,418.5C 977.009,429.851 982.676,439.351 991.5,447C 996.833,450.333 1002.17,453.667 1007.5,457C 1013.17,464 1018.83,471 1024.5,478C 1030.52,482.229 1037.18,484.896 1044.5,486C 1073.83,486.667 1103.17,486.667 1132.5,486C 1137.07,484.358 1141.73,483.025 1146.5,482C 1149.85,479.968 1153.19,477.968 1156.5,476C 1171.26,475.079 1185.6,472.079 1199.5,467C 1207.95,463.405 1216.62,460.405 1225.5,458C 1233.29,454.606 1240.95,450.939 1248.5,447C 1260.5,446.667 1272.5,446.333 1284.5,446C 1297.1,442.6 1309.44,438.433 1321.5,433.5C 1326.93,440.355 1330.76,448.022 1333,456.5C 1334.07,457.191 1335.23,457.691 1336.5,458C 1360.17,458.667 1383.83,458.667 1407.5,458C 1408.77,457.691 1409.93,457.191 1411,456.5C 1412.09,453.956 1412.76,451.289 1413,448.5C 1413.5,449.667 1414.33,450.5 1415.5,451C 1440.83,451.667 1466.17,451.667 1491.5,451C 1492.7,450.097 1493.53,448.931 1494,447.5C 1493.81,425.046 1495.15,402.713 1498,380.5C 1509.34,369.588 1521.51,359.754 1534.5,351C 1547.82,346.114 1560.82,340.447 1573.5,334C 1576.74,331.132 1580.24,328.632 1584,326.5C 1600.65,358.464 1616.15,390.964 1630.5,424C 1627.99,429.522 1624.82,434.689 1621,439.5C 1612.61,448.621 1604.94,458.287 1598,468.5C 1591.73,479.763 1585.06,490.763 1578,501.5C 1575.52,505.123 1574.19,509.123 1574,513.5C 1573.33,537.833 1573.33,562.167 1574,586.5C 1574.69,589.936 1575.69,593.27 1577,596.5C 1582.25,603.324 1587.25,610.324 1592,617.5C 1594.5,620 1597,622.5 1599.5,625C 1597.5,627 1595.5,629 1593.5,631C 1568.08,647.416 1544.08,665.75 1521.5,686C 1515.83,689.667 1510.17,693.333 1504.5,697C 1490.48,704.085 1476.14,710.419 1461.5,716C 1455.93,718.943 1452.1,723.443 1450,729.5C 1448.41,763.144 1448.07,796.811 1449,830.5C 1449.72,838.252 1452.89,844.752 1458.5,850C 1468.64,853.153 1476.81,858.986 1483,867.5C 1483.33,874.5 1483.67,881.5 1484,888.5C 1484.78,889.729 1485.28,891.062 1485.5,892.5C 1480.73,908.878 1472.73,923.378 1461.5,936C 1453.36,938.567 1446.36,942.9 1440.5,949C 1427.37,956.936 1413.37,962.936 1398.5,967C 1387.84,972.499 1376.84,977.166 1365.5,981C 1360.49,981.41 1355.49,981.91 1350.5,982.5C 1335.94,976.612 1323.44,967.612 1313,955.5C 1301.98,934.815 1286.48,918.315 1266.5,906C 1250.82,896.493 1234.82,887.493 1218.5,879C 1194.11,870.981 1169.44,863.981 1144.5,858C 1108.83,857.333 1073.17,857.333 1037.5,858C 1024.4,860.689 1012.07,865.356 1000.5,872C 992.313,873.546 984.313,875.713 976.5,878.5C 963.154,870.492 949.488,862.992 935.5,856C 921.522,848.428 908.689,839.262 897,828.5C 891.157,822.316 886.49,815.316 883,807.5C 872.379,773.302 860.379,739.636 847,706.5C 825.646,668.812 796.48,638.646 759.5,616C 755.534,611.033 751.201,606.366 746.5,602C 731.592,591.292 716.092,581.459 700,572.5C 701.619,559.843 703.619,547.176 706,534.5C 706.667,501.167 706.667,467.833 706,434.5C 701.214,408.47 696.214,382.47 691,356.5C 686.64,343.444 680.473,331.444 672.5,320.5 Z"/></g>
<g><path style="opacity:1" fill="#88654e" d="M 1433.5,355.5 C 1435.27,356.314 1435.77,357.648 1435,359.5C 1433.81,358.437 1433.31,357.103 1433.5,355.5 Z"/></g>
</svg>
