<?xml version="1.0" encoding="UTF-8"?>
<!DOCTYPE svg PUBLIC "-//W3C//DTD SVG 1.1//EN" "http://www.w3.org/Graphics/SVG/1.1/DTD/svg11.dtd">
<svg xmlns="http://www.w3.org/2000/svg" version="1.1" width="2296px" height="1221px" style="shape-rendering:geometricPrecision; text-rendering:geometricPrecision; image-rendering:optimizeQuality; fill-rule:evenodd; clip-rule:evenodd" xmlns:xlink="http://www.w3.org/1999/xlink">
<g><path style="opacity:0.975" fill="#48332c" d="M 1190.5,317.5 C 1200.51,317.334 1210.51,317.5 1220.5,318C 1226.56,319.864 1232.23,322.53 1237.5,326C 1250.6,329.256 1263.6,332.923 1276.5,337C 1303.21,339.318 1329.71,342.818 1356,347.5C 1362.89,346.178 1369.89,345.512 1377,345.5C 1387.8,346.606 1398.64,347.439 1409.5,348C 1416.44,348.637 1422.11,351.637 1426.5,357C 1436.47,361.316 1446.47,365.649 1456.5,370C 1466.17,375.563 1476.17,380.563 1486.5,385C 1492.84,388.504 1498.84,392.504 1504.5,397C 1517.04,401.605 1528.38,408.271 1538.5,417C 1546.53,418.464 1554.53,419.964 1562.5,421.5C 1567.18,434.025 1572.34,446.359 1578,458.5C 1579.32,461.406 1579.65,464.406 1579,467.5C 1576.72,471.718 1573.72,475.384 1570,478.5C 1562.24,499.363 1553.9,520.029 1545,540.5C 1542.17,544.667 1539.33,548.833 1536.5,553C 1531.91,554.457 1528.24,557.124 1525.5,561C 1513.19,567.213 1500.19,571.213 1486.5,573C 1460.66,586.728 1433.66,597.728 1405.5,606C 1403.41,606.792 1401.58,607.959 1400,609.5C 1397.85,630.283 1391.52,649.616 1381,667.5C 1378.42,672.084 1375.09,676.084 1371,679.5C 1367.98,692.592 1362.64,704.592 1355,715.5C 1354.35,725.196 1354.69,734.862 1356,744.5C 1359.75,760.412 1365.08,775.746 1372,790.5C 1384.86,804.268 1391.2,820.601 1391,839.5C 1386.99,852.847 1379.15,863.347 1367.5,871C 1352.42,885.749 1337.75,900.749 1323.5,916C 1321.17,917.667 1318.83,919.333 1316.5,921C 1288.37,925.397 1260.03,927.397 1231.5,927C 1211.87,929.66 1192.21,931.993 1172.5,934C 1159.46,937.177 1146.46,940.511 1133.5,944C 1122.2,949.771 1110.53,954.771 1098.5,959C 1083.85,963.33 1069.18,967.663 1054.5,972C 1045.89,973.505 1037.22,973.839 1028.5,973C 1015.12,967.291 1004.45,958.291 996.5,946C 981.578,937.367 967.911,927.034 955.5,915C 944.322,909.156 933.655,902.489 923.5,895C 911.532,888.348 899.532,881.681 887.5,875C 878.166,870.166 868.5,866.166 858.5,863C 842.41,850.951 825.076,840.951 806.5,833C 802.591,831.218 799.258,828.718 796.5,825.5C 790.433,824.55 785.266,821.883 781,817.5C 777.663,810.151 773.329,803.484 768,797.5C 762.551,782.732 765.217,769.732 776,758.5C 779.412,751.342 783.078,744.342 787,737.5C 793.042,731.127 798.708,724.46 804,717.5C 808.863,706.91 812.53,695.91 815,684.5C 816.67,669.808 818.503,655.141 820.5,640.5C 816.68,618.644 814.513,596.644 814,574.5C 816.591,566.651 820.258,559.317 825,552.5C 829.381,543.406 834.048,534.406 839,525.5C 841.872,522.963 844.372,520.13 846.5,517C 850.2,513.657 854.533,511.657 859.5,511C 880.533,507.478 901.533,503.812 922.5,500C 934.35,497.239 945.35,492.573 955.5,486C 986.714,458.458 1017.05,429.792 1046.5,400C 1057.1,391.551 1067.43,382.884 1077.5,374C 1082.33,368.5 1087.17,363 1092,357.5C 1093.08,355.004 1094.41,352.67 1096,350.5C 1099.93,346.849 1103.76,343.016 1107.5,339C 1111.76,336.413 1115.76,333.413 1119.5,330C 1121.09,329.138 1122.75,328.471 1124.5,328C 1133.51,327.066 1142.51,326.066 1151.5,325C 1164.46,321.507 1177.46,319.007 1190.5,317.5 Z"/></g>
<g><path style="opacity:1" fill="#8b6750" d="M 1192.5,344.5 C 1187.38,345.806 1182.05,346.473 1176.5,346.5C 1181.57,344.822 1186.9,344.156 1192.5,344.5 Z"/></g>
<g><path style="opacity:1" fill="#a97e5f" d="M 1192.5,344.5 C 1199.51,344.334 1206.51,344.5 1213.5,345C 1220.25,349.544 1227.59,352.71 1235.5,354.5C 1237.44,356.163 1239.77,356.829 1242.5,356.5C 1246.4,357.91 1250.4,358.91 1254.5,359.5C 1256.51,360.924 1258.85,361.59 1261.5,361.5C 1278.92,365.716 1296.58,368.383 1314.5,369.5C 1319.93,371.137 1325.59,372.137 1331.5,372.5C 1350.49,373.137 1369.49,373.47 1388.5,373.5C 1391.59,374.785 1394.92,375.451 1398.5,375.5C 1403.14,377.483 1407.8,379.483 1412.5,381.5C 1414.62,383.655 1417.28,384.655 1420.5,384.5C 1432.05,390.107 1443.71,395.441 1455.5,400.5C 1455.97,401.906 1456.97,402.573 1458.5,402.5C 1465.85,406.201 1473.19,409.868 1480.5,413.5C 1480.97,414.906 1481.97,415.573 1483.5,415.5C 1492.46,420.327 1501.79,424.494 1511.5,428C 1517.22,432.721 1523.22,437.054 1529.5,441C 1530.91,442.993 1531.91,445.16 1532.5,447.5C 1532.26,449.898 1532.93,451.898 1534.5,453.5C 1535.99,456.756 1537.49,460.09 1539,463.5C 1536.09,475.873 1531.76,487.873 1526,499.5C 1523.25,509.347 1520.09,519.014 1516.5,528.5C 1513.85,528.41 1511.51,529.076 1509.5,530.5C 1506.48,530.704 1503.48,531.037 1500.5,531.5C 1495.84,532.057 1491.5,533.39 1487.5,535.5C 1485.17,536.167 1482.83,536.833 1480.5,537.5C 1478.03,537.755 1476.03,538.755 1474.5,540.5C 1469.9,541.573 1465.57,543.406 1461.5,546C 1450.02,546.453 1439.68,550.12 1430.5,557C 1415.22,563.996 1399.88,570.996 1384.5,578C 1379.69,584.47 1375.03,590.97 1370.5,597.5C 1368.19,601.085 1366.86,605.085 1366.5,609.5C 1360.3,626.25 1353.8,642.917 1347,659.5C 1342.34,663.16 1338.01,667.16 1334,671.5C 1324.65,687.199 1316.65,703.532 1310,720.5C 1307.19,729.091 1304.69,737.758 1302.5,746.5C 1301.84,748.134 1301.51,749.967 1301.5,752C 1301.3,754.866 1301.97,757.366 1303.5,759.5C 1303.71,760.922 1304.21,762.255 1305,763.5C 1311.38,768.209 1316.71,773.875 1321,780.5C 1323.56,782.727 1326.4,784.561 1329.5,786C 1336.14,794.589 1343.64,802.422 1352,809.5C 1355.03,813.74 1357.19,818.406 1358.5,823.5C 1359.17,826.833 1359.83,830.167 1360.5,833.5C 1356.46,837.54 1352.79,841.873 1349.5,846.5C 1345.17,850.167 1341.17,854.167 1337.5,858.5C 1330.73,863.428 1324.06,868.594 1317.5,874C 1312.47,878.699 1307.8,883.699 1303.5,889C 1299.27,890.29 1294.94,890.79 1290.5,890.5C 1288.49,889.076 1286.15,888.41 1283.5,888.5C 1283.17,888.5 1282.83,888.5 1282.5,888.5C 1279.47,886.982 1276.13,886.149 1272.5,886C 1261.66,885.175 1250.99,885.341 1240.5,886.5C 1240.17,886.5 1239.83,886.5 1239.5,886.5C 1231.63,886.983 1223.96,887.983 1216.5,889.5C 1215.5,889.5 1214.5,889.5 1213.5,889.5C 1208.57,889.229 1203.9,889.896 1199.5,891.5C 1189.79,893.678 1180.12,896.012 1170.5,898.5C 1166.52,898.742 1162.85,899.742 1159.5,901.5C 1148.71,904.614 1137.71,906.614 1126.5,907.5C 1123.57,907.565 1120.91,908.232 1118.5,909.5C 1104.83,912.334 1091.16,915.334 1077.5,918.5C 1071.83,919.39 1066.5,921.057 1061.5,923.5C 1055.13,924.631 1049.13,926.631 1043.5,929.5C 1041.14,929.674 1038.81,930.007 1036.5,930.5C 1021.01,919.856 1005.34,909.356 989.5,899C 979.167,890 968.833,881 958.5,872C 942.168,862.836 926.168,853.169 910.5,843C 881.448,820.948 852.115,799.281 822.5,778C 820.478,775.978 818.478,773.978 816.5,772C 820.574,762.784 825.241,753.951 830.5,745.5C 831.906,745.027 832.573,744.027 832.5,742.5C 835.168,736.162 837.835,729.828 840.5,723.5C 842.277,720.495 843.277,717.162 843.5,713.5C 844.924,711.485 845.59,709.152 845.5,706.5C 847.382,696.543 849.048,686.543 850.5,676.5C 852.029,671.084 852.695,665.417 852.5,659.5C 852.67,650.888 851.67,642.554 849.5,634.5C 849.337,611.794 850.171,589.127 852,566.5C 856.374,558.917 860.874,551.417 865.5,544C 870.871,541.407 876.538,540.241 882.5,540.5C 890.803,540.227 898.803,538.894 906.5,536.5C 913.23,535.484 919.896,534.151 926.5,532.5C 929.495,532.706 932.162,532.04 934.5,530.5C 947.862,526.655 960.528,521.155 972.5,514C 1019.37,474.133 1062.53,430.633 1102,383.5C 1104.98,376.896 1108.14,370.396 1111.5,364C 1117.66,359.173 1124.33,355.173 1131.5,352C 1146.56,350.653 1161.56,348.819 1176.5,346.5C 1182.05,346.473 1187.38,345.806 1192.5,344.5 Z"/></g>
<g><path style="opacity:1" fill="#87644d" d="M 1235.5,354.5 C 1238.07,354.721 1240.4,355.388 1242.5,356.5C 1239.77,356.829 1237.44,356.163 1235.5,354.5 Z"/></g>
<g><path style="opacity:1" fill="#6d503f" d="M 1254.5,359.5 C 1257.15,359.41 1259.49,360.076 1261.5,361.5C 1258.85,361.59 1256.51,360.924 1254.5,359.5 Z"/></g>
<g><path style="opacity:1" fill="#6b4e3e" d="M 1314.5,369.5 C 1320.54,369.126 1326.2,370.126 1331.5,372.5C 1325.59,372.137 1319.93,371.137 1314.5,369.5 Z"/></g>
<g><path style="opacity:1" fill="#664a3c" d="M 1388.5,373.5 C 1391.52,373.335 1394.52,373.502 1397.5,374C 1398.06,374.383 1398.39,374.883 1398.5,375.5C 1394.92,375.451 1391.59,374.785 1388.5,373.5 Z"/></g>
<g><path style="opacity:1" fill="#86634d" d="M 1412.5,381.5 C 1415.4,382.129 1418.06,383.129 1420.5,384.5C 1417.28,384.655 1414.62,383.655 1412.5,381.5 Z"/></g>
<g><path style="opacity:1" fill="#b99f7f" d="M 1185.5,383.5 C 1190.25,385.029 1194.92,386.863 1199.5,389C 1216.9,394.019 1234.57,398.019 1252.5,401C 1270.31,402.268 1287.98,404.601 1305.5,408C 1325.53,408.088 1345.53,408.755 1365.5,410C 1374.54,415.351 1384.21,419.351 1394.5,422C 1422.07,435.954 1449.74,449.621 1477.5,463C 1481.68,465.926 1485.68,469.093 1489.5,472.5C 1487.38,477.643 1485.88,482.977 1485,488.5C 1484.21,490.587 1483.04,492.421 1481.5,494C 1462.11,496.765 1443.78,502.765 1426.5,512C 1421.1,512.227 1415.77,512.894 1410.5,514C 1390.83,525.333 1370.5,535.333 1349.5,544C 1340.71,552.416 1335.21,562.583 1333,574.5C 1326.45,591.695 1319.45,608.695 1312,625.5C 1308.33,628.5 1304.67,631.5 1301,634.5C 1287.33,657.216 1276.66,681.216 1269,706.5C 1267.89,721.633 1267.39,736.8 1267.5,752C 1267.38,766.544 1267.88,781.044 1269,795.5C 1269.67,796.833 1270.33,798.167 1271,799.5C 1276.69,803.687 1281.52,808.687 1285.5,814.5C 1290.72,817.616 1295.39,821.45 1299.5,826C 1289.79,833.864 1280.46,842.198 1271.5,851C 1219.38,847.923 1168.38,853.923 1118.5,869C 1101.95,871.368 1085.62,874.702 1069.5,879C 1062.84,880.12 1056.17,880.786 1049.5,881C 1038.33,873.58 1027.33,865.913 1016.5,858C 1008.46,850.295 1000.13,842.961 991.5,836C 975.168,826.836 959.168,817.169 943.5,807C 920.732,790.532 898.232,773.698 876,756.5C 878.831,740.83 882.164,725.163 886,709.5C 886.333,673.5 886.667,637.5 887,601.5C 890.681,594.802 894.348,588.135 898,581.5C 899.543,579.622 901.376,578.122 903.5,577C 925.565,573.326 947.565,569.326 969.5,565C 983.359,561.236 996.359,555.569 1008.5,548C 1024.87,532.63 1041.53,517.63 1058.5,503C 1079.39,481.447 1100.22,459.947 1121,438.5C 1123.92,433.58 1127.58,429.247 1132,425.5C 1137.25,416.833 1142.08,408 1146.5,399C 1152.66,393.414 1159.66,389.081 1167.5,386C 1173.75,385.9 1179.75,385.067 1185.5,383.5 Z"/></g>
<g><path style="opacity:1" fill="#775745" d="M 1455.5,400.5 C 1457.03,400.427 1458.03,401.094 1458.5,402.5C 1456.97,402.573 1455.97,401.906 1455.5,400.5 Z"/></g>
<g><path style="opacity:1" fill="#735443" d="M 1480.5,413.5 C 1482.03,413.427 1483.03,414.094 1483.5,415.5C 1481.97,415.573 1480.97,414.906 1480.5,413.5 Z"/></g>
<g><path style="opacity:1" fill="#86634d" d="M 1532.5,447.5 C 1534.07,449.102 1534.74,451.102 1534.5,453.5C 1532.93,451.898 1532.26,449.898 1532.5,447.5 Z"/></g>
<g><path style="opacity:1" fill="#6c4f3e" d="M 1516.5,528.5 C 1514.49,529.924 1512.15,530.59 1509.5,530.5C 1511.51,529.076 1513.85,528.41 1516.5,528.5 Z"/></g>
<g><path style="opacity:1" fill="#795946" d="M 934.5,530.5 C 932.162,532.04 929.495,532.706 926.5,532.5C 928.905,531.232 931.572,530.565 934.5,530.5 Z"/></g>
<g><path style="opacity:1" fill="#614639" d="M 1500.5,531.5 C 1496.5,533.61 1492.16,534.943 1487.5,535.5C 1491.5,533.39 1495.84,532.057 1500.5,531.5 Z"/></g>
<g><path style="opacity:1" fill="#8f6a52" d="M 906.5,536.5 C 898.803,538.894 890.803,540.227 882.5,540.5C 890.268,538.539 898.268,537.205 906.5,536.5 Z"/></g>
<g><path style="opacity:1" fill="#674b3c" d="M 1480.5,537.5 C 1478.97,539.245 1476.97,540.245 1474.5,540.5C 1476.03,538.755 1478.03,537.755 1480.5,537.5 Z"/></g>
<g><path style="opacity:1" fill="#684c3d" d="M 1370.5,597.5 C 1369.74,601.767 1368.41,605.767 1366.5,609.5C 1366.86,605.085 1368.19,601.085 1370.5,597.5 Z"/></g>
<g><path style="opacity:1" fill="#6a4d3e" d="M 849.5,634.5 C 851.67,642.554 852.67,650.888 852.5,659.5C 852.695,665.417 852.029,671.084 850.5,676.5C 851.879,662.46 851.546,648.46 849.5,634.5 Z"/></g>
<g><path style="opacity:1" fill="#86634c" d="M 845.5,706.5 C 845.59,709.152 844.924,711.485 843.5,713.5C 843.41,710.848 844.076,708.515 845.5,706.5 Z"/></g>
<g><path style="opacity:1" fill="#7c5b47" d="M 843.5,713.5 C 843.277,717.162 842.277,720.495 840.5,723.5C 840.723,719.838 841.723,716.505 843.5,713.5 Z"/></g>
<g><path style="opacity:1" fill="#745543" d="M 832.5,742.5 C 832.573,744.027 831.906,745.027 830.5,745.5C 830.427,743.973 831.094,742.973 832.5,742.5 Z"/></g>
<g><path style="opacity:1" fill="#684b3c" d="M 1302.5,746.5 C 1302.37,750.881 1302.71,755.215 1303.5,759.5C 1301.97,757.366 1301.3,754.866 1301.5,752C 1301.51,749.967 1301.84,748.134 1302.5,746.5 Z"/></g>
<g><path style="opacity:1" fill="#89654e" d="M 1358.5,823.5 C 1361.33,826.489 1362,829.822 1360.5,833.5C 1359.83,830.167 1359.17,826.833 1358.5,823.5 Z"/></g>
<g><path style="opacity:1" fill="#5d4337" d="M 1349.5,846.5 C 1346.5,851.5 1342.5,855.5 1337.5,858.5C 1341.17,854.167 1345.17,850.167 1349.5,846.5 Z"/></g>
<g><path style="opacity:1" fill="#785846" d="M 1240.5,886.5 C 1250.99,885.341 1261.66,885.175 1272.5,886C 1276.13,886.149 1279.47,886.982 1282.5,888.5C 1268.57,886.739 1254.57,886.072 1240.5,886.5 Z"/></g>
<g><path style="opacity:1" fill="#65493b" d="M 1239.5,886.5 C 1232.1,888.508 1224.43,889.508 1216.5,889.5C 1223.96,887.983 1231.63,886.983 1239.5,886.5 Z"/></g>
<g><path style="opacity:1" fill="#765644" d="M 1283.5,888.5 C 1286.15,888.41 1288.49,889.076 1290.5,890.5C 1287.85,890.59 1285.51,889.924 1283.5,888.5 Z"/></g>
<g><path style="opacity:1" fill="#674b3c" d="M 1213.5,889.5 C 1209.08,890.972 1204.41,891.638 1199.5,891.5C 1203.9,889.896 1208.57,889.229 1213.5,889.5 Z"/></g>
<g><path style="opacity:1" fill="#684c3d" d="M 1170.5,898.5 C 1169.85,899.725 1168.68,900.392 1167,900.5C 1164.5,900.917 1162,901.251 1159.5,901.5C 1162.85,899.742 1166.52,898.742 1170.5,898.5 Z"/></g>
<g><path style="opacity:1" fill="#85624c" d="M 1126.5,907.5 C 1124.16,909.04 1121.5,909.706 1118.5,909.5C 1120.91,908.232 1123.57,907.565 1126.5,907.5 Z"/></g>
<g><path style="opacity:1" fill="#65493b" d="M 1077.5,918.5 C 1072.5,920.943 1067.17,922.61 1061.5,923.5C 1066.5,921.057 1071.83,919.39 1077.5,918.5 Z"/></g>
<g><path style="opacity:1" fill="#684c3d" d="M 1043.5,929.5 C 1041.29,931.312 1038.95,931.645 1036.5,930.5C 1038.81,930.007 1041.14,929.674 1043.5,929.5 Z"/></g>
</svg>
