<?xml version="1.0" encoding="UTF-8"?>
<!DOCTYPE svg PUBLIC "-//W3C//DTD SVG 1.1//EN" "http://www.w3.org/Graphics/SVG/1.1/DTD/svg11.dtd">
<svg xmlns="http://www.w3.org/2000/svg" version="1.1" width="2296px" height="1221px" style="shape-rendering:geometricPrecision; text-rendering:geometricPrecision; image-rendering:optimizeQuality; fill-rule:evenodd; clip-rule:evenodd" xmlns:xlink="http://www.w3.org/1999/xlink">
<g><path style="opacity:0.986" fill="#48332c" d="M 953.5,101.5 C 964.172,101.333 974.839,101.5 985.5,102C 993.158,103.996 1000.16,107.33 1006.5,112C 1029.41,131.88 1054.75,148.214 1082.5,161C 1100.93,169.882 1119.6,178.216 1138.5,186C 1209.13,208.667 1271.8,195.333 1326.5,146C 1339.19,138.992 1351.19,130.992 1362.5,122C 1367.58,118.519 1373.08,117.352 1379,118.5C 1391.32,114.474 1403.48,114.974 1415.5,120C 1434.5,127 1453.5,134 1472.5,141C 1482.95,146.115 1492.28,152.781 1500.5,161C 1511.55,164.048 1518.55,171.048 1521.5,182C 1526.68,185.511 1529.84,190.345 1531,196.5C 1538.03,203.197 1544.7,210.197 1551,217.5C 1556.47,223.387 1559.3,230.387 1559.5,238.5C 1556.86,249.716 1554.86,261.049 1553.5,272.5C 1554.32,283.205 1555.32,293.872 1556.5,304.5C 1555.96,312.998 1553.8,321.331 1550,329.5C 1540.42,344.332 1531.08,359.332 1522,374.5C 1517.87,383.454 1514.87,392.787 1513,402.5C 1511.79,420.317 1509.45,437.984 1506,455.5C 1504.31,474.475 1502.97,493.475 1502,512.5C 1499.82,524.384 1496.82,536.051 1493,547.5C 1486,562.833 1479,578.167 1472,593.5C 1464.83,603.83 1458.17,614.497 1452,625.5C 1447.53,630.968 1442.7,636.135 1437.5,641C 1434.62,642.302 1431.62,643.135 1428.5,643.5C 1428.51,645.308 1428.01,646.975 1427,648.5C 1421.97,656.033 1417.14,663.7 1412.5,671.5C 1418.65,678.815 1424.98,685.982 1431.5,693C 1442.38,699.549 1450.88,708.383 1457,719.5C 1465.46,726.755 1471.13,735.755 1474,746.5C 1477.27,780.19 1480.77,813.856 1484.5,847.5C 1483.87,857.301 1482.37,866.968 1480,876.5C 1476.47,886.103 1473.13,895.769 1470,905.5C 1450.49,940.179 1432.83,975.845 1417,1012.5C 1419.85,1031.73 1423.35,1050.9 1427.5,1070C 1426.36,1083.14 1419.19,1090.31 1406,1091.5C 1398.94,1090.56 1393.11,1087.39 1388.5,1082C 1380.39,1081.82 1372.39,1082.82 1364.5,1085C 1350.45,1085.84 1336.45,1087.17 1322.5,1089C 1312.77,1091.36 1304.44,1096.02 1297.5,1103C 1294.46,1105.03 1291.29,1105.53 1288,1104.5C 1263.81,1116.01 1239.97,1128.18 1216.5,1141C 1210.86,1142.9 1205.19,1143.9 1199.5,1144C 1191.05,1147.6 1182.38,1150.6 1173.5,1153C 1168.41,1156.21 1163.08,1158.88 1157.5,1161C 1145.2,1162.77 1136.7,1157.94 1132,1146.5C 1127.63,1112.3 1124.97,1077.96 1124,1043.5C 1118.58,1018.49 1111.91,993.822 1104,969.5C 1101.92,965.421 1099.09,961.921 1095.5,959C 1085.88,952.385 1076.55,945.385 1067.5,938C 1028.86,913.457 988.192,909.457 945.5,926C 939.573,928.935 933.906,932.268 928.5,936C 909.256,953.529 886.59,962.862 860.5,964C 853.605,961.769 847.771,957.936 843,952.5C 836.752,943.672 830.752,934.672 825,925.5C 814.28,903.336 803.946,881.003 794,858.5C 789.273,852.103 784.94,845.436 781,838.5C 778.715,833.028 778.048,827.362 779,821.5C 783.088,815.254 786.421,808.588 789,801.5C 799.833,793.333 810.667,785.167 821.5,777C 832.7,764.132 844.867,752.299 858,741.5C 859.667,738.833 861.333,736.167 863,733.5C 864.313,729.792 865.147,725.959 865.5,722C 863.133,714.564 860.966,707.064 859,699.5C 858.232,693.627 858.399,687.794 859.5,682C 853.64,671.784 848.14,661.284 843,650.5C 841.045,649.547 839.378,648.213 838,646.5C 830.835,634.345 822.335,623.178 812.5,613C 807.739,610.413 802.739,608.413 797.5,607C 786.768,604.587 776.101,601.92 765.5,599C 750.245,596.489 734.912,594.823 719.5,594C 709.937,589.039 706.103,581.206 708,570.5C 709.413,567.339 711.08,564.339 713,561.5C 727.111,549.536 734.111,534.202 734,515.5C 734.104,505.441 734.771,495.441 736,485.5C 739.265,478.606 744.765,474.773 752.5,474C 754.14,468.36 757.807,464.693 763.5,463C 752.763,459.909 743.93,454.076 737,445.5C 736.028,441.903 735.528,438.236 735.5,434.5C 736.245,425.448 737.412,416.448 739,407.5C 743.848,374.222 736.181,344.222 716,317.5C 713.629,314.794 710.963,312.461 708,310.5C 701.813,302.919 701.147,294.919 706,286.5C 712.333,280.167 718.667,273.833 725,267.5C 734.112,252.711 745.112,239.377 758,227.5C 760.614,212.324 765.614,197.991 773,184.5C 781.02,173.484 791.187,164.984 803.5,159C 839.707,142.563 876.374,127.23 913.5,113C 927.104,109.626 940.438,105.793 953.5,101.5 Z"/></g>
<g><path style="opacity:1" fill="#a97e5f" d="M 988.5,143.5 C 1000.71,153.198 1013.38,162.364 1026.5,171C 1059.9,190.032 1094.56,206.365 1130.5,220C 1200.5,241.858 1265.83,232.524 1326.5,192C 1337.29,182.44 1348.95,174.106 1361.5,167C 1367.42,162.128 1373.58,157.628 1380,153.5C 1387.73,153.869 1395.23,155.369 1402.5,158C 1421.81,174.337 1443.15,187.67 1466.5,198C 1475.83,204.336 1485.5,210.169 1495.5,215.5C 1496.71,252.041 1502.38,287.875 1512.5,323C 1507.05,333.395 1501.22,343.562 1495,353.5C 1489.69,363.088 1485.36,373.088 1482,383.5C 1480.18,404.657 1478.35,425.823 1476.5,447C 1476.77,452.17 1477.11,457.337 1477.5,462.5C 1476.8,476.825 1476.3,491.158 1476,505.5C 1472.47,521.101 1467.13,536.101 1460,550.5C 1446.67,568.481 1434.34,587.147 1423,606.5C 1418.28,613.888 1411.78,619.055 1403.5,622C 1395.73,627.698 1387.73,633.031 1379.5,638C 1367.69,647.689 1367.53,657.523 1379,667.5C 1388.02,684.523 1399.35,699.856 1413,713.5C 1422.25,726.326 1431.25,739.326 1440,752.5C 1442.84,783.204 1446,813.871 1449.5,844.5C 1449.27,851.242 1448.44,857.909 1447,864.5C 1444.53,872.906 1441.86,881.239 1439,889.5C 1429.57,907.12 1420.9,925.12 1413,943.5C 1401.67,960.167 1393,978.167 1387,997.5C 1386.27,1003.69 1386.44,1009.86 1387.5,1016C 1385.39,1023.7 1384.39,1031.53 1384.5,1039.5C 1363.87,1041.72 1343.2,1043.72 1322.5,1045.5C 1321.5,1045.17 1320.5,1044.83 1319.5,1044.5C 1316.84,1039.03 1314.68,1033.36 1313,1027.5C 1307.97,1021.29 1302.64,1020.95 1297,1026.5C 1296.35,1030.36 1296.52,1034.2 1297.5,1038C 1295.32,1042.9 1293.99,1048.07 1293.5,1053.5C 1283.39,1058.64 1273.22,1063.64 1263,1068.5C 1261.35,1058.52 1255.51,1054.35 1245.5,1056C 1242.77,1058.47 1241.1,1061.47 1240.5,1065C 1241.33,1069.82 1242,1074.65 1242.5,1079.5C 1225.02,1086.24 1208.69,1095.07 1193.5,1106C 1186.02,1108.24 1178.52,1110.41 1171,1112.5C 1170.5,1112.17 1170,1111.83 1169.5,1111.5C 1167.14,1093.94 1165.98,1076.27 1166,1058.5C 1163.94,1034.65 1157.6,1011.98 1147,990.5C 1140.72,975.276 1133.39,960.609 1125,946.5C 1114.99,933.346 1104.16,920.846 1092.5,909C 1086.66,904.576 1080.32,900.909 1073.5,898C 1059.03,892.401 1044.37,887.401 1029.5,883C 1013.72,878.956 997.722,877.622 981.5,879C 956.593,882.08 933.26,889.747 911.5,902C 895.026,906.276 878.359,907.61 861.5,906C 858.573,903.618 855.739,901.118 853,898.5C 849.394,891.621 846.061,884.621 843,877.5C 836.394,859.91 829.561,842.41 822.5,825C 834.8,812.74 847.3,800.573 860,788.5C 877.061,772.392 889.061,753.058 896,730.5C 897.484,724.235 897.818,717.902 897,711.5C 893.147,699.926 888.147,688.926 882,678.5C 880.617,673.92 879.617,669.253 879,664.5C 874.382,652.933 870.049,641.266 866,629.5C 854.691,606.378 839.191,586.545 819.5,570C 812.6,567.049 805.6,564.383 798.5,562C 785.588,560.029 772.921,557.029 760.5,553C 772.779,535.507 779.946,516.007 782,494.5C 784.071,493.475 786.238,492.642 788.5,492C 802.048,492.413 814.714,489.413 826.5,483C 835.387,474.768 834.053,468.768 822.5,465C 819.833,462.333 817.167,459.667 814.5,457C 805.583,451.625 796.749,446.125 788,440.5C 790.317,423.28 791.817,405.947 792.5,388.5C 791.741,367.384 786.574,347.384 777,328.5C 771.654,318.463 765.821,308.797 759.5,299.5C 767.983,283.87 776.483,268.204 785,252.5C 789.344,243.968 792.177,234.968 793.5,225.5C 818.542,213.478 843.209,200.645 867.5,187C 903.381,169.818 940.714,156.818 979.5,148C 982.823,146.96 985.823,145.46 988.5,143.5 Z"/></g>
<g><path style="opacity:1" fill="#b99f7f" d="M 972.5,192.5 C 1013.49,218.159 1056.82,239.326 1102.5,256C 1119.92,260.219 1137.59,262.886 1155.5,264C 1186.17,264.667 1216.83,264.667 1247.5,264C 1291.53,262.102 1331.2,248.102 1366.5,222C 1373.02,216.642 1379.69,211.475 1386.5,206.5C 1401.35,215.761 1416.68,224.261 1432.5,232C 1442.25,238.292 1452.08,244.458 1462,250.5C 1463.9,269.313 1465.74,288.146 1467.5,307C 1461.65,317.859 1456.15,329.025 1451,340.5C 1449.13,346.034 1447.8,351.701 1447,357.5C 1444.21,396.437 1442.54,435.437 1442,474.5C 1437.04,497.421 1427.04,517.755 1412,535.5C 1402.03,551.941 1391.2,567.774 1379.5,583C 1368.89,588.633 1358.55,594.633 1348.5,601C 1343.95,603.883 1340.45,607.716 1338,612.5C 1337.33,639.5 1337.33,666.5 1338,693.5C 1346.16,704.488 1353.83,715.821 1361,727.5C 1378.03,746.579 1393.37,766.912 1407,788.5C 1407.48,804.44 1408.98,820.273 1411.5,836C 1409.24,841.688 1407.41,847.522 1406,853.5C 1399.25,864.996 1393.59,876.996 1389,889.5C 1381.84,903.821 1374.17,917.821 1366,931.5C 1362.67,938.833 1359.33,946.167 1356,953.5C 1354.27,958.35 1353.27,963.35 1353,968.5C 1352.94,980.355 1351.94,992.021 1350,1003.5C 1349.05,998.098 1346.88,993.265 1343.5,989C 1317.5,988.333 1291.5,988.333 1265.5,989C 1264.3,989.903 1263.47,991.069 1263,992.5C 1262.6,1000.52 1261.93,1008.52 1261,1016.5C 1260.22,1018.29 1259.05,1019.79 1257.5,1021C 1242.17,1021.33 1226.83,1021.67 1211.5,1022C 1209.74,1023.01 1208.57,1024.51 1208,1026.5C 1207.67,1032.5 1207.33,1038.5 1207,1044.5C 1205.08,1046.21 1202.92,1047.54 1200.5,1048.5C 1201.04,1024.53 1197.54,1001.2 1190,978.5C 1180.8,956.443 1170.8,934.777 1160,913.5C 1152,903.5 1144,893.5 1136,883.5C 1130.79,878.622 1125.29,874.122 1119.5,870C 1103.58,863.359 1087.58,857.025 1071.5,851C 1060.49,849.094 1049.49,847.094 1038.5,845C 1008.83,844.333 979.167,844.333 949.5,845C 936.883,847.881 924.217,850.547 911.5,853C 903.187,855.771 895.021,858.938 887,862.5C 882.529,855.727 878.695,848.56 875.5,841C 889.436,828.069 902.269,814.236 914,799.5C 920.116,788.462 925.449,777.129 930,765.5C 931.617,736.535 931.95,707.535 931,678.5C 926.826,665.977 921.493,653.977 915,642.5C 907.001,601.996 888.168,567.496 858.5,539C 846.484,532.883 833.817,528.55 820.5,526C 830.589,525.265 840.589,523.932 850.5,522C 856.144,519.937 860.977,516.771 865,512.5C 865.667,486.833 865.667,461.167 865,435.5C 862.489,433.437 859.656,431.937 856.5,431C 855.072,428.815 853.405,426.815 851.5,425C 843.249,419.958 835.082,414.792 827,409.5C 826.906,385.141 826.239,360.807 825,336.5C 822.734,323.203 818.568,310.536 812.5,298.5C 819.599,286.981 824.433,274.648 827,261.5C 854.07,246.045 881.57,231.212 909.5,217C 930.031,207.329 951.031,199.162 972.5,192.5 Z"/></g>
</svg>
