<?xml version="1.0" encoding="UTF-8"?>
<!DOCTYPE svg PUBLIC "-//W3C//DTD SVG 1.1//EN" "http://www.w3.org/Graphics/SVG/1.1/DTD/svg11.dtd">
<svg xmlns="http://www.w3.org/2000/svg" version="1.1" width="2296px" height="1221px" style="shape-rendering:geometricPrecision; text-rendering:geometricPrecision; image-rendering:optimizeQuality; fill-rule:evenodd; clip-rule:evenodd" xmlns:xlink="http://www.w3.org/1999/xlink">
<g><path style="opacity:0.986" fill="#48332c" d="M 323.5,318.5 C 332.667,320.747 341.667,323.581 350.5,327C 366.927,335.214 383.594,342.881 400.5,350C 403.106,351.938 404.939,354.438 406,357.5C 408.701,370.57 413.367,382.903 420,394.5C 423.787,399.956 427.954,405.123 432.5,410C 441.167,413.667 449.833,417.333 458.5,421C 477.322,424.288 495.655,429.288 513.5,436C 524.104,444.087 529.604,454.92 530,468.5C 530.516,471.034 531.683,473.2 533.5,475C 543.341,481.42 553.007,488.087 562.5,495C 568.726,498.78 575.393,501.447 582.5,503C 587.328,503.629 591.995,502.962 596.5,501C 616.814,491.177 636.814,480.844 656.5,470C 661.239,469.274 665.905,469.607 670.5,471C 675.613,472.723 680.613,474.723 685.5,477C 698.5,480 711.5,483 724.5,486C 730.949,488.391 737.282,491.058 743.5,494C 752.082,495.787 760.748,496.954 769.5,497.5C 795.373,494.59 821.039,490.423 846.5,485C 892.671,471.721 939.004,459.054 985.5,447C 1001.38,444.914 1016.71,446.914 1031.5,453C 1070.97,471.157 1111.3,487.157 1152.5,501C 1155.83,502.667 1159.17,504.333 1162.5,506C 1177.2,521.033 1193.86,533.366 1212.5,543C 1219.62,545.817 1226.95,547.817 1234.5,549C 1252.35,551.616 1270.19,553.116 1288,553.5C 1289.2,529.885 1292.2,506.551 1297,483.5C 1301.04,478.898 1305.87,475.398 1311.5,473C 1327.32,465.615 1343.66,459.615 1360.5,455C 1365.48,454.04 1370.15,454.873 1374.5,457.5C 1382.51,454.24 1389.84,455.407 1396.5,461C 1410.2,462.966 1423.87,462.632 1437.5,460C 1450.94,457.846 1464.27,455.179 1477.5,452C 1500.63,445.4 1523.63,438.4 1546.5,431C 1566.93,420.787 1587.59,411.12 1608.5,402C 1615.76,398.4 1622.76,394.4 1629.5,390C 1634.91,387.451 1640.58,386.451 1646.5,387C 1666.4,397.784 1686.74,407.784 1707.5,417C 1715.34,424.528 1716.5,433.028 1711,442.5C 1697.11,457.936 1685.44,474.936 1676,493.5C 1670.47,513.256 1664.64,532.923 1658.5,552.5C 1667.11,569.55 1677.11,585.717 1688.5,601C 1697.8,602.068 1706.3,605.235 1714,610.5C 1721.19,608.425 1728.52,607.092 1736,606.5C 1739.38,606.517 1742.55,607.35 1745.5,609C 1751.2,615.032 1757.2,620.699 1763.5,626C 1784.63,640.117 1803.63,656.784 1820.5,676C 1824.97,680.4 1829.97,684.066 1835.5,687C 1838.43,689.264 1840.6,692.098 1842,695.5C 1843.81,708.587 1847.81,720.92 1854,732.5C 1863.39,744.899 1873.89,756.399 1885.5,767C 1899.26,778.093 1912.43,789.926 1925,802.5C 1933.24,814.722 1931.07,824.889 1918.5,833C 1908.96,837.939 1899.29,842.606 1889.5,847C 1870.54,852.257 1851.54,857.257 1832.5,862C 1827.17,865.667 1821.83,869.333 1816.5,873C 1807.44,882.391 1798.11,891.391 1788.5,900C 1778.39,907.48 1767.06,911.147 1754.5,911C 1750.83,910.443 1747.49,909.11 1744.5,907C 1738.31,898.959 1731.64,891.293 1724.5,884C 1716.95,879.053 1709.95,873.386 1703.5,867C 1689.34,856.42 1673.67,848.754 1656.5,844C 1643.47,840.894 1630.47,837.727 1617.5,834.5C 1613.34,836.497 1609.01,837.997 1604.5,839C 1585.38,841.224 1566.38,844.224 1547.5,848C 1532.77,856.687 1517.1,863.02 1500.5,867C 1492.72,871.116 1486.55,876.95 1482,884.5C 1475.11,895.175 1471.44,906.841 1471,919.5C 1467.85,924.804 1465.52,930.471 1464,936.5C 1459.53,943.085 1453.36,945.252 1445.5,943C 1429.59,938.822 1413.42,936.322 1397,935.5C 1382.75,937.068 1368.59,939.235 1354.5,942C 1345.02,944.502 1337.19,942.002 1331,934.5C 1327.08,928.33 1323.41,921.997 1320,915.5C 1317.68,914.18 1315.68,912.514 1314,910.5C 1311.42,927.743 1301.42,936.41 1284,936.5C 1268.99,934.231 1254.16,931.065 1239.5,927C 1225.66,925.916 1211.83,924.75 1198,923.5C 1183.17,924.333 1168.33,925.167 1153.5,926C 1123.23,933.979 1093.23,942.979 1063.5,953C 1055.49,954.95 1047.49,954.95 1039.5,953C 1035.76,951.262 1032.59,948.762 1030,945.5C 1023.52,932.543 1016.52,919.877 1009,907.5C 1003.1,896.112 1003.1,884.779 1009,873.5C 1018.56,865.298 1029.06,858.464 1040.5,853C 1058.99,838.915 1078.65,826.582 1099.5,816C 1105.93,811.577 1111.76,806.41 1117,800.5C 1119.4,793.964 1121.4,787.297 1123,780.5C 1126.36,775.812 1129.7,771.145 1133,766.5C 1133.41,760.275 1134.24,754.108 1135.5,748C 1134.18,743.086 1133.52,738.086 1133.5,733C 1140.95,708.489 1134.95,688.156 1115.5,672C 1093.24,653.745 1071.57,634.745 1050.5,615C 1038.82,607.826 1026.82,601.159 1014.5,595C 1008.86,593.674 1003.2,592.507 997.5,591.5C 993.89,591.795 990.39,592.462 987,593.5C 983.918,591.845 980.751,591.345 977.5,592C 974.457,590.066 972.79,587.233 972.5,583.5C 969.995,585.253 967.329,586.753 964.5,588C 955.467,589.481 946.467,591.148 937.5,593C 931.482,593.642 925.482,593.475 919.5,592.5C 916.151,592.892 912.817,593.392 909.5,594C 896.77,598.132 884.103,602.466 871.5,607C 855.468,611.863 839.135,613.529 822.5,612C 809.103,616.948 796.27,623.115 784,630.5C 781.769,635.731 779.103,640.731 776,645.5C 754.923,665.242 735.256,686.242 717,708.5C 712.044,713.377 706.044,715.71 699,715.5C 693.627,715.16 688.294,714.493 683,713.5C 669.546,714.998 656.046,715.832 642.5,716C 622.724,719.222 602.891,722.055 583,724.5C 571.723,725.202 563.723,720.536 559,710.5C 557.871,700.537 557.204,690.537 557,680.5C 556.163,678.649 555.329,676.816 554.5,675C 533.988,666.744 513.988,657.41 494.5,647C 483.826,641.146 480.993,632.646 486,621.5C 486.926,615.846 487.259,610.18 487,604.5C 483.533,593.632 480.533,582.632 478,571.5C 468.826,543.678 451.659,522.511 426.5,508C 400.778,495.759 374.111,486.092 346.5,479C 344.391,477.859 342.558,476.359 341,474.5C 338.481,468.061 336.815,461.394 336,454.5C 333.112,448.723 330.779,442.723 329,436.5C 324.334,407.836 319.667,379.169 315,350.5C 313.764,342.864 313.43,335.197 314,327.5C 315.871,323.006 319.038,320.006 323.5,318.5 Z"/></g>
<g><path style="opacity:1" fill="#a97e5f" d="M 341.5,345.5 C 355.817,351.82 370.483,357.32 385.5,362C 386.931,362.465 388.097,363.299 389,364.5C 389.061,394.46 401.561,417.627 426.5,434C 442.354,441.506 459.021,446.173 476.5,448C 484.722,450.741 493.056,453.074 501.5,455C 503.487,456.319 504.654,458.152 505,460.5C 504.335,473.149 508.168,484.149 516.5,493.5C 534.427,509.574 554.76,521.74 577.5,530C 587.077,531.152 596.41,530.152 605.5,527C 626.406,516.714 647.073,506.214 667.5,495.5C 690.745,502.311 714.078,508.811 737.5,515C 752.416,517.363 767.416,518.03 782.5,517C 813.44,514.628 844.107,510.294 874.5,504C 911.892,494.536 949.225,484.869 986.5,475C 998.503,473.578 1010.17,474.911 1021.5,479C 1061.93,497.381 1102.93,514.381 1144.5,530C 1163.45,547.814 1184.79,562.148 1208.5,573C 1216.64,575.786 1224.98,577.786 1233.5,579C 1252.52,581.225 1271.52,583.558 1290.5,586C 1297.69,587.055 1304.69,586.388 1311.5,584C 1314.87,581.635 1317.04,578.468 1318,574.5C 1317.9,559.835 1317.4,545.168 1316.5,530.5C 1316.81,519.79 1317.65,509.123 1319,498.5C 1332.87,492.566 1346.87,486.899 1361,481.5C 1365.11,483.139 1369.28,484.639 1373.5,486C 1387.75,487.418 1401.75,490.085 1415.5,494C 1426.86,494.721 1438.2,494.388 1449.5,493C 1489.03,485.822 1527.03,473.822 1563.5,457C 1585.4,451.479 1607.06,445.145 1628.5,438C 1635.95,434.773 1643.29,431.273 1650.5,427.5C 1657.29,430.73 1663.96,434.23 1670.5,438C 1662.65,446.201 1656.15,455.367 1651,465.5C 1642.35,485.12 1634.68,505.12 1628,525.5C 1624.64,538.288 1623.64,551.288 1625,564.5C 1636.57,584.402 1650.07,602.902 1665.5,620C 1670.3,622.819 1674.97,625.819 1679.5,629C 1683.5,629 1687.5,629 1691.5,629C 1701.85,635.176 1712.52,640.843 1723.5,646C 1739.33,652.612 1755,659.612 1770.5,667C 1781.83,679.99 1791.99,693.824 1801,708.5C 1808.91,719.747 1817.58,730.413 1827,740.5C 1830.66,748.132 1834.33,755.798 1838,763.5C 1849.68,778.018 1862.85,791.018 1877.5,802.5C 1856.21,809.095 1834.88,815.595 1813.5,822C 1801.3,827.597 1790.3,834.93 1780.5,844C 1775.58,846.707 1770.75,849.541 1766,852.5C 1753.23,845.201 1741.06,837.034 1729.5,828C 1719.74,822.746 1709.41,819.08 1698.5,817C 1672.58,812.35 1646.91,806.683 1621.5,800C 1583.4,798.025 1546.73,804.359 1511.5,819C 1487.21,830.142 1463.87,842.808 1441.5,857C 1431.06,866.421 1422.56,877.255 1416,889.5C 1415.83,893.871 1415.33,898.204 1414.5,902.5C 1409.71,900.104 1404.71,898.27 1399.5,897C 1390.42,896.085 1381.42,894.751 1372.5,893C 1362.17,892.5 1351.84,892.334 1341.5,892.5C 1340.57,882.491 1344.91,876.325 1354.5,874C 1361.22,868.629 1366.38,862.129 1370,854.5C 1371.05,847.688 1372.71,841.022 1375,834.5C 1377.52,825.193 1374.19,819.527 1365,817.5C 1358.42,818.591 1355.09,822.591 1355,829.5C 1348.97,832.528 1343.8,836.695 1339.5,842C 1333.03,844.475 1326.36,846.141 1319.5,847C 1304.17,854.333 1292.83,865.667 1285.5,881C 1278.83,881.667 1272.17,881.667 1265.5,881C 1259.36,879.906 1253.2,879.073 1247,878.5C 1221.34,882.616 1195.51,884.616 1169.5,884.5C 1156.05,881.598 1142.72,882.098 1129.5,886C 1112.51,891.663 1095.51,897.33 1078.5,903C 1072.06,905.387 1066.06,908.554 1060.5,912.5C 1057.38,903.934 1053.55,895.934 1049,888.5C 1067.26,872.904 1086.09,858.071 1105.5,844C 1110.85,837.982 1116.85,832.648 1123.5,828C 1127.67,823.833 1131.83,819.667 1136,815.5C 1139.53,809.277 1142.36,802.777 1144.5,796C 1148.16,795.453 1151.16,793.786 1153.5,791C 1161.5,790.667 1169.5,790.333 1177.5,790C 1187.49,785.918 1197.82,782.918 1208.5,781C 1214.78,773.653 1213.45,767.986 1204.5,764C 1194.2,765.193 1184.86,762.86 1176.5,757C 1171.6,754.233 1167.6,750.567 1164.5,746C 1170.11,729.358 1169.61,712.858 1163,696.5C 1156.91,685.657 1151.91,674.324 1148,662.5C 1143.29,654.785 1137.46,647.951 1130.5,642C 1116.83,631.667 1103.17,621.333 1089.5,611C 1084.33,604.5 1078.5,598.667 1072,593.5C 1072.72,587.981 1073.89,582.481 1075.5,577C 1073.98,570.739 1070.31,569.072 1064.5,572C 1060.94,575.222 1057.77,578.722 1055,582.5C 1036.52,573.174 1017.02,567.174 996.5,564.5C 998.421,551.864 994.421,541.697 984.5,534C 977.676,532.055 972.176,533.888 968,539.5C 963.434,549.469 957.268,558.303 949.5,566C 944.194,567.028 938.861,567.861 933.5,568.5C 925.218,566.952 916.885,566.452 908.5,567C 888.671,571.72 869.005,577.054 849.5,583C 824.494,579.895 801.494,585.229 780.5,599C 764.485,609.34 748.818,620.173 733.5,631.5C 731.35,629.851 729.35,628.018 727.5,626C 724.77,625.058 723.437,626.058 723.5,629C 724.796,631.734 725.296,634.567 725,637.5C 712.833,647 700.667,656.5 688.5,666C 678.923,664.69 669.257,664.357 659.5,665C 638.973,667.647 618.473,670.48 598,673.5C 592.222,673.24 586.888,671.574 582,668.5C 578.246,655.092 570.413,644.926 558.5,638C 542.734,631.55 529.234,622.05 518,609.5C 516.333,606.833 514.667,604.167 513,601.5C 513.679,572.494 505.012,546.828 487,524.5C 469.236,504.539 448.069,489.373 423.5,479C 408.762,465.284 391.762,455.284 372.5,449C 371,447.5 369.5,446 368,444.5C 363.932,422.15 357.598,400.484 349,379.5C 346.608,368.152 344.108,356.819 341.5,345.5 Z"/></g>
<g><path style="opacity:1" fill="#b99f7f" d="M 1592.5,492.5 C 1593.24,492.369 1593.91,492.536 1594.5,493C 1592.96,497.029 1591.79,501.196 1591,505.5C 1590.33,535.833 1590.33,566.167 1591,596.5C 1591.25,599.754 1592.25,602.754 1594,605.5C 1604.03,620.882 1615.03,635.549 1627,649.5C 1631.38,653.935 1636.21,657.768 1641.5,661C 1646.72,662.232 1652.05,662.899 1657.5,663C 1667.18,668.842 1677.18,674.176 1687.5,679C 1704.12,685.759 1720.45,693.093 1736.5,701C 1739.33,703.833 1742.17,706.667 1745,709.5C 1761.14,734.81 1778.64,759.143 1797.5,782.5C 1786.31,785.118 1775.65,789.118 1765.5,794.5C 1755.77,790.311 1745.77,786.811 1735.5,784C 1710.82,779.721 1686.49,774.055 1662.5,767C 1624.5,765.09 1586.5,765.09 1548.5,767C 1524.92,770.382 1501.92,776.048 1479.5,784C 1455.29,795.354 1431.79,807.854 1409,821.5C 1408.67,810.5 1408.33,799.5 1408,788.5C 1407.53,787.069 1406.7,785.903 1405.5,785C 1379.55,783.37 1353.55,783.037 1327.5,784C 1323.46,786.253 1321.62,789.753 1322,794.5C 1318.58,796.792 1315.08,798.959 1311.5,801C 1308.59,806.253 1304.25,809.586 1298.5,811C 1294.15,811.573 1289.82,812.24 1285.5,813C 1279.43,817.395 1273.1,821.395 1266.5,825C 1260.6,830.792 1255.94,837.459 1252.5,845C 1226.86,844.522 1201.36,846.022 1176,849.5C 1174.17,849.167 1172.33,848.833 1170.5,848.5C 1173.27,843.444 1175.44,838.11 1177,832.5C 1180.82,829.929 1184.65,827.429 1188.5,825C 1198.26,824.857 1207.93,823.857 1217.5,822C 1226.41,818.314 1235.58,815.48 1245,813.5C 1246.65,787.587 1246.98,761.587 1246,735.5C 1244.89,733.185 1243.06,731.685 1240.5,731C 1234.83,730.667 1229.17,730.333 1223.5,730C 1215.8,726.291 1208.63,721.791 1202,716.5C 1201.67,703.833 1201.33,691.167 1201,678.5C 1199.89,674.196 1198.89,669.863 1198,665.5C 1190.8,651.092 1184.13,636.425 1178,621.5C 1156.9,601.732 1134.07,584.232 1109.5,569C 1102.98,563.568 1096.64,557.901 1090.5,552C 1082.81,547.156 1075.48,541.823 1068.5,536C 1041.09,526.865 1013.43,518.532 985.5,511C 973.741,510.742 962.075,511.742 950.5,514C 939.613,517.138 928.613,519.805 917.5,522C 885.531,532.826 852.864,540.826 819.5,546C 798.58,552.563 777.247,557.23 755.5,560C 738.654,569.92 722.321,580.587 706.5,592C 701.167,592.333 695.833,592.667 690.5,593C 689.703,596.745 689.203,600.579 689,604.5C 677.742,613.213 666.576,622.046 655.5,631C 642.815,631.224 630.148,631.724 617.5,632.5C 616.5,632.167 615.5,631.833 614.5,631.5C 612.242,622.481 607.576,614.981 600.5,609C 587.501,601.836 574.834,594.169 562.5,586C 557.966,581.801 553.799,577.301 550,572.5C 548.007,570.182 546.841,567.516 546.5,564.5C 571.502,564.667 596.502,564.5 621.5,564C 626.815,563.187 632.148,562.521 637.5,562C 651,554.885 664.667,548.052 678.5,541.5C 689.447,545.871 700.78,548.704 712.5,550C 728.167,550.667 743.833,550.667 759.5,550C 799.172,538.415 839.172,528.082 879.5,519C 902.383,510.779 925.717,504.112 949.5,499C 960.169,497.881 970.835,496.714 981.5,495.5C 1008.22,501.597 1034.55,509.097 1060.5,518C 1064.92,519.806 1069.25,521.806 1073.5,524C 1088.23,534.374 1102.23,545.708 1115.5,558C 1138.19,571.356 1159.19,587.023 1178.5,605C 1180.9,607.062 1183.57,608.729 1186.5,610C 1238.41,619.182 1290.74,622.182 1343.5,619C 1346.94,617.895 1349.44,615.728 1351,612.5C 1351.33,586.833 1351.67,561.167 1352,535.5C 1352.78,533.714 1353.95,532.214 1355.5,531C 1360.33,528.668 1365.33,526.835 1370.5,525.5C 1375.76,526.806 1381.09,527.64 1386.5,528C 1417.85,528.873 1449.18,528.54 1480.5,527C 1519.55,520.592 1556.88,509.092 1592.5,492.5 Z"/></g>
</svg>
