<?xml version="1.0" encoding="UTF-8"?>
<!DOCTYPE svg PUBLIC "-//W3C//DTD SVG 1.1//EN" "http://www.w3.org/Graphics/SVG/1.1/DTD/svg11.dtd">
<svg xmlns="http://www.w3.org/2000/svg" version="1.1" width="2296px" height="1221px" style="shape-rendering:geometricPrecision; text-rendering:geometricPrecision; image-rendering:optimizeQuality; fill-rule:evenodd; clip-rule:evenodd" xmlns:xlink="http://www.w3.org/1999/xlink">
<g><path style="opacity:0.984" fill="#48332c" d="M 1142.5,991.5 C 1141.09,991.973 1140.43,992.973 1140.5,994.5C 1140.5,995.167 1140.17,995.5 1139.5,995.5C 1130.01,1003.93 1122.34,1013.26 1116.5,1023.5C 1112.34,1027.83 1108.34,1032.33 1104.5,1037C 1103.5,1037.33 1102.5,1037.67 1101.5,1038C 1086.24,1036.25 1070.91,1035.09 1055.5,1034.5C 1036.78,1034.8 1018.11,1035.97 999.5,1038C 988.52,1039.41 977.853,1042.08 967.5,1046C 954.258,1050.75 941.258,1056.08 928.5,1062C 919.975,1062.99 913.475,1059.82 909,1052.5C 902.566,1026.82 903.399,1001.32 911.5,976C 909.316,963.133 903.816,951.966 895,942.5C 887.386,933.764 879.219,925.597 870.5,918C 857.761,908.418 843.428,902.751 827.5,901C 810.345,899.307 793.345,896.641 776.5,893C 770.224,891.194 764.89,887.861 760.5,883C 751.952,879.768 748.452,873.602 750,864.5C 753.453,859.257 756.12,853.591 758,847.5C 762.808,830.468 765.142,813.134 765,795.5C 762.347,785.236 760.347,774.903 759,764.5C 760.031,761.461 761.865,758.961 764.5,757C 772.415,756.213 780.081,754.38 787.5,751.5C 784.958,748.789 782.291,746.289 779.5,744C 775.104,743.254 770.77,742.254 766.5,741C 763.595,738.579 760.595,736.412 757.5,734.5C 746.012,732.697 734.512,731.363 723,730.5C 715.133,733.296 707.299,733.13 699.5,730C 695.735,727.369 691.902,724.869 688,722.5C 683.405,725.42 678.572,727.92 673.5,730C 669.5,730.667 665.5,730.667 661.5,730C 657.137,728.101 652.637,726.601 648,725.5C 646.856,725.911 645.689,726.244 644.5,726.5C 630.838,720.67 617.172,714.836 603.5,709C 596.33,706.374 588.997,704.374 581.5,703C 570.577,697.821 566.243,689.154 568.5,677C 568.412,662.857 571.245,649.357 577,636.5C 588.66,625.419 600.826,614.919 613.5,605C 621.481,600.509 629.815,596.842 638.5,594C 646.465,592.824 653.798,594.491 660.5,599C 664.514,599.769 668.514,600.603 672.5,601.5C 679.464,598.018 686.464,594.518 693.5,591C 699.784,585.149 702.284,577.982 701,569.5C 695.722,561.222 690.055,553.222 684,545.5C 678.889,539.042 679.389,533.208 685.5,528C 691.88,526.155 698.214,524.155 704.5,522C 694.3,521.104 683.967,520.104 673.5,519C 663.783,514.971 654.783,509.638 646.5,503C 643.754,501.25 640.754,500.25 637.5,500C 627.131,499.233 616.797,499.567 606.5,501C 599.658,504.922 592.658,508.588 585.5,512C 578.511,514.82 572.344,513.654 567,508.5C 563.235,502.544 560.235,496.211 558,489.5C 552.2,480.735 546.034,472.235 539.5,464C 530.741,462.578 525.075,457.578 522.5,449C 512.895,448.62 506.062,444.12 502,435.5C 501.333,431.833 501.333,428.167 502,424.5C 505.333,419.833 508.667,415.167 512,410.5C 516,400.5 520,390.5 524,380.5C 527.829,372.837 532.163,365.504 537,358.5C 544.15,351.446 551.817,350.779 560,356.5C 561.94,359.928 563.106,363.594 563.5,367.5C 583.52,365.666 603.52,363.666 623.5,361.5C 631.868,361.297 639.868,362.797 647.5,366C 659.34,373.753 671.007,381.753 682.5,390C 685.74,391.423 689.074,391.423 692.5,390C 699.209,388.143 705.543,385.476 711.5,382C 719.599,375.905 727.099,369.072 734,361.5C 742.108,352.56 743.941,342.56 739.5,331.5C 739.763,328.972 740.596,326.639 742,324.5C 746.638,321.621 751.471,319.121 756.5,317C 752.879,308.744 755.545,303.577 764.5,301.5C 784.062,307.631 803.729,313.465 823.5,319C 833.315,323.076 842.982,327.409 852.5,332C 857.713,335.546 861.88,340.046 865,345.5C 867.151,351.12 866.484,356.453 863,361.5C 863.457,368.917 862.457,376.25 860,383.5C 854.456,402.133 848.123,420.466 841,438.5C 838.968,446.819 838.135,455.152 838.5,463.5C 845.789,466.811 852.789,470.644 859.5,475C 874.068,479.452 887.735,485.785 900.5,494C 912.846,497.67 923.846,503.67 933.5,512C 938.59,513.958 943.09,516.792 947,520.5C 947.986,522.778 948.82,525.111 949.5,527.5C 946.881,534.071 943.715,540.404 940,546.5C 936.699,560.677 933.532,574.843 930.5,589C 940.389,597.116 951.389,603.449 963.5,608C 970.011,612.423 976.345,617.089 982.5,622C 995.386,626.775 1007.39,633.108 1018.5,641C 1038.08,637.526 1057.75,634.193 1077.5,631C 1105.48,629.467 1133.48,629.134 1161.5,630C 1182.58,633.915 1203.58,638.248 1224.5,643C 1230.49,643.867 1236.49,644.2 1242.5,644C 1231.72,622.893 1218.22,603.727 1202,586.5C 1199.77,579.006 1198.6,571.339 1198.5,563.5C 1199.05,554.503 1199.55,545.503 1200,536.5C 1200.83,530.34 1204,525.84 1209.5,523C 1224.98,515.093 1240.65,507.426 1256.5,500C 1295.37,485.097 1335.04,472.931 1375.5,463.5C 1382.82,464.65 1387.99,468.65 1391,475.5C 1402.56,487.731 1414.73,499.231 1427.5,510C 1432.94,512.371 1438.61,513.037 1444.5,512C 1452.01,507.745 1459.68,503.745 1467.5,500C 1480.58,493.63 1493.25,494.296 1505.5,502C 1507.89,503.952 1509.39,506.452 1510,509.5C 1510.14,529.359 1512.14,549.026 1516,568.5C 1520.4,588.157 1531.23,602.99 1548.5,613C 1555.92,623.759 1565.26,632.425 1576.5,639C 1586.33,644.414 1596,650.081 1605.5,656C 1611.64,658.602 1617.97,660.602 1624.5,662C 1650.51,668.171 1676.85,671.171 1703.5,671C 1712.39,669.945 1721.05,667.945 1729.5,665C 1732.43,664.223 1735.26,664.39 1738,665.5C 1747.66,660.504 1751.99,663.504 1751,674.5C 1742.64,687.521 1734.3,700.521 1726,713.5C 1703.35,729.582 1681.52,746.748 1660.5,765C 1646.58,778.582 1633.08,792.416 1620,806.5C 1608.6,819.636 1600.6,834.636 1596,851.5C 1594.18,859.106 1592.68,866.773 1591.5,874.5C 1596.56,881.413 1601.06,888.747 1605,896.5C 1612.25,913.319 1614.25,930.653 1611,948.5C 1605.82,956.003 1598.65,959.003 1589.5,957.5C 1578.8,957.148 1568.14,956.481 1557.5,955.5C 1542.2,955.545 1526.87,955.712 1511.5,956C 1468.1,961.9 1424.77,968.233 1381.5,975C 1372.13,976.755 1362.79,976.755 1353.5,975C 1349.14,969.978 1344.14,965.645 1338.5,962C 1328.43,958.533 1318.43,954.867 1308.5,951C 1285.34,938.925 1263.01,925.592 1241.5,911C 1235.13,904.969 1229.13,898.636 1223.5,892C 1200.78,896.627 1178.78,903.794 1157.5,913.5C 1155.22,925.104 1154.88,936.77 1156.5,948.5C 1156.81,960.319 1154.64,971.652 1150,982.5C 1147.96,985.94 1145.46,988.94 1142.5,991.5 Z"/></g>
<g><path style="opacity:1" fill="#a97e5f" d="M 1682.5,694.5 C 1684.17,695.167 1685.83,695.833 1687.5,696.5C 1670.05,708.112 1652.71,719.946 1635.5,732C 1626.03,740.469 1616.86,749.303 1608,758.5C 1594.04,775.461 1579.71,792.128 1565,808.5C 1553.94,823.893 1543.28,839.559 1533,855.5C 1532.33,859.5 1532.33,863.5 1533,867.5C 1547.97,888.94 1564.47,909.107 1582.5,928C 1564.66,928.585 1546.83,928.419 1529,927.5C 1503.74,929.738 1478.57,932.904 1453.5,937C 1431.71,942.031 1410.04,947.531 1388.5,953.5C 1375.39,950.425 1362.39,946.925 1349.5,943C 1344.83,939.667 1340.17,936.333 1335.5,933C 1327.34,930.057 1319.34,926.724 1311.5,923C 1298.65,914.74 1285.32,907.24 1271.5,900.5C 1269.96,893.672 1270.46,887.005 1273,880.5C 1275.16,871.869 1272.32,865.702 1264.5,862C 1232.2,863.089 1199.87,864.089 1167.5,865C 1156.21,867.311 1145.54,871.311 1135.5,877C 1129.5,880.333 1123.5,883.667 1117.5,887C 1111.44,891.608 1109.94,897.441 1113,904.5C 1115.67,908.5 1119,911.833 1123,914.5C 1131.49,932.761 1132.49,951.428 1126,970.5C 1122.48,978.22 1118.48,985.553 1114,992.5C 1109.14,1000.23 1102.64,1002.07 1094.5,998C 1074.27,996.911 1054.27,994.245 1034.5,990C 1023.17,989.333 1011.83,989.333 1000.5,990C 986.791,992.345 973.124,994.845 959.5,997.5C 958.167,997.5 956.833,997.5 955.5,997.5C 955.806,994.615 955.473,991.948 954.5,989.5C 951.086,949.84 934.753,916.673 905.5,890C 895.961,881.811 884.961,876.478 872.5,874C 847.809,869.831 823.143,865.665 798.5,861.5C 799.61,856.889 799.777,852.222 799,847.5C 797.44,842.76 796.273,837.927 795.5,833C 799.163,821.095 800.33,808.928 799,796.5C 796.5,787.163 794,777.83 791.5,768.5C 802.45,765.846 813.45,763.346 824.5,761C 837.473,761.503 850.14,759.836 862.5,756C 867.818,752.049 867.818,748.049 862.5,744C 860.5,743.333 858.5,742.667 856.5,742C 843.862,739.855 831.196,737.855 818.5,736C 812.871,734.809 807.704,732.642 803,729.5C 803.962,714.46 797.128,707.627 782.5,709C 777.351,710.413 772.185,711.58 767,712.5C 750.159,711.433 733.326,710.266 716.5,709C 710.853,707.689 707.687,704.189 707,698.5C 704.407,695.457 701.24,693.29 697.5,692C 690.233,690.485 682.899,690.152 675.5,691C 668.031,693.879 660.364,696.045 652.5,697.5C 637.955,693.315 624.122,687.315 611,679.5C 609.296,675.259 607.462,671.093 605.5,667C 615.911,656.593 625.578,645.593 634.5,634C 644.265,634.851 653.765,633.351 663,629.5C 712.323,631.501 733.99,607.835 728,558.5C 724.533,546.666 716.866,542 705,544.5C 703.522,543.022 702.022,541.522 700.5,540C 709.97,535.868 718.97,530.868 727.5,525C 731.36,522.452 732.86,518.952 732,514.5C 727.234,510.07 721.734,506.903 715.5,505C 710.342,504.281 705.342,502.948 700.5,501C 692.479,500.832 684.479,500.332 676.5,499.5C 667.778,489.132 656.778,482.299 643.5,479C 635.503,478.119 627.503,477.286 619.5,476.5C 613.007,477.232 606.507,477.899 600,478.5C 594.738,479.401 591.404,477.401 590,472.5C 583.636,465.801 576.969,459.468 570,453.5C 564.392,443.293 556.725,434.96 547,428.5C 544.683,415.016 546.85,402.349 553.5,390.5C 574.551,388.659 595.551,386.492 616.5,384C 622.5,383.333 628.5,383.333 634.5,384C 646.338,391.418 658.004,399.085 669.5,407C 676.419,411.97 684.086,413.637 692.5,412C 703.552,409.762 713.885,405.762 723.5,400C 734.632,391.202 744.798,381.369 754,370.5C 761.509,359.976 764.509,348.309 763,335.5C 766.344,332.82 769.678,330.153 773,327.5C 786.667,333.723 800.834,338.556 815.5,342C 824.23,346.188 833.23,349.688 842.5,352.5C 832.982,377.57 825.482,403.237 820,429.5C 815.333,441.5 810.667,453.5 806,465.5C 805.175,472.015 807.675,476.849 813.5,480C 824.1,483.284 833.767,488.284 842.5,495C 858.022,503.429 874.022,510.762 890.5,517C 896.95,520.308 902.783,524.474 908,529.5C 908.667,537.5 908.667,545.5 908,553.5C 905.822,566.429 904.822,579.429 905,592.5C 905.725,594.949 906.725,597.283 908,599.5C 934.552,619.719 961.385,639.552 988.5,659C 994.286,665.792 1000.95,671.459 1008.5,676C 1013.41,677.492 1018.41,677.826 1023.5,677C 1045.57,671.599 1067.91,667.599 1090.5,665C 1136.24,662.939 1181.91,664.105 1227.5,668.5C 1235.29,668.479 1242.96,667.479 1250.5,665.5C 1265.38,668.323 1280.38,669.49 1295.5,669C 1302.41,665.324 1304.25,659.824 1301,652.5C 1292.73,647.615 1284.9,642.115 1277.5,636C 1268.25,626.757 1259.75,616.924 1252,606.5C 1243.08,592.333 1234.42,578 1226,563.5C 1225.33,558.5 1225.33,553.5 1226,548.5C 1241.57,540.298 1257.4,532.465 1273.5,525C 1291.49,519.002 1309.49,513.002 1327.5,507C 1339.52,502.572 1351.35,497.739 1363,492.5C 1362.82,497.312 1364.66,501.145 1368.5,504C 1384.68,510.166 1398.51,519.666 1410,532.5C 1414,541.167 1418,549.833 1422,558.5C 1426.42,565.705 1432.25,567.205 1439.5,563C 1449.98,550.855 1461.98,540.522 1475.5,532C 1478.35,528.984 1481.35,526.15 1484.5,523.5C 1485.68,540.956 1487.85,558.29 1491,575.5C 1495.58,595.495 1505.41,612.329 1520.5,626C 1523.17,627.667 1525.83,629.333 1528.5,631C 1538.25,642.862 1549.58,652.862 1562.5,661C 1574.5,668 1586.5,675 1598.5,682C 1607.6,685.274 1616.93,687.608 1626.5,689C 1645.18,690.788 1663.85,692.622 1682.5,694.5 Z"/></g>
<g><path style="opacity:1" fill="#b99f7f" d="M 774.5,406.5 C 782.669,406.166 790.336,407.999 797.5,412C 802.081,415.438 803.581,419.938 802,425.5C 791.841,438.147 784.008,452.147 778.5,467.5C 784.405,484.118 788.905,501.118 792,518.5C 813.637,532.235 836.47,543.735 860.5,553C 864.012,555.257 867.346,557.757 870.5,560.5C 871.333,583.826 871.833,607.16 872,630.5C 873,632.167 874,633.833 875,635.5C 888.097,644.299 900.931,653.465 913.5,663C 925.455,673.31 938.122,682.643 951.5,691C 957.135,695.633 962.468,700.633 967.5,706C 970.554,708.194 973.888,709.861 977.5,711C 1003.83,711.667 1030.17,711.667 1056.5,711C 1074.38,706.908 1092.38,703.241 1110.5,700C 1118.79,698.964 1127.13,698.464 1135.5,698.5C 1173.8,700.666 1212.13,702.166 1250.5,703C 1277.5,703.667 1304.5,703.667 1331.5,703C 1333.67,702.167 1335.17,700.667 1336,698.5C 1336.67,672.5 1336.67,646.5 1336,620.5C 1315.96,606.791 1298.79,589.958 1284.5,570C 1305.25,558.418 1327.25,550.418 1350.5,546C 1360.01,551.513 1368.51,558.346 1376,566.5C 1380.39,574.997 1384.39,583.664 1388,592.5C 1389.17,595 1391,596.833 1393.5,598C 1414.17,598.333 1434.83,598.667 1455.5,599C 1458.35,621.71 1467.69,641.377 1483.5,658C 1487.5,660.667 1491.5,663.333 1495.5,666C 1504.24,677.069 1514.57,686.402 1526.5,694C 1537.5,699.83 1548.16,706.163 1558.5,713C 1564.66,715.995 1570.99,718.495 1577.5,720.5C 1562.85,737.648 1548.02,754.648 1533,771.5C 1521.75,786.992 1510.75,802.658 1500,818.5C 1498.53,843.769 1498.03,869.102 1498.5,894.5C 1488.13,894.234 1477.79,894.734 1467.5,896C 1453.94,898.652 1440.27,900.652 1426.5,902C 1413.82,904.726 1401.15,907.559 1388.5,910.5C 1382.22,908.059 1376.55,904.559 1371.5,900C 1362.75,896.528 1354.09,892.862 1345.5,889C 1333.32,881.074 1320.65,873.907 1307.5,867.5C 1306.67,856.181 1306.17,844.848 1306,833.5C 1304.75,830.619 1302.58,828.786 1299.5,828C 1272.17,827.333 1244.83,827.333 1217.5,828C 1188.17,829.587 1158.84,830.92 1129.5,832C 1112.78,837.693 1096.78,845.027 1081.5,854C 1080.79,855.255 1079.96,856.421 1079,857.5C 1077.36,882.771 1077.03,908.104 1078,933.5C 1078.29,935.952 1078.96,938.285 1080,940.5C 1082.35,942.683 1084.52,945.016 1086.5,947.5C 1084.04,952.244 1080.54,955.577 1076,957.5C 1072.79,957.259 1069.63,956.759 1066.5,956C 1040.5,955.5 1014.5,955.333 988.5,955.5C 984.812,914.289 967.478,880.122 936.5,853C 928.522,847.454 919.856,843.454 910.5,841C 884.877,836.855 859.377,832.355 834,827.5C 833.183,818.255 833.35,809.089 834.5,800C 842.886,797.886 851.22,795.886 859.5,794C 867.833,793.667 876.167,793.333 884.5,793C 889.277,791.429 894.11,789.929 899,788.5C 900.149,775.758 900.649,762.925 900.5,750C 900.649,737.075 900.149,724.242 899,711.5C 894.734,709.377 890.234,707.877 885.5,707C 875.185,705.502 864.852,704.168 854.5,703C 848.08,701.776 842.246,699.276 837,695.5C 836.081,690.476 835.081,685.476 834,680.5C 832.749,677.619 830.583,675.786 827.5,675C 800.833,674.667 774.167,674.333 747.5,674C 745.714,673.215 744.214,672.049 743,670.5C 742.366,664.884 739.532,660.884 734.5,658.5C 752.246,650.231 761.413,636.231 762,616.5C 763.2,596.525 763.866,576.525 764,556.5C 765.995,553.703 766.828,550.537 766.5,547C 762.228,522.6 758.562,498.1 755.5,473.5C 749.32,472.308 743.32,470.475 737.5,468C 728.864,466.965 720.197,466.298 711.5,466C 709.624,463.954 707.624,462.121 705.5,460.5C 692.432,456.6 679.099,454.1 665.5,453C 652.133,448.995 638.466,446.661 624.5,446C 618.435,441.063 613.935,434.896 611,427.5C 609.08,419.836 611.913,415.003 619.5,413C 628.56,411.765 637.227,413.098 645.5,417C 652.488,420.159 659.154,423.826 665.5,428C 681.081,433.13 696.414,438.796 711.5,445C 717.833,445.667 724.167,445.667 730.5,445C 737.03,442.323 743.697,440.156 750.5,438.5C 750.351,437.448 750.517,436.448 751,435.5C 758.615,431.288 763.615,424.955 766,416.5C 768.15,412.497 770.984,409.164 774.5,406.5 Z"/></g>
<g><path style="opacity:1" fill="#85624c" d="M 1682.5,694.5 C 1685.19,694.336 1687.85,694.503 1690.5,695C 1689.47,695.513 1688.47,696.013 1687.5,696.5C 1685.83,695.833 1684.17,695.167 1682.5,694.5 Z"/></g>
<g><path style="opacity:0.055" fill="#9b765b" d="M 1142.5,991.5 C 1142.57,993.027 1141.91,994.027 1140.5,994.5C 1140.43,992.973 1141.09,991.973 1142.5,991.5 Z"/></g>
<g><path style="opacity:1" fill="#6f5140" d="M 954.5,989.5 C 955.473,991.948 955.806,994.615 955.5,997.5C 956.833,997.5 958.167,997.5 959.5,997.5C 958.081,998.451 956.415,998.784 954.5,998.5C 954.5,995.5 954.5,992.5 954.5,989.5 Z"/></g>
<g><path style="opacity:0.49" fill="#a47c5f" d="M 1139.5,995.5 C 1133.83,1002.68 1128.33,1010.01 1123,1017.5C 1120.96,1019.71 1118.8,1021.71 1116.5,1023.5C 1122.34,1013.26 1130.01,1003.93 1139.5,995.5 Z"/></g>
</svg>
