<?xml version="1.0" encoding="UTF-8"?>
<!DOCTYPE svg PUBLIC "-//W3C//DTD SVG 1.1//EN" "http://www.w3.org/Graphics/SVG/1.1/DTD/svg11.dtd">
<svg xmlns="http://www.w3.org/2000/svg" version="1.1" width="2296px" height="1221px" style="shape-rendering:geometricPrecision; text-rendering:geometricPrecision; image-rendering:optimizeQuality; fill-rule:evenodd; clip-rule:evenodd" xmlns:xlink="http://www.w3.org/1999/xlink">
<g><path style="opacity:0.967" fill="#48332c" d="M 438.5,67.5 C 441.016,67.7553 443.35,68.5886 445.5,70C 447.988,73.8067 450.655,77.4734 453.5,81C 462.043,85.1826 471.043,86.5159 480.5,85C 499.35,82.8998 517.35,77.8998 534.5,70C 541.699,67.8053 549.032,67.1386 556.5,68C 562.117,71.6416 568.117,74.4749 574.5,76.5C 582.885,81.0416 586.718,88.0416 586,97.5C 577.073,113.591 570.073,130.591 565,148.5C 566.733,161.089 561.567,169.256 549.5,173C 546.681,175.575 543.681,177.908 540.5,180C 534.469,181.148 528.469,182.481 522.5,184C 515.45,191.713 512.45,200.879 513.5,211.5C 515.836,232.676 521.336,253.01 530,272.5C 538.335,281.247 547.835,288.413 558.5,294C 572.949,292.953 581.449,299.453 584,313.5C 584.965,319.657 584.465,325.657 582.5,331.5C 583.223,333.782 583.557,336.116 583.5,338.5C 587.572,337.117 591.572,337.284 595.5,339C 601.253,342.376 605.92,346.876 609.5,352.5C 614.162,356.166 619.162,359.333 624.5,362C 636.476,362.231 648.476,362.898 660.5,364C 670.21,365.338 679.71,367.504 689,370.5C 700.243,366.039 707.743,369.539 711.5,381C 715.668,382.834 720.001,383.501 724.5,383C 720.946,376.588 719.78,369.755 721,362.5C 722.211,359.241 724.044,356.408 726.5,354C 730.363,352.819 733.863,350.986 737,348.5C 742.42,341.333 747.087,333.667 751,325.5C 753.912,314.686 756.745,303.852 759.5,293C 759.098,286.252 758.931,279.418 759,272.5C 760.529,269.066 763.196,267.4 767,267.5C 772.205,267.693 776.205,270.026 779,274.5C 780.03,277.95 781.363,281.283 783,284.5C 794.391,296.436 807.558,305.769 822.5,312.5C 830.927,309.237 837.427,311.571 842,319.5C 845.855,325.21 849.188,331.21 852,337.5C 858.031,344.391 863.197,351.891 867.5,360C 883.147,361.609 898.813,362.776 914.5,363.5C 927.107,363.71 939.607,362.71 952,360.5C 952.945,360.095 953.612,359.428 954,358.5C 957.784,339.817 962.784,321.484 969,303.5C 972.822,297.885 975.989,291.885 978.5,285.5C 983.868,280.872 989.868,279.706 996.5,282C 1003.1,285.605 1009.43,289.605 1015.5,294C 1021.5,296.333 1027.5,298.667 1033.5,301C 1044.7,303.371 1054.37,300.704 1062.5,293C 1073.94,291.471 1081.1,296.304 1084,307.5C 1087.25,311.659 1090.25,315.992 1093,320.5C 1101.39,327.764 1109.22,335.597 1116.5,344C 1118.68,345.84 1121.18,347.007 1124,347.5C 1141.47,341.676 1158.97,335.843 1176.5,330C 1198,326.151 1219.67,324.651 1241.5,325.5C 1236.43,306.645 1231.93,287.645 1228,268.5C 1226.96,262.606 1227.63,256.939 1230,251.5C 1248.05,233.447 1267.89,217.613 1289.5,204C 1301.72,194.446 1312.55,183.612 1322,171.5C 1325.06,167.938 1328.56,164.938 1332.5,162.5C 1337.17,153.831 1342.33,145.498 1348,137.5C 1350.51,134.657 1353.34,132.157 1356.5,130C 1363.92,128.582 1370.92,126.082 1377.5,122.5C 1387.45,116.456 1397.12,109.956 1406.5,103C 1413.83,100.527 1420.83,101.194 1427.5,105C 1430.66,107.494 1433.83,109.994 1437,112.5C 1443.28,114.387 1448.44,117.887 1452.5,123C 1461.97,127.597 1471.64,131.597 1481.5,135C 1493.79,136.663 1506.12,137.829 1518.5,138.5C 1549.61,138.987 1579.94,134.487 1609.5,125C 1617.26,122.905 1623.76,124.739 1629,130.5C 1631.95,139.058 1635.95,147.058 1641,154.5C 1652.83,199.635 1679.33,232.802 1720.5,254C 1730.17,254.444 1739.17,257.111 1747.5,262C 1756.25,268.91 1758.42,277.41 1754,287.5C 1746.54,290.878 1738.87,293.878 1731,296.5C 1729.3,301.575 1730.8,305.742 1735.5,309C 1741.17,312.167 1746.83,315.333 1752.5,318.5C 1757.21,316.43 1761.88,314.263 1766.5,312C 1775.18,305.574 1783.85,299.241 1792.5,293C 1802.79,289.808 1810.79,292.808 1816.5,302C 1828.33,312.165 1841,321.165 1854.5,329C 1865.46,333.311 1875.96,338.477 1886,344.5C 1888.97,351.733 1891.64,359.066 1894,366.5C 1895.11,372.426 1894.44,378.092 1892,383.5C 1889.13,385.889 1885.8,387.222 1882,387.5C 1875.53,386.433 1869.03,386.266 1862.5,387C 1861.17,388 1859.83,389 1858.5,390C 1850.52,391.908 1842.85,394.574 1835.5,398C 1823.56,408.934 1812.73,420.767 1803,433.5C 1797.09,443.086 1790.75,452.419 1784,461.5C 1785.6,468.363 1783.77,474.197 1778.5,479C 1775.93,479.958 1773.26,480.458 1770.5,480.5C 1762.45,478.653 1754.45,476.487 1746.5,474C 1737.15,469.11 1727.65,464.61 1718,460.5C 1717,458.833 1716,457.167 1715,455.5C 1714.49,448.124 1713.66,440.791 1712.5,433.5C 1713.99,424.88 1714.49,416.213 1714,407.5C 1712.46,402.744 1710.79,398.078 1709,393.5C 1701.42,387.237 1692.92,385.737 1683.5,389C 1681.12,389.511 1678.79,390.178 1676.5,391C 1660.62,401.106 1644.29,410.439 1627.5,419C 1616.31,421.397 1605.31,420.73 1594.5,417C 1584.58,412.255 1575.25,406.588 1566.5,400C 1558.88,393.154 1556.55,384.82 1559.5,375C 1544.34,373.775 1529.34,374.608 1514.5,377.5C 1506.89,376.395 1499.56,377.562 1492.5,381C 1485.83,384.331 1479.5,388.164 1473.5,392.5C 1468.51,397.319 1465.51,403.152 1464.5,410C 1464.64,412.898 1465.14,415.731 1466,418.5C 1470.7,420.773 1475.7,421.773 1481,421.5C 1483.5,421.333 1486,421.167 1488.5,421C 1493.45,418.777 1498.62,417.277 1504,416.5C 1515.3,417.311 1522.97,422.977 1527,433.5C 1530.96,453.744 1522.46,464.744 1501.5,466.5C 1496.76,471.32 1493.59,476.986 1492,483.5C 1491.67,490.167 1491.33,496.833 1491,503.5C 1485.92,511.082 1478.75,514.082 1469.5,512.5C 1455.43,511.646 1441.43,510.48 1427.5,509C 1424.12,510.802 1420.95,512.969 1418,515.5C 1414.96,521.044 1412.13,526.711 1409.5,532.5C 1410.12,535.167 1411.12,537.667 1412.5,540C 1416.16,540.547 1419.16,542.214 1421.5,545C 1425,545.167 1428.5,545.333 1432,545.5C 1442.57,544.653 1453.07,543.153 1463.5,541C 1468.15,539.036 1472.81,537.036 1477.5,535C 1486.12,532.762 1492.96,535.262 1498,542.5C 1501.57,548.031 1504.07,554.031 1505.5,560.5C 1513.47,564.58 1515.3,570.58 1511,578.5C 1492.99,593.518 1475.32,608.852 1458,624.5C 1457.29,632.322 1455.79,639.989 1453.5,647.5C 1455.59,652.014 1457.42,656.681 1459,661.5C 1459.33,666.833 1459.67,672.167 1460,677.5C 1460.36,679.421 1461.19,681.088 1462.5,682.5C 1467.71,687.54 1473.38,692.04 1479.5,696C 1489.05,698.804 1498.72,701.137 1508.5,703C 1515.06,705.86 1521.22,709.36 1527,713.5C 1534.84,712.055 1542.67,710.555 1550.5,709C 1557.85,708.363 1565.18,708.53 1572.5,709.5C 1581.94,708.345 1591.27,706.678 1600.5,704.5C 1601.29,704.931 1602.13,705.265 1603,705.5C 1611.24,703.13 1618.74,699.297 1625.5,694C 1632.17,686.996 1639.17,680.329 1646.5,674C 1653.17,670.667 1659.83,670.667 1666.5,674C 1673.15,681.161 1680.15,687.661 1687.5,693.5C 1688,694.5 1688.5,695.5 1689,696.5C 1689.33,701.167 1689.67,705.833 1690,710.5C 1691.12,712.624 1692.62,714.457 1694.5,716C 1702.44,718.969 1709.78,722.969 1716.5,728C 1735.33,729.322 1753.66,726.989 1771.5,721C 1775.95,715.289 1779.78,709.123 1783,702.5C 1786.44,699.03 1790.61,697.03 1795.5,696.5C 1807.99,701.903 1820.65,707.07 1833.5,712C 1840.01,718.215 1841.17,725.382 1837,733.5C 1834.67,737.5 1832.33,741.5 1830,745.5C 1826.14,759.757 1821.47,773.757 1816,787.5C 1814.29,795.741 1813.29,804.074 1813,812.5C 1811.31,817.605 1807.81,820.771 1802.5,822C 1787.19,821.475 1771.85,821.475 1756.5,822C 1749.79,823.739 1743.12,825.572 1736.5,827.5C 1735.79,833.256 1733.29,837.923 1729,841.5C 1726.75,847.246 1724.75,852.913 1723,858.5C 1732.34,868.418 1743.84,873.918 1757.5,875C 1768.81,876.055 1780.14,876.721 1791.5,877C 1797.09,879.664 1800.09,884.164 1800.5,890.5C 1798.58,908.45 1791.75,924.117 1780,937.5C 1776.74,947.424 1770.57,954.924 1761.5,960C 1759.44,960.311 1757.44,960.811 1755.5,961.5C 1739.87,957.904 1724.21,954.404 1708.5,951C 1703.83,950.333 1699.17,950.333 1694.5,951C 1684.15,953.593 1675.65,959.093 1669,967.5C 1665.21,974.093 1661.71,980.76 1658.5,987.5C 1659.84,996.015 1662.84,1003.85 1667.5,1011C 1670.58,1011.35 1673.58,1012.01 1676.5,1013C 1678.8,1015.77 1680.96,1018.61 1683,1021.5C 1690.54,1023.29 1698.04,1025.13 1705.5,1027C 1709.88,1030.91 1712.88,1035.75 1714.5,1041.5C 1721.8,1044.1 1729.13,1046.6 1736.5,1049C 1739.66,1050.41 1742.66,1052.08 1745.5,1054C 1755.17,1053.67 1764.83,1053.33 1774.5,1053C 1781.87,1055.72 1785.2,1061.05 1784.5,1069C 1784.08,1079.67 1782.58,1090.17 1780,1100.5C 1779.5,1128.09 1778.33,1155.59 1776.5,1183C 1767.17,1183.67 1757.83,1183.67 1748.5,1183C 1736.99,1177.08 1725.32,1171.41 1713.5,1166C 1694.5,1153.83 1675.17,1142.16 1655.5,1131C 1628.86,1118.02 1602.2,1105.02 1575.5,1092C 1573.3,1089.77 1571.47,1087.27 1570,1084.5C 1567.72,1075.57 1565.72,1066.57 1564,1057.5C 1557.05,1045.69 1554.88,1033.03 1557.5,1019.5C 1554.64,1001.92 1553.81,984.255 1555,966.5C 1552.93,954.112 1549.59,942.112 1545,930.5C 1528.37,922.879 1510.87,918.379 1492.5,917C 1482.5,916.667 1472.5,916.333 1462.5,916C 1456.67,914.826 1451.83,911.993 1448,907.5C 1440.76,888.844 1433.93,870.01 1427.5,851C 1418.29,848.365 1408.96,846.365 1399.5,845C 1379.47,844.149 1359.47,842.815 1339.5,841C 1329.02,840.034 1322.52,834.534 1320,824.5C 1320.94,812.825 1320.61,801.158 1319,789.5C 1316.58,779.324 1313.58,769.324 1310,759.5C 1309.5,760 1309,760.5 1308.5,761C 1304.83,761.667 1301.17,761.667 1297.5,761C 1287.8,758.617 1277.96,756.784 1268,755.5C 1257.75,757.582 1247.58,760.082 1237.5,763C 1229.99,764.701 1226.65,769.367 1227.5,777C 1226.45,793.188 1230.28,808.021 1239,821.5C 1240.06,835.44 1233.56,841.607 1219.5,840C 1215.42,839.485 1211.42,838.651 1207.5,837.5C 1206.39,838.022 1205.23,838.355 1204,838.5C 1197.57,836.467 1191.07,834.634 1184.5,833C 1171.91,832.632 1159.41,831.465 1147,829.5C 1135.6,835.969 1123.44,838.969 1110.5,838.5C 1100.6,841.91 1090.6,844.91 1080.5,847.5C 1071.58,847.671 1066.41,843.337 1065,834.5C 1063.62,832.787 1061.96,831.453 1060,830.5C 1060.1,833.112 1060.43,835.779 1061,838.5C 1063.93,842.362 1065.76,846.695 1066.5,851.5C 1066.17,854.324 1065.34,856.991 1064,859.5C 1059.3,863.016 1054.3,866.016 1049,868.5C 1037.37,883.299 1025.2,897.632 1012.5,911.5C 1008.43,922.505 1001.43,931.005 991.5,937C 985.443,937.845 979.61,937.012 974,934.5C 956,937.626 938.166,936.792 920.5,932C 901.864,925.84 883.864,918.173 866.5,909C 848.623,896.79 833.789,881.623 822,863.5C 819.781,859.729 818.115,855.729 817,851.5C 813.617,837.741 809.95,824.074 806,810.5C 804.454,795.225 805.787,780.225 810,765.5C 814.297,750.272 819.963,735.606 827,721.5C 828.858,712.592 831.525,703.926 835,695.5C 840.861,682.917 846.527,670.25 852,657.5C 857.72,652.746 863.886,652.246 870.5,656C 873.604,659.54 875.937,663.54 877.5,668C 879.5,668.667 881.5,669.333 883.5,670C 889.698,676.253 896.698,681.253 904.5,685C 914.443,685.625 924.277,686.791 934,688.5C 943.36,687.158 952.526,684.991 961.5,682C 978.185,640.285 994.685,598.452 1011,556.5C 1013.84,545.468 1016.84,534.468 1020,523.5C 1020.87,520.515 1021.2,517.515 1021,514.5C 1009.91,508.459 998.911,502.459 988,496.5C 984.763,498.58 981.263,500.08 977.5,501C 962.163,515.01 944.83,526.01 925.5,534C 907.746,541.14 890.079,548.473 872.5,556C 861.933,560.372 850.933,562.706 839.5,563C 829.915,575.67 823.749,589.837 821,605.5C 819.611,609.944 817.944,614.277 816,618.5C 803.864,627.961 791.697,637.461 779.5,647C 772.748,651.365 765.415,653.031 757.5,652C 745.093,649.961 734.093,644.961 724.5,637C 717.198,633.349 709.864,629.682 702.5,626C 690.939,621.721 679.272,617.721 667.5,614C 652.571,611.605 637.571,610.105 622.5,609.5C 616.833,609.667 611.167,609.833 605.5,610C 596.009,612.956 586.342,615.123 576.5,616.5C 572.179,616.449 568.179,615.282 564.5,613C 557.156,603.957 549.99,594.79 543,585.5C 536.904,574.061 529.237,563.728 520,554.5C 518,550.5 516,546.5 514,542.5C 513.333,538.5 513.333,534.5 514,530.5C 519.573,521.026 524.906,511.359 530,501.5C 533.114,487.52 533.114,473.52 530,459.5C 520.348,435.86 508.348,413.527 494,392.5C 487.461,386.292 480.627,380.459 473.5,375C 460.26,365.462 446.76,356.296 433,347.5C 431.333,344.5 429.667,341.5 428,338.5C 424.816,323.614 420.816,308.947 416,294.5C 415.333,290.5 415.333,286.5 416,282.5C 419.667,275.5 423.333,268.5 427,261.5C 429.441,253.949 432.441,246.616 436,239.5C 440.46,219.365 442.127,199.032 441,178.5C 443.599,168.23 443.599,157.897 441,147.5C 432.056,130.671 425.89,112.838 422.5,94C 426.688,84.4533 432.022,75.62 438.5,67.5 Z"/></g>
<g><path style="opacity:1" fill="#a97e5f" d="M 510.5,164.5 C 507.848,164.41 505.515,165.076 503.5,166.5C 496.872,166.392 492.372,169.392 490,175.5C 489.344,190.838 489.01,206.172 489,221.5C 492.804,235.08 496.304,248.747 499.5,262.5C 499.41,265.152 500.076,267.485 501.5,269.5C 505.236,279.638 510.069,289.305 516,298.5C 524.677,306.172 534.177,312.672 544.5,318C 551.739,324.569 558.239,331.735 564,339.5C 563.411,348.684 566.244,356.517 572.5,363C 577.635,364.265 581.968,362.932 585.5,359C 586.5,358.333 587.5,358.333 588.5,359C 590.833,362 593.167,365 595.5,368C 601.881,373.217 608.881,377.383 616.5,380.5C 618.515,381.924 620.848,382.59 623.5,382.5C 632.809,383.125 642.143,383.292 651.5,383C 660.459,385.065 669.459,386.899 678.5,388.5C 679.263,389.268 680.263,389.768 681.5,390C 685.821,390.499 690.154,390.666 694.5,390.5C 696.893,395.046 700.559,398.212 705.5,400C 713.371,401.887 721.371,403.053 729.5,403.5C 733.675,414.021 739.008,423.854 745.5,433C 748.636,434.041 751.136,433.207 753,430.5C 753.818,424.651 753.652,418.985 752.5,413.5C 754.005,405.29 753.672,397.29 751.5,389.5C 750.965,385.489 750.298,381.489 749.5,377.5C 749.833,376.5 750.167,375.5 750.5,374.5C 754.777,371.727 758.61,368.393 762,364.5C 766.587,356.996 770.92,349.329 775,341.5C 777.659,332.528 780.159,323.528 782.5,314.5C 792.885,321.694 803.885,327.861 815.5,333C 819.377,338.212 824.377,341.878 830.5,344C 833.935,351.703 837.768,359.203 842,366.5C 848.965,375.802 857.465,383.302 867.5,389C 871.833,389.667 876.167,389.667 880.5,389C 887.667,386.252 895,385.918 902.5,388C 923.116,389.412 943.45,387.745 963.5,383C 972.634,379.256 977.801,372.423 979,362.5C 980.575,357.455 981.741,352.455 982.5,347.5C 983.924,345.485 984.59,343.152 984.5,340.5C 987.176,330.796 990.01,321.129 993,311.5C 993.641,309.187 994.974,307.52 997,306.5C 1009.67,312.421 1021.84,319.254 1033.5,327C 1041.41,327.521 1049.24,327.021 1057,325.5C 1064.85,324.091 1070.19,327.091 1073,334.5C 1083.2,345.03 1093.7,355.197 1104.5,365C 1112.29,370.415 1120.96,372.415 1130.5,371C 1136.44,369.411 1142.44,368.078 1148.5,367C 1159.07,362.256 1170.07,358.922 1181.5,357C 1198.66,355.134 1215.83,353.3 1233,351.5C 1244.01,351.77 1254.84,352.27 1265.5,353C 1268.38,351.749 1270.21,349.583 1271,346.5C 1271.39,343.151 1271.22,339.817 1270.5,336.5C 1270.59,333.848 1269.92,331.515 1268.5,329.5C 1263.56,308.471 1261.06,287.138 1261,265.5C 1260.24,262.804 1259.07,260.304 1257.5,258C 1265.2,250.627 1273.2,243.627 1281.5,237C 1305.38,221.471 1327.21,203.305 1347,182.5C 1354.29,172.755 1361.46,162.922 1368.5,153C 1374.66,151.277 1380.66,148.944 1386.5,146C 1397.08,139.086 1407.91,132.586 1419,126.5C 1423.43,129.639 1427.59,133.139 1431.5,137C 1452.09,148.309 1474.09,155.642 1497.5,159C 1520.47,160.792 1543.47,161.459 1566.5,161C 1582.32,158.31 1597.99,155.31 1613.5,152C 1619.39,165.658 1624.89,179.491 1630,193.5C 1634.11,199.391 1637.45,205.724 1640,212.5C 1643.58,217.328 1646.91,222.328 1650,227.5C 1658.5,237.333 1667.67,246.5 1677.5,255C 1687.5,261.667 1697.5,268.333 1707.5,275C 1710.96,276.743 1714.62,277.743 1718.5,278C 1713.87,281.44 1710.87,285.94 1709.5,291.5C 1707.98,294.526 1707.31,297.859 1707.5,301.5C 1707.5,304.025 1707.84,306.359 1708.5,308.5C 1714.27,321.419 1723.94,330.253 1737.5,335C 1743.36,336.896 1749.36,338.063 1755.5,338.5C 1760.29,338.346 1764.62,337.013 1768.5,334.5C 1779.86,328.984 1789.53,321.317 1797.5,311.5C 1818.05,331.222 1841.38,346.722 1867.5,358C 1868.34,359.011 1868.67,360.178 1868.5,361.5C 1851.97,359.514 1836.97,363.347 1823.5,373C 1816.36,380.898 1807.7,386.231 1797.5,389C 1788.1,393.732 1780.6,400.566 1775,409.5C 1770.36,417.952 1765.86,426.452 1761.5,435C 1754.68,432.561 1747.68,430.394 1740.5,428.5C 1740.5,423.833 1740.5,419.167 1740.5,414.5C 1740.88,407.695 1739.54,401.361 1736.5,395.5C 1735.83,387.339 1732.83,380.172 1727.5,374C 1709.43,361.643 1689.43,355.977 1667.5,357C 1651.63,362.288 1635.96,367.955 1620.5,374C 1614.16,374.152 1607.83,373.819 1601.5,373C 1595.54,368.583 1592.71,362.75 1593,355.5C 1596.36,347.451 1598.02,339.118 1598,330.5C 1594.77,325.466 1590.27,323.632 1584.5,325C 1571.98,332.763 1558.98,339.763 1545.5,346C 1532.33,345.848 1519.33,346.014 1506.5,346.5C 1501.85,346.627 1497.52,347.627 1493.5,349.5C 1474.45,355.274 1457.95,365.274 1444,379.5C 1437.28,387.672 1434.61,397.005 1436,407.5C 1436.91,410.576 1438.74,412.909 1441.5,414.5C 1443.07,434.734 1454.07,445.068 1474.5,445.5C 1477.83,446.167 1481.17,446.833 1484.5,447.5C 1479.72,450.783 1476.22,455.116 1474,460.5C 1472.27,464.953 1470.27,469.286 1468,473.5C 1466.81,477.751 1466.31,482.085 1466.5,486.5C 1459.61,486.1 1452.95,485.1 1446.5,483.5C 1444.49,482.076 1442.15,481.41 1439.5,481.5C 1427.83,481.333 1416.16,481.5 1404.5,482C 1394.32,482.504 1386.49,487.004 1381,495.5C 1375.83,505.52 1370.67,515.52 1365.5,525.5C 1364.21,526.842 1363.37,528.509 1363,530.5C 1362.18,535.352 1362.35,540.019 1363.5,544.5C 1364.07,552.708 1367.4,559.541 1373.5,565C 1383.58,571.864 1394.25,577.698 1405.5,582.5C 1409.2,584.055 1413.2,584.722 1417.5,584.5C 1420.69,584.498 1423.69,584.165 1426.5,583.5C 1436.88,580.706 1447.22,577.706 1457.5,574.5C 1460.72,574.655 1463.38,573.655 1465.5,571.5C 1469.73,569.923 1473.73,567.923 1477.5,565.5C 1480.51,566.66 1482.51,568.827 1483.5,572C 1467.73,584.096 1452.23,596.596 1437,609.5C 1432.52,615.766 1430.68,622.766 1431.5,630.5C 1429.58,634.163 1428.58,638.163 1428.5,642.5C 1428.5,646.5 1428.5,650.5 1428.5,654.5C 1428.35,657.716 1429.35,660.383 1431.5,662.5C 1432.07,663.973 1432.91,665.307 1434,666.5C 1431.65,685.299 1438.15,700.132 1453.5,711C 1458.13,714.812 1463.13,717.979 1468.5,720.5C 1470.79,722.267 1473.46,723.267 1476.5,723.5C 1484.69,725.905 1493.02,727.738 1501.5,729C 1508.8,733.147 1516.46,736.48 1524.5,739C 1532.57,739.597 1540.57,739.097 1548.5,737.5C 1553.46,736.746 1558.46,736.413 1563.5,736.5C 1568.84,736.666 1574.18,736.499 1579.5,736C 1593.48,733.115 1607.48,730.448 1621.5,728C 1627.33,724.919 1633,721.585 1638.5,718C 1645.73,711.598 1652.73,705.098 1659.5,698.5C 1661.94,699.222 1664.28,700.222 1666.5,701.5C 1666.53,712.764 1670.2,722.598 1677.5,731C 1685.5,735.667 1693.5,740.333 1701.5,745C 1710.89,750.124 1720.89,751.791 1731.5,750C 1744.87,747.883 1758.2,745.55 1771.5,743C 1780.45,740.11 1788.95,736.276 1797,731.5C 1798.28,731.613 1799.11,732.28 1799.5,733.5C 1788.3,750.556 1781.64,769.222 1779.5,789.5C 1774.72,790.22 1770.39,792.053 1766.5,795C 1757.14,795.268 1747.8,795.935 1738.5,797C 1728.36,800.156 1720.19,805.989 1714,814.5C 1707.22,825.728 1701.22,837.395 1696,849.5C 1695.33,855.167 1695.33,860.833 1696,866.5C 1699.29,872.121 1703.62,876.788 1709,880.5C 1711.56,886.061 1715.73,889.894 1721.5,892C 1730.05,894.609 1738.38,897.776 1746.5,901.5C 1751.99,902.672 1757.32,904.006 1762.5,905.5C 1758.72,909.624 1755.72,914.291 1753.5,919.5C 1751.93,921.102 1751.26,923.102 1751.5,925.5C 1751.67,926.492 1751.34,927.158 1750.5,927.5C 1746.13,927.533 1741.8,927.2 1737.5,926.5C 1728.21,924.228 1718.88,922.062 1709.5,920C 1675.21,918.615 1650.71,933.449 1636,964.5C 1632.63,980.968 1633.3,997.301 1638,1013.5C 1640.75,1018.01 1643.75,1022.34 1647,1026.5C 1651.75,1028.97 1656.25,1031.8 1660.5,1035C 1662.53,1038.88 1664.69,1042.72 1667,1046.5C 1668.97,1048.23 1671.14,1049.57 1673.5,1050.5C 1674.84,1051.79 1676.51,1052.63 1678.5,1053C 1682.15,1053.5 1685.82,1053.67 1689.5,1053.5C 1693.49,1056.93 1697.15,1060.76 1700.5,1065C 1705.73,1068.11 1711.06,1070.95 1716.5,1073.5C 1718.84,1075.04 1721.5,1075.71 1724.5,1075.5C 1729.63,1075.42 1733.63,1077.42 1736.5,1081.5C 1737.69,1093.86 1739.03,1106.19 1740.5,1118.5C 1740.29,1121.5 1740.96,1124.16 1742.5,1126.5C 1742.91,1130.26 1742.91,1133.93 1742.5,1137.5C 1730.37,1130.53 1718.37,1123.37 1706.5,1116C 1684.69,1105.59 1663.02,1094.93 1641.5,1084C 1630.32,1080.75 1620.32,1075.41 1611.5,1068C 1607.35,1066.43 1603.35,1064.59 1599.5,1062.5C 1599.56,1054.23 1598.56,1046.23 1596.5,1038.5C 1595.27,1030.81 1593.94,1023.14 1592.5,1015.5C 1591.78,1002.5 1589.78,989.838 1586.5,977.5C 1584.31,969.416 1581.81,961.416 1579,953.5C 1577.98,949.56 1577.48,945.56 1577.5,941.5C 1577.04,935.939 1576.04,930.606 1574.5,925.5C 1574.24,921.56 1573.08,917.893 1571,914.5C 1561.64,902.917 1549.81,895.584 1535.5,892.5C 1533.49,891.076 1531.15,890.41 1528.5,890.5C 1515.56,887.843 1502.56,885.51 1489.5,883.5C 1487.56,881.837 1485.23,881.171 1482.5,881.5C 1480.86,881.714 1479.36,881.38 1478,880.5C 1477.45,876.83 1476.95,873.163 1476.5,869.5C 1476.59,866.848 1475.92,864.515 1474.5,862.5C 1472.48,856.128 1469.65,850.128 1466,844.5C 1464.96,833.467 1459.79,824.967 1450.5,819C 1440.92,814.876 1431.59,810.209 1422.5,805C 1420.56,804.187 1418.56,803.687 1416.5,803.5C 1410.17,800.917 1403.5,799.251 1396.5,798.5C 1386.84,797.057 1377.18,795.724 1367.5,794.5C 1361.65,793.833 1355.65,793.167 1349.5,792.5C 1348.86,790.22 1347.86,788.22 1346.5,786.5C 1344.34,778.876 1342.34,771.21 1340.5,763.5C 1340.43,760.572 1339.77,757.905 1338.5,755.5C 1338.71,752.505 1338.04,749.838 1336.5,747.5C 1334.89,740.11 1331.56,733.61 1326.5,728C 1321.07,725.558 1315.4,723.892 1309.5,723C 1288.01,722.794 1266.68,722.128 1245.5,721C 1223.78,726.739 1207.28,739.239 1196,758.5C 1195.31,762.554 1195.47,766.554 1196.5,770.5C 1197.42,782.803 1197.75,795.136 1197.5,807.5C 1197.5,808.5 1197.5,809.5 1197.5,810.5C 1192.36,809.309 1187.36,809.309 1182.5,810.5C 1175.08,811.752 1167.74,813.419 1160.5,815.5C 1157.09,810.36 1153.42,805.36 1149.5,800.5C 1143.69,796.248 1138.19,796.582 1133,801.5C 1131.62,806.036 1131.12,810.703 1131.5,815.5C 1121.59,816.997 1111.59,817.83 1101.5,818C 1093.08,820.751 1084.75,823.584 1076.5,826.5C 1072.38,824.605 1068.38,822.438 1064.5,820C 1057.17,812.667 1049.83,805.333 1042.5,798C 1039.65,797.056 1037.15,797.556 1035,799.5C 1032.97,809.167 1034.97,817.834 1041,825.5C 1041.07,833.286 1041.91,840.952 1043.5,848.5C 1039.68,849.074 1036.01,850.241 1032.5,852C 1022.32,857.587 1012.65,863.921 1003.5,871C 997.899,875.928 993.065,881.428 989,887.5C 980.702,889.6 972.535,892.1 964.5,895C 945.633,896.318 926.966,894.985 908.5,891C 891.819,881.664 875.819,871.33 860.5,860C 847.567,848.941 838.567,835.441 833.5,819.5C 832.913,813.963 831.913,808.63 830.5,803.5C 830.137,800.011 829.804,796.511 829.5,793C 830.089,788.148 830.756,783.314 831.5,778.5C 832.924,776.485 833.59,774.152 833.5,771.5C 840.881,750.193 848.381,728.859 856,707.5C 858.412,702.341 861.079,697.341 864,692.5C 866.167,694.667 868.333,696.833 870.5,699C 874.372,699.891 878.038,699.391 881.5,697.5C 896.252,708.748 912.752,716.081 931,719.5C 941.941,718.312 952.774,716.479 963.5,714C 970.959,710.857 977.459,706.357 983,700.5C 989.982,684.914 996.982,669.247 1004,653.5C 1008.57,642.366 1012.57,631.033 1016,619.5C 1031.48,590.88 1043.32,560.88 1051.5,529.5C 1052.27,528.737 1052.77,527.737 1053,526.5C 1053.5,520.175 1053.67,513.842 1053.5,507.5C 1054.33,500.745 1053.17,494.411 1050,488.5C 1043.95,480.244 1037.79,472.077 1031.5,464C 1022.06,455.454 1011.06,452.454 998.5,455C 986.573,460.964 974.573,466.964 962.5,473C 955.256,477.573 948.59,482.907 942.5,489C 936.669,492.081 931.002,495.415 925.5,499C 896.013,510.709 867.347,524.209 839.5,539.5C 827.238,533.864 816.738,536.198 808,546.5C 799.145,557.208 792.645,569.208 788.5,582.5C 787.076,584.515 786.41,586.848 786.5,589.5C 786.795,592.734 786.129,595.734 784.5,598.5C 774.406,606.626 764.24,614.626 754,622.5C 735.504,612.669 716.67,603.502 697.5,595C 681.577,588.851 665.244,585.351 648.5,584.5C 645.411,583.215 642.078,582.549 638.5,582.5C 631.291,580.543 623.958,579.21 616.5,578.5C 606.309,577.763 595.976,577.096 585.5,576.5C 577.945,566.438 569.445,557.105 560,548.5C 558.59,539.916 558.09,531.25 558.5,522.5C 560.136,518.79 560.802,514.79 560.5,510.5C 560.286,503.729 560.953,497.063 562.5,490.5C 561.136,483.56 560.136,476.56 559.5,469.5C 558.975,465.467 557.642,461.8 555.5,458.5C 547.902,437.638 537.902,417.971 525.5,399.5C 525.072,396.215 524.072,393.215 522.5,390.5C 517.405,373.8 508.405,359.634 495.5,348C 486.085,342.915 478.252,336.081 472,327.5C 465.667,316.167 459.333,304.833 453,293.5C 452.501,288.511 452.334,283.511 452.5,278.5C 453.29,277.391 453.79,276.058 454,274.5C 454.499,268.509 454.666,262.509 454.5,256.5C 455.813,250.041 456.479,243.374 456.5,236.5C 457.443,227.504 458.609,218.504 460,209.5C 460.18,194.789 461.013,180.122 462.5,165.5C 462.198,159.484 461.698,153.484 461,147.5C 456.68,134.528 451.013,122.195 444,110.5C 442.228,105.863 440.894,101.196 440,96.5C 448.213,106.359 458.713,112.192 471.5,114C 484.684,116.491 497.684,115.824 510.5,112C 513.629,110.601 516.629,108.935 519.5,107C 526.787,105.276 533.953,103.109 541,100.5C 543.833,101.333 545.667,103.167 546.5,106C 544.136,112.091 541.969,118.258 540,124.5C 539.273,130.694 539.439,136.86 540.5,143C 540.064,146.218 539.398,149.384 538.5,152.5C 535.644,154.522 533.311,157.022 531.5,160C 524.001,159.802 517.001,161.302 510.5,164.5 Z"/></g>
<g><path style="opacity:1" fill="#6b4e3e" d="M 510.5,164.5 C 508.485,165.924 506.152,166.59 503.5,166.5C 505.515,165.076 507.848,164.41 510.5,164.5 Z"/></g>
<g><path style="opacity:1" fill="#b99f7f" d="M 1417.5,181.5 C 1426.84,184.226 1436.18,187.059 1445.5,190C 1455.14,191.552 1464.8,192.886 1474.5,194C 1511.17,194.739 1547.84,195.572 1584.5,196.5C 1590.94,218.041 1600.1,238.374 1612,257.5C 1622.83,269.667 1634.33,281.167 1646.5,292C 1655.3,297.303 1663.97,302.803 1672.5,308.5C 1673.49,313.12 1673.83,317.786 1673.5,322.5C 1659.92,322.177 1646.42,322.51 1633,323.5C 1632.67,314.5 1632.33,305.5 1632,296.5C 1631.29,294.919 1630.46,293.419 1629.5,292C 1616.09,290.85 1602.59,290.35 1589,290.5C 1576.17,290.667 1563.33,290.833 1550.5,291C 1538.15,298.176 1525.48,304.843 1512.5,311C 1476.55,306.856 1444.55,315.856 1416.5,338C 1408.45,344.261 1403.62,352.427 1402,362.5C 1401.33,388.833 1401.33,415.167 1402,441.5C 1403.27,442.905 1403.77,444.571 1403.5,446.5C 1391.46,446.192 1379.46,446.692 1367.5,448C 1359.91,449.544 1353.41,453.044 1348,458.5C 1340.33,470.836 1334,483.836 1329,497.5C 1328.33,524.167 1328.33,550.833 1329,577.5C 1330.11,584.637 1332.45,591.304 1336,597.5C 1347.3,604.903 1359.14,611.403 1371.5,617C 1379.13,618.142 1386.79,618.642 1394.5,618.5C 1394.33,643.169 1394.5,667.836 1395,692.5C 1396.67,695.833 1398.33,699.167 1400,702.5C 1399.48,713.892 1401.81,724.559 1407,734.5C 1422.58,751.873 1442.08,761.04 1465.5,762C 1471.62,766.393 1478.29,769.726 1485.5,772C 1526.51,772.794 1567.51,772.461 1608.5,771C 1619.17,769.666 1629.67,767.5 1640,764.5C 1647.53,768.678 1655.36,772.512 1663.5,776C 1667.68,780.092 1672.68,782.592 1678.5,783.5C 1671.69,793.445 1666.19,804.112 1662,815.5C 1661.5,839.164 1661.33,862.831 1661.5,886.5C 1642.15,888.342 1625.82,896.342 1612.5,910.5C 1610.4,900.816 1608.23,891.15 1606,881.5C 1601.9,876.392 1597.4,871.558 1592.5,867C 1572.48,858.077 1551.48,852.744 1529.5,851C 1524.68,849.209 1519.68,847.876 1514.5,847C 1513.3,846.097 1512.47,844.931 1512,843.5C 1510.56,830.961 1506.56,819.294 1500,808.5C 1498.32,799.521 1494.16,792.021 1487.5,786C 1478.19,781.379 1468.86,776.713 1459.5,772C 1434.98,764.915 1409.98,760.915 1384.5,760C 1381.06,753.933 1378.56,747.433 1377,740.5C 1374.69,725.98 1370.69,711.98 1365,698.5C 1364.53,697.069 1363.7,695.903 1362.5,695C 1355.8,691.991 1348.8,689.991 1341.5,689C 1326.5,688.667 1311.5,688.333 1296.5,688C 1295.05,686.883 1293.38,686.216 1291.5,686C 1265.17,685.333 1238.83,685.333 1212.5,686C 1193,691.152 1177.17,701.652 1165,717.5C 1163.08,720.898 1162.08,724.565 1162,728.5C 1161.5,740.162 1161.33,751.829 1161.5,763.5C 1141.83,763.333 1122.16,763.5 1102.5,764C 1100.19,765.109 1098.69,766.943 1098,769.5C 1097.67,772.833 1097.33,776.167 1097,779.5C 1096.33,780.167 1095.67,780.833 1095,781.5C 1089.17,775.667 1083.33,769.833 1077.5,764C 1052.17,763.333 1026.83,763.333 1001.5,764C 1000.67,781.76 1000.17,799.593 1000,817.5C 985.029,824.468 971.695,833.801 960,845.5C 958.291,848.418 956.458,851.252 954.5,854C 950.384,854.325 946.384,855.159 942.5,856.5C 923.669,845.583 905.669,833.416 888.5,820C 883.212,813.256 878.045,806.423 873,799.5C 872.005,796.874 871.672,794.207 872,791.5C 878.036,778.44 883.203,765.107 887.5,751.5C 917.125,752.658 946.791,752.825 976.5,752C 983.356,750.087 990.356,749.087 997.5,749C 1004.34,745.75 1010.67,741.75 1016.5,737C 1018.38,734.749 1019.88,732.249 1021,729.5C 1028.09,711.669 1035.42,694.002 1043,676.5C 1044.02,671.744 1045.36,667.077 1047,662.5C 1061.13,633.923 1073.13,604.589 1083,574.5C 1084.75,568.584 1086.08,562.584 1087,556.5C 1087.67,524.5 1087.67,492.5 1087,460.5C 1080.53,448.405 1072.7,437.238 1063.5,427C 1061.33,425.414 1059,424.08 1056.5,423C 1045.53,424.415 1034.53,426.082 1023.5,428C 998.076,435.564 972.076,438.897 945.5,438C 941.734,438.405 938.067,439.239 934.5,440.5C 932.896,440.061 931.396,439.394 930,438.5C 921.024,442.744 913.191,448.578 906.5,456C 890.852,464.989 874.519,472.656 857.5,479C 842.798,486.34 828.131,493.673 813.5,501C 804.575,502.248 795.575,502.915 786.5,503C 783.339,504.413 780.339,506.08 777.5,508C 772.954,512.877 768.787,518.044 765,523.5C 762.527,529.779 759.527,535.779 756,541.5C 753.413,548.264 751.746,555.264 751,562.5C 749.611,564.227 747.944,565.561 746,566.5C 740.203,563.794 734.37,561.294 728.5,559C 720.938,558.276 713.605,556.609 706.5,554C 688.341,551.786 670.341,548.786 652.5,545C 642.187,544.034 631.854,543.368 621.5,543C 613.277,534.115 605.11,525.281 597,516.5C 596.667,494.167 596.333,471.833 596,449.5C 595.426,437.528 591.926,426.528 585.5,416.5C 586,416.167 586.5,415.833 587,415.5C 603.515,416.885 620.015,418.385 636.5,420C 643.598,422.699 650.931,424.366 658.5,425C 661.962,429.233 666.295,432.233 671.5,434C 678.709,435.863 686.043,436.863 693.5,437C 698.852,444.537 703.019,452.703 706,461.5C 707.26,464.428 709.427,466.261 712.5,467C 736.167,467.667 759.833,467.667 783.5,467C 784.766,466.691 785.933,466.191 787,465.5C 787.333,446.167 787.667,426.833 788,407.5C 794.164,402.669 798.831,396.669 802,389.5C 808.416,404.581 818.916,415.747 833.5,423C 868.757,423.975 903.924,423.475 939,421.5C 952.141,424.212 966.308,423.379 981.5,419C 990.619,415.627 999.786,412.46 1009,409.5C 1013.28,393.496 1017.45,377.496 1021.5,361.5C 1025.51,361.334 1029.51,361.501 1033.5,362C 1043.04,373.551 1053.38,384.551 1064.5,395C 1069.6,399.883 1075.6,403.217 1082.5,405C 1111.17,405.667 1139.83,405.667 1168.5,405C 1211.04,388.877 1255.04,382.877 1300.5,387C 1302.29,386.215 1303.79,385.049 1305,383.5C 1305.67,356.5 1305.67,329.5 1305,302.5C 1304.58,299.578 1303.58,296.911 1302,294.5C 1301.37,291.137 1301.04,287.804 1301,284.5C 1312.52,273.99 1325.02,264.823 1338.5,257C 1351.99,245.173 1365.16,233.006 1378,220.5C 1386.45,209.046 1395.29,197.879 1404.5,187C 1409.4,186.2 1413.74,184.367 1417.5,181.5 Z"/></g>
<g><path style="opacity:1" fill="#7f5e49" d="M 456.5,236.5 C 456.479,243.374 455.813,250.041 454.5,256.5C 454.207,249.595 454.874,242.928 456.5,236.5 Z"/></g>
<g><path style="opacity:1" fill="#5f4438" d="M 454.5,256.5 C 454.666,262.509 454.499,268.509 454,274.5C 453.79,276.058 453.29,277.391 452.5,278.5C 452.976,271.005 453.642,263.671 454.5,256.5 Z"/></g>
<g><path style="opacity:1" fill="#83614b" d="M 499.5,262.5 C 500.924,264.515 501.59,266.848 501.5,269.5C 500.076,267.485 499.41,265.152 499.5,262.5 Z"/></g>
<g><path style="opacity:1" fill="#614639" d="M 1709.5,291.5 C 1708.71,297.13 1708.37,302.797 1708.5,308.5C 1707.84,306.359 1707.5,304.025 1707.5,301.5C 1707.31,297.859 1707.98,294.526 1709.5,291.5 Z"/></g>
<g><path style="opacity:1" fill="#715342" d="M 1268.5,329.5 C 1269.92,331.515 1270.59,333.848 1270.5,336.5C 1268.84,334.562 1268.17,332.228 1268.5,329.5 Z"/></g>
<g><path style="opacity:1" fill="#88654e" d="M 1768.5,334.5 C 1764.62,337.013 1760.29,338.346 1755.5,338.5C 1759.63,336.79 1763.97,335.457 1768.5,334.5 Z"/></g>
<g><path style="opacity:1" fill="#7e5d48" d="M 984.5,340.5 C 984.59,343.152 983.924,345.485 982.5,347.5C 982.41,344.848 983.076,342.515 984.5,340.5 Z"/></g>
<g><path style="opacity:1" fill="#6b4e3e" d="M 1506.5,346.5 C 1506.08,347.222 1505.42,347.722 1504.5,348C 1500.83,348.548 1497.16,349.048 1493.5,349.5C 1497.52,347.627 1501.85,346.627 1506.5,346.5 Z"/></g>
<g><path style="opacity:1" fill="#7f5e49" d="M 616.5,380.5 C 619.152,380.41 621.485,381.076 623.5,382.5C 620.848,382.59 618.515,381.924 616.5,380.5 Z"/></g>
<g><path style="opacity:1" fill="#684b3d" d="M 678.5,388.5 C 683.998,388.952 689.331,389.619 694.5,390.5C 690.154,390.666 685.821,390.499 681.5,390C 680.263,389.768 679.263,389.268 678.5,388.5 Z"/></g>
<g><path style="opacity:1" fill="#6d5040" d="M 522.5,390.5 C 524.072,393.215 525.072,396.215 525.5,399.5C 523.528,396.916 522.528,393.916 522.5,390.5 Z"/></g>
<g><path style="opacity:1" fill="#64493b" d="M 751.5,389.5 C 753.672,397.29 754.005,405.29 752.5,413.5C 751.508,405.684 751.174,397.684 751.5,389.5 Z"/></g>
<g><path style="opacity:1" fill="#6d4f3f" d="M 1736.5,395.5 C 1739.54,401.361 1740.88,407.695 1740.5,414.5C 1738.99,408.318 1737.66,401.985 1736.5,395.5 Z"/></g>
<g><path style="opacity:1" fill="#7d5c48" d="M 1474.5,445.5 C 1478.85,445.334 1483.18,445.501 1487.5,446C 1486.47,446.513 1485.47,447.013 1484.5,447.5C 1481.17,446.833 1477.83,446.167 1474.5,445.5 Z"/></g>
<g><path style="opacity:1" fill="#664a3c" d="M 555.5,458.5 C 557.642,461.8 558.975,465.467 559.5,469.5C 557.358,466.2 556.025,462.533 555.5,458.5 Z"/></g>
<g><path style="opacity:1" fill="#815f4a" d="M 1439.5,481.5 C 1442.15,481.41 1444.49,482.076 1446.5,483.5C 1443.85,483.59 1441.51,482.924 1439.5,481.5 Z"/></g>
<g><path style="opacity:1" fill="#7b5b47" d="M 1053.5,507.5 C 1053.67,513.842 1053.5,520.175 1053,526.5C 1052.77,527.737 1052.27,528.737 1051.5,529.5C 1052.02,522.012 1052.69,514.678 1053.5,507.5 Z"/></g>
<g><path style="opacity:1" fill="#7f5e49" d="M 560.5,510.5 C 560.802,514.79 560.136,518.79 558.5,522.5C 558.717,518.295 559.383,514.295 560.5,510.5 Z"/></g>
<g><path style="opacity:1" fill="#654a3b" d="M 1365.5,525.5 C 1363.82,531.68 1363.15,538.013 1363.5,544.5C 1362.35,540.019 1362.18,535.352 1363,530.5C 1363.37,528.509 1364.21,526.842 1365.5,525.5 Z"/></g>
<g><path style="opacity:1" fill="#82604b" d="M 1465.5,571.5 C 1463.38,573.655 1460.72,574.655 1457.5,574.5C 1459.94,573.129 1462.6,572.129 1465.5,571.5 Z"/></g>
<g><path style="opacity:1" fill="#5e4437" d="M 585.5,576.5 C 595.976,577.096 606.309,577.763 616.5,578.5C 606.828,578.666 597.161,578.5 587.5,578C 586.584,577.722 585.918,577.222 585.5,576.5 Z"/></g>
<g><path style="opacity:1" fill="#83614b" d="M 638.5,582.5 C 642.078,582.549 645.411,583.215 648.5,584.5C 644.878,584.678 641.544,584.011 638.5,582.5 Z"/></g>
<g><path style="opacity:1" fill="#6a4d3e" d="M 1405.5,582.5 C 1412.46,583.341 1419.46,583.674 1426.5,583.5C 1423.69,584.165 1420.69,584.498 1417.5,584.5C 1413.2,584.722 1409.2,584.055 1405.5,582.5 Z"/></g>
<g><path style="opacity:1" fill="#694c3d" d="M 788.5,582.5 C 788.59,585.152 787.924,587.485 786.5,589.5C 786.41,586.848 787.076,584.515 788.5,582.5 Z"/></g>
<g><path style="opacity:1" fill="#64493b" d="M 1431.5,630.5 C 1431.34,634.841 1430.34,638.841 1428.5,642.5C 1428.58,638.163 1429.58,634.163 1431.5,630.5 Z"/></g>
<g><path style="opacity:1" fill="#805e49" d="M 1428.5,654.5 C 1429.87,656.936 1430.87,659.603 1431.5,662.5C 1429.35,660.383 1428.35,657.716 1428.5,654.5 Z"/></g>
<g><path style="opacity:1" fill="#705241" d="M 1468.5,720.5 C 1471.65,720.415 1474.32,721.415 1476.5,723.5C 1473.46,723.267 1470.79,722.267 1468.5,720.5 Z"/></g>
<g><path style="opacity:1" fill="#8b674f" d="M 1563.5,736.5 C 1558.46,736.413 1553.46,736.746 1548.5,737.5C 1551.19,736.009 1554.19,735.343 1557.5,735.5C 1559.7,735.505 1561.7,735.838 1563.5,736.5 Z"/></g>
<g><path style="opacity:1" fill="#765744" d="M 1336.5,747.5 C 1338.04,749.838 1338.71,752.505 1338.5,755.5C 1337.23,753.095 1336.57,750.428 1336.5,747.5 Z"/></g>
<g><path style="opacity:1" fill="#82604a" d="M 1338.5,755.5 C 1339.77,757.905 1340.43,760.572 1340.5,763.5C 1338.96,761.162 1338.29,758.495 1338.5,755.5 Z"/></g>
<g><path style="opacity:1" fill="#8f6a52" d="M 1196.5,770.5 C 1197.27,771.263 1197.77,772.263 1198,773.5C 1198.83,785.008 1198.66,796.341 1197.5,807.5C 1197.75,795.136 1197.42,782.803 1196.5,770.5 Z"/></g>
<g><path style="opacity:1" fill="#705141" d="M 833.5,771.5 C 833.59,774.152 832.924,776.485 831.5,778.5C 831.41,775.848 832.076,773.515 833.5,771.5 Z"/></g>
<g><path style="opacity:1" fill="#6d5040" d="M 1346.5,786.5 C 1347.86,788.22 1348.86,790.22 1349.5,792.5C 1355.65,793.167 1361.65,793.833 1367.5,794.5C 1361.13,794.83 1354.8,794.496 1348.5,793.5C 1347.05,791.382 1346.39,789.049 1346.5,786.5 Z"/></g>
<g><path style="opacity:1" fill="#815f4a" d="M 1396.5,798.5 C 1403.5,799.251 1410.17,800.917 1416.5,803.5C 1409.57,802.435 1402.91,800.768 1396.5,798.5 Z"/></g>
<g><path style="opacity:1" fill="#89654e" d="M 1182.5,810.5 C 1187.36,809.309 1192.36,809.309 1197.5,810.5C 1192.71,810.781 1187.71,810.781 1182.5,810.5 Z"/></g>
<g><path style="opacity:1" fill="#674b3c" d="M 830.5,803.5 C 831.913,808.63 832.913,813.963 833.5,819.5C 831.227,814.549 830.227,809.216 830.5,803.5 Z"/></g>
<g><path style="opacity:1" fill="#7a5946" d="M 1474.5,862.5 C 1475.92,864.515 1476.59,866.848 1476.5,869.5C 1475.08,867.485 1474.41,865.152 1474.5,862.5 Z"/></g>
<g><path style="opacity:1" fill="#7a5a46" d="M 1482.5,881.5 C 1485.23,881.171 1487.56,881.837 1489.5,883.5C 1486.85,883.59 1484.51,882.924 1482.5,881.5 Z"/></g>
<g><path style="opacity:1" fill="#82604b" d="M 1528.5,890.5 C 1531.15,890.41 1533.49,891.076 1535.5,892.5C 1532.85,892.59 1530.51,891.924 1528.5,890.5 Z"/></g>
<g><path style="opacity:1" fill="#735543" d="M 1746.5,901.5 C 1752.13,902.292 1757.8,902.625 1763.5,902.5C 1763.74,903.791 1763.4,904.791 1762.5,905.5C 1757.32,904.006 1751.99,902.672 1746.5,901.5 Z"/></g>
<g><path style="opacity:1" fill="#6c4f3f" d="M 1753.5,919.5 C 1753.74,921.898 1753.07,923.898 1751.5,925.5C 1751.26,923.102 1751.93,921.102 1753.5,919.5 Z"/></g>
<g><path style="opacity:1" fill="#6e5140" d="M 1737.5,926.5 C 1741.8,927.2 1746.13,927.533 1750.5,927.5C 1749.04,928.16 1747.37,928.493 1745.5,928.5C 1742.51,928.618 1739.85,927.952 1737.5,926.5 Z"/></g>
<g><path style="opacity:1" fill="#5f4438" d="M 1574.5,925.5 C 1576.04,930.606 1577.04,935.939 1577.5,941.5C 1575.23,936.549 1574.23,931.216 1574.5,925.5 Z"/></g>
<g><path style="opacity:1" fill="#6c4f3f" d="M 1586.5,977.5 C 1589.78,989.838 1591.78,1002.5 1592.5,1015.5C 1590.09,1003.02 1588.09,990.355 1586.5,977.5 Z"/></g>
<g><path style="opacity:1" fill="#5f4538" d="M 1596.5,1038.5 C 1598.56,1046.23 1599.56,1054.23 1599.5,1062.5C 1597.96,1054.7 1596.96,1046.7 1596.5,1038.5 Z"/></g>
<g><path style="opacity:1" fill="#765644" d="M 1673.5,1050.5 C 1678.89,1051.76 1684.22,1052.76 1689.5,1053.5C 1685.82,1053.67 1682.15,1053.5 1678.5,1053C 1676.51,1052.63 1674.84,1051.79 1673.5,1050.5 Z"/></g>
<g><path style="opacity:1" fill="#6d4f3f" d="M 1716.5,1073.5 C 1719.43,1073.57 1722.09,1074.23 1724.5,1075.5C 1721.5,1075.71 1718.84,1075.04 1716.5,1073.5 Z"/></g>
<g><path style="opacity:1" fill="#775745" d="M 1740.5,1118.5 C 1741.77,1120.91 1742.43,1123.57 1742.5,1126.5C 1740.96,1124.16 1740.29,1121.5 1740.5,1118.5 Z"/></g>
</svg>
