<?xml version="1.0" encoding="UTF-8"?>
<!DOCTYPE svg PUBLIC "-//W3C//DTD SVG 1.1//EN" "http://www.w3.org/Graphics/SVG/1.1/DTD/svg11.dtd">
<svg xmlns="http://www.w3.org/2000/svg" version="1.1" width="2296px" height="1221px" style="shape-rendering:geometricPrecision; text-rendering:geometricPrecision; image-rendering:optimizeQuality; fill-rule:evenodd; clip-rule:evenodd" xmlns:xlink="http://www.w3.org/1999/xlink">
<g><path style="opacity:0.984" fill="#48332c" d="M 1046.5,51.5 C 1049.94,51.3011 1053.27,51.8011 1056.5,53C 1084.89,64.7514 1110.06,81.2514 1132,102.5C 1134.66,107.326 1136.16,112.493 1136.5,118C 1136.54,135.831 1136.37,153.665 1136,171.5C 1140.4,180.564 1146.9,187.731 1155.5,193C 1163.37,193.743 1168.04,197.909 1169.5,205.5C 1167.03,216.053 1165.2,226.72 1164,237.5C 1162.89,241.719 1161.22,245.719 1159,249.5C 1149.03,264.476 1136.19,276.31 1120.5,285C 1116,288.167 1112.17,292 1109,296.5C 1107.66,305.858 1106.16,315.191 1104.5,324.5C 1109.13,328.624 1113.63,332.957 1118,337.5C 1122.02,343.217 1124.69,349.55 1126,356.5C 1126.6,365.245 1126.6,373.911 1126,382.5C 1129.17,385.667 1132.33,388.833 1135.5,392C 1150.93,394.712 1163.6,402.045 1173.5,414C 1180.08,416.082 1186.41,418.748 1192.5,422C 1195.98,424.312 1198.98,427.146 1201.5,430.5C 1210.17,433.033 1218.84,432.867 1227.5,430C 1243.33,424.39 1259.33,419.39 1275.5,415C 1294.86,403.558 1312.03,389.391 1327,372.5C 1341.11,354.39 1354.44,335.723 1367,316.5C 1369.37,310.482 1368.71,304.815 1365,299.5C 1351.88,300.714 1345.55,294.714 1346,281.5C 1349,272.511 1352,263.511 1355,254.5C 1356.12,244.503 1358.45,234.837 1362,225.5C 1368.82,213.357 1376.99,202.191 1386.5,192C 1392.18,188.332 1398.18,187.665 1404.5,190C 1410.81,194.314 1416.48,199.314 1421.5,205C 1431.74,205.054 1440.41,208.721 1447.5,216C 1463.49,216.56 1477.65,211.726 1490,201.5C 1493.47,194.362 1498.64,188.862 1505.5,185C 1522.08,186.763 1538.75,187.763 1555.5,188C 1564.34,188.504 1570.84,192.67 1575,200.5C 1575.85,204.518 1575.35,208.351 1573.5,212C 1576.9,226.008 1579.4,240.175 1581,254.5C 1581.67,278.833 1581.67,303.167 1581,327.5C 1580.45,333.351 1579.12,339.018 1577,344.5C 1560.35,360.485 1542.52,374.985 1523.5,388C 1513.83,397 1504.17,406 1494.5,415C 1487.17,421.001 1479.17,426.001 1470.5,430C 1462.43,435.4 1456.59,442.567 1453,451.5C 1450.05,467.91 1446.72,484.244 1443,500.5C 1440.01,516.057 1438.35,531.723 1438,547.5C 1441.67,555.833 1445.33,564.167 1449,572.5C 1457.67,586.5 1466.33,600.5 1475,614.5C 1479.45,617.283 1483.62,620.45 1487.5,624C 1492.32,626.455 1497.32,628.455 1502.5,630C 1504.96,632.408 1506.79,635.241 1508,638.5C 1508.15,644.444 1508.98,650.277 1510.5,656C 1507.99,667.675 1506.82,679.508 1507,691.5C 1506.02,717.537 1506.52,743.537 1508.5,769.5C 1508.26,775.639 1506.1,780.973 1502,785.5C 1494.63,790.267 1486.8,794.1 1478.5,797C 1468.57,806.986 1458.74,817.153 1449,827.5C 1441.74,841.01 1434.74,854.677 1428,868.5C 1421.75,875.687 1413.92,878.521 1404.5,877C 1393.76,870.294 1382.42,864.628 1370.5,860C 1360.55,858.226 1350.55,856.892 1340.5,856C 1337.83,854.75 1335.66,852.917 1334,850.5C 1331.93,844.12 1329.76,837.787 1327.5,831.5C 1322.38,839.784 1315.72,846.617 1307.5,852C 1298.98,854.031 1290.31,855.031 1281.5,855C 1279.83,856.667 1278.17,858.333 1276.5,860C 1267.78,863.762 1258.78,866.429 1249.5,868C 1242.04,872.359 1234.04,874.025 1225.5,873C 1215.16,878.565 1204.49,883.565 1193.5,888C 1185.92,892.909 1178.92,898.575 1172.5,905C 1160.41,911.201 1148.74,910.367 1137.5,902.5C 1136.26,911.455 1134.42,920.455 1132,929.5C 1129.22,936.614 1125.22,942.947 1120,948.5C 1105.39,960.761 1093.39,975.095 1084,991.5C 1076.58,1015.08 1069.58,1038.74 1063,1062.5C 1058.17,1074 1050,1082.17 1038.5,1087C 1037.54,1093.3 1034.21,1097.97 1028.5,1101C 1011.9,1102.62 995.233,1102.96 978.5,1102C 965.028,1099.1 952.028,1094.77 939.5,1089C 932.074,1083.56 926.907,1076.39 924,1067.5C 912.862,1037.28 904.695,1006.28 899.5,974.5C 900.054,966.11 904.054,959.943 911.5,956C 915.5,954.333 919.5,952.667 923.5,951C 930.612,942.555 938.946,935.555 948.5,930C 952.236,923.361 955.57,916.528 958.5,909.5C 957.03,905.226 955.03,901.226 952.5,897.5C 947.287,895.04 941.954,892.873 936.5,891C 932.281,888.448 929.114,884.948 927,880.5C 919.722,860.781 916.055,840.447 916,819.5C 917.123,816.751 918.623,814.251 920.5,812C 927.772,807.726 934.772,803.059 941.5,798C 957.252,790.417 973.252,783.417 989.5,777C 999.536,766.632 1009.2,755.966 1018.5,745C 1043.33,724.833 1068.17,704.667 1093,684.5C 1094.96,681.537 1097.29,678.871 1100,676.5C 1100.86,674.913 1101.53,673.246 1102,671.5C 1103.43,654.575 1105.27,637.741 1107.5,621C 1096.78,612.613 1085.78,604.613 1074.5,597C 1065.37,594.043 1056.04,592.71 1046.5,593C 1041.78,594.196 1037.44,596.196 1033.5,599C 1020.73,613.19 1007.73,627.19 994.5,641C 978.709,654.392 962.376,667.059 945.5,679C 898.193,703.713 847.859,716.88 794.5,718.5C 782.099,717.2 770.766,713.034 760.5,706C 749.236,703.101 738.236,699.435 727.5,695C 710.314,684.571 692.647,674.905 674.5,666C 661.778,661.569 648.778,658.236 635.5,656C 628.665,653.328 625.331,648.328 625.5,641C 629.573,624.281 633.406,607.448 637,590.5C 641.47,582.343 648.137,579.677 657,582.5C 663.411,579.545 669.578,580.045 675.5,584C 687.362,585.781 698.696,584.114 709.5,579C 723.531,571.984 737.531,564.984 751.5,558C 762.872,554.988 773.872,550.988 784.5,546C 791.667,540.167 798.833,534.333 806,528.5C 808.853,522.953 811.519,517.287 814,511.5C 819.12,504.527 825.953,500.86 834.5,500.5C 847.29,503.468 859.957,502.968 872.5,499C 882.086,494.805 891.752,490.805 901.5,487C 910.353,479.781 918.186,471.614 925,462.5C 928.745,455.6 931.912,448.433 934.5,441C 933.547,439.045 932.213,437.378 930.5,436C 922.232,434.283 913.899,432.95 905.5,432C 902.438,430.939 899.938,429.106 898,426.5C 890.197,414.093 885.364,400.593 883.5,386C 884.435,374.062 890.768,366.728 902.5,364C 912.412,354.092 921.579,343.592 930,332.5C 949.154,313.837 965.154,292.837 978,269.5C 986.636,237.816 989.969,205.816 988,173.5C 982.297,147.468 979.963,121.135 981,94.5C 981.808,86.7082 985.308,80.5415 991.5,76C 996.236,74.9192 1000.9,73.5859 1005.5,72C 1018.99,64.5883 1032.66,57.755 1046.5,51.5 Z"/></g>
<g><path style="opacity:1" fill="#a97e5f" d="M 1049.5,79.5 C 1057.8,82.1479 1065.8,85.6479 1073.5,90C 1085.45,97.8901 1096.95,106.39 1108,115.5C 1109.42,132.663 1109.58,149.829 1108.5,167C 1108.22,172.362 1109.05,177.529 1111,182.5C 1115.61,192.439 1121.78,201.272 1129.5,209C 1134.19,211.842 1139.19,214.009 1144.5,215.5C 1142.37,220.385 1140.54,225.385 1139,230.5C 1119.97,253.506 1096.8,271.34 1069.5,284C 1066.96,286.205 1064.79,288.705 1063,291.5C 1061.42,300.089 1061.09,308.756 1062,317.5C 1062.71,327.164 1063.38,336.83 1064,346.5C 1065.45,352.91 1069.28,357.077 1075.5,359C 1082.14,358.862 1088.81,358.695 1095.5,358.5C 1093.46,369.819 1094.46,380.819 1098.5,391.5C 1094.91,399.144 1094.75,406.81 1098,414.5C 1108.94,423.443 1120.44,431.61 1132.5,439C 1142.54,439.168 1152.54,439.835 1162.5,441C 1186.14,459.443 1212.47,464.443 1241.5,456C 1255,452.168 1268,447.168 1280.5,441C 1283.17,439 1285.5,436.667 1287.5,434C 1297.66,430.92 1306.99,426.253 1315.5,420C 1323.79,414.047 1331.79,407.714 1339.5,401C 1357.7,381.798 1373.2,360.631 1386,337.5C 1394.37,328.09 1400.71,317.423 1405,305.5C 1408.27,288.722 1402.77,275.722 1388.5,266.5C 1396.03,256.773 1402.03,246.106 1406.5,234.5C 1408.76,233.353 1411.1,233.186 1413.5,234C 1427.35,242.221 1442.35,245.555 1458.5,244C 1474.13,239.794 1488.8,233.46 1502.5,225C 1506.54,221.3 1510.2,217.3 1513.5,213C 1529.15,213.857 1544.82,214.69 1560.5,215.5C 1556.02,250.413 1552.18,285.413 1549,320.5C 1548.29,323.595 1547.29,326.595 1546,329.5C 1521.12,347.211 1497.62,366.711 1475.5,388C 1465.24,396.047 1455.08,404.213 1445,412.5C 1438.6,419.632 1432.93,427.299 1428,435.5C 1421.75,452.597 1416.08,469.93 1411,487.5C 1408.72,507.224 1406.05,526.891 1403,546.5C 1402.33,554.833 1402.33,563.167 1403,571.5C 1406.87,578.376 1411.87,584.376 1418,589.5C 1430.52,606.031 1444.52,621.365 1460,635.5C 1462.43,638.795 1464.1,642.462 1465,646.5C 1465.17,673.142 1465.17,699.809 1465,726.5C 1464.97,739.924 1463.97,753.257 1462,766.5C 1449.73,780.772 1436.73,794.439 1423,807.5C 1413.5,818.501 1405.5,830.501 1399,843.5C 1385.48,835.716 1370.98,831.049 1355.5,829.5C 1352.75,818.85 1347.09,810.017 1338.5,803C 1329.68,798.457 1322.18,799.957 1316,807.5C 1311.61,816.444 1306.11,824.61 1299.5,832C 1290.83,832.667 1282.17,832.667 1273.5,832C 1267.43,829.799 1261.77,826.799 1256.5,823C 1247.84,819.504 1240.67,821.337 1235,828.5C 1233.3,831.935 1231.8,835.435 1230.5,839C 1222.93,842.903 1215.59,847.236 1208.5,852C 1195.03,852.323 1183.53,857.157 1174,866.5C 1172.22,869.274 1170.89,872.274 1170,875.5C 1166.5,879 1163,882.5 1159.5,886C 1154.27,887.907 1149.27,887.407 1144.5,884.5C 1140.1,875.937 1135.1,867.771 1129.5,860C 1119.69,853.65 1113.19,856.15 1110,867.5C 1108.34,875.83 1106.67,884.163 1105,892.5C 1104.33,896.167 1104.33,899.833 1105,903.5C 1106.85,906.677 1108.68,909.843 1110.5,913C 1109.84,915.464 1109.34,917.964 1109,920.5C 1092.96,932.208 1079.29,946.208 1068,962.5C 1063.45,970.927 1059.45,979.594 1056,988.5C 1051.26,1003.73 1045.92,1018.73 1040,1033.5C 1037.81,1043.03 1036.97,1052.7 1037.5,1062.5C 1032.9,1063.91 1028.9,1066.41 1025.5,1070C 1011.92,1071.02 998.921,1068.69 986.5,1063C 978.324,1058.41 969.991,1054.08 961.5,1050C 959.667,1048.17 957.833,1046.33 956,1044.5C 950.324,1022.12 945.158,999.623 940.5,977C 949.69,970.81 957.19,962.976 963,953.5C 969,950.167 973.667,945.5 977,939.5C 986.225,922.922 991.225,905.255 992,886.5C 991.439,884.275 990.439,882.275 989,880.5C 979.697,870.196 970.03,860.196 960,850.5C 958.697,848.06 957.53,845.56 956.5,843C 966.371,835.137 975.704,826.47 984.5,817C 1001.85,806.731 1016.68,793.564 1029,777.5C 1049.77,757.383 1072.27,739.549 1096.5,724C 1108.32,711.677 1119.99,699.177 1131.5,686.5C 1132.92,684.664 1134.09,682.664 1135,680.5C 1138.26,668.711 1141.93,657.044 1146,645.5C 1148.43,629.587 1149.43,613.587 1149,597.5C 1147.6,594.098 1145.43,591.264 1142.5,589C 1127.76,582.463 1113.43,575.13 1099.5,567C 1082.74,562.31 1066.07,557.31 1049.5,552C 1043.63,550.029 1037.63,549.362 1031.5,550C 1019.15,557.348 1008.32,566.515 999,577.5C 988.418,592.995 978.085,608.662 968,624.5C 942.585,646.301 914.085,663.134 882.5,675C 851.889,682.7 820.889,687.7 789.5,690C 780.146,686.824 771.146,682.824 762.5,678C 733.16,658.324 702.827,640.157 671.5,623.5C 669.988,619.125 668.321,614.792 666.5,610.5C 667.667,610.167 668.833,609.833 670,609.5C 682.967,612.458 695.801,611.958 708.5,608C 726.74,600.214 744.74,591.88 762.5,583C 777.195,579.662 790.861,573.995 803.5,566C 809.288,560.277 815.621,555.277 822.5,551C 828.784,544.595 833.117,537.095 835.5,528.5C 849.659,530.296 863.659,529.463 877.5,526C 894.477,520.012 910.81,512.678 926.5,504C 938.896,493.612 949.063,481.445 957,467.5C 961.747,456.926 965.08,445.926 967,434.5C 968.495,425.319 966.495,416.986 961,409.5C 955.621,402.62 949.454,396.62 942.5,391.5C 944.83,383.173 947.996,375.173 952,367.5C 959,359.833 966,352.167 973,344.5C 977.16,334.168 982.826,324.834 990,316.5C 1004.55,292.842 1013.55,267.175 1017,239.5C 1019.28,216.549 1020.28,193.549 1020,170.5C 1018.18,163.541 1016.51,156.541 1015,149.5C 1013,132.862 1011.67,116.195 1011,99.5C 1024.22,93.4718 1037.06,86.8052 1049.5,79.5 Z"/></g>
<g><path style="opacity:1" fill="#b99f7f" d="M 1053.5,134.5 C 1061.65,138.153 1068.49,143.486 1074,150.5C 1074.33,170.167 1074.67,189.833 1075,209.5C 1076.3,213.732 1077.8,217.898 1079.5,222C 1075.63,225.521 1071.47,228.688 1067,231.5C 1054.5,277.49 1042,323.49 1029.5,369.5C 1030.23,374.47 1030.73,379.47 1031,384.5C 1032.25,387.171 1034.08,389.337 1036.5,391C 1044.39,392.435 1052.39,392.935 1060.5,392.5C 1060.78,410.563 1061.61,428.563 1063,446.5C 1063.79,448.587 1064.96,450.421 1066.5,452C 1077.17,459 1087.83,466 1098.5,473C 1107.83,473.333 1117.17,473.667 1126.5,474C 1139.49,484.161 1154.16,490.494 1170.5,493C 1205.59,494.435 1240.59,493.435 1275.5,490C 1288.33,485.723 1301,481.057 1313.5,476C 1316.83,474 1319.5,471.333 1321.5,468C 1342.03,459.817 1360.2,447.984 1376,432.5C 1394.94,400.953 1415.6,370.62 1438,341.5C 1439.47,320.567 1439.97,299.567 1439.5,278.5C 1456.84,278.667 1474.17,278.5 1491.5,278C 1499.73,275.028 1508.06,272.528 1516.5,270.5C 1517.22,278.482 1516.05,286.149 1513,293.5C 1498.07,306.429 1482.57,318.596 1466.5,330C 1459.03,336.468 1451.86,343.302 1445,350.5C 1422.44,379.957 1401.1,410.291 1381,441.5C 1379.44,443.957 1378.44,446.624 1378,449.5C 1376.17,468.636 1373.5,487.636 1370,506.5C 1368.57,538.488 1368.23,570.488 1369,602.5C 1369.25,605.754 1370.25,608.754 1372,611.5C 1382.05,621.943 1391.38,632.943 1400,644.5C 1410.73,654.564 1420.73,665.23 1430,676.5C 1431.05,681.6 1431.55,686.767 1431.5,692C 1431.02,703.167 1430.52,714.334 1430,725.5C 1429.71,727.952 1429.04,730.285 1428,732.5C 1412.69,748.146 1397.69,764.146 1383,780.5C 1379.78,774.277 1374.94,769.777 1368.5,767C 1342.17,766.333 1315.83,766.333 1289.5,767C 1286.9,767.883 1284.73,769.383 1283,771.5C 1280.23,777.258 1277.07,782.758 1273.5,788C 1251.17,788.333 1228.83,788.667 1206.5,789C 1204.71,789.785 1203.21,790.951 1202,792.5C 1200.43,797.584 1197.93,802.084 1194.5,806C 1192.05,806.725 1189.72,807.725 1187.5,809C 1183.69,812.74 1179.36,815.74 1174.5,818C 1167.99,818.584 1161.65,819.918 1155.5,822C 1131.5,822.333 1107.5,822.667 1083.5,823C 1080.07,824.349 1077.9,826.849 1077,830.5C 1076.5,836.68 1075.16,842.68 1073,848.5C 1071.8,862.131 1071.14,875.798 1071,889.5C 1064,895.833 1057,902.167 1050,908.5C 1049.1,917.093 1047.1,925.426 1044,933.5C 1035.53,949.441 1027.86,965.774 1021,982.5C 1016.26,996.713 1011.93,1011.05 1008,1025.5C 1004.56,1030.08 1000.06,1031.58 994.5,1030C 989.334,1027.25 984.334,1024.25 979.5,1021C 974.639,1017.03 973.473,1012.19 976,1006.5C 984.058,995.44 991.725,984.107 999,972.5C 1003.67,967.167 1008.33,961.833 1013,956.5C 1017.14,945.753 1021.47,935.086 1026,924.5C 1026.67,900.833 1026.67,877.167 1026,853.5C 1025.55,851.481 1024.72,849.648 1023.5,848C 1031.5,842 1039.5,836 1047.5,830C 1063.95,809.885 1082.61,792.218 1103.5,777C 1111.83,771.333 1120.17,765.667 1128.5,760C 1137.33,749.833 1146.83,740.333 1157,731.5C 1158.95,727.22 1161.95,723.887 1166,721.5C 1168.76,716.182 1170.43,710.516 1171,704.5C 1175.16,694.028 1178.49,683.361 1181,672.5C 1183.38,636.202 1184.04,599.868 1183,563.5C 1181.8,559.254 1179.3,556.087 1175.5,554C 1159.4,547.118 1143.74,539.451 1128.5,531C 1111.5,527.555 1094.83,522.888 1078.5,517C 1054.5,516.333 1030.5,516.333 1006.5,517C 994.167,528 982.5,539.667 971.5,552C 964.727,558.107 957.393,563.44 949.5,568C 944.63,574.239 940.13,580.739 936,587.5C 933.5,590 931,592.5 928.5,595C 918.167,602.667 907.833,610.333 897.5,618C 885.882,623.476 874.548,629.476 863.5,636C 845.982,642.379 827.982,646.879 809.5,649.5C 796.494,644.147 784.494,637.147 773.5,628.5C 787.578,620.129 802.578,613.962 818.5,610C 834.576,602.925 848.743,593.092 861,580.5C 864.762,575.475 867.596,569.975 869.5,564C 903.119,563.904 934.119,554.904 962.5,537C 972.3,528.193 980.8,518.36 988,507.5C 993.131,496.57 997.131,485.237 1000,473.5C 1000.33,444.5 1000.67,415.5 1001,386.5C 1007.29,378.666 1012.29,369.999 1016,360.5C 1020.44,356.062 1024.11,351.062 1027,345.5C 1035.04,310.009 1043.71,274.676 1053,239.5C 1054.74,204.504 1054.91,169.504 1053.5,134.5 Z"/></g>
<g><path style="opacity:1" fill="#ad8566" d="M 973.5,533.5 C 974.525,533.897 974.692,534.563 974,535.5C 969.965,539.2 966.298,543.2 963,547.5C 962.333,546.833 962.333,546.167 963,545.5C 966.336,541.332 969.836,537.332 973.5,533.5 Z"/></g>
<g><path style="opacity:1" fill="#825f4a" d="M 657.5,630.5 C 658.497,629.287 659.497,629.454 660.5,631C 659.423,631.47 658.423,631.303 657.5,630.5 Z"/></g>
</svg>
