<?xml version="1.0" encoding="UTF-8"?>
<!DOCTYPE svg PUBLIC "-//W3C//DTD SVG 1.1//EN" "http://www.w3.org/Graphics/SVG/1.1/DTD/svg11.dtd">
<svg xmlns="http://www.w3.org/2000/svg" version="1.1" width="2296px" height="1221px" style="shape-rendering:geometricPrecision; text-rendering:geometricPrecision; image-rendering:optimizeQuality; fill-rule:evenodd; clip-rule:evenodd" xmlns:xlink="http://www.w3.org/1999/xlink">
<g><path style="opacity:0.983" fill="#48332c" d="M 1171.5,142.5 C 1187.03,142.194 1202.36,143.694 1217.5,147C 1220.83,149.667 1224.17,152.333 1227.5,155C 1235.75,158.529 1244.09,161.862 1252.5,165C 1254.71,166.873 1256.54,169.04 1258,171.5C 1258.67,180.5 1258.67,189.5 1258,198.5C 1253.88,226.535 1249.55,254.535 1245,282.5C 1241.82,311.613 1239.32,340.78 1237.5,370C 1237.44,386.722 1239.27,403.222 1243,419.5C 1243.47,428.895 1244.47,438.228 1246,447.5C 1257.8,460.967 1269.97,474.134 1282.5,487C 1285.33,489.827 1288.66,491.827 1292.5,493C 1315.05,496.286 1337.55,496.119 1360,492.5C 1374.48,494.044 1388.98,495.878 1403.5,498C 1416.34,498.502 1422.51,505.002 1422,517.5C 1421.63,518.416 1421.13,519.25 1420.5,520C 1431.54,527.371 1441.71,535.871 1451,545.5C 1458.54,554.47 1459.21,563.804 1453,573.5C 1442.02,584.815 1431.35,596.482 1421,608.5C 1419.79,614.691 1416.63,619.525 1411.5,623C 1400.38,628.061 1389.38,633.394 1378.5,639C 1369.45,647.595 1363.95,658.095 1362,670.5C 1361.04,671.579 1360.21,672.745 1359.5,674C 1347.71,678.931 1335.71,683.264 1323.5,687C 1316.97,693.23 1311.81,700.397 1308,708.5C 1307.33,720.167 1307.33,731.833 1308,743.5C 1309.73,747.953 1311.73,752.286 1314,756.5C 1320.16,764.825 1325.83,773.492 1331,782.5C 1332.32,788.114 1331.16,793.114 1327.5,797.5C 1327.71,798.086 1328.04,798.586 1328.5,799C 1334.59,799.536 1340.59,800.536 1346.5,802C 1351.76,804.256 1355.26,808.09 1357,813.5C 1357.71,827.965 1362.54,840.798 1371.5,852C 1379.2,854.678 1385.53,859.345 1390.5,866C 1401.48,870.822 1411.48,877.155 1420.5,885C 1432.26,887.81 1443.6,891.81 1454.5,897C 1456.61,899.895 1458.94,902.561 1461.5,905C 1469.94,905.384 1477.94,907.384 1485.5,911C 1492.95,917.487 1500.12,924.32 1507,931.5C 1511.74,937.902 1512.74,944.902 1510,952.5C 1500.56,972.483 1492.89,993.15 1487,1014.5C 1478.06,1036.76 1461.72,1050.43 1438,1055.5C 1434.8,1061.7 1429.96,1066.2 1423.5,1069C 1414.22,1070.52 1404.89,1070.85 1395.5,1070C 1388.01,1067.62 1380.35,1066.28 1372.5,1066C 1361.64,1062.32 1352.14,1056.49 1344,1048.5C 1339.56,1040.53 1335.9,1032.2 1333,1023.5C 1327.92,1019.38 1322.42,1015.88 1316.5,1013C 1310.07,1011.48 1303.74,1009.65 1297.5,1007.5C 1296.14,1009.03 1294.97,1010.7 1294,1012.5C 1292.45,1019.61 1289.78,1026.27 1286,1032.5C 1282.97,1035.1 1279.47,1036.77 1275.5,1037.5C 1253.97,1034.1 1232.97,1036.27 1212.5,1044C 1204.98,1051.21 1201.48,1060.04 1202,1070.5C 1199.25,1082.53 1191.92,1087.2 1180,1084.5C 1171.41,1091.89 1161.58,1094.05 1150.5,1091C 1141.04,1087.64 1131.71,1083.97 1122.5,1080C 1115.65,1074.29 1112.31,1066.96 1112.5,1058C 1114.65,1046.55 1117.82,1035.38 1122,1024.5C 1123.05,996.476 1123.89,968.476 1124.5,940.5C 1122.66,927.801 1120.49,915.134 1118,902.5C 1116.87,891.18 1115.87,879.847 1115,868.5C 1111.35,853.239 1108.02,837.906 1105,822.5C 1099.55,808.268 1093.55,794.268 1087,780.5C 1063.36,742.84 1035.2,708.673 1002.5,678C 987.387,664.285 971.72,651.285 955.5,639C 951.032,636.619 946.365,634.619 941.5,633C 933.045,631.727 924.712,631.061 916.5,631C 909.421,627.401 905.755,621.568 905.5,613.5C 893.566,607.911 881.233,603.411 868.5,600C 860.97,596.459 853.97,592.126 847.5,587C 840.833,584.333 834.167,581.667 827.5,579C 816.56,576.932 805.893,573.932 795.5,570C 786.113,568.094 776.78,568.428 767.5,571C 760.011,573.996 752.344,576.496 744.5,578.5C 741.456,577.822 738.456,576.989 735.5,576C 722.304,563.138 709.47,549.971 697,536.5C 692.38,529.611 687.047,523.277 681,517.5C 676.996,512.48 675.663,506.813 677,500.5C 683.651,487.198 690.318,473.864 697,460.5C 700.504,454.156 704.504,448.156 709,442.5C 711.264,439.567 714.098,437.4 717.5,436C 742.647,429.047 767.98,422.713 793.5,417C 806.697,411.076 820.53,407.909 835,407.5C 839.662,407.457 844.162,408.291 848.5,410C 857.328,416.248 866.328,422.248 875.5,428C 880.601,431.034 886.101,432.867 892,433.5C 901.66,431.71 911.16,429.21 920.5,426C 929.187,421.3 937.853,416.633 946.5,412C 955.02,408.38 962.687,409.713 969.5,416C 971.402,417.301 973.402,417.968 975.5,418C 970.407,413.983 968.574,408.816 970,402.5C 970.93,400.448 972.43,398.948 974.5,398C 973.383,394.927 973.216,391.76 974,388.5C 975.806,383.554 978.139,378.888 981,374.5C 981.5,372 982,369.5 982.5,367C 979.988,357.129 976.488,347.629 972,338.5C 967.494,324.034 970.327,311.201 980.5,300C 986.581,296.149 992.914,295.649 999.5,298.5C 1010.83,298.135 1021.5,295.301 1031.5,290C 1038.5,285 1045.5,280 1052.5,275C 1061.3,265.196 1070.47,255.696 1080,246.5C 1092.66,227.179 1102.66,206.512 1110,184.5C 1110.87,175.806 1111.87,167.139 1113,158.5C 1115.03,150.47 1120.2,145.97 1128.5,145C 1143,144.226 1157.33,143.392 1171.5,142.5 Z"/></g>
<g><path style="opacity:1" fill="#a97e5f" d="M 1162.5,171.5 C 1171.51,171.334 1180.51,171.5 1189.5,172C 1191.56,172.311 1193.56,172.811 1195.5,173.5C 1199.21,180.376 1203.87,186.542 1209.5,192C 1216.85,196.34 1223.85,201.173 1230.5,206.5C 1230.83,207.5 1231.17,208.5 1231.5,209.5C 1221.87,256.062 1215.37,303.062 1212,350.5C 1211.33,366.833 1211.33,383.167 1212,399.5C 1214.73,417.454 1217.06,435.454 1219,453.5C 1220.23,457.059 1221.89,460.392 1224,463.5C 1234.83,476.333 1245.67,489.167 1256.5,502C 1264,509.162 1272.33,515.162 1281.5,520C 1292.19,521.061 1302.86,522.228 1313.5,523.5C 1331.16,522.489 1348.83,522.322 1366.5,523C 1378.79,524.803 1391.12,526.136 1403.5,527C 1406.37,533.248 1409.87,539.081 1414,544.5C 1419.17,549.667 1424.33,554.833 1429.5,560C 1418.06,569.434 1407.23,579.601 1397,590.5C 1395.28,594.11 1393.45,597.61 1391.5,601C 1365.44,607.903 1347.44,623.736 1337.5,648.5C 1311.46,654.055 1292.63,668.722 1281,692.5C 1275.03,717.701 1277.7,742.034 1289,765.5C 1293.8,772.628 1298.96,779.461 1304.5,786C 1302.33,789.101 1299.66,791.768 1296.5,794C 1289.31,795.837 1282.81,799.004 1277,803.5C 1276.33,806.5 1276.33,809.5 1277,812.5C 1277.83,814.667 1279.33,816.167 1281.5,817C 1286.77,817.674 1291.93,817.174 1297,815.5C 1305.38,818.849 1313.88,822.016 1322.5,825C 1326.49,825.499 1330.49,825.666 1334.5,825.5C 1336.04,839.944 1341.2,852.944 1350,864.5C 1356.17,870.667 1362.33,876.833 1368.5,883C 1376.18,887.842 1384.18,892.175 1392.5,896C 1397.1,901.292 1402.43,905.625 1408.5,909C 1417.44,912.152 1426.44,915.152 1435.5,918C 1439.22,922.388 1443.55,926.055 1448.5,929C 1455.69,931.448 1463.02,933.115 1470.5,934C 1472.67,936.167 1474.83,938.333 1477,940.5C 1477.67,941.5 1477.67,942.5 1477,943.5C 1468.21,964.523 1460.21,985.857 1453,1007.5C 1448.45,1013.52 1442.62,1017.69 1435.5,1020C 1423.18,1021.73 1410.85,1023.4 1398.5,1025C 1391.58,1026.97 1384.74,1029.14 1378,1031.5C 1367.62,1023.36 1363.29,1012.69 1365,999.5C 1361.67,989.899 1354.84,984.732 1344.5,984C 1331.44,981.99 1318.44,979.657 1305.5,977C 1297.11,973.301 1288.44,970.468 1279.5,968.5C 1273.79,968.77 1269.62,971.437 1267,976.5C 1266.33,981.5 1266.33,986.5 1267,991.5C 1268.82,997.461 1270.32,1003.46 1271.5,1009.5C 1262.12,1009.5 1252.79,1008.83 1243.5,1007.5C 1230.37,1009.76 1217.37,1012.59 1204.5,1016C 1198.53,1018.3 1193.37,1021.8 1189,1026.5C 1183.95,1033.94 1179.95,1041.94 1177,1050.5C 1171.65,1048.95 1166.15,1048.28 1160.5,1048.5C 1160.02,1037.39 1158.69,1026.39 1156.5,1015.5C 1156.94,1012.82 1157.44,1010.15 1158,1007.5C 1158.67,988.5 1158.67,969.5 1158,950.5C 1153.6,929.668 1150.27,908.668 1148,887.5C 1141.86,863.277 1136.19,838.944 1131,814.5C 1122.36,779.218 1106.36,747.885 1083,720.5C 1078.92,713.332 1074.58,706.332 1070,699.5C 1058.95,685.449 1048.28,671.115 1038,656.5C 1027.19,643.019 1014.02,632.519 998.5,625C 991.5,621.833 984.5,618.667 977.5,615.5C 975.312,612.478 972.645,609.978 969.5,608C 959.673,602.92 950.006,597.587 940.5,592C 931.594,588.547 922.927,584.547 914.5,580C 903.253,576.688 891.92,573.688 880.5,571C 868.87,565.424 856.87,560.757 844.5,557C 841.5,555.333 838.5,553.667 835.5,552C 823.167,548.333 810.833,544.667 798.5,541C 794.167,540.833 789.833,540.667 785.5,540.5C 774.771,541.014 764.104,541.847 753.5,543C 745.208,531.041 735.208,520.707 723.5,512C 724.714,509.649 725.548,507.149 726,504.5C 727.415,489.266 729.915,474.266 733.5,459.5C 762.283,452.909 790.949,445.742 819.5,438C 824.647,437.044 829.814,436.211 835,435.5C 844.855,441.517 854.688,447.684 864.5,454C 876.427,460.208 889.094,462.208 902.5,460C 916.299,456.218 929.633,451.218 942.5,445C 947.694,440.973 953.027,437.14 958.5,433.5C 968.031,436.6 977.031,440.767 985.5,446C 990.697,446.867 995.697,446.2 1000.5,444C 1004.42,440.672 1005.92,436.505 1005,431.5C 1000.76,421.922 994.925,413.422 987.5,406C 1001.03,401.793 1008.87,392.626 1011,378.5C 1011.67,372.5 1011.67,366.5 1011,360.5C 1008.67,350.685 1005.84,341.018 1002.5,331.5C 1024.91,330.981 1044.24,323.148 1060.5,308C 1076.55,292.29 1090.72,275.123 1103,256.5C 1115.66,238.844 1126,219.844 1134,199.5C 1136.56,190.679 1138.06,181.679 1138.5,172.5C 1146.7,173.923 1154.7,173.589 1162.5,171.5 Z"/></g>
<g><path style="opacity:1" fill="#b99f7f" d="M 1170.5,221.5 C 1175.27,226.059 1180.61,229.893 1186.5,233C 1187.06,233.725 1187.39,234.558 1187.5,235.5C 1177.55,303.174 1174.71,371.174 1179,439.5C 1181.72,455.083 1183.72,470.75 1185,486.5C 1186,489.167 1187,491.833 1188,494.5C 1197.57,505.984 1206.91,517.651 1216,529.5C 1225.07,539.577 1235.57,547.744 1247.5,554C 1277.42,556.166 1307.42,557.166 1337.5,557C 1344.82,558.093 1352.15,559.093 1359.5,560C 1360.31,562.6 1359.64,564.934 1357.5,567C 1345.83,571.004 1334.83,576.337 1324.5,583C 1322,585.5 1319.5,588 1317,590.5C 1311.79,598.419 1306.96,606.586 1302.5,615C 1278.37,619.818 1260.54,632.985 1249,654.5C 1245.92,661.158 1244.25,668.158 1244,675.5C 1243.33,701.167 1243.33,726.833 1244,752.5C 1244.29,756.863 1244.79,761.196 1245.5,765.5C 1244.86,766.966 1244.03,768.3 1243,769.5C 1242.33,795.5 1242.33,821.5 1243,847.5C 1244.01,849.259 1245.51,850.426 1247.5,851C 1260.84,849.9 1273.5,852.233 1285.5,858C 1289.82,858.76 1294.15,859.427 1298.5,860C 1299.7,860.903 1300.53,862.069 1301,863.5C 1303.51,878.19 1309.51,891.19 1319,902.5C 1325.14,907.634 1330.97,913.134 1336.5,919C 1343.83,922.667 1351.17,926.333 1358.5,930C 1362.58,934.749 1367.24,938.749 1372.5,942C 1381.35,945.462 1390.35,948.462 1399.5,951C 1403.39,954.136 1407.06,957.469 1410.5,961C 1414.32,962.995 1418.32,964.495 1422.5,965.5C 1418.88,974.956 1412.38,981.623 1403,985.5C 1400.91,983.652 1399.57,981.319 1399,978.5C 1398.67,973.167 1398.33,967.833 1398,962.5C 1396.89,957.755 1394.05,954.588 1389.5,953C 1373.51,950.001 1357.51,947.001 1341.5,944C 1332.97,940.379 1324.3,937.379 1315.5,935C 1291.17,934.333 1266.83,934.333 1242.5,935C 1237.85,935.73 1234.68,938.23 1233,942.5C 1232.5,953.161 1232.33,963.828 1232.5,974.5C 1221.83,974.333 1211.16,974.5 1200.5,975C 1197.57,975.606 1194.74,976.44 1192,977.5C 1191.67,955.5 1191.33,933.5 1191,911.5C 1187.18,896.75 1184.84,881.75 1184,866.5C 1178.35,842.302 1173.02,817.969 1168,793.5C 1160.74,759.994 1147.74,728.994 1129,700.5C 1108.05,671.219 1086.72,642.219 1065,613.5C 1058.69,606.851 1051.52,601.351 1043.5,597C 1033.29,591.728 1022.96,586.728 1012.5,582C 1010.61,579.194 1008.27,576.86 1005.5,575C 997.347,571.426 989.68,567.093 982.5,562C 970.925,557.213 959.592,551.88 948.5,546C 937.932,542.921 927.265,540.255 916.5,538C 905.751,532.146 894.418,527.812 882.5,525C 878.007,522.921 873.674,520.588 869.5,518C 858.048,515.072 846.715,511.738 835.5,508C 818.878,506.741 802.211,506.075 785.5,506C 781.5,501.333 777.5,496.667 773.5,492C 788.207,487.766 803.041,483.933 818,480.5C 826.63,486.731 836.13,491.231 846.5,494C 876.167,494.667 905.833,494.667 935.5,494C 948.717,489.928 961.717,485.261 974.5,480C 994.543,479.939 1014.54,479.272 1034.5,478C 1036.33,477.5 1037.5,476.333 1038,474.5C 1038.33,459.167 1038.67,443.833 1039,428.5C 1041.92,422.799 1043.92,416.799 1045,410.5C 1045.5,394.837 1045.67,379.17 1045.5,363.5C 1062.95,362.519 1078.28,356.352 1091.5,345C 1097.64,339.866 1103.47,334.366 1109,328.5C 1124.11,308.721 1138.44,288.388 1152,267.5C 1160.69,253.122 1166.86,237.789 1170.5,221.5 Z"/></g>
</svg>
