<?xml version="1.0" encoding="UTF-8"?>
<!DOCTYPE svg PUBLIC "-//W3C//DTD SVG 1.1//EN" "http://www.w3.org/Graphics/SVG/1.1/DTD/svg11.dtd">
<svg xmlns="http://www.w3.org/2000/svg" version="1.1" width="2296px" height="1221px" style="shape-rendering:geometricPrecision; text-rendering:geometricPrecision; image-rendering:optimizeQuality; fill-rule:evenodd; clip-rule:evenodd" xmlns:xlink="http://www.w3.org/1999/xlink">
<g><path style="opacity:0.986" fill="#48332c" d="M 1555.5,26.5 C 1562.68,26.3926 1569.35,28.2259 1575.5,32C 1582.04,38.2081 1588.87,44.0414 1596,49.5C 1604.24,61.0811 1613.24,72.0811 1623,82.5C 1626.17,87.0599 1627.17,92.0599 1626,97.5C 1623.63,102.52 1621.3,107.52 1619,112.5C 1617.38,127.172 1615.72,141.839 1614,156.5C 1610.02,172.431 1606.35,188.431 1603,204.5C 1599.59,215.069 1595.59,225.402 1591,235.5C 1585.6,257.107 1579.26,278.441 1572,299.5C 1566.78,310.948 1560.78,321.948 1554,332.5C 1553.57,341.361 1549.57,348.028 1542,352.5C 1533.61,363.892 1525.61,375.559 1518,387.5C 1514.66,397.839 1510,407.506 1504,416.5C 1479.11,443.385 1454.28,470.219 1429.5,497C 1422.97,502.513 1415.47,506.013 1407,507.5C 1382.11,504.315 1358.28,497.481 1335.5,487C 1330.41,483.917 1325.91,480.083 1322,475.5C 1318.41,469.909 1314.08,464.909 1309,460.5C 1306.14,453.488 1301.31,448.321 1294.5,445C 1288,438.5 1281.5,432 1275,425.5C 1270.84,433.828 1266.17,441.828 1261,449.5C 1240.09,478.992 1219.42,508.659 1199,538.5C 1195.94,550.668 1194.6,563.001 1195,575.5C 1196.02,574.366 1196.68,574.699 1197,576.5C 1198.39,583.664 1200.39,590.664 1203,597.5C 1203.8,612.044 1203.3,626.544 1201.5,641C 1203.37,661.825 1204.21,682.659 1204,703.5C 1212.18,724.186 1222.18,743.852 1234,762.5C 1239.83,768.333 1245.67,774.167 1251.5,780C 1264.52,788.509 1277.18,797.509 1289.5,807C 1303.53,814.475 1318.53,818.142 1334.5,818C 1338.46,819.091 1342.46,820.091 1346.5,821C 1349.11,822.938 1350.94,825.438 1352,828.5C 1356.58,840.477 1359.74,852.81 1361.5,865.5C 1360.17,875.677 1354.5,879.843 1344.5,878C 1342.79,880.043 1340.79,881.71 1338.5,883C 1332.02,884.937 1325.69,887.27 1319.5,890C 1310.04,897.451 1300.04,904.118 1289.5,910C 1279.31,918.688 1271.64,929.188 1266.5,941.5C 1267.83,959.177 1269.33,976.843 1271,994.5C 1273.9,1013.44 1276.23,1032.44 1278,1051.5C 1281.11,1066.18 1287.27,1079.34 1296.5,1091C 1309.05,1097.2 1321.38,1103.86 1333.5,1111C 1342.43,1115.26 1347.43,1122.26 1348.5,1132C 1348.67,1135.13 1347.84,1137.96 1346,1140.5C 1338.04,1150.8 1328.54,1159.3 1317.5,1166C 1314.5,1173 1309.5,1178 1302.5,1181C 1290.24,1183.46 1278.91,1188.13 1268.5,1195C 1252.5,1195.67 1236.5,1195.67 1220.5,1195C 1210.79,1187.43 1199.79,1182.76 1187.5,1181C 1183.6,1179.43 1179.93,1177.43 1176.5,1175C 1166.07,1163.29 1156.23,1151.12 1147,1138.5C 1136.17,1130.15 1126.01,1120.99 1116.5,1111C 1115.67,1110.83 1114.83,1110.67 1114,1110.5C 1095.18,1110.1 1076.01,1110.6 1056.5,1112C 1045.39,1113.82 1034.39,1116.16 1023.5,1119C 1016.5,1126.67 1009.5,1134.33 1002.5,1142C 998.153,1145.67 993.153,1148.01 987.5,1149C 974.833,1149.67 962.167,1149.67 949.5,1149C 937.5,1145.67 925.5,1142.33 913.5,1139C 900.166,1137 886.832,1135 873.5,1133C 864.863,1131.67 856.529,1129.34 848.5,1126C 842.797,1122.63 838.963,1117.8 837,1111.5C 834.576,1093.22 833.242,1074.89 833,1056.5C 834.384,1052.24 836.884,1048.74 840.5,1046C 856.388,1035.62 870.888,1023.45 884,1009.5C 896.389,992.504 903.555,973.504 905.5,952.5C 902.897,932.239 901.064,911.906 900,891.5C 898.788,877.318 894.788,863.985 888,851.5C 880.549,842.044 873.882,832.044 868,821.5C 851.167,804.676 835.834,786.676 822,767.5C 819.167,764.667 816.333,761.833 813.5,759C 803.145,752.155 793.145,744.822 783.5,737C 766.025,728.764 749.025,719.764 732.5,710C 716.5,703.667 700.5,697.333 684.5,691C 673.609,688.155 662.609,685.822 651.5,684C 646.08,682.212 642.247,678.712 640,673.5C 635.748,642.486 630.581,611.652 624.5,581C 624.458,574.083 627.125,568.416 632.5,564C 639.167,560 645.833,556 652.5,552C 660.613,541.944 666.779,530.777 671,518.5C 672.249,507.747 673.916,497.081 676,486.5C 681.257,480.451 687.757,476.285 695.5,474C 708.714,471.424 722.048,469.757 735.5,469C 752.674,465.72 769.007,460.053 784.5,452C 801.975,443.764 818.975,434.764 835.5,425C 849.777,411.385 860.944,395.551 869,377.5C 866.677,357.385 864.511,337.219 862.5,317C 862.164,310.351 864.831,305.351 870.5,302C 893.294,294.069 916.294,286.736 939.5,280C 947.142,277.543 954.475,278.21 961.5,282C 966.083,285.912 969.917,290.412 973,295.5C 978.654,301.489 985.154,306.323 992.5,310C 1003.24,313.469 1013.91,317.136 1024.5,321C 1028.75,323.243 1032.41,326.243 1035.5,330C 1037.65,331.59 1039.98,332.257 1042.5,332C 1067.35,321.469 1089.18,306.636 1108,287.5C 1133.91,252.243 1162.08,218.743 1192.5,187C 1197.3,182.875 1202.63,179.542 1208.5,177C 1218.16,175.001 1227.5,172.001 1236.5,168C 1279.37,148.564 1322.7,130.231 1366.5,113C 1393.62,100.607 1420.62,87.9399 1447.5,75C 1479.42,61.8045 1511.42,48.8045 1543.5,36C 1545.4,34.1847 1547.07,32.1847 1548.5,30C 1550.93,28.7874 1553.26,27.6207 1555.5,26.5 Z"/></g>
<g><path style="opacity:1" fill="#a97e5f" d="M 1561.5,60.5 C 1574.63,70.4598 1586.29,81.9598 1596.5,95C 1592.15,106.762 1589.31,118.928 1588,131.5C 1570.4,160.364 1554.06,190.03 1539,220.5C 1526.78,252.489 1513.78,284.156 1500,315.5C 1493.33,339.83 1485.67,363.83 1477,387.5C 1462.66,408.51 1445.49,427.01 1425.5,443C 1421.28,444.472 1416.94,445.472 1412.5,446C 1398.76,447.092 1385.09,448.759 1371.5,451C 1359.85,452.279 1348.85,450.279 1338.5,445C 1333.91,438.405 1328.58,432.405 1322.5,427C 1316.96,423.73 1311.29,420.73 1305.5,418C 1296.46,407.959 1287.79,397.626 1279.5,387C 1268.51,382.978 1262.35,386.812 1261,398.5C 1250.59,412.315 1240.92,426.649 1232,441.5C 1214.19,462.467 1196.85,483.8 1180,505.5C 1169.79,519.797 1164.12,535.797 1163,553.5C 1162.32,568.853 1162.66,584.186 1164,599.5C 1165.67,615.522 1167.5,631.522 1169.5,647.5C 1167.63,660.295 1165.13,672.962 1162,685.5C 1161.33,690.833 1161.33,696.167 1162,701.5C 1171.14,736.606 1185.14,769.606 1204,800.5C 1208.96,806.465 1214.79,811.298 1221.5,815C 1232.76,813.848 1243.76,815.182 1254.5,819C 1262.5,824.333 1270.5,829.667 1278.5,835C 1292.88,838.678 1307.21,842.511 1321.5,846.5C 1322.93,849.626 1324.26,852.793 1325.5,856C 1311.62,863.44 1297.28,870.106 1282.5,876C 1269.75,882.094 1258.08,889.761 1247.5,899C 1238.5,903.669 1230.33,909.503 1223,916.5C 1219.7,922.078 1218.7,928.078 1220,934.5C 1230.01,971.59 1239.01,1008.92 1247,1046.5C 1250.82,1058.1 1254.48,1069.76 1258,1081.5C 1261.33,1089.49 1265.66,1096.83 1271,1103.5C 1279.96,1112.8 1289.79,1120.96 1300.5,1128C 1295.56,1134.22 1292.22,1141.22 1290.5,1149C 1284.48,1149.87 1278.48,1150.87 1272.5,1152C 1259.42,1156.47 1246.42,1161.14 1233.5,1166C 1232.17,1166.67 1230.83,1166.67 1229.5,1166C 1216.96,1158.78 1204.96,1150.78 1193.5,1142C 1182.75,1127.91 1171.25,1114.41 1159,1101.5C 1156.34,1095.55 1153.67,1089.55 1151,1083.5C 1148.33,1080.84 1145.16,1079 1141.5,1078C 1124.53,1076.3 1107.53,1075.14 1090.5,1074.5C 1059.8,1075.61 1029.13,1076.78 998.5,1078C 990.178,1081.48 986.678,1087.65 988,1096.5C 990.063,1101 991.063,1105.67 991,1110.5C 988.167,1113.33 985.333,1116.17 982.5,1119C 961.653,1119.36 941.653,1115.36 922.5,1107C 912.706,1104.8 903.039,1102.13 893.5,1099C 891.413,1098.21 889.579,1097.04 888,1095.5C 885.907,1089.57 885.074,1083.57 885.5,1077.5C 900.29,1068.21 911.79,1055.88 920,1040.5C 925.822,1029.86 930.822,1018.86 935,1007.5C 940.273,985.417 943.773,963.084 945.5,940.5C 945.066,935.161 944.566,929.827 944,924.5C 938.227,903.743 933.561,882.743 930,861.5C 922.768,841.029 912.435,822.362 899,805.5C 880.233,784.064 860.733,763.23 840.5,743C 827.324,733.912 814.324,724.579 801.5,715C 787.866,703.187 773.866,691.854 759.5,681C 741.18,669.84 721.846,660.84 701.5,654C 696.256,651.797 691.422,648.964 687,645.5C 676.882,625.598 668.715,604.931 662.5,583.5C 662.763,580.972 663.596,578.639 665,576.5C 687.215,555.706 698.715,530.04 699.5,499.5C 724.377,499.682 748.71,496.182 772.5,489C 795.419,480.358 817.752,470.358 839.5,459C 856.197,449.305 870.03,436.472 881,420.5C 887.109,411.284 892.442,401.617 897,391.5C 900.333,383.833 900.333,376.167 897,368.5C 896.333,364.833 896.333,361.167 897,357.5C 900.13,347.017 902.297,336.35 903.5,325.5C 914.674,323.598 925.674,320.931 936.5,317.5C 949.495,323.331 962.495,329.164 975.5,335C 988.874,339.76 1002.54,343.427 1016.5,346C 1019.13,348.146 1022.13,349.479 1025.5,350C 1060.6,351.081 1091.26,340.081 1117.5,317C 1128.87,306.709 1138.71,295.209 1147,282.5C 1164.41,263.757 1181.08,244.423 1197,224.5C 1202.86,218.301 1209.03,212.468 1215.5,207C 1225.67,204.249 1235.67,200.915 1245.5,197C 1283.91,178.128 1323.24,161.461 1363.5,147C 1395.74,132.881 1427.74,118.214 1459.5,103C 1493.7,89.0569 1527.7,74.8902 1561.5,60.5 Z"/></g>
<g><path style="opacity:1" fill="#b99f7f" d="M 1539.5,117.5 C 1540.38,117.369 1541.04,117.702 1541.5,118.5C 1528.9,140.022 1517.07,162.022 1506,184.5C 1493.98,216.215 1480.98,247.549 1467,278.5C 1459.99,303.863 1451.99,328.863 1443,353.5C 1428.01,373.496 1411.18,391.996 1392.5,409C 1387.9,410.478 1383.23,411.645 1378.5,412.5C 1376.37,412.485 1374.37,411.985 1372.5,411C 1368.21,405.042 1363.54,399.376 1358.5,394C 1353.45,390.806 1348.11,388.139 1342.5,386C 1333.2,377.042 1325.04,367.209 1318,356.5C 1316.27,354.383 1314.1,352.883 1311.5,352C 1285.5,351.333 1259.5,351.333 1233.5,352C 1229.25,354.561 1227.42,358.394 1228,363.5C 1216.89,377.95 1206.55,392.95 1197,408.5C 1176.86,431.637 1157.86,455.637 1140,480.5C 1137.61,485.003 1135.61,489.669 1134,494.5C 1131.58,504.711 1129.91,515.044 1129,525.5C 1128.33,554.5 1128.33,583.5 1129,612.5C 1129.27,621.39 1130.11,630.223 1131.5,639C 1130.17,643.445 1129.01,647.945 1128,652.5C 1127.33,679.5 1127.33,706.5 1128,733.5C 1136.84,770.684 1151.5,805.351 1172,837.5C 1176.6,842.104 1181.77,845.938 1187.5,849C 1195.83,849.333 1204.17,849.667 1212.5,850C 1217,850.917 1221,852.917 1224.5,856C 1215.03,864.237 1204.7,871.237 1193.5,877C 1188.7,881.441 1186.2,886.941 1186,893.5C 1185.33,918.167 1185.33,942.833 1186,967.5C 1196.69,1010.3 1207.35,1052.97 1218,1095.5C 1209,1085.17 1200,1074.83 1191,1064.5C 1189.41,1058.55 1187.07,1052.89 1184,1047.5C 1181.46,1045.65 1178.62,1044.48 1175.5,1044C 1147.24,1041.13 1118.91,1039.96 1090.5,1040.5C 1049.81,1041.1 1009.14,1042.1 968.5,1043.5C 970.368,1029.33 973.202,1015.33 977,1001.5C 978.582,965.853 978.916,930.186 978,894.5C 976.258,881.533 973.258,868.866 969,856.5C 966.447,829.737 957.447,805.403 942,783.5C 934.424,774.013 927.091,764.346 920,754.5C 905.804,740.638 891.971,726.471 878.5,712C 865.779,702.279 852.779,692.946 839.5,684C 823.743,670.239 807.41,657.239 790.5,645C 770.95,633.929 750.617,624.596 729.5,617C 721.02,612.073 715.687,604.739 713.5,595C 725.586,575.96 732.586,555.293 734.5,533C 761.881,532.923 788.548,528.59 814.5,520C 840.511,509.562 865.511,497.228 889.5,483C 907.973,466.214 922.139,446.38 932,423.5C 932.333,410.167 932.667,396.833 933,383.5C 934.207,377.799 935.54,372.132 937,366.5C 950.908,372.603 965.408,376.77 980.5,379C 982.888,380.861 985.554,382.194 988.5,383C 1019.83,383.667 1051.17,383.667 1082.5,383C 1126.01,374.675 1159.51,351.842 1183,314.5C 1198.04,297.795 1212.71,280.795 1227,263.5C 1234.83,255.667 1242.67,247.833 1250.5,240C 1261.04,237.264 1271.37,233.931 1281.5,230C 1320.04,211.378 1359.37,194.712 1399.5,180C 1445.9,158.293 1492.57,137.46 1539.5,117.5 Z"/></g>
</svg>
