<?xml version="1.0" encoding="UTF-8"?>
<!DOCTYPE svg PUBLIC "-//W3C//DTD SVG 1.1//EN" "http://www.w3.org/Graphics/SVG/1.1/DTD/svg11.dtd">
<svg xmlns="http://www.w3.org/2000/svg" version="1.1" width="2296px" height="1221px" style="shape-rendering:geometricPrecision; text-rendering:geometricPrecision; image-rendering:optimizeQuality; fill-rule:evenodd; clip-rule:evenodd" xmlns:xlink="http://www.w3.org/1999/xlink">
<g><path style="opacity:0.985" fill="#48332c" d="M 632.5,1.5 C 650.397,1.03258 668.064,2.86591 685.5,7C 700.208,9.67572 714.874,9.67572 729.5,7C 742.326,5.25542 754.659,6.92208 766.5,12C 768.617,13.7309 770.117,15.8976 771,18.5C 772.586,23.0971 773.919,27.7637 775,32.5C 792.868,63.3909 810.368,94.5576 827.5,126C 839.943,132.927 853.11,138.094 867,141.5C 874.859,135.194 883.693,133.361 893.5,136C 919.254,143.605 945.254,150.272 971.5,156C 977.186,157.555 982.353,160.055 987,163.5C 990.638,174.715 993.972,186.048 997,197.5C 1005.38,215.635 1012.38,234.302 1018,253.5C 1024.61,266.377 1030.94,279.377 1037,292.5C 1049.01,299.732 1061.84,305.232 1075.5,309C 1103.99,314.704 1131.66,323.037 1158.5,334C 1172.41,338.643 1186.41,342.977 1200.5,347C 1208.03,351.201 1212.2,357.701 1213,366.5C 1220.77,402.686 1227.77,439.019 1234,475.5C 1241.56,504.966 1248.23,534.633 1254,564.5C 1255.86,571.93 1258.02,579.263 1260.5,586.5C 1272.82,592.324 1284.49,599.158 1295.5,607C 1306.83,616.333 1318.17,625.667 1329.5,635C 1348.83,647 1368.17,659 1387.5,671C 1405.12,684.956 1422.46,699.289 1439.5,714C 1456.33,725.581 1473.33,736.915 1490.5,748C 1512.66,764.922 1536.32,779.588 1561.5,792C 1578.83,802.586 1595,814.753 1610,828.5C 1616.2,844.088 1622.2,859.755 1628,875.5C 1632.14,885.112 1636.81,894.446 1642,903.5C 1656.53,922.035 1672.53,939.368 1690,955.5C 1695.38,961.884 1700.38,968.55 1705,975.5C 1706.79,982.407 1708.12,989.407 1709,996.5C 1713.12,1004.85 1716.45,1013.52 1719,1022.5C 1726.2,1048.97 1733.87,1075.3 1742,1101.5C 1748.75,1112.33 1753.25,1124 1755.5,1136.5C 1755.17,1139.32 1754.34,1141.99 1753,1144.5C 1746.82,1148.59 1740.82,1152.92 1735,1157.5C 1725.9,1177.87 1712.4,1194.7 1694.5,1208C 1683.56,1213.87 1671.9,1216.04 1659.5,1214.5C 1635.84,1213.71 1612.17,1213.55 1588.5,1214C 1578.3,1213.49 1570.47,1208.99 1565,1200.5C 1561.85,1190.63 1564.35,1182.46 1572.5,1176C 1579.22,1170.97 1586.56,1166.97 1594.5,1164C 1603.38,1156.12 1612.54,1148.62 1622,1141.5C 1621.18,1130.35 1620.02,1119.18 1618.5,1108C 1618.85,1104.04 1619.69,1100.21 1621,1096.5C 1623.7,1093.46 1626.7,1090.8 1630,1088.5C 1633.21,1080.14 1631.21,1073.48 1624,1068.5C 1615.44,1071.97 1606.61,1074.3 1597.5,1075.5C 1590.6,1074.8 1585.43,1071.47 1582,1065.5C 1579.86,1059.89 1577.19,1054.55 1574,1049.5C 1569.62,1044.79 1565.62,1039.79 1562,1034.5C 1558.07,1026.25 1553.74,1018.25 1549,1010.5C 1544.92,1009.19 1541.09,1007.35 1537.5,1005C 1534.17,1002.33 1530.83,999.667 1527.5,997C 1518.34,995.167 1509.17,993.334 1500,991.5C 1487.17,993.777 1474.67,997.277 1462.5,1002C 1448.96,1002.32 1437.46,997.486 1428,987.5C 1418.67,974.167 1409.33,960.833 1400,947.5C 1393.73,937.648 1394.4,928.315 1402,919.5C 1412.12,909.208 1422.29,899.208 1432.5,889.5C 1427.4,878.957 1422.56,868.291 1418,857.5C 1415.75,853.332 1413.25,849.332 1410.5,845.5C 1405.98,844.719 1401.98,842.885 1398.5,840C 1396.83,839.333 1395.17,839.333 1393.5,840C 1389.47,845.361 1384.81,850.027 1379.5,854C 1374.2,855.725 1368.87,855.725 1363.5,854C 1356.58,851.137 1349.58,848.47 1342.5,846C 1339.17,843.333 1335.83,840.667 1332.5,838C 1321.52,832.843 1310.85,827.176 1300.5,821C 1294.56,816.463 1291.56,810.463 1291.5,803C 1292.74,797.21 1293.24,791.377 1293,785.5C 1291.75,783.999 1290.75,782.332 1290,780.5C 1288.84,770.016 1284.34,761.183 1276.5,754C 1267.28,748.781 1259.28,742.114 1252.5,734C 1235.69,726.769 1220.02,717.769 1205.5,707C 1190.83,702.333 1176.17,697.667 1161.5,693C 1150.47,690.39 1139.3,688.557 1128,687.5C 1116.46,689.69 1105.96,694.19 1096.5,701C 1087.14,703.343 1078.14,706.677 1069.5,711C 1066.78,715.384 1063.12,718.718 1058.5,721C 1051.38,723.725 1044.38,726.725 1037.5,730C 1033.7,732.797 1030.2,735.964 1027,739.5C 1024.12,745.705 1020.45,751.372 1016,756.5C 1013.87,762.568 1011.53,768.568 1009,774.5C 1003.88,780.479 997.377,783.979 989.5,785C 985.411,791.093 980.578,796.593 975,801.5C 974.102,805.795 972.269,809.628 969.5,813C 956.114,822.192 941.447,828.359 925.5,831.5C 921.265,831.074 917.265,829.907 913.5,828C 903.333,818.5 893.167,809 883,799.5C 877.773,793.211 874.273,786.045 872.5,778C 873.299,773.9 874.799,770.066 877,766.5C 885.751,752.662 894.751,738.995 904,725.5C 904.913,721.347 905.747,717.18 906.5,713C 903.438,701.089 905.771,690.422 913.5,681C 912.464,678.226 911.631,675.393 911,672.5C 911.068,661.704 910.068,651.038 908,640.5C 906.878,638.376 905.378,636.543 903.5,635C 897.844,630.504 891.844,626.504 885.5,623C 878.184,621.946 870.851,621.113 863.5,620.5C 864.407,627.943 862.573,634.61 858,640.5C 849.833,650 841,658.833 831.5,667C 822.67,672.531 813.67,672.864 804.5,668C 797.081,657.621 787.414,650.121 775.5,645.5C 769.476,652.021 762.81,657.854 755.5,663C 753.167,666 750.833,669 748.5,672C 744.56,673.886 741.06,676.386 738,679.5C 737.674,684.146 736.34,688.479 734,692.5C 725.918,697.911 718.418,704.078 711.5,711C 707.535,712.993 703.535,714.993 699.5,717C 690.79,718.452 682.124,720.118 673.5,722C 666.434,725.078 659.101,727.244 651.5,728.5C 642.569,727.955 635.736,723.955 631,716.5C 628.746,712.993 626.746,709.327 625,705.5C 617.167,697.667 609.333,689.833 601.5,682C 594.424,677.594 587.924,672.428 582,666.5C 578.51,658.702 578.843,651.035 583,643.5C 589.833,638 596,631.833 601.5,625C 608.213,620.465 615.546,619.298 623.5,621.5C 632.44,619.393 641.44,617.56 650.5,616C 661.117,611.36 671.117,605.693 680.5,599C 684.984,598.129 689.317,596.796 693.5,595C 710.599,580.376 717.433,561.876 714,539.5C 712.771,518.319 708.938,497.653 702.5,477.5C 703.042,473.699 704.042,470.033 705.5,466.5C 696.498,455.004 685.498,445.837 672.5,439C 667.946,437.259 663.279,435.926 658.5,435C 642.406,432.848 626.406,430.181 610.5,427C 605.011,424.532 601.511,420.365 600,414.5C 599.895,405.521 598.728,396.688 596.5,388C 596.613,380.561 596.78,373.061 597,365.5C 599.263,359.732 603.43,356.399 609.5,355.5C 612.432,343.069 620.265,337.403 633,338.5C 640.586,335.31 648.419,332.81 656.5,331C 660.088,328.623 663.588,326.123 667,323.5C 668.791,316.885 670.457,310.218 672,303.5C 673.558,290.521 675.725,277.688 678.5,265C 676.847,254.692 674.347,244.525 671,234.5C 661.146,223.973 649.646,215.807 636.5,210C 628.074,207.127 619.407,205.96 610.5,206.5C 605.833,206.667 601.167,206.833 596.5,207C 590.287,208.773 584.287,211.106 578.5,214C 567.772,216.657 559.939,213.157 555,203.5C 553.465,199.227 552.131,194.894 551,190.5C 551.423,171.841 552.089,153.174 553,134.5C 553.483,130.533 554.816,126.866 557,123.5C 557.558,115.491 557.392,107.491 556.5,99.5C 556.253,95.2587 557.087,91.2587 559,87.5C 569.333,74.5 579.667,61.5 590,48.5C 598.752,36.0018 606.752,23.0018 614,9.5C 619.606,5.27397 625.773,2.6073 632.5,1.5 Z"/></g>
<g><path style="opacity:1" fill="#a97e5f" d="M 636.5,30.5 C 654.926,31.7749 673.26,33.9416 691.5,37C 706.844,37.1671 722.178,37.6671 737.5,38.5C 744.02,49.207 749.186,60.5403 753,72.5C 754.934,76.7594 757.268,80.7594 760,84.5C 768.054,94.8877 775.721,105.554 783,116.5C 790.432,124.596 797.099,133.263 803,142.5C 809.195,149.014 816.362,154.181 824.5,158C 840.618,162.262 856.618,166.928 872.5,172C 896.217,175.675 919.883,179.675 943.5,184C 947.167,185.667 950.833,187.333 954.5,189C 964.84,201.679 974.007,215.179 982,229.5C 987.488,245.786 992.821,262.119 998,278.5C 1000.87,291.872 1003.87,305.205 1007,318.5C 1008.88,323.427 1012.04,327.26 1016.5,330C 1029.75,333.657 1043.08,336.99 1056.5,340C 1064.58,340.817 1072.58,342.15 1080.5,344C 1114.98,352.369 1149.31,361.202 1183.5,370.5C 1186.63,381.67 1189.13,393.003 1191,404.5C 1200.22,461.803 1209.22,519.136 1218,576.5C 1219.35,582.883 1221.68,588.883 1225,594.5C 1229.33,599.248 1234.16,603.414 1239.5,607C 1251,614.583 1262.66,621.917 1274.5,629C 1295.5,647.333 1316.5,665.667 1337.5,684C 1373.94,712.394 1412.27,738.061 1452.5,761C 1491.73,789.207 1532.56,815.041 1575,838.5C 1577.94,849.384 1582.27,859.717 1588,869.5C 1611.96,911.153 1641.63,948.486 1677,981.5C 1678.33,983.5 1679.67,985.5 1681,987.5C 1681.6,997.601 1682.94,1007.6 1685,1017.5C 1689.68,1036.23 1694.68,1054.89 1700,1073.5C 1703.44,1087.67 1705.44,1102 1706,1116.5C 1704.89,1120.73 1703.22,1124.73 1701,1128.5C 1693.39,1139.38 1685.05,1149.72 1676,1159.5C 1674.33,1163.17 1672.67,1166.83 1671,1170.5C 1655.16,1181.37 1638,1184.03 1619.5,1178.5C 1622.5,1174.5 1625.5,1170.5 1628.5,1166.5C 1637.02,1164.81 1642.52,1159.81 1645,1151.5C 1647.26,1145.34 1647.93,1139 1647,1132.5C 1646.34,1124.68 1644.5,1117.18 1641.5,1110C 1643.53,1106.28 1646.03,1102.78 1649,1099.5C 1658.47,1073.94 1649.97,1057.44 1623.5,1050C 1616.57,1049.58 1609.73,1048.75 1603,1047.5C 1601.86,1043.89 1600.19,1040.55 1598,1037.5C 1587.25,1024.35 1578.25,1010.01 1571,994.5C 1568.37,990.868 1565.37,987.535 1562,984.5C 1563.63,979.045 1565.46,973.545 1567.5,968C 1566.19,959.361 1562.19,958.028 1555.5,964C 1553.18,967.478 1551.02,970.978 1549,974.5C 1547.01,973.182 1545.01,971.848 1543,970.5C 1543.13,963.066 1540.97,956.4 1536.5,950.5C 1544.38,945.284 1548.38,937.95 1548.5,928.5C 1554.65,926.198 1557.15,921.865 1556,915.5C 1554.13,912.982 1551.63,911.648 1548.5,911.5C 1542.74,913.415 1537.57,916.415 1533,920.5C 1532.04,924.572 1532.54,928.405 1534.5,932C 1532.77,935.739 1530.27,938.905 1527,941.5C 1520.11,938.639 1512.94,937.805 1505.5,939C 1499.44,940.464 1493.44,942.13 1487.5,944C 1476.07,950.986 1463.73,953.819 1450.5,952.5C 1446.67,944.837 1442.34,937.504 1437.5,930.5C 1444.67,920.167 1451.83,909.833 1459,899.5C 1461.82,888.968 1460.48,878.968 1455,869.5C 1449.42,858.673 1443.59,848.006 1437.5,837.5C 1423.07,827.24 1409.07,816.407 1395.5,805C 1386.5,804.667 1377.5,804.333 1368.5,804C 1365.11,803.202 1361.77,802.202 1358.5,801C 1351.86,793.364 1344.86,786.03 1337.5,779C 1333.58,776.123 1329.42,773.623 1325,771.5C 1319.71,757.347 1315.04,743.013 1311,728.5C 1303.04,720.197 1294.2,713.03 1284.5,707C 1267.11,695.971 1249.11,685.971 1230.5,677C 1227.83,676.667 1225.17,676.333 1222.5,676C 1215.01,669.419 1206.68,664.086 1197.5,660C 1189.23,658.548 1181.23,656.214 1173.5,653C 1169.17,652.333 1164.83,652.333 1160.5,653C 1149.22,655.135 1137.89,656.801 1126.5,658C 1106.28,664.777 1086.28,672.11 1066.5,680C 1058.57,683.453 1051.57,688.12 1045.5,694C 1030.85,696.998 1018.35,703.831 1008,714.5C 1005.06,718.053 1002.89,722.053 1001.5,726.5C 992.471,733.847 986.804,743.181 984.5,754.5C 968.59,754.538 955.757,760.872 946,773.5C 944.213,777.577 942.046,781.41 939.5,785C 936.373,785.392 933.373,786.225 930.5,787.5C 925.515,783.015 920.681,778.349 916,773.5C 915.915,768.764 916.581,764.097 918,759.5C 924.496,750.333 930.163,740.666 935,730.5C 936.413,726.261 937.413,721.928 938,717.5C 948.329,708.206 950.829,697.206 945.5,684.5C 948.923,680.572 951.757,676.239 954,671.5C 954.667,667.833 954.667,664.167 954,660.5C 950.258,653.609 947.925,646.276 947,638.5C 945.92,636.004 944.586,633.67 943,631.5C 931.167,621 919.333,610.5 907.5,600C 890.279,588.18 871.279,584.18 850.5,588C 845.275,589.279 840.609,591.612 836.5,595C 832.533,595.483 828.866,596.816 825.5,599C 818.748,604.24 813.748,610.74 810.5,618.5C 809.624,619.251 808.624,619.751 807.5,620C 803.294,620.261 799.127,620.761 795,621.5C 786.232,617.464 777.065,615.964 767.5,617C 754.833,625.667 744.167,636.333 735.5,649C 732.382,650.059 729.382,651.392 726.5,653C 721.5,656.667 717.167,661 713.5,666C 705.943,670.224 698.943,675.224 692.5,681C 681.095,683.048 669.762,685.548 658.5,688.5C 657.833,688.167 657.167,687.833 656.5,687.5C 652.333,680.5 648.167,673.5 644,666.5C 640.833,662 637,658.167 632.5,655C 656.737,653.374 677.404,644.04 694.5,627C 705.621,623.693 714.788,617.526 722,608.5C 740.495,585.731 747.495,559.731 743,530.5C 749.527,525.255 748.694,522.255 740.5,521.5C 739.996,514.138 739.162,506.804 738,499.5C 735.997,492.162 734.331,484.829 733,477.5C 738.503,472.987 742.669,467.487 745.5,461C 755.165,458.891 764.165,455.225 772.5,450C 776.756,445.615 776.423,441.615 771.5,438C 764.786,435.763 757.952,433.929 751,432.5C 743.22,433.927 735.72,436.26 728.5,439.5C 727.069,439.023 725.736,438.357 724.5,437.5C 722.47,431.106 719.636,425.106 716,419.5C 707.781,411.621 698.281,405.787 687.5,402C 680.525,401.079 673.525,400.412 666.5,400C 656.067,393.013 644.733,390.513 632.5,392.5C 631.5,392.167 630.833,391.5 630.5,390.5C 633.5,385.833 636.5,381.167 639.5,376.5C 652.495,369.346 665.829,362.846 679.5,357C 694.262,345.065 701.095,329.565 700,310.5C 706.434,290.809 707.768,270.809 704,250.5C 701.236,238.316 697.903,226.316 694,214.5C 687.429,201.592 678.929,190.092 668.5,180C 650.012,168.614 630.012,162.28 608.5,161C 598.814,163.427 589.981,167.594 582,173.5C 582.48,158.687 582.98,143.853 583.5,129C 583.437,119.095 582.937,109.262 582,99.5C 600.622,78.7149 617.122,56.3816 631.5,32.5C 633.291,31.8302 634.958,31.1635 636.5,30.5 Z"/></g>
<g><path style="opacity:1" fill="#b99f7f" d="M 662.5,71.5 C 675.837,71.3334 689.171,71.5001 702.5,72C 706.967,78.429 710.8,85.2623 714,92.5C 717.22,101.07 720.886,109.404 725,117.5C 734.157,129.147 742.823,141.147 751,153.5C 754.966,158.467 759.299,163.134 764,167.5C 769.565,179.06 778.399,187.227 790.5,192C 806.968,196.2 823.301,200.867 839.5,206C 862.254,209.203 884.921,212.869 907.5,217C 910.618,218.893 913.951,220.226 917.5,221C 930.427,235.014 941.26,250.514 950,267.5C 954.995,283.151 959.995,298.818 965,314.5C 967.992,327.102 970.658,339.769 973,352.5C 974.886,356.44 977.386,359.94 980.5,363C 993.464,366.657 1006.46,369.99 1019.5,373C 1033.34,374.08 1046.67,377.08 1059.5,382C 1089.14,388.077 1118.48,395.41 1147.5,404C 1149.49,405.319 1150.65,407.152 1151,409.5C 1153.32,417.76 1155.32,426.093 1157,434.5C 1163.12,473.867 1169.45,513.2 1176,552.5C 1185.67,565.833 1195.33,579.167 1205,592.5C 1209.7,597.534 1214.7,602.2 1220,606.5C 1220.65,608.235 1220.48,609.902 1219.5,611.5C 1229.7,618.198 1240.03,624.698 1250.5,631C 1266.65,644.241 1282.98,657.241 1299.5,670C 1363.13,723.291 1426.46,776.958 1489.5,831C 1501.18,835.186 1508.52,843.353 1511.5,855.5C 1530.1,864.951 1547.43,876.117 1563.5,889C 1570.03,895.198 1576.2,901.698 1582,908.5C 1597.25,934.671 1613.25,960.337 1630,985.5C 1634.19,992.554 1637.86,999.888 1641,1007.5C 1641.5,1010.15 1641.66,1012.81 1641.5,1015.5C 1639.04,1015.22 1636.87,1014.22 1635,1012.5C 1624.4,992.228 1611.07,973.894 1595,957.5C 1585.33,944.833 1575.67,932.167 1566,919.5C 1560.17,914.333 1554.33,909.167 1548.5,904C 1536.54,895.827 1523.87,894.16 1510.5,899C 1506.58,899.793 1502.74,899.626 1499,898.5C 1499,901.229 1497.83,903.229 1495.5,904.5C 1494.68,901.553 1494.18,898.553 1494,895.5C 1491.5,892.498 1489.5,889.165 1488,885.5C 1486.46,874.813 1484.8,864.146 1483,853.5C 1480.01,847.033 1477.18,840.533 1474.5,834C 1448.06,815.9 1423.06,795.9 1399.5,774C 1370.3,778.861 1352.13,766.694 1345,737.5C 1344.22,734.24 1344.38,731.073 1345.5,728C 1312.37,699.197 1278.37,671.531 1243.5,645C 1223.56,638.448 1204.73,629.615 1187,618.5C 1165.57,619.327 1144.07,619.827 1122.5,620C 1095.84,622.655 1070.51,629.989 1046.5,642C 1035.99,644.091 1026.33,648.091 1017.5,654C 1015.5,656 1013.5,658 1011.5,660C 1003.78,662.303 996.28,665.136 989,668.5C 988.667,654.5 988.333,640.5 988,626.5C 986.607,622.714 984.941,619.048 983,615.5C 982.379,609.506 980.712,603.839 978,598.5C 963.631,583.566 947.798,570.4 930.5,559C 924.553,557.129 918.553,555.462 912.5,554C 880.833,553.333 849.167,553.333 817.5,554C 808.819,557.675 800.152,561.342 791.5,565C 785.293,569.568 780.627,575.401 777.5,582.5C 776.336,576.528 776.17,570.528 777,564.5C 779,563.833 780.333,562.5 781,560.5C 781.333,538.5 781.667,516.5 782,494.5C 791.531,492.401 800.198,488.401 808,482.5C 808.667,456.833 808.667,431.167 808,405.5C 803.207,402.73 798.04,400.897 792.5,400C 780.505,399.5 768.505,399.333 756.5,399.5C 754.821,393.807 752.321,388.474 749,383.5C 742.636,378.971 736.136,374.637 729.5,370.5C 730.792,368.333 731.625,366 732,363.5C 735.15,345.65 737.816,327.65 740,309.5C 740.896,282.144 740.563,254.811 739,227.5C 736.429,212.642 733.096,197.975 729,183.5C 722.533,170.723 714.699,158.889 705.5,148C 679.937,131.37 651.937,124.37 621.5,127C 636.762,109.628 650.428,91.1276 662.5,71.5 Z"/></g>
<g><path style="opacity:1" fill="#ac8364" d="M 1179.5,579.5 C 1182,581.17 1184,583.336 1185.5,586C 1181.47,585.8 1179.47,583.633 1179.5,579.5 Z"/></g>
</svg>
