<?xml version="1.0" encoding="UTF-8"?>
<!DOCTYPE svg PUBLIC "-//W3C//DTD SVG 1.1//EN" "http://www.w3.org/Graphics/SVG/1.1/DTD/svg11.dtd">
<svg xmlns="http://www.w3.org/2000/svg" version="1.1" width="2296px" height="1221px" style="shape-rendering:geometricPrecision; text-rendering:geometricPrecision; image-rendering:optimizeQuality; fill-rule:evenodd; clip-rule:evenodd" xmlns:xlink="http://www.w3.org/1999/xlink">
<g><path style="opacity:0.984" fill="#48332c" d="M 1417.5,61.5 C 1420.85,61.335 1424.18,61.5017 1427.5,62C 1433.28,64.0571 1438.95,66.3904 1444.5,69C 1454.78,71.0951 1465.11,72.7618 1475.5,74C 1479.05,74.7736 1482.38,76.107 1485.5,78C 1491.72,85.2139 1497.55,92.7139 1503,100.5C 1503.67,102.5 1504.33,104.5 1505,106.5C 1506.57,130.169 1506.23,154.169 1504,178.5C 1500.77,190.126 1494.6,199.96 1485.5,208C 1469.17,218.99 1454,231.49 1440,245.5C 1436.7,252.668 1433.7,260.001 1431,267.5C 1427.28,273.444 1422.12,277.611 1415.5,280C 1398.66,286.368 1381.32,290.035 1363.5,291C 1353.28,287.223 1343.28,282.889 1333.5,278C 1322.27,274.591 1311.27,270.591 1300.5,266C 1284.29,258.06 1267.95,250.393 1251.5,243C 1246.71,240.039 1242.37,236.539 1238.5,232.5C 1231.42,231.858 1225.26,229.191 1220,224.5C 1214.69,214.537 1214.02,204.204 1218,193.5C 1223.26,176.374 1228.93,159.374 1235,142.5C 1238.04,135.887 1243.21,132.054 1250.5,131C 1296.88,128.324 1340.88,116.657 1382.5,96C 1394.45,90.0497 1402.95,80.883 1408,68.5C 1410.53,65.1151 1413.7,62.7818 1417.5,61.5 Z"/></g>
<g><path style="opacity:1" fill="#a97e5f" d="M 1428.5,99.5 C 1434.23,100.685 1439.89,102.185 1445.5,104C 1451.78,104.796 1457.94,104.296 1464,102.5C 1466.03,102.354 1467.7,103.02 1469,104.5C 1469.98,127.481 1469.64,150.481 1468,173.5C 1466.92,175.996 1465.59,178.33 1464,180.5C 1460.2,183.297 1456.7,186.464 1453.5,190C 1437.11,197.383 1422.61,207.55 1410,220.5C 1403.68,228.481 1399.51,237.481 1397.5,247.5C 1386.92,250.196 1376.59,253.363 1366.5,257C 1351.91,248.373 1336.58,241.373 1320.5,236C 1303.1,227.884 1285.94,219.384 1269,210.5C 1270.36,197.095 1274.52,184.595 1281.5,173C 1291.33,169.055 1301,164.721 1310.5,160C 1341.05,152.931 1370.05,141.931 1397.5,127C 1409.27,119.396 1419.6,110.229 1428.5,99.5 Z"/></g>
<g><path style="opacity:0.975" fill="#48332c" d="M 1558.5,132.5 C 1569.51,132.333 1580.51,132.5 1591.5,133C 1600.33,133.237 1607.83,136.403 1614,142.5C 1614.67,144.5 1615.33,146.5 1616,148.5C 1616.37,157.314 1617.7,165.98 1620,174.5C 1620.81,195.44 1616.14,215.107 1606,233.5C 1604.86,235.609 1603.36,237.442 1601.5,239C 1591.79,244.857 1581.79,250.191 1571.5,255C 1553.64,263.273 1536.64,261.939 1520.5,251C 1514.23,245.617 1510.73,238.784 1510,230.5C 1509.11,219.987 1510.11,209.653 1513,199.5C 1514.94,193.897 1518.6,189.897 1524,187.5C 1528.15,173.043 1533.49,159.043 1540,145.5C 1544.61,138.792 1550.78,134.459 1558.5,132.5 Z"/></g>
<g><path style="opacity:1" fill="#b99f7f" d="M 1411.5,157.5 C 1420.11,157.592 1422.94,161.592 1420,169.5C 1417.6,172.4 1414.77,174.733 1411.5,176.5C 1409.07,184.768 1403.73,190.268 1395.5,193C 1391.57,201.529 1385.57,208.196 1377.5,213C 1358.48,217.072 1343.32,211.239 1332,195.5C 1331.1,186.487 1334.93,180.321 1343.5,177C 1347.68,175.371 1352.01,174.538 1356.5,174.5C 1361.84,175.34 1367.17,175.84 1372.5,176C 1384.8,168.18 1397.8,162.014 1411.5,157.5 Z"/></g>
<g><path style="opacity:1" fill="#a97e5f" d="M 1564.5,159.5 C 1572.86,159.926 1581.19,160.593 1589.5,161.5C 1594.1,181.167 1591.6,199.833 1582,217.5C 1569.21,228.985 1554.38,233.818 1537.5,232C 1536.67,231.167 1535.83,230.333 1535,229.5C 1534.33,224.833 1534.33,220.167 1535,215.5C 1539.25,209.335 1543.25,203.002 1547,196.5C 1552.32,183.868 1558.15,171.534 1564.5,159.5 Z"/></g>
<g><path style="opacity:1" fill="#b99f7f" d="M 1570.5,181.5 C 1574.83,180.451 1577,182.118 1577,186.5C 1580.21,188.732 1581.21,191.732 1580,195.5C 1579.33,197.5 1578.67,199.5 1578,201.5C 1574.29,203.698 1571.12,206.531 1568.5,210C 1561.24,211.033 1558.41,207.867 1560,200.5C 1563,193.818 1566.5,187.484 1570.5,181.5 Z"/></g>
<g><path style="opacity:0.983" fill="#48332c" d="M 997.5,830.5 C 1010.05,832.035 1022.71,834.201 1035.5,837C 1043.39,839.877 1049.89,844.711 1055,851.5C 1062.51,863.016 1071.51,873.35 1082,882.5C 1089.84,891.341 1096.5,901.008 1102,911.5C 1103.07,915.284 1103.9,919.118 1104.5,923C 1101.95,942.934 1098.78,962.767 1095,982.5C 1093.28,987.446 1090.45,991.613 1086.5,995C 1080,998.414 1073.67,1002.08 1067.5,1006C 1057.19,1014.16 1046.52,1021.82 1035.5,1029C 1027.86,1035.64 1020.53,1042.64 1013.5,1050C 1008.44,1054.06 1003.11,1057.72 997.5,1061C 993.553,1066.07 989.053,1070.57 984,1074.5C 983.03,1076.27 982.196,1078.11 981.5,1080C 985.309,1087.74 987.643,1095.9 988.5,1104.5C 985.965,1112.58 983.132,1120.58 980,1128.5C 972.01,1141.17 962.51,1152.67 951.5,1163C 947.055,1166.04 942.388,1168.71 937.5,1171C 932.313,1172.97 926.98,1173.64 921.5,1173C 902.611,1168.48 883.945,1163.15 865.5,1157C 858.285,1153.79 853.119,1148.62 850,1141.5C 833.025,1134.95 815.525,1130.45 797.5,1128C 784.785,1123.44 778.952,1114.27 780,1100.5C 775.447,1088.84 772.114,1076.84 770,1064.5C 766.625,1050.48 770.125,1038.64 780.5,1029C 796.775,1018.39 812.775,1007.39 828.5,996C 843.112,991.796 857.445,986.796 871.5,981C 875.956,974.875 880.789,969.042 886,963.5C 887.545,958.953 887.879,954.287 887,949.5C 881.333,940.833 875.667,932.167 870,923.5C 868.637,919.239 868.304,914.905 869,910.5C 871.895,903.708 875.562,897.375 880,891.5C 892.5,875 905,858.5 917.5,842C 925.218,838.988 933.218,836.988 941.5,836C 960.382,834.846 979.049,833.012 997.5,830.5 Z"/></g>
<g><path style="opacity:1" fill="#a97e5f" d="M 991.5,860.5 C 996.179,860.334 1000.85,860.501 1005.5,861C 1013.03,863.133 1020.7,864.467 1028.5,865C 1033.36,870.563 1037.86,876.396 1042,882.5C 1051.07,890.899 1059.4,899.899 1067,909.5C 1070.02,913.544 1072.52,917.877 1074.5,922.5C 1071.78,938.258 1068.62,953.925 1065,969.5C 1049.11,981.057 1032.94,992.223 1016.5,1003C 999.667,1021.17 982.167,1038.67 964,1055.5C 952.832,1069.16 951.499,1083.82 960,1099.5C 958.909,1110.84 953.742,1120.01 944.5,1127C 940.5,1130.33 936.5,1133.67 932.5,1137C 929.351,1138.66 926.184,1140.16 923,1141.5C 910.502,1138 898.002,1134.5 885.5,1131C 866.67,1120 849.837,1106.5 835,1090.5C 833.939,1076.16 833.272,1061.82 833,1047.5C 843.123,1041.04 851.623,1032.88 858.5,1023C 873.469,1018.8 887.136,1012.13 899.5,1003C 908.88,995.852 912.547,986.519 910.5,975C 917.453,962.62 918.286,949.787 913,936.5C 909.205,929.071 905.038,921.905 900.5,915C 911.205,899.762 922.038,884.596 933,869.5C 935.911,867.84 939.078,866.674 942.5,866C 958.98,864.134 975.313,862.301 991.5,860.5 Z"/></g>
<g><path style="opacity:1" fill="#b99f7f" d="M 981.5,898.5 C 985.514,898.334 989.514,898.501 993.5,899C 1004.28,912.279 1015.61,925.112 1027.5,937.5C 1010.25,949.711 993.078,962.044 976,974.5C 970.118,985.044 963.451,995.044 956,1004.5C 947.333,1015.83 938.667,1027.17 930,1038.5C 927,1041.5 924,1044.5 921,1047.5C 920.667,1059.17 920.333,1070.83 920,1082.5C 917,1085.5 914,1088.5 911,1091.5C 901.087,1085.09 891.921,1077.75 883.5,1069.5C 886.623,1065.42 889.623,1061.25 892.5,1057C 897.101,1055.19 901.767,1053.69 906.5,1052.5C 906.248,1049.68 906.748,1047.01 908,1044.5C 921.28,1025.55 934.947,1006.89 949,988.5C 949.333,968.167 949.667,947.833 950,927.5C 956.833,918.667 963.667,909.833 970.5,901C 974.28,900.082 977.946,899.249 981.5,898.5 Z"/></g>
<g><path style="opacity:0.967" fill="#48332c" d="M 1155.5,938.5 C 1184.73,935.543 1194.9,947.877 1186,975.5C 1179.24,1001.77 1162.41,1014.94 1135.5,1015C 1125.53,1011.03 1119.03,1003.86 1116,993.5C 1115.33,990.833 1115.33,988.167 1116,985.5C 1118.37,971.308 1121.37,957.308 1125,943.5C 1126.58,941.959 1128.41,940.792 1130.5,940C 1139.01,939.829 1147.34,939.329 1155.5,938.5 Z"/></g>
<g><path style="opacity:1" fill="#a87e5f" d="M 1155.5,959.5 C 1160.5,959.5 1165.5,959.5 1170.5,959.5C 1169.42,969.243 1166.25,978.243 1161,986.5C 1155.62,990.521 1149.62,993.188 1143,994.5C 1141.29,994.561 1139.96,993.894 1139,992.5C 1134.25,986.522 1133.58,980.188 1137,973.5C 1139.11,969.619 1140.94,965.619 1142.5,961.5C 1146.98,960.833 1151.32,960.166 1155.5,959.5 Z"/></g>
<g><path style="opacity:1" fill="#b99e7e" d="M 1151.5,969.5 C 1158.49,967.996 1161.33,970.663 1160,977.5C 1157.08,982.062 1153.24,983.229 1148.5,981C 1147.11,980.044 1146.44,978.711 1146.5,977C 1147.55,974.114 1149.21,971.614 1151.5,969.5 Z"/></g>
<g><path style="opacity:0.978" fill="#48332c" d="M 1112.5,1027.5 C 1121.49,1026.91 1128.66,1030.25 1134,1037.5C 1139.33,1046.17 1144.67,1054.83 1150,1063.5C 1154.19,1071.35 1155.53,1079.68 1154,1088.5C 1151.28,1100.42 1148.95,1112.42 1147,1124.5C 1142.79,1141.05 1132.62,1152.21 1116.5,1158C 1101.4,1162.86 1086.4,1162.52 1071.5,1157C 1056.55,1150.13 1041.55,1143.46 1026.5,1137C 1018.6,1131.71 1015.93,1124.54 1018.5,1115.5C 1014.56,1108.77 1014.73,1102.1 1019,1095.5C 1022.72,1091.45 1026.05,1087.12 1029,1082.5C 1034.24,1071.68 1040.24,1061.34 1047,1051.5C 1052.5,1044.67 1058.67,1038.5 1065.5,1033C 1072.18,1031.2 1078.84,1031.37 1085.5,1033.5C 1094.66,1031.62 1103.66,1029.62 1112.5,1027.5 Z"/></g>
<g><path style="opacity:1" fill="#a97e5f" d="M 1111.5,1054.5 C 1113.02,1054.51 1114.18,1055.18 1115,1056.5C 1119.13,1064.59 1123.63,1072.43 1128.5,1080C 1125.03,1093.04 1122.19,1106.2 1120,1119.5C 1119.48,1122.03 1118.32,1124.2 1116.5,1126C 1108.85,1131.95 1100.19,1134.28 1090.5,1133C 1076.28,1127.89 1062.28,1122.23 1048.5,1116C 1046.17,1113.67 1043.83,1111.33 1041.5,1109C 1051.37,1096.77 1059.87,1083.6 1067,1069.5C 1069.63,1065.87 1072.63,1062.53 1076,1059.5C 1088.35,1061.28 1100.18,1059.62 1111.5,1054.5 Z"/></g>
<g><path style="opacity:1" fill="#b99f7f" d="M 1090.5,1074.5 C 1097.66,1074.5 1103.16,1077.5 1107,1083.5C 1108.69,1092.25 1106.85,1100.08 1101.5,1107C 1092.45,1112.21 1084.61,1110.71 1078,1102.5C 1078.59,1091.65 1082.76,1082.31 1090.5,1074.5 Z"/></g>
</svg>
